<?xml version="1.0" encoding="utf-8"?>
<!-- Generator: Adobe Illustrator 24.1.3, SVG Export Plug-In . SVG Version: 6.00 Build 0)  -->
<svg version="1.1" id="레이어_1" xmlns="http://www.w3.org/2000/svg" xmlns:xlink="http://www.w3.org/1999/xlink" x="0px"
	 y="0px" viewBox="0 0 841.89 595.28" style="enable-background:new 0 0 841.89 595.28;" xml:space="preserve">
<style type="text/css">
	.st0{fill:#3D6554;}
	.st1{fill:#F4F0EC;}
	.st2{fill:#FFFFFF;}
	.st3{fill:#D4654C;}
	.st4{fill:#B84B33;}
	.st5{fill:#262730;}
	.st6{fill:#4A4747;}
	.st7{fill:#DFCBC2;}
	.st8{fill:#ECDFD9;}
	.st9{fill:#878484;}
	.st10{fill:#D49C80;}
	.st11{fill:#AC7459;}
	.st12{fill:#965942;}
	.st13{fill:#916254;}
	.st14{fill:#F9D390;}
	.st15{fill:#F0BB79;}
	.st16{fill:#733F2B;}
	.st17{fill:#7D442F;}
	.st18{fill:#EFAF6F;}
	.st19{fill:#A7C6E0;}
	.st20{fill:#47587B;}
	.st21{opacity:0.33;fill:#FFFFFF;}
	.st22{fill:#F29A87;}
</style>
<g>
	<path class="st0" d="M652.95,161.61c-7.71-11.13-8.45-24.68-11.91-37.45c-2.35-8.69-5.6-19-14.41-23.18
		c-6.95-3.3-15.67-1.97-20.76,3.92c-0.71,0.82,0.48,2.01,1.19,1.19c6.53-7.55,18.24-6.38,24.51,0.86
		c6.54,7.56,8.45,19.15,10.5,28.62c2.11,9.74,3.63,18.56,9.41,26.9c6.45,9.3,9.88,19.3,8.94,30.72c-0.09,1.08,1.6,1.08,1.69,0
		C663.08,181.48,659.55,171.14,652.95,161.61z"/>
	<path class="st1" d="M631.03,128.83L432.06,248.8l-199.71-59.69c0,0-0.89-14.46,5.98-31.23c0.72-1.77,1.53-3.57,2.45-5.39
		c6.6-13.12,18.29-26.82,38.97-35.62c3.25-1.39,6.73-2.66,10.43-3.78c3.84-1.16,7.81-2.17,11.87-3.03c44-9.42,98.58-3,124.99-12.7
		c67.71-24.87,151.34-3.37,177.01,9.69C618.38,114.35,631.03,128.83,631.03,128.83z"/>
	<g>
		<path class="st2" d="M302.06,110.06l-0.95,35.7l-0.18,6.73l-0.11,4.04H278.7l0.11-4.04l0.18-6.73l0.77-28.89
			c3.25-1.39,6.73-2.66,10.43-3.78C294.04,111.94,298.01,110.93,302.06,110.06z"/>
		<path class="st2" d="M272.28,145.76h34.34c5.8,0,10.35,4.99,9.81,10.77l0,0h-54.13l0.17-1.84
			C262.94,149.63,267.19,145.76,272.28,145.76z"/>
		<path class="st2" d="M348.55,152.5l-0.2,5.39H238.33c0.72-1.77,1.53-3.57,2.45-5.39H348.55z"/>
	</g>
	<polygon class="st3" points="476.43,189.11 473.84,262.54 473.82,263.39 473.19,281.09 473.16,281.94 472.05,313.53 340.67,304.97 
		339.83,304.91 322.62,303.79 321.78,303.74 304.56,302.62 303.72,302.56 286.51,301.44 285.67,301.39 268.46,300.27 267.62,300.21 
		250.41,299.09 249.57,299.04 232.04,297.89 231.2,297.84 230.05,297.77 230.39,281.94 230.41,281.09 230.78,263.39 230.8,262.54 
		231.17,244.83 231.19,243.98 231.56,226.27 231.58,225.42 231.95,207.7 231.98,206.86 232.35,189.11 	"/>
	<path class="st4" d="M474.25,207.7v-0.84h-22.03l0.55-17.75h-0.84l-0.55,17.75h-17.25l0.55-17.75h-0.84l-0.55,17.75h-17.25
		l0.55-17.75h-0.84l-0.55,17.75h-17.25l0.55-17.75h-0.84l-0.55,17.75h-17.25l0.55-17.75h-0.84l-0.55,17.75h-35.33l0.55-17.75h-0.84
		l-0.55,17.75h-17.25l0.55-17.75h-0.84l-0.55,17.75h-17.25l0.55-17.75h-0.84l-0.55,17.75h-17.25l0.55-17.75h-0.84l-0.55,17.75
		h-17.25l0.55-17.75h-0.84l-0.55,17.75h-17.25l0.55-17.75h-0.84l-0.55,17.75h-20.42l-0.03,0.84h20.42l-0.55,17.72h-20.25l-0.02,0.84
		h20.24l-0.54,17.72h-20.07l-0.02,0.84h20.06l-0.55,17.72H230.8l-0.02,0.84h19.88l-0.55,17.71h-19.71l-0.02,0.84h19.7l-0.52,17.1
		l-0.22,7.16l0.84,0.03l0.22-7.14l0.52-17.15h17.25l-0.56,18.27l-0.19,5.99l0.84,0.03l0.19-5.96l0.56-18.33h17.25l-0.6,19.45
		l-0.14,4.81l0.84,0.03l0.14-4.79l0.6-19.5h17.25l-0.63,20.63l-0.11,3.64l0.84,0.03l0.11-3.61l0.63-20.68h17.25l-0.67,21.81
		l-0.08,2.46l0.84,0.03l0.08-2.44l0.67-21.86h17.25l-0.7,22.98l-0.04,1.29l0.84,0.03l0.04-1.26l0.7-23.04h35.33l-0.74,24.27
		l0.84,0.03l0.74-24.29h17.25l-0.74,24.27l0.84,0.03l0.74-24.29h17.25l-0.74,24.27l0.84,0.03l0.74-24.29h17.25l-0.74,24.27
		l0.84,0.03l0.74-24.29h17.25l-0.74,24.27l0.84,0.03l0.74-24.29h24.34v-0.84h-24.32l0.55-17.71h23.77v-0.84H450.5l0.55-17.72h23.2
		v-0.84h-23.17l0.54-17.72h22.63v-0.84h-22.6l0.54-17.72H474.25z M416.01,207.7h17.25l-0.54,17.72h-17.25L416.01,207.7z
		 M415.44,226.27h17.25l-0.54,17.72H414.9L415.44,226.27z M397.92,207.7h17.25l-0.54,17.72h-17.25L397.92,207.7z M397.36,226.27
		h17.24l-0.54,17.72h-17.25L397.36,226.27z M379.83,207.7h17.25l-0.54,17.72h-17.25L379.83,207.7z M379.27,226.27h17.24l-0.54,17.72
		h-17.25L379.27,226.27z M343.66,207.7h35.33l-0.54,17.72h-35.33L343.66,207.7z M343.09,226.27h35.33l-0.54,17.72h-35.33
		L343.09,226.27z M325.57,207.7h17.25l-0.54,17.72h-17.25L325.57,207.7z M325,226.27h17.24l-0.54,17.72h-17.25L325,226.27z
		 M307.48,207.7h17.25l-0.54,17.72h-17.25L307.48,207.7z M306.92,226.27h17.24l-0.54,17.72h-17.25L306.92,226.27z M289.39,207.7
		h17.25l-0.54,17.72h-17.25L289.39,207.7z M288.82,226.27h17.25l-0.54,17.72h-17.25L288.82,226.27z M271.3,207.7h17.25L288,225.42
		h-17.24L271.3,207.7z M270.73,226.27h17.25l-0.54,17.72h-17.25L270.73,226.27z M253.22,207.7h17.25l-0.55,17.72h-17.24
		L253.22,207.7z M252.64,226.27h17.25l-0.54,17.72H252.1L252.64,226.27z M268.2,281.09h-17.25l0.55-17.71h17.25L268.2,281.09z
		 M268.78,262.54h-17.25l0.55-17.72h17.25L268.78,262.54z M286.29,281.09h-17.25l0.55-17.71h17.25L286.29,281.09z M286.86,262.54
		h-17.25l0.55-17.72h17.25L286.86,262.54z M304.38,281.09h-17.25l0.55-17.71h17.25L304.38,281.09z M304.95,262.54h-17.25l0.55-17.72
		h17.25L304.95,262.54z M322.47,281.09h-17.25l0.55-17.71h17.25L322.47,281.09z M323.04,262.54h-17.25l0.55-17.72h17.25
		L323.04,262.54z M340.56,281.09h-17.25l0.55-17.71h17.25L340.56,281.09z M341.13,262.54h-17.25l0.55-17.72h17.25L341.13,262.54z
		 M376.73,281.09H341.4l0.55-17.71h35.33L376.73,281.09z M377.31,262.54h-35.33l0.55-17.72h35.33L377.31,262.54z M394.82,281.09
		h-17.25l0.55-17.71h17.25L394.82,281.09z M395.39,262.54h-17.25l0.55-17.72h17.25L395.39,262.54z M412.91,281.09h-17.25l0.55-17.71
		h17.25L412.91,281.09z M413.48,262.54h-17.25l0.55-17.72h17.25L413.48,262.54z M431,281.09h-17.25l0.55-17.71h17.25L431,281.09z
		 M431.57,262.54h-17.25l0.55-17.72h17.25L431.57,262.54z M449.09,281.09h-17.25l0.55-17.71h17.25L449.09,281.09z M449.66,262.54
		h-17.25l0.55-17.72h17.25L449.66,262.54z M450.23,243.98h-17.25l0.54-17.72h17.25L450.23,243.98z M450.8,225.42h-17.25l0.54-17.72
		h17.25L450.8,225.42z"/>
	<g>
		<path class="st4" d="M235.41,189.11c-0.24,14.39-2.61,86.09-3.37,108.78c-0.04,1.39-0.08,2.6-0.12,3.6l-0.84-0.03
			c0.04-1.18,0.08-2.39,0.12-3.62c1.2-35.85,3.14-96.11,3.38-108.73H235.41z"/>
	</g>
	<g>
		<path class="st2" d="M382.09,196.32c-0.61-2.06-1.86-3.24-3.43-3.24c-0.23,0-0.42,0.19-0.42,0.42s0.19,0.42,0.42,0.42
			c1.66,0,2.39,1.85,2.62,2.64c0.54,1.81,0.52,3.89-0.05,5.56c-0.54,1.57-1.66,2.47-3.08,2.47c-2.34,0-3.47-2.63-3.53-5.07
			c-0.08-3.5,1.76-5.05,2.55-5.52l-0.46-0.71c-1.01,0.67-3.01,2.58-2.92,6.25c0.08,3.47,1.88,5.89,4.37,5.89
			c1.78,0,3.23-1.14,3.88-3.04C382.66,200.57,382.68,198.3,382.09,196.32z"/>
	</g>
	<polygon class="st2" points="474.25,297.77 463.72,441.68 227.85,441.68 230.05,297.77 	"/>
	<polygon class="st5" points="338.82,297.77 338.82,441.68 227.85,441.68 228.46,401.92 229.79,315.11 230.05,297.77 	"/>
	<g>
		<circle class="st6" cx="237.4" cy="306.22" r="3.27"/>
		<g>
			<path class="st5" d="M237.4,307.06c-0.47,0-0.84-0.38-0.84-0.84v-3.93c0-0.47,0.38-0.84,0.84-0.84c0.47,0,0.84,0.38,0.84,0.84
				v3.93C238.25,306.68,237.87,307.06,237.4,307.06z"/>
		</g>
	</g>
	<g>
		<circle class="st6" cx="250.57" cy="306.22" r="3.27"/>
		<g>
			<path class="st5" d="M250.57,307.06c-0.47,0-0.84-0.38-0.84-0.84v-3.93c0-0.47,0.38-0.84,0.84-0.84c0.47,0,0.84,0.38,0.84,0.84
				v3.93C251.42,306.68,251.04,307.06,250.57,307.06z"/>
		</g>
	</g>
	<g>
		<circle class="st6" cx="263.74" cy="306.22" r="3.27"/>
		<g>
			<path class="st5" d="M263.74,307.06c-0.47,0-0.84-0.38-0.84-0.84v-3.93c0-0.47,0.38-0.84,0.84-0.84c0.47,0,0.84,0.38,0.84,0.84
				v3.93C264.59,306.68,264.21,307.06,263.74,307.06z"/>
		</g>
	</g>
	<g>
		<circle class="st6" cx="276.91" cy="306.22" r="3.27"/>
		<g>
			<path class="st5" d="M276.91,307.06c-0.47,0-0.84-0.38-0.84-0.84v-3.93c0-0.47,0.38-0.84,0.84-0.84c0.47,0,0.84,0.38,0.84,0.84
				v3.93C277.76,306.68,277.38,307.06,276.91,307.06z"/>
		</g>
	</g>
	<polygon class="st6" points="329.56,315.11 328.97,360.34 328.97,361.19 328.9,366.1 328.89,366.94 328.82,371.86 328.81,372.71 
		328.76,377.62 328.74,378.46 328.43,401.92 228.46,401.92 228.82,378.46 228.83,377.62 228.91,372.71 228.92,371.86 229,366.94 
		229.01,366.1 229.08,361.19 229.1,360.34 229.79,315.11 	"/>
	<g>
		<polygon class="st5" points="333.85,377.62 333.85,378.46 228.82,378.46 228.83,377.62 		"/>
	</g>
	<g>
		<polygon class="st5" points="333.85,371.86 333.85,372.71 228.91,372.71 228.92,371.86 		"/>
	</g>
	<g>
		<polygon class="st5" points="333.85,366.1 333.85,366.94 229,366.94 229.01,366.1 		"/>
	</g>
	<g>
		<polygon class="st5" points="333.85,360.34 333.85,361.19 229.08,361.19 229.1,360.34 		"/>
	</g>
	<g>
		<g>
			<path class="st7" d="M462.4,412.74H339.98c-0.23,0-0.42-0.19-0.42-0.42s0.19-0.42,0.42-0.42H462.4c0.23,0,0.42,0.19,0.42,0.42
				S462.63,412.74,462.4,412.74z"/>
		</g>
		<g>
			<path class="st7" d="M462.4,383.38H339.98c-0.23,0-0.42-0.19-0.42-0.42c0-0.23,0.19-0.42,0.42-0.42H462.4
				c0.23,0,0.42,0.19,0.42,0.42C462.82,383.19,462.63,383.38,462.4,383.38z"/>
		</g>
		<g>
			<path class="st7" d="M463.24,354.02H339.98c-0.23,0-0.42-0.19-0.42-0.42s0.19-0.42,0.42-0.42h123.27c0.23,0,0.42,0.19,0.42,0.42
				S463.47,354.02,463.24,354.02z"/>
		</g>
		<g>
			<path class="st7" d="M464.7,324.66H341.44c-0.23,0-0.42-0.19-0.42-0.42c0-0.23,0.19-0.42,0.42-0.42H464.7
				c0.23,0,0.42,0.19,0.42,0.42C465.13,324.47,464.94,324.66,464.7,324.66z"/>
		</g>
	</g>
	<polygon class="st8" points="631.03,128.83 626.98,294.62 626.82,300.92 624.3,404.29 623.44,438.98 463.29,438.98 464.14,404.29 
		466.67,300.92 466.82,294.62 470.87,128.83 	"/>
	<polygon class="st9" points="624.3,404.29 623.44,438.98 463.29,438.98 464.14,404.29 	"/>
	<g>
		<path class="st6" d="M557.38,284.33c-0.61,0-1.18-0.24-1.61-0.68c-0.43-0.44-0.65-1.01-0.64-1.62l0.83-38.06
			c0.03-1.21,1.03-2.2,2.25-2.2c0.61,0,1.18,0.24,1.61,0.68c0.43,0.44,0.65,1.01,0.64,1.62l-0.83,38.06
			C559.6,283.34,558.6,284.33,557.38,284.33z M558.22,242.62c-0.76,0-1.39,0.62-1.4,1.37l-0.83,38.06c-0.01,0.38,0.13,0.74,0.4,1.01
			c0.27,0.27,0.62,0.42,1,0.42c0.76,0,1.39-0.62,1.4-1.37l0.83-38.06c0.01-0.38-0.13-0.74-0.4-1.01
			C558.95,242.77,558.6,242.62,558.22,242.62z"/>
	</g>
	<g>
		<path class="st6" d="M537.99,284.33c-0.61,0-1.18-0.24-1.61-0.68c-0.43-0.44-0.65-1.01-0.64-1.62l0.83-38.06
			c0.03-1.21,1.03-2.2,2.25-2.2c0.61,0,1.18,0.24,1.61,0.68c0.43,0.44,0.65,1.01,0.64,1.62l-0.83,38.06
			C540.21,283.34,539.21,284.33,537.99,284.33z M538.83,242.62c-0.76,0-1.39,0.62-1.4,1.37l-0.83,38.06
			c-0.01,0.38,0.13,0.74,0.4,1.01c0.27,0.27,0.62,0.42,1,0.42c0.76,0,1.39-0.62,1.4-1.37l0.83-38.06c0.01-0.38-0.13-0.74-0.4-1.01
			C539.56,242.77,539.21,242.62,538.83,242.62z"/>
	</g>
	<g>
		<path class="st6" d="M543.91,402.9c0,0-0.01,0-0.01,0c-0.23-0.01-0.42-0.2-0.41-0.43l6.57-269.72c0.01-0.23,0.19-0.41,0.43-0.41
			c0.23,0.01,0.42,0.2,0.41,0.43l-6.57,269.72C544.32,402.72,544.14,402.9,543.91,402.9z"/>
	</g>
	<g>
		<g>
			<path class="st10" d="M623.44,438.98c0,0-0.94,2.77-2.71,7c-0.02,0.03-0.03,0.07-0.04,0.1c-0.09,0.24-0.2,0.49-0.31,0.74
				c-0.01,0.03-0.03,0.07-0.04,0.1c-1.08,2.53-2.43,5.5-4.02,8.66c-0.13,0.28-0.28,0.56-0.42,0.84c-0.64,1.26-1.31,2.55-2.03,3.85
				c-0.16,0.28-0.31,0.56-0.47,0.84c-0.44,0.78-0.89,1.58-1.37,2.37c-0.16,0.28-0.33,0.56-0.5,0.84c-1.8,2.99-3.78,5.98-5.94,8.77
				c-0.22,0.29-0.44,0.56-0.67,0.84c-0.13,0.18-0.28,0.35-0.42,0.53c-0.22,0.29-0.46,0.56-0.68,0.84c-0.39,0.45-0.78,0.91-1.16,1.35
				c-0.61,0.69-1.25,1.33-1.92,1.94c-0.54,0.51-1.1,0.97-1.69,1.42c-0.45,0.35-0.9,0.67-1.37,0.99c-0.42,0.29-0.86,0.58-1.3,0.84
				c-5.84,3.57-13.03,5.33-20.42,6.46c-0.35,0.06-0.69,0.11-1.04,0.17c-0.49,0.07-0.97,0.13-1.46,0.2
				c-2.33,0.32-4.66,0.59-6.96,0.84c-3.16,0.35-6.27,0.68-9.23,1.1c-0.83,0.11-1.65,0.24-2.45,0.36c-0.35,0.05-0.69,0.11-1.03,0.17
				c-0.59,0.09-1.17,0.2-1.74,0.31c-0.35,0.07-0.68,0.13-1.02,0.2c-6.11,1.28-12.22,2.66-18.35,3.94c-0.35,0.08-0.71,0.15-1.07,0.22
				c-6.83,1.41-13.67,2.65-20.57,3.44c-0.34,0.04-0.67,0.08-1.01,0.11c-6.25,0.68-12.54,0.96-18.89,0.63
				c-0.08,0-0.15-0.01-0.23-0.01c-0.3-0.02-0.62-0.03-0.92-0.04c-6.13-0.31-12.26-0.54-18.42-0.75c-0.31-0.01-0.62-0.02-0.93-0.03
				c-6.14-0.22-12.27-0.43-18.42-0.73c-0.31-0.01-0.62-0.03-0.93-0.04c-4.02-0.2-8.05-0.44-12.07-0.74
				c-2.03-0.15-4.08-0.29-6.13-0.41c-0.31-0.02-0.62-0.03-0.93-0.05c-6.08-0.35-12.23-0.56-18.43-0.69
				c-0.31-0.01-0.63-0.02-0.94-0.02c-6.2-0.12-12.45-0.16-18.7-0.16h-0.95c-5.07,0.01-10.15,0.04-15.21,0.08
				c-0.29,0-0.56,0.01-0.84,0.01c-0.94,0-1.86,0.01-2.79,0.02c-0.32,0-0.64,0.01-0.96,0.01c-6.31,0.05-12.59,0.08-18.82,0.08
				c-0.32,0-0.64,0-0.95-0.01c-5.39-0.01-10.75-0.06-16.03-0.18c-0.89-0.02-1.76-0.04-2.64-0.06c-0.31-0.01-0.62-0.02-0.94-0.03
				c-6.43-0.14-12.62-0.3-18.54-0.48c-0.31-0.01-0.62-0.02-0.94-0.03c-6.43-0.2-12.56-0.46-18.37-0.8
				c-0.31-0.02-0.62-0.03-0.92-0.05c-6.39-0.39-12.39-0.89-18-1.54c-0.3-0.03-0.6-0.07-0.89-0.11c-1.32-0.16-2.62-0.33-3.89-0.51
				c-0.29-0.03-0.56-0.08-0.84-0.13c-2.32-0.33-4.56-0.71-6.73-1.12c-1.37-0.26-2.72-0.55-4.04-0.84c-0.58-0.13-1.15-0.27-1.73-0.4
				c-0.29-0.07-0.57-0.13-0.85-0.21c-0.62-0.15-1.24-0.31-1.84-0.48c-0.99-0.27-1.96-0.55-2.91-0.84
				c-4.05-1.25-7.72-2.72-11.02-4.48c-0.24-0.13-0.5-0.26-0.74-0.4c-1.11-0.62-2.18-1.26-3.2-1.95c-0.41-0.27-0.82-0.55-1.21-0.84
				c-1.15-0.82-2.23-1.69-3.26-2.62c-1.1-0.99-2.08-2.01-2.96-3.07c-0.24-0.28-0.46-0.56-0.68-0.84c-0.14-0.18-0.28-0.35-0.4-0.53
				c-0.21-0.28-0.4-0.56-0.6-0.84c-0.18-0.25-0.35-0.51-0.51-0.78c-0.19-0.28-0.35-0.56-0.52-0.84c-1.39-2.34-2.35-4.75-2.99-7.15
				c-0.08-0.28-0.14-0.56-0.21-0.84c-0.19-0.79-0.34-1.58-0.46-2.37c-0.05-0.28-0.09-0.56-0.13-0.84c-0.17-1.31-0.25-2.6-0.27-3.85
				c-0.01-0.28-0.01-0.56-0.01-0.84c0.03-3.19,0.46-6.15,1.01-8.66c0.01-0.03,0.02-0.07,0.03-0.1c0.06-0.25,0.11-0.51,0.17-0.74
				c0.01-0.03,0.02-0.07,0.03-0.1c1.04-4.25,2.34-7,2.34-7H623.44z"/>
		</g>
	</g>
	<g>
		<g>
			<path class="st11" d="M620.73,445.98c-0.02,0.03-0.03,0.07-0.04,0.1c-0.09,0.24-0.2,0.49-0.31,0.74H225.31
				c0.06-0.25,0.11-0.51,0.17-0.74c0.01-0.03,0.02-0.07,0.03-0.1H620.73z"/>
		</g>
		<g>
			<path class="st11" d="M616.31,455.59c-0.13,0.28-0.28,0.56-0.42,0.84h-391.6c-0.01-0.28-0.01-0.56-0.01-0.84H616.31z"/>
		</g>
		<g>
			<path class="st11" d="M612.02,463.49c-0.16,0.28-0.33,0.56-0.5,0.84H225.36c-0.08-0.28-0.14-0.56-0.21-0.84H612.02z"/>
		</g>
		<g>
			<path class="st11" d="M605.58,473.1c-0.22,0.29-0.44,0.56-0.67,0.84H229.98c-0.21-0.28-0.4-0.56-0.6-0.84H605.58z"/>
		</g>
		<g>
			<path class="st11" d="M597.67,481.01c-0.42,0.29-0.86,0.58-1.3,0.84H238.5c-0.41-0.27-0.82-0.55-1.21-0.84H597.67z"/>
		</g>
		<g>
			<path class="st11" d="M557.27,490.62c-0.83,0.11-1.65,0.24-2.45,0.36c-0.35,0.05-0.69,0.11-1.03,0.17
				c-0.59,0.09-1.17,0.2-1.74,0.31H264.84c-1.37-0.26-2.72-0.55-4.04-0.84H557.27z"/>
		</g>
		<g>
			<rect x="530.95" y="481.54" class="st11" width="0.84" height="9.5"/>
		</g>
		<g>
			<rect x="426.63" y="481.54" class="st11" width="0.84" height="9.5"/>
		</g>
		<g>
			<rect x="322.32" y="481.54" class="st11" width="0.84" height="9.5"/>
		</g>
		<g>
			<rect x="530.95" y="463.97" class="st11" width="0.84" height="9.5"/>
		</g>
		<g>
			<rect x="588.15" y="455.95" class="st11" width="0.84" height="8.01"/>
		</g>
		<g>
			<rect x="482.62" y="455.95" class="st11" width="0.84" height="8.01"/>
		</g>
		<g>
			<rect x="377.09" y="455.95" class="st11" width="0.84" height="8.01"/>
		</g>
		<g>
			<rect x="271.56" y="455.95" class="st11" width="0.84" height="8.01"/>
		</g>
		<g>
			<rect x="588.15" y="438.98" class="st11" width="0.84" height="7.32"/>
		</g>
		<g>
			<rect x="482.62" y="438.98" class="st11" width="0.84" height="7.32"/>
		</g>
		<g>
			<rect x="377.09" y="438.98" class="st11" width="0.84" height="7.32"/>
		</g>
		<g>
			<rect x="271.56" y="438.28" class="st11" width="0.84" height="8.01"/>
		</g>
		<g>
			<rect x="588.15" y="473.49" class="st11" width="0.84" height="8.01"/>
		</g>
		<g>
			<rect x="482.62" y="473.49" class="st11" width="0.84" height="8.01"/>
		</g>
		<g>
			<rect x="377.09" y="473.49" class="st11" width="0.84" height="8.01"/>
		</g>
		<g>
			<rect x="271.56" y="473.49" class="st11" width="0.84" height="8.01"/>
		</g>
		<g>
			<rect x="482.62" y="491.04" class="st11" width="0.84" height="8.01"/>
		</g>
		<g>
			<path class="st11" d="M377.93,491.04v5.36c-0.29,0-0.56,0.01-0.84,0.01v-5.37H377.93z"/>
		</g>
		<g>
			<path class="st11" d="M272.4,491.04v1.67c-0.29-0.03-0.56-0.08-0.84-0.13v-1.54H272.4z"/>
		</g>
		<g>
			<rect x="426.63" y="463.97" class="st11" width="0.84" height="9.5"/>
		</g>
		<g>
			<rect x="322.32" y="463.97" class="st11" width="0.84" height="9.5"/>
		</g>
		<g>
			<rect x="530.95" y="446.4" class="st11" width="0.84" height="9.5"/>
		</g>
		<g>
			<rect x="426.63" y="446.4" class="st11" width="0.84" height="9.5"/>
		</g>
		<g>
			<rect x="322.32" y="446.4" class="st11" width="0.84" height="9.5"/>
		</g>
	</g>
	<path class="st12" d="M462.59,276.12c0,0,5.57-0.36,8.29,1.63c2.72,1.99,4.89,9.76,5.37,10.88c0.48,1.12-0.07,4.37-1.65,4.39
		c-1.58,0.02-5.7-5.23-8.7-7.03c-2.99-1.8-6.38-3.13-6.38-3.13l-2.7-6.05L462.59,276.12z"/>
	<path class="st12" d="M418.48,283.22c0,0,6.18-3.51,10.54-4.64c4.35-1.12,33.57-2.46,33.57-2.46l1.12,7.8
		c0,0-22.48,10.93-34.56,12.63c-12.08,1.7-19.82-2.42-19.82-2.42L418.48,283.22z"/>
	<g>
		<path class="st13" d="M259.88,478.35L259.88,478.35c-0.69-0.09-1.19-0.72-1.1-1.41l13.39-108.04l6.72,0.31l-17.61,108.04
			C261.2,477.95,260.57,478.44,259.88,478.35z"/>
	</g>
	<g>
		<path class="st13" d="M372.12,478.35L372.12,478.35c0.69-0.09,1.19-0.72,1.1-1.41L359.83,368.9l-6.72,0.31l17.61,108.04
			C370.8,477.95,371.43,478.44,372.12,478.35z"/>
	</g>
	<g>
		<path class="st13" d="M286.89,473.17L286.89,473.17c-0.69-0.09-1.19-0.72-1.1-1.41l13.39-108.04l6.72,0.31L288.3,472.07
			C288.21,472.76,287.58,473.25,286.89,473.17z"/>
	</g>
	<g>
		<path class="st13" d="M399.13,473.17L399.13,473.17c0.69-0.09,1.19-0.72,1.1-1.41l-13.39-108.04l-6.72,0.31l17.61,108.04
			C397.81,472.76,398.44,473.25,399.13,473.17z"/>
	</g>
	<g>
		
			<rect x="272.58" y="226.76" transform="matrix(0.9932 -0.1164 0.1164 0.9932 -32.6742 33.8356)" class="st10" width="1.69" height="139.95"/>
	</g>
	<g>
		
			<rect x="285.29" y="219.11" transform="matrix(0.9974 -0.072 0.072 0.9974 -20.2429 21.355)" class="st10" width="1.69" height="144.79"/>
	</g>
	<g>
		
			<rect x="298.37" y="218.2" transform="matrix(0.9989 -0.0463 0.0463 0.9989 -13.1557 14.1696)" class="st10" width="1.69" height="145.59"/>
	</g>
	<g>
		<path class="st10" d="M270.98,363.91c-0.67-4.18-16.44-102.51-16.48-109.07c-0.07-14.3,4.28-24.75,12.93-31.06
			c18.2-13.28,48.64-3.58,49.93-3.16l-0.78,2.4c-0.3-0.1-30.51-9.72-47.66,2.8c-7.95,5.81-11.95,15.56-11.88,29
			c0.03,6.36,16.28,107.66,16.45,108.68L270.98,363.91z"/>
	</g>
	<path class="st10" d="M378.59,371.49H271.84c-0.75,0-1.36-0.61-1.36-1.36v-9.16h108.1V371.49z"/>
	<g>
		<path class="st6" d="M465.1,295.32l-41.75-0.38c0,0,1.66-2.77,2.95-3.14c1.3-0.37,51.78-0.26,51.78-0.26L465.1,295.32z"/>
		<path class="st6" d="M464.69,295.08l16.35-47.32c0.12-0.34,0.44-0.57,0.8-0.57l59.36,0.62c0.58,0.01,0.98,0.58,0.79,1.13
			l-16.68,46.37L464.69,295.08z"/>
	</g>
	<path class="st12" d="M412.44,260.88l14.61,20.65c0,0-8.71,12.5-14.61,13.06c-5.9,0.56-16.38-9.62-16.38-9.62L412.44,260.88z"/>
	<path class="st14" d="M415.53,261.3c0,0-14.75,19.66-16.57,25.99c-1.83,6.32-8.43,11.05-8.43,11.05s-7.76,1.48-10.38-0.12
		c-0.45-0.28-0.74-0.63-0.83-1.1c-0.6-3.23-3.26-1.54-2.63-17c0.62-15.45,5.28-60.82,5.28-60.82s6.73,2.66,10.8,10.81
		c4.08,8.15,14.05,17,15.17,20.79c0.21,0.71,0.61,1.52,1.12,2.37C411.27,256.95,415.53,261.3,415.53,261.3z"/>
	<path class="st15" d="M415.53,261.3c0,0-14.75,19.66-16.57,25.99c-1.83,6.32-8.43,11.05-8.43,11.05s-7.76,1.48-10.38-0.12
		c-0.24-1.95-0.29-3.96,0.12-4.8c0.84-1.74,8.29-10.2,10.54-12.31c2.25-2.11,6.13-11.25,9.13-17.02c1.77-3.39,5.96-7.77,9.13-10.81
		C411.27,256.95,415.53,261.3,415.53,261.3z"/>
	<path class="st12" d="M345.44,200.69c0,0-2.96,8.46-8.86,10.72c-5.9,2.27-23.88,3.6-26.13,6.87c-2.25,3.27-7.3,40.07-8.71,54.96
		c-1.4,14.89-13.49,33.72-13.49,35.96c0,2.25,32.87,17.7,43.55,18.26c10.68,0.56,40.16-10.4,40.16-10.4s-2.76-13.91-1.22-22.34
		c1.53-8.43,12.83-50.15,15.33-55.77c2.5-5.62-1.64-13.21-6.73-17.42c-5.1-4.21-24.2-10.13-24.2-10.13L345.44,200.69z"/>
	<g>
		<path class="st5" d="M385.58,168.06c-0.87-4.39-1.74-6.22-6.79-9.8c-3.57-2.54-7.11-4.57-11.38-4.95
			c-9.42-0.85-19.23,1.52-23.01,11.41c-0.95,2.49-1.63,3.78-2.07,6.4c-0.43,2.62-0.67,6.57-0.32,9.22
			c0.72,5.42,3.65,10.24,5.05,15.49c-0.11,0.23-0.05,0.52,0.19,0.58c0.17,0.22,0.53,0.17,0.69-0.05c5.32-0.57,10.64,0.7,15.99,0.01
			c4.69-0.61,9.33-2.17,13.23-4.88C384.35,186.5,387.31,176.83,385.58,168.06z"/>
		<path class="st12" d="M371.96,201.74l-0.57,1.42l-3.15,7.85l-0.11,0.28c0,0,0,0-0.01,0l-0.68,1.71l-0.09,0.27l-0.62,1.78
			l-0.24,0.66l-0.36,1.03l-0.14,0.4l-0.2,0.58c0,0-7.84,1.88-13.05-1.24c-5.22-3.13-9.72-7.09-9.72-7.09l6.74-24.08L371.96,201.74z"
			/>
		<path class="st12" d="M385.05,171.69c0,0-0.32,4.16-0.96,9.42c-0.03,0.29-0.07,0.59-0.11,0.89c-0.04,0.32-0.08,0.65-0.13,0.98
			c-0.03,0.23-0.06,0.46-0.09,0.68c-0.01,0.07-0.01,0.13-0.03,0.19c-0.05,0.37-0.1,0.74-0.16,1.11c-0.71,4.9-1.58,9.29-2.87,12.76
			c-2,5.39-3.58,9.42-9.53,12.58c-5.8,3.08-13.45-0.6-18.06-6.99c-3.88-5.36-4.37-7.67-4.49-14.11c-0.03-0.86-2.81-3.51-2.77-4.35
			c0.31-6.61,1.42-13.74,4.37-19.72c0.51-1.05,1.1-2.09,1.89-2.95c4.64-5.12,16.44-3.28,22.3-1
			C380.25,163.44,385.05,171.69,385.05,171.69z"/>
		<path class="st5" d="M364.62,184.45c-0.04-0.62-0.23-1.21-0.76-1.35c-1.41-0.37-1.91,2.11-1.87,2.92c0.02,0.48,0.27,1.05,0.7,1.3
			c0.47,0.27,0.98,0.04,1.3-0.34c0.29-0.34,0.46-0.77,0.54-1.21C364.59,185.46,364.66,184.95,364.62,184.45z"/>
		<path class="st5" d="M379.32,187.34c-0.04-0.62-0.23-1.21-0.76-1.35c-1.41-0.37-1.91,2.11-1.87,2.92c0.02,0.48,0.27,1.05,0.7,1.3
			c0.47,0.27,0.98,0.04,1.3-0.34c0.29-0.34,0.46-0.77,0.54-1.21C379.29,188.36,379.35,187.84,379.32,187.34z"/>
		<path class="st16" d="M373.91,200.67c0,0-1.6-0.07-4.25-0.48c-2.65-0.41-4.93-1.36-4.93-1.36s-0.53,2.67,3.88,3.51
			C373.43,203.26,373.91,200.67,373.91,200.67z"/>
		<path class="st5" d="M368.52,181.46c0.19-0.36,0.11-0.75-0.13-1.07c-0.18-0.25-0.44-0.43-0.7-0.59c-1.28-0.78-2.78-1.06-4.27-1.03
			c-0.95,0.02-1.9,0.06-2.83,0.28c-0.47,0.11-0.95,0.3-1.37,0.54c-0.5,0.29-0.77,0.81,0.03,0.92c1.69,0.23,3.39,0.45,5.07,0.76
			c0.73,0.13,1.46,0.28,2.18,0.44c0.5,0.11,1.28,0.5,1.73,0.1C368.34,181.71,368.45,181.59,368.52,181.46z"/>
		<path class="st5" d="M383.85,182.97c-0.03,0.23-0.06,0.46-0.09,0.68c-0.01,0.07-0.01,0.13-0.03,0.19
			c-0.05,0.37-0.1,0.74-0.16,1.11c-0.99-0.29-1.97-0.56-2.97-0.81c-0.72-0.18-1.45-0.35-2.17-0.5c-0.5-0.11-1.37-0.07-1.61-0.63
			c-0.06-0.13-0.11-0.28-0.12-0.43c-0.03-0.4,0.2-0.73,0.56-0.93c0.26-0.14,0.57-0.21,0.88-0.24c1.49-0.19,2.98,0.18,4.32,0.83
			C382.92,182.48,383.39,182.7,383.85,182.97z"/>
		<path class="st12" d="M348.61,189.38c0.36,0.26,1.16,0.12,1.35-0.59c0.54-2.03,0.62-4.12,1.32-6.12c0.45-1.3,0.95-2.54,1.28-3.86
			c0.15,0.15,0.3,0.31,0.45,0.46c-0.07,0.54,0.77,0.58,0.84,0.04c0.26-1.94-1.09-3.03-2.92-3.08c-1.51-0.04-2.91,0.58-3.99,1.57
			C343.95,180.55,345.29,187.02,348.61,189.38z"/>
		<path class="st17" d="M368.12,211.29l-0.7,1.78l-0.72,2.05c-0.62-0.28-1.3-0.76-2.69-1.1c-2.59-0.62-4.43-1.03-5.91-2.74
			c-1.48-1.7-2.6-1.96-3.5-3.72c-0.89-1.75-1.21-5.46-1.21-5.46s1.52,2.34,3.05,3.9c1.55,1.56,4.83,4.51,7.43,5.13
			C365.43,211.52,367.02,211.51,368.12,211.29z"/>
		<g>
			<path class="st16" d="M370.93,197.67c-0.08,0-0.15,0-0.22-0.01c-0.23-0.01-0.41-0.21-0.39-0.45c0.01-0.23,0.21-0.41,0.45-0.4
				c0.09,0.01,2.18,0.11,2.57-1.47c0.37-1.51-0.78-6.14-1.26-7.79c-0.06-0.22,0.06-0.46,0.29-0.52c0.22-0.07,0.46,0.06,0.52,0.29
				c0.07,0.25,1.76,6.19,1.27,8.22C373.74,197.24,371.97,197.67,370.93,197.67z"/>
		</g>
		<path class="st5" d="M385.92,172.47c-0.97-5.08-5.74-8.56-9.83-11.19c-4.95-3.18-10.73-3.9-16.55-3.7
			c-2.49,0.09-5.06,0.5-7.08,2.06c-1.82,1.41-3.3,3.45-4.47,5.4c-1.8,2.99-4.58,8.51-2.82,12.09c-0.02,0.06-0.02,0.13,0,0.21
			c0.04,0.13,0.07,0.27,0.11,0.4c0.07,0.24,0.03,0.52,0.17,0.74c0.17,0.27,0.48,0.49,0.65,0.28c0.25-0.31,0.59-0.62,0.9-0.72
			c0.25-0.08,0.58-0.26,1.17,0.06c1.48,0.81,1.57,2.07,1.76,2.3c0.2,0.25,0.51,0.43,0.81,0.5c1.3,0.32,2.12-0.96,2.67-1.9
			c0.39-0.67,0.74-1.37,0.88-2.14c0.09-0.51,0.04-1.04,0.12-1.55c0.12-0.83,0.45-1.38,0.81-2.11c0.64-1.27,0.88-2.47,1.09-3.86
			c0.24-1.59,2-2.4,3.41-2.72c1.35-0.31,2.44-0.63,3.88-0.91c1.34-0.27,6.81-0.42,8.37-0.11c5.4,1.09,5.5,1.61,6.45,2.13
			c0.96,0.53,2.01,0.9,2.9,1.58c3.09,2.38,3.6,4.38,3.6,4.38s0.58-0.24,0.56-0.7C385.72,173,385.98,172.79,385.92,172.47z"/>
	</g>
	<path class="st12" d="M363.31,312.57c0,0,66.27,10.69,75.54,17.85c9.27,7.16,10.68,14.75,9.55,23.18
		c-1.12,8.43-6.18,15.45-6.18,15.45s-22.48-10.4-23.32-10.4c-0.84,0-85.69,8.71-101.15,3.65c-15.45-5.06-15.17-33.95-15.17-34.82
		c0-0.86,12.64-17.44,16.86-18.28C323.66,308.36,363.31,312.57,363.31,312.57z"/>
	<path class="st14" d="M387.86,314.41c-4.74-1.33-7.99-2.57-11.54-3.27c-0.61-0.12-1.33,1.14-1.94,1.06
		c0.1-3.23,0.07-6.46-0.14-9.68c-0.11-1.8-0.14-3.18-1.64-4.35c-0.35-0.28-0.74-0.53-1.12-0.79c1.41-4.27,3.81-8.38,5.41-12.39
		c2.91-7.29,5.45-14.78,8.04-22.18c2.41-6.88,4.47-13.89,4.71-21.22c0.13-3.62-0.01-7.32-0.4-10.92c-0.3-2.68-0.86-5.45-2.49-7.66
		c-1.92-2.61-6.24-4.61-10.06-5.87c-3.77-1.25-7.05-1.8-7.1-1.53c-0.71,4.29-2.01,7.72-4.21,11.48c-1.89,3.24-4.1,6.22-4.76,9.98
		c-0.07,0.37-0.13,0.74-0.19,1.1c-0.62,3.77-1,7.27-2.98,10.72c-0.03,0.03-0.04,0.07-0.07,0.11c-1.71-4.55-4.24-8.4-6.87-12.5
		c-2.83-4.41-3.57-9.52-5.59-14.29c-2.01-4.75-5.09-8.93-8.16-13.04c-0.08,0-3.13,0.76-7.21,1.79c-8.45,2.15-21.32,5.47-21.49,5.67
		c-0.1,0.13-0.19,0.27-0.29,0.41c-0.09,0.02-0.65,0.5-0.46,0.72c-1.25,2.26-1.35,5.03-1.53,7.57c-0.24,3.65-0.21,7.32-0.51,10.96
		c-0.35,4.29-1.24,8.39-3.34,12.17c-1.6,2.88-3.13,5.47-3.53,8.81c-0.45,3.59,0.06,7.26-0.62,10.82c-0.38,1.97-1.26,3.57-2.27,5.26
		c-0.64,1.07-2.91,9.97-3.21,11.24c-0.98,4.28,2.67,8.04,2.67,8.04s-3.1,2.5-4.78,5.17c-3.43,5.47-4.24,3.46-5.32,9.95
		c-1.09,6.5-1.98,13.06-2.85,19.59c-0.73,5.49-1.01,11.25,2.07,16.12c1.62,2.55,3.15,4.75,4.32,7.56c0.89,2.12,2.18,2.57,4.21,3.34
		c2.83,1.07,4.56,3.86,7.22,5.28c2.5,1.34,5.27,2.26,7.9,3.32c2.76,1.12,5.49,2.36,8.5,2.5c2.96,0.13,5.87-0.58,8.76-1.06
		c3.68-0.62,7.1-0.51,10.74,0.36c2.95,0.72,7.22-0.83,7.22-0.83s7.93-0.79,11.41-1.06c1.94-0.15,3.77,0.41,5.61,0.95
		c0.94,0.28,1.9,0.54,2.87,0.67c9.51,1.25,17.82,8.47,23.63,15.72c0.92,1.15,1.8,2.34,2.63,3.56c0.18,0.26,0.56,0.29,0.72,0
		c2.84-4.72,5.16-9.26,5.74-14.81c0.34-3.15,0.46-6.32,1.53-9.33c0.9-2.53,2.28-4.86,3.3-7.32c1-2.44,1.45-4.8,1.44-7.43
		c-0.02-3.28-0.09-6.24,1.21-9.31c1.05-2.49,2.44-4.82,3.5-7.32c1.15-2.73,2.4-7.24,2.4-7.24S400.17,317.86,387.86,314.41z"/>
	<path class="st15" d="M363.68,242.48c-0.02,0.56-8.42,15.73-8.42,15.73s-4.77-7.28-8.71-12.85c-3.94-5.56-7.31-14.67-9.69-19.31
		c-1.82-3.54-5.61-11.53-7.3-15.11c4.08-1.03,7.12-1.79,7.21-1.79c3.07,4.1,6.15,8.29,8.16,13.04c2.01,4.76,2.76,9.88,5.59,14.29
		c2.63,4.1,5.16,7.95,6.87,12.5c0.03-0.04,0.04-0.08,0.07-0.11c1.97-3.45,2.35-6.95,2.98-10.72
		C362.38,240.64,363.68,242.33,363.68,242.48z"/>
	<path class="st15" d="M376.69,217.11c-1.57,8.34-5.91,29.56-10.6,37.17c-5.9,9.55-30.15,21.59-30.15,21.59l-15.25,17.55
		c0,0,10.08-15.41,15.29-22.16c5.29-6.86,21.22-21.57,21.42-22.28c0.03-0.04,0.04-0.08,0.07-0.11c2.17-3.78,2.41-7.64,3.16-11.83
		c0.67-3.76,2.87-6.74,4.76-9.98c2.2-3.76,3.51-7.19,4.21-11.48C369.63,215.32,372.92,215.86,376.69,217.11z"/>
	<path class="st12" d="M335.94,275.87c0,0,11.94-17.72,25.64-26.99c13.7-9.27,24.45-0.91,27.26,8.08
		c2.81,8.99-7.09,35.09-11.86,47.74c-4.78,12.64-21.52,53.37-21.52,53.37l-8.12-5.23l3.61-40.46L335.94,275.87z"/>
	<path class="st12" d="M349.13,347.92c0,0-4.71,7.8-5.23,11.74c-0.52,3.93,3.74,6,6.74,7.59c2.99,1.59,16.02,11.5,19.12,12.19
		c3.1,0.7,3.58-3.27,1.52-6.37c-2.06-3.1-7.77-10.34-9.29-13.5c-1.52-3.16-3.07-9.29-3.07-9.29l-2.61-2.02L349.13,347.92z"/>
	<path class="st12" d="M448.41,353.6l-12.85,96.07l-9-1.46c0,0-0.03-9.35-2.52-23.63c-2.64-15.1-8.13-36.19-8.3-47.04
		c-0.33-21.12,2.56-26.07,2.56-26.07s9.96-5.08,12.64-3.73C433.6,349.09,448.41,353.6,448.41,353.6z"/>
	<g>
		<path class="st5" d="M403.95,478.35L403.95,478.35c-0.51-0.02-0.9-0.45-0.88-0.96l8.07-179.49l3.37,0.15l-9.6,179.43
			C404.88,477.99,404.45,478.37,403.95,478.35z"/>
	</g>
	<polygon class="st10" points="626.98,294.62 626.82,300.92 401.34,300.92 401.34,294.62 	"/>
	<path class="st12" d="M324.54,268.91c0,0-11.44,23.57-11.46,23.62c-0.83,1.7-4.26,2.79-5.89,3.03
		c-13.29,2.01-11.81-18.17-11.34-26.65H324.54z"/>
	<path class="st14" d="M330.96,240.86c0,0.38-1.1,10.44-2,18.49c-0.16,1.51-0.32,2.94-0.46,4.23c-0.38,3.36-0.64,5.72-0.64,5.72
		s-1.38,0.19-3.66,0.46c-10.2,1.26-38.33,4.54-39.47,2.43c-0.48-0.89,0.78-6.2,2.73-12.98c3.7-12.78,9.91-30.82,11.74-34.58
		c2.82-5.77,8.86-8.03,8.86-8.03S330.96,240.23,330.96,240.86z"/>
	<path class="st15" d="M332.08,259.13c0,0-1.68,1.99-3.57,4.46c-1.56,2.01-3.25,4.34-4.3,6.19c-10.2,1.26-38.33,4.54-39.47,2.43
		c-0.48-0.89,0.78-6.2,2.73-12.98c4.05,0.28,16.41,1.07,23.96,0.96c6.2-0.1,13.48-0.55,17.53-0.83
		C330.89,259.22,332.08,259.13,332.08,259.13z"/>
	<path class="st12" d="M311.32,278.23c0,0-4.57-2.36-1.85-5.94s32.1-26.94,32.1-26.94l5.71,5.43c0,0-10.89,22.5-19.33,31.31
		c-8.44,8.81-12.51,11.52-20.11,13.34C296.39,298.19,311.32,278.23,311.32,278.23z"/>
	<g>
		<g>
			<path class="st2" d="M379.56,231.54c0,1.73-2.5,21.88-3.17,23.23c-0.67,1.35-4.9,2.52-8.61,2.11c-5.3-0.58-6.32-2.21-6.98-3.08
				c-0.66-0.87-2.63-21.21-2.15-22.65C359.13,229.71,379.57,230.11,379.56,231.54z"/>
		</g>
		<g>
			<path class="st2" d="M358.83,252.75c-1.48,0-2.92-0.74-4.11-2.14c-1.36-1.6-2.25-3.87-2.5-6.41c-0.52-5.3,1.95-10.12,5.5-10.75
				c1.75-0.31,3.48,0.43,4.89,2.08c1.36,1.6,2.25,3.87,2.5,6.41c0.25,2.53-0.17,5.04-1.18,7.05c-1.04,2.08-2.57,3.39-4.32,3.69
				C359.35,252.73,359.09,252.75,358.83,252.75z M358.48,236.29c-0.16,0-0.32,0.01-0.48,0.04c-2.37,0.42-3.99,3.78-3.63,7.49l0,0
				c0.18,1.84,0.81,3.47,1.78,4.6c0.93,1.09,2.05,1.58,3.17,1.38c1.12-0.2,2.11-1.06,2.8-2.43c0.72-1.43,1.01-3.23,0.83-5.06
				c-0.18-1.83-0.81-3.47-1.78-4.6C360.38,236.78,359.44,236.29,358.48,236.29z"/>
		</g>
	</g>
	<path class="st12" d="M340.09,247.21c0,0,3.11-5.57,4.86-7.12c1.75-1.55,8.73-3.53,11.72-2.12c2.99,1.4,0.79,10.34-0.53,11.54
		c-2.27,2.06-8.86,1.28-8.86,1.28l-7.19,1.38V247.21z"/>
	<g>
		<path class="st16" d="M304.97,276.54c-0.12,0-0.24-0.05-0.32-0.15c-0.15-0.18-0.13-0.44,0.05-0.59l4.5-3.83
			c0.18-0.15,0.44-0.13,0.59,0.05c0.15,0.18,0.13,0.44-0.05,0.59l-4.5,3.83C305.17,276.51,305.07,276.54,304.97,276.54z"/>
	</g>
	<g>
		<path class="st16" d="M350.95,310.83c-0.01,0-0.02,0-0.04,0c-0.23-0.02-0.4-0.22-0.38-0.46c0.02-0.24,2.03-23.71,3.27-31.64
			c1.25-7.94,2.41-12.24,2.43-12.28c0.06-0.23,0.29-0.36,0.52-0.3c0.22,0.06,0.36,0.29,0.3,0.52c-0.01,0.04-1.17,4.31-2.41,12.19
			c-1.24,7.9-3.25,31.34-3.27,31.58C351.35,310.67,351.16,310.83,350.95,310.83z"/>
	</g>
	<g>
		<path class="st16" d="M416.8,357.6c-0.09,0-0.17-0.03-0.25-0.08c-0.19-0.14-0.23-0.4-0.09-0.59l3.51-4.85
			c0.14-0.19,0.4-0.23,0.59-0.09c0.19,0.14,0.23,0.4,0.09,0.59l-3.51,4.85C417.05,357.54,416.93,357.6,416.8,357.6z"/>
	</g>
	<g>
		<path class="st18" d="M295.84,302.47c-0.16,0-0.31-0.09-0.38-0.24c-0.1-0.21-0.01-0.46,0.2-0.56c0.16-0.08,4.11-1.93,10.92-2.77
			c6.66-0.82,13.08-4.6,13.14-4.64c0.2-0.12,0.46-0.05,0.58,0.15c0.12,0.2,0.05,0.46-0.15,0.58c-0.07,0.04-6.63,3.91-13.47,4.75
			c-6.67,0.82-10.63,2.68-10.66,2.69C295.97,302.46,295.9,302.47,295.84,302.47z"/>
	</g>
	<g>
		<path class="st18" d="M322.39,253.18c-0.22,0-0.41-0.17-0.42-0.4c0-0.05-0.3-5.17-2.34-8.97c-2.08-3.88-12.67-22.56-12.78-22.75
			c-0.11-0.2-0.04-0.46,0.16-0.57c0.2-0.12,0.46-0.04,0.57,0.16c0.11,0.19,10.7,18.88,12.79,22.77c2.13,3.97,2.43,9.11,2.44,9.32
			c0.01,0.23-0.17,0.43-0.4,0.44C322.41,253.18,322.4,253.18,322.39,253.18z"/>
	</g>
	<g>
		<path class="st18" d="M386.81,249.36c-0.02,0-0.04,0-0.05,0c-0.23-0.03-0.39-0.24-0.36-0.47l2.59-20.09
			c0.03-0.23,0.24-0.39,0.47-0.36c0.23,0.03,0.39,0.24,0.36,0.47l-2.59,20.09C387.2,249.21,387.02,249.36,386.81,249.36z"/>
	</g>
	<g>
		<path class="st18" d="M295.55,349.53c-0.16,0-0.31-0.09-0.38-0.25c-0.16-0.34-3.8-8.57-0.71-21.88
			c3.09-13.31,16.45-24.31,16.58-24.41c0.18-0.15,0.45-0.12,0.59,0.06c0.15,0.18,0.12,0.45-0.06,0.59
			c-0.13,0.11-13.27,10.93-16.29,23.95c-3.02,13.03,0.62,21.26,0.66,21.34c0.1,0.21,0,0.46-0.21,0.56
			C295.67,349.51,295.61,349.53,295.55,349.53z"/>
	</g>
	<g>
		<path class="st18" d="M297.13,309.69c-0.14,0-0.28-0.07-0.36-0.21c-0.12-0.2-0.05-0.46,0.15-0.58l10.68-6.32
			c0.2-0.12,0.46-0.05,0.58,0.15c0.12,0.2,0.05,0.46-0.15,0.58l-10.68,6.32C297.28,309.67,297.21,309.69,297.13,309.69z"/>
	</g>
	<g>
		<path class="st9" d="M509.16,260.14c-3.59,0-7.22-0.83-7.22-2.42s3.63-2.42,7.22-2.42c3.59,0,7.22,0.83,7.22,2.42
			S512.75,260.14,509.16,260.14z M509.16,256.14c-4.12,0-6.37,1.04-6.37,1.58c0,0.54,2.25,1.58,6.37,1.58
			c4.12,0,6.37-1.04,6.37-1.58C515.54,257.18,513.29,256.14,509.16,256.14z"/>
	</g>
	<g>
		<path class="st9" d="M465.04,294.49c-0.05,0-0.09-0.01-0.14-0.02c-0.22-0.08-0.34-0.32-0.26-0.54l0.67-1.95
			c0.08-0.22,0.32-0.34,0.54-0.26c0.22,0.08,0.34,0.32,0.26,0.54l-0.67,1.95C465.38,294.38,465.21,294.49,465.04,294.49z"/>
	</g>
	<g>
		<path class="st9" d="M524.19,293.44h-56.96c-0.23,0-0.42-0.19-0.42-0.42s0.19-0.42,0.42-0.42h56.96c0.23,0,0.42,0.19,0.42,0.42
			S524.43,293.44,524.19,293.44z"/>
	</g>
	<g>
		<path class="st2" d="M425.44,458.19l20.79,10.68l-1.19,3.16c0,0-6.34-3.34-12.15-6.32c-5.05-2.59-9.56-5.66-10.47-6.25
			C418.97,457.2,425.44,458.19,425.44,458.19z"/>
		<path class="st12" d="M427.37,442.68c0,0-2.54,10.65-2.71,14.62c-0.17,3.96,4.13,4.81,7.25,6.12c3.12,1.31,15.69,8.37,18.84,8.78
			c3.15,0.41,2.4-3.47,0.07-6.38c-2.33-2.9-8.7-8.59-10.97-11.27c-2.41-2.84-4.05-6.78-4.05-6.78l1.62-12.11L427.37,442.68z"/>
		<path class="st2" d="M436.82,466.83c0,0,7.02-9.97,7.66-9.97s6.88,6.04,7.94,9.2c1.05,3.16,1.05,6.67,0,7.73
			c-1.05,1.05-7.38-1.76-7.38-1.76L436.82,466.83z"/>
	</g>
	<g>
		<path class="st2" d="M447.28,481.84c1.53-0.25,3.16-0.12,4.68-0.13c3.08-0.02,6.17-0.04,9.25-0.06c0.58,0,9.4-0.22,9.42-0.06
			c0,0.01,0.4,3.35,0.4,3.35s-7.07-0.47-13.59-0.42c-5.67,0.04-11.19-0.16-12.28-0.27c-0.89-0.09-1.9-0.35-0.91-1.15
			C445.16,482.38,446.19,482.02,447.28,481.84z"/>
		<path class="st2" d="M461.35,484.14c0,0,1.62-12.09,2.18-12.38c0.56-0.29,8.9,2.17,11.29,4.49c2.4,2.32,4.55,5,3.57,6.85
			c-1.18,2.23-7.35,1.85-7.35,1.85L461.35,484.14z"/>
	</g>
	<g>
		<path class="st6" d="M524.27,210.51h-30.97c-0.35,0-0.67-0.14-0.91-0.39c-0.24-0.25-0.36-0.58-0.35-0.93l0.38-16.22
			c0.03-0.69,0.59-1.21,1.26-1.21h30.97c0.35,0,0.67,0.14,0.91,0.39c0.24,0.25,0.36,0.58,0.35,0.93l-0.38,16.22
			C525.5,209.98,524.94,210.51,524.27,210.51z M493.67,192.6c-0.23,0-0.41,0.18-0.42,0.4l-0.38,16.22
			c-0.01,0.13,0.04,0.24,0.12,0.32c0.08,0.08,0.19,0.13,0.3,0.13h30.97c0.23,0,0.41-0.18,0.42-0.4l0.38-16.22
			c0.01-0.13-0.04-0.24-0.12-0.32c-0.08-0.08-0.19-0.13-0.3-0.13H493.67z"/>
	</g>
	<g>
		<path class="st0" d="M555.48,90.33c-13.45-3.42-24.18,5.19-33.51,13.72c-0.8,0.73,0.39,1.92,1.19,1.19
			c8.84-8.08,19.05-16.55,31.87-13.29c10.79,2.75,22.43,9.6,24.59,21.36c0.2,1.07,1.82,0.61,1.63-0.45
			C578.97,100.53,566.82,93.22,555.48,90.33z"/>
		<path class="st0" d="M567.56,104.71c1.23,0.46,2.5,0.82,3.71,1.22c1.58,0.53,4.02,1.75,5.69,0.97c2.84-1.33-2.11-4.35-3.18-4.99
			c-2.17-1.3-4.59-2.36-7.15-2.47c-0.97-0.04-2.83-0.15-3.53,0.67c-0.77,0.91,0.04,2.01,0.8,2.63
			C564.98,103.63,566.25,104.22,567.56,104.71z"/>
		<path class="st0" d="M576.88,105.21c-0.33-0.33-0.55-1.05-0.65-1.57c-0.48-2.52-0.51-5.22,0.16-7.72
			c0.44-1.62,1.73-5.85,3.84-6.11c2.66-0.33,1.23,5.4,0.96,6.56c-0.39,1.69-0.89,3.36-1.49,4.98c-0.43,1.18-0.95,3.65-1.72,4.65
			C577.53,106.61,577.16,105.5,576.88,105.21z"/>
		<path class="st19" d="M614.18,128.83h-50.11l0.81-23.07c0.02-0.45,0.39-0.81,0.84-0.81h48.42c0.48,0,0.86,0.4,0.84,0.87
			L614.18,128.83z"/>
		<path class="st0" d="M611.47,188.4c-2.02-10.77,0.26-20.63,0.82-31.36c0.48-9.14-2.28-17.17-5.9-25.43
			c-3.85-8.76-8.03-17.1-6.16-26.66c-0.09-0.31-0.22-0.57-0.45-0.71c-0.41-0.25-1.08-0.1-1.24,0.38c-0.33,0.98-0.36,2.22-0.44,3.25
			c-0.08,1.06-0.1,2.13-0.05,3.2c0.09,2.1,0.41,4.19,0.89,6.24c0.99,4.19,2.64,8.18,4.36,12.11c1.75,4,3.59,7.98,5.02,12.11
			c1.38,3.98,2.34,8.13,2.37,12.36c0.07,9.96-2.89,19.67-1.69,29.66c1.19,9.88,5.18,19.72,1.85,29.59
			c-0.35,1.03,1.28,1.47,1.63,0.45C615.29,205.22,613.04,196.79,611.47,188.4z"/>
		<path class="st0" d="M612.82,208.13c-2.25,0.3-3.03,3-3.27,5.32c-0.78,2.45-0.62,5.34-0.35,7.72c0.22,1.95,1.41,6.56,4.46,5.13
			c2.66-1.25,1.95-8.88,1.9-11.15C615.51,213.45,616,207.71,612.82,208.13z"/>
		<path class="st0" d="M522.36,108.35c2.32-2.88,3.82-5.72,1.56-6.36c-1.69-0.48-3.68,1.05-4.95,1.94c-1.8,1.27-3.39,2.79-4.74,4.53
			c-1.05,1.35-2.86,3.52-2.82,5.35c0.02,1.08,0.69,1.68,1.56,1.8c0.92,0.54,1.95,0.08,2.77-0.53
			C516.57,114.47,519.92,111.38,522.36,108.35z"/>
		<path class="st0" d="M536.13,95.56c-0.49-0.23-1.02-0.21-1.57-0.01c0.18-0.16,0.36-0.33,0.51-0.51c0.25-0.31,0.31-0.66,0.13-1.02
			c-1.59-3.15-6.68-2.45-9.53-2.36c-1.74,0.05-3.54,0.23-5.16,0.9c-1.08,0.44-4.14,2.36-3.17,3.93c0.14,0.22,0.37,0.36,0.6,0.48
			c2.48,1.28,5.84,0.72,8.52,0.59c1.93-0.1,4.68-0.2,6.72-1.14c-2.28,1.94-3.99,4.68-5.01,7.47c-0.43,1.19-2.14,8.38,0.49,8.07
			c2.97-0.36,5.11-6.01,6.18-8.33C535.55,102.11,538.69,96.77,536.13,95.56z"/>
		<path class="st0" d="M549.58,91.81c-0.43-0.84-1.34-1.39-2.84-1.3c-2.95,0.17-5.24,4.05-6.41,6.38c-0.6,1.2-3.17,7.28,0.07,6.82
			c0.63-0.09,1.16-0.49,1.65-0.89c2.45-2.01,4.8-4.2,6.75-6.72C549.82,94.79,550.19,93.01,549.58,91.81z"/>
		<path class="st0" d="M544.51,85.56c-1.22-0.48-2.48-0.86-3.68-1.29c-1.57-0.56-3.99-1.83-5.67-1.08
			c-2.87,1.28,2.02,4.39,3.08,5.05c2.15,1.35,4.54,2.45,7.1,2.61c0.97,0.06,2.83,0.21,3.55-0.6c0.79-0.89,0-2.01-0.74-2.64
			C547.07,86.7,545.82,86.08,544.51,85.56z"/>
		<path class="st0" d="M557.06,83.15c-0.42-0.65-0.88-1.27-1.37-1.87c-0.33-0.4-0.68-0.8-1.13-1.04c-0.45-0.25-1.03-0.32-1.48-0.07
			c-0.54,0.31-0.75,0.99-0.83,1.61c-0.49,3.65,1.71,7.29,4.57,9.4c0.68,0.5,1.64,0.93,2.32,0.43c0.59-0.44,0.59-1.31,0.48-2.03
			C559.25,87.28,558.33,85.11,557.06,83.15z"/>
		<path class="st0" d="M565.59,95.28c-0.06-0.04-0.12-0.08-0.17-0.12c-1.62-1.01-3.69-1.12-5.54-0.62c-1.84,0.5-3.49,1.57-4.95,2.8
			c-1.15,0.96-3.29,3.67-0.66,4.33c0.53,0.13,1.09,0.08,1.63,0c3.52-0.49,6.9-1.94,9.69-4.15c0.33-0.26,0.67-0.57,0.73-0.99
			C566.4,96.03,566.02,95.58,565.59,95.28z"/>
		<path class="st0" d="M572.69,89.1c-0.12-0.68-0.26-1.35-0.42-2.02c-0.27-1.07-0.6-2.14-1.2-3.07c-0.38-0.59-1-1.16-1.69-1.04
			c-0.77,0.13-1.15,1-1.34,1.76c-1.08,4.34-0.52,9.37,2.23,13c0.16,0.21,0.33,0.42,0.58,0.51c0.56,0.22,1.14-0.28,1.45-0.79
			c0.73-1.22,0.83-2.71,0.81-4.13C573.07,91.91,572.93,90.5,572.69,89.1z"/>
		<path class="st0" d="M619.33,164.69c0.42,0.88,0.78,1.79,1.1,2.71c0.21,0.62,0.4,1.26,0.37,1.91s-0.34,1.32-0.91,1.64
			c-0.69,0.38-1.56,0.15-2.28-0.17c-4.24-1.9-6.68-6.67-7.05-11.15c-0.09-1.06,0.09-2.37,1.08-2.77c0.86-0.35,1.8,0.23,2.5,0.84
			C616.36,159.6,618.08,162.03,619.33,164.69z"/>
		<path class="st0" d="M665.69,167.32c0.85,0.49,1.66,1.02,2.45,1.6c0.53,0.39,1.05,0.8,1.39,1.36c0.34,0.55,0.48,1.28,0.19,1.86
			c-0.35,0.71-1.19,1.01-1.97,1.16c-4.57,0.87-9.3-1.65-12.16-5.11c-0.68-0.82-1.28-2-0.7-2.89c0.51-0.77,1.61-0.84,2.53-0.74
			C660.35,164.84,663.15,165.85,665.69,167.32z"/>
		<path class="st0" d="M648.71,119.43c0.77,0.59,1.51,1.23,2.22,1.91c0.47,0.45,0.93,0.93,1.2,1.53s0.3,1.33-0.06,1.87
			c-0.44,0.65-1.31,0.84-2.1,0.89c-4.64,0.26-9-2.87-11.37-6.68c-0.56-0.9-1-2.15-0.31-2.96c0.61-0.7,1.71-0.62,2.61-0.4
			C643.74,116.27,646.38,117.65,648.71,119.43z"/>
		<path class="st0" d="M618.17,147.7c0.52,0.46,1.02,0.93,1.5,1.42c0.77,0.79,1.51,1.64,1.97,2.64c0.3,0.64,0.46,1.46-0.01,1.99
			c-0.52,0.59-1.46,0.45-2.21,0.21c-4.25-1.37-8.24-4.5-9.87-8.74c-0.09-0.24-0.18-0.5-0.13-0.76c0.11-0.59,0.83-0.82,1.43-0.81
			c1.42,0.02,2.74,0.72,3.93,1.49C615.98,145.9,617.11,146.76,618.17,147.7z"/>
		<path class="st0" d="M668.14,184.28c0.39,0.57,0.76,1.15,1.11,1.74c0.56,0.95,1.07,1.96,1.28,3.04c0.14,0.69,0.09,1.53-0.49,1.93
			c-0.64,0.45-1.52,0.08-2.19-0.33c-3.8-2.35-6.9-6.32-7.46-10.84c-0.03-0.24-0.05-0.5,0.03-0.73c0.23-0.65,1.05-0.67,1.61-0.52
			c1.37,0.36,2.49,1.36,3.46,2.39C666.45,182.01,667.34,183.11,668.14,184.28z"/>
		<path class="st0" d="M639.65,103.99c0.67,0.17,1.33,0.37,1.98,0.59c1.05,0.36,2.09,0.78,2.95,1.46c0.55,0.43,1.07,1.1,0.89,1.78
			c-0.19,0.76-1.1,1.06-1.87,1.19c-4.41,0.7-9.38-0.29-12.76-3.34c-0.19-0.17-0.39-0.37-0.46-0.62c-0.17-0.57,0.37-1.11,0.91-1.37
			c1.28-0.63,2.77-0.6,4.18-0.45C636.88,103.38,638.28,103.64,639.65,103.99z"/>
		<path class="st0" d="M612.27,197.69c0.31-1.52-0.67-2.95-2.3-2.25c-3.05,1.31-4.47,4.45-6.19,7.07c-0.78,1.18-1.49,2.47-1.98,3.79
			c-1.06,2.21-1.94,4.91-0.26,6.05c2.52,1.71,5.23-2.47,6.29-4.11c1.2-1.85,4.2-5.97,4.28-9
			C612.26,198.66,612.32,198.14,612.27,197.69z"/>
		<path class="st0" d="M610.54,183.67c-0.21-0.57-0.53-0.91-0.94-1.08c-0.07-0.55-0.63-1.04-1.23-0.67
			c-0.98,0.61-1.91,1.27-2.8,1.98c-3.38,2.42-7.19,7.19-7.36,8.91c-0.02,0.18-0.02,0.34-0.01,0.48c-0.23,0.91-0.1,1.71,0.88,2.05
			c1.03,0.37,2.85-0.82,3.65-1.31c1.45-0.9,2.73-2.08,3.87-3.34C608.01,189.11,611.4,185.99,610.54,183.67z"/>
		<path class="st0" d="M610.33,169.87c-0.05-0.02-0.11-0.02-0.16-0.04c-0.03-0.49-0.42-0.97-1.03-0.81
			c-0.05,0.01-0.09,0.03-0.14,0.04c-0.16-0.02-0.33-0.01-0.48,0.06c-0.17,0.07-0.33,0.16-0.49,0.24c-1.08,0.34-2.13,0.75-3.15,1.23
			c-0.82,0.36-1.6,0.79-2.34,1.24c-0.94,0.57-1.85,1.2-2.72,1.9c-0.76,0.59-1.58,1.28-2.32,2.04c-1.66,1.57-3.71,3.91-2.56,5.55
			c1.64,2.34,6.06-1.18,7.53-2.15c2.98-1.96,7.24-4.78,8.46-8.27C611.07,170.47,610.75,169.98,610.33,169.87z"/>
		<path class="st0" d="M611,155.71c0.88-0.15,0.83-1.61-0.18-1.66c-4.33-0.22-8.5,3.44-11.7,5.99c-1.42,1.13-7.05,5.21-4.16,7.53
			c2.47,1.99,7.78-1.83,9.64-3.2c1.95-1.44,8.02-4.91,6.81-8.01C611.31,156.09,611.16,155.89,611,155.71z"/>
		<path class="st0" d="M607.99,140.4c0.52-0.67-0.24-1.81-1.06-1.26c-2.73,1.85-5.33,3.88-7.74,6.15c-1.61,1.51-5.05,4.04-5.48,6.37
			c-0.93,5.05,8.54-1.6,9.56-2.46c1.96-1.65,4.79-3.92,5.7-6.44C609.42,141.53,609.02,140.63,607.99,140.4z"/>
		<path class="st0" d="M609.34,177.63c0.91,2.52,3.74,4.79,5.7,6.44c1.02,0.86,10.49,7.51,9.56,2.46c-0.43-2.33-3.87-4.86-5.48-6.37
			c-2.41-2.26-5.01-4.29-7.74-6.15c-0.82-0.55-1.58,0.59-1.05,1.26C609.3,175.51,608.89,176.4,609.34,177.63z"/>
		<path class="st0" d="M640.71,133.57c1.31,2.34,4.47,4.11,6.67,5.42c1.15,0.68,11.58,5.69,9.84,0.86c-0.81-2.24-3.76-4.5-5.66-5.67
			c-2.55-1.58-4.61-2.72-7.37-3.97c-0.69-0.31-3.14-1.29-3.08,0.24c0.01,0.19,0.06,0.39,0.02,0.58c-0.07,0.38-0.57,0.56-0.7,0.97
			C640.27,132.51,640.46,133.12,640.71,133.57z"/>
		<path class="st0" d="M604.53,127.29c-0.16-0.61-0.51-1-0.96-1.23c-0.2-0.39-0.67-0.68-1.18-0.45c-0.11,0.05-0.21,0.11-0.32,0.17
			c-0.67,0.03-1.36,0.22-1.89,0.48c-2.61,1.27-4.86,3.84-6.65,6.12c-0.54,0.62-1.1,1.3-1.61,2.01c-0.81,1.06-1.64,2.34-1.69,3.32
			c-0.03,0.11-0.07,0.22-0.09,0.33c-0.34,1.77,1.52,2.17,2.91,1.65c2.83-1.07,5.63-3.83,7.64-6.01
			C602,132.28,605.1,129.45,604.53,127.29z"/>
		<path class="st0" d="M616.23,203.12c2.01,2.17,4.81,4.94,7.64,6.01c1.39,0.52,3.25,0.12,2.91-1.65c-0.02-0.11-0.06-0.22-0.09-0.33
			c-0.05-0.99-0.88-2.26-1.69-3.32c-0.51-0.71-1.06-1.39-1.61-2.01c-1.78-2.28-4.03-4.85-6.64-6.12c-1.77-0.86-4.46-0.87-4.43,1.78
			C612.35,199.75,614.82,201.6,616.23,203.12z"/>
		<path class="st0" d="M649.81,152.58c2.21,1.97,5.26,4.46,8.18,5.26c1.43,0.39,3.25-0.19,2.74-1.92c-0.03-0.11-0.09-0.21-0.12-0.32
			c-0.15-0.98-1.09-2.17-2-3.15c-0.57-0.66-1.19-1.28-1.79-1.85c-1.99-2.11-4.47-4.44-7.19-5.47c-1.85-0.69-4.52-0.44-4.24,2.19
			C645.63,149.59,648.27,151.2,649.81,152.58z"/>
		<path class="st0" d="M599.34,110.68c-0.36-0.53-0.82-0.73-1.35-0.67c-0.14-0.06-0.3-0.09-0.48-0.05
			c-1.75,0.34-2.95,1.98-4.13,3.24c-1.19,1.26-2.34,2.61-3.26,4.08c-0.88,1.4-3.57,5.86-1.27,7.23c0.05,0.03,0.11,0.04,0.16,0.07
			c0.16,0.16,0.36,0.29,0.62,0.37c1.41,0.47,2.41-0.98,3.14-1.89c0.09-0.11,0.17-0.23,0.26-0.34c0.45-0.53,0.86-1.09,1.22-1.62
			c0.74-1.01,1.47-2.04,2.15-3.09c0.79-1.21,1.74-2.42,2.12-3.81c0.09-0.17,0.19-0.34,0.28-0.51
			C599.25,112.81,599.99,111.66,599.34,110.68z"/>
		<path class="st0" d="M604.76,113.13c-1-0.98-2.65-2.7-4.2-2.63c-4.01,0.17-0.83,5.95,0.08,7.35c0.83,1.29,1.85,2.45,3.1,3.4
			c1.2,0.93,3.63,2.73,5.27,1.77c2.75-1.6,0.06-5.05-1.29-6.63C607.09,115.65,605.99,114.33,604.76,113.13z"/>
		<path class="st0" d="M610.78,95.86c-0.7,1.2-1.97,3.23-1.53,4.71c1.14,3.85,5.97-0.65,7.11-1.87c1.05-1.12,1.92-2.39,2.55-3.83
			c0.61-1.39,1.76-4.18,0.43-5.54c-2.22-2.28-4.91,1.18-6.11,2.87C612.65,92.99,611.64,94.37,610.78,95.86z"/>
		<path class="st0" d="M614.57,132.55c-1.47-1.23-3.08-2.26-4.8-3.09c-1.91-0.92-5.44-1.21-5.04,1.85c0.35,2.74,3.57,4.71,5.97,5.71
			c0.55,0.31,1.12,0.59,1.71,0.8c1.79,0.64,5.55,0.6,4.7-2.34C616.75,134.25,615.49,133.32,614.57,132.55z"/>
		<path class="st0" d="M630.3,93.43c-1.86,0.46-3.64,1.14-5.33,2.04c-1.87,1-4.19,3.66-1.49,5.16c2.42,1.34,5.9-0.09,8.14-1.43
			c0.57-0.27,1.14-0.56,1.66-0.91c1.57-1.06,3.76-4.12,0.89-5.17C632.97,92.68,631.48,93.14,630.3,93.43z"/>
		<path class="st0" d="M663.51,196.76c0.18-2.18-0.04-4.45-1.86-4.46c-2.8-0.02-3.76,7.35-4.03,9.18c-0.24,1.62-1.45,7.33,1.45,7.6
			C664.23,209.56,663.27,199.74,663.51,196.76z"/>
		<path class="st0" d="M660.34,181.34c0.07-0.53,0.02-1.04-0.3-1.42c-2.71-3.23-6.71,5.72-7.19,7.33c-0.39,1.3-1.07,3.58-0.53,4.9
			c1.82,4.44,6.33-4.24,6.87-5.91c0.12-0.36,0.22-0.72,0.31-1.08C659.97,183.94,660.38,182.57,660.34,181.34z"/>
		<path class="st0" d="M648.64,164.58c0.3-0.78,0.56-1.48,0.79-2.01c0.46-1.06,0.91-2.14,1.11-3.28c0.12-0.72,0.11-1.55-0.39-2.08
			c-0.58-0.61-1.6-0.57-2.32-0.14c-3.12,1.86-4.91,6.8-6.03,10.08c-0.47,1.39-1.94,5.47,1,5.24
			C645.65,172.16,647.44,167.71,648.64,164.58z"/>
		<path class="st0" d="M645.03,144.8c-1.03-1.13-2.43-0.02-3.19,0.84c-1.84,2.1-3.41,4.54-4.3,7.2c-0.53,1.56-1.1,3.36-1.02,5.02
			c0.14,3.05,2.47,2.49,3.82,0.7c1.31-1.73,2.33-3.72,3.13-5.74c0.67-1.68,2.99-6.33,1.6-7.96
			C645.06,144.84,645.04,144.82,645.03,144.8z"/>
		<path class="st0" d="M642.28,131.15c-0.11-0.27-0.27-0.5-0.51-0.67c-0.5-0.35-1.2-0.31-1.75-0.05c-0.55,0.26-0.99,0.71-1.42,1.15
			c-1.66,1.76-10.49,12.29-4.91,13.86c1.25,0.35,2.49-0.56,3.35-1.54c1.78-2.03,2.9-4.54,3.97-7.02c0.56-1.3,1.12-2.62,1.36-4.01
			C642.47,132.3,642.48,131.66,642.28,131.15z"/>
		<path class="st0" d="M638,116.92c-0.06-0.07-0.12-0.13-0.19-0.18c-0.48-0.39-1.18-0.44-1.77-0.22c-0.58,0.21-1.06,0.64-1.46,1.12
			c-1.01,1.23-1.54,2.78-2.05,4.29c-0.72,2.16-3.11,8.52,0.2,9.76c0.74,0.28,1.6,0,2.2-0.52c0.6-0.52,0.97-1.24,1.29-1.97
			c1.35-3.09,1.87-6.47,2.21-9.83C638.52,118.52,638.54,117.54,638,116.92z"/>
		<path class="st0" d="M632.11,106.36c-0.14-0.79-0.47-1.56-1.19-1.81c-1.05-0.36-2.04,0.66-2.61,1.61
			c-2.15,3.56-4.22,9.88-1.22,13.53c0.34,0.42,0.79,0.81,1.32,0.84c0.77,0.05,1.38-0.62,1.75-1.3c0.59-1.09,0.84-2.33,1.08-3.55
			c0.59-2.9,1.17-5.85,0.93-8.8C632.16,106.72,632.14,106.54,632.11,106.36z"/>
		<path class="st0" d="M620.64,105.13c-0.02-0.05-0.03-0.1-0.05-0.14c-0.49-1.4-1.1-2.81-2-3.76c-2.95-3.11-4.28,1.51-3.64,4.96
			c0.66,3.52,3.23,8.17,5.88,8.94C624.78,116.28,621.44,107.38,620.64,105.13z"/>
		<path class="st0" d="M655.81,168.2c-0.23-0.37-0.58-0.65-1.01-0.71c-0.81-0.1-1.47,0.62-1.95,1.29c-1.43,2-2.67,4.15-3.7,6.38
			c-0.74,1.62-2.72,4.93-1.02,6.5c0.55,0.51,1.39,0.67,2.08,0.41c0.62-0.23,1.08-0.74,1.48-1.26c2.27-2.91,3.46-6.53,4.23-10.15
			c0.13-0.62,0.25-1.27,0.11-1.89C656,168.58,655.92,168.38,655.81,168.2z"/>
	</g>
	<path class="st20" d="M593.31,233.28c-1.14,0.05-2.11,0.93-2.11,2.11v0.11c0,0.57,0.26,1.12,0.66,1.52
		c-1.08,1.55-2.08,3.14-3.01,4.76c-0.16-0.04-0.32-0.07-0.49-0.07h-0.11c-1.1,0-2.16,0.97-2.11,2.11c0.03,0.64,0.32,1.22,0.78,1.61
		c-2.68,5.52-4.54,11.43-5.49,17.55c-0.08,0.53,0.73,0.76,0.81,0.22c0.94-6.06,2.77-11.9,5.42-17.37c0.18,0.05,0.38,0.09,0.58,0.09
		h0.11c1.1,0,2.16-0.97,2.11-2.11c-0.03-0.67-0.35-1.28-0.85-1.67c0.91-1.6,1.9-3.16,2.96-4.68c0.23,0.09,0.48,0.14,0.74,0.13
		c1.14-0.05,2.11-0.93,2.11-2.11v-0.11C595.42,234.28,594.45,233.23,593.31,233.28z"/>
	<path class="st20" d="M578.48,248.42c0.32-0.37,0.52-0.83,0.5-1.34c-0.05-1.09-0.85-2.01-1.96-2.09c-1.11-2.4-2.36-4.74-3.64-7.08
		c0.28-0.36,0.46-0.79,0.44-1.26c-0.05-1.14-0.93-2.11-2.11-2.11h-0.11c-0.02,0-0.05,0.01-0.07,0.01c-0.39-0.71-0.78-1.42-1.16-2.14
		c0.12-0.12,0.23-0.25,0.31-0.41c0.16-0.3,0.24-0.64,0.25-0.97c0.07-0.46,0-0.94-0.26-1.34c-0.62-0.96-1.86-1.35-2.88-0.76
		c-1.45,0.83-1.46,2.99,0,3.82c0.56,0.32,1.27,0.34,1.86,0.12c0.34,0.63,0.68,1.27,1.03,1.9c-0.7,0.35-1.23,1.07-1.2,1.88
		c0.05,1.14,0.93,2.11,2.11,2.11h0.11c0.36,0,0.71-0.11,1.02-0.29c1.2,2.18,2.37,4.38,3.42,6.61c-0.85,0.28-1.53,1.08-1.49,2
		c0.05,1.14,0.93,2.11,2.11,2.11h0.11c0.32,0,0.64-0.09,0.93-0.24c1.06,2.78,1.85,5.66,2.19,8.69c0.06,0.53,0.9,0.54,0.84,0
		C580.47,254.41,579.62,251.36,578.48,248.42z"/>
	<path class="st20" d="M588.48,227.86c-0.02-0.07-0.06-0.14-0.09-0.21c-0.05-0.16-0.11-0.31-0.21-0.46
		c-0.58-0.89-1.92-1.44-2.88-0.76c-0.48,0.34-0.85,0.7-1.01,1.29c-0.15,0.56-0.07,1.17,0.21,1.68c0.28,0.5,0.78,0.89,1.34,1.06
		c-0.55,1.74-1.07,3.5-1.53,5.27c-0.12-0.02-0.24-0.03-0.37-0.03c-1.24,0.06-1.98,0.93-2.11,2.11l-0.02,0.21
		c-0.1,0.89,0.65,1.73,1.5,2.01c-1,4.75-1.65,9.56-1.93,14.43c-0.03,0.54,0.81,0.54,0.84,0c0.28-4.84,0.93-9.64,1.93-14.36
		c1.1-0.15,1.75-0.98,1.87-2.08l0.02-0.21c0.08-0.69-0.36-1.36-0.95-1.76c0.48-1.86,1.02-3.7,1.61-5.53
		c0.1-0.02,0.21-0.04,0.31-0.08C588.04,230.07,588.85,229,588.48,227.86z"/>
	<polygon class="st2" points="577.51,251.32 577.51,261.3 568.02,294.62 586.92,294.62 584.39,262.29 586.36,251.32 	"/>
	<g>
		<path class="st6" d="M543.23,437.96C543.23,437.96,543.22,437.96,543.23,437.96c-0.24,0-0.43-0.2-0.42-0.43l0.56-31.12
			c0-0.23,0.2-0.39,0.43-0.41c0.23,0,0.42,0.2,0.41,0.43l-0.56,31.12C543.65,437.78,543.46,437.96,543.23,437.96z"/>
	</g>
	<g>
		<path class="st2" d="M352.01,190.14c-0.61-2.06-1.86-3.24-3.43-3.24c-0.23,0-0.42,0.19-0.42,0.42c0,0.23,0.19,0.42,0.42,0.42
			c1.66,0,2.39,1.85,2.62,2.64c0.54,1.81,0.52,3.89-0.05,5.56c-0.54,1.57-1.66,2.47-3.08,2.47c-2.34,0-3.47-2.63-3.53-5.07
			c-0.08-3.5,1.76-5.05,2.55-5.52l-0.46-0.71c-1.01,0.67-3.01,2.58-2.92,6.25c0.08,3.47,1.88,5.89,4.37,5.89
			c1.78,0,3.23-1.14,3.88-3.04C352.57,194.39,352.59,192.12,352.01,190.14z"/>
	</g>
	<g>
		<path class="st21" d="M350.95,209.68c0.05,1.85,1.17,3.42,2.71,4.26c1.98,1.08,4.12,1.57,6.01,2.92c1.28,0.92,2.41,2.02,3.38,3.26
			c-0.01,0-0.02-0.01-0.04-0.01c-1.23-0.4-3.14-0.47-3.05,1.37c0.13,2.6,3.57,3.06,5.05,4.41c2.2,1.99,3.21,5.5,4.39,8.18
			c0.14,0.33,0.62,0.15,0.62-0.18c0.03-3.3-1.32-7.89-2.97-10.68c-0.74-1.25-1.87-2.15-2.7-3.32c-0.83-1.17-1.23-2.55-1.83-3.85
			c-1.67-3.61-5.32-8.22-9.48-8.56C351.59,207.35,350.9,208.21,350.95,209.68z"/>
		<path class="st21" d="M364.6,214.2c-0.19,0.66,0.27,1.3,0.7,1.82c1.26,1.51,2.12,2.9,2.94,4.73c1.31,2.93,3.69,1.05,2.7-1.48
			c-0.79-2.02-2.57-5.88-5.04-5.93c-0.23,0-0.47,0.05-0.68,0.16C364.92,213.65,364.69,213.89,364.6,214.2z"/>
	</g>
	<g>
		<path class="st18" d="M327.82,361.72c-2.45,0-4.96-0.14-7.21-0.54c-7.98-1.41-14.31-3.58-14.38-3.6
			c-0.22-0.08-0.34-0.32-0.26-0.54c0.08-0.22,0.31-0.34,0.54-0.26c0.06,0.02,6.33,2.17,14.25,3.57c7.88,1.39,19.16-0.4,19.27-0.42
			c0.23-0.04,0.45,0.12,0.48,0.35c0.04,0.23-0.12,0.45-0.35,0.48C340.08,360.77,334.13,361.72,327.82,361.72z"/>
	</g>
	<g>
		<path class="st18" d="M347.28,321.56c-0.06,0-0.13-0.01-0.19-0.05c-0.23-0.12-5.65-2.99-11.52-13.8
			c-5.85-10.76-6.4-14.09-6.42-14.23c-0.03-0.23,0.12-0.44,0.35-0.48c0.23-0.03,0.44,0.12,0.48,0.35c0,0.03,0.59,3.39,6.33,13.95
			c5.73,10.55,11.11,13.43,11.17,13.45c0.21,0.11,0.29,0.36,0.18,0.57C347.58,321.47,347.43,321.56,347.28,321.56z"/>
	</g>
	<g>
		<path class="st18" d="M347.22,325.36c-1.18,0-5.6-1.38-9.04-3.88c-3.88-2.83-7.42-8.45-7.57-8.69c-0.12-0.2-0.06-0.46,0.13-0.58
			c0.2-0.12,0.46-0.06,0.58,0.13c0.04,0.06,3.6,5.72,7.35,8.45c3.56,2.59,7.86,3.74,8.49,3.74c0,0,0.01,0,0.01,0
			c0.2-0.06,0.41,0.04,0.49,0.23c0.1,0.21,0,0.46-0.21,0.56C347.4,325.35,347.32,325.36,347.22,325.36z"/>
	</g>
	<g>
		<path class="st18" d="M341.1,358.49c-0.04,0-0.08-0.01-0.13-0.02L326.84,354c-0.22-0.07-0.34-0.31-0.27-0.53
			c0.07-0.22,0.31-0.34,0.53-0.27l14.14,4.47c0.22,0.07,0.34,0.31,0.27,0.53C341.45,358.37,341.28,358.49,341.1,358.49z"/>
	</g>
	<g>
		<path class="st18" d="M390.18,375.57c-0.12,0-0.24-0.05-0.32-0.15c-0.04-0.05-4.1-4.85-9.97-8.74c-5.88-3.9-14.5-7.01-14.58-7.05
			c-0.22-0.08-0.33-0.32-0.25-0.54c0.08-0.22,0.32-0.33,0.54-0.25c0.09,0.03,8.79,3.18,14.76,7.14c5.98,3.96,10.11,8.85,10.15,8.9
			c0.15,0.18,0.13,0.44-0.05,0.59C390.37,375.54,390.27,375.57,390.18,375.57z"/>
	</g>
	<g>
		<path class="st2" d="M426.93,146.26h-19.71c-1.73,0-3.11-1.47-2.99-3.2l1.29-19.72c0.1-1.58,1.41-2.8,2.99-2.8h19.71
			c1.73,0,3.11,1.47,2.99,3.2l-1.29,19.72C429.82,145.03,428.51,146.26,426.93,146.26z"/>
		<g>
			<path class="st1" d="M417.72,143.94c-5.81,0-10.54-4.73-10.54-10.54c0-5.81,4.73-10.54,10.54-10.54s10.54,4.73,10.54,10.54
				C428.26,139.21,423.53,143.94,417.72,143.94z M417.72,123.71c-5.35,0-9.69,4.35-9.69,9.69c0,5.34,4.35,9.69,9.69,9.69
				c5.34,0,9.69-4.35,9.69-9.69C427.41,128.06,423.06,123.71,417.72,123.71z"/>
		</g>
		<path class="st22" d="M408.87,143.64c0,0.55-0.58,1-1.3,1c-0.72,0-1.3-0.45-1.3-1s0.58-1,1.3-1
			C408.29,142.63,408.87,143.08,408.87,143.64z"/>
	</g>
</g>
</svg>
