<?xml version="1.0" encoding="utf-8"?>
<!-- Generator: Adobe Illustrator 24.1.3, SVG Export Plug-In . SVG Version: 6.00 Build 0)  -->
<svg version="1.1" id="레이어_1" xmlns="http://www.w3.org/2000/svg" xmlns:xlink="http://www.w3.org/1999/xlink" x="0px"
	 y="0px" viewBox="0 0 841.89 595.28" style="enable-background:new 0 0 841.89 595.28;" xml:space="preserve">
<style type="text/css">
	.st0{fill:#76A7D0;}
	.st1{fill:#434884;}
	.st2{fill:#1F2043;}
	.st3{fill:#EE9481;}
	.st4{fill:#994C4B;}
	.st5{fill:#FFFFFF;}
	.st6{fill:#D2715C;}
	.st7{fill:#F3E3D4;}
</style>
<g>
	<path class="st0" d="M507.11,353.77c-1.37-6.64-8.95-24.61-32-27.02c-16.45-1.72-30.97,6-42.74,15.66
		c-7.06,5.79-12.61,12.78-16.3,20.45c-7.96,6.16-13.13,15.31-17.35,23.62c-7.29,14.34-12.15,29.9-9.47,45.66
		c2.31,13.61,10.5,26.65,24.56,33.6c13.99,6.91,30.46,6.59,43.69-1.47c25.7-15.65,42.34-43.08,47.67-69.49
		C507.82,381.62,509.82,366.92,507.11,353.77z"/>
	<path class="st0" d="M174.05,427.25c2.94,14.58,12.13,29.73,26.32,38.37c7.31,4.45,16.4,4.63,24.12,0.81
		c7.76-3.84,12.28-11.04,13.56-18.55c1.48-8.7-1.2-17.29-5.23-25.21c-2.33-4.59-5.18-9.64-9.58-13.04c-2.04-4.24-5.1-8.09-9-11.29
		c-6.5-5.34-14.52-9.6-23.6-8.65c-12.73,1.33-16.91,11.25-17.67,14.92C171.48,411.87,172.58,419.99,174.05,427.25z"/>
	<path class="st0" d="M208.96,349.57c-1.12-8.85-3.16-17.56-6.16-25.95c-2.82-7.9-6.16-16-11.42-22.61
		c-5.05-6.34-12.44-11.02-20.74-11.09c-8.5-0.08-16.09,2.73-21.89,8.31c-6.12,5.89-8.24,16.31-7.33,24.81
		c0.85,7.98,3.99,15.7,7.88,22.67c8.21,14.69,23.96,32.11,42.24,31.68c0.75-0.02,1.42-0.17,2-0.42c3.85-0.33,7.62-2.16,10.4-4.98
		C209.74,366.1,209.93,357.24,208.96,349.57z"/>
	<path class="st1" d="M270.71,428.17c-35.85-28.84-70.24-60.57-96.02-98.97c-7.24-10.78-13.72-22.05-19.34-33.76
		c-0.42-0.86-1.7-0.11-1.29,0.75c19.99,41.65,50.99,76.65,85.14,107.29c9.9,8.88,20.09,17.42,30.45,25.75
		C270.4,429.82,271.46,428.77,270.71,428.17z"/>
	<path class="st1" d="M270.94,466.61c-36.66-14.03-68.45-39.43-90.23-72.08c-0.53-0.79-1.82-0.05-1.29,0.75
		c22.01,33,54.07,58.6,91.12,72.77C271.44,468.39,271.83,466.95,270.94,466.61z"/>
	<path class="st1" d="M485.41,331.14c-8.23,25.89-21.69,49.85-36.73,72.36c-13.7,20.51-30.08,40.12-52.58,51.23
		c-0.86,0.42-0.11,1.71,0.75,1.29c22.36-11.04,38.75-30.43,52.45-50.76c15.41-22.89,29.16-47.33,37.55-73.71
		C487.14,330.62,485.7,330.23,485.41,331.14z"/>
	<polygon class="st2" points="230.09,547.09 222.64,546.6 287.02,210.3 294.46,210.79 	"/>
	<polygon class="st2" points="429.08,544.48 436.52,543.99 372.14,207.69 364.7,208.18 	"/>
	<path class="st3" d="M598.52,95.33c0.03-4.67-2.14-6.62-5.89-8.65c-20.21-10.93-38.35-0.94-38.48,1.94
		c-0.51,11.67-1.5,26.55,3.91,37.1c4.06,7.89,12,14.88,21.07,11C588.6,132.66,598.34,121.24,598.52,95.33z"/>
	<path class="st3" d="M563.44,149.89c0.53,0.13,1.06,0.27,1.59,0.38c0.49,0.1,3.19,0.31,0.58,0.13c2.7,0.19,5.4,0.5,8.09,0.75
		c2.26,0.21,4.52,0.29,6.78,0.28c1,0,2-0.05,3-0.05c0.38-0.02,0.76-0.04,1.14-0.07c0.05-0.01,0.09-0.02,0.14-0.03
		c0.58-0.11,1.17-0.29,1.77-0.5c-0.07-0.76-0.13-1.46-0.14-2.01l3.18-38.9c-0.01-1.48-3.53,3.34-4.77,4.24
		c-6.34,4.57-11.41,5.98-18.99,6.77c-0.23,0.02-0.43,0.09-0.62,0.17c-1.06,0-0.97,0.5-0.97,1.87
		C564.25,129.59,563.1,141.04,563.44,149.89z"/>
	<path class="st3" d="M565.03,149.82c-0.3-1.13-0.8-2.08-1.51-2.85C564.12,147.85,564.63,148.8,565.03,149.82z"/>
	<path class="st2" d="M566.55,109.14c0.02,1.39-0.63,2.52-1.44,2.53c-0.82,0.01-1.5-1.1-1.52-2.49c-0.02-1.39,0.63-2.52,1.44-2.53
		C565.85,106.64,566.53,107.76,566.55,109.14z"/>
	<path class="st2" d="M586.51,109.59c-0.02,1.39-0.69,2.5-1.51,2.49c-0.82-0.01-1.47-1.14-1.45-2.53c0.02-1.39,0.69-2.5,1.51-2.49
		C585.87,107.07,586.52,108.2,586.51,109.59z"/>
	<path class="st4" d="M590.13,102.14c-0.04-0.06-0.76-0.39-0.79-0.39c-2.26-0.84-5.34-1.49-7.51-0.39
		c-1.13,0.57-2.23,1.95-0.64,2.63c1.35,0.57,3.3,0.49,4.74,0.54c1.16,0.03,2.58,0.24,3.68-0.28
		C590.94,103.62,591,102.84,590.13,102.14z"/>
	<path class="st4" d="M559.82,103.31c1.04,0.64,2.47,0.59,3.63,0.69c1.43,0.12,3.36,0.41,4.77-0.01c1.66-0.49,0.71-1.99-0.35-2.68
		c-2.04-1.33-5.17-1.02-7.5-0.44c-0.03,0-0.78,0.24-0.83,0.3C558.6,101.76,558.56,102.53,559.82,103.31z"/>
	<path class="st5" d="M581.74,123.87c-7.17,2.56-13.56-0.49-13.94-0.37c-0.16,0.05-0.32,0.18-0.29,0.35
		c0.61,3.1,4.13,4.85,6.87,5.01c2.85,0.16,6.85-1.52,7.8-4.5C582.26,124.09,582.03,123.76,581.74,123.87z"/>
	<path class="st6" d="M576.69,120.17c-1.97,0.49-3.8-0.15-4.01-2.36c-0.1-1.03,0.24-2.34,0.35-3.36c0.25-2.2,0.53-4.39,0.83-6.58
		c0.07-0.48-0.68-0.51-0.74-0.04c-0.25,1.84-0.49,3.69-0.71,5.54c-0.19,1.62-0.68,3.54-0.49,5.17c0.28,2.32,3.04,2.83,4.92,2.36
		C577.31,120.78,577.16,120.05,576.69,120.17z"/>
	<path class="st3" d="M598.4,106.48c-1.84-1.76-5-0.03-5.62,2.07c-0.13,0.46,0.16,0.74,0.53,0.8c-0.33,0.76-0.52,1.66-0.57,2.56
		c0,0,0,0,0,0c-0.29,1.07-0.4,2.12-0.23,2.87c0,0.38,0.02,0.76,0.05,1.14c-0.16,0.43-0.23,0.87-0.05,1.28
		c1.11,2.64,4.58-1.03,5.22-2.19C598.88,112.91,600.48,108.47,598.4,106.48z"/>
	<path class="st3" d="M551.43,106.21c1.64-1.95,4.97-0.58,5.81,1.44c0.18,0.44-0.08,0.76-0.44,0.86c0.41,0.72,0.7,1.59,0.85,2.48
		c0,0,0,0,0,0c0.41,1.03,0.63,2.06,0.54,2.83c0.04,0.38,0.06,0.76,0.07,1.14c0.21,0.41,0.32,0.84,0.19,1.27
		c-0.82,2.75-4.66-0.52-5.43-1.61C551.65,112.65,549.58,108.41,551.43,106.21z"/>
	<path class="st6" d="M595.93,108.94c-0.03,1.49-0.36,2.89-1.03,4.22c-0.21,0.43,0.43,0.81,0.64,0.38c0.72-1.44,1.1-2.98,1.13-4.6
		C596.68,108.46,595.94,108.46,595.93,108.94z"/>
	<path class="st6" d="M555.53,112.67c-0.57-1.26-0.88-2.59-0.95-3.98c-0.02-0.48-0.77-0.48-0.75,0c0.07,1.52,0.42,2.97,1.05,4.35
		C555.08,113.48,555.72,113.1,555.53,112.67z"/>
	<path class="st2" d="M453.89,473.55l-4.25-423.34c-0.04-3.26-2.62-5.87-5.78-5.84l-224.49-0.18c-3.16,0.03-5.69,2.7-5.65,5.96
		l4.25,423.34c0.04,3.26,2.62,5.87,5.78,5.84l224.49,0.18C451.4,479.48,453.93,476.81,453.89,473.55z"/>
	<path class="st5" d="M440.53,460.32l-3.75-395.45c-0.03-2.88-2.32-5.18-5.11-5.15L233.3,59c-2.79,0.03-5.02,2.39-4.99,5.26
		l3.75,395.45c0.03,2.88,2.32,5.18,5.11,5.15l198.36,0.72C438.32,465.56,440.56,463.2,440.53,460.32z"/>
	<path class="st3" d="M509.69,491.28c-2.15,0.1-1.38-0.34-3.23,0.99c-0.27,0.19-0.48,0.46-0.64,0.77c-1.16-0.13-2.35,0.47-2.45,1.98
		c-0.83,12.23-3.32,24.29-3.68,36.56c-0.05,1.57,0.99,2.87,2.67,2.72c3.05-0.27,2.12-0.47,5.07-1.26c0.78-0.21,2.66-4.76,2.76-5.51
		c0.82-6.17,2.97-27.06,3.2-33.33C513.44,492.58,511.35,491.21,509.69,491.28z"/>
	<path class="st3" d="M591.84,498.99c-2.15,0.1-1.38-0.34-3.23,0.99c-0.27,0.19-0.48,0.46-0.64,0.77c-1.16-0.13-2.35,0.47-2.45,1.98
		c-0.83,12.23-3.32,24.29-3.68,36.56c-0.05,1.57,0.99,2.87,2.67,2.72c3.05-0.27,2.12-0.47,5.07-1.26c0.78-0.21,2.66-4.76,2.76-5.51
		c0.82-6.17,2.97-27.06,3.2-33.33C595.59,500.29,593.5,498.92,591.84,498.99z"/>
	<path class="st2" d="M511.24,526.87c-2.92-0.35-9.34-0.24-12.53-0.26c-1.41,0.09-1.9,1.01-1.83,1.48c0.48,3.65-2.87,3.41-7.34,5.63
		c-3.81,1.89-7.48,3.5-13.57,5.29c-5.41,1.59-4.86,0.71-4.92,4.18c-0.04,2.49,5.53,2.1,10.05,1.86c0.71-0.04,1.42-0.07,2.13-0.1
		c2.13-0.08,4.23-0.51,6.24-1.24c0.37-0.13,0.73-0.27,1.1-0.4c3.34-1.24,6.36-1.57,9.92-1.49c0.17,0,0.38,0.12,0.41,0.31
		c0.06,0.37,0.08,0.58,0.12,0.95c0.08,0.66,0.67,1.14,1.33,1.11c1.46-0.05,2.92-0.11,4.39-0.19c2.78-0.15,5.39-0.19,5.82-0.89
		c0.47-0.78,0.26-0.92,0.24-1.71C512.76,539.28,512.31,527,511.24,526.87z"/>
	<path class="st1" d="M489.31,533.89c-0.21-0.43-0.85-0.05-0.64,0.38c0.48,0.99,0.98,1.98,1.5,2.95c0.23,0.42,0.86,0.04,0.64-0.38
		C490.29,535.87,489.79,534.88,489.31,533.89z M492.47,532.3c-0.29-0.38-0.93,0-0.64,0.38c0.7,0.92,1.33,1.88,1.89,2.88
		c0.23,0.42,0.87,0.03,0.64-0.38C493.8,534.17,493.17,533.21,492.47,532.3z M498.59,533.11c-0.91-0.71-1.86-1.35-2.86-1.93
		c-0.41-0.24-0.86,0.36-0.44,0.6c1,0.58,1.95,1.22,2.86,1.93C498.53,534.01,498.97,533.41,498.59,533.11z"/>
	<path class="st1" d="M512.79,541.4c-0.03-0.63-0.1-1.34-0.19-2.08c-3.38,0.77-6.82,0.73-10.27,0.74
		c-3.41,0.01-6.69,0.32-10.03,1.04c-7.06,1.52-13.99,2.45-21.21,2.17c0.01,0.32,0.02,0.7,0.03,1.16c0.04,2.49,5.59,1.93,10.1,1.56
		c0.71-0.06,1.42-0.11,2.12-0.16c2.13-0.15,4.22-0.63,6.2-1.42c0.36-0.14,0.72-0.29,1.08-0.44c3.3-1.34,6.31-1.76,9.87-1.78
		c0.17,0,0.39,0.11,0.42,0.29c0.07,0.37,0.09,0.57,0.15,0.94c0.1,0.66,0.7,1.12,1.36,1.07c1.45-0.1,2.91-0.2,4.39-0.32
		c2.77-0.23,5.39-0.35,5.79-1.07C513.04,542.32,512.82,542.19,512.79,541.4z"/>
	<path class="st1" d="M491.69,522.43c8.27,0.91,16.55,1.04,24.85,0.39c0.78-0.06,1.52-0.63,1.49-1.48
		c-0.29-9.56,1.22-19.04,4.69-27.98c3.05-7.86,8.13-14.7,11.37-22.47c6.24-14.96,1.65-32.01,3.32-47.7
		c0.89-8.37,3.54-15.99,7.72-23.28c3.41-5.94,7.37-11.58,10.45-17.71c2.73-5.43,4.75-11.3,4.69-17.43
		c-0.04-4.44-1.48-8.89-0.43-13.31c0.31-1.31,0.8-2.56,1.4-3.76c1.47,23.91,2.92,47.82,2.48,71.78c-0.17,9.16-0.73,18.32-0.48,27.48
		c0.23,8.27,1.3,16.47,2.65,24.62c2.85,17.31,6.72,34.6,5.03,52.24c-0.08,0.88,0.75,1.38,1.49,1.48c5.63,0.74,11.29,1.11,16.97,1.02
		c3.21-0.05,9.9,0.73,12.38-1.92c0.94-1.01,1.03-2.3,1.18-3.58c0.33-2.9,0.38-5.85,0.57-8.76c0.38-5.84,0.76-11.68,1.15-17.53
		c2.67-40.84,6.1-81.72,7.72-122.62c1.66-41.74-0.34-83.5-2.33-125.18c-0.09-1.88-3.02-1.9-2.98-0.05
		c-13.45-0.31-26.9-0.05-40.32,0.78c-0.23-0.17-0.52-0.26-0.88-0.25c-6.43,0.19-12.85,0.38-19.28,0.57
		c-5.4,0.16-11.08-0.21-16.41,0.63c-4,0.63-6.04,2.94-7.19,6.7c-1.62,5.3-2.58,10.92-3.73,16.34
		c-17.34,82.04-16.37,166.42-29.01,249.11C490.09,521.58,490.64,522.32,491.69,522.43z"/>
	<path class="st2" d="M576.49,552.64c2.45,0.06,4.9,0.02,7.35-0.16c1.61-0.11,3.84,0.01,5.34-0.68c0.57-0.26,0.85-0.64,1.14-1.17
		c0.62-1.16,1.08-1.96,2.23-2.71c0.86-0.57,1.08-1.12,1.14-2.36c0.39-5.62,0.51-11.25,0.34-16.89c-0.01-0.27-0.45-0.76-1.5-0.78
		c-1.24-0.02-5.82-0.02-7.06-0.01c-0.88,0.01-2.02-0.15-2.85,0.26c-1,0.49-1.26,1.58-1.39,2.6c-0.26,2.02-0.29,4.09-0.27,6.13
		c-0.03,0.05-0.06,0.11-0.06,0.19c-0.12,4.53-4.9,6.71-6.51,10.6C573.66,549.47,573.61,553.21,576.49,552.64z"/>
	<path class="st1" d="M582.96,539.6c-0.48-0.01-0.43,0.73,0.05,0.74c1.1,0.03,3.7,0.03,4.8,0.02c0.48-0.01,0.43-0.75-0.05-0.74
		C586.65,539.63,584.06,539.63,582.96,539.6z M583.75,531.3c-0.47,0.06-0.47,0.8,0.01,0.75c1.14-0.13,3.78-0.1,4.93-0.07
		c0.48,0.01,0.47-0.73-0.01-0.75C587.53,531.2,584.89,531.17,583.75,531.3z M583.28,535.35c-0.47,0.06-0.47,0.8,0.01,0.75
		c1.14-0.13,3.78-0.1,4.93-0.07c0.48,0.01,0.47-0.73-0.01-0.75C587.06,535.25,584.43,535.22,583.28,535.35z"/>
	<path class="st1" d="M574.16,548.48c0.02,0,0.03,0,0.05,0c4.85,0.53,8.84,1.2,12.96-0.22c2.41-0.83,2.81-2.3,4.68-3.68
		c0.62-0.46,1.28-0.82,1.97-1.13c-0.04,0.71-0.07,1.42-0.12,2.12c-0.06,1.24-0.28,1.79-1.14,2.36c-1.14,0.75-1.61,1.55-2.23,2.71
		c-0.28,0.54-0.57,0.91-1.14,1.17c-1.51,0.69-3.74,0.56-5.34,0.68c-2.45,0.17-4.9,0.21-7.35,0.16
		C573.99,553.15,573.7,550.39,574.16,548.48z"/>
	<path class="st2" d="M546.17,292.3c8.42,0.14,16.86,0.1,25.27-0.23c3.17-0.13,6.35-0.31,9.51-0.58c3.69-0.3,5.69-0.52,8.14-0.91
		c5.85-0.93,11.56-2.36,17.13-4.4c2.6-0.96,7.21-3.61,10.26-5.98c2.88-19.43,11.43-90.81,10.18-99.16
		c-1.14-7.67-4.03-14.97-8.19-21.25c-5.52-8.34-17.65-11.2-29.33-14.06c-3.99,2.75-10.09,4.07-13.96,4.2
		c-6.35,0.22-11.39-1.16-14.49-6.02c-9.21,1.81-17.45,3.89-25.19,8.63c-9.59,5.87-12.68,14.04-16.28,26.32
		c-3.23,10.98-10.31,88.71-4.22,108.6C515.42,288.85,536.42,292.14,546.17,292.3z"/>
	<g>
		<path class="st0" d="M290.11,118.63c-0.07-0.67-0.42-1.19-0.9-1.21c-10.33-0.53-40.74-0.55-43.13-0.67
			c-1.96-0.1-1.56,2.33-1.55,2.76c0.1,9.71,1.57,31.94,1.85,36.65c0.12,2.09,0.36,3.14,1.95,3.66c3.02,0.99,33.34,0.83,40.8,0.94
			c2.37,0.03,2.6-0.84,2.37-6.22C290.61,133.79,291.85,136.52,290.11,118.63z"/>
		<path class="st2" d="M277.27,130.96c-0.63-0.36-1.43-0.15-1.79,0.48l-7.68,13.29l-3.17-4.14c-0.44-0.58-1.27-0.69-1.84-0.24
			c-0.58,0.44-0.69,1.27-0.24,1.84l4.4,5.74c0.44,0.58,1.27,0.69,1.84,0.24c0.24-0.18,0.39-0.43,0.46-0.7l8.5-14.72
			C278.12,132.13,277.9,131.32,277.27,130.96z"/>
		<path class="st7" d="M305.51,156.42c0.2,2.11,1.32,3.74,5.05,3.79c19.64,0.23,99.65,0.1,107.67-0.09
			c5.31-0.12,5.62-1.02,5.45-3.48c-0.72-10.08-0.09-24.14-1.02-36.5c-0.17-2.21,1.13-3.33-4.05-3.28
			c-6.27,0.07-83.95-0.25-111.14-0.57c-5.1-0.06-4.22,4.76-4.17,5.54C304.38,136.27,304.85,149.33,305.51,156.42z"/>
		<path class="st2" d="M408.73,126.63c-30.58-0.05-61.15-0.1-91.73-0.16c-0.48,0-0.49,0.74-0.01,0.75
			c30.58,0.05,61.15,0.1,91.73,0.16C409.2,127.38,409.21,126.64,408.73,126.63z M408.89,138.72c-30.58-0.05-61.15-0.1-91.73-0.16
			c-0.48,0-0.49,0.74-0.01,0.75c30.58,0.05,61.15,0.1,91.73,0.16C409.36,139.47,409.37,138.73,408.89,138.72z M408.49,149.98
			c-8.77-0.12-17.53-0.07-26.3,0.14c-0.48,0.01-0.5,0.76-0.02,0.75c8.77-0.21,17.53-0.26,26.3-0.14
			C408.94,150.74,408.97,149.99,408.49,149.98z"/>
	</g>
	<g>
		<path class="st0" d="M291.23,337.24c-0.07-0.67-0.42-1.19-0.9-1.21c-10.33-0.53-40.74-0.55-43.13-0.67
			c-1.96-0.1-1.56,2.33-1.55,2.76c0.1,9.71,1.57,31.94,1.85,36.65c0.12,2.09,0.36,3.14,1.95,3.66c3.02,0.99,33.34,0.83,40.8,0.94
			c2.37,0.03,2.6-0.84,2.37-6.22C291.73,352.4,292.97,355.13,291.23,337.24z"/>
		<path class="st2" d="M278.64,348.33c-0.63-0.36-1.43-0.15-1.79,0.48l-7.68,13.29l-3.17-4.14c-0.44-0.58-1.27-0.69-1.84-0.24
			c-0.58,0.44-0.69,1.27-0.24,1.84l4.4,5.74c0.44,0.58,1.27,0.69,1.84,0.24c0.24-0.18,0.39-0.43,0.46-0.7l8.5-14.72
			C279.49,349.49,279.27,348.69,278.64,348.33z"/>
		<path class="st7" d="M310.16,374.9c0.19,2.11,1.31,3.75,5.04,3.81c19.64,0.31,99.65,0.53,107.67,0.38
			c5.32-0.1,5.63-0.99,5.46-3.46c-0.68-10.08,0.01-24.14-0.86-36.5c-0.16-2.21,1.14-3.33-4.03-3.29
			c-6.28,0.04-83.95-0.61-111.14-1.05c-5.09-0.08-4.24,4.74-4.19,5.53C309.11,354.75,309.53,367.81,310.16,374.9z"/>
		<path class="st2" d="M414.63,344.78c-30.57-0.41-61.15-0.81-91.72-1.22c-0.48-0.01-0.48,0.74,0,0.75
			c30.57,0.41,61.15,0.81,91.72,1.22C415.11,345.53,415.11,344.79,414.63,344.78z"/>
		<path class="st2" d="M414.28,356.87c-30.57-0.41-61.15-0.81-91.72-1.22c-0.48-0.01-0.48,0.74,0,0.75
			c30.57,0.41,61.15,0.81,91.72,1.22C414.76,357.62,414.77,356.87,414.28,356.87z"/>
		<path class="st2" d="M349.1,367.44c-8.76-0.34-17.53-0.52-26.29-0.53c-0.48,0-0.47,0.74,0.01,0.75
			c8.77,0.01,17.53,0.19,26.29,0.53C349.59,368.21,349.58,367.46,349.1,367.44z"/>
	</g>
	<g>
		<path class="st0" d="M289.31,191.7c-0.07-0.67-0.42-1.19-0.9-1.21c-10.33-0.53-40.74-0.55-43.12-0.67
			c-1.96-0.1-1.56,2.33-1.55,2.76c0.1,9.71,1.57,31.94,1.85,36.65c0.12,2.09,0.36,3.14,1.95,3.66c3.02,0.99,33.34,0.83,40.8,0.94
			c2.37,0.03,2.6-0.84,2.37-6.22C289.8,206.86,291.05,209.6,289.31,191.7z"/>
		<path class="st2" d="M275.22,201.93c-0.63-0.36-1.43-0.15-1.79,0.48l-7.68,13.29l-3.17-4.14c-0.44-0.58-1.27-0.69-1.84-0.24
			c-0.58,0.44-0.69,1.27-0.24,1.84l4.4,5.74c0.44,0.58,1.27,0.69,1.84,0.24c0.24-0.18,0.39-0.43,0.46-0.7l8.5-14.72
			C276.07,203.09,275.85,202.29,275.22,201.93z"/>
		<path class="st7" d="M305.66,229.4c0.17,2.11,1.27,3.76,5,3.86c19.63,0.51,99.64,1.56,107.66,1.48c5.32-0.05,5.64-0.94,5.5-3.4
			c-0.57-10.09,0.26-24.14-0.49-36.51c-0.13-2.21,1.17-3.32-4-3.34c-6.28-0.02-83.94-1.48-111.12-2.19
			c-5.09-0.13-4.29,4.7-4.25,5.48C304.82,209.24,305.1,222.3,305.66,229.4z"/>
		<path class="st2" d="M408.21,200.08c-30.57-0.63-61.14-1.25-91.71-1.88c-0.48-0.01-0.49,0.74-0.01,0.75
			c30.57,0.62,61.14,1.25,91.71,1.88C408.69,200.83,408.69,200.09,408.21,200.08z M316.07,211.03c30.57,0.63,36.53,1.07,67.1,1.7
			c0.48,0.01,0.49-0.74,0.01-0.75c-30.57-0.63-36.53-1.07-67.1-1.7C315.59,210.28,315.59,211.02,316.07,211.03z M406.95,224.46
			c-30.57-0.62-61.14-1.25-91.71-1.88c-0.48-0.01-0.49,0.74-0.01,0.75c30.57,0.62,61.14,1.25,91.71,1.88
			C407.42,225.21,407.43,224.47,406.95,224.46z"/>
	</g>
	<g>
		<path class="st0" d="M290.98,262.17c-0.07-0.67-0.42-1.19-0.9-1.21c-10.33-0.53-40.74-0.55-43.12-0.67
			c-1.96-0.1-1.56,2.33-1.55,2.76c0.1,9.71,1.57,31.94,1.85,36.65c0.12,2.09,0.36,3.14,1.95,3.66c3.02,0.99,33.34,0.83,40.8,0.94
			c2.37,0.03,2.6-0.84,2.37-6.22C291.48,277.33,292.72,280.07,290.98,262.17z"/>
		<path class="st2" d="M277.77,275.25c-0.63-0.36-1.43-0.15-1.79,0.48l-7.68,13.29l-3.17-4.14c-0.44-0.58-1.27-0.69-1.84-0.24
			c-0.58,0.44-0.69,1.27-0.24,1.84l4.4,5.74c0.44,0.58,1.27,0.69,1.84,0.24c0.24-0.18,0.39-0.43,0.46-0.7l8.5-14.72
			C278.62,276.42,278.4,275.61,277.77,275.25z"/>
		<path class="st2" d="M407.72,270.49c-30.57-0.41-61.15-0.81-91.72-1.22c-0.48-0.01-0.48,0.74,0,0.75
			c30.57,0.41,61.15,0.81,91.72,1.22C408.2,271.25,408.2,270.5,407.72,270.49z"/>
		<path class="st7" d="M306.39,301.26c0.17,2.11,1.27,3.76,4.99,3.86c19.63,0.53,99.63,1.61,107.66,1.55
			c5.32-0.04,5.64-0.93,5.5-3.4c-0.57-10.09,0.27-24.14-0.47-36.51c-0.13-2.21,1.18-3.32-3.99-3.34
			c-6.28-0.02-83.94-1.53-111.12-2.25c-5.09-0.14-4.3,4.7-4.25,5.48C305.57,281.1,305.84,294.16,306.39,301.26z"/>
		<path class="st2" d="M314.14,272.44c30.57,0.41,36.54,0.81,67.11,1.22c0.48,0.01,0.48-0.74,0-0.75
			c-30.57-0.41-36.54-0.81-67.11-1.22C313.66,271.69,313.66,272.44,314.14,272.44z M405.11,285.22
			c-30.57-0.41-61.15-0.81-91.72-1.22c-0.48-0.01-0.48,0.74,0,0.75c30.57,0.41,61.15,0.81,91.72,1.22
			C405.59,285.97,405.59,285.23,405.11,285.22z"/>
	</g>
	<path class="st2" d="M559.31,247.19c-0.08-0.32-0.2-0.58-0.34-0.82c-5.55-14.43-7.18-29.96-9.37-45.16
		c-2.35-16.31-4.71-32.62-7.06-48.93c-0.09-0.6-0.35-1.01-0.7-1.27c-0.48-0.61,11.11-5.3,10.13-5.05
		c-34.67,8.95-48.02,37.53-52.86,57.66c-2.58,10.72-4.29,22.83-1.26,33.99c2.9,10.7,16.71,14.75,27.03,15.47
		c7.85,0.55,6.94-0.69,14.77-1.3c3.82-0.3,7.64-0.59,11.46-0.89c2.47-0.19,5.66,0.23,7.62-1.54
		C559.33,248.84,559.5,247.94,559.31,247.19z"/>
	<path class="st2" d="M577.18,258.41c1.96,1.77,5.15,1.35,7.62,1.54c3.82,0.3,7.64,0.59,11.46,0.89c7.82,0.61,15.84,1.76,23.69,1.21
		c10.32-0.72,17.73-6.69,20.63-17.4c3.03-11.16,3.04-24.45-0.75-43.75c-4.25-21.62-13.88-45.6-37.71-51.38
		c-0.98-0.24-1.75,0.14-2.23,0.75c-0.35,0.26-0.62,0.67-0.7,1.27c-2.35,16.31-4.71,32.62-7.06,48.93
		c-2.19,15.2-9.65,40.51-15.2,54.94c-0.14,0.24-0.26,0.5-0.34,0.82C576.42,256.98,576.59,257.87,577.18,258.41z"/>
	<path class="st7" d="M591.36,149.45c-0.25-2.11-1.9-4.39-2.84-6.36c-0.14-0.3-0.48-0.29-1.29-0.02c-2.78,0.62-4.96,1.4-7.64,2.25
		c-1.35,0.42-2.84,0.82-4.11,1.4c-0.26,0.12-0.53,0.24-0.75,0.4c-0.2-0.15-0.44-0.27-0.68-0.4c-1.23-0.63-2.68-1.09-4-1.58
		c-2.62-0.96-4.74-1.85-7.48-2.59c-0.78-0.3-1.12-0.33-1.29-0.04c-1.07,1.92-2.88,4.12-3.27,6.22c-0.31,1.67,1.03,2.97,2.22,4.21
		c1.74,1.82,3.56,3.77,5.68,5.31c1.32,0.96,2.42,1.35,3.73,0.25c1.62-1.38,2.28-3.55,3.08-5.28c0.56-1.21,1.12-2.41,1.67-3.62
		c0.08-0.17,0.19-0.36,0.3-0.56c0.09,0.2,0.18,0.38,0.25,0.54c0.47,1.23,0.95,2.46,1.42,3.69c0.68,1.76,1.18,3.96,2.71,5.41
		c1.22,1.16,2.35,0.82,3.74-0.08c2.23-1.44,4.18-3.31,6.04-5.05C590.12,152.37,591.55,151.13,591.36,149.45z"/>
	<path class="st4" d="M602.86,93.83c-0.29-1.7-1.46-3.31-1.91-4.97c-0.37-1.36-0.07-2.89-0.76-4.14c-1.26-2.28-3.68-2.87-5.83-3.9
		c-0.03-0.9-0.18-1.81-0.48-2.68c-0.46-1.35-1.33-2.92-2.72-3.43c-1.2-0.44-2.14,0.12-2.97,0.91c-0.98-2.91-2.42-5.15-5.29-6.51
		c-2.58-1.23-5.53-1.55-8.32-1.02c-1.38,0.26-2.72,0.73-3.96,1.4c-0.74,0.4-1.4,0.87-2.06,1.38c-1.44,1.11-2.5,0.67-3.94,0.05
		c-2.44-1.04-5.02-0.69-7.14,0.98c-2.63,2.08-3.15,5.01-4.08,8.06c-0.47,1.55-1.86,2.42-2.42,3.92c-0.4,1.05-0.47,2.22-0.23,3.31
		c0.47,2.18,2.34,4.39,4.69,3.74c1.89-0.52,3.52-1.2,5.51-1.34c2.27-0.15,4.44,0.31,6.65,0.77c1.79,0.37,3.62,0.7,5.44,0.4
		c1.85-0.3,3.37-1.31,4.96-2.27c3.9-2.36,4.99-3.6,9.09-1.7c6.17,2.24,8.71,5.22,8.36,13.17c-0.1,2.35-0.7,5.59,0.55,7.76
		c0.27,0.48,0.73,0.88,1.12,0.59c0.05-0.01,0.1-0.04,0.14-0.08c2.3-1.96,2.6-4.11,3.27-6.93c0.4-1.65,1.6-2.69,2.17-4.23
		C603.08,96.03,603.04,94.93,602.86,93.83z"/>
	<path class="st4" d="M556.78,87.34c-1.11-0.8-3.16-0.48-4.65-0.24c-0.07-0.01-0.14-0.01-0.22,0.03c-0.09,0.02-0.19,0.03-0.28,0.05
		c-0.05,0.01-0.11,0.02-0.16,0.03c-0.06-0.16-0.1-0.32-0.17-0.47c-0.17-0.44-0.89-0.25-0.72,0.2c1.54,3.96,1.18,8.18,1.58,12.34
		c0.22,2.26,0.46,6.08,3.09,6.85c0.2,0.06,0.4-0.07,0.46-0.26c1.55-4.87-0.93-10.13,0.73-15.03
		C556.81,89.74,558.08,88.27,556.78,87.34z"/>
	<path class="st3" d="M530.53,208.32c-0.19,1.94,0.77,4.28,1.52,6.2c-0.73,0.1-0.8,1.33,0.06,1.47c9.04,1.51,19.22,7.25,28.02,9.85
		c0.37,0.11-0.43-3.71-0.29-4.12c0.75-2.29,1.46-4.58,2.14-6.89c0.1-0.35-0.01-0.86-0.42-0.97c-5.33-1.36-10.68-2.66-16.04-3.88
		c-4.05-0.92-9.39-1.78-14.35-2.32C530.83,207.63,530.56,207.97,530.53,208.32z"/>
	<path class="st2" d="M563.55,211.7c0.18-0.58,0.35-1.16,0.54-1.73c0.45-1.42-0.99-2.51-2.2-2.32c0.27-1.37-0.86-2.26-1.95-2.24
		c-0.49-1.23-2.25-1.82-3.15-0.62c-0.48-0.96-1.84-1.24-2.77-0.57c0.04-0.14,0.08-0.27,0.11-0.41c0.65-2.33-2.84-3.25-3.6-0.99
		c-0.23,0.69-0.46,1.38-0.69,2.07c-0.83-0.91-2.65-0.84-3.25,0.68c-2.95,7.5-4.97,15.24-6.06,23.23c-0.18,1.33,0.79,2.73,2.29,2.29
		c0.01,0,0.02-0.01,0.03-0.01c0.27,0.9,1.29,1.42,2.3,1.27c1.31-0.2,2.36-1.02,3.23-2.13c0.69,0.51,1.65,0.61,2.33-0.19
		c0.47-0.55,0.89-1.13,1.28-1.71c0.51,0.48,1.3,0.66,2.06,0.37c0.29,0.7,1.09,1.02,1.87,0.94c0.18,0.5,0.53,0.91,1.04,1.1
		c-0.15,0.98-0.3,1.97-0.43,2.96c-0.31,2.37,3.42,2.35,3.73,0c0.28-2.12,0.63-4.23,1.04-6.32c0.08-0.25,0.16-0.5,0.24-0.76
		c1.25-4.19,2.31-8.44,3.33-12.69C565.15,212.75,564.43,211.93,563.55,211.7z"/>
	<path class="st1" d="M619.01,211.27c0.19,0.44,0.84,0.06,0.64-0.38c-4.3-9.78-9.91-19.89-10.98-30.68
		c-0.88-8.88,2.17-17.67,9.51-22.48c-0.2-0.16-0.39-0.33-0.59-0.5c-7.05,4.72-10.3,13.09-9.76,21.73
		C608.54,190.33,614.51,201.03,619.01,211.27z"/>
	<path class="st1" d="M536.04,160.32c-1.67-2.02-3.8-3.52-6.14-4.6c-0.24,0.16-0.47,0.34-0.71,0.5c2.58,1.13,4.9,2.76,6.64,5.05
		c3.01,3.95,3.79,9.15,3.22,13.98c-0.63,5.31-2.96,10.27-5.45,14.94c-2.64,4.95-5.42,9.82-8.14,14.72c-0.23,0.42,0.41,0.8,0.64,0.38
		c3.04-5.48,6.21-10.91,9.06-16.49c2.44-4.77,4.51-9.88,4.77-15.29C540.17,168.85,539.07,163.98,536.04,160.32z"/>
	<path class="st3" d="M506.01,203.83c-0.37,2.02,4.02,1.45,5.08,1.53c2.84,0.22,5.41,0.55,8.23,0.83c-0.1,0.31-0.66,0.77-0.75,1.07
		c-3.6-0.35-7.46-0.24-10.66,0.74c-0.43,0.13-0.41,0.65-0.15,0.92c1.62,1.73,5.84,1.31,8.02,1.44c2.54,0.15,12.49,5.43,14.13,5.91
		c3.4,0.98,4.25-0.72,5.19-1.16c1.59-0.75,2.73-2.68,4.2-3.72c0.23-0.16,0.26-0.39,0.19-0.59c0.08-0.19,0.05-0.42-0.14-0.59
		c-2.83-2.48-5.63-5-8.39-7.56c-2.03-1.89-3.93-4.27-6.54-5.35c-3.01-1.24-6.51-1.8-9.73-2.14c-1.64-0.17-4.27-0.9-5.57,0.48
		c-0.26,0.27-0.09,0.67,0.19,0.84c2.11,1.2,5.05,1.42,7.41,1.98c1.98,0.47,3.96,0.94,5.95,1.4c-0.01,0.01-0.68,0.75-0.69,0.76
		c-3.36-0.67-7.21-1.31-9.89-1.21c-1.53,0.06-5.29,0.05-5.64,1.93c-0.38,2.08,3.36,0.88,4.45,0.83c3.48-0.15,6.49,0.63,9.75,1.28
		c-0.28,0.53,0.07-0.69-0.18-0.15c-2.9-0.49-5.4-1.26-8.33-1.3C510.98,202,506.36,201.93,506.01,203.83z"/>
	<path class="st3" d="M621.82,226.66c-2.8-0.87-5.73-1.32-8.64-1.76c-0.07-0.59-0.15-1.19-0.25-1.78c3.3,0.39,6.4,0.59,9.67,1.81
		c1.03,0.39,4.33,1.69,4.49,0.59c0.28-1.89-3.32-3.06-4.75-3.59c-2.52-0.93-6.37-1.52-9.78-1.93c0-0.01-0.42-0.92-0.42-0.94
		c2.03,0.17,4.06,0.34,6.09,0.51c2.41,0.2,5.28,0.91,7.66,0.42c0.32-0.07,0.6-0.4,0.44-0.74c-0.81-1.72-3.53-1.85-5.14-2.19
		c-3.17-0.68-6.66-1.23-9.91-0.99c-2.36,0.17-4.86,0.55-6.98,1.62c0.6-0.79,1.4-0.93,2.18-1.57c0.68-0.56,1.56-0.8,2.28-1.3
		c0.57-0.4,1.36-1.05,1.08-1.82c-0.36-1.01-1.54-0.67-2.28-0.42c-2.05,0.69-3.98,1.71-5.89,2.71c-1.57,0.83-2.87,1.65-3.95,3.09
		c-1.33,1.78-2.35,3.98-4.71,4.55c-0.09,0.02-0.15,0.07-0.2,0.12c-7.71,1.47-16.58,1.6-23.73,3.07c-0.38,0.08,2.13,3.07,2.2,3.5
		c0.41,2.37,0.87,4.73,1.36,7.09c0.07,0.36,0.41,0.76,0.83,0.65c5.34-1.31,10.67-2.68,15.98-4.13c2.64-0.72,5.76-1.73,8.91-2.87
		c0.07,0.01,0.14,0.01,0.21,0.02c1.71,0.17,2.41,2.47,9.25,1.71c2.49,0.35,4.79,0.01,7.25,0.66c2.12,0.56,5.99,2.26,8.07,1.12
		c0.32-0.18,0.51-0.66,0.14-0.92c-2.74-1.93-6.37-3.23-9.9-4.02c0.01-0.32,0.02-0.64,0.02-0.97c2.77,0.6,5.31,1.09,8.08,1.77
		c1.04,0.25,5.03,2.17,5.31,0.13C627.02,227.97,622.93,227,621.82,226.66z"/>
	<path class="st2" d="M586.29,244.74c-1.27-9.74-3.17-19.34-5.66-28.83c0-0.01,0-0.01,0-0.02c0,0,0,0,0,0
		c-0.04-0.16-0.08-0.31-0.12-0.47c-0.37-1.39-1.9-1.41-2.83-0.69c-0.06-0.19-0.11-0.38-0.17-0.57c-0.67-2.12-3.69-1.06-3.58,0.94
		c0.01,0.21,0.03,0.41,0.04,0.62c-1.04-0.68-2.77-0.04-2.93,1.31c-0.95,0.12-1.81,0.86-1.61,2.03l0.39,2.26
		c-0.69-0.07-1.4,0.02-2.05,0.32c-2.21,1.01-3.4,3.51-2.46,5.83c0.2,0.5,0.37,1.01,0.55,1.51c0.04,0.1,0.06,0.17,0.08,0.22
		c0.01,0.06,0.02,0.12,0.04,0.22c0.19,0.92,0.34,1.85,0.41,2.79c0.18,2.19,2.39,4.03,4.56,3.92c0.46,2.89,0.95,5.78,1.49,8.66
		c0.44,2.35,4.14,1.9,3.7-0.47c-0.29-1.59-0.57-3.18-0.85-4.77c0.05-0.02,0.09-0.03,0.14-0.05c0.34,0.34,0.79,0.49,1.26,0.5
		c0.15,0.87,0.29,1.75,0.45,2.62c0.25,1.43,1.96,1.95,2.97,1.3c0.61,0.57,1.61,0.67,2.34,0.27c0.05,0.34,0.1,0.68,0.15,1.02
		C582.9,247.58,586.6,247.12,586.29,244.74z"/>
	<path class="st1" d="M584.01,235.39c-2.15,0.28-4.55,0.63-6.27,2.09c-2.21,1.88-1.89,5.12-3.92,7.16
		c-4.68,4.69-12.22,2.4-18.07,3.25c-5.98,0.87-11.48,3.63-17.42,4.64c-6.49,1.11-13.1-0.99-19.52,0.69
		c-0.46,0.12-0.33,0.86,0.13,0.73c6.41-1.68,13.04,0.42,19.52-0.69c5.94-1.02,11.45-3.77,17.42-4.64c5.55-0.8,11.74,0.97,16.8-2.16
		c2.36-1.46,3.06-3.32,3.95-5.81c1.22-3.41,4.22-4.11,7.5-4.53C584.62,236.06,584.48,235.33,584.01,235.39z"/>
	<path class="st1" d="M579.95,222.58c-3.02,0.75-5.88-2.28-8.7-3.08c-2.71-0.76-5.57-0.69-8.35-0.47
		c-6.87,0.53-13.68,1.09-20.58,1.07c-0.48,0-0.55,0.74-0.07,0.74c6.74,0.02,13.41-0.45,20.11-1.02c3.48-0.3,7.18-0.44,10.43,1.04
		c2.37,1.08,4.48,3.15,7.28,2.46C580.54,223.2,580.41,222.46,579.95,222.58z"/>
	<path class="st2" d="M561.1,339.13c-1.73-8.56-3.92-17-6.57-25.33c-0.29-0.91-1.73-0.52-1.44,0.4c2.65,8.32,4.84,16.77,6.57,25.33
		C559.85,340.47,561.29,340.07,561.1,339.13z"/>
	<path class="st2" d="M533.71,415.46c-3.31-5.21-6.18-10.64-8.6-16.32c-0.38-0.88-1.66-0.12-1.29,0.75
		c2.42,5.68,5.29,11.11,8.6,16.32C532.94,417.02,534.23,416.27,533.71,415.46z"/>
	<path class="st2" d="M537.07,405.1c-2.94-5.43-5.52-11.02-7.73-16.78c-0.34-0.89-1.78-0.5-1.44,0.4c2.26,5.89,4.88,11.6,7.88,17.14
		C536.24,406.69,537.53,405.94,537.07,405.1z"/>
	<path class="st0" d="M436.84,64.87c-0.03-2.88-2.32-5.18-5.11-5.15L233.37,59c-2.79,0.03-5.02,2.39-4.99,5.26l0.1,10.24h208.46
		L436.84,64.87z"/>
	<path class="st0" d="M232.07,459.72c0.03,2.88,2.32,5.18,5.11,5.15l198.36,0.72c2.79-0.03,5.02-2.39,4.99-5.26l-0.24-25.6
		l-208.46-0.75L232.07,459.72z"/>
	<path class="st7" d="M338.6,454.6h-8.88c-0.89,0-1.63-0.7-1.67-1.59l-0.36-6.9c-0.02-0.46,0.14-0.9,0.46-1.24
		c0.32-0.34,0.75-0.52,1.22-0.52h8.88c0.89,0,1.63,0.7,1.67,1.59l0.36,6.9c0.02,0.46-0.14,0.9-0.46,1.24
		C339.49,454.42,339.06,454.6,338.6,454.6z M329.35,445.1c-0.26,0-0.5,0.1-0.67,0.29c-0.18,0.19-0.27,0.43-0.25,0.69l0.36,6.9
		c0.03,0.49,0.43,0.88,0.93,0.88h8.88c0.26,0,0.5-0.1,0.67-0.29c0.18-0.19,0.27-0.43,0.25-0.69l-0.36-6.9
		c-0.03-0.49-0.43-0.88-0.93-0.88H329.35z"/>
	<path class="st7" d="M406.34,454.28c-0.08,0-0.16-0.03-0.23-0.08l-6.41-5l5.9-5.35c0.15-0.14,0.39-0.13,0.53,0.03
		c0.14,0.15,0.13,0.39-0.03,0.53l-5.24,4.76l5.71,4.46c0.16,0.13,0.19,0.36,0.06,0.52C406.56,454.23,406.45,454.28,406.34,454.28z"
		/>
	<path class="st7" d="M268.33,444.61h10.81c0.21,0,0.37-0.17,0.37-0.37c0-0.21-0.17-0.37-0.37-0.37h-10.81
		c-0.21,0-0.37,0.17-0.37,0.37C267.96,444.45,268.13,444.61,268.33,444.61z M279.22,448.69c0.21,0,0.37-0.17,0.37-0.37
		s-0.17-0.37-0.37-0.37h-10.81c-0.21,0-0.37,0.17-0.37,0.37s0.17,0.37,0.37,0.37H279.22z M279.52,452.1h-10.81
		c-0.21,0-0.37,0.17-0.37,0.37c0,0.21,0.17,0.37,0.37,0.37h10.81c0.21,0,0.37-0.17,0.37-0.37
		C279.89,452.27,279.73,452.1,279.52,452.1z"/>
</g>
</svg>
