<?xml version="1.0" encoding="utf-8"?>
<!-- Generator: Adobe Illustrator 24.1.3, SVG Export Plug-In . SVG Version: 6.00 Build 0)  -->
<svg version="1.1" id="레이어_1" xmlns="http://www.w3.org/2000/svg" xmlns:xlink="http://www.w3.org/1999/xlink" x="0px"
	 y="0px" viewBox="0 0 841.89 595.28" style="enable-background:new 0 0 841.89 595.28;" xml:space="preserve">
<style type="text/css">
	.st0{fill:#FFFFFF;}
	.st1{fill:#EE9481;}
	.st2{fill:#F3E3D4;}
	.st3{fill:#1F2043;}
	.st4{fill:#434884;}
	.st5{fill:#994C4B;}
	.st6{fill:#D2715C;}
	.st7{fill:#787988;}
	.st8{fill:#76A7D0;}
	.st9{fill:#D9C4B5;}
</style>
<line class="st0" x1="1586.51" y1="807.62" x2="-1520.35" y2="807.62"/>
<g>
	<g>
		<path class="st1" d="M522.25,162.13c0.3,0.26,0.89,0.33,1.1-0.12c1.68-3.55,4.09-5.68,7.56-7.39c0.92-0.45,1.69-0.88,2.33-1.45
			c0.68-0.38,1.31-0.96,1.88-1.8c1.62-2.36,8.76-12.83,11.09-14.97c1.5-1.38,4.39-3.46,4.64-5.57c0.05-0.38-0.34-0.75-0.72-0.58
			c-1.12,0.5-2.19,1.07-3.23,1.68c1.4-1.22,3.77-3.11,3.58-4.78c-0.02-0.19-0.14-0.36-0.32-0.43c-1.82-0.79-4.85,1.87-6.14,2.88
			c-2.71,2.09-5.21,4.48-7.62,6.91c-0.05-0.02-0.1-0.04-0.14-0.06c2.11-2.46,4.4-4.76,6.58-7.17c1.4-1.54,2.76-3.13,3.96-4.84
			c0.55-0.79,1.3-1.51,0.82-2.45c-0.1-0.19-0.31-0.38-0.55-0.33c-2.62,0.54-4.98,3.34-6.79,5.17c-2.7,2.74-5.3,5.57-7.85,8.45
			c-0.15-0.04-0.3-0.09-0.44-0.13c-0.13-0.04-0.26-0.08-0.4-0.12c1.88-2.72,3.9-5.31,6.06-7.83c1.07-1.25,4.83-4.65,3.53-6.54
			c-0.1-0.14-0.31-0.24-0.48-0.21c-2.71,0.56-5.15,3.99-6.86,5.95c-2.7,3.1-5.08,6.43-7.19,9.95c-0.75,0.93-1.32,2.09-1.82,3.29
			c-0.09-1.27-0.1-2.54,0.01-3.83c0.18-2.19,0.96-4.31,0.97-6.5c0-0.36-0.43-0.54-0.73-0.44c-3.71,1.3-3.43,7.39-3.92,10.44
			c-0.55,3.46-1.44,7.1-0.15,10.28c-0.73,1.27-1.48,2.52-2.28,3.74c-0.52,0.79-1.95,2.16-2.01,3.19
			C516.61,158.55,520.95,160.99,522.25,162.13z"/>
		<circle class="st2" cx="471.79" cy="95.78" r="79.16"/>
		<path class="st0" d="M471.49,174.64c16.9,0,32.55-5.3,45.41-14.32c-2.65-4.74-5.88-9.22-9.52-13.43
			c-9.98-11.55-22.42-21.36-29.82-34.94c-9.58-17.57-6.29-38.44-7.9-57.59c-1.15-13.73-5.3-26.58-13.81-36.5
			c-31.43,6.3-56.13,31.21-62.12,62.74c-0.15,1.94-0.27,3.89-0.36,5.83c-0.29,6.82-0.29,13.65-0.22,20.47
			C398.7,145.22,431.66,174.64,471.49,174.64z"/>
		<g>
			<path class="st3" d="M471.55,176.89c-22.12,0-42.93-8.46-58.59-23.83c-15.71-15.42-24.36-35.93-24.36-57.75
				c0-21.83,8.65-42.34,24.36-57.76c15.66-15.37,36.47-23.83,58.59-23.83c22.12,0,42.93,8.46,58.59,23.83
				c15.71,15.42,24.36,35.93,24.36,57.76c0,21.83-8.65,42.34-24.36,57.75C514.48,168.42,493.67,176.89,471.55,176.89z M471.55,18.36
				c-20.99,0-40.72,8.02-55.56,22.57c-14.81,14.53-22.96,33.84-22.96,54.37c0,20.53,8.15,39.84,22.96,54.37
				c14.83,14.56,34.56,22.57,55.56,22.57c20.99,0,40.72-8.02,55.56-22.57c14.81-14.53,22.96-33.84,22.96-54.37
				c0-20.53-8.15-39.84-22.96-54.37C512.27,26.38,492.54,18.36,471.55,18.36z"/>
		</g>
		<path class="st3" d="M473.59,97.12l-4.16,2.4l-33.48-58c-0.66-1.15-0.27-2.62,0.88-3.28l0,0c1.15-0.66,2.62-0.27,3.28,0.88
			L473.59,97.12z"/>
		<path class="st3" d="M472.5,98.54l-1.12-4.67l65.12-15.6c1.29-0.31,2.58,0.49,2.89,1.77l0,0c0.31,1.29-0.49,2.58-1.77,2.89
			L472.5,98.54z"/>
		<path class="st3" d="M523.23,100.39v-5.03h14.79c1.39,0,2.51,1.13,2.51,2.51l0,0c0,1.39-1.13,2.51-2.51,2.51H523.23z"/>
		<path class="st3" d="M468.57,146.44h4.8v15.73c0,1.33-1.07,2.4-2.4,2.4l0,0c-1.33,0-2.4-1.07-2.4-2.4V146.44z"/>
		<path class="st3" d="M474.55,45.54h-4.8V29.81c0-1.33,1.07-2.4,2.4-2.4l0,0c1.33,0,2.4,1.07,2.4,2.4V45.54z"/>
		<path class="st3" d="M420.18,100.9v-5.03h-14.79c-1.39,0-2.51,1.13-2.51,2.51l0,0c0,1.39,1.13,2.51,2.51,2.51H420.18z"/>
		<ellipse class="st3" cx="470.86" cy="97.4" rx="6.09" ry="6.38"/>
		<path class="st1" d="M429.6,508.31c2.28,0.14,1.47-0.33,3.4,1.12c0.28,0.21,0.5,0.5,0.66,0.83c1.23-0.11,2.47,0.55,2.55,2.14
			c0.63,12.94,3.01,25.74,3.15,38.72c0.02,1.66-1.11,3.01-2.87,2.82c-3.22-0.35-2.23-0.54-5.33-1.43c-0.82-0.24-2.72-5.08-2.81-5.88
			c-0.74-6.53-2.59-28.66-2.71-35.3C425.6,509.61,427.84,508.2,429.6,508.31z"/>
		<path class="st3" d="M427.21,545.2c3.09-0.31,9.87-0.07,13.25-0.02c1.49,0.12,1.98,1.1,1.91,1.6c-0.58,3.85,2.96,3.66,7.64,6.1
			c3.99,2.08,7.84,3.86,14.23,5.86c5.69,1.79,5.12,0.85,5.11,4.52c-0.01,2.63-5.89,2.11-10.66,1.76c-0.75-0.05-1.5-0.1-2.25-0.15
			c-2.25-0.13-4.46-0.62-6.57-1.43c-0.38-0.15-0.77-0.3-1.15-0.45c-3.5-1.38-6.69-1.79-10.45-1.77c-0.18,0-0.41,0.12-0.44,0.32
			c-0.07,0.39-0.09,0.61-0.15,1c-0.1,0.69-0.73,1.19-1.43,1.15c-1.54-0.08-3.08-0.18-4.64-0.29c-2.93-0.21-5.7-0.31-6.13-1.06
			c-0.48-0.83-0.26-0.98-0.22-1.81C425.36,558.27,426.08,545.31,427.21,545.2z"/>
		<path class="st4" d="M448.62,556.14c-0.25,0.44,0.42,0.86,0.67,0.42c0.57-1.02,1.12-2.05,1.64-3.09c0.23-0.45-0.44-0.87-0.67-0.42
			C449.73,554.1,449.18,555.13,448.62,556.14z M444.89,554.32c-0.26,0.44,0.41,0.86,0.67,0.42c0.62-1.05,1.3-2.05,2.06-3.01
			c0.32-0.4-0.36-0.81-0.67-0.42C446.19,552.26,445.51,553.27,444.89,554.32z M440.92,552.69c0.97-0.73,1.99-1.39,3.06-1.98
			c0.44-0.25-0.02-0.89-0.45-0.64c-1.07,0.59-2.09,1.25-3.06,1.98C440.06,552.35,440.51,552.99,440.92,552.69z"/>
		<path class="st4" d="M425.29,560.52c0.05-0.67,0.13-1.41,0.25-2.19c3.56,0.89,7.19,0.91,10.84,0.99c3.6,0.08,7.07,0.48,10.58,1.3
			c7.44,1.75,14.74,2.88,22.38,2.73c-0.02,0.34-0.04,0.74-0.05,1.22c-0.09,2.63-5.95,1.93-10.71,1.44c-0.75-0.08-1.5-0.15-2.24-0.21
			c-2.24-0.2-4.44-0.76-6.52-1.63c-0.38-0.16-0.76-0.32-1.14-0.48c-3.46-1.48-6.64-1.99-10.39-2.08c-0.18,0-0.41,0.11-0.45,0.3
			c-0.08,0.39-0.11,0.6-0.18,0.99c-0.12,0.69-0.76,1.17-1.46,1.11c-1.54-0.13-3.08-0.27-4.63-0.43c-2.92-0.3-5.69-0.48-6.1-1.24
			C425,561.49,425.23,561.35,425.29,560.52z"/>
		<path class="st1" d="M338.83,501.85c2.27,0.18,1.47-0.31,3.38,1.17c0.28,0.22,0.49,0.51,0.65,0.84c1.23-0.09,2.46,0.59,2.51,2.18
			c0.42,12.95,2.59,25.79,2.52,38.76c-0.01,1.66-1.16,2.99-2.92,2.77c-3.21-0.4-2.22-0.57-5.31-1.52c-0.82-0.25-2.63-5.12-2.71-5.93
			c-0.63-6.54-2.12-28.7-2.13-35.34C334.81,503.08,337.07,501.71,338.83,501.85z"/>
		<path class="st3" d="M357.12,562.81c-1.62-4.15-6.62-6.55-6.66-11.34c0-0.08-0.03-0.14-0.06-0.2c0.06-2.16,0.07-4.34-0.17-6.49
			c-0.12-1.08-0.37-2.24-1.42-2.78c-0.87-0.45-2.07-0.3-3-0.33c-1.31-0.04-6.15-0.13-7.46-0.14c-1.11,0-1.58,0.51-1.6,0.79
			c-0.3,5.95-0.29,11.9,0.02,17.86c0.04,1.31,0.26,1.9,1.16,2.52c1.19,0.82,1.67,1.67,2.3,2.91c0.29,0.57,0.58,0.98,1.18,1.26
			c1.58,0.76,3.94,0.67,5.64,0.82c2.58,0.23,5.17,0.33,7.77,0.31C357.84,568.68,357.87,564.73,357.12,562.81z"/>
		<path class="st4" d="M343.17,554.03c-0.51-0.02-0.57,0.77-0.07,0.79c1.17,0.04,3.91,0.09,5.07,0.08c0.5,0,0.57-0.79,0.07-0.79
			C347.08,554.11,344.34,554.06,343.17,554.03z M342.36,545.14c-0.51,0-0.53,0.79-0.02,0.79c1.22-0.01,4.01,0.01,5.21,0.18
			c0.5,0.07,0.52-0.72,0.02-0.79C346.37,545.15,343.58,545.13,342.36,545.14z M342.77,549.43c-0.51,0-0.53,0.79-0.02,0.79
			c1.22-0.01,4.01,0.01,5.21,0.18c0.5,0.07,0.52-0.72,0.02-0.79C346.78,549.45,343.99,549.43,342.77,549.43z"/>
		<path class="st4" d="M357.37,563.67c-0.02,0-0.03,0-0.05,0c-5.13,0.46-9.37,1.09-13.69-0.49c-2.53-0.93-2.93-2.49-4.88-3.98
			c-0.65-0.5-1.34-0.89-2.06-1.24c0.03,0.75,0.05,1.5,0.09,2.25c0.04,1.31,0.26,1.9,1.16,2.52c1.19,0.82,1.67,1.67,2.3,2.91
			c0.29,0.57,0.58,0.98,1.18,1.26c1.58,0.76,3.94,0.67,5.64,0.82c2.58,0.23,5.17,0.33,7.77,0.31
			C357.45,568.61,357.81,565.7,357.37,563.67z"/>
		<path class="st4" d="M449.94,428.81c0.63-35.19-7.38-69.6-15.97-103.49c-4.95-19.54-10.06-39.05-13.86-58.85
			c-0.06-0.34-0.19-0.61-0.36-0.82c-0.52-2.64-1.1-5.26-1.83-7.81c-1.14-4-3.24-6.48-7.46-7.23c-5.62-1-11.63-0.72-17.33-1
			c-6.79-0.33-13.58-0.66-20.37-0.99c-0.38-0.02-0.7,0.08-0.94,0.25c-14.17-1.15-28.38-1.7-42.6-1.64c0.08-1.96-3.02-2-3.15-0.01
			c-2.95,44.02-5.91,88.12-5.01,132.27c0.89,43.26,3.67,86.54,5.67,129.76c0.29,6.18,0.57,12.36,0.86,18.55
			c0.14,3.08,0.14,6.21,0.43,9.27c0.13,1.36,0.2,2.73,1.17,3.81c2.57,2.86,9.66,2.16,13.05,2.28c6,0.21,11.99-0.07,17.96-0.74
			c0.78-0.09,1.68-0.6,1.61-1.53c-1.43-18.67,3.02-36.88,6.38-55.11c1.58-8.59,2.89-17.24,3.3-25.97
			c0.45-9.68,0.05-19.37,0.06-29.05c0.02-24.57,3.56-51.81,5.63-76.46c4.54,9.79,9.09,19.57,13.63,29.36
			c5.69,12.24,12.4,24.5,16.19,37.5c1.83,6.27,2.73,12.74,1.96,19.26c-0.73,6.21-2.72,12.26-2.82,18.54
			c-0.08,5.33,1.55,9.83,4.42,14.25c1.42,2.19,3.07,4.43,3.65,7.02c0.84,3.74-0.9,7.72-1.65,11.35c-3.12,15.03-1.8,30.44-0.43,45.58
			c0.09,1.02,0.77,2.04,1.93,2.01c9.24-0.24,18.43,0.21,27.6,1.35c0.99,0.12,2.08-0.95,2.01-1.93
			C440.96,501.79,449.28,465.5,449.94,428.81z"/>
		<path class="st5" d="M393.4,43.01c-0.74-0.7-1.83,0.44-1.09,1.14c0.78,0.73,1.51,1.51,2.19,2.32c0.06,0.4,0.11,0.8,0.16,1.2
			c-0.42,0.08-0.76,0.52-0.63,0.99c0.54,1.86,0.89,3.7,1.09,5.61c-0.86,2-2.26,4.01-2.62,5.2c-0.81,2.67-0.87,5.51-0.8,8.27
			c0.19,7.31,0.3,14.41-0.25,21.72c-0.05,0.67,0.94,1.04,1.36,0.53c2.81-3.44,4.39-7.47,6-11.57c1.73-4.41,3.33-8.95,3.57-13.72
			C402.8,56.5,399.34,48.6,393.4,43.01z"/>
		<path class="st5" d="M347.13,53.69c-0.06-0.11-0.13-0.19-0.22-0.25c0.99-1.61,2.28-3.13,3.94-4.54c0.77-0.66-0.37-1.74-1.14-1.09
			c-6.49,5.49-7.81,12.75-6.81,20.85c0.97,7.84,2.32,15.74,7.64,21.9c0.46,0.53,1.36,0.06,1.33-0.58
			C351.47,78.13,353.03,64.41,347.13,53.69z"/>
		<path class="st1" d="M396.31,68.71c-0.06-4.94-2.39-6.96-6.4-9.02c-21.58-11.15-40.56-0.23-40.63,2.81
			c-0.31,12.34-1.53,25.35,4.41,36.39c4.44,8.26,13.68,17.33,23.19,13.04C386.81,107.45,396.63,96.1,396.31,68.71z"/>
		<path class="st1" d="M386.1,125.23l3.24-41.13c-0.01-1.57-5.51,3.88-6.83,4.84c-6.69,4.85-12.04,6.35-20.05,7.21
			c-0.24,0.03-0.46,0.09-0.66,0.18c-1.12,0-2.28,0.75-2.27,2.19c0.06,9.22-0.72,26.86,1.38,35.92c0.54,2.35,1.07-1.19,3.54-0.14
			c1.67,0.71,4.74,0.39,6.57,0.54c2.33,0.19,2.07-0.06,4.4,0.13c2.55,0.21,7.6,1.72,9.76-0.34
			C387.27,132.63,386.12,127.65,386.1,125.23z"/>
		<path class="st3" d="M362.67,82.86c0.05,1.46-0.61,2.68-1.48,2.7c-0.86,0.03-1.6-1.14-1.65-2.6c-0.05-1.47,0.61-2.68,1.48-2.7
			C361.88,80.23,362.62,81.4,362.67,82.86z"/>
		<path class="st3" d="M383.66,82.25c0.01,1.47-0.68,2.66-1.55,2.67c-0.86,0.01-1.57-1.18-1.59-2.64c-0.01-1.47,0.68-2.66,1.55-2.67
			C382.94,79.6,383.65,80.78,383.66,82.25z"/>
		<path class="st5" d="M387.45,75c-0.04-0.07-0.81-0.39-0.84-0.4c-2.4-0.84-5.67-1.47-7.94-0.27c-1.18,0.62-2.32,2.11-0.62,2.79
			c1.44,0.58,3.5,0.46,5.02,0.47c1.23,0.01,2.74,0.2,3.89-0.37C388.35,76.54,388.39,75.72,387.45,75z"/>
		<path class="st5" d="M355.44,76.83c1.11,0.65,2.62,0.57,3.85,0.65c1.51,0.1,3.56,0.37,5.04-0.1c1.74-0.56,0.71-2.12-0.42-2.83
			c-2.18-1.36-5.48-0.98-7.94-0.31c-0.03,0-0.82,0.27-0.87,0.33C354.12,75.21,354.1,76.03,355.44,76.83z"/>
		<path class="st0" d="M379.37,97.75c-7.53,2.84-14.34-0.25-14.74-0.12c-0.17,0.06-0.34,0.19-0.3,0.37
			c0.71,3.27,4.46,5.05,7.36,5.16c3.02,0.12,7.21-1.74,8.15-4.91C379.92,97.99,379.68,97.64,379.37,97.75z"/>
		<path class="st6" d="M373.61,94.31c-2.08,0.55-4.02-0.09-4.28-2.41c-0.12-1.08,0.21-2.48,0.31-3.56c0.22-2.33,0.47-4.65,0.74-6.97
			c0.06-0.5-0.73-0.53-0.79-0.03c-0.23,1.95-0.45,3.91-0.64,5.87c-0.17,1.72-0.65,3.75-0.41,5.47c0.34,2.45,3.27,2.93,5.25,2.4
			C374.28,94.95,374.1,94.18,373.61,94.31z"/>
		<path class="st5" d="M387.29,45.16c-2.97-0.27-4.94,0.4-7.94-0.63c-1.72-0.59-3.08-1.27-4.97-1.31c-4.85-0.09-9.84,2.35-14.3,3.86
			c-0.18,0.06-0.3,0.17-0.39,0.3c-5.35,0.07-10.26,2.84-12.33,7.89c-1.53,3.74-0.78,8.02-1.19,11.92c-0.25,2.4,0.15,3.97,2.41,5.3
			c0.41,0.24,0.8,0.09,1.02-0.2c2.61,0.47,5.62,0.7,6.92-1.89c1.75-3.47-0.66-12.85,5.26-13.62c0,0.25,0.11,0.49,0.39,0.66
			c2.78,1.65,3.29,3.76,4.08,6.5c0.29,1,0.59,1.91,1.39,2.64c0.91,0.82,1.7,0.83,2.87,1.08c1.82,0.4,3.46,1.21,5.17,1.74
			c1.45,0.46,2.37,0.5,3.94,0.35c3.24-0.3,5.16-0.1,8.16,0.96c2.37,0.84,5.2,1.62,7.45,0.07c2.63-1.8,2.99-5.52,2.45-9.19
			C399.3,54.41,395.98,45.97,387.29,45.16z"/>
		<path class="st5" d="M394.14,44.12c-2.44-3.56-5.66-4.07-9.13-6.18c-3.26-1.98-5.75-3.54-9.74-2.7c-2,0.42-3.81,1.34-5.48,2.5
			c-1.97,1.37-3.59,3.63-5.87,4.42c-1.3-0.88-2.68-1.64-4.4-1.83c-3.71-0.41-6.12,1.22-8.29,4.05c-4.11,5.37-7.44,12.87-2.03,18.58
			c0.28,0.29,0.61,0.28,0.87,0.13c0.14,0.01,0.29-0.01,0.45-0.11c4.72-2.91,9.5-6.63,14.75-8.51c5.61-2.01,11.76-1.64,17.15,0.82
			c3.68,1.68,13.77,8.06,14.71,0.26C397.57,51.81,396.26,47.21,394.14,44.12z"/>
		<path class="st1" d="M398.59,80.59c-1.77-2.03-5.27-0.51-6.11,1.64c-0.18,0.47,0.1,0.8,0.48,0.9c-0.42,0.77-0.71,1.7-0.85,2.64
			c0,0,0,0,0,0c-0.41,1.1-0.62,2.19-0.51,3c-0.03,0.4-0.05,0.8-0.05,1.2c-0.21,0.44-0.32,0.89-0.18,1.34
			c0.92,2.89,4.92-0.64,5.71-1.81C398.48,87.41,400.59,82.88,398.59,80.59z"/>
		<path class="st1" d="M345.37,80.87c1.69-2.09,5.24-0.71,6.17,1.41c0.2,0.46-0.07,0.8-0.45,0.91c0.44,0.76,0.77,1.67,0.94,2.61
			c0,0,0,0,0,0c0.45,1.08,0.7,2.17,0.63,2.98c0.05,0.4,0.08,0.8,0.1,1.2c0.23,0.43,0.36,0.88,0.23,1.34
			c-0.81,2.92-4.94-0.46-5.77-1.6C345.73,87.68,343.46,83.23,345.37,80.87z"/>
		<path class="st5" d="M399.04,74.22c-0.12-1.46-0.32-3.59-0.99-4.9c-1.09-2.14-4.61-0.53-5.56,1.13c-0.15-0.07-0.3-0.15-0.47-0.21
			c-0.48-0.18-0.67,0.59-0.2,0.76c1.07,0.4,1.54,1.78,1.56,2.77c0.02,0.72-0.09,1.49-0.18,2.2c-0.1,0.84-0.24,1.68-0.32,2.53
			c-0.12,1.2-0.57,3.78,0.47,4.75c1.62,1.52,4.25-3.29,4.76-4.38C398.81,77.41,399.17,75.83,399.04,74.22z"/>
		<path class="st5" d="M346.57,76.81c0.55,1.08,3.36,5.78,4.92,4.2c1-1.01,0.45-3.57,0.29-4.76c-0.12-0.84-0.28-1.68-0.42-2.52
			c-0.11-0.7-0.25-1.46-0.26-2.19c-0.01-0.98,0.41-2.39,1.46-2.82c0.46-0.19,0.25-0.95-0.22-0.76c-0.17,0.07-0.32,0.15-0.46,0.23
			c-1.01-1.62-4.6-3.09-5.6-0.92c-0.61,1.33-0.74,3.47-0.8,4.93C345.42,73.81,345.84,75.38,346.57,76.81z"/>
		<path class="st5" d="M395.96,79.7c-0.06-0.06-0.14-0.11-0.25-0.12c-2.43-0.22-4.77,5.87-5.42,7.65c-1.19,3.27-1.7,6.73-2.86,10.01
			c-1.18,3.34-3.05,6.53-6.34,8.15c-3.79,1.86-8.52,2.09-12.57,1.07c-7.93-1.99-12.28-8.57-14.62-15.96
			c-0.56-1.77-0.94-3.56-1.35-5.37c-0.33-1.44-1-5.69-1.84-6.95c-0.79-1.18-2.69-1.83-3.37-0.16c-0.03,0.06-0.03,0.13-0.03,0.18
			c-0.2,0.08-0.35,0.31-0.21,0.56c1.76,2.99,2.17,9.26,2.76,12.61c0.61,3.46,1.4,6.9,2.35,10.28c0.76,2.68,1.51,5.45,3.26,7.68
			c1.6,2.03,3.79,3.51,6.17,4.48c5.8,2.37,11.62,2.88,17.61,1.82c2.66-0.47,5.94-2.38,7.99-4.29c1.8-1.68,2.82-4.02,3.58-6.32
			c2.39-7.27,4.94-17.52,5.81-25.1C396.67,79.55,396.2,79.48,395.96,79.7z"/>
		<path class="st3" d="M388.35,314.46c-3.47,9.26-6.93,18.52-10.4,27.79c-0.18,0.48,0.58,0.7,0.76,0.22
			c3.47-9.26,6.93-18.52,10.4-27.79C389.28,314.21,388.53,313.99,388.35,314.46z"/>
		<path class="st3" d="M343.88,259.3c-0.52,4.58-2.01,8.97-4.44,12.89c-2.27,3.68-6.04,8.63-10.53,9.5c-0.5,0.1-0.3,0.86,0.19,0.76
			c4.56-0.88,8.29-5.63,10.68-9.33c2.69-4.17,4.32-8.89,4.88-13.81C344.72,258.81,343.94,258.8,343.88,259.3z"/>
		<path class="st3" d="M417.87,279.9c-9.19-1.26-12.3-11.12-12.98-19.05c-0.04-0.5-0.83-0.52-0.79-0.02
			c0.73,8.42,4.09,18.53,13.75,19.86C418.36,280.75,418.37,279.96,417.87,279.9z"/>
		<path class="st3" d="M423.21,404.15c-3.3,7.82-6.59,15.65-9.89,23.47c-0.2,0.47,0.56,0.69,0.76,0.22
			c3.3-7.82,6.59-15.65,9.89-23.47C424.16,403.9,423.41,403.68,423.21,404.15z"/>
		<path class="st3" d="M418.19,428.17c-1.52,3.91-3.05,7.82-4.57,11.74c-0.18,0.47,0.57,0.69,0.76,0.22
			c1.52-3.91,3.05-7.82,4.57-11.74C419.13,427.92,418.37,427.7,418.19,428.17z"/>
		<path class="st2" d="M526.57,158.12c-1.07-0.57-2.15-1.14-3.22-1.71c-0.23,0.14-0.45,0.28-0.69,0.41
			c-6.75,3.4-12.46,8.11-19.8,10.38c-0.13,0.04-0.25,0.06-0.38,0.09c-7.11,10.35-20.68,23.21-44.83,19.13
			c-14.42-2.44-24.58-35.54-37.59-49.36c-5.5-5.84-12.95-9.54-22.48-10.43c-2.47-0.51-4.98-0.82-7.52-0.98
			c0.06-2.12-1.21-5.04-1.68-6.23c-1.21-3.05-3.11-2.25-5.9-1.19c-3.17,1.21-6.08,2.87-8.76,4.9c-3.34-3.12-9.03-4.69-13.4-5.09
			c-4.39-0.4-4.52,5.77-5.32,9.07c-0.16,0.03-0.32,0.06-0.48,0.08c0.3-0.22,0.38-0.34,0.15-0.34c-6.05,0.01-11.4,1.31-16.2,3.57
			c-1.98,9.98-4.3,19.9-6.85,29.86c-4.23,16.52-11.74,10.69-12.67,15.49c0.31,5.73,1.05,66.82,1.1,69.1
			c0.09,4.03-1.07,10.62,1.36,14.13c2.49,3.59,8.77,4.84,12.75,5.45c12.55,1.94,34.94-1.45,47.51-1.77
			c6.65-0.17,13.25,0.23,19.86,0.89c4.7,0.46,9.83,0.84,14.26-1.15c9.96-4.46,9.16-17.09,9.43-26.2c0.21-7.16,0.43-14.31,0.64-21.47
			c7.64,5.82,16.53,8.69,26.38,9.32c56.23,3.58,69.18-47.02,75.06-64.18C527.55,159.24,527.15,158.43,526.57,158.12z"/>
		<path class="st3" d="M269.85,196.85c0.99,11.54,7.76,57.04,7.97,60.17c0.11,1.7-0.28,3.92,0.89,5.29
			c0.25,0.29,78.35,2.83,84.98,2.65c1.68,0.14,2.8-0.2,2.69-1.22c-2.31-21.1-4.56-43.7-6.14-64.53c-0.02-0.32-0.21-0.83-0.4-1.01
			c-0.15-0.34-0.95-0.35-1.42-0.37c-30.58-1.46-56.81-2.06-87.43-2.05C270.44,195.78,269.8,196.24,269.85,196.85z"/>
		<path class="st7" d="M317.32,224.51c-6.57-0.55-7.43,9.67-0.85,10.21C323.04,235.27,323.9,225.05,317.32,224.51z"/>
		<path class="st1" d="M331.68,264.24c-0.07,0-0.12-0.02-0.19-0.02c-0.78,0.35-1.66,0.42-3.01-0.33c-2.38-1.33-5.02-3.77-7.4-5.2
			c0.9-0.32,1.87-0.51,2.86-0.65c1.43-0.21,3.35-0.2,4.62-0.97c1.17-0.71,0.92-1.5-0.35-1.72c-3.13-0.55-6.74-0.35-9.74,0.73
			c-0.55,0.2-2.71,0.99-3.62,1.89c-1.9-1.08-3.85-2.06-5.86-2.95l-0.03-0.02c0,0,0,0,0,0c-0.09-0.04-0.18-0.09-0.28-0.13
			c-0.98-0.43-1.7,0.73-1.41,1.57c-0.02,0-0.04-0.01-0.06-0.01c-0.86-0.17-1.43,0.45-1.48,1.1c-0.35-0.07-0.7-0.14-1.05-0.2
			c-0.73-0.13-1.26,0.3-1.43,0.82c-1.03,0.11-1.72,1.63-0.57,2.16c0.98,0.45,1.95,0.9,2.93,1.36c-0.03-0.01-0.06-0.01-0.09-0.02
			c-1.02-0.37-2.04-0.77-3.03-1.24c-1.36-0.65-2.61,1.36-1.23,2.02c1.01,0.48,2.04,0.89,3.08,1.27c0.04,0.03,0.08,0.05,0.13,0.07
			c0.09,0.04,0.19,0.08,0.28,0.12c0,0,0,0,0,0.01c0.01,0,0.02,0,0.03,0.01c3.94,1.75,17.06,5.87,19.16,6.92
			c2.52,1.25,4.06,1.39,6.59-0.01c1.5-0.84,5.67-5.17,6.46-6.25c0.03-0.04,0.05-0.08,0.07-0.12
			C335.26,264.37,333.47,264.28,331.68,264.24z"/>
		<path class="st2" d="M357,150.55c-0.01-6.99-0.54-13.95-1.46-20.87c1.73-0.69,0.8-3.7-1.33-3.39
			c-12.92,1.88-25.26,6.88-35.83,14.56c-11.11,8.06-19.26,18.7-25.8,30.68c-7.31,13.39-12.74,27.75-17.13,42.34
			c-3.85,12.8-8.64,20.94-2.22,33.81c6.87,13.77,21.82,19.87,35.36,25.08c0.93,0.36,1.97-0.35,2.25-1.22
			c0.99-3.07,3.48-13.82,4.37-15.93c1.27-3.04-0.28-4.15-2.9-6.17c-2.73-2.1-18.51-8.98-6.83-34.04
			c5.55-11.92,12.01-23.54,21.72-29.77c4.88-3.13,10.09-5.69,15.08-8.62c4.15-2.44,8.73-5.12,11.58-9.11
			C357.35,163,357,156.27,357,150.55z"/>
		<path class="st8" d="M356.09,156.22c-5.72-0.14-11.3-1.42-16.91-2.4c-5.57-0.97-11.19-1.69-16.83-2.17
			c-5.11-0.43-10.23-0.64-15.34-0.65c-0.24,0.26-0.47,0.53-0.71,0.79c3.95-0.01,7.9,0.1,11.85,0.34c6.22,0.38,12.41,1.07,18.56,2.06
			c5.47,0.88,10.89,2.18,16.41,2.65c1.28,0.11,2.56,0.16,3.83,0.16c0.01-0.26,0.02-0.52,0.03-0.78
			C356.68,156.22,356.38,156.23,356.09,156.22z M270.09,235.71c0,0.26,0.01,0.52,0.03,0.79c10.41-0.89,20.82-1.71,31.26-2.21
			c-0.03-0.26-0.05-0.53-0.08-0.8C290.88,233.99,280.48,234.81,270.09,235.71z M285.29,186.55c-0.11,0.26-0.23,0.53-0.34,0.79
			c9.11,0.2,18.29,3.06,27.02,5.48c1.93,0.53,3.87,1.03,5.81,1.49c0.18-0.23,0.37-0.45,0.56-0.67c-1.23-0.28-2.45-0.57-3.67-0.9
			C305.18,190.21,295.19,186.85,285.29,186.55z"/>
		<path class="st8" d="M353.06,156.85c11.27,0.95,22.23-2.31,33.26-4.06c11.45-1.83,23.06-2.18,34.62-2.73
			c2.67-0.13,5.35-0.27,8.02-0.45c-0.15-0.26-0.31-0.51-0.46-0.77c-12.87,0.81-25.84,0.94-38.62,2.64
			c-11.26,1.5-22.39,5.03-33.84,4.75c-5.72-0.14-11.3-1.42-16.91-2.4c-1.89-0.33-3.79-0.62-5.69-0.89
			c-0.06,0.25-0.13,0.51-0.19,0.76c1.14,0.16,2.27,0.32,3.4,0.51C342.11,155.09,347.53,156.38,353.06,156.85z"/>
		<path class="st8" d="M381.56,236.02c-6.12,0.29-12.23,0.01-18.32-0.46c0.06,0.26,0.1,0.53,0.12,0.81
			c4.05,0.32,8.11,0.54,12.17,0.56c16.89,0.09,33.38-3.81,49.85-7.17c0.01-0.27,0.02-0.54,0.02-0.8
			C410.88,231.93,396.41,235.33,381.56,236.02z"/>
		<path class="st8" d="M445.22,185.5c-14.75,0.81-29.56,0.49-44.27,2.01c-14.33,1.48-28.37,4.84-42.62,6.87
			c-7.28,1.04-14.63,1.72-21.98,1.57c-5.77-0.12-11.44-0.87-17.04-2.1c0,0.27,0.01,0.54,0.01,0.81c4.15,0.91,8.35,1.59,12.62,1.88
			c7.11,0.49,14.26,0.1,21.33-0.72c14.04-1.63,27.82-4.92,41.83-6.83c14.85-2.02,29.84-1.88,44.78-2.47c5-0.2,9.99-0.48,14.97-0.97
			c-0.44-0.2-0.87-0.42-1.3-0.67C450.77,185.16,448,185.35,445.22,185.5z"/>
		<path class="st8" d="M513.32,179.02c-4.95,0.24-9.84-0.72-14.78-0.61c-2.51,0.05-4.99,0.36-7.43,0.88
			c-0.59,0.43-1.19,0.85-1.81,1.26c3.36-0.91,6.81-1.39,10.32-1.37c5.08,0.04,10.06,0.92,15.15,0.53c1.91-0.15,3.81-0.4,5.7-0.71
			c0.12-0.29,0.24-0.57,0.36-0.86C518.34,178.58,515.85,178.89,513.32,179.02z"/>
		<path class="st3" d="M304.99,262.7c-1.52,0-1.52,2.36,0,2.36C306.52,265.07,306.52,262.7,304.99,262.7z"/>
		<path class="st9" d="M374.91,229.59c-1.76-5.04-2.88-9.99-2.91-15.36c-0.03-5.15,0.56-10.27,0.71-15.41
			c0.28-9.95-0.59-19.87-1.08-29.8c-0.57-11.52-0.59-23.13,2.23-34.39c0.12-0.49-0.64-0.7-0.76-0.21
			c-5.01,19.94-1.1,40.46-1.13,60.68c-0.02,9.93-2.06,20.13,0.62,29.87c1.35,4.9,3.5,9.56,4.64,14.52
			c1.2,5.26,1.39,10.72,0.57,16.05c-0.38,2.48-0.94,4.94-1.56,7.4c0.28-0.02,0.55-0.04,0.82-0.05c0.48-1.91,0.92-3.83,1.26-5.74
			c0.84-4.66,0.99-9.4,0.35-14.09C378.05,238.39,376.46,234.02,374.91,229.59z"/>
		<path class="st9" d="M417.29,195.13c-0.25-1.93-0.52-3.86-0.82-5.79c-0.73-4.67-1.6-9.31-2.61-13.92
			c-0.04-0.17-0.21-0.29-0.38-0.29c-0.38,0-0.76,0.01-1.14,0.01c-0.51,0-0.51,0.79,0,0.79c1.36-0.01,1.33,2.37,1.55,3.45
			c0.33,1.63,0.64,3.26,0.93,4.89c0.56,3.14,1.06,6.29,1.49,9.46c0.22,1.61,0.62,3.38,0.51,5.02c-0.13,2.04-1.49,3.66-3.2,4.66
			c-2.61,1.53-5.93,1.8-8.85,2.36c-3.16,0.6-6.31,1.23-9.47,1.79c-2.36,0.42-4.31,0.31-5.05-2.32c-0.44-1.56-0.75-3.17-1.1-4.76
			c-0.67-3.06-1.28-6.13-1.82-9.21c-0.26-1.48-0.51-2.96-0.74-4.45c-0.24-1.55-0.83-3.43-0.5-4.99c0.51-2.41,2.83-2.35,4.82-2.63
			c1.76-0.25,3.51-0.5,5.27-0.76c3.64-0.52,7.27-1.04,10.91-1.57c0.5-0.07,0.29-0.83-0.21-0.76c-4.01,0.58-8.03,1.15-12.04,1.73
			c-2.01,0.29-4.02,0.54-6.02,0.86c-1.1,0.18-2.2,0.4-2.92,1.33c-1.49,1.94-0.29,5.62,0.04,7.73c0.63,3.96,1.37,7.9,2.2,11.81
			c0.39,1.84,0.8,3.67,1.25,5.49c0.27,1.11,0.55,2.32,1.56,2.99c2.27,1.5,6.34-0.09,8.7-0.54c3.83-0.72,7.81-1.2,11.55-2.29
			c2.44-0.71,4.95-2.1,5.96-4.58C417.91,198.88,417.52,196.96,417.29,195.13z"/>
		<path class="st9" d="M390.1,125.63c0-0.11-0.01-0.24-0.02-0.36c-1.34,2.46-2.71,4.9-4.15,7.3c-0.46,0.77-0.93,2-1.58,2.6
			c-0.85,0.77-1.63-0.24-2.44-0.91c-1.56-1.29-2.87-2.83-4-4.51c-0.28-0.42-0.96-0.02-0.68,0.4c1.29,1.92,2.81,3.64,4.63,5.07
			c0.8,0.63,1.73,1.68,2.73,0.98c0.63-0.44,1.23-1.94,1.63-2.59c0.72-1.19,1.43-2.4,2.13-3.6c0.83-1.44,1.63-2.88,2.42-4.34
			C390.55,125.67,390.33,125.64,390.1,125.63z M354.73,126.83c-0.11,0-0.21,0.01-0.32,0.01c0.07,0.1,0.13,0.21,0.2,0.31
			C354.88,126.95,354.95,126.83,354.73,126.83z M370.39,130.22c-1.56,1.16-3.16,2.26-4.83,3.26c-1.21,0.73-2.67,2-4.2,0.98
			c-0.69-0.46-1.27-1.39-1.8-2.02c-1.56-1.89-3.02-3.86-4.39-5.88c-0.04,0.18-0.08,0.36-0.12,0.53c-0.14,0.02-0.29,0.05-0.43,0.08
			c0.75,1.11,1.53,2.2,2.34,3.27c1.2,1.58,2.47,3.64,4.12,4.8c1.28,0.9,2.36,0.36,3.6-0.34c2.15-1.21,4.2-2.57,6.18-4.05
			C371.27,130.54,370.8,129.91,370.39,130.22z"/>
		<path class="st9" d="M336.99,147.1c0.97,6.25-1.21,12.02-3.59,17.7c-3.52,8.4-7.31,16.69-11.33,24.85
			c0.52-0.49,1.05-0.96,1.59-1.41c4.05-8.29,7.86-16.7,11.33-25.23c2.28-5.59,3.81-11.26,2.55-17.29
			c-0.98-4.67-3.33-8.94-6.73-12.26c-0.25,0.12-0.5,0.25-0.75,0.37C333.74,137.36,336.21,142.02,336.99,147.1z"/>
		<path class="st9" d="M427.97,216.21c-0.15-0.36-0.29-0.71-0.44-1.07c-1.51-3.61-3.16-7.19-4.31-10.94
			c-1.34-4.39-1.8-8.95-2.05-13.51c-0.84-15.19-2.22-30.16-7.38-44.6c-2.27-6.35-5.19-12.44-8.83-18.1
			c-0.37-0.11-0.75-0.21-1.13-0.3c7.45,11.39,11.85,24.48,14.18,37.87c1.34,7.7,1.91,15.45,2.28,23.25
			c0.19,3.93,0.42,7.88,1.2,11.75c0.75,3.73,2.09,7.26,3.56,10.76c0.57,1.36,1.16,2.72,1.73,4.08
			C427.17,215.66,427.57,215.94,427.97,216.21z"/>
		<path class="st4" d="M408.35,174.62c-2.24,0.16-4.46,0.51-6.65,0.99c-8.14,5.93-16.14,15.87-24.84,5.93
			c-4.56-5.21-5.34-13.24-5.44-19.85c-0.11-7.4,1.16-14.72,2.82-21.91c0.02-0.07,0-0.12,0.01-0.19c1.36-1.25,2.73-2.5,4.08-3.77
			c0.73-0.69,1.75-1.41,1.77-2.52c0.02-1.14-1-2-1.7-2.8c-1.43-1.66-2.86-3.32-4.29-4.98c-0.13-0.55-0.81-0.96-1.28-0.41
			c-1.1,1.3-2.18,2.62-3.2,3.99c-0.63,0.84-2.03,2.19-2.08,3.31c-0.04,0.87,0.62,1.52,1.11,2.17c1.04,1.39,2.1,2.77,3.15,4.15
			c-5.38,12.36-8.48,25.61-8.77,39.11c-0.12,5.3,0.06,11.25,3.35,15.7c2.96,4.01,7.32,6.12,12.03,7.09
			c5.62,1.16,11.49-0.72,16.02-4.14c4.92-3.71,6.88-8.79,10.34-13.66c2.25-3.18,5.13-4.44,8.17-6.62c0.22-0.16,0.42-0.31,0.61-0.47
			C412.63,173.8,410.75,174.44,408.35,174.62z"/>
		<g>
			<path class="st3" d="M545.23,122.05c-3.87,10.22-9.97,19.59-18.07,27.54c-10.6,10.41-23.71,17.47-37.99,20.65
				c0.12,1.63-0.06,3.31-0.57,4.86c15.64-3.19,30.02-10.77,41.59-22.12c8.69-8.53,15.21-18.61,19.31-29.62
				C547.97,123.22,546.53,122.76,545.23,122.05z"/>
		</g>
	</g>
	<path class="st3" d="M528.76,470.29c-0.02-0.65-0.16-1.16-0.36-1.53c-0.27-0.86-0.78-1.28-1.46-1.25
		c-10.81,0.56-43.55,0.35-54.35-0.2c-0.69-0.04-1.19,0.39-1.46,1.25c-0.2,0.38-0.34,0.88-0.36,1.53
		c-0.37,11.14,4.19,68.56,6.45,77.25c1.96,7.55,5.52,12.23,10.08,13.35c5.33,1.32,10.91,1.07,16.31,0.75
		c0.11,0.06,0.23,0.1,0.37,0.11c5.87,0.35,11.99,0.78,17.82-0.66c4.55-1.12,8.11-5.8,10.08-13.35
		C534.11,538.86,529.13,481.43,528.76,470.29z"/>
	<path class="st8" d="M524.2,403.29c-5.53,12.79-12.44,34.05-2.77,41.96c8.39,6.86,38.63-6.99,50.75-18.92
		c10.29-10.13,17.82-26.11,13.34-40.64c-4.07-13.21-19.29-20.11-32.04-15.51c-6.53,2.35-11.98,7.14-16.43,12.34
		C531.77,388.71,527.43,395.82,524.2,403.29z"/>
	<path class="st8" d="M470.44,383.88c2.89,13.64,9.54,34.97,22.01,35.83c10.81,0.74,27.46-28.05,30.45-44.79
		c2.54-14.22-0.56-31.61-12.62-40.87c-10.96-8.42-27.37-5.25-35.11,5.88c-3.96,5.7-5.64,12.75-6.26,19.57
		C468.18,367.6,468.76,375.92,470.44,383.88z"/>
	<path class="st3" d="M493.96,369.98c1.2-13.09,2.55-26.17,3.91-39.24c0.05-0.5-0.74-0.5-0.79,0c-4.81,46.3-9.63,92.86-7.38,139.47
		c0.62,12.86,1.8,25.69,3.63,38.43c0.07,0.5,0.83,0.29,0.76-0.21C487.5,462.53,489.76,415.99,493.96,369.98z"/>
	<path class="st3" d="M578.47,376.2c-31.42,29.3-65.22,61.4-74.3,105.25c-2.64,12.78-3.17,25.87-3.18,38.89c0,0.51,0.79,0.51,0.79,0
		c0.01-11.7,0.43-23.45,2.45-35c1.86-10.59,5.21-20.84,9.82-30.55c9.22-19.44,22.86-36.35,37.75-51.74
		c8.77-9.07,18-17.68,27.23-26.28C579.4,376.41,578.84,375.85,578.47,376.2z"/>
</g>
</svg>
