<?xml version="1.0" encoding="utf-8"?>
<!-- Generator: Adobe Illustrator 24.1.3, SVG Export Plug-In . SVG Version: 6.00 Build 0)  -->
<svg version="1.1" id="레이어_1" xmlns="http://www.w3.org/2000/svg" xmlns:xlink="http://www.w3.org/1999/xlink" x="0px"
	 y="0px" viewBox="0 0 841.89 595.28" style="enable-background:new 0 0 841.89 595.28;" xml:space="preserve">
<style type="text/css">
	.st0{fill:#FFFFFF;}
	.st1{fill:#FBF9F7;}
	.st2{fill:#D49C80;}
	.st3{fill:#AC7459;}
	.st4{fill:#6A3939;}
	.st5{fill:#749F85;}
	.st6{fill:#558265;}
	.st7{fill:#4A4747;}
	.st8{fill:#878484;}
	.st9{fill:#F6D0B0;}
	.st10{fill:#F3A287;}
	.st11{fill:#47587B;}
	.st12{fill:#262730;}
	.st13{fill:#E7805D;}
	.st14{fill:#ECDFD9;}
	.st15{fill:#314264;}
	.st16{fill:#DEAB7E;}
	.st17{fill:#D4654C;}
	.st18{fill:#6FA295;}
	.st19{opacity:0.33;fill:#FFFFFF;}
</style>
<path class="st0" d="M3228.02-100.07"/>
<path class="st0" d="M-749.7-100.07"/>
<g>
	<path class="st1" d="M752.22,271.52c-0.39-16.86-2.29-33.73-6.38-50.11c-4.06-16.27-10.42-31.78-18.32-46.56
		c-7.78-14.56-16.76-28.5-26.19-42.05c-8.53-12.27-17.66-24.17-27.71-35.25c-15.58-17.17-36.86-18.83-58.07-23.8
		c-22.42-5.25-44.4-12.69-67.26-15.93c-48.55-6.87-97.11,2.47-143.86,15.33c-44.15,12.14-88.35,23.79-132.7,35.05
		c-64.14,16.28-124.79,53.43-157.28,112.43c-9,16.36-18,32.72-27,49.09c-8.77,15.93-18.52,31.68-25.85,48.34
		c-6.8,15.45-8.62,31.26-6.09,47.93c2.35,15.49,7,30.94,12.84,45.48c4.04,10.05,8.93,19.84,15.08,28.78
		c1.53,2.23,3.15,4.41,4.85,6.53c0.05,0.06,0.1,0.13,0.15,0.19c16.72,20.81,34.99,41.09,60.32,51.13
		c16.77,6.66,34.63,9.96,52.28,13.35c13.93,2.67,27.94,4.88,42.02,6.56c1.66,0.21,3.33,0.4,5,0.59c20.83,2.31,41.79,3.48,62.76,3.36
		c2.63-0.01,5.24,0,7.84,0.03c9.31,0.12,18.39,0.54,27.38,1.09c0.46,0.03,0.92,0.05,1.39,0.09c18.04,1.11,35.74,2.69,54.19,3.36
		c5.56,0.2,11.19,0.32,16.91,0.32c8.82,0,17.69-0.03,26.59-0.08c4.1-0.02,8.21-0.04,12.32-0.08c23.05-0.19,46.24-0.59,69.21-1.36
		c6.83-0.23,13.66-0.49,20.5-0.79c1.66-0.07,3.33-0.14,5-0.23c9.71-0.44,19.43-0.97,29.13-1.58c13.5-0.85,29.61-1.01,43.99-2.32
		c3.1-0.28,6.11-0.61,9-1.02c26.83-3.76,58.52-8.75,75.78-28.35c2.61-2.97,4.89-6.27,6.76-9.95c0.16-0.3,0.31-0.6,0.46-0.91
		c0.06-0.12,0.12-0.24,0.18-0.37c12.84-26.42,33.08-61.69,34.84-109.17C753.89,327.56,752.99,305.8,752.22,271.52z"/>
	<g>
		<g>
			<path class="st2" d="M628.72,464.56c-0.02-0.08-2-8.16-5.86-15.15c-0.34-0.62-0.7-1.26-1.07-1.91c-3.04-5.37-6.48-11.45-5-16.63
				c0.67-2.34,2.29-4.22,4.81-5.6c8.23-4.49,14.7,4.83,17.81,9.32c0.54,0.79,1.22,1.76,1.46,1.97l-1.84,2.37
				c-0.54-0.41-1.06-1.14-2.08-2.62c-4.18-6.02-8.76-11.21-13.91-8.4c-1.82,0.99-2.92,2.23-3.36,3.79
				c-1.13,3.97,2.12,9.71,4.73,14.33c0.38,0.66,0.74,1.31,1.09,1.94c4.05,7.34,6.06,15.54,6.14,15.89L628.72,464.56z"/>
		</g>
		<g>
			<path class="st2" d="M720.52,444.06l-0.73,25.73c-0.09,3.47-0.88,6.89-2.34,10.02c-0.06,0.13-0.12,0.25-0.18,0.37
				c-0.15,0.31-0.3,0.61-0.46,0.91c-0.24,0.45-0.5,0.89-0.77,1.32c-0.41,0.66-0.83,1.32-1.25,1.97c-1.47,2.28-3.05,4.51-4.74,6.66
				c0,0.01,0,0.01-0.01,0.01c-2.2,2.5-4.64,4.76-7.27,6.81c-1.56,1.21-3.19,2.36-4.87,3.43c-0.01,0-0.01,0-0.01,0.01
				c-0.04,0.03-0.08,0.05-0.12,0.08c-0.65,0.41-1.31,0.81-1.98,1.2c0,0,0,0.01-0.01,0.01c-17.58,10.32-40.97,13.92-61.51,16.8
				c-2.89,0.41-5.9,0.74-9,1.02l-2.23-74.66c-0.08-2.06,0.86-4.03,2.51-5.28c5.07-3.85,17.06-9.79,44.22-10.83
				c11.52-0.44,20.74,0.27,28,1.57c1.79,0.32,3.45,0.67,5,1.06c7.69,1.89,12.6,4.44,15.35,6.64
				C719.68,440.16,720.57,442.06,720.52,444.06z"/>
		</g>
		<g>
			<path class="st3" d="M668.36,462.16c-24.77,0-41.34-6.83-41.5-6.9c-0.25-0.11-0.37-0.4-0.27-0.65c0.11-0.25,0.4-0.38,0.65-0.27
				c0.16,0.07,16.56,6.82,41.12,6.82c0.03,0,0.05,0,0.07,0c24.6-0.01,48.29-10.86,48.52-10.97c0.25-0.12,0.55-0.01,0.66,0.24
				c0.12,0.25,0.01,0.55-0.24,0.66c-0.24,0.11-24.12,11.05-48.94,11.06C668.41,462.16,668.39,462.16,668.36,462.16z"/>
		</g>
		<g>
			<path class="st3" d="M686.88,466.98c0,0-0.01,0-0.01,0c-0.28,0-0.5-0.23-0.49-0.5c0-0.27,0.23-0.5,0.5-0.5c0,0,0,0,0,0l0,0
				c0.04,0,2.63-0.02,12.11-2.26c10.6-2.5,16.29-6.45,16.35-6.49c0.23-0.16,0.54-0.11,0.7,0.12c0.16,0.23,0.1,0.54-0.12,0.7
				c-0.24,0.17-5.89,4.1-16.69,6.64C689.74,466.93,687.09,466.98,686.88,466.98z"/>
		</g>
		<g>
			<path class="st3" d="M650.44,467.81c-0.04,0-1.11-0.01-8.06-0.84c-6.98-0.83-15.43-4.17-15.51-4.2c-0.26-0.1-0.38-0.39-0.28-0.65
				c0.1-0.26,0.39-0.38,0.65-0.28c0.08,0.03,8.41,3.32,15.26,4.14c6.79,0.81,7.9,0.83,7.94,0.83c0.27,0,0.5,0.23,0.5,0.5
				C650.93,467.59,650.71,467.81,650.44,467.81z"/>
		</g>
		<g>
			<path class="st3" d="M669.77,478.49c-7.77,0-14.5-1.01-14.57-1.02c-0.27-0.04-0.46-0.3-0.42-0.57c0.04-0.27,0.29-0.46,0.57-0.42
				c0.08,0.01,7.71,1.17,16.08,0.99c8.36-0.16,13.47-0.99,13.52-0.99c0.27-0.04,0.53,0.14,0.57,0.41c0.04,0.27-0.14,0.53-0.41,0.57
				c-0.05,0.01-5.22,0.84-13.66,1.01C670.88,478.49,670.32,478.49,669.77,478.49z"/>
		</g>
		<g>
			<path class="st3" d="M692.77,487.98c-0.23,0-0.43-0.16-0.49-0.39c-0.06-0.27,0.11-0.54,0.38-0.6l6.5-1.5
				c6.38-1.47,10.55-3.13,10.59-3.14c0.25-0.1,0.55,0.02,0.65,0.28c0.1,0.26-0.02,0.55-0.28,0.65c-0.04,0.02-4.28,1.7-10.74,3.19
				l-6.5,1.5C692.84,487.97,692.81,487.98,692.77,487.98z"/>
		</g>
		<g>
			<path class="st3" d="M655.27,488.64c-0.01,0-0.01,0-0.02,0c-0.06,0-5.57-0.17-9.38-0.67c-3.84-0.5-4.84-0.84-4.88-0.86
				c-0.26-0.09-0.4-0.38-0.3-0.64c0.09-0.26,0.38-0.4,0.64-0.3c0.01,0,0.99,0.33,4.67,0.81c3.77,0.49,9.23,0.66,9.28,0.66
				c0.28,0.01,0.49,0.24,0.48,0.52C655.76,488.43,655.54,488.64,655.27,488.64z"/>
		</g>
		<g>
			<path class="st3" d="M664.2,504.86c-2.85,0-6.35-0.06-10.45-0.22c-12.31-0.5-23.52-4.15-23.64-4.19
				c-0.26-0.09-0.4-0.37-0.32-0.63c0.09-0.26,0.37-0.41,0.63-0.32c0.11,0.04,11.2,3.65,23.36,4.14c12.2,0.49,19.04,0.01,19.11,0
				c0.27-0.03,0.51,0.19,0.54,0.46c0.02,0.28-0.19,0.52-0.46,0.54C672.93,504.64,669.86,504.86,664.2,504.86z"/>
		</g>
		<g>
			<path class="st3" d="M697.89,501.3c-0.69,0.44-1.39,0.87-2.1,1.28c0,0,0,0.01-0.01,0.01c-7.11,0.92-12.41,1.38-12.47,1.38h-0.04
				c-0.26,0-0.48-0.19-0.5-0.45c-0.02-0.28,0.18-0.52,0.45-0.54C683.3,502.97,689.7,502.42,697.89,501.3z"/>
		</g>
		<g>
			<g>
				<path class="st4" d="M713.93,441.95c0.1,3.16-15.66,9.55-40.06,10.44c-0.33,0.01-0.67,0.02-1.01,0.03
					c-0.4,0.01-0.8,0.02-1.2,0.03c-1.89,0.04-3.75,0.05-5.57,0.03c-0.67-0.02-1.34-0.03-2-0.05c-0.17,0-0.35-0.01-0.53-0.02
					c-0.69-0.01-1.37-0.04-2.05-0.07c-19.12-0.86-32.49-5.18-32.57-7.87c-0.07-2.66,11.48-7.61,29.68-9.64
					c0.66-0.08,1.33-0.15,2.01-0.21c1.39-0.14,2.8-0.25,4.26-0.36c0.66-0.04,1.33-0.08,2.01-0.12c0.86-0.04,1.74-0.08,2.62-0.11
					c0.36-0.02,0.72-0.03,1.09-0.04c0.37-0.01,0.74-0.02,1.11-0.02c2.46-0.06,4.85-0.06,7.17,0c0.7,0.01,1.4,0.04,2.08,0.07
					C700.47,434.79,713.86,439.21,713.93,441.95z"/>
			</g>
		</g>
		<g>
			<path class="st2" d="M717.4,462.01l-2.92-0.71c0.08-0.35,2.09-8.54,6.14-15.89c0.35-0.63,0.71-1.28,1.09-1.94
				c2.61-4.62,5.86-10.36,4.73-14.33c-0.44-1.56-1.54-2.8-3.36-3.79c-5.15-2.81-9.73,2.37-13.91,8.4c-1.03,1.48-1.54,2.21-2.08,2.62
				l-1.83-2.38l0.92,1.19l-0.93-1.18c0.24-0.2,0.91-1.18,1.46-1.97c3.11-4.48,9.59-13.81,17.81-9.32c2.53,1.38,4.14,3.26,4.81,5.6
				c1.48,5.18-1.96,11.26-5,16.63c-0.37,0.65-0.73,1.29-1.07,1.91C719.4,453.85,717.41,461.93,717.4,462.01z"/>
		</g>
	</g>
	<g>
		<g>
			<path class="st5" d="M656.11,418.34c2.54-9.42,2.04-19.42,0.48-29.08c-1.11-6.85-2.7-13.6-3.96-20.42
				c-1.36-7.34-1.73-14.73-2.69-22.11c-1.67-12.83-9.67-23.42-11.86-36.05c-1.22-7.06-0.85-14.26-1.46-21.38
				c-0.49-5.67-1.71-11.19-3.95-16.44c-4.03-9.44-11.16-18.36-20.18-23.47c-3.36-1.9-8.7-2.77-10.7,1.52
				c-2.03,4.34-0.78,10.52,0.52,14.89c1.68,5.6,4.47,10.78,7.07,15.99c3.03,6.05,5.42,12.23,7.36,18.7
				c4.06,13.56,8.39,27.17,11.65,40.94c1.73,7.34,2.67,14.89,5.07,22.06c2.25,6.73,6.18,12.55,9.99,18.47
				C650.16,392.4,655.74,417.5,656.11,418.34z"/>
		</g>
		<g>
			<path class="st6" d="M663.56,452.41c-0.69-0.01-1.37-0.04-2.05-0.07c-0.76-4.69-1.76-10.79-2.89-17.51
				c-1.05-6.3-2.22-13.15-3.4-19.87c-2.86-16.34-5.8-31.97-7.46-37.5c-0.61-2.02-1.42-4.65-2.37-7.73
				c-5.29-17.07-15.14-48.84-17.07-66.48c-2.19-19.95-8.66-26.42-8.72-26.49c-0.4-0.38-0.41-1.01-0.03-1.41
				c0.38-0.4,1.01-0.41,1.41-0.03c0.28,0.27,7.05,6.91,9.33,27.71c1.91,17.45,11.72,49.11,16.99,66.11
				c0.95,3.09,1.77,5.72,2.37,7.75c1.67,5.58,4.57,20.9,7.41,36.99c1.22,7.01,2.44,14.17,3.55,20.74
				C661.77,441.47,662.79,447.68,663.56,452.41z"/>
		</g>
		<g>
			<path class="st5" d="M660.56,342.62c0.95,1.82,2.03,3.52,3.3,5.06c1.39-2.38,0.32-6.43-0.06-9.29
				c-1.21-9.12-4.57-17.84-5.34-27.02c-0.77-9.25,0.77-18.52,0.43-27.79c-0.34-9.28-1.89-18.44-2.94-27.65
				c-1.06-9.31-1.03-18.35-0.4-27.68c0.6-8.78,0.35-17.04-2.62-25.41c-2.85-8.01-6.61-15.52-8.39-23.89
				c-1.66-7.85-2.39-16-5.53-23.46c-2.16-5.14-5.96-11.39-12.06-12.17c-6.72-0.86-9.16,4.63-9.17,10.36
				c-0.02,9.54,0.21,19.09,0.31,28.63c0.1,8.72-0.72,18.14,1.54,26.65c2.07,7.78,7.67,13.65,11.57,20.5
				c8.53,15.01,6.21,33,8.45,49.48c1.72,12.61,6.81,24.33,11.59,36.01C654.68,323.38,656.17,334.21,660.56,342.62z"/>
		</g>
		<g>
			<path class="st5" d="M694.91,115.31c-0.59-2.95-1.2-5.92-1.93-8.84c-0.39-1.56-0.8-3.26-2.13-4.31c-2.7-2.12-6.11-0.03-8.11,2.05
				c-3.14,3.27-5.19,7.93-6.85,12.1c-2.09,5.22-3.47,10.69-4.42,16.22c-1.94,11.25-2.09,22.69-3.1,34.04
				c-0.62,6.98-1.75,13.78-3.42,20.58c-1.5,6.1-1.65,11.65-0.59,17.84c1.12,6.56,1.84,13.08,2.07,19.6
				c-3.57,21.33-6.07,43.26,0,64.33c0.05,0.19,0.1,0.39,0.16,0.58c0.17,0.56,1.05,0.61,1.2,0c0.32-1.4,0.66-2.8,1.02-4.19
				c5.41-21.25,14.19-41.59,16.37-63.59c1.21-12.23,0.98-24.55,1.97-36.79c0.5-6.32,1.34-12.63,2.86-18.79
				c1.4-5.62,3.43-11.05,4.95-16.63C698.06,138.12,697.22,126.77,694.91,115.31z"/>
		</g>
		<g>
			<path class="st5" d="M725.64,182.28c-10.61-8.15-28.15,34.44-29.59,40.53c-0.97,4.12-9.29,31.2-12.03,46.83
				c-2.51,14.35-0.31,19.05,1.27,23.41c0.14,0.39,0.27,0.78,0.4,1.17c0.16,0.48,0.83,0.61,1.09,0.15c0.16-0.29,0.32-0.57,0.48-0.86
				c7.1-12.63,13.53-25.63,19.48-38.83c4.32-9.59,6.95-19.84,11.23-29.44c3.89-8.72,9.23-16.53,10.88-26.14
				C729.73,194.02,730.34,185.89,725.64,182.28z"/>
		</g>
		<g>
			<path class="st5" d="M757.33,228.03c-7.17-8.67-17.13,0.44-22.03,6.83c-6.72,8.78-10.53,19.42-16.15,28.88
				c-6.01,10.11-13.17,19.89-16.33,31.38c-1.92,6.98-1.56,14.44-4,21.29c-2.23,6.27-6.59,11.58-8.39,18.03
				c-1.97,7.03-1.69,14.81-2.14,22.05c-0.27,4.39-0.79,8.77-1.1,13.16c-0.16,2.26-0.28,4.53-0.27,6.8c0,1.9-0.25,4.68,0.47,6.36
				c1.99-4.67,3.88-9.32,6.29-13.8c2.84-5.29,6.43-10.16,8.09-15.99c0.86-3.02,1.4-6.14,2.46-9.11c1.07-2.99,2.69-5.71,4.52-8.29
				c3.38-4.74,7.42-9,10.27-14.11c5.72-10.24,7.1-22.21,12.47-32.6c2.99-5.79,7.49-10.44,11.56-15.46
				c3.86-4.74,7.07-9.94,10.18-15.19C758.26,249.79,764.83,237.1,757.33,228.03z"/>
		</g>
		<g>
			<path class="st5" d="M736.94,330.64c-5.89,2.26-10.37,8.28-13.93,13.23c-4.16,5.8-7.6,12.06-11.54,18
				c-2.49,3.76-5.22,7.3-8.27,10.62c-2.95,3.2-5.75,6.37-7.88,10.2c-2.15,3.88-3.83,8.05-5.5,12.16c-0.85,2.09-1.62,4.2-2.23,6.34
				c-3.91,6.85-6.63,14.24-5.87,22.31c0.01,0.07,0.03,0.14,0.06,0.2c0.2,0.42,0.86,0.49,1.02-0.06c0.67-2.4,1.8-4.46,3.22-6.33
				c5.57-7.39,15.49-11.71,18.14-21.35c1.29-4.65,2.21-8.7,5.46-12.45c2.63-3.02,5.79-5.61,8.75-8.3
				c6.36-5.78,13.05-11.35,19.03-17.52c4.81-4.94,9-11.07,9.25-18.2C746.87,333.46,743.48,328.12,736.94,330.64z"/>
		</g>
		<g>
			<path class="st6" d="M667.47,403.18c0,3.68-0.03,7.34-0.07,10.93c-0.1,7.02-0.28,13.78-0.5,20.03c-0.08,2.31-0.17,4.54-0.25,6.69
				c-0.09,1.92-0.17,3.78-0.26,5.56c-0.1,2.15-0.2,4.19-0.3,6.09c-0.67-0.02-1.34-0.03-2-0.05c0.28-5.21,0.56-11.38,0.8-18.17
				c0.98-27.58,1.19-65.28-3.25-89.76c-0.41-2.24-0.85-4.36-1.34-6.36c-6.55-26.85-10.91-57.49-14.76-84.52
				c-1.86-13.13-3.63-25.53-5.36-35.21c-5.07-28.35-11.72-43.75-11.78-43.91c-0.22-0.5,0.01-1.09,0.51-1.31
				c0.51-0.22,1.1,0.01,1.32,0.51c0.07,0.16,6.8,15.78,11.92,44.36c1.74,9.71,3.5,22.13,5.37,35.28
				c3.85,26.98,8.2,57.57,14.72,84.33c0.71,2.91,1.33,6.09,1.87,9.49c0.8,4.94,1.42,10.35,1.9,16.04
				c0.89,10.43,1.31,21.84,1.43,33.18C667.46,398.65,667.47,400.92,667.47,403.18z"/>
		</g>
		<g>
			<path class="st6" d="M666.46,397.2c-0.01,0-0.02,0-0.03,0c-0.55-0.01-0.99-0.47-0.97-1.02c0.01-0.53,1.33-52.93,0.04-71.88
				c-1.1-16.18-0.46-22.25,1.09-36.9c0.3-2.8,0.63-5.91,0.98-9.46l0.58-5.74c2.22-21.95,5.58-55.12,5.25-83.46
				c-0.36-30.83,9.62-53.15,9.72-53.38c0.23-0.5,0.82-0.73,1.32-0.5c0.5,0.23,0.73,0.82,0.5,1.32c-0.1,0.22-9.9,22.16-9.54,52.52
				c0.33,28.45-3.03,61.69-5.26,83.69l-0.58,5.74c-0.36,3.56-0.69,6.67-0.98,9.47c-1.54,14.53-2.17,20.55-1.08,36.56
				c1.3,19.04-0.02,71.54-0.04,72.07C667.44,396.76,667,397.2,666.46,397.2z"/>
		</g>
		<g>
			<path class="st6" d="M666.5,414.68c-0.05,0-0.1,0-0.15-0.01c-0.55-0.08-0.92-0.6-0.84-1.14c0.03-0.21,3.26-20.76,10.68-42.47
				c5.37-15.72,6.84-40.66,8.13-62.67c0.48-8.22,0.94-15.98,1.57-22.43c0.74-7.65,3.04-13.54,6.51-22.46
				c1.09-2.79,2.32-5.96,3.65-9.55c7.37-19.93,17.05-47.22,17.15-47.5c0.18-0.52,0.76-0.79,1.28-0.61c0.52,0.18,0.79,0.76,0.61,1.28
				c-0.1,0.27-9.78,27.58-17.16,47.52c-1.33,3.61-2.57,6.78-3.66,9.58c-3.41,8.76-5.67,14.55-6.38,21.93
				c-0.62,6.42-1.08,14.16-1.56,22.35c-1.3,22.14-2.77,47.23-8.23,63.2c-7.36,21.55-10.56,41.93-10.59,42.13
				C667.41,414.33,666.98,414.68,666.5,414.68z"/>
		</g>
		<g>
			<path class="st6" d="M665.42,447.14c-0.14,0-0.27-0.03-0.41-0.09c-0.5-0.22-0.73-0.82-0.51-1.32
				c0.21-0.47,21.15-47.68,22.26-63.87c1.17-17.17,7.95-44.57,15.79-56.43c4.36-6.58,5.7-12.16,7.12-18.05
				c1.07-4.45,2.18-9.05,4.67-14.11c5.61-11.4,15.45-26.92,15.55-27.08c0.3-0.47,0.92-0.6,1.38-0.31c0.47,0.3,0.6,0.91,0.31,1.38
				c-0.1,0.15-9.88,15.59-15.44,26.89c-2.39,4.86-3.47,9.35-4.52,13.69c-1.4,5.81-2.85,11.81-7.39,18.69
				c-7.67,11.6-14.31,38.54-15.46,55.46c-1.13,16.55-21.55,62.6-22.42,64.55C666.16,446.92,665.8,447.14,665.42,447.14z"/>
		</g>
		<g>
			<path class="st6" d="M730.31,350.16c-0.14,0.24-3.65,5.92-14.54,17c-9.54,9.7-12.72,16.49-16.4,24.36
				c-0.48,1.04-0.98,2.09-1.49,3.17c-1.37,2.86-2.96,5.61-4.65,8.52c-2.53,4.37-5.11,8.84-7.21,14.1c-1.08,2.69-2.04,5.59-2.79,8.79
				c-0.6,2.56-1.38,5.25-2.26,7.94c-2.25,6.92-5.11,13.81-7.1,18.35c-0.33,0.01-0.67,0.02-1.01,0.03c-0.4,0.01-0.8,0.02-1.2,0.03
				c1.93-4.35,4.89-11.38,7.23-18.48c0.93-2.82,1.77-5.65,2.4-8.33c0.16-0.66,0.32-1.3,0.49-1.94c2.37-8.78,6.26-15.5,9.72-21.49
				c1.67-2.88,3.24-5.59,4.57-8.38c0.52-1.07,1.01-2.12,1.49-3.16c3.76-8.03,7-14.97,16.78-24.91
				c10.7-10.88,14.23-16.59,14.27-16.64c0.28-0.47,0.9-0.62,1.37-0.33C730.45,349.07,730.6,349.69,730.31,350.16z"/>
		</g>
	</g>
	<g>
		<g>
			<path class="st7" d="M302.24,480.31c-0.8,0-1.47-0.64-1.5-1.45l-2.38-67.92c-0.03-0.83,0.62-1.52,1.45-1.55
				c0.84-0.05,1.52,0.62,1.55,1.45l2.38,67.92c0.03,0.83-0.62,1.52-1.45,1.55C302.28,480.31,302.26,480.31,302.24,480.31z"/>
		</g>
		<g>
			<path class="st7" d="M363.73,445.45c-0.8,0-1.47-0.64-1.5-1.45l-2.06-58.73c-0.03-0.83,0.62-1.52,1.45-1.55
				c0.85-0.03,1.52,0.62,1.55,1.45l2.06,58.73c0.03,0.83-0.62,1.52-1.45,1.55C363.76,445.45,363.75,445.45,363.73,445.45z"/>
		</g>
		<path class="st8" d="M358.97,376.32c-0.89,0.16-1.8,0.39-2.74,0.7c-14.67,4.89-29.03,11.16-43.42,16.85
			c-5.72,2.26-11.44,4.53-17.14,6.86c-1.52,0.62-6.45,1.72-7.38,3.23c-0.63,1.03,0.36,10.38,0.4,11.38c0.04,1,15.55,1.26,18.45,0.36
			c2.9-0.9,67.75-27.85,69.05-28.9c1.3-1.05,0.76-8.1,0.38-9.42c-0.39-1.35-7.23-1.16-8.28-1.21
			C364.97,376.01,362.06,375.77,358.97,376.32z"/>
	</g>
	<g>
		<path class="st7" d="M457.44,402.54v124.15c-4.11,0.04-8.22,0.06-12.32,0.08V402.54H457.44z"/>
	</g>
	<path class="st8" d="M557.77,446.22c-0.57,1.54-8.63,7.01-20.12,14.05c-0.96,0.58-1.94,1.18-2.95,1.79
		c-17.19,10.42-40.68,23.63-58.56,32.76c-1,0.52-1.99,1.02-2.95,1.5c-11.12,5.6-19.62,9.32-22.28,9.32
		c-10.14,0-131.64-13-135.14-15.5s9.5-59,11-59s232.7-182,232.7-182s24.87-4,28.34,5C591.27,263.14,559.77,440.81,557.77,446.22z"/>
	<g>
		<path class="st7" d="M448.77,483.31c-0.01,0-0.03,0-0.04,0l-107.5-8.92c-0.27-0.02-0.48-0.26-0.46-0.54
			c0.02-0.28,0.26-0.48,0.54-0.46l107.5,8.92c0.27,0.02,0.48,0.26,0.46,0.54C449.25,483.11,449.03,483.31,448.77,483.31z"/>
	</g>
	<g>
		<path class="st7" d="M544.13,431.39c-0.02,0-0.05,0-0.07,0c-0.27-0.04-0.46-0.29-0.42-0.57l22.76-158.11
			c0.04-0.27,0.29-0.46,0.57-0.42c0.27,0.04,0.46,0.29,0.42,0.57l-22.76,158.11C544.59,431.21,544.38,431.39,544.13,431.39z"/>
	</g>
	<g>
		<path class="st7" d="M450.94,483.31c-0.18,0-0.35-0.09-0.44-0.26c-0.13-0.24-0.05-0.55,0.19-0.68l93.55-52.12l11.84,13.81
			c0.18,0.21,0.16,0.53-0.05,0.71c-0.21,0.18-0.52,0.16-0.71-0.05l-11.3-13.19l-92.83,51.72
			C451.11,483.29,451.02,483.31,450.94,483.31z"/>
	</g>
	<path class="st9" d="M464.95,380.1c-0.74-2.03-2.03-3.89-3.85-5.43c-4.92-4.16-11.68-5.48-17.89-6.29
		c-8.83-1.15-17.84-0.9-26.6,0.68c-4.84,0.87-9.38,2.42-14.08,3.8c-1.86,0.54-3.64,0.05-5.42-0.55c0.39-0.12,0.78-0.25,1.17-0.37
		c0.61-0.19,0.35-1.15-0.27-0.96c-0.84,0.25-1.68,0.53-2.52,0.79c-0.12-0.04-0.24-0.08-0.36-0.12c-2.6-0.81-5.2-1.62-7.8-2.42
		c-0.61-0.19-0.88,0.77-0.26,0.96c2.25,0.7,4.5,1.4,6.75,2.1c-15.78,4.9-31.44,10.21-46.93,15.97
		c-16.46,6.13-32.94,12.52-48.89,19.88c-6.09,2.82-12.25,6.36-15.75,12.31c-3.39,5.75-3.67,12.6-2.63,19.05
		c1.22,7.64,4.17,14.89,7.02,22.04c2.97,7.44,6.11,14.81,9.54,22.05c6.36,13.44,13.71,26.41,22.48,38.4
		c9.31,0.12,18.39,0.54,27.38,1.09c0.46,0.03,0.92,0.05,1.39,0.09c2.46-1.66,4.82-3.48,7.13-5.34c2.62-2.12,5.4-4.21,7.45-6.92
		c4.52-5.98,2.24-12.89-0.19-19.23c-0.35-0.92-0.68-1.83-1-2.74c0,0,0,0,0-0.01c-0.98-2.9-1.73-5.79-2.23-8.89
		c-0.68-4.21-2.52-8.13-3.62-12.24c-1.06-4-2.16-8.31-4.15-11.98c3.68-1.71,6.97-4.47,10.57-6.38c3.85-2.04,8.13-2.69,12.37-3.44
		c4.21-0.74,8.22-1.85,12.18-3.47c0.4-0.16,0.79-0.32,1.18-0.5c7.04-2.93,13.9-6.41,20.75-9.75c7.37-3.61,14.66-7.38,21.73-11.55
		c6.82-4.02,13.42-8.41,19.62-13.33c5.87-4.67,12.41-9.91,15.36-17.04C466.01,386.92,466.15,383.3,464.95,380.1z"/>
	<path class="st9" d="M543.77,379.2c-2.09-0.35-4.17-0.68-6.26-1c0.03-1.47,0.07-2.94,0.11-4.4c0.02-0.65-0.98-0.65-1,0
		c-0.04,1.41-0.08,2.83-0.11,4.25c-16.37-2.42-32.79-3.56-49.35-1.81c-7.48,0.79-14.9,2.07-22.21,3.86
		c-1.57,0.37-3.15,0.78-4.71,1.21c-7.41,2.03-2.26,2.41-7.97,7.88c-14.4,13.81-32.61,24.23-48.39,36.39
		c-6.38,4.92-11.89,10.46-16.76,16.45c-11.28,13.89-19.11,30.22-26.3,46.9c0,0.01,0,0.01,0,0.01c-4.92,11.44-9.55,23.05-14.78,34.14
		c0.46,0.03,0.92,0.05,1.39,0.09c18.04,1.11,35.74,2.69,54.19,3.36c2.34-3.24,4.36-6.83,6.53-10.13c2.67-4.05,5.24-8.2,8.13-12.1
		c1.37-1.84,2.84-3.61,4.51-5.19c1.63-1.55,3.53-2.66,5.26-4.06c1.33-1.08,2.19-2.37,3.07-3.82c1.35-2.23,2.91-4.04,5.06-5.55
		c3.34-2.34,7.26-3.69,11.08-5.05c4.42-1.58,54.43-30.06,63.26-35.24c7.79-4.57,14.23-8.46,19.5-16.25
		c5.07-7.5,7.77-12.68,8.26-21.27c0.14-2.5,2.3-28.5,1.21-28.66c2,0.3,4.01,0.61,6.01,0.95C544.13,380.27,544.4,379.3,543.77,379.2z
		"/>
	<g>
		<g>
			<path class="st7" d="M476.14,494.82c-1,0.52-1.99,1.02-2.95,1.5l-2.33-66.59c-0.03-0.83,0.62-1.53,1.45-1.56
				c0.84-0.02,1.52,0.62,1.55,1.45L476.14,494.82z"/>
		</g>
		<g>
			<path class="st7" d="M537.65,460.27c-0.96,0.58-1.94,1.18-2.95,1.79l-2.03-58.01c-0.03-0.83,0.62-1.53,1.45-1.56
				c0.84-0.02,1.52,0.62,1.55,1.45L537.65,460.27z"/>
		</g>
		<path class="st8" d="M531.47,395.1c-0.89,0.16-1.8,0.39-2.74,0.7c-14.67,4.89-29.03,11.16-43.42,16.85
			c-5.72,2.26-11.44,4.53-17.14,6.86c-1.52,0.62-6.45,1.72-7.38,3.23c-0.63,1.03-0.15,10.54,0.4,11.38
			c0.42,0.64,16.58,1.38,17.96,0.91c1.3-0.44,68.24-28.41,69.55-29.46c1.3-1.05,0.76-8.1,0.38-9.42c-0.39-1.35-7.23-1.16-8.28-1.21
			C537.47,394.79,534.56,394.55,531.47,395.1z"/>
		<g>
			<path class="st7" d="M536.63,411.42c-0.19,0-0.38-0.11-0.46-0.3c-0.11-0.25,0.01-0.55,0.26-0.66l9.17-3.97
				c0.25-0.11,0.55,0.01,0.66,0.26c0.11,0.25-0.01,0.55-0.26,0.66l-9.17,3.97C536.76,411.41,536.7,411.42,536.63,411.42z"/>
		</g>
		<g>
			<path class="st7" d="M478.98,434.52c-0.27,0-0.49-0.21-0.5-0.48l-0.44-9.9h-16.27c-0.28,0-0.5-0.22-0.5-0.5
				c0-0.28,0.22-0.5,0.5-0.5H479l0.48,10.85c0.01,0.28-0.2,0.51-0.48,0.52C479,434.52,478.99,434.52,478.98,434.52z"/>
		</g>
		<g>
			<path class="st7" d="M478.52,424.14c-0.2,0-0.39-0.12-0.47-0.32c-0.1-0.26,0.03-0.55,0.28-0.65l56.64-22.25
				c0.26-0.1,0.55,0.03,0.65,0.28c0.1,0.26-0.03,0.55-0.28,0.65l-56.64,22.25C478.65,424.13,478.58,424.14,478.52,424.14z"/>
		</g>
	</g>
	<g>
		<path class="st7" d="M248.06,356.6v162c-1.67-0.19-3.34-0.38-5-0.59V356.6H248.06z"/>
	</g>
	<polygon class="st7" points="83.44,376.14 83.44,382.64 549.77,400.73 702.77,358.39 702.77,351.23 	"/>
	<g>
		<path class="st7" d="M702.77,356.6v141.26c-1.56,1.21-3.19,2.36-4.87,3.43c-0.01,0-0.01,0-0.01,0.01
			c-0.04,0.03-0.08,0.05-0.12,0.08V356.6H702.77z"/>
	</g>
	<path class="st10" d="M396,130.98c0,0,6.58-3.19,29.89,1.95c23.31,5.14,52.56,9.76,52.56,9.76l-1.74,14.85l-63.91,5.46L396,130.98z
		"/>
	<path class="st10" d="M600.43,146.81c0,0-6.16-3.94-29.91-1.55c-23.75,2.39-44.75,4.05-44.75,4.05v14.95l54.25,12.39L600.43,146.81
		z"/>
	<path class="st4" d="M531.64,150.06c-0.07-0.23-0.16-0.46-0.28-0.7c-0.34-0.65-0.85-1.19-1.28-1.78c-1.66-2.34-0.53-5.75-1.77-8.34
		c-0.43-0.91-1-1.71-1.67-2.4c-0.7-2.61-1.68-5.13-3.01-7.5c-1.7-3.03-4.54-4.34-8-4.6c-2.72-0.2-4.14-0.83-5.95-2.84
		c-1.01-1.12-1.99-2.13-3.35-2.81c-2.41-1.21-5.12-1.25-7.71-0.73c-5.24-2.18-11.66-2.73-16.18,1.01c-2.34,1.94-3.25,4.34-3.5,7.27
		c-0.19,2.26-0.65,3.35-2.43,4.75c-0.41,0.32-0.84,0.62-1.23,0.96c-1.12,1.01-1.98,2.27-2.51,3.68c-1.42,3.8,0.43,7.67,0.4,11.55
		c-0.03,3.77-0.84,7.66,0.23,11.37c1,3.48,3.74,5.89,6.47,8.1c2.86,2.32,5.92,4.39,8.93,6.53c3.91,2.78,7.54,5.74,10.79,9.28
		c2.22,2.42,4.51,4.7,7.81,5.3c-0.17,0.26-0.35,0.53-0.51,0.83c-0.3,0.57,0.56,1.07,0.86,0.5c1.33-2.48,3.59-3.73,5.31-5.88
		c2.03-2.52,4.06-5.2,5.77-7.94c1.7-2.71,2.82-5.7,4.64-8.35c1.78-2.59,4.01-4.99,5.7-7.69
		C530.79,157.06,532.5,153.14,531.64,150.06z"/>
	<path class="st10" d="M570.11,164.79c0,0,18-19.28,28.67-18.3c7.22,0.66,8.37,8.77,8.02,14.6c-0.78,13.03-8.45,23.49-15.56,33.89
		c-3.11,4.55-6.3,9.05-9.52,13.53c-0.45,0.62-4.61,5.24-4.36,5.97l-8.58-24.75L570.11,164.79z"/>
	<path class="st10" d="M421.97,155.83c0,0-12.27-23.35-22.82-25.22c-7.14-1.26-10.38,6.25-11.59,11.97
		c-2.69,12.77,1.95,24.89,6.06,36.79c1.8,5.21,3.68,10.4,5.61,15.56c0.27,0.72,3.06,6.27,2.63,6.91l14.81-21.61L421.97,155.83z"/>
	<polygon class="st10" points="510.1,173.81 504.6,211.14 488.94,221.81 476.27,207.47 477.57,195.76 478.42,188.1 478.77,184.97 	
		"/>
	<path class="st10" d="M480.75,136.13c0,0-10.1,15.45-10.85,31.95c-0.7,15.33,8.21,22.23,17.71,23.4s18.46-8.69,23.75-19.64
		c5.92-12.25,13.42-27.2-0.92-36.53C496.11,125.98,480.75,136.13,480.75,136.13z"/>
	<path class="st10" d="M479.44,197.81l-19,7c0,0,12.83,19.5,28,19.67c15.17,0.17,34.33-12.17,34.33-12.17l-24.83-14.5H479.44z"/>
	<path class="st11" d="M552.02,294.64c0.49,5.01,0.47,8.99,0.21,12.49c-0.02,0.35-0.05,0.69-0.08,1.02
		c-0.59,6.67-1.97,11.73-2.13,19.24c-0.25,11.75-4.75,32.25-4.75,32.25l-150.25-2.75c0,0,3.5-40.75,7.25-53.75s0.75-26,4.75-38.75
		s32.25-65.92,33.75-66.58c1.5-0.67,26.71,4.4,26.71,4.4s10.29,7.68,22.54,8.93s23.11-4.46,23.11-4.46s12.39-6.54,17.39-6.54
		s15.25,38,21.5,44.5S550.52,279.39,552.02,294.64z"/>
	<path class="st12" d="M484.91,151.17c-0.02-0.03-0.04-0.06-0.06-0.08c-0.12-0.13-0.28-0.21-0.44-0.28
		c-0.84-0.37-1.74-0.57-2.61-0.84c-0.46-0.14-0.99-0.4-1.48-0.41c-0.38-0.01-0.75,0.32-0.54,0.71c0.87,1.61,2.78,2.09,4.47,1.74
		c0.26-0.05,0.63-0.16,0.73-0.43C485.02,151.44,484.98,151.29,484.91,151.17z"/>
	<path class="st12" d="M500.22,153.98c0.7-0.3,1.51-0.03,2.2,0.18c0.74,0.23,1.5,0.38,2.23,0.63c0.38,0.13,1.13,0.7,0.49,1.04
		c-0.76,0.4-2.51,0.46-3.56,0.03C501.14,155.69,499.11,154.46,500.22,153.98z"/>
	<path class="st13" d="M503.35,192.39c-1.58,2.08-7.08,1.08-10.16,3c-3.09,1.92-9.5,1.97-12.59,1.42c-1.04-0.19-2.1-0.6-3.03-1.05
		l0.85-7.66c0,0,4.41,3.82,13.18,2.37c8.78-1.44,13.27-4.14,13.27-4.14S504.94,190.31,503.35,192.39z"/>
	<path class="st4" d="M485.04,143.44c-1.32-0.17-2.67-0.16-3.97,0.06c-0.74,0.13-1.72,0.45-1.71,1.36c0.02,1.21,5.86,1.83,7.56,2.16
		c0.69,0.13,2.36,0.42,2.72-0.44c0.19-0.46-0.13-1.16-0.41-1.51c-0.76-0.92-2.26-1.31-3.39-1.51
		C485.58,143.52,485.31,143.48,485.04,143.44z"/>
	<path class="st4" d="M503.93,147.1c-1.24-0.3-2.95-0.58-4.14,0.01c-0.45,0.22-1.09,0.79-1.1,1.35c-0.02,1.03,1.81,1.5,2.58,1.68
		c1.89,0.43,8.13,2.44,8.69,1.21c0.42-0.92-0.43-1.7-1.13-2.16c-1.23-0.82-2.6-1.43-4.02-1.86
		C504.51,147.25,504.22,147.17,503.93,147.1z"/>
	<path class="st4" d="M521.09,156.6c-0.18-3-0.44-6.06-1.34-8.95c-1.58-5.02-5.24-10.59-9.64-13.57c-2.55-1.73-5.66-2.75-8.53-3.8
		c-2.94-1.08-5.96-1.96-9.09-2.22c-2.32-0.19-4.76-0.02-6.92,0.89c-2.61,1.1-3.48,3.19-5.42,4.96c0-0.02,0-0.04,0-0.07
		c0.06-0.64-0.94-0.64-1,0c-0.64,6.37,8.69,2.02,11.22,1.37c2.06-0.53,3.23-0.38,5.09,0.52c1.11,0.54,2.33,0.69,3.54,0.75
		c1.69,0.07,3.38,0.05,5.07-0.01c1.5-0.06,3.19-0.19,4.56,0.55c2.46,1.32,1.91,4.27,3.7,5.97c0.53,0.5,1.26,0.68,1.83,1.11
		c1.48,1.11,1.69,2.47,1.69,4.19c0,2.73-0.61,5.49-1.33,8.12c-0.1,0.37,0.25,0.72,0.61,0.62c3.13-0.89,2.61,4.01,2.88,5.46
		c0.17,0.96,0.51,1.64,1.12,2.39c0.21,0.25,0.64,0.15,0.79-0.1C521.37,162.22,521.26,159.45,521.09,156.6z"/>
	<path class="st10" d="M520.82,161.18c-0.43-1.68-1.42-3.21-2.95-4.15c-1.85-1.14-3.9-0.92-4.9,1.17c-0.28,0.58,0.59,1.09,0.86,0.5
		c0.25-0.06,0.5-0.11,0.74-0.17c-0.53,1.51-0.84,3.08-1.23,4.66c-0.6,2.44-1.87,4.57-2.65,6.94c-0.27,0.83,1.89,1.13,2.41,1.11
		C517.94,171.06,522,165.84,520.82,161.18z"/>
	<path class="st13" d="M489.88,150.25c-1.49,1.41-2.98,2.82-4.47,4.23c-1.03,0.97-2.51,1.96-3.25,3.21
		c-1.21,2.04,0.44,4.98,1.32,6.85c0.27,0.58,1.14,0.08,0.86-0.5c-0.53-1.14-1.29-2.51-1.43-3.78c-0.25-2.27,0.81-2.81,2.17-4.09
		c1.83-1.73,3.67-3.47,5.5-5.2C491.06,150.51,490.35,149.81,489.88,150.25z"/>
	<path class="st4" d="M515.48,154.98c-0.19-0.24,0.47-4.44,0.4-4.15c-2.04,7.88-6.67,16.16-9.91,21.82
		c-1.72,3.02-3.8,4.37-6.08,6.98c-2.55,2.92-6.45,3.83-10.16,4.21c-2.97,0.3-5.98-1.02-5.79-4.29c0.17-2.86,1.25-6.13,1.68-8.96
		c0.05-0.32-0.13-0.63-0.48-0.63c-0.41-0.01-0.82-0.01-1.23-0.02c-0.15-0.31-1.48,3.05-1.56,3.57c-0.18,1.21-2.63,5.27-3.58,6.79
		c-0.68,1.09-1.8,0.96-2.92,0.63c-1.96-0.58-2.58-1.78-3.61-4.13c-1.41-3.2-1.87-4.21-1.89-7.63c-0.01-3.3,0.89-10.45,0.89-10.45
		s-2.62,2.55-2.68,4.83c-0.02,0.7-0.46,2.1-0.47,2.8c-0.02,1.27-0.56,2.37-0.9,3.56c-0.37,1.31-0.38,2.7-0.22,4.04
		c0.22,1.72,0.72,3.39,1.14,5.07c0.41,1.65,0.75,3.35,1.57,4.85c0.71,1.31,1.76,2.39,2.85,3.39c0.95,0.87,1.54,2.07,2.76,2.63
		c2.77,1.26,6.22,1.9,9.22,2.25c2.1,0.24,4.02-0.5,6.1-0.47c1.75,0.03,2.99-0.15,4.69-0.67c3.06-0.93,7.71-1.75,9.55-4.68
		c1.88-2.99,3.81-5.74,4.9-9.11c0.76-2.37,1.17-3.8,2.42-5.98c0.97-1.7,0.08-5.25,0.85-7.06c0.92-2.17,1.73-4.39,2.46-6.62
		C515.83,156.56,516.17,155.84,515.48,154.98z"/>
	<path class="st13" d="M479.71,166.52c0,0,1.88,0.94,6.19,1.56c4.68,0.68,7.04,0.19,7.04,0.19s-1.98,4.16-7.92,3.5
		C480.52,171.27,479.71,166.52,479.71,166.52z"/>
	<path class="st11" d="M514.52,205.97l54.25-36.79c0,0,14.33,21.63,18.83,30.96c4.5,9.33,7.83,22.5,9.17,24.33
		c1.33,1.83-9.83,12.17-10.83,17.33c-1,5.17-5,12.83-12.83,19.67c-7.83,6.83-8.17,10.83-13,19.17c-4.83,8.33-13.5,28-14,28.17
		C545.61,308.98,514.52,205.97,514.52,205.97z"/>
	<path class="st11" d="M467.48,202.21c0,0-0.13,0.21-0.38,0.62c-0.16,0.26-0.36,0.59-0.62,1c-0.68,1.11-1.69,2.75-2.97,4.83
		c-0.21,0.34-0.43,0.7-0.66,1.07c-12.85,20.89-48.12,78.15-49.08,79.24c-0.92,1.06-4.76-5.18-8.88-12.37
		c-1.1-1.9-2.21-3.87-3.29-5.79c-5.16-9.17,0.67-15.67-5.66-26.17c-6.34-10.5-2.17-14.83-4.17-22.83s-7.17-12.17-5.83-15.84
		c1.33-3.66,36.03-50.14,36.03-50.14s15.25,19.98,25.3,27.48c4.21,3.14,13.01,11.73,17.48,16.17c0.7,0.7,1.3,1.29,1.75,1.75
		c0,0,0.01,0,0.01,0.01C467.13,201.85,467.48,202.21,467.48,202.21z"/>
	<g>
		<path class="st0" d="M427.35,184.78c-0.23-2.62-0.4-5.24-0.68-7.85c-0.09-0.86,0-1.97-0.99-2.36c-0.9-0.35-3.42,0.91-4.26,1.2
			c-2.11,0.73-4.2,1.54-6.26,2.41c-0.59,0.25-0.14,1.14,0.45,0.89c1.44-0.61,2.89-1.19,4.36-1.74c0.62-0.23,4.53-2.1,5.23-1.74
			c0.91,0.47,0.63,3.11,0.7,3.99c0.16,1.8,0.31,3.6,0.47,5.4C426.43,185.63,427.41,185.41,427.35,184.78z"/>
		<path class="st0" d="M463.38,342.08c-0.23-2.62-0.4-5.24-0.68-7.85c-0.09-0.86,0-1.97-0.99-2.36c-0.9-0.35-3.42,0.91-4.26,1.2
			c-2.11,0.73-4.2,1.54-6.26,2.41c-0.59,0.25-0.14,1.14,0.45,0.89c1.44-0.61,2.89-1.19,4.36-1.74c0.62-0.23,4.53-2.1,5.23-1.74
			c0.91,0.47,0.63,3.11,0.7,3.99c0.16,1.8,0.31,3.6,0.47,5.4C462.46,342.93,463.44,342.71,463.38,342.08z"/>
		<path class="st0" d="M518.68,285.95c-0.23-2.62-0.4-5.24-0.68-7.85c-0.09-0.86,0-1.97-0.99-2.36c-0.9-0.35-3.42,0.91-4.26,1.2
			c-2.11,0.73-4.2,1.54-6.26,2.41c-0.59,0.25-0.14,1.14,0.45,0.89c1.44-0.61,2.89-1.19,4.36-1.74c0.62-0.23,4.53-2.1,5.23-1.74
			c0.91,0.47,0.63,3.11,0.7,3.99c0.16,1.8,0.31,3.6,0.47,5.4C517.76,286.8,518.73,286.58,518.68,285.95z"/>
		<path class="st0" d="M468.75,208.43c-0.39,0.98-1.49,0.89-2.35,0.98c-1.18,0.13-2.36,0.23-3.55,0.32
			c-1.43,0.12-2.87,0.22-4.31,0.34c-0.63,0.05-0.85-0.93-0.21-0.98c1.73-0.14,3.45-0.29,5.18-0.43c0.07-0.01,0.15-0.01,0.22-0.02
			c0.89-0.08,3.53,0.22,4-0.69c0.26-0.51-0.65-2.72-1.25-4.12c-0.23-0.53-0.42-0.94-0.48-1.11c-0.1-0.29-0.21-0.58-0.32-0.87
			c-0.3-0.8-0.61-1.59-0.93-2.37c0.7,0.7,1.3,1.29,1.75,1.75c0,0,0.01,0,0.01,0.01c0.11,0.28,0.21,0.56,0.31,0.84
			c0.1,0.25,0.19,0.5,0.28,0.75c0.16,0.44,0.32,0.88,0.47,1.33C467.85,205,469.11,207.52,468.75,208.43z"/>
		<path class="st0" d="M471.54,291.38c-0.23-2.62-0.4-5.24-0.68-7.85c-0.09-0.86,0-1.97-0.99-2.36c-0.9-0.35-3.42,0.91-4.26,1.2
			c-2.11,0.73-4.2,1.54-6.26,2.41c-0.59,0.25-0.14,1.14,0.45,0.89c1.44-0.61,2.89-1.19,4.37-1.74c0.62-0.23,4.53-2.1,5.23-1.74
			c0.91,0.47,0.63,3.11,0.7,3.99c0.16,1.8,0.31,3.6,0.47,5.4C470.62,292.23,471.6,292.01,471.54,291.38z"/>
		<path class="st0" d="M565.7,194.56c-0.23-2.62-0.4-5.24-0.68-7.85c-0.09-0.86,0-1.97-0.99-2.36c-0.9-0.35-3.42,0.91-4.26,1.2
			c-2.11,0.73-4.2,1.54-6.26,2.41c-0.59,0.25-0.14,1.14,0.45,0.89c1.44-0.61,2.89-1.19,4.37-1.74c0.62-0.23,4.53-2.1,5.23-1.74
			c0.91,0.47,0.63,3.11,0.7,3.99c0.16,1.8,0.31,3.6,0.47,5.4C564.78,195.41,565.76,195.2,565.7,194.56z"/>
		<path class="st0" d="M418.92,281.05c2.35-1.17,4.73-2.3,7.05-3.52c0.77-0.4,1.83-0.73,1.82-1.79c0-0.97-2.11-2.85-2.69-3.52
			c-1.46-1.7-2.98-3.33-4.54-4.93c-0.45-0.46-1.11,0.29-0.66,0.75c1.1,1.12,2.18,2.25,3.22,3.42c0.44,0.49,3.62,3.43,3.55,4.22
			c-0.1,1.02-2.66,1.73-3.45,2.13c-1.62,0.81-3.23,1.61-4.85,2.42C417.79,280.51,418.35,281.34,418.92,281.05z"/>
		<path class="st0" d="M540.78,251.37c2.35-1.17,4.73-2.3,7.05-3.52c0.77-0.4,1.83-0.73,1.82-1.79c0-0.97-2.11-2.85-2.69-3.52
			c-1.46-1.7-2.98-3.33-4.54-4.93c-0.45-0.46-1.11,0.29-0.66,0.75c1.1,1.12,2.18,2.25,3.22,3.42c0.44,0.49,3.62,3.43,3.55,4.22
			c-0.1,1.02-2.66,1.73-3.45,2.13c-1.62,0.81-3.23,1.61-4.85,2.42C539.65,250.83,540.21,251.66,540.78,251.37z"/>
		<path class="st0" d="M488.9,319.41c2.35-1.17,4.73-2.3,7.05-3.52c0.77-0.4,1.83-0.73,1.82-1.79c0-0.97-2.11-2.85-2.69-3.52
			c-1.46-1.7-2.98-3.33-4.54-4.93c-0.45-0.46-1.11,0.29-0.66,0.75c1.1,1.12,2.18,2.25,3.22,3.42c0.44,0.49,3.62,3.43,3.55,4.22
			c-0.1,1.02-2.66,1.73-3.45,2.13c-1.62,0.81-3.23,1.61-4.85,2.42C487.77,318.87,488.33,319.7,488.9,319.41z"/>
		<path class="st0" d="M426.82,216.64c-2.6,0.33-5.22,0.61-7.82,0.99c-0.86,0.13-1.97,0.08-2.31,1.09
			c-0.32,0.92,1.05,3.38,1.37,4.21c0.81,2.08,1.71,4.13,2.66,6.15c0.27,0.58,1.15,0.09,0.87-0.49c-0.67-1.42-1.31-2.84-1.91-4.29
			c-0.25-0.61-2.28-4.44-1.95-5.15c0.43-0.93,3.08-0.75,3.96-0.86c1.79-0.23,3.58-0.46,5.38-0.68
			C427.7,217.53,427.45,216.56,426.82,216.64z"/>
		<path class="st0" d="M506.84,231.74c-2.6,0.33-5.22,0.61-7.82,0.99c-0.86,0.13-1.97,0.08-2.31,1.09
			c-0.32,0.92,1.05,3.38,1.37,4.21c0.81,2.08,1.71,4.13,2.66,6.15c0.27,0.58,1.15,0.09,0.87-0.49c-0.67-1.42-1.31-2.84-1.91-4.29
			c-0.25-0.61-2.28-4.44-1.95-5.15c0.43-0.93,3.08-0.75,3.96-0.86c1.79-0.23,3.58-0.46,5.38-0.68
			C507.72,232.63,507.47,231.66,506.84,231.74z"/>
		<path class="st0" d="M522.21,336.71c-2.6,0.33-5.22,0.61-7.82,0.99c-0.86,0.13-1.97,0.08-2.31,1.09
			c-0.32,0.92,1.05,3.38,1.37,4.21c0.81,2.08,1.71,4.13,2.66,6.15c0.27,0.58,1.15,0.09,0.87-0.49c-0.67-1.42-1.31-2.84-1.91-4.29
			c-0.25-0.61-2.28-4.44-1.95-5.15c0.43-0.93,3.08-0.75,3.96-0.86c1.79-0.23,3.58-0.46,5.38-0.68
			C523.1,337.59,522.84,336.63,522.21,336.71z"/>
		<path class="st0" d="M425.9,312.49c-2.6,0.33-5.22,0.61-7.82,0.99c-0.86,0.13-1.97,0.08-2.31,1.09c-0.32,0.92,1.05,3.38,1.37,4.21
			c0.81,2.08,1.71,4.13,2.66,6.15c0.27,0.58,1.15,0.09,0.87-0.49c-0.67-1.42-1.31-2.84-1.91-4.29c-0.25-0.61-2.28-4.44-1.95-5.15
			c0.43-0.93,3.08-0.75,3.96-0.86c1.79-0.23,3.58-0.46,5.38-0.68C426.78,313.38,426.53,312.41,425.9,312.49z"/>
		<path class="st0" d="M583.41,227.11c-2.6,0.33-5.22,0.61-7.82,0.99c-0.86,0.13-1.97,0.08-2.31,1.09
			c-0.32,0.92,1.05,3.38,1.37,4.21c0.81,2.08,1.71,4.13,2.66,6.15c0.27,0.58,1.15,0.09,0.87-0.49c-0.67-1.42-1.31-2.84-1.91-4.29
			c-0.25-0.61-2.28-4.44-1.95-5.15c0.43-0.93,3.08-0.75,3.96-0.86c1.79-0.23,3.58-0.46,5.38-0.68
			C584.3,228,584.04,227.03,583.41,227.11z"/>
		<path class="st0" d="M454.59,240.27c-0.45,2.59-0.95,5.17-1.34,7.77c-0.13,0.86-0.5,1.9,0.36,2.53c0.78,0.57,3.54-0.01,4.43-0.08
			c2.23-0.17,4.45-0.42,6.66-0.74c0.64-0.09,0.42-1.07-0.21-0.98c-1.55,0.22-3.1,0.42-4.66,0.57c-0.66,0.06-4.91,0.88-5.5,0.36
			c-0.76-0.69,0.18-3.16,0.34-4.04c0.31-1.78,0.62-3.56,0.92-5.34C455.7,239.68,454.7,239.64,454.59,240.27z"/>
		<path class="st0" d="M527.39,202.29c-0.45,2.59-0.95,5.17-1.34,7.77c-0.13,0.86-0.5,1.9,0.36,2.53c0.78,0.57,3.54-0.01,4.43-0.08
			c2.23-0.17,4.45-0.42,6.66-0.74c0.64-0.09,0.42-1.07-0.21-0.98c-1.55,0.22-3.1,0.42-4.66,0.57c-0.66,0.06-4.91,0.88-5.5,0.36
			c-0.76-0.69,0.18-3.16,0.34-4.04c0.31-1.78,0.62-3.56,0.92-5.34C528.5,201.7,527.5,201.66,527.39,202.29z"/>
		<path class="st0" d="M552.23,307.13c-0.02,0.35-0.05,0.69-0.08,1.02c-1.18,0.13-2.36,0.24-3.54,0.33
			c-0.88,0.07-3.64,0.65-4.43,0.08c-0.85-0.63-0.49-1.67-0.36-2.53c0.4-2.6,0.9-5.18,1.35-7.77c0.11-0.63,1.11-0.59,1,0.05
			c-0.31,1.78-0.62,3.56-0.93,5.34c-0.15,0.87-1.09,3.35-0.33,4.04c0.58,0.53,4.84-0.3,5.5-0.36
			C551.02,307.27,551.62,307.21,552.23,307.13z"/>
	</g>
	<polygon class="st14" points="83.44,376.14 549.65,393.48 702.77,351.23 248.77,337.24 	"/>
	<g>
		<path class="st7" d="M334.52,360.64l-1.94,6.47c-0.53,1.76,0.79,3.53,2.63,3.53l0,0c1.1,0,2.09-0.66,2.52-1.67l3.54-8.33H334.52z"
			/>
		<path class="st7" d="M456.73,364.18l-1.94,6.47c-0.53,1.76,0.79,3.53,2.63,3.53l0,0c1.1,0,2.09-0.66,2.52-1.67l3.54-8.33H456.73z"
			/>
	</g>
	<polygon class="st8" points="323.71,362.55 323.71,366.08 471.54,370.64 509.57,353.81 509.57,350.69 	"/>
	<polygon class="st7" points="509.57,350.69 471.79,366.84 323.71,362.55 361.03,346.36 	"/>
	<g>
		<path class="st7" d="M552.15,396.85v127.46c-1.67,0.09-3.34,0.16-5,0.23V396.85H552.15z"/>
	</g>
	<g>
		<path class="st7" d="M88.44,381.22v65.75c-0.05-0.06-0.1-0.13-0.15-0.19c-1.7-2.12-3.32-4.3-4.85-6.53v-59.03H88.44z"/>
	</g>
	<g>
		<path class="st7" d="M451.63,503.14c-0.27,0-0.49-0.21-0.5-0.48l-0.69-19.83c-0.01-0.28,0.21-0.51,0.48-0.52
			c0.27,0,0.51,0.21,0.52,0.48l0.69,19.83c0.01,0.28-0.21,0.51-0.48,0.52C451.64,503.14,451.63,503.14,451.63,503.14z"/>
	</g>
	<g>
		<path class="st8" d="M346.87,349.21l2.93-2.81c0.71-0.68,1.04-1.67,0.89-2.64L329.83,213.6c-0.23-1.42-1.44-2.48-2.88-2.52
			l-187.41-5.32c-0.56-0.02-1.12,0.13-1.6,0.41l-6.67,3.91L346.87,349.21z"/>
		<path class="st7" d="M161.83,340.04l185.04,9.17L324.5,215.46l-193.23-5.39l27.77,127.61
			C159.33,339.01,160.47,339.98,161.83,340.04z"/>
		<path class="st7" d="M255.6,305.18h-26.07l6,64.06h26.07L255.6,305.18z M248.2,360.62c-2.13,0.19-4.01-1.38-4.2-3.51l-2.48-28.19
			c-0.19-2.13,1.39-4.01,3.52-4.2c0.11-0.01,0.22-0.01,0.33-0.01c1.99,0,3.69,1.51,3.87,3.53l2.48,28.18
			C251.91,358.56,250.33,360.44,248.2,360.62z"/>
		<polygon class="st7" points="199.53,373.32 224.87,362.39 297.08,365.36 279.08,375.98 		"/>
		<g>
			<path class="st8" d="M259.11,343.18c-0.26,0-0.47-0.19-0.5-0.45l-3.47-37.04h-25.07l3.39,36.21c0.03,0.28-0.18,0.52-0.45,0.54
				c-0.27,0.02-0.52-0.18-0.54-0.45l-3.44-36.76c-0.01-0.14,0.03-0.28,0.13-0.38c0.09-0.1,0.23-0.16,0.37-0.16h26.07
				c0.26,0,0.47,0.2,0.5,0.45l3.51,37.49c0.03,0.28-0.18,0.52-0.45,0.54C259.14,343.17,259.12,343.18,259.11,343.18z"/>
		</g>
		<g>
			<path class="st8" d="M279.09,321.28c-0.01,0-0.01,0-0.02,0l-21.98-0.97c-0.28-0.01-0.49-0.25-0.48-0.52
				c0.01-0.28,0.26-0.52,0.52-0.48l21.37,0.95l-4.66-30.66l-66.51-2.43l5.19,30.42l18.29,0.68c0.28,0.01,0.49,0.24,0.48,0.52
				c-0.01,0.28-0.24,0.47-0.52,0.48l-18.69-0.7c-0.24-0.01-0.43-0.18-0.47-0.42l-5.36-31.42c-0.03-0.15,0.02-0.3,0.12-0.41
				c0.1-0.11,0.24-0.17,0.39-0.17l67.53,2.47c0.24,0.01,0.44,0.19,0.48,0.42l4.81,31.67c0.02,0.15-0.02,0.3-0.12,0.41
				C279.36,321.22,279.23,321.28,279.09,321.28z"/>
		</g>
		<g>
			<path class="st8" d="M179.14,220.26c-0.01,0-0.01,0-0.02,0l-36.25-1.25c-0.28-0.01-0.49-0.24-0.48-0.52
				c0.01-0.27,0.24-0.47,0.52-0.48l36.25,1.25c0.28,0.01,0.49,0.24,0.48,0.52C179.63,220.05,179.4,220.26,179.14,220.26z"/>
		</g>
		<g>
			<path class="st8" d="M180.14,225.26c-0.01,0-0.01,0-0.02,0l-36.25-1.25c-0.28-0.01-0.49-0.24-0.48-0.52
				c0.01-0.28,0.24-0.45,0.52-0.48l36.25,1.25c0.28,0.01,0.49,0.24,0.48,0.52C180.63,225.05,180.4,225.26,180.14,225.26z"/>
		</g>
		<g>
			<path class="st8" d="M181.14,230.26c-0.01,0-0.01,0-0.02,0l-36.25-1.25c-0.28-0.01-0.49-0.24-0.48-0.52
				c0.01-0.27,0.25-0.47,0.52-0.48l36.25,1.25c0.28,0.01,0.49,0.24,0.48,0.52C181.63,230.05,181.4,230.26,181.14,230.26z"/>
		</g>
		<g>
			<path class="st8" d="M182.14,235.26c-0.01,0-0.01,0-0.02,0l-36.25-1.25c-0.28-0.01-0.49-0.24-0.48-0.52
				c0.01-0.28,0.25-0.45,0.52-0.48l36.25,1.25c0.28,0.01,0.49,0.24,0.48,0.52C182.63,235.05,182.4,235.26,182.14,235.26z"/>
		</g>
		<g>
			<path class="st8" d="M184.14,245.26c-0.01,0-0.01,0-0.02,0l-36.25-1.25c-0.28-0.01-0.49-0.24-0.48-0.52
				c0.01-0.28,0.24-0.45,0.52-0.48l36.25,1.25c0.28,0.01,0.49,0.24,0.48,0.52C184.63,245.05,184.4,245.26,184.14,245.26z"/>
		</g>
		<g>
			<path class="st8" d="M185.14,250.26c-0.01,0-0.01,0-0.02,0l-36.25-1.25c-0.28-0.01-0.49-0.24-0.48-0.52
				c0.01-0.27,0.24-0.48,0.52-0.48l36.25,1.25c0.28,0.01,0.49,0.24,0.48,0.52C185.63,250.05,185.4,250.26,185.14,250.26z"/>
		</g>
		<g>
			<path class="st8" d="M183.14,240.26c-0.01,0-0.01,0-0.02,0l-36.25-1.25c-0.28-0.01-0.49-0.24-0.48-0.52
				c0.01-0.27,0.26-0.48,0.52-0.48l36.25,1.25c0.28,0.01,0.49,0.24,0.48,0.52C183.63,240.05,183.4,240.26,183.14,240.26z"/>
		</g>
		<g>
			<path class="st8" d="M190,335.48c-0.05,0-0.1,0-0.15,0l-20.34-0.74c-1.95-0.07-3.59-1.51-3.91-3.44l0,0l-0.03-0.18
				c-0.21-1.23,0.15-2.47,0.98-3.41c0.83-0.93,2.03-1.45,3.26-1.38l20.37,0.92c1.92,0.09,3.55,1.52,3.87,3.42
				c0.21,1.23-0.14,2.47-0.96,3.4C192.31,334.97,191.19,335.48,190,335.48z M166.58,331.14c0.24,1.45,1.49,2.55,2.96,2.6l20.34,0.74
				c0.94,0.05,1.84-0.35,2.46-1.06c0.62-0.71,0.89-1.65,0.73-2.57c-0.24-1.44-1.48-2.53-2.93-2.59l-20.37-0.92
				c-0.94-0.03-1.84,0.34-2.47,1.05c-0.63,0.71-0.9,1.65-0.74,2.58L166.58,331.14z"/>
		</g>
		<g>
			<path class="st8" d="M320.09,227.25C320.09,227.25,320.08,227.25,320.09,227.25l-32.82-0.45c-0.22,0-0.42-0.15-0.48-0.37
				l-1.7-6.24c-0.04-0.15-0.01-0.32,0.09-0.44c0.1-0.12,0.26-0.2,0.4-0.19l33.58,0.73c0.24,0.01,0.45,0.18,0.48,0.42l0.94,5.96
				c0.02,0.15-0.02,0.29-0.12,0.41C320.37,227.19,320.23,227.25,320.09,227.25z M287.66,225.81l31.85,0.43l-0.78-4.96l-32.49-0.71
				L287.66,225.81z"/>
		</g>
	</g>
	<g>
		<path class="st8" d="M471.12,365.1c-0.2,0-0.38-0.12-0.46-0.31c-0.11-0.25,0.01-0.55,0.27-0.65l31.16-13.04
			c0.25-0.11,0.55,0.01,0.65,0.27c0.11,0.25-0.01,0.55-0.27,0.65l-31.16,13.04C471.25,365.09,471.19,365.1,471.12,365.1z"/>
	</g>
	<g>
		<path class="st8" d="M448.27,351.19c-0.01,0-0.01,0-0.02,0l-43.91-1.49c-0.28-0.01-0.49-0.24-0.48-0.52
			c0.01-0.28,0.24-0.46,0.52-0.48l43.91,1.49c0.28,0.01,0.49,0.24,0.48,0.52C448.76,350.98,448.54,351.19,448.27,351.19z"/>
	</g>
	<g>
		<path class="st8" d="M332.01,361.82c-0.19,0-0.37-0.11-0.46-0.3c-0.11-0.25,0-0.55,0.25-0.66l30.37-13.5
			c0.25-0.11,0.55,0,0.66,0.25c0.11,0.25,0,0.55-0.25,0.66l-30.37,13.5C332.14,361.81,332.07,361.82,332.01,361.82z"/>
	</g>
	<g>
		<path class="st15" d="M407.11,270.81c-0.08,0-0.15-0.02-0.23-0.05c-0.25-0.13-0.34-0.43-0.22-0.67l32.83-64.17
			c0.13-0.25,0.43-0.34,0.67-0.22c0.25,0.13,0.34,0.43,0.22,0.67l-32.83,64.17C407.46,270.71,407.29,270.81,407.11,270.81z"/>
	</g>
	<g>
		<path class="st15" d="M549.65,291.31c-0.24,0-0.45-0.17-0.49-0.41c-2.51-14.41-14.98-86.37-14.47-87.91
			c0.09-0.26,0.37-0.41,0.63-0.32c0.25,0.08,0.39,0.33,0.33,0.58c-0.17,2.41,10.4,63.93,14.49,87.47c0.05,0.27-0.13,0.53-0.41,0.58
			C549.71,291.31,549.68,291.31,549.65,291.31z"/>
	</g>
	<g>
		<path class="st15" d="M490.34,215c-0.47,0-0.95-0.01-1.42-0.02c-10.8-0.32-17.26-4.06-17.74-4.56c-0.19-0.2-0.19-0.51,0.01-0.71
			c0.19-0.19,0.49-0.19,0.69-0.01c0.16,0.11,6.03,3.94,17.07,4.27c10.78,0.32,22.22-3.28,22.33-3.31c0.26-0.08,0.54,0.06,0.63,0.32
			c0.08,0.26-0.06,0.54-0.32,0.63C511.48,211.65,500.86,215,490.34,215z"/>
	</g>
	<g>
		<path class="st16" d="M387.77,441.31c-0.1,0-0.21-0.03-0.3-0.1c-0.22-0.17-0.27-0.48-0.1-0.7c0.08-0.1,7.74-10.26,21.56-19.33
			c13.8-9.06,30.69-14.66,30.85-14.71c0.26-0.09,0.55,0.06,0.63,0.32c0.09,0.26-0.06,0.54-0.32,0.63
			c-0.17,0.06-16.93,5.62-30.62,14.6c-13.67,8.97-21.23,18.99-21.3,19.09C388.08,441.24,387.93,441.31,387.77,441.31z"/>
	</g>
	<g>
		<path class="st16" d="M347.19,521.13c-0.08,0-0.15-0.02-0.23-0.05c-0.25-0.13-0.35-0.43-0.22-0.67l14.64-28.95
			c0.13-0.25,0.43-0.34,0.67-0.22c0.25,0.13,0.35,0.43,0.22,0.67l-14.64,28.95C347.55,521.03,347.37,521.13,347.19,521.13z"/>
	</g>
	<g>
		<path class="st16" d="M350.94,452.81c-0.21,0-0.41-0.14-0.48-0.35c-0.05-0.14-4.53-14.2-9.56-19.85c-5.06-5.69-8.61-8.3-8.65-8.33
			c-0.22-0.16-0.27-0.48-0.11-0.7c0.16-0.22,0.48-0.27,0.7-0.11c0.15,0.11,3.66,2.7,8.8,8.47c5.18,5.81,9.58,19.63,9.77,20.22
			c0.08,0.26-0.06,0.54-0.33,0.63C351.04,452.8,350.99,452.81,350.94,452.81z"/>
	</g>
	<g>
		<path class="st16" d="M343.11,441.31c-0.12,0-0.24-0.04-0.34-0.13l-13.12-11.98c-0.2-0.19-0.22-0.5-0.03-0.71
			c0.19-0.21,0.5-0.22,0.71-0.03l13.12,11.98c0.2,0.19,0.22,0.5,0.03,0.71C343.38,441.25,343.24,441.31,343.11,441.31z"/>
	</g>
	<g>
		<path class="st13" d="M569.92,168.81c-0.14,0-0.27-0.06-0.37-0.17c-0.18-0.21-0.16-0.52,0.04-0.71l8.71-7.74
			c0.21-0.18,0.52-0.16,0.71,0.04c0.18,0.21,0.17,0.52-0.04,0.71l-8.71,7.74C570.16,168.77,570.04,168.81,569.92,168.81z"/>
	</g>
	<g>
		<path class="st13" d="M421.61,155.65c-0.17,0-0.33-0.08-0.43-0.24l-6.14-9.9c-0.15-0.23-0.07-0.54,0.16-0.69
			c0.23-0.15,0.54-0.07,0.69,0.16l6.14,9.9c0.15,0.23,0.07,0.54-0.16,0.69C421.79,155.63,421.7,155.65,421.61,155.65z"/>
	</g>
	<g>
		<polygon class="st11" points="111.27,333.15 114.52,371.98 132.27,373.23 143.89,369.01 144.89,330.23 123.36,329.23 		"/>
		<g>
			<path class="st17" d="M119.05,334.76l-2.03-0.12l-0.14-1.01l-3.43-25.91c-0.08-0.54,0.31-1.05,0.86-1.12
				c0.54-0.07,1.05,0.31,1.12,0.86l3.48,26.29L119.05,334.76z"/>
		</g>
		<g>
			<path class="st18" d="M133.5,318.43l-2.08,16.06l-0.56,4.28l-0.03-1.43l-0.05-1.89l-1.49-0.09l0.13-0.99l2.1-16.2
				c0.06-0.54,0.57-0.94,1.12-0.86C133.18,317.38,133.57,317.88,133.5,318.43z"/>
		</g>
		<g>
			<path class="st14" d="M123.15,335l-2.02-0.12l-0.11-1l-1.96-17.68c-0.07-0.54,0.33-1.04,0.88-1.1c0.54-0.06,1.04,0.34,1.1,0.89
				l2,18.01L123.15,335z"/>
		</g>
		<path class="st9" d="M146.88,316.12l-5.89,15.2l-0.47,1.2l-8.74,2.82l-0.24,0.08c0.07-0.2,0.15-0.4,0.23-0.61
			c0.07-0.19,0.14-0.39,0.22-0.59c2.33-6.23,6.4-17,6.91-18.35c0.75-1.97,1.33-3.48,1.33-3.48L146.88,316.12z"/>
		<g>
			<path class="st15" d="M132.65,371.63c0,0.27-0.22,0.5-0.49,0.51c-0.01,0-0.01,0-0.01,0c-0.28,0-0.5-0.22-0.5-0.49l-0.76-31.63
				l-0.03-1.25l-0.03-1.43l-0.05-1.89l-1.49-0.09l-6.14-0.36l-2.02-0.12l-2.08-0.12l-2.03-0.12l-4.15-0.25
				c-0.28-0.02-0.49-0.25-0.47-0.53c0.01-0.28,0.24-0.48,0.52-0.47l3.96,0.24l2.03,0.12l2.11,0.13l2.02,0.12l6.38,0.37l1.77,0.11
				l0.23,0.01l0.34,0.02l0.01,0.3l0.01,0.53l0.17,7.17L132.65,371.63z"/>
		</g>
		<g>
			<path class="st15" d="M144.05,331.38l-3.53,1.14l-8.74,2.82l-0.24,0.08l-0.12,0.04c-0.05,0.01-0.1,0.02-0.15,0.02
				c-0.21,0-0.41-0.14-0.48-0.35c-0.08-0.26,0.06-0.54,0.33-0.63l0.07-0.02l0.8-0.26l9-2.9l2.75-0.89c0.26-0.08,0.55,0.06,0.63,0.32
				C144.46,331.01,144.31,331.3,144.05,331.38z"/>
		</g>
	</g>
	<g>
		<path class="st0" d="M529.01,343.94c0,2.39,3.45,29.03,4.38,30.89c0.93,1.86,6.77,3.48,11.89,2.92c7.32-0.8,8.73-3.06,9.64-4.25
			c0.91-1.2,3.63-29.29,2.97-31.29c-0.66-1.99-7.75-4.44-18.06-3.38C529.89,339.85,529.01,341.95,529.01,343.94z"/>
		<g>
			<path class="st0" d="M554.26,368.09c-0.36,0-0.71-0.02-1.07-0.07c-2.41-0.32-4.53-1.67-5.97-3.82c-1.39-2.08-1.97-4.67-1.63-7.29
				c0.72-5.48,5.29-9.41,10.21-8.77c4.91,0.65,8.32,5.63,7.59,11.11l0,0c-0.34,2.62-1.57,4.97-3.45,6.62
				C558.29,367.32,556.31,368.09,554.26,368.09z M554.74,351.07c-3.01,0-5.7,2.65-6.17,6.23c-0.25,1.9,0.16,3.76,1.15,5.23
				c0.95,1.42,2.32,2.31,3.87,2.51c1.55,0.2,3.1-0.3,4.38-1.43c1.34-1.17,2.21-2.86,2.46-4.76l0,0c0.5-3.84-1.74-7.31-5.01-7.74
				C555.19,351.09,554.97,351.07,554.74,351.07z"/>
		</g>
		<path class="st4" d="M531.17,342.68c0-0.97,4.93-2.79,12.18-2.79c7.25,0,12.5,1.83,12.5,2.79s-4.75,2.79-12,2.79
			S531.17,343.65,531.17,342.68z"/>
		<g>
			<path class="st19" d="M569.18,303.33c-6.25,0.5-11.73,7.12-14.24,12.32c-0.9,1.87-1.5,3.86-2.75,5.54
				c-1.25,1.68-2.95,2.98-4.06,4.78c-2.47,4.02-4.51,10.62-4.46,15.37c0,0.46,0.72,0.72,0.93,0.25c1.77-3.86,3.3-8.9,6.6-11.78
				c2.23-1.94,7.39-2.61,7.59-6.34c0.14-2.64-2.74-2.54-4.58-1.97c-0.02,0.01-0.04,0.01-0.06,0.02c1.46-1.78,3.16-3.37,5.08-4.69
				c2.83-1.93,6.05-2.64,9.03-4.2c2.31-1.21,3.99-3.46,4.07-6.13C572.4,304.39,571.37,303.15,569.18,303.33z"/>
			<path class="st19" d="M550.9,312.01c-0.32-0.15-0.68-0.23-1.03-0.22c-3.71,0.07-6.38,5.63-7.57,8.53
				c-1.49,3.64,2.08,6.35,4.05,2.13c1.23-2.63,2.52-4.63,4.41-6.81c0.65-0.74,1.34-1.68,1.05-2.62
				C551.68,312.56,551.33,312.22,550.9,312.01z"/>
		</g>
	</g>
	<path class="st7" d="M574.77,359.64v0.04c0,1.58,1.22,2.89,2.8,2.99l38.85,2.61c0.63,0.04,1.26-0.12,1.8-0.45l10.81-6.8
		c0.87-0.55,1.4-1.51,1.4-2.54v-0.93L574.77,359.64z"/>
	<path class="st8" d="M574.77,359.64l15.96-7.48c0.46-0.22,0.97-0.31,1.48-0.28l38.22,2.68l-13.29,7.92L574.77,359.64z"/>
	<polygon class="st0" points="581.91,359.23 594.69,352.98 628.11,355.14 616.86,361.56 	"/>
</g>
</svg>
