<?xml version="1.0" encoding="utf-8"?>
<!-- Generator: Adobe Illustrator 24.1.3, SVG Export Plug-In . SVG Version: 6.00 Build 0)  -->
<svg version="1.1" id="레이어_1" xmlns="http://www.w3.org/2000/svg" xmlns:xlink="http://www.w3.org/1999/xlink" x="0px"
	 y="0px" viewBox="0 0 841.89 595.28" style="enable-background:new 0 0 841.89 595.28;" xml:space="preserve">
<style type="text/css">
	.st0{fill:#FFFFFF;}
	.st1{fill:#558265;}
	.st2{fill:#3D6554;}
	.st3{fill:#916254;}
	.st4{fill:#F6D0B0;}
	.st5{fill:#D4654C;}
	.st6{fill:#B84B33;}
	.st7{fill:#6A3939;}
	.st8{fill:#E5D5CE;}
	.st9{fill:#4A4747;}
	.st10{fill:#D49C80;}
	.st11{fill:#47587B;}
	.st12{fill:#E5BA92;}
	.st13{fill:#DFCBC2;}
	.st14{fill:#F3A287;}
	.st15{fill:#878484;}
	.st16{fill:#736D6D;}
	.st17{fill:#332723;}
	.st18{fill:#314264;}
	.st19{fill:#E7805D;}
	.st20{fill:#262730;}
	.st21{fill:#AC7459;}
	.st22{fill:#635A5A;}
	.st23{fill:#ECDFD9;}
	.st24{fill:#F29A87;}
	.st25{fill:#77849C;}
	.st26{fill:#FCE8C4;}
</style>
<line class="st0" x1="-1531.22" y1="-137.27" x2="2446.5" y2="-137.27"/>
<g>
	<g>
		<g>
			<path class="st1" d="M234.65,101.07c-2.71,4.12-5.46,8.2-8.25,12.25c-0.45,0.66-0.9,1.32-1.36,1.97
				c-5.35,7.72-10.86,15.3-16.53,22.77c-0.53,0.7-1.06,1.41-1.61,2.1c-6.08,7.95-12.34,15.77-18.77,23.44
				c2.95-6.99,6.05-13.92,9.37-20.84c0.43-0.9,0.87-1.82,1.3-2.72c0.34-0.72,0.68-1.42,1.02-2.14c4.38-9.14,8.76-18.28,13.14-27.42
				c0.31-0.63,0.61-1.27,0.91-1.89c4.29-8.96,8.58-17.92,12.88-26.88c0.45-0.92-0.51-2.15-1.51-1.51
				c-11.87,7.53-22.96,16.2-33.09,25.88c-0.56,0.54-1.12,1.08-1.67,1.63c-8.99,8.78-17.2,18.37-24.49,28.64
				c-0.5,0.69-0.99,1.4-1.49,2.11c-2.01,2.92-3.95,5.88-5.81,8.9c-4.8,7.78-9.1,15.89-12.92,24.25c-0.43,0.94-0.85,1.87-1.25,2.81
				c-2.31,5.22-4.45,10.52-6.39,15.9c0.62-4.93,1.2-9.87,1.75-14.8c0.09-0.84,0.19-1.66,0.28-2.49c1.42-13.08,2.6-26.16,3.39-39.27
				c0.06-0.75,0.1-1.49,0.13-2.22c0.65-11.09,1.01-22.19,1.03-33.29c0.01-0.74,0.01-1.47,0.01-2.2c-0.01-8.87-0.25-17.75-0.75-26.64
				c-0.06-0.99-1.56-1.63-2.06-0.56c-3.91,8.54-7.36,17.28-10.35,26.16c-0.25,0.72-0.48,1.43-0.72,2.15
				c-3.98,12.17-7.1,24.62-9.29,37.25c-0.13,0.75-0.26,1.5-0.39,2.25c-1.33,8.05-2.3,16.16-2.88,24.31
				c-0.01,0.06-0.01,0.11-0.01,0.17c-2.94-7.56-6.57-14.85-10.87-21.75c-0.4-0.65-0.8-1.3-1.24-1.94
				c-5.29-8.21-11.57-15.85-18.72-22.67c-0.77-0.73-2.19-0.01-1.84,1.08c2.52,7.85,4.94,15.73,7.24,23.64
				c0.2,0.67,0.4,1.34,0.58,2.01c3.25,11.18,6.26,22.42,9.06,33.7c0.18,0.73,0.36,1.46,0.54,2.19c2.22,9.04,4.3,18.11,6.23,27.21
				c0.17,0.74,0.32,1.46,0.46,2.2c0.98,4.59,1.9,9.19,2.81,13.8c0.17,0.86,0.33,1.72,0.5,2.59c1.63,8.51,3.14,17.05,4.52,25.61
				c0.12,0.73,0.23,1.46,0.35,2.2c1.18,7.41,2.27,14.85,3.27,22.29c-0.04,0.72-0.08,1.43-0.12,2.15c-3-7.85-6.8-15.4-11.42-22.42
				c-0.26-0.41-0.54-0.81-0.83-1.22c-0.51-0.76-1.03-1.51-1.58-2.26c-4.53-6.34-9.76-12.13-15.63-17.17
				c-0.61-0.53-1.21-1.03-1.83-1.53c-5.84-4.78-12.31-8.83-19.31-11.95c-1.03-0.46-1.96,0.47-1.51,1.51
				c2.76,6.33,5.66,12.6,8.68,18.8c0.34,0.69,0.67,1.38,1.01,2.06c2.6,5.26,5.28,10.47,8.07,15.62c0.37,0.68,0.74,1.36,1.12,2.05
				c2.56,4.7,5.21,9.34,7.95,13.95c1.9,3.21,3.85,6.46,5.91,9.64c0.44,0.69,0.89,1.39,1.36,2.08c4.97,7.47,10.61,14.48,17.78,19.79
				c0.13,3.14,0.3,6.28,0.52,9.42c0.08,1.06,1.33,1.33,1.92,0.79c0.95,0.54,1.89,1.09,2.84,1.63c0.51,0.47,1.38,0.41,1.73-0.23
				c7.36-13.06,13.73-26.58,19.46-40.37c0.28-0.66,0.55-1.33,0.83-1.99c4.3-10.48,8.25-21.1,12.03-31.8
				c0.25-0.69,0.5-1.39,0.74-2.09c2.82-8.02,5.54-16.09,8.24-24.16c0.25-0.79,0.52-1.57,0.78-2.37c0.31-0.92,0.62-1.84,0.92-2.76
				c2.87-2.6,5.71-5.24,8.5-7.91c1.01-0.99,2.03-1.97,3.03-2.95c9.39-9.29,18.2-19.15,25.9-29.71c0.64-0.84,1.24-1.68,1.83-2.53
				c5.77-8.12,10.85-16.65,15.03-25.62c0.32-0.68,0.63-1.36,0.94-2.05c2.89-6.44,5.31-13.12,7.18-20.03
				c0.22-0.84,0.44-1.67,0.65-2.52c1.25-5.04,2.21-10.21,2.84-15.52C236.84,100.46,235.19,100.25,234.65,101.07z"/>
			<g>
				<path class="st2" d="M144.72,96.07c0,0.73,0,1.46-0.01,2.2c-3.35-0.26-6.68-0.53-10.03-0.78c-1.28-0.1-2.55-0.21-3.83-0.31
					c0.23-0.72,0.46-1.43,0.72-2.15c1.03,0.09,2.08,0.18,3.11,0.25C138.02,95.55,141.37,95.8,144.72,96.07z"/>
				<path class="st2" d="M213.87,108.61c-0.31,0.63-0.61,1.27-0.91,1.89c-6.31-1.32-12.82,0.69-19.02-1.36
					c-1.19-0.4-2.33-0.88-3.46-1.41c0.55-0.55,1.11-1.09,1.67-1.63c2.05,0.88,4.16,1.56,6.41,1.79
					C203.96,108.46,208.77,107.63,213.87,108.61z"/>
				<path class="st2" d="M233.87,117.14c-0.21,0.85-0.43,1.68-0.65,2.52c-0.52-0.3-1.03-0.57-1.56-0.85
					c-2.15-1.13-4.36-2.36-6.63-3.52c0.46-0.65,0.91-1.31,1.36-1.97C228.91,114.5,231.41,115.78,233.87,117.14z"/>
				<path class="st2" d="M107.4,139.4c-4.66,0.7-9.31,1.42-13.98,2.12c-0.19-0.67-0.39-1.34-0.58-2.01
					c4.45-0.66,8.88-1.34,13.32-2.05C106.6,138.1,107.01,138.75,107.4,139.4z"/>
				<path class="st2" d="M143.67,131.56c-0.03,0.74-0.08,1.47-0.13,2.22c-3.9-0.62-7.83-0.75-11.8,0.15
					c-3.59,0.81-7.06,1.82-10.57,2.73c0.12-0.75,0.25-1.5,0.39-2.25c4.17-1.19,8.29-2.58,12.57-3.13
					C137.34,130.88,140.52,131.07,143.67,131.56z"/>
				<path class="st2" d="M199.81,137.92c-0.34,0.72-0.68,1.42-1.02,2.14c-11.41-0.18-23,0.14-34.29-1.57
					c0.5-0.72,0.99-1.42,1.49-2.11C177.13,137.93,188.53,137.82,199.81,137.92z"/>
				<path class="st2" d="M226.04,139.7c-0.31,0.68-0.62,1.36-0.94,2.05c-0.15-0.04-0.3-0.08-0.45-0.11
					c-5.77-1.3-11.8-1.42-17.76-1.46c0.55-0.69,1.08-1.4,1.61-2.1C214.38,138.17,220.33,138.29,226.04,139.7z"/>
				<path class="st2" d="M140.15,173.06c-0.09,0.83-0.19,1.65-0.28,2.49c-0.64,0.13-1.29,0.25-1.95,0.36
					c-6.25,1-12.78-0.14-19.09,0.13c-5.27,0.24-10.54,0.75-15.82,1.38c-0.18-0.73-0.36-1.46-0.54-2.19
					c6.54-0.8,13.09-1.4,19.62-1.49C128.36,173.65,134.11,174.29,140.15,173.06z"/>
				<path class="st2" d="M210.07,167.37c-0.58,0.85-1.19,1.7-1.83,2.53c-5.21,1.23-10.39,2.75-15.35,3.41
					c-12.4,1.64-24.45-1.18-36.81-0.9c-4.07,0.09-7.79,1.08-11.57,2.04c0.41-0.94,0.83-1.87,1.25-2.81
					c4.72-1.1,9.39-1.56,14.36-1.39c7.15,0.26,14.25,1.42,21.42,1.52c7.39,0.1,14.58-0.99,21.73-2.78
					C205.52,168.42,207.79,167.86,210.07,167.37z"/>
				<path class="st2" d="M182.35,199.6c-1,0.98-2.01,1.96-3.03,2.95c-2.82,0.66-5.62,1.3-8.49,1.71
					c-6.21,0.88-11.93-0.06-18.06-0.83c-6.81-0.85-13.9-1.17-20.76-0.94c-6.72,0.23-12.95,2.18-19.45,3.7
					c-0.95,0.22-1.9,0.43-2.85,0.63c-0.14-0.74-0.3-1.46-0.46-2.2c1.84-0.35,3.67-0.77,5.49-1.23c10.6-2.7,20.24-3.36,31.17-2.76
					c6.13,0.34,12.24,1.85,18.36,1.92c5.92,0.07,11.67-1.5,17.39-2.8C181.9,199.69,182.12,199.65,182.35,199.6z"/>
				<path class="st2" d="M91.58,232.39c-3.03,1.21-5.79,3.72-8.35,5.57c-1.53,1.1-3.06,2.21-4.59,3.31
					c-0.34-0.68-0.67-1.36-1.01-2.06c3.84-2.99,7.84-6.37,12.13-8.35C90.37,231.36,90.97,231.86,91.58,232.39z"/>
				<path class="st2" d="M169.9,213.23c-0.26,0.79-0.53,1.57-0.78,2.37c-4.42-1.29-8.86-1.66-14.02-0.76
					c-5.98,1.05-11.75,3.04-17.78,3.92c-5.87,0.86-11.88,0.36-17.71,1.5c-2.74,0.54-4.79,1.62-6.59,2.96
					c-0.16-0.87-0.33-1.73-0.5-2.59c1.95-1.18,4.07-2,6.5-2.5c5.38-1.09,10.91-0.69,16.34-1.32c7.15-0.83,13.96-3.38,21.07-4.41
					C161.05,211.73,165.53,211.89,169.9,213.23z"/>
				<path class="st2" d="M108.79,251.82c-7.4,0.77-14.5,2.21-20.92,7.09c-0.01,0.01-0.03,0.02-0.04,0.03
					c-0.39-0.68-0.75-1.36-1.12-2.05c1.02-0.73,2.06-1.44,3.1-2.15c5.15-3.47,11.22-4.62,17.4-5.18
					C107.76,250.31,108.28,251.06,108.79,251.82z"/>
				<path class="st2" d="M160.87,239.75c-0.24,0.7-0.48,1.4-0.74,2.09c-2.97-0.26-5.89-0.2-8.71,0.34
					c-9.83,1.9-18.5,6.96-28.57,8.29c-1.66,0.22-3.31,0.4-4.96,0.55c-0.12-0.74-0.23-1.47-0.35-2.2c1.1-0.09,2.19-0.19,3.27-0.31
					c6.71-0.77,12.79-2.51,19.07-4.9c4.85-1.85,9.77-3.75,14.99-4.14C156.91,239.33,158.9,239.46,160.87,239.75z"/>
				<path class="st2" d="M148.11,273.64c-0.28,0.66-0.55,1.33-0.83,1.99c-7.62-0.36-15.19-0.03-22.62,2.33
					c-7.29,2.32-14.28,4.74-21.62,6.64c-0.47-0.69-0.92-1.39-1.36-2.08c6.9-1.83,13.69-3.68,20.54-6.05
					C130.77,273.5,139.41,273.18,148.11,273.64z"/>
			</g>
		</g>
		<polygon class="st3" points="204.25,298.19 204.11,298.91 203.63,301.27 186.01,389.9 97.41,389.9 101.59,312.39 101.71,310.26 
			102.03,304.33 102.09,303.23 102.36,298.19 		"/>
		<path class="st0" d="M132.08,304.43c-10.02-0.28-20.03-0.31-30.05-0.1l0.06-1.1c9.99-0.21,20-0.18,29.99,0.1
			C132.78,303.35,132.78,304.45,132.08,304.43z"/>
	</g>
	<g>
		<polygon class="st4" points="816.97,518.4 25.97,518.4 46.17,492.42 47,491.34 65.64,467.36 66.48,466.25 87.56,439.13 
			88.41,438.04 106.14,415.23 106.97,414.17 119.9,397.52 717.17,397.52 728.21,410.89 729.13,412 746.34,432.85 747.23,433.93 
			770.28,461.84 771.24,463.01 801.11,499.2 802.02,500.3 		"/>
		<path class="st0" d="M729.13,412c-24.32-0.01-48.65-0.53-72.96-1.23c-48.71-1.41-97.42-3.52-146.15-3.54
			c-49-0.02-97.98,2.06-146.92,4.35c-85.55,4-171.38,8.57-256.94,3.65l0.83-1.06c42.78,2.43,85.68,2.52,128.53,1.46
			c97.49-2.4,194.82-10.4,292.41-9.41c66.74,0.67,133.54,4.6,200.31,4.67L729.13,412z"/>
		<path class="st0" d="M747.23,433.93c-33.6,0.89-67.22,1.69-100.83,2.4c-101.75,2.12-203.53,3.37-305.31,3.73
			c-84.52,0.31-169.03,0-253.53-0.92l0.85-1.09c39.34,0.43,78.68,0.73,118.02,0.88c101.78,0.42,203.55-0.04,305.33-1.4
			c78.21-1.03,156.4-2.6,234.58-4.68L747.23,433.93z"/>
		<path class="st0" d="M771.24,463.01c-38.12-2.25-76.29-3.63-114.46-4.39c-106.3-2.1-212.62,0.67-318.89,3.64
			c-90.73,2.53-181.48,5.2-272.25,5.1l0.85-1.1c43.79,0.04,87.59-0.55,131.36-1.47c106.38-2.23,212.7-6.33,319.1-7.61
			c84.45-1.02,169-0.22,253.33,4.67L771.24,463.01z"/>
		<path class="st0" d="M802.02,500.3c-52.93,0.35-105.86,0.52-158.79,0.47c-106.26-0.05-212.51-0.88-318.76-2.47
			c-92.78-1.39-185.56-3.36-278.31-5.89l0.84-1.08c45.63,1.24,91.27,2.36,136.91,3.32c106.22,2.26,212.48,3.75,318.73,4.49
			c99.49,0.68,198.97,0.69,298.46,0.04L802.02,500.3z"/>
	</g>
	<g>
		<polygon class="st5" points="195.92,447.59 217.74,431.09 201.09,426.4 189.84,432.52 		"/>
		<polygon class="st0" points="216.26,424.95 215.3,431.85 195.27,446.33 194.83,440.84 194.73,432.29 		"/>
		<polygon class="st5" points="217.85,423.58 161.83,408.8 133.94,423.58 194.83,440.84 		"/>
		<polygon class="st5" points="133.94,423.58 134.99,430.39 195.92,447.59 194.78,435.99 		"/>
		<polygon class="st0" points="154.85,416.12 163.24,411.49 167.3,412.41 159.53,416.95 		"/>
		<g>
			<path class="st6" d="M193.81,440.49c-0.04,0-0.09-0.01-0.13-0.02l-58.25-16.09c-0.27-0.07-0.42-0.35-0.35-0.62
				c0.07-0.27,0.35-0.42,0.62-0.35l58.25,16.09c0.27,0.07,0.42,0.35,0.35,0.62C194.23,440.35,194.03,440.49,193.81,440.49z"/>
		</g>
	</g>
	<g>
		<path class="st7" d="M145.83,351.38c0,0-7.57,56.39-7.6,56.59c-0.14,1.23-0.49,3.04-1.8,3.39c-1.06,0.29-2.56,0.12-3.39-1.05
			c-1.15-1.62-0.44-4.54-0.29-6.39c0.22-2.61,0.45-5.22,0.67-7.83c0.65-7.61,2.6-42.16,2.6-42.16L145.83,351.38z"/>
		<path class="st7" d="M652.85,351.38c0,0-7.57,56.39-7.6,56.59c-0.14,1.23-0.49,3.04-1.8,3.39c-1.06,0.29-2.56,0.12-3.39-1.05
			c-1.15-1.62-0.44-4.54-0.29-6.39c0.22-2.61,0.44-5.22,0.67-7.83c0.65-7.61,2.6-42.16,2.6-42.16L652.85,351.38z"/>
		<path class="st8" d="M160.04,239.11c0,0,8.64-66.77,18.46-69.71c9.82-2.93,472.04-8.85,480.51,0c8.46,8.85-2.49,88.44-2.49,88.44
			l-1.26,63.89l-512.2,6.76L160.04,239.11z"/>
		<path class="st8" d="M127.7,304.2h545.63l-6.98,59.11c-0.2,1.66-1.61,2.91-3.28,2.91H126.19c-1.93,0-3.45-1.65-3.29-3.57
			L127.7,304.2z"/>
		<path class="st8" d="M127.7,304.2c0,0,7.36-84.9,25.69-84.16c18.33,0.73,0,96.12,0,96.12L127.7,304.2z"/>
		<path class="st8" d="M646.14,304.2c0,0,7.49-86.46,25.69-84.16c14.54,1.83,0,96.12,0,96.12L646.14,304.2z"/>
		<g>
			<path class="st9" d="M156.23,304.7c-0.27,0-0.5-0.22-0.5-0.5c0-0.28,0.22-0.5,0.5-0.5l491.35-3.36c0,0,0,0,0,0
				c0.27,0,0.5,0.22,0.5,0.5c0,0.28-0.22,0.5-0.5,0.5L156.23,304.7C156.23,304.7,156.23,304.7,156.23,304.7z"/>
		</g>
		<g>
			<path class="st9" d="M150.91,362.89c-0.01,0-0.03,0-0.04,0c-0.28-0.02-0.48-0.26-0.46-0.54l10.63-127.13
				c0.02-0.27,0.25-0.48,0.54-0.46c0.28,0.02,0.48,0.26,0.46,0.54l-10.63,127.13C151.39,362.69,151.17,362.89,150.91,362.89z"/>
		</g>
		<g>
			<path class="st9" d="M641.54,365.84c-0.02,0-0.04,0-0.06,0c-0.27-0.04-0.47-0.29-0.43-0.56l16.29-126.85
				c0.04-0.28,0.29-0.47,0.56-0.43c0.27,0.04,0.47,0.29,0.43,0.56l-16.29,126.85C642,365.66,641.79,365.84,641.54,365.84z"/>
		</g>
		<g>
			<path class="st9" d="M667.29,262.1c-0.09,0-0.18-0.01-0.28-0.02c-0.86-0.15-1.52-0.96-1.85-2.28c-0.3-1.19-0.32-2.69-0.06-4.23
				c0.26-1.54,0.78-2.95,1.45-3.97c0.75-1.14,1.64-1.68,2.5-1.54c0.86,0.15,1.52,0.96,1.85,2.28c0.3,1.19,0.32,2.69,0.06,4.23
				c-0.26,1.54-0.78,2.95-1.45,3.97C668.84,261.56,668.06,262.1,667.29,262.1z M668.79,251.04c-0.42,0-0.93,0.41-1.4,1.11
				c-0.6,0.91-1.06,2.18-1.3,3.59c-0.24,1.41-0.22,2.76,0.04,3.82c0.23,0.89,0.62,1.47,1.05,1.54c0.44,0.07,0.99-0.34,1.5-1.11
				c0.6-0.91,1.06-2.18,1.3-3.59l0,0c0.24-1.41,0.22-2.76-0.04-3.81c-0.23-0.89-0.62-1.47-1.05-1.54
				C668.85,251.04,668.82,251.04,668.79,251.04z"/>
		</g>
		<g>
			<path class="st9" d="M147.78,262.1c-0.09,0-0.18-0.01-0.27-0.02c-0.86-0.15-1.52-0.96-1.85-2.28c-0.3-1.19-0.32-2.69-0.06-4.23
				c0.26-1.54,0.78-2.95,1.45-3.97c0.75-1.14,1.64-1.69,2.5-1.54c0.86,0.15,1.52,0.96,1.85,2.28c0.3,1.19,0.32,2.69,0.06,4.23h0
				c-0.26,1.54-0.78,2.95-1.45,3.97C149.34,261.56,148.55,262.1,147.78,262.1z M149.28,251.04c-0.42,0-0.93,0.41-1.4,1.11
				c-0.6,0.91-1.06,2.18-1.3,3.59c-0.24,1.41-0.22,2.76,0.04,3.82c0.23,0.89,0.62,1.47,1.05,1.54c0.43,0.07,0.99-0.34,1.5-1.11
				c0.6-0.91,1.06-2.18,1.3-3.59l0,0c0.24-1.41,0.22-2.76-0.04-3.81c-0.23-0.89-0.62-1.47-1.05-1.54
				C149.35,251.04,149.32,251.04,149.28,251.04z"/>
		</g>
		<g>
			<path class="st9" d="M643.4,349.4H152.04c-0.28,0-0.5-0.22-0.5-0.5s0.22-0.5,0.5-0.5H643.4c0.28,0,0.5,0.22,0.5,0.5
				S643.67,349.4,643.4,349.4z"/>
		</g>
		<g>
			<path class="st9" d="M496.92,301.34c-0.02,0-0.04,0-0.06,0c-0.27-0.03-0.47-0.28-0.44-0.55l14.21-126.51
				c0.03-0.28,0.28-0.47,0.55-0.44c0.27,0.03,0.47,0.28,0.44,0.55L497.41,300.9C497.38,301.15,497.17,301.34,496.92,301.34z"/>
		</g>
		<g>
			<path class="st9" d="M319.78,301.34c-0.02,0-0.04,0-0.06,0c-0.27-0.03-0.47-0.28-0.44-0.55l14.21-126.51
				c0.03-0.28,0.28-0.47,0.55-0.44c0.27,0.03,0.47,0.28,0.44,0.55L320.28,300.9C320.25,301.15,320.03,301.34,319.78,301.34z"/>
		</g>
	</g>
	<g>
		<path class="st3" d="M598.14,259.5c-5.53-4.93-11.78-8.82-18.63-11.59c-7.28-2.94-14.94-4.92-22.44-7.14
			c-3.75-1.12-7.51-2.23-11.26-3.36c-3.42-1.01-7.12-2.66-10.65-3.15c-5.4-0.73-7.55,5.86-8.97,10.84c-0.36,1.29-0.68,2.45-1,3.38
			c-3.28,9.65-9.84,17.71-14.83,26.5c-2.75,4.88-7.88,11.16-9.05,16.74c-0.35,1.73,1.23,3.19,2.62,4.03
			c4.48,2.69,10.05,4.34,15.35,5.97c2.11,0.64,4.18,1.28,6.12,1.98c0.45,0.17,0.91,0.33,1.36,0.5c6.33,2.29,12.64,4.56,18.9,6.98
			c1.46,0.56,2.93,1.13,4.38,1.73c5.04,2.01,10.05,4.16,14.97,6.5c1.65,0.79,3.29,1.6,4.95,2.37c0.89,0.41,2.07,1.18,3.13,0.81
			c1.82-0.63,2.7-3.8,3.49-5.31c1.75-3.38,3.43-6.8,5.04-10.25c0.44-0.95,0.88-1.89,1.3-2.84c0.44-0.98,0.88-1.95,1.3-2.93
			c5.8-13.3,10.5-27.06,14.1-41.12C598.38,259.89,598.33,259.69,598.14,259.5z"/>
		<path class="st0" d="M542.74,242.32c-2.74,1.67-5.35,3.54-7.85,5.58c-0.21,0.18-0.22,0.4-0.12,0.58c0.02,0.14,0.1,0.28,0.25,0.36
			c1.29,0.76,2.34,1.67,3.28,2.83c0.22,0.25,0.73,0.19,0.87-0.11c1.34-2.88,2.78-5.71,4.33-8.5
			C543.75,242.61,543.23,242.02,542.74,242.32z"/>
		<path class="st0" d="M538.32,263.35c-2.74,1.68-5.36,3.54-7.85,5.59c-0.21,0.18-0.22,0.4-0.12,0.57c0.02,0.14,0.1,0.28,0.25,0.37
			c1.29,0.76,2.34,1.67,3.28,2.82c0.22,0.26,0.73,0.2,0.87-0.11c1.34-2.88,2.78-5.71,4.33-8.49
			C539.33,263.64,538.8,263.07,538.32,263.35z"/>
		<path class="st0" d="M533.15,288.68c-2.74,1.67-5.36,3.54-7.85,5.58c-0.21,0.18-0.22,0.4-0.12,0.58c0.02,0.14,0.1,0.28,0.25,0.36
			c1.29,0.76,2.34,1.67,3.28,2.83c0.22,0.25,0.73,0.19,0.87-0.11c1.34-2.88,2.78-5.71,4.33-8.5
			C534.17,288.96,533.64,288.38,533.15,288.68z"/>
		<path class="st0" d="M510.3,284.46c-2.75,1.67-5.36,3.53-7.85,5.58c-0.21,0.18-0.22,0.4-0.12,0.58c0.02,0.13,0.09,0.26,0.25,0.36
			c1.29,0.76,2.33,1.67,3.28,2.82c0.21,0.26,0.73,0.2,0.87-0.11c1.34-2.88,2.77-5.71,4.31-8.49
			C511.32,284.74,510.79,284.17,510.3,284.46z"/>
		<path class="st0" d="M563.22,277.89c-2.74,1.67-5.35,3.53-7.85,5.58c-0.21,0.18-0.22,0.4-0.12,0.58c0.02,0.13,0.1,0.26,0.25,0.36
			c1.29,0.76,2.34,1.67,3.28,2.82c0.22,0.26,0.73,0.2,0.87-0.11c1.34-2.87,2.78-5.7,4.33-8.49
			C564.24,278.17,563.71,277.59,563.22,277.89z"/>
		<path class="st0" d="M574.23,297.8c-1.8,1.1-3.57,2.3-5.26,3.58c-0.88,0.64-1.74,1.31-2.59,2c-0.21,0.18-0.22,0.4-0.12,0.58
			c0.01,0.09,0.04,0.17,0.11,0.23c0.03,0.06,0.08,0.1,0.14,0.13c1.29,0.76,2.34,1.67,3.28,2.83c0.22,0.25,0.73,0.19,0.87-0.11
			c0.44-0.96,0.9-1.9,1.38-2.85c0.46-0.96,0.95-1.9,1.45-2.85c0.48-0.94,0.98-1.87,1.5-2.8
			C575.24,298.09,574.71,297.51,574.23,297.8z"/>
		<path class="st0" d="M563.22,252.14c-2.74,1.68-5.35,3.54-7.85,5.58c-0.21,0.18-0.22,0.41-0.12,0.58c0.02,0.14,0.1,0.28,0.25,0.37
			c1.29,0.75,2.34,1.66,3.28,2.82c0.22,0.26,0.73,0.19,0.87-0.11c1.34-2.88,2.78-5.71,4.33-8.5
			C564.24,252.42,563.71,251.84,563.22,252.14z"/>
		<path class="st0" d="M552.17,306.64c-2.27,1.39-4.44,2.89-6.52,4.53c1.46,0.56,2.93,1.13,4.38,1.73c0.91-1.86,1.88-3.69,2.88-5.5
			C553.19,306.93,552.66,306.35,552.17,306.64z"/>
	</g>
	<g>
		<path class="st5" d="M649.2,249.09c-2.33-4.32-5.54-8.38-8.97-12.29c-3.2-3.65-6.79-7.2-11.23-9.32
			c-5.65-2.69-11.35-2.18-16.8-0.29c-5.41-0.29-10.8-0.3-16.01,1.52c-7.72,2.7-16.58,8.33-21,15.38c-2.38,3.79-3.05,8.17-3.52,12.54
			c-0.61,5.64-1.24,11.28-1.73,16.93c-0.39,4.53-0.35,9.1,1.61,13.29c1.66,3.55,4.4,6.46,7.5,8.81c3.37,2.56,7.26,4.65,11.24,6.07
			c4.9,1.75,9.62,0,14.62-0.02c5.11-0.02,9.85,1.29,14.93,0.15c5.23-1.18,10.07-3.93,14.12-7.39c6.95-5.93,14.08-14.66,17.26-23.31
			C654.25,262.94,652.77,255.71,649.2,249.09z"/>
		<path class="st6" d="M606.88,259.02c-2.89-1.29-6.53,3.53-4.62,3.97c1.86,0.42,4.84,0.09,5.55-2.02
			C608.1,260.14,607.65,259.36,606.88,259.02z M605.97,261.42c-0.94,0.57-2.21,0.82-3.23,0.45c-0.11-0.04,2.62-1.99,2.96-1.98
			c0.49,0.02,0.61,0.01,0.81,0.5C606.74,260.96,606.48,261.11,605.97,261.42z"/>
		<path class="st6" d="M636.98,235.51c-0.46-0.54-1.23,0.24-0.78,0.78c6.68,7.95,12.92,18.99,6.23,28.9
			c-1.16,1.72-2.44,3.31-3.15,5.28c-0.68,1.88-0.86,3.88-1.42,5.79c-1.37,4.67-6.04,7.13-8.97,10.79c-3.5,4.37-6.59,7.38-12.49,7.91
			c-4.88,0.44-9.87,0.3-14.73-0.18c-3.68-0.37-7.24-0.66-10.73-1.47c0.25-0.08,0.43-0.31,0.33-0.63
			c-1.68-5.17,0.43-10.33,2.75-14.94c2.11-4.2,4.72-8.1,7.72-11.71c0.45-0.54-0.32-1.32-0.78-0.78c-3.47,4.17-6.44,8.71-8.72,13.64
			c-2.06,4.44-3.61,9.25-2.04,14.08c0.02,0.08,0.06,0.14,0.11,0.19c-1.56-0.4-3.1-0.89-4.63-1.58c-4.31-1.93-9.09-4.29-10.65-9.1
			c-0.22-0.67-1.28-0.38-1.06,0.29c1.04,3.21,3.33,5.45,6.15,7.2c3.32,2.06,7.3,3.98,11.15,4.71c4.31,0.81,8.84,1.16,13.21,1.46
			c4.56,0.32,9.46,0.43,13.98-0.31c3.87-0.63,6.68-2.53,9.18-5.48c1.22-1.43,2.31-2.96,3.57-4.37c1.4-1.57,3.09-2.76,4.61-4.2
			c3.03-2.88,3.06-6.44,4.26-10.2c1.3-4.09,4.73-6.96,5.8-11.18C648.25,251.01,642.74,242.37,636.98,235.51z"/>
		<path class="st6" d="M596.53,283c-0.76,3.25-1.13,6.52-1.11,9.86c0,0.71,1.1,0.71,1.1,0c-0.02-3.24,0.33-6.42,1.07-9.57
			C597.75,282.6,596.69,282.31,596.53,283z"/>
		<path class="st6" d="M635.68,265.93c-3.79-2.56-8.65-4.18-13.03-5.37c-4.2-1.14-8.52-1.43-12.69-0.01
			c-0.67,0.23-0.38,1.29,0.29,1.06c4.34-1.48,8.75-1,13.07,0.29c4,1.2,8.33,2.63,11.8,4.98
			C635.71,267.28,636.27,266.33,635.68,265.93z"/>
		<path class="st6" d="M612.47,247.4c-1.19,3.05-2.58,5.99-4.18,8.85c-0.35,0.62,0.6,1.17,0.95,0.56c1.64-2.94,3.07-5.98,4.29-9.11
			C613.78,247.04,612.72,246.75,612.47,247.4z"/>
		<path class="st6" d="M602.35,252.87c-4.65-5.98-11.13-10.08-18.52-11.73c-0.69-0.15-0.98,0.91-0.29,1.06
			c7.23,1.61,13.49,5.6,18.03,11.45C602.01,254.21,602.78,253.43,602.35,252.87z"/>
	</g>
	<g>
		<path class="st10" d="M765.14,164.6c-16.53,24.39-28.87,51.43-36.47,79.89c-0.18,0.69,0.88,0.98,1.06,0.29
			c7.58-28.38,19.89-55.32,36.36-79.63C766.49,164.57,765.54,164.02,765.14,164.6z"/>
		<path class="st10" d="M755.23,132.53c-11.31,34.69-20.69,69.98-28.08,105.71c-0.14,0.69,0.92,0.99,1.06,0.29
			c7.39-35.73,16.76-71.03,28.08-105.71C756.51,132.14,755.45,131.85,755.23,132.53z"/>
		<path class="st10" d="M728.31,159.01c-5.34,21.38-7.46,43.42-6.3,65.43c0.04,0.7,1.14,0.71,1.1,0
			c-1.16-21.91,0.94-43.85,6.26-65.13C729.55,158.62,728.48,158.32,728.31,159.01z"/>
		<path class="st10" d="M690.76,154.05c-0.36-0.61-1.31-0.05-0.95,0.56c14.42,24.15,23.91,50.98,27.91,78.82
			c0.1,0.7,1.16,0.4,1.06-0.29C714.77,205.2,705.23,178.27,690.76,154.05z"/>
		<path class="st7" d="M775.79,149.36c-0.44,0.08-0.86,0.31-1.23,0.56c-4.16,2.8-6.7,7.5-9.33,11.63c-0.5,0.79-3.03,5.76-0.27,5.45
			c0.65-0.07,1.14-0.59,1.58-1.07c4.1-4.49,8.28-9.11,10.56-14.75c0.13-0.32,0.25-0.66,0.18-1c-0.11-0.53-0.69-0.86-1.24-0.84
			C775.96,149.34,775.87,149.34,775.79,149.36z"/>
		<path class="st7" d="M761,113.76c-0.17,0.21-0.31,0.45-0.42,0.69c-1.85,3.77-3.41,7.68-4.65,11.69c-0.32,1.04-3.59,10.56-0.41,9.7
			c0.66-0.18,1.03-0.87,1.31-1.49c2.74-6.05,4.78-12.43,6.06-18.95c0.17-0.85,0.11-2.05-0.75-2.21
			C761.68,113.1,761.3,113.38,761,113.76z"/>
		<path class="st7" d="M731.01,141.28c-0.52,0.7-0.73,1.65-0.99,2.47c-0.69,2.12-1.28,4.29-1.68,6.48c-0.4,2.23-1.38,7.17-0.2,9.32
			c0.29,0.53,0.95,0.91,1.51,0.68c0.26-0.11,0.45-0.32,0.62-0.55c0.71-0.93,1.49-3.21,1.68-4.36c1-6,1.69-8.19,1.25-12.94
			c-0.07-0.78-0.43-1.78-1.2-1.72C731.59,140.7,731.27,140.93,731.01,141.28z"/>
		<path class="st7" d="M692.08,155.62c-0.06-0.29-0.19-0.59-0.3-0.85c-2.07-4.76-4.2-9.62-7.73-13.43c-0.49-0.53-1.04-1.05-1.75-1.2
			c-4.35-0.92,1.48,9.77,2.26,10.94c0.7,1.04,5.92,7.99,7.39,5.58C692.15,156.34,692.16,155.98,692.08,155.62z"/>
		<g>
			<path class="st11" d="M741.47,389.84c-5.86,0.18-32.67,0.55-34.49,0c-0.69-0.21-3.98-14.04-7.52-31.84
				c-0.09-0.44-0.18-0.88-0.26-1.32c-0.18-0.9-0.35-1.83-0.54-2.75c-0.08-0.44-0.17-0.89-0.25-1.34
				c-5.45-28.33-10.91-63.71-7.96-71.49c0.01-0.01,0.02-0.03,0.02-0.04c0.19-0.5,0.4-0.99,0.63-1.47
				c5.68-12.51,20.56-22.36,20.56-22.36l-3.95-38.94h38.9l-0.74,4.17l-0.28,1.55l-0.56,3.18l-0.28,1.5l-4.99,28.17
				c0,0,8.83,7.58,14.57,16.43c0.21,0.32,0.42,0.65,0.62,0.97c2.12,3.43,3.72,7.02,4.12,10.4
				C760.54,297.11,747.33,389.65,741.47,389.84z"/>
			<g>
				<path class="st0" d="M729.66,233.61c-1.68,2.07-3.45,4.06-5.31,5.97c-0.5,0.51,0.28,1.29,0.78,0.78
					c1.86-1.91,3.64-3.89,5.31-5.97C730.87,233.84,730.1,233.06,729.66,233.61z"/>
				<path class="st0" d="M732.2,235.81c-1.68,2.07-3.45,4.06-5.31,5.97c-0.5,0.51,0.28,1.29,0.78,0.78
					c1.87-1.91,3.64-3.89,5.31-5.97C733.42,236.05,732.65,235.26,732.2,235.81z"/>
			</g>
			<g>
				<path class="st0" d="M708.56,309.21c-1.68,2.07-3.45,4.06-5.31,5.97c-0.5,0.51,0.28,1.29,0.78,0.78
					c1.86-1.91,3.64-3.89,5.31-5.97C709.78,309.44,709,308.66,708.56,309.21z"/>
				<path class="st0" d="M711.1,311.41c-1.68,2.07-3.45,4.06-5.31,5.97c-0.5,0.51,0.28,1.29,0.78,0.78
					c1.86-1.91,3.64-3.89,5.31-5.97C712.32,311.64,711.55,310.86,711.1,311.41z"/>
			</g>
			<g>
				<path class="st0" d="M746.87,278.14c-1.68,2.07-3.45,4.06-5.31,5.97c-0.5,0.51,0.28,1.29,0.78,0.78
					c1.86-1.91,3.64-3.89,5.31-5.97C748.09,278.38,747.32,277.59,746.87,278.14z"/>
				<path class="st0" d="M749.42,280.34c-1.68,2.07-3.45,4.06-5.31,5.97c-0.5,0.51,0.28,1.29,0.78,0.78
					c1.86-1.91,3.64-3.89,5.31-5.97C750.64,280.58,749.86,279.79,749.42,280.34z"/>
			</g>
			<g>
				<path class="st0" d="M701.92,350.15c-1.05,1.29-2.12,2.55-3.26,3.78c-0.08-0.44-0.17-0.89-0.25-1.34
					c0.94-1.05,1.85-2.12,2.74-3.21C701.59,348.82,702.37,349.6,701.92,350.15z"/>
				<path class="st0" d="M704.47,352.35c-1.6,1.96-3.25,3.84-5.01,5.65c-0.09-0.44-0.18-0.88-0.26-1.32
					c1.57-1.64,3.07-3.35,4.49-5.11C704.14,351.02,704.91,351.8,704.47,352.35z"/>
			</g>
			<g>
				<path class="st0" d="M710.47,266.82c-1.68,2.07-3.45,4.06-5.31,5.97c-0.5,0.51,0.28,1.29,0.78,0.78
					c1.86-1.91,3.64-3.89,5.31-5.97C711.69,267.06,710.92,266.27,710.47,266.82z"/>
				<path class="st0" d="M713.02,269.03c-1.68,2.07-3.45,4.06-5.31,5.97c-0.5,0.51,0.28,1.29,0.78,0.78
					c1.86-1.91,3.64-3.89,5.31-5.97C714.24,269.26,713.46,268.47,713.02,269.03z"/>
			</g>
			<g>
				<path class="st0" d="M744.95,305.66c-1.68,2.07-3.45,4.06-5.31,5.97c-0.5,0.51,0.28,1.29,0.78,0.78
					c1.86-1.91,3.64-3.89,5.31-5.97C746.17,305.89,745.4,305.11,744.95,305.66z"/>
				<path class="st0" d="M747.5,307.86c-1.68,2.07-3.45,4.06-5.31,5.97c-0.5,0.51,0.28,1.29,0.78,0.78
					c1.87-1.91,3.64-3.89,5.31-5.97C748.72,308.1,747.95,307.31,747.5,307.86z"/>
			</g>
			<g>
				<path class="st0" d="M714.86,373.73c-1.68,2.07-3.45,4.06-5.31,5.97c-0.5,0.51,0.28,1.29,0.78,0.78
					c1.86-1.91,3.64-3.89,5.31-5.97C716.08,373.96,715.3,373.18,714.86,373.73z"/>
				<path class="st0" d="M717.4,375.93c-1.68,2.07-3.45,4.06-5.31,5.97c-0.5,0.51,0.28,1.29,0.78,0.78
					c1.86-1.91,3.64-3.89,5.31-5.97C718.62,376.16,717.85,375.38,717.4,375.93z"/>
			</g>
			<g>
				<path class="st0" d="M725.67,346.92c-1.68,2.07-3.45,4.06-5.31,5.97c-0.5,0.51,0.28,1.29,0.78,0.78
					c1.87-1.91,3.64-3.89,5.31-5.97C726.89,347.15,726.12,346.37,725.67,346.92z"/>
				<path class="st0" d="M728.22,349.12c-1.68,2.07-3.45,4.06-5.31,5.97c-0.5,0.51,0.28,1.29,0.78,0.78
					c1.86-1.91,3.64-3.89,5.31-5.97C729.44,349.35,728.66,348.57,728.22,349.12z"/>
			</g>
			<g>
				<path class="st0" d="M719.36,227.04c-1.6-2.13-3.09-4.34-4.48-6.61c-0.37-0.6-1.32-0.04-0.95,0.56
					c1.39,2.28,2.88,4.48,4.48,6.61C718.84,228.17,719.79,227.61,719.36,227.04z"/>
				<path class="st0" d="M716.61,228.97c-1.6-2.13-3.09-4.34-4.48-6.61c-0.37-0.6-1.32-0.04-0.95,0.56
					c1.39,2.28,2.88,4.48,4.48,6.61C716.08,230.09,717.03,229.54,716.61,228.97z"/>
			</g>
			<g>
				<path class="st0" d="M745.86,222.44l-0.28,1.55c-0.67-0.98-1.31-1.98-1.94-3c-0.36-0.61,0.58-1.17,0.95-0.56
					C745.02,221.11,745.44,221.78,745.86,222.44z"/>
				<path class="st0" d="M745.03,227.17l-0.28,1.5c-1.36-1.86-2.65-3.78-3.85-5.76c-0.37-0.61,0.57-1.17,0.95-0.56
					C742.85,224,743.91,225.61,745.03,227.17z"/>
			</g>
			<g>
				<path class="st0" d="M736.06,262.94c-1.6-2.13-3.09-4.34-4.48-6.61c-0.37-0.6-1.32-0.04-0.95,0.56
					c1.39,2.28,2.88,4.48,4.48,6.61C735.54,264.07,736.49,263.51,736.06,262.94z"/>
				<path class="st0" d="M733.3,264.87c-1.6-2.13-3.09-4.34-4.48-6.61c-0.37-0.6-1.32-0.04-0.95,0.56c1.39,2.28,2.88,4.48,4.48,6.61
					C732.78,265.99,733.73,265.43,733.3,264.87z"/>
			</g>
			<g>
				<path class="st0" d="M726.51,328.79c-1.6-2.13-3.09-4.34-4.48-6.61c-0.37-0.6-1.32-0.04-0.95,0.56
					c1.39,2.28,2.88,4.48,4.48,6.61C725.99,329.92,726.94,329.36,726.51,328.79z"/>
				<path class="st0" d="M723.75,330.72c-1.6-2.13-3.09-4.34-4.48-6.61c-0.37-0.6-1.32-0.04-0.95,0.56
					c1.39,2.28,2.88,4.48,4.48,6.61C723.23,331.84,724.18,331.28,723.75,330.72z"/>
			</g>
			<g>
				<path class="st0" d="M741.89,371.94c-1.6-2.13-3.09-4.34-4.48-6.61c-0.37-0.6-1.32-0.04-0.95,0.56
					c1.39,2.28,2.88,4.48,4.48,6.61C741.37,373.06,742.32,372.5,741.89,371.94z"/>
				<path class="st0" d="M739.14,373.86c-1.6-2.13-3.09-4.34-4.48-6.61c-0.37-0.6-1.32-0.04-0.95,0.56
					c1.39,2.28,2.88,4.48,4.48,6.61C738.61,374.99,739.56,374.43,739.14,373.86z"/>
			</g>
			<g>
				<path class="st0" d="M700.03,294.29c-1.6-2.13-3.09-4.34-4.48-6.61c-0.37-0.6-1.32-0.04-0.95,0.56
					c1.39,2.28,2.88,4.48,4.48,6.61C699.5,295.41,700.45,294.86,700.03,294.29z"/>
				<path class="st0" d="M697.27,296.22c-1.6-2.13-3.09-4.34-4.48-6.61c-0.37-0.6-1.32-0.04-0.95,0.56
					c1.39,2.28,2.88,4.48,4.48,6.61C696.75,297.34,697.69,296.78,697.27,296.22z"/>
			</g>
			<g>
				<path class="st0" d="M727.94,294.29c-1.6-2.13-3.09-4.34-4.48-6.61c-0.37-0.6-1.32-0.04-0.95,0.56
					c1.39,2.28,2.88,4.48,4.48,6.61C727.42,295.41,728.37,294.86,727.94,294.29z"/>
				<path class="st0" d="M725.18,296.22c-1.6-2.13-3.09-4.34-4.48-6.61c-0.37-0.6-1.32-0.04-0.95,0.56
					c1.39,2.28,2.88,4.48,4.48,6.61C724.66,297.34,725.61,296.78,725.18,296.22z"/>
			</g>
			<g>
				<path class="st0" d="M751.22,341.73c-1.6-2.13-3.09-4.34-4.48-6.61c-0.37-0.6-1.32-0.04-0.95,0.56
					c1.39,2.28,2.88,4.48,4.48,6.61C750.69,342.85,751.64,342.29,751.22,341.73z"/>
				<path class="st0" d="M748.46,343.65c-1.6-2.13-3.09-4.34-4.48-6.61c-0.37-0.6-1.32-0.04-0.95,0.56
					c1.39,2.28,2.88,4.48,4.48,6.61C747.94,344.78,748.89,344.22,748.46,343.65z"/>
			</g>
		</g>
	</g>
	<g>
		<g>
			<path class="st12" d="M203.41,374.32c-0.33,3.11-0.51,6.23-0.53,9.36c-0.01,1.42,2.19,1.42,2.2,0c0.02-3.13,0.2-6.25,0.53-9.36
				C205.76,372.91,203.55,372.92,203.41,374.32z"/>
			<path class="st12" d="M209.14,367.48c-1.47,4.94-2.04,9.96-1.71,15.1c0.09,1.41,2.29,1.42,2.2,0c-0.32-4.95,0.22-9.76,1.63-14.52
				C211.67,366.7,209.55,366.12,209.14,367.48z"/>
			<path class="st12" d="M213.68,367.59c-0.94,3.72-1.43,7.48-1.47,11.32c-0.02,1.42,2.19,1.42,2.2,0c0.04-3.64,0.5-7.2,1.39-10.73
				C216.15,366.8,214.03,366.22,213.68,367.59z"/>
			<path class="st12" d="M218.99,362.95c-0.03-1.41-2.24-1.42-2.2,0c0.11,4.36,0.51,8.67,1.19,12.98c0.22,1.4,2.34,0.8,2.12-0.59
				C219.45,371.23,219.09,367.11,218.99,362.95z"/>
			<path class="st12" d="M222.15,363.68v11.92c0,1.42,2.2,1.42,2.2,0v-11.92C224.35,362.27,222.15,362.26,222.15,363.68z"/>
			<path class="st12" d="M229.95,363.5c-0.05-1.41-2.25-1.42-2.2,0c0.12,3.42,0.23,6.85,0.35,10.27c0.05,1.41,2.25,1.42,2.2,0
				C230.18,370.35,230.06,366.92,229.95,363.5z"/>
			<path class="st12" d="M236.48,359.46c-0.16,4.23-0.47,8.45-0.93,12.66c-0.16,1.41,2.05,1.39,2.2,0
				c0.47-4.21,0.78-8.43,0.93-12.66C238.73,358.05,236.53,358.05,236.48,359.46z"/>
			<path class="st12" d="M241.13,359.36c-0.78,3.79-1.26,7.61-1.43,11.47c-0.06,1.42,2.14,1.41,2.2,0
				c0.17-3.67,0.61-7.29,1.35-10.89C243.53,358.57,241.41,357.98,241.13,359.36z"/>
			<path class="st12" d="M246.4,356.16l-0.35,12.47c-0.04,1.42,2.16,1.42,2.2,0l0.35-12.47
				C248.64,354.75,246.44,354.75,246.4,356.16z"/>
			<path class="st12" d="M250.94,355.13c-0.24-1.39-2.36-0.8-2.12,0.59c0.63,3.67,1.03,7.36,1.21,11.09c0.07,1.41,2.27,1.42,2.2,0
				C252.04,362.88,251.61,359,250.94,355.13z"/>
			<path class="st12" d="M300.42,325.63c0.26-1.38-1.86-1.98-2.12-0.59c-0.58,3.07-0.84,6.16-0.75,9.28c0.04,1.41,2.24,1.42,2.2,0
				C299.67,331.4,299.88,328.52,300.42,325.63z"/>
			<path class="st12" d="M295.21,327.37c0.14-1.41-2.06-1.4-2.2,0c-0.39,3.98-0.24,7.89,0.4,11.84c0.22,1.39,2.35,0.8,2.12-0.59
				C294.93,334.88,294.84,331.14,295.21,327.37z"/>
			<path class="st12" d="M287.54,329.56c0.02,4.41-0.16,8.82-0.53,13.22c-0.12,1.41,2.08,1.4,2.2,0c0.37-4.4,0.55-8.8,0.53-13.22
				C289.74,328.15,287.54,328.15,287.54,329.56z"/>
			<path class="st12" d="M282.38,333.6c-0.31,4.2-0.77,8.37-1.4,12.53c-0.21,1.39,1.91,1.98,2.12,0.59
				c0.66-4.35,1.15-8.72,1.48-13.12C284.69,332.19,282.49,332.2,282.38,333.6z"/>
			<path class="st12" d="M279.25,337.73c0.2-1.39-1.92-1.98-2.12-0.59c-0.61,4.25-0.82,8.49-0.56,12.79c0.08,1.41,2.28,1.42,2.2,0
				C278.52,345.84,278.67,341.78,279.25,337.73z"/>
			<path class="st12" d="M270.76,342.59v11.01c0,1.42,2.2,1.42,2.2,0v-11.01C272.96,341.17,270.76,341.17,270.76,342.59z"/>
			<path class="st12" d="M265.45,345.89c-0.1,5.2-1.01,10.21-2.72,15.12c-0.47,1.34,1.66,1.92,2.12,0.59
				c1.78-5.09,2.7-10.31,2.8-15.7C267.68,344.47,265.48,344.47,265.45,345.89z"/>
			<path class="st12" d="M259.11,352.86c-0.14,3.73-0.24,7.46-0.29,11.19c-0.02,1.42,2.18,1.42,2.2,0
				c0.06-3.73,0.16-7.46,0.29-11.19C261.36,351.44,259.16,351.44,259.11,352.86z"/>
			<path class="st12" d="M257.26,366.35c-0.98-3.22-1.35-6.46-1.14-9.82c0.09-1.41-2.11-1.41-2.2,0c-0.23,3.54,0.18,7.01,1.22,10.4
				C255.55,368.28,257.68,367.71,257.26,366.35z"/>
		</g>
		<path class="st0" d="M351.78,165.56c-0.01-0.48-0.03-0.97-0.04-1.45c-0.01-0.3-0.24-0.54-0.55-0.55l-12.55-0.21
			c-3.85-1.21-7.81-2.06-11.86-2.39c-6.48-0.53-13.1,0.13-19.58,0.43c-6.79,0.32-13.59,0.53-20.37,0.94
			c-1.83,0.11-3.64,0.29-5.02,1.62c-0.72,0.68-1.27,1.58-1.72,2.56c-0.63,1.34-1.08,2.83-1.52,4.07
			c-1.94,5.47-3.03,11.23-3.26,17.02c-0.13,3.32,0.01,6.65-0.23,9.97c-0.28,3.64-1.22,7-2.4,10.45c-1.97,5.76-3.24,11.49-3.65,17.57
			c-0.45,6.55-0.05,13.09-0.17,19.64c-0.13,7.67-2.67,14.51-4.66,21.83c-1.65,6.12-2.97,12.33-4.22,18.56
			c-0.17,0.83-12.73,4.12-14.24,4.6c-6.41,2.03-13.71,0.32-19.8,3.27c-3.81,1.84-6.46,5.81-8.2,10.31
			c-0.07,0.14-0.12,0.28-0.17,0.42c-1.76,4.74-2.53,10.04-2.58,14.07c-0.03,3.13,0.08,6.22-0.18,9.29
			c-0.17,1.93-0.47,3.84-1.05,5.76c-1.36,4.52-3.65,8.7-5.48,13.03c-0.35,0.85-0.69,1.71-1.01,2.56c-2.1,5.58-3.48,11.4-4.12,17.31
			c-0.43,3.85-0.54,7.75-0.35,11.64c0.01,0.18,0.11,0.35,0.25,0.45c0.12,0.1,0.28,0.13,0.44,0.08c0.62-0.22,1.22-0.46,1.81-0.74
			c0.74-0.34,1.45-0.73,2.15-1.14c0.8-0.46,1.6-0.97,2.37-1.5c0.94-0.62,1.86-1.25,2.8-1.88c0.61-0.41,1.22-0.8,1.85-1.19
			c0.2-0.12,0.4-0.23,0.61-0.34c0.73-0.41,1.45-0.75,2.2-1.03c0.7-0.26,1.41-0.5,2.14-0.68c0.89-0.24,1.81-0.43,2.73-0.57
			c0.73-0.12,1.46-0.22,2.2-0.3c1.18-0.14,2.38-0.24,3.58-0.36c0.72-0.07,1.43-0.14,2.15-0.23c0.01,0,0.03,0,0.04-0.01
			c1.97-0.23,3.93-0.56,5.88-0.99c0.75-0.15,1.5-0.33,2.25-0.53c0.59-0.15,1.2-0.31,1.79-0.48c0.22-0.06,0.43-0.12,0.64-0.19
			c0.55-0.15,1.1-0.33,1.64-0.52c1.3-0.41,2.6-0.88,3.86-1.39c0.75-0.3,1.49-0.61,2.22-0.94c0.45-0.19,0.9-0.4,1.34-0.61
			c0.7-0.33,1.41-0.67,2.1-1.02c0.7-0.36,1.4-0.74,2.09-1.13c0.73-0.4,1.44-0.81,2.15-1.24c0.06-0.03,0.11-0.07,0.17-0.1
			c0.94-0.57,1.85-1.18,2.73-1.82c0.77-0.54,1.52-1.11,2.26-1.7c1.23-0.96,2.42-1.97,3.59-3c0.86-0.75,1.7-1.51,2.53-2.27
			c0.57-0.53,1.14-1.06,1.72-1.58c0.56-0.53,1.13-1.05,1.7-1.56c0.73-0.67,1.46-1.34,2.2-1.99c1.19-1.07,2.39-2.1,3.63-3.1
			c0.76-0.62,1.54-1.21,2.33-1.78c0.25-0.2,0.51-0.37,0.77-0.56c0.74-0.52,1.5-1.02,2.26-1.5c0.77-0.5,1.55-0.97,2.34-1.43
			c1.03-0.61,2.09-1.2,3.15-1.79c0.75-0.43,1.5-0.85,2.25-1.28c1.05-0.61,2.09-1.21,3.11-1.86c0.75-0.46,1.47-0.94,2.19-1.44
			c0.97-0.66,1.9-1.35,2.8-2.11c0.57-0.46,1.13-0.96,1.67-1.47c0.2-0.19,0.4-0.39,0.58-0.58c0.1-0.1,0.2-0.2,0.29-0.3
			c2.08-2.21,3.69-4.79,4.55-7.72c1.12-3.83,0.86-8.27,2.86-11.81c0.57-1.01,1.33-1.79,2.21-2.41c0.62-0.43,1.29-0.78,2.01-1.07
			c3.41-1.33,7.78-1.21,11.12-1.58c4.16-0.47,9.65-0.2,13.44-2.21c3.54-1.89,4.19-6.12,4.75-9.72c0.81-5.27,1.29-10.6,1.56-15.93
			c0.58-11.3,0.31-22.63,0.74-33.94C344.55,214.85,352.32,190.53,351.78,165.56z"/>
		<g>
			<path class="st13" d="M239.7,294.86c-0.23,0-0.44-0.16-0.49-0.39c-0.06-0.27,0.11-0.54,0.38-0.59
				c0.15-0.03,14.91-3.15,28.58-2.14c4.3,0.32,7.62,0.74,10.55,1.1c6.46,0.81,11.13,1.39,20.56,0.26
				c10.29-1.23,15.23-0.04,17.6,0.53c0.56,0.13,1.13,0.27,1.28,0.23c0.8-0.32,10.7-7.16,17.16-11.68c0.23-0.16,0.54-0.1,0.7,0.12
				c0.16,0.23,0.1,0.54-0.12,0.7c-2.72,1.91-16.35,11.43-17.4,11.8c-0.41,0.14-0.92,0.02-1.84-0.2c-2.32-0.56-7.14-1.72-17.25-0.51
				c-9.55,1.15-14.27,0.56-20.81-0.26c-2.92-0.36-6.23-0.78-10.5-1.1c-13.53-1.01-28.15,2.08-28.29,2.12
				C239.77,294.86,239.73,294.86,239.7,294.86z"/>
		</g>
		<g>
			<path class="st13" d="M243.1,344.73c-0.16,0-0.33-0.08-0.42-0.23c-0.15-0.23-0.08-0.54,0.15-0.69c0.1-0.06,10-6.47,16.27-14.49
				c1.85-2.36,3.13-4.45,4.36-6.46c3.05-4.97,5.68-9.26,15.37-15.56c13.48-8.76,28.58-11.24,28.73-11.26
				c0.27-0.04,0.53,0.14,0.57,0.42c0.04,0.27-0.14,0.53-0.42,0.57c-0.15,0.02-15.05,2.47-28.34,11.11
				c-9.5,6.18-12.08,10.38-15.06,15.24c-1.25,2.04-2.54,4.14-4.43,6.55c-6.38,8.15-16.42,14.65-16.52,14.71
				C243.28,344.7,243.19,344.73,243.1,344.73z"/>
		</g>
		<g>
			<path class="st13" d="M262.63,286.01c-0.07,0-0.15-0.02-0.22-0.05c-0.25-0.12-0.35-0.42-0.23-0.67
				c0.04-0.09,4.49-9.26,12.76-23.55c7.73-13.37,10.12-24.75,11.85-33.06l0.37-1.78c0.42-1.99,1.03-5.64,1.8-10.27
				c2.46-14.77,6.17-37.09,9.96-42.58c4.96-7.17,11.31-9.68,11.58-9.78c0.26-0.1,0.55,0.03,0.65,0.29c0.1,0.26-0.03,0.55-0.29,0.65
				c-0.06,0.02-6.34,2.51-11.12,9.41c-3.67,5.31-7.51,28.39-9.8,42.18c-0.77,4.64-1.38,8.3-1.81,10.31l-0.37,1.78
				c-1.75,8.38-4.15,19.85-11.97,33.36c-8.25,14.26-12.68,23.39-12.72,23.49C262.99,285.91,262.82,286.01,262.63,286.01z"/>
		</g>
		<g>
			<path class="st13" d="M299.09,201.51c-0.06,0-0.11-0.01-0.17-0.03c-0.26-0.09-0.4-0.38-0.3-0.64
				c0.38-1.06,9.33-26.02,15.78-31.41c6.44-5.38,10.2-6.17,10.36-6.2c0.27-0.06,0.53,0.12,0.59,0.39c0.05,0.27-0.12,0.53-0.39,0.59
				c-0.04,0.01-3.7,0.8-9.91,5.99c-6.24,5.21-15.39,30.72-15.48,30.98C299.49,201.39,299.3,201.51,299.09,201.51z"/>
		</g>
	</g>
	<polygon class="st14" points="696.12,339.65 705.38,324.06 697.5,321.09 683.76,338.13 	"/>
	<path class="st14" d="M696.58,324.43c0,0,0.83-7.14,2.4-9.84c1.57-2.7,6.79-2.46,9.42-2.01c2.63,0.46,13.98,1.1,16.25,2.16
		c2.27,1.06,0.12,3.33-2.66,4.26c-2.78,0.94-10.74,2.04-13.21,3.28c-2.48,1.24-3.78,2.54-3.78,2.54l-3.78,2.86L696.58,324.43z"/>
	<path class="st10" d="M568.79,385.5c0,0,62.74-4.4,66.77-8.81c4.04-4.4,7.4-18.71,15.26-25.31c7.86-6.6,23.63-33.74,23.63-33.74
		l25.68,17.45c0,0-13.21,32.79-23.48,50.4c-10.27,17.61-24.58,31.58-27.88,33.03c-3.3,1.45-38.52,0.72-48.43-2.58
		C590.44,412.65,568.79,385.5,568.79,385.5z"/>
	<polygon class="st14" points="650.82,310.08 647.67,292.21 639.76,295.11 640.46,316.99 	"/>
	<path class="st10" d="M670.55,412.49c-0.05-0.45-0.1-0.89-0.14-1.33c-0.04-0.37-0.1-0.75-0.14-1.12c-0.08-0.67-0.16-1.34-0.25-2
		c-0.46-3.44-0.94-6.89-1.44-10.33c0-0.05-0.01-0.12-0.02-0.18c-0.33-2.29-0.66-4.57-1.01-6.86c-1.01-6.56-2.62-15.19-4.46-24.45
		c-0.89-4.51-1.85-9.17-2.81-13.81l-0.04-0.2c-0.66-3.17-1.33-6.33-1.99-9.42c-1.64-7.68-3.22-14.97-4.57-21.02
		c-1.77-8.01-3.1-13.88-3.52-15.7c-0.07-0.29-0.1-0.47-0.12-0.55c-0.01-0.03-0.01-0.04-0.01-0.04s-0.17,0.11-0.47,0.31
		c-0.11,0.07-0.24,0.15-0.39,0.25c-1.54,1-5,3.24-8.85,5.72c-4.23,2.72-8.96,5.75-12.16,7.75c-1.55,0.97-2.31,1.67-2.66,2.63
		c-0.32,0.84-0.32,1.87-0.25,3.47c0.15,4.05,0.35,8.12,0.87,12.15c0.48,3.73,1.34,7.31,2.37,10.92c0.02,0.08,0.04,0.15,0.07,0.23
		c1.25,4.58,1.13,8.7,0.29,13.36c-0.24,1.31-0.47,2.63-0.7,3.95c-0.77,4.39-1.49,8.82-1.98,13.25c-0.21,1.77-0.37,3.56-0.51,5.33
		c-5.94-1.18-11.92-2.26-17.9-2.73c-0.13-0.01-0.28-0.02-0.41-0.02c-9.55-0.68-19.53,0.96-28.63-2.72
		c-10.65-4.31-21.21-9.58-32.17-13.11c-8.57-2.76-17.4-4.46-26.73-3.83c-7.09,0.48-12.57,1.97-17.67,3.83
		c-3.05,1.12-5.97,2.38-8.98,3.64c-0.25-0.08,6.27,14.41,6.16,14.74c-0.02,0.04-0.03,0.09-0.04,0.13c-0.74,0.46-1.49,0.92-2.21,1.41
		c-0.55,0.37-0.03,1.28,0.53,0.9c0.4-0.25,0.79-0.51,1.19-0.76c-1.1,3.68-1.85,7.44-2.2,11.24c-0.29,2.88-0.34,5.78-0.17,8.67
		c0.01,0.36,0.04,0.72,0.08,1.08c0.24,3.27,0.78,6.53,1.62,9.73c1.49,5.69-4,3.05-3.48,8.95c0.29,3.27-1.89,8.78-3.25,11.83
		c-0.19,0.42-0.35,0.79-0.5,1.1c-0.32,0.69-0.53,1.1-0.53,1.1s4.48,0.13,10.9,0.33c5.84,0.17,13.32,0.37,20.48,0.57
		c9.04,0.24,17.59,0.44,21.85,0.5c3.06,0.03,6.14,0.28,9.22,0.62c0.32,0.03,0.64,0.08,0.96,0.12c0.07,0,0.14,0.01,0.21,0.02
		c3.29,0.39,6.59,0.88,9.88,1.34c4.03,0.56,8.05,1.08,12.05,1.33c0.44,0.02,0.88,0.04,1.32,0.06c1.05,0.05,2.09,0.08,3.13,0.08
		c1.33,0,5.24-0.3,10.59-0.78c9.93-0.88,24.8-2.37,37.34-3.69c11.39-1.19,20.86-2.25,22.97-2.56c2.33-0.35,4.64-0.96,6.82-1.84
		c0.86-0.34,1.68-0.73,2.49-1.14c3.06-1.63,5.71-3.87,7.52-6.81c0.92-1.5,1.64-3.17,2.07-5.03c0.52-2.19,0.68-4.44,0.64-6.68
		C670.76,415.1,670.67,413.79,670.55,412.49z"/>
	<polygon class="st15" points="318.33,484.33 372.94,460.36 289.7,442.93 286.95,460.26 	"/>
	<polygon class="st16" points="307.17,447.59 326.62,452.47 318.33,455.41 301.21,450.91 	"/>
	<path class="st14" d="M384.25,416.59c0,0-9.22,23.11-11.69,25.59c-2.48,2.48-17.56,6.33-22.24,1.65s4.26-37.97,4.26-37.97
		L384.25,416.59z"/>
	<path class="st17" d="M424.75,318.99c-0.24-3.12-1.1-6.23-1.74-9.27c-1.5-7.19-3.22-16.92-8.88-22.16
		c-0.76-0.71-1.61-1.32-2.59-1.69c-1.2-0.46-2.45-0.77-3.72-0.99c-0.62-0.11-3.29,0.01-3.65-0.37c-2.67-2.79-6.83-4.16-10.78-4.05
		c-14.28,0.44-25.58,9.41-30.07,22.78c-3.8,11.33-4.27,23.93-3.45,35.76c0.49,7.03,1.35,14.02,1.28,21.04
		c0.11,0.13,0.2,0.27,0.32,0.4c1.68,1.8,3.11,0.59,5.34,0.91c2.22,0.31,4.36,1.55,6.65,1.28c0.63-0.08,1.18-0.3,1.67-0.59
		c1.35-0.77,2.4-2.05,3.99-2.43c1.59-0.36,3.23,0.03,4.85,0.53c1.26,0.39,2.51,0.83,3.72,1.01c2.32,0.35,4.16-0.3,6.33-1.04
		c1.5-0.52,3-0.65,4.52-0.71c1.46-0.06,2.9-0.05,4.38-0.24c0.24-0.03,0.47-0.06,0.7-0.1c0.84-0.13,1.65-0.33,2.46-0.59
		c3.32-1.05,6.34-3.08,8.58-5.76c0.71-0.86,1.3-1.75,1.8-2.69c0.34-0.63,0.63-1.29,0.9-1.95c1.21-3.03-9.83-0.69-8.61-3.83
		c1.44-3.71,6.13-5.98,8.88-8.61c3.22-3.08,5.81-7.04,6.81-11.41C424.82,322.48,424.88,320.73,424.75,318.99z"/>
	<path class="st11" d="M501.2,439.98c4.01-1.27,11.28-0.86,11.52-10.44c0.52-21.28-3.71-41.91-16.97-57.39
		c-5.04-4.07-22.84-27.93-56.65-36.94c-6-1.6-20.08-1.6-26.12-0.24c-6.38,1.44-12.75,2.88-19.13,4.33
		c-5.15,1.16-10.83,1.88-14.83,5.64c-3.05,2.86-4.71,6.73-4.9,10.89c-0.27,5.93,1.48,12.16,2.69,17.92
		c1.24,5.89,2.64,11.75,4.23,17.55c2.98,10.87,12.74,27.95,18.65,32.45c24.87,18.96,89.28,24.47,97.24,23.77
		C504.88,446.81,500.74,439.96,501.2,439.98z"/>
	<path class="st14" d="M426.87,341.08c0,0-0.91,8-5.04,14.19c-4.13,6.19-15.61,6.19-15.61,6.19l-2.5-2.3l-9.54-8.81l-1.38-1.27
		l22.31-22.06l3.66,4.39l0.46,0.55L426.87,341.08z"/>
	<path class="st14" d="M398.56,352.21c0,0,0.6,8.34,2.02,11.69c2.02,4.77,7.85,15.13,10.82,15.55c2.97,0.41,18.16-19.54,20.12-28.58
		c1.08-5-6.09-11.5-6.09-11.5l-16.01,14.76L398.56,352.21z"/>
	<path class="st11" d="M379.01,344.94c0,0-9.1,6.39-13.49,16.04c-4.39,9.66-12.64,33.6-14.57,36.62c-1.93,3.03-3.03,9.91-3.03,9.91
		s26.84,9.08,29.11,10.73c2.26,1.65,8.59,2.2,8.59,2.2l11.56-19.81L379.01,344.94z"/>
	<g>
		<path class="st18" d="M390.48,409.77c-0.18,0-0.36-0.1-0.45-0.28c-0.02-0.05-2.42-4.84-6.75-11.43
			c-6.62-10.06-14.47-31.62-14.54-31.84c-0.09-0.26,0.04-0.55,0.3-0.64c0.26-0.09,0.55,0.04,0.64,0.3
			c0.08,0.21,7.88,21.67,14.44,31.63c4.37,6.64,6.79,11.48,6.81,11.53c0.12,0.25,0.02,0.55-0.23,0.67
			C390.63,409.75,390.55,409.77,390.48,409.77z"/>
	</g>
	<g>
		<path class="st18" d="M378.39,390.4c-0.12,0-0.24-0.04-0.34-0.13l-13.91-12.66c-0.2-0.19-0.22-0.5-0.03-0.71
			c0.19-0.2,0.5-0.22,0.71-0.03l13.91,12.66c0.2,0.19,0.22,0.5,0.03,0.71C378.66,390.35,378.52,390.4,378.39,390.4z"/>
	</g>
	<path class="st19" d="M416.51,344.78c-0.32,4.29-2.39,8.14-7.03,11.77c-1.9,1.49-3.95,2.24-5.75,2.61l-9.54-8.81l9.87-4.72
		c0,0,9.93-14.29,9.95-13.69C414.09,334.64,417.01,338.01,416.51,344.78z"/>
	<path class="st17" d="M391.43,347.74c-1.25-0.49-2.61-1-3.92-1.3c-0.06-0.01-0.12-0.02-0.17-0.03c0.03-0.6-0.12-1.17-0.58-1.67
		c-1.59-1.72-4.6-2.3-6.81-2.54c-0.54-0.06-1.17-0.12-1.83-0.16c-0.46-1.08-1.41-1.62-2.78-1.71c-3.3-0.21-7.05,0.62-10.22,1.49
		c-1.03,0.28-2.26,0.58-2.96,1.42c-0.03-2.76-0.04-5.52,0-8.27c0.03-2.25,0.56-4.44,0.57-6.69c0-1.95,0.24-3.86,0.33-5.81
		c0.03-0.64-0.97-0.64-1,0c-0.15,3.3-0.25,6.67-0.68,9.95c-0.4,3.05-0.15,6.19-0.15,9.26c0,1.31-0.02,2.63-0.03,3.94
		c-0.13,0.64-0.21,1.29-0.26,1.85c-0.15,1.66,0.18,3.21,0.43,4.84c0.19,1.26,0.3,2.54,0.32,3.81c0.01,0.55,0.4,2.63,0.18,3.05
		c-0.09,0.17-0.26,0.26-0.4,0.39c-0.33,0.31-0.41,0.8-0.47,1.25c-0.4,3.23-0.48,6.48-0.45,9.74c0.03,3.4,0.34,6.58,0.68,9.96
		c0.34,3.31-0.96,6.1-1.07,9.33c-0.09,2.61-0.41,5.14-0.09,7.74c0.03,0.22,0.14,0.42,0.37,0.48c1.61,0.42,3.76,0.44,5.39,0.23
		c0.21-0.03,0.43-0.14,0.48-0.37c0.25-1.2,0.08-2.48,0.16-3.7c0.11-1.66,0.26-3.27,0.25-4.93c-0.01-1.86,0.13-3.7,0.29-5.55
		c0.08,1.07,0.19,2.13,0.26,3.21c0.22,3.55,0.29,7.15-0.19,10.67c-0.03,0.26,0.06,0.55,0.35,0.61c0.08,0.02,0.15,0.03,0.23,0.04
		c0.1,0.18,0.29,0.3,0.54,0.22c1.03-0.32,2.12-0.11,3.17-0.18c1.07-0.06,2.14-0.44,3.2-0.47c1-0.03,1.98,0.82,2.96,0.32
		c0.46-0.23,0.78-0.84,1.09-1.23c0.64-0.79,1.61-1.56,2.19-2.41c-0.12,0.99-0.16,1.98-0.06,2.97c0.03,0.33,0.29,0.57,0.63,0.48
		c4.65-1.14,4.99-8.78,6.26-12.34c0.55-1.53,1.39-2.98,1.86-4.53c0.39-1.3,0.28-2.66,0.26-4c-0.05-3.14,0.72-6.39,1.08-9.51
		c0.69-5.88,2.68-11.68,2.7-17.62C393.55,348.46,392.95,348.33,391.43,347.74z"/>
	<path class="st14" d="M368.17,311.41c0,0,3.97,19.77,9.44,29.07c3.57,6.07,10.27,11.62,18,13.42c7.81,1.82,13.29-4,17.75-10.92
		c4.39-6.8,3.77-10.55,2.53-18.34c-0.16-1.03,2.62-4.83,2.39-5.85c-1.8-7.88-4.68-16.25-9.52-22.82c-0.85-1.15-1.78-2.27-2.92-3.15
		c-6.71-5.16-20.51-0.39-27.09,3.61C372.17,300.44,368.17,311.41,368.17,311.41z"/>
	<path class="st20" d="M378.97,325.66c-0.17-0.74-0.16-1.5,0.42-1.85c1.53-0.93,2.98,1.8,3.22,2.77c0.14,0.57,0.06,1.33-0.36,1.78
		c-0.45,0.48-1.13,0.39-1.64,0.06c-0.46-0.3-0.81-0.74-1.06-1.23C379.36,326.84,379.11,326.26,378.97,325.66z"/>
	<path class="st20" d="M397.89,321.54c-0.17-0.74-0.16-1.5,0.42-1.85c1.53-0.93,2.98,1.8,3.22,2.77c0.14,0.57,0.06,1.33-0.36,1.78
		c-0.45,0.48-1.13,0.39-1.64,0.06c-0.46-0.3-0.81-0.74-1.06-1.23C398.28,322.71,398.03,322.13,397.89,321.54z"/>
	<path class="st19" d="M392.38,336.07c-0.75-0.13-1.71-0.21-2.4-0.56c-1.18-0.6-0.86-1.56-0.89-2.69c-0.06-1.84-0.12-3.67-0.18-5.51
		c-0.02-0.66-1.05-0.67-1.03,0c0.05,1.38,0.09,2.75,0.14,4.13c0.04,1.2-0.16,2.66,0.15,3.82c0.4,1.47,2.71,1.59,3.94,1.81
		C392.76,337.18,393.03,336.18,392.38,336.07z"/>
	<path class="st19" d="M388.69,341.18c0,0,1.94-0.26,5.13-1.03c3.19-0.77,5.87-2.17,5.87-2.17s-0.75,3.46-4.36,4.69
		C391.72,343.89,388.69,341.18,388.69,341.18z"/>
	<path class="st17" d="M381.49,319.3c-0.39-0.24-0.97-0.29-1.38-0.3c-1.31-0.05-2.73,0.22-3.96,0.65c-0.87,0.3-2.82,0.95-2.86,2.07
		c-0.01,0.25,0.08,0.43,0.3,0.55c0.55,0.31,1.24,0.06,1.83-0.01c1.17-0.14,2.35-0.27,3.52-0.43c0.77-0.11,1.63-0.2,2.31-0.61
		c0.48-0.29,0.85-0.99,0.58-1.54C381.75,319.51,381.63,319.39,381.49,319.3z"/>
	<path class="st17" d="M394.48,316.49c-0.02,0.61,0.6,1.1,1.16,1.17c0.79,0.1,1.61-0.16,2.36-0.37c1.14-0.32,2.26-0.68,3.39-1.02
		c0.57-0.17,1.3-0.23,1.68-0.73c0.15-0.2,0.17-0.4,0.05-0.63c-0.49-1.01-2.53-0.81-3.45-0.74c-1.3,0.1-2.71,0.43-3.88,1.01
		c-0.37,0.18-0.88,0.45-1.14,0.83C394.55,316.15,394.49,316.31,394.48,316.49z"/>
	<path class="st17" d="M416.59,308.03c-1.94-5.75-4.01-13.58-9.56-16.97c-2.83-1.73-6.78-1.16-9.96-1.2
		c-4.14-0.05-7.5,0.99-11.33,2.51c-5.86,2.33-12.82,4.91-16.61,10.27c-1.05,1.49-1.66,3.11-2,4.89c-0.34,1.86-1.07,3.8-1.27,5.67
		c-0.21,1.91,0.51,3.97,0.9,5.82c0.54,2.55,1.08,5.1,1.63,7.65c0.05,0.24,0.22,0.35,0.4,0.37c-0.12,0.15-0.25,0.3-0.39,0.45
		c-0.46,0.48,0.27,1.21,0.73,0.73c1.85-1.94,2.21-4.34,2.54-6.91c0.28-2.21,0.53-4.39,2.1-6.11c1.22-1.33,2.91-2.15,4.47-2.99
		c2.59-1.4,4.72-3.22,6.14-5.47c0.49-0.77,2.42-1.61,3.2-2.08c1.14-0.69,2.35-1.45,3.6-1.95c2.06-0.82,3.87,0.99,5.65,1.7
		c1.78,0.71,3.53-0.01,5.29,0.55c1.09,0.34,1.79,1.26,2.76,1.79c0.97,0.53,2.35,0.54,3.17,1.29c0.98,0.9,0.88,2.63,1.56,3.74
		c1.7-1.97,5.38-0.46,6.48,1.99c1.54,3.45,0.76,7.31-0.2,10.88c0.14,0.39,0.27,0.78,0.4,1.16c0.82,2.37,2.96,6.15,2.96,6.15
		s1.5,0.32,1.51-0.11C420.94,323.69,419.18,315.73,416.59,308.03z"/>
	<path class="st14" d="M358.2,423.99c-1.1,0-0.52-5.69-16.69,1.32c-22.75,9.86-39.26,12.66-39.26,12.66l1.47,11.19
		c0,0,9.28-1.63,17.79-1.33c8.82,0.31,19.14,0.37,29.58-0.41c10.94-0.83,15.51-2.63,15.51-2.63v-11.59L358.2,423.99z"/>
	<path class="st14" d="M463.12,424.43c0,0-6.77,26.17-8.82,29c-2.05,2.84-27.91,4.52-27.91,4.52l5.72-39.42L463.12,424.43z"/>
	<path class="st14" d="M455.17,451.62c0,0-4.42,14.14-9.28,17.16c-5.32,3.3-64.88-6.53-64.88-6.53l2.72-8.93l56.1-11.97
		L455.17,451.62z"/>
	<path class="st14" d="M309.54,438.25c0,0-9.82-5.8-14.03-5.83c-4.73-0.03-9.75,1.76-13.45,4.7c-1.68,1.34-3.33,2.95-3.65,5.13
		c-0.19,1.32-0.58,4.59,1.14,5.17c2.06,0.69,9.35-2.75,11.07-3.3c1.72-0.55,4.64-0.21,4.75,0.28c0.96,4.13-9.08,1.42-9.63,3.12
		c-0.55,1.7,5.37,3.31,10.73,2.71c5.37-0.6,7.84-1.01,7.84-1.01l5.23-3.86V438.25z"/>
	<path class="st14" d="M383.73,453.33c0,0-8.42-5.23-12.82-5.23c-4.4,0-10.59,6.5-11.97,7.31c-1.38,0.81-3.3,4.66-1.65,5.9
		c1.65,1.24,10.04-1.1,14.58-0.69c4.54,0.41,9.14,1.63,9.14,1.63l7.51-4.29L383.73,453.33z"/>
	<path class="st15" d="M298.5,411.87c0,1.65,19.83,72.46,19.83,72.46l-98.71-19.71l-24.03-72.46L298.5,411.87z"/>
	<path class="st16" d="M255.02,420.55c-0.35,1.75-4.11,2.47-8.4,1.6c-4.29-0.87-7.47-2.99-7.12-4.74s4.11-2.47,8.4-1.6
		C252.18,416.68,255.37,418.8,255.02,420.55z"/>
	<g>
		<path class="st16" d="M315.66,482.13c-0.03,0-0.07,0-0.1-0.01l-94.84-19.26c-0.27-0.06-0.45-0.32-0.39-0.59
			c0.05-0.27,0.31-0.44,0.59-0.39l94.84,19.26c0.27,0.06,0.45,0.32,0.39,0.59C316.1,481.97,315.89,482.13,315.66,482.13z"/>
	</g>
	<g>
		<path class="st16" d="M317.79,482.88c-0.22,0-0.42-0.14-0.48-0.37l-9.11-32.73c-0.07-0.27,0.08-0.54,0.35-0.62
			c0.27-0.08,0.54,0.08,0.62,0.35l9.11,32.73c0.07,0.27-0.08,0.54-0.35,0.62C317.87,482.88,317.83,482.88,317.79,482.88z"/>
	</g>
	<path class="st14" d="M639.87,295.66c0,0-2-6.9-1.6-10.01c0.4-3.1,5.3-4.9,7.91-5.5c2.6-0.6,13.31-4.4,15.81-4.3
		c2.5,0.1,1.4,3.02-0.8,4.96c-2.2,1.94-9.11,6.05-10.91,8.15c-1.8,2.1-2.5,3.8-2.5,3.8l-2.38,4.1L639.87,295.66z"/>
	<g>
		<path class="st21" d="M634.46,392.05c-0.15,0-0.29-0.06-0.39-0.19c-0.03-0.04-2.83-3.49-7.94-5.35
			c-5.2-1.88-17.61-3.17-17.73-3.18c-0.27-0.03-0.47-0.27-0.45-0.55c0.03-0.28,0.27-0.47,0.55-0.45c0.51,0.05,12.66,1.31,17.97,3.24
			c5.39,1.95,8.26,5.51,8.38,5.66c0.17,0.22,0.14,0.53-0.08,0.7C634.68,392.02,634.57,392.05,634.46,392.05z"/>
	</g>
	<g>
		<path class="st21" d="M624.65,384.81c-0.04,0-0.09-0.01-0.13-0.02c-0.27-0.07-0.42-0.35-0.35-0.61l1.19-4.4
			c0.07-0.27,0.34-0.42,0.61-0.35c0.27,0.07,0.42,0.35,0.35,0.61l-1.19,4.4C625.07,384.66,624.87,384.81,624.65,384.81z"/>
	</g>
	<g>
		<path class="st21" d="M668.03,396.73c-0.24,0-0.45-0.17-0.49-0.41l-9.36-52.74c-0.05-0.27,0.13-0.53,0.41-0.58
			c0.26-0.04,0.53,0.13,0.58,0.41l9.36,52.74c0.05,0.27-0.13,0.53-0.41,0.58C668.09,396.73,668.06,396.73,668.03,396.73z"/>
	</g>
	<g>
		<path class="st21" d="M647.58,420.95c-0.24,0-0.46-0.18-0.49-0.43c-0.01-0.08-1.16-7.73-6.91-17.15
			c-5.75-9.42-13.43-14.42-13.5-14.47c-0.23-0.15-0.3-0.46-0.15-0.69c0.15-0.23,0.46-0.3,0.69-0.15c0.08,0.05,7.95,5.17,13.82,14.79
			c5.86,9.61,7,17.21,7.04,17.53c0.04,0.27-0.15,0.53-0.42,0.57C647.63,420.94,647.6,420.95,647.58,420.95z"/>
	</g>
	<g>
		<path class="st0" d="M533.57,473.3c-0.2-0.24-0.44-0.46-0.73-0.66c-0.05-0.04-0.11-0.09-0.18-0.12c-2.09-1.36-5.94-1.89-7.35-2.06
			c-2.26-0.26-4.53-0.35-6.8-0.29c0,0,0,0-0.01,0c-1.07,0.04-2.14,0.11-3.2,0.23c-0.5,0.04-1,0.11-1.5,0.18
			c-2.63,0.35-5.34,0.88-7.97,0.65c0.45-0.26,0.04-0.96-0.41-0.69c-0.26,0.14-0.56,0.33-0.87,0.52c-0.95-0.18-1.88-0.48-2.78-0.96
			c-0.46-0.24-0.87,0.45-0.41,0.69c0.75,0.39,1.51,0.67,2.29,0.87c-0.3,0.21-0.59,0.43-0.9,0.67c-0.32,0.23-0.64,0.5-0.96,0.77
			c-0.34,0.29-0.68,0.59-1,0.9c-0.95,0.94-1.78,1.97-2.29,3.03c-0.76,1.56-0.81,3.2,0.48,4.72c0.22,0.26,0.46,0.5,0.72,0.69
			c0.3,0.24,0.63,0.44,0.97,0.62c1.53,0.75,3.39,0.83,5.08,0.79c2.28-0.03,4.57-0.22,6.85-0.52c1.03-0.13,2.07-0.29,3.09-0.47
			c3.49-0.62,6.92-1.53,10.27-2.72c1.29-0.46,2.99-0.95,4.5-1.64c1.12-0.53,2.15-1.17,2.81-2.01c0.29-0.37,0.5-0.72,0.62-1.05
			C534.22,474.6,534.06,473.88,533.57,473.3z"/>
		<path class="st0" d="M564.43,438.38c-0.02-0.02-0.03-0.04-0.07-0.07c-0.24-0.19-0.47-0.33-0.67-0.45c-2.39-1.53-2.23,0.25-5.79-1
			c-0.34-0.12-0.72-0.26-1.13-0.45c-0.83-0.35-1.45-0.9-2.38-1.41c-1.24-0.69-3.02-1.31-6.46-1.31c-2.55,0-6.49,0.58-9.04,0.91
			c-3.75,0.47-7.55,1.02-11.08,2.45c-0.2,0.08-0.41,0.17-0.61,0.26c-0.76,0.32-1.5,0.69-2.21,1.11c-1.19,0.69-2.3,1.5-3.28,2.45
			c-0.52,0.48-0.99,1.01-1.43,1.57c-1.98,2.53-3.37,5.6-4.77,8.56c-4.48,2.12-8.96,4.25-13.45,6.36c-0.04,0.02-0.08,0.03-0.12,0.05
			c-0.76,0.36-1.63,0.7-2.52,1.07c-0.42,0.18-0.85,0.35-1.27,0.55c-1.05,0.47-2.03,1.03-2.75,1.76c-1.13,1.12-0.89,2.37-0.35,3.73
			c0.11,0.26,0.21,0.52,0.33,0.77c0.9,2.14,2.11,4.18,3.36,6.11c0.62,0.95,1.23,1.86,2.05,2.58c0.44,0.4,0.92,0.73,1.51,0.97
			c0.03,0.02,0.08,0.03,0.12,0.06c1.79,0.72,3.74,0.98,5.75,0.99c0.01,0,0.01,0,0.02,0c1.25,0.01,2.54-0.09,3.81-0.25h0.06
			c0.2-0.02,0.41-0.04,0.61-0.08c0.13,0,0.26,0.01,0.4,0.01c0.51,0.01,1.01,0.02,1.52,0.03c3.49,0.04,6.99,0.03,10.5-0.01
			c0.75-0.01,1.51-0.02,2.26-0.04h0.29c2.09-0.04,4.18-0.12,6.27-0.23c3.9-0.2,7.78-0.53,11.64-1.05c2.76,1.32,6.06,2.17,8.83,0.48
			c0.69-0.42,1.31-0.97,1.85-1.61c0.68-0.79,1.27-1.72,1.76-2.7c0.83-1.65,1.44-3.46,1.94-5c0.62-1.86,1.09-3.75,1.47-5.67
			c0.01-0.03,0.01-0.07,0.02-0.1c0.08-0.39,0.15-0.77,0.23-1.17c0.04-0.24,0.09-0.5,0.13-0.74c0.05-0.36,0.12-0.73,0.18-1.09
			c0.04-0.25,0.09-0.51,0.12-0.76c0.65-4.18,1.07-8.42,1.77-12.58c0.26-1.55,0.56-3.09,0.92-4.61
			C564.83,438.61,564.64,438.43,564.43,438.38z"/>
		<path class="st0" d="M721.31,454.81c-0.56,2.23-1.75,4.09-3.3,5.65c-0.41,0.69-0.89,1.35-1.45,1.96
			c-0.24,0.25-0.56,0.09-0.65-0.15c-1.19,0.86-2.48,1.61-3.79,2.25c-5.55,2.7-11.78,4.29-17.87,5.15c-5.98,0.84-11.99,0.65-18,0.76
			c-6.38,0.11-12.61,1.01-18.88,2.18c-5.75,1.06-11.49,2.22-17.32,2.71c-6.22,0.52-12.46,0.26-18.69,0.01
			c-6.22-0.25-12.46-0.51-18.67,0c-6.05,0.51-12.04,1.54-18.14,1.45c-11.05-0.15-21.84-2.82-32.78-4.06
			c-0.02,0.15-0.05,0.3-0.08,0.45c-0.07,0.52-0.85,0.3-0.77-0.21c0.01-0.11,0.03-0.22,0.04-0.33c-0.88-0.1-1.76-0.19-2.64-0.26
			c-0.52-0.03-0.52-0.85,0-0.8c0.91,0.08,1.84,0.17,2.76,0.28c0.91-6.27,1.97-12.55,2.54-18.85c0.51-5.6,0.16-11.19-0.32-16.77
			c-0.01,0-0.02,0.01-0.02,0.01c0.25-0.37,0.51-0.75,0.79-1.11c8.21-2.65,35.97-17.85,43.15-19.99c6.9-2.05,14.1-2.98,21.28-3.28
			c11-0.45,21.85,1.11,32.81,1.22c9.03,0.1,18.08-0.92,27.11-0.51c1.84,0.09,3.69,0.23,5.53,0.46c11.19,1.38,22.31,5.62,30.26,13.87
			c0.53,0.54,1.02,1.1,1.47,1.67c3.68,4.49,5.48,9.77,5.37,15.74c-0.07,3.47-0.41,7.01-1.02,10.41c-0.16,0.94-0.39,1.85-0.67,2.73
			c0.51-0.87,0.91-1.8,1.17-2.84C720.66,454.09,721.43,454.3,721.31,454.81z"/>
		<path class="st0" d="M627.31,469.59c-0.41-0.19-0.83-0.37-1.24-0.56c-0.39-0.18-0.77-0.34-1.16-0.51
			c-10.63-4.61-21.89-7.65-33.42-8.99c-5.1-0.59-10.25-0.86-15.38-0.77c-0.52,0-1.03,0-1.55,0.03c-0.72,0-1.42,0.03-2.14,0.07
			c-3.14,0.14-6.36,0.35-9.55,0.76c-0.35,0.04-0.72,0.09-1.07,0.14c-0.13,0.01-0.28,0.03-0.41,0.06c-0.03,0-0.06,0-0.09,0.01
			c-2.51,0.36-4.97,0.88-7.35,1.61c-0.41,0.12-0.88,0.3-1.41,0.52c-2.01,0.81-4.81,2.26-7.97,3.98c-3.02,1.65-6.34,3.57-9.61,5.46
			c-0.01,0.01-0.03,0.02-0.06,0.03c-0.69,0.41-1.39,0.81-2.08,1.21c-0.97,0.56-1.92,1.12-2.84,1.66l-0.08,0.04
			c-0.34,0.2-0.68,0.4-1.01,0.58c-0.44,0.25-0.87,0.51-1.3,0.75c-1.57,0.91-3.05,1.76-4.36,2.49c-2.11,1.18-3.8,2.06-4.81,2.47
			c-1.27,0.51-2.73,1.11-4.2,1.83l-1,0.52c-0.22,0.12-0.43,0.23-0.64,0.36c-2.62,1.49-5,3.42-5.89,6.01
			c-0.17,0.45-0.25,0.88-0.28,1.29c-0.01,0.08-0.01,0.14-0.01,0.21c-0.01,0.36,0.03,0.7,0.12,1.03c0.01,0.04,0.02,0.1,0.04,0.14
			c0.43,1.45,1.75,2.49,3.3,3.1c0.04,0.02,0.09,0.03,0.13,0.06c0.26,0.1,0.55,0.19,0.81,0.28c0.04,0.01,0.1,0.02,0.14,0.03
			c0.58,0.14,1.17,0.24,1.74,0.3c5.16,0.41,10.61-1.2,15.28-3.28c2.49-1.11,4.86-2.42,7.14-3.9c2.56-1.4,5.05-2.94,7.45-4.62
			c5.67,0.95,11.42,1.1,17.18,1.09c6.57-0.02,13.14-0.09,19.7-0.17c6.72-0.09,13.45-0.2,20.17-0.34c0.37-0.01,0.76-0.01,1.14-0.01
			c5.24-0.04,11.03,0.28,15.77-2.09c0.02,0,0.03-0.01,0.06-0.02c0.19-0.09,0.36-0.19,0.54-0.3c2.88-1.58,5.1-4.03,6.98-6.72
			c1.21-1.71,2.29-3.52,3.31-5.27C627.56,469.98,627.5,469.69,627.31,469.59z"/>
		<path class="st0" d="M719.79,447.16c-0.01-0.11-0.03-0.21-0.04-0.31c-0.21-1.35-0.54-2.58-0.97-3.67
			c-1.99-4.96-6.22-7.39-11.27-8.25c-1.84-0.31-3.78-0.42-5.76-0.37c-2.15,0.06-4.34,0.3-6.49,0.67c-1.49,0.25-2.95,0.57-4.37,0.92
			c-3.1,0.78-5.99,1.76-8.35,2.73c-8.24,3.38-15.43,8.47-21.99,14.44c-1.18,1.08-2.34,2.16-3.51,3.24
			c-0.31,0.29-0.61,0.57-0.91,0.85l-0.12,0.12c-0.37,0.35-0.76,0.7-1.13,1.06c-1.87,1.75-3.74,3.5-5.61,5.25
			c-2.69,2.51-5.45,5.24-5.81,9.05c-0.02,0.09-0.02,0.19-0.03,0.29c-0.03,0.02-0.06,0.03-0.09,0.04c-1.39,0.59-2.83,1.24-4.15,2.09
			c-0.03,0.02-0.07,0.04-0.1,0.07c-1.3,0.84-2.45,1.86-3.3,3.15c-0.48,0.75-1,1.89-1.11,2.97c-0.01,0.09-0.02,0.17-0.02,0.25
			c-0.02,0.41,0.02,0.81,0.15,1.16c0.02,0.05,0.04,0.1,0.07,0.14v0.01c0.04,0.09,0.09,0.18,0.15,0.26c0.25,0.37,0.66,0.65,1.27,0.77
			c1.11,0.25,2.29,0.09,3.47,0.07c0.07-0.01,0.14-0.01,0.21-0.01c0.37-0.01,0.75,0,1.13,0.04c0.06,0.01,0.11,0.02,0.17,0.02
			c0.08,0.01,0.14,0.02,0.21,0.03c2.12,0.39,4.15,1,6.33,0.88c1.88-0.11,3.7-0.59,5.53-0.96c0.09-0.02,0.19-0.03,0.28-0.06
			c2.49-0.47,5.02-0.66,7.55-0.83c4.75-0.31,9.51-0.62,14.26-0.99c4.77-0.37,9.54-0.77,14.31-1.21c2.26-0.21,4.5-0.43,6.75-0.66
			c1.89-0.19,3.97-0.15,5.79-0.76c3.44-1.14,2.08-4.55,3.93-6.97c2.14-2.77,5.61-4.3,7.94-6.97c0.88-1.01,1.66-2.1,2.36-3.25
			c0.23-0.36,0.44-0.74,0.65-1.11c0.16-0.32,0.33-0.64,0.48-0.97c0.17-0.35,0.33-0.7,0.48-1.07c1.22-2.89,1.89-6.02,1.9-9.16
			C719.99,449.17,719.92,448.16,719.79,447.16z"/>
		<g>
			<path class="st0" d="M769.67,489.52c-0.1-0.45-0.21-0.9-0.34-1.35c-0.91-3.17-2.48-5.78-4.52-8.07
				c-1.28-1.42-2.73-2.72-4.34-3.95c-4.8-3.7-9.92-7.08-15.14-10.14c-2.69-1.57-5.44-3.04-8.25-4.38c-0.32-0.15-0.65-0.3-0.98-0.45
				c-0.92-0.41-1.86-0.8-2.78-1.22c-1.5-0.68-2.96-1.42-4.29-2.39c-3.11-2.26-6.23-5.67-8.05-9.48c0.07-0.75,0.09-1.51,0.04-2.25
				c-0.08-1.3-0.34-2.56-0.91-3.78c-0.19-0.4-0.77-0.08-0.59,0.32c0.65,1.36,0.88,2.84,0.87,4.33c-0.8-2.08-1.19-4.25-0.95-6.41
				c0.05-0.43-0.63-0.45-0.67-0.02c-0.11,0.99-0.1,1.96,0.02,2.89c0.15,1.27,0.48,2.49,0.97,3.67c0.15,0.43,0.35,0.85,0.55,1.27
				c-0.07,0.68-0.18,1.38-0.31,2.06c-0.21,1.07-0.47,2.12-0.73,3.14c-0.44,1.73-1.06,3.43-1.96,4.93c-0.13-1.1-0.23-2.2-0.3-3.31
				c-0.02-0.43-0.69-0.45-0.67-0.02c0.08,1.4,0.21,2.8,0.41,4.18c-0.04,0.07-0.1,0.13-0.14,0.19c-0.28,0.37-0.58,0.72-0.9,1.05
				c-0.65,0.65-1.39,1.21-2.25,1.66c-0.39,0.21-0.07,0.8,0.32,0.59c1.11-0.57,2.04-1.34,2.82-2.22c0.1-0.11,0.2-0.23,0.29-0.34
				c0.02,0.12,0.04,0.24,0.05,0.36c0.07,0.33,0.12,0.66,0.19,0.99c0.02,0.1,0.04,0.21,0.07,0.31c0.89,4.34,2.55,8.49,5.51,11.91
				c1.06,1.21,4.06,4.72,5.94,3.82c1.08-0.53,1.09-1.51,0.69-2.55c2.26,2.17,4.95,4,7.24,5.89c2.69,2.21,5.23,4.7,7.18,7.59
				c0.28,0.39,0.52,0.78,0.76,1.18c1.05,1.75,1.87,3.65,2.3,5.66c0.25,1.2-0.06,2.92-0.04,4.3c0,0.42,0.04,0.79,0.12,1.12
				c0.02,0.1,0.05,0.19,0.09,0.28c0.17,0.43,0.59,0.47,1.08,0.31c0.36-0.11,0.75-0.34,1.1-0.59c0.52-0.37,0.92-0.83,0.98-1.12
				c0.01-0.01,0.01-0.02,0.01-0.03v0.03h-0.01c-0.04,0.39-0.11,0.76-0.2,1.12c-1.18,4.95-5.65,8.88-6.17,14.11
				c-0.17,1.68,0.85,1.87,2.03,1.62c-0.94,0.68-1.89,1.33-2.76,2.09c-0.31,0.26-0.61,0.55-0.88,0.86c-0.68,0.75-2,2.34-1.43,3.45
				c0.72,1.39,3.74,0.52,4.86,0.23c3.45-0.9,6.81-2.62,9.97-4.53c1.38-0.81,2.71-1.67,3.98-2.53c5.3-3.53,8.84-9.21,10.17-15.39
				c0.08-0.36,0.14-0.74,0.21-1.11C770.46,496.12,770.41,492.76,769.67,489.52z"/>
		</g>
		<path class="st22" d="M769.67,489.52c-0.1-0.45-0.21-0.9-0.34-1.35c-0.91-3.17-2.48-5.78-4.52-8.07
			c-0.14,1.45-0.14,2.93-0.13,4.29c0.01,1.62-0.04,3.32-0.43,4.89c-0.45,1.88-1.39,3.56-3.27,4.63c-2.81,1.61-6.09,0.64-8.84,1.93
			c-1.39,0.65-2.34,2.15-3.16,3.63c-0.21,0.37-0.41,0.75-0.61,1.11c-0.11,0.21-0.21,0.41-0.32,0.59c0.36-0.11,0.75-0.34,1.1-0.59
			c0.52-0.37,0.92-0.83,0.98-1.12c0.01-0.01,0.01-0.02,0.01-0.03v0.03h-0.01c-0.04,0.39-0.11,0.76-0.2,1.12
			c-1.18,4.95-5.65,8.88-6.17,14.11c-0.17,1.68,0.85,1.87,2.03,1.62c-0.94,0.68-1.89,1.33-2.76,2.09c-0.31,0.26-0.61,0.55-0.88,0.86
			c-0.68,0.75-2,2.34-1.43,3.45c0.72,1.39,3.74,0.52,4.86,0.23c3.45-0.9,6.81-2.62,9.97-4.53c1.38-0.81,2.71-1.67,3.98-2.53
			c5.3-3.53,8.84-9.21,10.17-15.39c0.08-0.36,0.14-0.74,0.21-1.11C770.46,496.12,770.41,492.76,769.67,489.52z"/>
		<path class="st9" d="M526.31,452.31c-0.37,0.01-0.88,0.2-1.14,0.28c-1.14,0.35-2.04,0.61-3.14-0.12
			c-0.35-0.23-0.67,0.18-0.56,0.49c-0.02,0.09-0.02,0.18,0.03,0.28c0.7,1.34,2.48,1.4,3.73,0.9c0.52-0.21,1.24-0.58,1.46-1.15
			C526.89,452.45,526.66,452.3,526.31,452.31z"/>
		<path class="st9" d="M498.31,459.33c-0.04-0.08-0.09-0.18-0.14-0.28c-1.05,0.47-2.03,1.03-2.75,1.76
			c-1.13,1.12-0.89,2.37-0.35,3.73c0.11,0.26,0.21,0.52,0.33,0.77c0.65-0.41,1.29-0.84,1.89-1.32c0.74-0.56,1.82-1.2,1.93-2.22
			C499.31,460.92,498.7,460.04,498.31,459.33z"/>
		<g>
			<path class="st23" d="M513.23,487.25c-0.03,0.2-0.15,0.36-0.35,0.44c-2.4,0.94-4.5,2.38-6.23,4.28l-0.06,0.06
				c-0.02-0.04-0.03-0.1-0.04-0.14c-0.09-0.33-0.13-0.67-0.12-1.03c0-0.07,0-0.13,0.01-0.21c1.74-1.73,3.8-3.07,6.13-3.98
				c0.17-0.07,0.34-0.04,0.47,0.05C513.19,486.83,513.27,487.04,513.23,487.25z"/>
			<path class="st23" d="M516.23,490.1c0,0.13-0.07,0.26-0.19,0.36c-1.77,1.38-3.42,3.03-5.05,5.03c-0.04-0.01-0.1-0.02-0.14-0.03
				c-0.26-0.09-0.55-0.18-0.81-0.28c-0.04-0.02-0.09-0.03-0.13-0.06l0.02-0.02c1.77-2.23,3.53-4.01,5.37-5.44
				c0.29-0.22,0.64-0.11,0.83,0.12C516.19,489.89,516.23,489.99,516.23,490.1z"/>
			<path class="st23" d="M587.74,466.09c-0.27-0.35-1-0.58-1.64-0.79c-0.27-0.09-0.53-0.17-0.7-0.25c-1.36-0.63-3.05-1.41-3.66-2.88
				l-0.02-0.06c-0.05-0.13-0.1-0.26-0.21-0.37c-0.11-0.13-0.26-0.2-0.39-0.26c-0.28-0.13-0.56-0.26-0.84-0.39
				c-1.43-0.66-2.9-1.35-4.16-2.33c-2.36-1.9-2.28-5.58-2.2-6.67c0.33-4.51,3.37-7.6,6.72-10.62c0.14-0.13,0.2-0.3,0.16-0.47
				c-0.04-0.19-0.19-0.36-0.39-0.42c-0.18-0.06-0.38-0.02-0.53,0.12c-3.56,3.22-7.03,6.8-7.07,12.05c-0.01,1.4,0.19,4.03,1.65,5.92
				c1.15,1.5,3.15,2.4,4.91,3.2c0.28,0.13,0.56,0.25,0.83,0.38c1,1.45,2.43,2.42,3.66,3.11c-1.44,0.09-2.91,0.27-4.32,0.45
				c-0.51,0.06-1.01,0.13-1.52,0.19c-3.82,0.45-7.8,1.02-11.84,1.68c-0.28,0.05-0.45,0.28-0.4,0.56c0.04,0.26,0.26,0.5,0.56,0.5
				c0.03,0,0.06,0,0.1-0.01c3.47-0.57,6.85-1.06,10.05-1.46c1.56-0.19,3.14-0.38,4.7-0.54c0.33-0.04,0.64-0.07,0.95-0.11
				c1.55-0.19,2.89-0.36,4.5,0.29c0.58,0.23,1.07,0.23,1.26,0c0.09-0.11,0.16-0.32-0.07-0.67
				C587.81,466.19,587.78,466.14,587.74,466.09z"/>
			<path class="st23" d="M624.24,464.45c0.13-0.89-0.1-1.79-0.32-2.66c-0.06-0.24-0.12-0.48-0.17-0.72c-0.33-1.48-0.7-3.01-1.14-4.7
				c-0.05-0.19-0.18-0.32-0.35-0.37c-0.2-0.05-0.41,0.01-0.56,0.15c-0.13,0.13-0.18,0.32-0.13,0.51c0.36,1.38,0.67,2.63,0.94,3.8
				c0.06,0.28,0.15,0.58,0.24,0.91c0.09,0.34,0.2,0.71,0.28,1.08c-0.71-1.09-1.47-2.17-2.21-3.22c-0.68-0.97-1.39-1.98-2.03-2.96
				c-0.11-0.17-0.27-0.26-0.48-0.25c-0.21,0.01-0.4,0.13-0.49,0.31c-0.08,0.16-0.06,0.34,0.04,0.5c0.58,0.89,1.17,1.78,1.76,2.67
				c1.18,1.78,2.4,3.63,3.56,5.47c1.03,1.63,1.88,3.12,1.94,4.82c0.08,2.2-1.34,4.03-2.6,5.63c-0.22,0.28-0.12,0.64,0.11,0.82
				c0.09,0.07,0.2,0.11,0.3,0.11c0.14,0,0.27-0.07,0.37-0.19c2.37-3.03,3.65-5.75,2.21-9.17
				C625.18,466.21,624.76,465.38,624.24,464.45z"/>
			<path class="st23" d="M683.68,433.79c-5.59-0.76-11.44,0.24-17.4,2.97c-5.37,2.46-8.75,5.94-10.05,10.33
				c-1.54,5.22-0.76,10.97,2,14.66c1.92,2.57,4.87,4.45,8.76,5.59c-9.64,0.57-18.91,3.06-27.56,7.4c-0.18,0.09-0.24,0.22-0.27,0.31
				c-0.03,0.12-0.01,0.25,0.05,0.37c0.09,0.18,0.28,0.32,0.5,0.32c0.08,0,0.16-0.02,0.25-0.06c9.47-4.75,20.08-7.31,30.69-7.39
				c0.11,0,0.21-0.03,0.3-0.1l0.08,0.01c0.06,0.01,0.13,0.02,0.19,0.03c0.21,0.03,0.4-0.05,0.53-0.22c0.13-0.17,0.17-0.38,0.1-0.56
				c-0.06-0.15-0.19-0.25-0.38-0.28c-5.23-0.73-9-2.4-11.54-5.09c-3.69-3.91-4-10.21-2.66-14.71c1.21-4.09,4.42-7.35,9.53-9.68
				c5.67-2.59,11.41-3.58,16.62-2.86c0.2,0.03,0.4-0.05,0.53-0.22c0.13-0.17,0.17-0.38,0.1-0.56
				C683.99,433.91,683.86,433.82,683.68,433.79z"/>
			<path class="st23" d="M641.93,477.32c-2.87,1.17-5.31,3.11-7.03,5.66l-0.04,0.07c-0.02-0.04-0.04-0.09-0.07-0.14
				c-0.13-0.34-0.18-0.75-0.15-1.16c0-0.09,0.01-0.17,0.02-0.25c1.79-2.29,4.19-4.08,6.96-5.21c0.26-0.1,0.52,0.01,0.63,0.28
				C642.35,476.82,642.26,477.19,641.93,477.32z"/>
			<path class="st23" d="M646.98,479.41c-0.03,0.2-0.15,0.36-0.35,0.43v0.01c-1.51,0.58-3.03,2.07-4.37,3.39
				c-0.35,0.35-0.68,0.67-1.01,0.97c-0.05,0-0.11-0.01-0.17-0.02c-0.39-0.04-0.76-0.06-1.13-0.04c-0.07,0-0.14,0-0.21,0.01
				l0.11-0.11c0.29-0.26,0.57-0.53,0.86-0.78l0.1-0.09c0.35-0.32,0.72-0.67,1.09-1.03c1.31-1.25,2.78-2.69,4.41-3.32
				c0.18-0.07,0.34-0.06,0.47,0.06C646.94,478.99,647.02,479.2,646.98,479.41z"/>
			<path class="st23" d="M680.47,467.36c-2.52-0.16-4.98-0.29-7.45-0.16c-0.2,0.01-0.37,0.12-0.45,0.29
				c-0.09,0.18-0.08,0.41,0.02,0.58c0.09,0.15,0.25,0.22,0.45,0.21c2.46-0.13,4.91,0,7.42,0.16c0.01,0,0.03,0,0.04,0
				c0.27,0,0.48-0.19,0.49-0.48C681,467.69,680.83,467.38,680.47,467.36z"/>
			<path class="st23" d="M545.75,468.95c-2.77-0.2-5.15-0.09-7.76,1.06c-2.03,0.9-4.07,1.89-6.04,2.84
				c-0.94,0.46-1.89,0.91-2.84,1.36c-0.26,0.12-0.36,0.4-0.23,0.66c0.09,0.19,0.29,0.34,0.52,0.34c0.08,0,0.16-0.02,0.24-0.06
				l2.23-1.06c1.76-0.84,3.53-1.68,5.3-2.51c2.83-1.34,5.32-1.79,8.57-1.56c0.28,0.02,0.51-0.17,0.53-0.47
				C546.29,469.29,546.11,468.98,545.75,468.95z"/>
			<path class="st23" d="M520.12,468.11c-3.42,1.82-6.79,3.2-10.04,4.11c-4.89,1.36-8.26,0.62-10-2.2c-0.1-0.16-0.26-0.26-0.45-0.26
				c-0.01,0-0.01,0-0.02,0c-0.2,0.01-0.4,0.12-0.49,0.3c-0.08,0.16-0.08,0.34,0.02,0.51c1.59,2.56,4.07,3.47,6.83,3.47
				c5.3,0,11.64-3.38,14.68-5c0.18-0.09,0.24-0.23,0.26-0.33c0.03-0.12,0.01-0.25-0.06-0.37
				C520.73,468.11,520.43,467.95,520.12,468.11z"/>
			<path class="st23" d="M503.4,467.03c0.04,0,0.08,0,0.12-0.01l0.5-0.11c0.19-0.04,0.29-0.15,0.34-0.24
				c0.06-0.11,0.08-0.24,0.05-0.37c-0.06-0.27-0.31-0.51-0.66-0.44l-0.5,0.11c-0.34,0.07-0.44,0.36-0.39,0.6
				C502.91,466.81,503.11,467.03,503.4,467.03z"/>
			<path class="st23" d="M505.34,464.08c0.06,0.02,0.12,0.03,0.18,0.03c0.13,0,0.25-0.05,0.36-0.14c0.15-0.13,0.29-0.21,0.48-0.27
				c0.19-0.07,0.32-0.21,0.36-0.41c0.04-0.2-0.03-0.42-0.18-0.55c-0.13-0.11-0.31-0.15-0.48-0.08c-0.35,0.12-0.64,0.29-0.93,0.53
				c-0.14,0.12-0.21,0.28-0.17,0.46C504.99,463.84,505.14,464.01,505.34,464.08z"/>
			<path class="st23" d="M507.85,468.37c0.03,0,0.07,0,0.11-0.01l0.7-0.13c0.28-0.05,0.45-0.29,0.39-0.58
				c-0.05-0.28-0.31-0.53-0.66-0.47l-0.7,0.13c-0.28,0.05-0.45,0.29-0.39,0.58C507.34,468.14,507.56,468.37,507.85,468.37z"/>
			<path class="st23" d="M509.83,464.75c0.05,0,0.1-0.01,0.15-0.02l0.9-0.24c0.33-0.09,0.44-0.4,0.37-0.65
				c-0.07-0.26-0.32-0.48-0.65-0.39l-0.9,0.24c-0.19,0.05-0.32,0.18-0.37,0.36c-0.05,0.2,0.01,0.41,0.15,0.56
				C509.57,464.7,509.7,464.75,509.83,464.75z"/>
			<path class="st23" d="M526.26,445.42c-0.32-0.1-0.66-0.18-1.01-0.23c-0.09-0.03-0.18-0.07-0.26-0.1
				c-1.03-0.29-2.05-0.19-3.09,0.31c-0.65,0.31-0.78,1.07-0.57,1.63l0.02,0.09c0.17,0.56,0.66,0.94,1.29,0.98l0.01-0.13l0.06,0.14
				h0.03c0.53,0.18,1.07,0.26,1.62,0.26c0.74,0,1.49-0.17,2.22-0.48c0.45-0.21,0.7-0.64,0.67-1.17
				C527.2,446.1,526.79,445.57,526.26,445.42z"/>
			<path class="st23" d="M751.5,494.05c0.19,0.16,0.45,0.23,0.68,0.16c0.01,0,0.03-0.01,0.04-0.01c0.21-0.07,0.35-0.24,0.39-0.48
				c0.39-2.07,0.7-4.28,0.3-6.48c-0.34-1.87-1.19-3.65-2.01-5.37c-0.22-0.47-0.45-0.94-0.66-1.4c-0.1-0.21-0.26-0.34-0.47-0.36
				c-0.24-0.02-0.5,0.1-0.65,0.32c-0.15,0.21-0.18,0.48-0.07,0.72c0.21,0.46,0.43,0.92,0.65,1.38c0.65,1.35,1.32,2.75,1.7,4.2
				c0.59,2.23,0.29,4.52-0.11,6.66C751.23,493.64,751.31,493.88,751.5,494.05z"/>
			<path class="st23" d="M747.63,485.63c0.1,0.43,0.48,0.55,0.79,0.48c0.01,0,0.02-0.01,0.03-0.01c0.33-0.09,0.61-0.4,0.51-0.83
				c-0.71-3.08-2.15-5.87-4.27-8.28c-0.16-0.18-0.36-0.25-0.58-0.21c-0.23,0.05-0.45,0.24-0.54,0.5c-0.08,0.24-0.03,0.49,0.14,0.69
				C745.64,480.16,746.96,482.74,747.63,485.63z"/>
			<path class="st23" d="M725.81,467.05c-0.12-0.43-0.53-0.55-0.86-0.46c-0.32,0.09-0.59,0.41-0.47,0.83
				c0.68,2.36,1.84,4.5,3.47,6.37c0.14,0.16,0.31,0.23,0.46,0.23c0.16,0,0.32-0.07,0.43-0.17c0.27-0.23,0.39-0.67,0.09-1.02
				C727.48,471.15,726.43,469.21,725.81,467.05z"/>
		</g>
		<path class="st22" d="M563.21,462.01c-0.29-0.37-0.62-0.75-0.97-1.1c-0.31-0.31-0.57-0.65-0.86-0.99l-0.01-0.01
			c-0.02-0.02-0.04-0.06-0.06-0.08c-0.62-0.75-1.23-1.5-2.12-1.9c-0.11-0.06-0.23-0.1-0.35-0.14c-1.82-0.62-3.8,0.21-5.55-0.73
			c-0.03-0.01-0.07-0.03-0.09-0.05c-0.08-0.03-0.15-0.08-0.22-0.13c-2.76-1.73-3.5-5.84-6.69-7.06c-0.74-0.28-1.52-0.31-2.26,0.02
			c-0.76,0.33-1.54,0.76-2.12,1.36c-0.46,0.47-0.69,1.06-1.05,1.58c-0.14,0.19-0.3,0.37-0.48,0.55c-0.23,0.21,0.3,1.75,1.01,3.61
			c0.14,0.35,0.29,0.72,0.43,1.09c0.66,1.67,1.38,3.44,1.77,4.66c0.28,0.84,0.45,1.74,0.69,2.62c0.1,0.21,0.2,0.42,0.3,0.63
			c0.84,1.63,1.84,2.94,3.91,3.43c0.94,0.22,1.9,0.4,2.88,0.55c2.18,0.33,4.41,0.51,6.59,0.66c0.59,0.04,1.18,0.08,1.76,0.12
			c2.14,0.17,4.18,0.1,4.42-2.28C564.38,466.27,563.86,464.11,563.21,462.01z"/>
		<g>
			<path class="st13" d="M507.19,476.55c-4,0-6.21-1.79-6.31-1.87c-0.21-0.18-0.24-0.49-0.07-0.7c0.17-0.21,0.49-0.24,0.7-0.07
				c0.02,0.02,2.4,1.93,6.62,1.61c1.2-0.09,2.32-0.16,3.36-0.22c2.91-0.18,5.2-0.33,7.46-0.74c3.13-0.57,5.19-0.58,5.28-0.58
				c0.28,0,0.5,0.22,0.5,0.5c0,0.28-0.22,0.5-0.5,0.5c-0.02,0-2.07,0.01-5.1,0.56c-2.31,0.42-4.75,0.57-7.58,0.75
				c-1.04,0.07-2.15,0.13-3.35,0.22C507.86,476.54,507.52,476.55,507.19,476.55z"/>
		</g>
		<path class="st23" d="M504.93,480.24c-1.56,0.75-2.99,1.68-4.26,2.82c-0.34-0.18-0.67-0.37-0.97-0.62
			c1.38-1.27,2.94-2.32,4.67-3.15C505.01,478.99,505.57,479.95,504.93,480.24z"/>
		<path class="st22" d="M714.21,426.87c-7.95-8.24-19.06-12.49-30.26-13.87c-1.84-0.23-3.69-0.37-5.53-0.46
			c0.23,2.53,0.67,5.04,1.35,7.51c0.94,3.4,2.1,5.37,5.59,6.31c0.96,0.25,2.37,0.41,3.17,1.03c1.25,1,1.6,2.34,1.66,3.84
			c0.04,0.99-0.02,2.01,0.11,3.02c0.03,0.36,0.11,0.74,0.23,1.09c0.05,0.2,0.13,0.4,0.22,0.58c0.03,0.08,0.08,0.15,0.12,0.23
			c1.2,2.19,4.02,2.66,6.26,1.88c1.66-0.57,2.93-1.71,4.11-2.95c0.17-0.18,0.33-0.35,0.5-0.53c0.19-0.2,0.36-0.4,0.54-0.59
			c1.47-1.6,2.96-3.14,5.06-3.78c2.94-0.88,5.89-0.07,8.33-1.64C715.23,427.98,714.74,427.41,714.21,426.87z"/>
		<path class="st22" d="M675.3,418.43c-1.24-1.33-2.82-1.94-4.52-2.03c-4.79-0.28-10.58,3.46-13,6.32
			c-1.06,1.25-3.28,3.24-1.75,4.93c1.32,1.47,3.87,0.64,5.49,0.39c2.22-0.35,4.39,0.22,6.55,0.08c0.81-0.05,1.63-0.2,2.43-0.54
			c2-0.85,3.67-2.48,4.59-4.45C675.69,421.87,676.41,419.62,675.3,418.43z"/>
		<path class="st22" d="M616.49,481.35c-1.24-1.27-2.61-2.43-3.92-3.63c-0.89-0.81-1.79-1.76-2.73-2.69
			c-1.34-1.33-2.74-2.61-4.29-3.4c-1.65-0.84-4.69-1.16-6.25,0.05c-1.09,0.84-1.65,2.55-1.99,4.17c-0.18,0.86-0.3,1.7-0.39,2.36
			c-0.29,1.93,0.26,2.62,1.19,3.41c0.52,0.44,1.17,0.92,1.85,1.67c0.32,0.34,0.58,0.78,0.84,1.27c5.24-0.04,11.03,0.28,15.77-2.09
			c0.02,0,0.03-0.01,0.06-0.02c0.19-0.09,0.36-0.19,0.54-0.3C616.94,481.84,616.7,481.57,616.49,481.35z"/>
		<path class="st22" d="M605.06,463.42c-1.7-0.41-3.29,0.7-3.83,2.28c-0.03,0.1-0.03,0.18-0.02,0.26c-0.33,1.18,0.63,2.39,1.84,2.66
			c1.32,0.3,3.86-0.14,4.41-1.6C608.06,465.43,606.51,463.76,605.06,463.42z"/>
		<path class="st22" d="M626.71,436.73c-0.44-0.4-0.96-0.75-1.5-1.07c-1.79-1.1-3.93-1.9-5.18-2.59c-2.53-1.38-4.92-2.5-6.31-5.18
			c-0.94-1.81-1.56-3.42-3.24-4.68c-5.83-4.38-11.85-1.43-16.64,2.87c-0.45-0.09-0.9-0.19-1.35-0.28c-1.84-0.36-3.86-0.84-5.65,0.01
			c-3.15,1.49-3.11,5.66-2.31,8.54c0.2,0.7,0.45,1.39,0.75,2.04c0.18,0.37,0.36,0.74,0.57,1.09c0.45,0.78,0.99,1.52,1.58,2.21
			c0.88,1.02,1.81,1.94,2.55,3.07c0.32,0.5,0.59,0.97,0.94,1.4c0.19,0.23,0.4,0.46,0.64,0.67c3.09,2.62,8.89,1.58,12.59,1.96
			c4.97,0.48,10.02,1.25,14.96,0.15c3.24-0.73,8.38-2.77,9.16-6.47c0.01-0.01,0.01-0.02,0.01-0.03
			C628.59,438.94,627.86,437.73,626.71,436.73z"/>
		<path class="st23" d="M539.68,451.74c-0.57-1.18-1.18-2.34-1.84-3.48c-0.35-0.61-1.3-0.06-0.95,0.56c0.66,1.14,1.27,2.3,1.84,3.48
			C539.04,452.93,539.99,452.38,539.68,451.74z"/>
		<path class="st23" d="M559.75,450.81c-0.68-1.33-1.39-2.66-2.34-3.82c-1.66-2.01-3.36-2.79-3.58-5.81c-0.05-0.7-1.15-0.71-1.1,0
			c0.09,1.24,0.18,2.52,0.89,3.58c0.9,1.37,2.47,2.22,3.45,3.58c2.25,3.13,4.28,7.45,4.72,11.27c0.08,0.7,1.18,0.7,1.1,0
			C562.51,456.45,561.19,453.64,559.75,450.81z"/>
		<g>
			<path class="st13" d="M513.24,483.48c-0.18,0-0.36-0.1-0.44-0.27c-0.13-0.25-0.03-0.55,0.21-0.67l16.76-8.68
				c0.24-0.13,0.55-0.03,0.67,0.21c0.13,0.25,0.03,0.55-0.21,0.67l-16.76,8.68C513.4,483.46,513.32,483.48,513.24,483.48z"/>
		</g>
	</g>
	<g>
		<path class="st18" d="M430.72,417.87c-0.02,0-0.03,0-0.05,0c-0.27-0.03-0.48-0.27-0.45-0.54c0.17-1.86,4.21-45.64,8.41-57.3
			c0.09-0.26,0.38-0.39,0.64-0.3c0.26,0.09,0.39,0.38,0.3,0.64c-4.15,11.55-8.31,56.6-8.35,57.06
			C431.2,417.67,430.98,417.87,430.72,417.87z"/>
	</g>
	<g>
		<path class="st18" d="M472.91,424.72c-0.03,0-0.06,0-0.08-0.01c-0.27-0.05-0.46-0.3-0.41-0.58c0.04-0.23,3.88-22.67,5.88-30.31
			c1.98-7.57,2.55-15.36,2.55-15.44c0.02-0.28,0.28-0.49,0.53-0.46c0.28,0.02,0.48,0.26,0.46,0.53c-0.01,0.08-0.58,7.96-2.58,15.63
			c-1.99,7.6-5.82,30-5.86,30.22C473.36,424.55,473.15,424.72,472.91,424.72z"/>
	</g>
	<g>
		<path class="st16" d="M318.91,481.49c-0.19,0-0.38-0.11-0.46-0.3c-0.11-0.25,0.01-0.55,0.26-0.66l43.34-18.63
			c0.25-0.11,0.55,0.01,0.66,0.26c0.11,0.25-0.01,0.55-0.26,0.66l-43.34,18.63C319.05,481.48,318.98,481.49,318.91,481.49z"/>
	</g>
	<g>
		<path class="st8" d="M585.71,66.98l-8.03,73.12H388.79l8.72-79.4c2.17-0.74,4.35-1.45,6.53-2.14c7.2-2.28,14.43-4.27,21.73-5.99
			c3.98-0.95,8-1.81,12.02-2.59c15.9-3.09,32.08-4.94,48.7-5.67c19.05-0.84,35.55,0.72,50.26,3.93c5.81,1.25,11.34,2.78,16.63,4.52
			c9.54,3.13,18.33,6.93,26.62,11.18C581.92,64.94,583.83,65.94,585.71,66.98z"/>
		<path class="st0" d="M580,63.95l-8.12,70.62H395.3l8.74-76.01c7.2-2.28,14.43-4.27,21.73-5.99c3.98-0.95,8-1.81,12.02-2.59
			c15.9-3.09,32.08-4.94,48.7-5.67c19.05-0.84,35.55,0.72,50.26,3.93c5.81,1.25,11.34,2.78,16.63,4.52
			C562.92,55.89,571.7,59.7,580,63.95z"/>
		<g>
			<path class="st24" d="M536.74,55.14c-4.08,1.45-10.13,4.38-11.28,9c-0.39,1.56-0.35,3.19-0.32,4.8
				c0.15,7.74-0.88,15.84,0.15,23.51c0.34,2.52,2.03,3.75,4.44,4.11c1.77-9.61,3.54-19.21,5.33-28.8c0.7-3.82,1.77-8.42,2.07-12.75
				C537,55.06,536.87,55.1,536.74,55.14z M558.78,73.76c-0.62-5.8-1.2-11.51-5.82-15.6c-0.19-0.17-0.37-0.32-0.56-0.47
				c-0.8,3.54-1.74,7.09-2.45,10.51c-1.67,8.16-2.92,16.81-5.06,25.08c4.85-1.95,9.16-4.22,10.9-5.29
				C561.36,84.51,559.4,79.62,558.78,73.76z"/>
			<path class="st25" d="M536.74,48.24c0.5,2.05,0.56,4.37,0.39,6.77c5.27-1.74,10.94-0.83,15.27,2.67c0.37-1.64,0.7-3.28,0.98-4.92
				C548.08,51.03,542.55,49.5,536.74,48.24z M529.73,96.56c-0.03,0.2-0.08,0.4-0.11,0.59c-0.42,2.23-0.4,5.28-1.36,7.34
				c-1.49,3.16-4.24,3.69-7.51,3.47c-4.24-0.29-8.45-1.39-12.72-1.06c-3.3,0.25-5.95,1.41-8.67,3.21c-4.7,3.13-8.78,4.2-14.43,3.79
				c-7.48-0.55-14.95-1.55-22.32-2.99c-3.9-0.76-7.77-1.65-11.6-2.65c-5.36-1.4-10.16-2.97-14.14-7.01
				c-3.63-3.67-6.75-7.99-9.99-12.02c-0.14-2.85,0.15-5.69,0.47-8.53c0.04-0.44-0.14-0.72-0.42-0.88c0.14-1.25,0.25-2.51,0.37-3.76
				c0.33-0.15,0.59-0.45,0.62-0.91c0.36-5.45,2.17-10.3,4.45-15.23c0.87-1.85,1.73-3.85,2.74-5.77c0.78-1.49,1.65-2.91,2.69-4.16
				c-4.02,0.78-8.03,1.64-12.02,2.59c-0.1,4.18,0.18,8.43,0.07,12.54c-0.03,1.24-0.09,2.49-0.15,3.72c-0.44,8.54-1.55,17-3.2,25.39
				c-0.28,1.39,1.84,1.97,2.11,0.58c0.14-0.7,0.26-1.41,0.4-2.11c0.28,1.51,0.7,2.99,1.36,4.41c2.65,5.67,3.17,10.51,8.56,14.11
				c4.78,3.18,10.2,4.94,15.83,6.05c5.93,1.17,12.09,1.62,17.91,2.25c15.07,1.62,30.28,3.72,45.47,3.42
				c11.7-0.22,20.05-4.29,25.42-14.96c2.33-4.63,4.01-9.6,5.34-14.69C539.59,95.39,533.67,97.13,529.73,96.56z"/>
			<path class="st24" d="M468.28,79.28c-0.4-6.97-0.59-15.34-5.27-21c-2.95-3.54-7.32-4.02-11.59-4.48
				c-5.1-0.54-11.39-1.81-16.32,0.34c-0.87,0.36-1.7,0.85-2.47,1.45c-4.03,3.19-5.55,8.46-6.96,13.23
				c-0.08,0.25-0.15,0.52-0.23,0.77c-2.53,8.43-4.59,16.99-6.16,25.66c-0.91,5.04-3.49,12.83-2.36,17.9
				c1.41,6.24,13.27,5.26,18.09,5.38c5.18,0.13,10.59-0.07,15.72-1.27c2.21-0.51,4.37-1.21,6.44-2.15c2.2-1,3.98-2.44,5.43-4.2
				C469.2,102.92,468.81,88.37,468.28,79.28z M455.22,101.64c-0.9,1.11-2.04,2.01-3.42,2.65c-1.3,0.58-2.66,1.03-4.06,1.35
				c-3.24,0.75-6.65,0.88-9.92,0.79c-3.05-0.08-10.53,0.54-11.42-3.39c-0.72-3.2,0.91-8.11,1.49-11.29c1-5.47,2.3-10.87,3.9-16.19
				c0.04-0.17,0.1-0.33,0.14-0.5c0.89-3,1.85-6.33,4.39-8.34c0.48-0.39,1-0.69,1.55-0.91c3.11-1.36,7.09-0.56,10.3-0.22
				c2.7,0.29,5.46,0.59,7.32,2.83c2.95,3.57,3.07,8.85,3.32,13.25C459.14,87.4,459.38,96.58,455.22,101.64z"/>
			<path class="st26" d="M488.55,47.54c-3.37-3.51-7.04-0.41-9.12,2.78c-3.13,4.81-3.78,10.75-4.48,16.31
				c-0.54,4.26-3.35,12.11-0.8,15.99c4.35,6.65,10.58-6.41,11.53-9.29C487.93,66.58,494.75,54.01,488.55,47.54z"/>
			<path class="st26" d="M496.11,74.43c-5.72-7.39-18.22,19.81-14.75,25.18c3.03,4.69,8.54-1.68,9.83-4.44
				c1.96-4.2,3.41-8.72,4.81-13.13C496.75,79.68,497.83,76.66,496.11,74.43z"/>
		</g>
	</g>
	<g>
		<path class="st18" d="M499.22,438.89c-0.04,0-0.08,0-0.12-0.02l-7.31-1.88c-0.27-0.07-0.43-0.34-0.36-0.61
			c0.07-0.27,0.34-0.43,0.61-0.36l7.31,1.88c0.27,0.07,0.43,0.34,0.36,0.61C499.65,438.74,499.44,438.89,499.22,438.89z"/>
	</g>
</g>
</svg>
