<?xml version="1.0" encoding="utf-8"?>
<!-- Generator: Adobe Illustrator 24.1.3, SVG Export Plug-In . SVG Version: 6.00 Build 0)  -->
<svg version="1.1" id="레이어_1" xmlns="http://www.w3.org/2000/svg" xmlns:xlink="http://www.w3.org/1999/xlink" x="0px"
	 y="0px" viewBox="0 0 841.89 595.28" style="enable-background:new 0 0 841.89 595.28;" xml:space="preserve">
<style type="text/css">
	.st0{fill:#FFFFFF;}
	.st1{fill:#FBF9F7;}
	.st2{fill:#E5D5CE;}
	.st3{fill:#D4BEB5;}
	.st4{fill:#47587B;}
	.st5{fill:#D4654C;}
	.st6{fill:#4A4747;}
	.st7{fill:#F6D0B0;}
	.st8{fill:#F3A287;}
	.st9{fill:#9F664E;}
	.st10{fill:#E7805D;}
	.st11{fill:#262730;}
	.st12{fill:#6A3939;}
	.st13{fill:#DEAB7E;}
	.st14{fill:#DFCBC2;}
	.st15{fill:#749F85;}
	.st16{fill:#558265;}
	.st17{fill:#F9D390;}
	.st18{fill:#3D6554;}
	.st19{fill:#D49C80;}
	.st20{fill:#ECDFD9;}
</style>
<line class="st0" x1="1651.67" y1="704.21" x2="-2326.05" y2="704.21"/>
<g>
	<path class="st1" d="M749.94,297.09c-2.01-12.49-4.53-24.91-7.53-37.21c-1.47-6.03-3.06-12.03-4.76-18
		c-13.21-46.18-34.55-91.84-70.57-123.33c-1.54-1.35-3.11-2.68-4.7-3.97c-0.21-0.17-0.43-0.34-0.64-0.51
		C623.75,83.54,574.48,71.2,526.5,62.53c-80.69-14.6-164.99-21.04-243.8,1.63c-40.47,11.64-79.37,31.94-111.16,60
		c-1.81,1.59-3.59,3.2-5.34,4.85c-11.8,11.02-22.52,23.17-31.85,36.38c-11.22,15.89-19.16,32.95-25.83,50.65
		c-3.13,8.3-5.97,16.74-8.75,25.26c-1.53,4.73-3.05,9.5-4.58,14.28c-0.46,1.43-0.91,2.86-1.36,4.3c-3.35,10.6-6.57,21.28-9.51,32.03
		c-1.35,4.93-2.64,9.87-3.86,14.83c-5.31,21.51-9.28,43.32-10.83,65.45c-0.96,13.66-0.99,27.37,0.15,41.01
		c0.18,2.13,0.38,4.26,0.62,6.39c2,18.06,6.38,36.46,17.27,51.01c0.72,0.96,1.46,1.9,2.23,2.82c0.37,0.46,0.76,0.91,1.15,1.36
		c0.53,0.61,1.07,1.21,1.62,1.8c0.38,0.42,0.77,0.83,1.19,1.23c1.05,1.1,2.16,2.18,3.3,3.21c0.46,0.43,0.92,0.84,1.39,1.25
		c0.11,0.09,0.21,0.18,0.32,0.27c0.57,0.49,1.14,0.98,1.73,1.45c0.09,0.07,0.18,0.15,0.27,0.22c0.63,0.52,1.26,1.02,1.91,1.5
		l0.01,0.01c0.33,0.26,0.66,0.51,1,0.75c0.45,0.34,0.91,0.67,1.37,1c0.29,0.21,0.58,0.42,0.87,0.61c0.34,0.24,0.68,0.48,1.03,0.7
		c0.31,0.22,0.63,0.43,0.95,0.64c0.42,0.28,0.85,0.56,1.28,0.83c0.25,0.17,0.51,0.33,0.77,0.48c0.36,0.24,0.73,0.46,1.1,0.68
		c0.39,0.24,0.78,0.48,1.18,0.71c0.4,0.24,0.8,0.47,1.21,0.7c0.17,0.1,0.35,0.2,0.53,0.3c0.54,0.31,1.09,0.62,1.65,0.92
		c1.42,0.77,2.87,1.51,4.34,2.23c2.33,1.14,4.72,2.21,7.15,3.21c0.71,0.29,1.41,0.58,2.13,0.86c0.76,0.3,1.53,0.6,2.3,0.89
		c0.67,0.25,1.34,0.5,2.01,0.74c2.35,0.85,4.74,1.64,7.15,2.39c0.33,0.1,0.66,0.2,1,0.3c0.67,0.2,1.35,0.4,2.02,0.6
		c0.84,0.24,1.68,0.48,2.52,0.71c0.56,0.16,1.12,0.31,1.69,0.46c7.06,1.88,14.28,3.38,21.49,4.59c0.78,0.14,1.55,0.26,2.33,0.39
		c0.78,0.12,1.55,0.24,2.33,0.36c1.55,0.24,3.1,0.46,4.65,0.67c0.34,0.05,0.67,0.1,1,0.14c0.03,0,0.07,0.01,0.1,0.01
		c0.8,0.11,1.6,0.21,2.39,0.31c0.83,0.11,1.66,0.21,2.49,0.31c0.74,0.09,1.48,0.18,2.22,0.26c1.99,0.23,3.96,0.44,5.92,0.64
		c1.28,0.12,2.55,0.24,3.81,0.36c0.89,0.08,1.78,0.15,2.67,0.23c5.81,0.5,11.62,0.95,17.43,1.36c0.33,0.02,0.67,0.05,1,0.06
		c2.66,0.19,5.32,0.37,7.98,0.53c1.3,0.09,2.6,0.17,3.9,0.25c1.12,0.07,2.24,0.13,3.36,0.2c2.16,0.13,4.31,0.25,6.47,0.36
		c0.37,0.02,0.74,0.04,1.11,0.05c2,0.11,4.01,0.21,6.01,0.31c2.74,0.13,5.47,0.25,8.2,0.37c0.33,0.01,0.67,0.03,1,0.05
		c3.84,0.16,7.68,0.3,11.52,0.43c1.94,0.07,3.88,0.13,5.81,0.19c1.75,0.05,3.49,0.1,5.24,0.15c2.28,0.06,4.55,0.12,6.82,0.17
		c2.55,0.07,5.09,0.12,7.64,0.17c0.33,0.01,0.67,0.02,1,0.02c2.9,0.06,5.8,0.11,8.7,0.15c1.67,0.03,3.34,0.05,5.01,0.07
		c1.63,0.02,3.27,0.04,4.9,0.06c2.49,0.03,4.99,0.05,7.48,0.06c2.9,0.03,5.8,0.04,8.7,0.05h2.24c7.91,0.02,15.83,0.01,23.75-0.05
		h1.15c3.71-0.02,7.43-0.05,11.14-0.08c15.21-0.13,30.42-0.34,45.64-0.58h0.01c2.51-0.04,5.03-0.08,7.54-0.12h0.05
		c24.7-0.4,49.4-0.84,74.11-1.05c8.92-0.08,17.84-0.13,26.76-0.14h1c6.14,0,12.3-0.02,18.47-0.08c2.82-0.02,5.63-0.05,8.45-0.09
		l2.04-0.03c2.36-0.03,4.72-0.07,7.08-0.12c0.33-0.01,0.66-0.01,0.99-0.02c0.33-0.01,0.67-0.01,1-0.02c4.63-0.1,9.26-0.23,13.89-0.4
		c1.27-0.04,2.55-0.09,3.82-0.14c3.5-0.14,7-0.3,10.5-0.48c1.4-0.08,2.8-0.16,4.19-0.24c1.55-0.09,3.09-0.19,4.63-0.29
		c0.34-0.02,0.67-0.04,1-0.06c0.91-0.06,1.81-0.12,2.72-0.19c1.57-0.11,3.15-0.22,4.72-0.35c1.59-0.12,3.19-0.25,4.78-0.39
		c0.08,0,0.17-0.01,0.25-0.02c1.62-0.14,3.24-0.28,4.86-0.44c1.65-0.15,3.29-0.32,4.93-0.49c1.47-0.15,2.93-0.31,4.39-0.47
		c3.47-0.39,6.93-0.81,10.38-1.27c0.34-0.05,0.67-0.09,1-0.14c0.02,0,0.04-0.01,0.06-0.01c1.54-0.21,3.07-0.42,4.61-0.65
		c1.37-0.2,2.74-0.41,4.12-0.62c1.47-0.23,2.95-0.47,4.43-0.72c0.61-0.1,1.22-0.2,1.82-0.31c1.19-0.19,2.38-0.4,3.57-0.62
		c3.09-0.55,6.16-1.15,9.24-1.78c1.53-0.31,3.06-0.63,4.59-0.97c1.54-0.33,3.06-0.68,4.59-1.03c0.34-0.07,0.67-0.15,1-0.23
		c0.1-0.02,0.19-0.05,0.29-0.07c1.45-0.34,2.9-0.69,4.35-1.05c8.69-2.17,15.47-3.98,21.09-6.06c2.61-0.97,4.97-2,7.16-3.15
		c9.99-5.25,16.33-13.03,26.12-29.27c7.47-12.39,14.6-33.17,18.82-52.27c2.24-10.16,3.66-19.84,3.85-27.53
		C756.68,356.05,754.66,326.35,749.94,297.09z"/>
	<path class="st2" d="M667.08,118.55v131.43H166.2V129.01c1.75-1.65,3.53-3.26,5.34-4.85c31.79-28.06,70.69-48.36,111.16-60
		c78.81-22.67,163.11-16.23,243.8-1.63c47.98,8.67,97.25,21.01,135.24,51.54c0.21,0.17,0.43,0.34,0.64,0.51
		C663.97,115.87,665.54,117.2,667.08,118.55z"/>
	<path class="st0" d="M661.74,114.07v130.65h-490.2V124.16c12.6-11.13,26.33-21.03,40.83-29.66c0.56-0.34,1.12-0.67,1.69-1
		c21.58-12.65,44.84-22.49,68.64-29.34c13.26-3.82,26.67-6.81,40.2-9.07c0.33-0.06,0.67-0.11,1-0.17
		c60.62-9.99,123.46-5.49,184.64,4.51c0.33,0.06,0.67,0.11,1,0.16c5.67,0.94,11.32,1.92,16.96,2.94
		c35.37,6.39,71.43,14.78,103.17,30.97c0.64,0.33,1.29,0.66,1.93,1C642.21,100.05,652.33,106.5,661.74,114.07z"/>
	<path class="st2" d="M509.54,171.97V94.5H631.6c-0.64-0.34-1.29-0.67-1.93-1H509.54V59.59c-0.33-0.05-0.67-0.1-1-0.16V93.5H323.9
		V54.92c-0.33,0.06-0.67,0.11-1,0.17V93.5H214.06c-0.57,0.33-1.13,0.66-1.69,1H322.9v77.47H167.39v1H322.9v71.73h1v-71.73h184.64
		v71.73h1v-71.73h156.31v-1H509.54z M508.54,171.97H323.9V94.5h184.64V171.97z"/>
	<path class="st3" d="M752.06,413.2c-4.22,19.1-11.35,39.88-18.82,52.27c-9.79,16.24-16.13,24.02-26.12,29.27
		c-2.19,1.15-4.55,2.18-7.16,3.15c-5.62,2.08-12.4,3.89-21.09,6.06c-1.54,0.38-3.09,0.76-4.64,1.12c-0.33,0.08-0.66,0.16-1,0.23
		c-12.21,2.83-24.57,5.02-37.03,6.71c-0.33,0.05-0.66,0.09-1,0.14c-12.27,1.64-24.63,2.8-37.03,3.62c-0.33,0.02-0.66,0.04-1,0.06
		c-12.33,0.81-24.69,1.28-37.03,1.55c-0.33,0.01-0.67,0.01-1,0.02c-12.39,0.26-24.75,0.33-37.03,0.34h-1
		c-8.92,0.01-17.84,0.06-26.76,0.14c-24.71,0.21-49.41,0.65-74.11,1.05h-0.05c-2.51,0.04-5.03,0.08-7.54,0.12h-0.01
		c-15.22,0.24-30.43,0.45-45.64,0.58c-3.71,0.03-7.43,0.06-11.14,0.08h-1.15c-7.59,0.02-15.17,0.04-22.75,0.04
		c-0.33,0.01-0.67,0.01-1,0.01h-2.24c-11.6-0.04-23.19-0.16-34.79-0.39c-0.33,0-0.67-0.01-1-0.02c-12.34-0.24-24.69-0.6-37.03-1.11
		c-0.33-0.02-0.67-0.04-1-0.05c-12.34-0.52-24.69-1.2-37.03-2.07c-0.33-0.01-0.67-0.04-1-0.06c-5.81-0.41-11.62-0.86-17.43-1.36
		c-6.36-0.54-12.94-1.23-19.6-2.12c-0.33-0.04-0.66-0.09-1-0.14c-12.37-1.69-25-4.13-37.03-7.78c-0.34-0.1-0.67-0.2-1-0.3
		c-4.64-1.44-9.19-3.05-13.59-4.88c-2.43-1-4.82-2.07-7.15-3.21c-5.79-2.83-11.26-6.07-16.28-9.8c-0.34-0.24-0.67-0.49-1-0.75
		c-5.71-4.35-10.81-9.36-15.12-15.12c-10.89-14.55-15.27-32.95-17.27-51.01c-0.24-2.13-0.44-4.26-0.62-6.39H752.06z"/>
	<g>
		<g>
			<path class="st1" d="M674.23,401.67v103.4c-0.33,0.08-0.66,0.16-1,0.23V401.67H674.23z"/>
		</g>
		<g>
			<path class="st1" d="M636.2,401.67v110.34c-0.33,0.05-0.66,0.09-1,0.14V401.67H636.2z"/>
		</g>
		<g>
			<path class="st1" d="M598.17,401.67v114.1c-0.33,0.02-0.66,0.04-1,0.06V401.67H598.17z"/>
		</g>
		<g>
			<path class="st1" d="M560.14,401.67v115.71c-0.33,0.01-0.67,0.01-1,0.02V401.67H560.14z"/>
		</g>
		<g>
			<rect x="521.11" y="401.67" class="st1" width="1" height="116.07"/>
		</g>
		<g>
			<path class="st1" d="M331.96,401.67v118.08c-0.33,0.01-0.67,0.01-1,0.01V401.67H331.96z"/>
		</g>
		<g>
			<path class="st1" d="M293.93,401.67v117.7c-0.33,0-0.67-0.01-1-0.02V401.67H293.93z"/>
		</g>
		<g>
			<path class="st1" d="M255.9,401.67v116.57c-0.33-0.02-0.67-0.04-1-0.05V401.67H255.9z"/>
		</g>
		<g>
			<path class="st1" d="M217.87,401.67v114.45c-0.33-0.01-0.67-0.04-1-0.06V401.67H217.87z"/>
		</g>
		<g>
			<path class="st1" d="M179.84,401.67v110.91c-0.33-0.04-0.66-0.09-1-0.14V401.67H179.84z"/>
		</g>
		<g>
			<path class="st1" d="M141.81,401.67v102.99c-0.34-0.1-0.67-0.2-1-0.3V401.67H141.81z"/>
		</g>
		<g>
			<path class="st1" d="M103.79,401.67v84.8c-0.34-0.24-0.67-0.49-1-0.75v-84.05H103.79z"/>
		</g>
	</g>
	<g>
		<g>
			<path class="st4" d="M669.33,309.69c0,0-1.55,40.02-2.58,42.19c-1.03,2.17-9.36,3.83-15.29,3.31c-8.48-0.75-11.82-2.78-12.9-4.14
				c-1.08-1.36-2.86-41.01-2.86-41.01L669.33,309.69z"/>
		</g>
		<g>
			<path class="st4" d="M649.62,332.32c-1.1-8.34-7.01-14.47-13.17-13.66c-0.11,0.01-0.22,0.03-0.33,0.05
				c-5.99,1.03-9.95,8.35-8.87,16.55c0.52,3.92,2.09,7.49,4.44,10.04c1.9,2.07,4.13,3.31,6.44,3.61c0.38,0.05,0.77,0.08,1.15,0.08
				c0.38,0,0.76-0.02,1.14-0.07C646.59,348.11,650.71,340.66,649.62,332.32z M639.93,345.18c-0.73,0.1-1.46,0.02-2.19-0.21
				c-1.14-0.36-2.26-1.11-3.27-2.22c-1.83-1.99-3.07-4.82-3.48-7.98c-0.77-5.86,1.63-11.24,5.32-12.25
				c0.21-0.05,0.42-0.09,0.63-0.12c0.2-0.03,0.41-0.05,0.61-0.05c3.83,0,7.56,4.6,8.33,10.46
				C646.69,338.98,643.97,344.65,639.93,345.18z"/>
		</g>
		<path class="st5" d="M517.43,377.29c-3.9,8.67-172.31,8.33-177.95,0c-5.64-8.33-1.93-152.44-2.51-183.33
			c-0.57-30.89,179.17-25.58,179.69-4.58C517.18,210.37,521.33,368.62,517.43,377.29z"/>
		<g>
			<path class="st6" d="M342.83,193.29c-0.17,0-0.35-0.09-0.44-0.26c-0.13-0.24-0.05-0.55,0.19-0.68
				c0.17-0.09,17.2-9.45,41.68-12.57c25.16-3.22,65.51-2.45,88.45,0.1c23.05,2.56,38.49,8.97,38.64,9.04
				c0.25,0.11,0.37,0.4,0.27,0.66c-0.11,0.25-0.4,0.37-0.66,0.27c-0.15-0.06-15.46-6.42-38.36-8.97c-22.89-2.54-63.12-3.3-88.21-0.1
				c-24.29,3.1-41.15,12.36-41.32,12.46C343,193.27,342.91,193.29,342.83,193.29z"/>
		</g>
		<g>
			<rect x="516.16" y="400.29" class="st6" width="6" height="58.33"/>
		</g>
		<ellipse class="st5" cx="519.16" cy="398.08" rx="18.63" ry="9.63"/>
		<g>
			<path class="st6" d="M518.97,403.29c-8.28,0-14.67-2.51-14.74-2.54c-0.26-0.1-0.38-0.39-0.28-0.65c0.1-0.26,0.39-0.38,0.65-0.28
				c0.07,0.03,7.64,2.99,16.91,2.38c9.16-0.6,12.88-4.43,12.92-4.47c0.19-0.2,0.51-0.21,0.71-0.02c0.2,0.19,0.21,0.5,0.02,0.71
				c-0.16,0.17-4,4.15-13.58,4.78C520.69,403.26,519.82,403.29,518.97,403.29z"/>
		</g>
		<g>
			<rect x="337.53" y="400.29" class="st6" width="6" height="58.33"/>
		</g>
		<ellipse class="st5" cx="340.53" cy="398.08" rx="18.63" ry="9.63"/>
		<g>
			<path class="st6" d="M340.61,403.29c-0.85,0-1.72-0.03-2.6-0.08c-9.59-0.63-13.42-4.61-13.58-4.78c-0.19-0.2-0.18-0.52,0.02-0.71
				c0.2-0.19,0.52-0.18,0.71,0.02c0.04,0.04,3.76,3.87,12.92,4.47c9.26,0.6,16.83-2.35,16.91-2.38c0.26-0.1,0.55,0.02,0.65,0.28
				c0.1,0.26-0.02,0.55-0.28,0.65C355.28,400.78,348.89,403.29,340.61,403.29z"/>
		</g>
		<path class="st5" d="M522.53,483.66h-184.5c-8.08,0-14.63-5.97-14.63-13.33v0c0-7.36,6.55-23.04,14.63-23.04h184.5
			c8.08,0,14.63,15.67,14.63,23.04v0C537.16,477.69,530.61,483.66,522.53,483.66z"/>
		<g>
			<path class="st6" d="M432.5,477.44c-74.6,0-103.5-5.94-103.78-6c-0.27-0.06-0.44-0.32-0.39-0.59c0.06-0.27,0.32-0.44,0.59-0.39
				c0.28,0.06,29.11,5.98,103.57,5.98c0.09,0,0.17,0,0.25,0c74.61-0.01,97.72-5.91,97.94-5.97c0.27-0.07,0.54,0.09,0.61,0.36
				c0.07,0.27-0.09,0.54-0.35,0.61c-0.23,0.06-23.4,5.99-98.2,6C432.68,477.44,432.59,477.44,432.5,477.44z"/>
		</g>
		<path class="st7" d="M368.12,374.21c0,0-23.88,32.72-21.67,57.98s17.71,40.76,82.83,37.76c53.32-2.46,75.38-1.5,83.38-22
			c8-20.5-22.21-73.91-22.21-73.91l-89.2-5.09L368.12,374.21z"/>
		<path class="st8" d="M296.19,237.71l-20,3.75c0,0,0.5,29.25,0,32.75s32.25,0,32.25,0L296.19,237.71z"/>
		<path class="st8" d="M285.25,253.82c0-5.86-4.68-19.48-9.06-34.14c-5.78-19.38-13.24-44.5-13.24-44.5l-15,3.01
			c0,0,4.5,87.77,11.5,93.52c7,5.75,32.5,3.82,32.5,3.82L285.25,253.82z"/>
		<path class="st8" d="M269.96,156.07c-0.81-1.91-3.27-4.72-5.71-4.55c-0.01-1.05-1.16-2.11-1.76-2.83
			c-2.12-2.54-4.5-5.18-7.62-6.49c-2.48-1.04-5.11-0.52-5.68,2.43c-0.36,1.89,0.14,4.07,0.37,5.95c0.01,0.1,0.03,0.21,0.04,0.32
			c-0.26,0.05-0.53,0.09-0.79,0.14c-1.25-3.7-2.25-7.47-2.88-11.34c-0.31-1.87-0.13-7.98-2.8-8.54c-1.57-0.34-2.35,2.64-2.39,3.84
			c-0.05,1.82,0.44,3.59,0.69,5.38c0.55,3.97,1.54,7.85,2.64,11.71c-0.14,0.04-0.27,0.09-0.4,0.13c-1.69-3.67-2.93-7.4-4.02-11.31
			c-0.47-1.68-0.99-4.56-3-5.12c-1.26-0.36-1.57,0.13-1.77,1.32c-0.37,2.13,0.61,4.85,1.26,6.87c1.03,3.24,2.25,6.42,3.49,9.6
			l-3.79-7.33c-0.65-1.26-1.83-4.3-3.77-3.06c-0.06,0.04-0.11,0.08-0.16,0.12c-0.91,0.77-0.66,2.42-0.46,3.42
			c0.57,2.88,2.2,5.42,3.45,8.03c1.81,3.81,13.05,24.44,13.05,24.44s0.02,0,0.05,0.01c0.52,0.14,4.98,1.32,8.21,0.97
			c2.27-0.24,5.56-0.39,7.34-1.99c0.09-0.08,0.21-0.22,0.33-0.4C265.91,175,272.11,161.12,269.96,156.07z M261.07,161.69
			c0,0-4.23-6.65-5.7-12.12c-0.18-0.66-0.84-2.25-1.12-3.49c0.96,0.84,1.46,2.03,2.33,2.95c0.63,0.66,1.4,1.19,2.17,1.68
			c1.54,0.99,3.21,1.69,4.95,2.19c0.01,0.07,0,0.12,0.01,0.19c0.27,1.77,1.56,3.79,2.52,5.54
			C263.17,160.24,261.07,161.69,261.07,161.69z"/>
		<path class="st8" d="M564.91,237.71l20,3.75c0,0-0.5,29.25,0,32.75s-32.25,0-32.25,0L564.91,237.71z"/>
		<path class="st9" d="M465.54,145.47c-0.41-2.8-1.62-4.72-1.32-7.72c0.23-2.3,0.76-4.38,0.54-6.72c-0.35-3.53-1.81-6.71-3.71-9.51
			c-0.06-2.23-0.97-4.34-2.62-5.72c-1.07-0.9-2.11-1.03-3.31-1.57c-2.33-1.04-2.18-2.33-3.78-3.77c-2.84-2.54-6.45-2.02-9.79-2.46
			c-1.98-0.26-3.78-1.45-5.71-2.07c-1.73-0.56-3.52-0.87-5.3-1.07c-8.2-0.89-16.15,2.08-22.13,8.36c-2.06,2.18-3.95,4.76-5.29,7.55
			c-0.66,1.39-0.89,2.54-1.06,4.06c-0.18,1.57-0.01,3.01-0.84,4.44c-0.39,0.67-0.93,1.23-1.36,1.86c-1.62,2.36-2.52,5.23-2.56,8.2
			c-0.02,1.58,0.29,2.94,0.61,4.46c0.57,2.65,0.1,4.73-0.35,7.3c-0.47,2.63-0.14,4.79,1.39,6.93c0.01,0.01,0.02,0.02,0.03,0.03
			c-0.03,0.14-0.01,0.27,0.07,0.42c0.22,0.37,0.44,0.74,0.69,1.1c1.12,1.81,2.38,3.45,3.72,4.98c0.68,1.31,1.24,2.74,1.57,4.45
			c0.15,0.79,1.27,0.45,1.11-0.34c-0.11-0.59-0.26-1.17-0.42-1.75c0.1,0.1,0.21,0.19,0.31,0.28c0.97,0.91,1.97,1.75,3.02,2.52
			c2.97,2.25,6.23,3.96,9.67,5.14c5.57,1.93,11.62,2.45,17.71,1.5c2.01-0.32,4.1-0.72,6.19-1.24c3.8-0.93,7.62-2.26,11.04-4.25
			c1.15-0.64,2.24-1.36,3.27-2.17c0.75-0.58,1.48-1.2,2.16-1.87c2.35-2.29,3.14-4.56,3.1-7.89c-0.01-0.86,0.06-1.61,0.21-2.32
			c0.24-1.1,0.67-2.09,1.3-3.2c0.5-0.86,0.93-1.77,1.27-2.72C465.52,149.03,465.79,147.26,465.54,145.47z"/>
		<path class="st9" d="M467,203.17c-0.36-1.59-1.48-3.04-1.97-4.63c-0.33-1.07-0.52-1.47-1.31-2.29c-1.88-1.97-1.47-4.01-1.69-6.52
			c-0.17-1.94-0.89-3.41-1.69-4.85c-0.76-1.39-1.6-2.75-2.07-4.47c-0.1-0.35-0.22-0.79-0.37-1.29c-0.2-0.7-0.43-1.5-0.69-2.32
			c-0.03-0.11-0.06-0.21-0.09-0.32c-0.29-0.91-0.58-1.81-0.86-2.59c-0.08-0.25-0.17-0.48-0.25-0.69c-0.1-0.27-0.2-0.52-0.29-0.73
			c-0.24-0.56-0.51-0.73-0.82-0.78c-0.16-0.03-0.34-0.02-0.53-0.01c-0.44,0.02-0.94,0.03-1.49-0.53c-0.23-0.23-0.51-0.18-0.7-0.02
			c-0.22,0.18-0.31,0.51-0.07,0.77l0.01,0.01c0.12,0.12,0.22,0.24,0.33,0.35c-0.02,0-0.03-0.01-0.05,0c-0.1,0-0.19,0.01-0.29,0.02
			c-1.36,0.06-2.69,0.21-4.01,0.47c-1.71,0.33-3.38,0.83-5,1.52c-1.71,0.73-3.29,1.84-5.12,2.28c-2.25,0.54-4.75,0.55-7.06,0.68
			c-6.75,0.37-12.93-2.27-19.07-4.83c-0.68-0.28-1.36-0.56-2.03-0.83c-0.23-0.1-0.46-0.19-0.69-0.28c0.21-0.14,0.41-0.28,0.61-0.41
			c0.02-0.02,0.05-0.03,0.07-0.05c0.46-0.31,0.2-0.97-0.21-1.01v-0.01c-0.1-0.01-0.22,0.01-0.33,0.09c-0.59,0.4-1.21,0.82-1.81,1.27
			c-0.1,0.07-0.21,0.15-0.31,0.23c-0.35,0.27-0.7,0.55-1.04,0.85c-0.15,0.13-0.29,0.26-0.44,0.39c-0.18,0.18-0.37,0.36-0.55,0.55
			c-1.13,1.18-2.02,2.54-2.37,4.16c-0.09,0.45-0.14,0.91-0.16,1.37c-0.06,1.19,0.06,2.4,0.04,3.59c-0.05,2.8-0.97,4.49-3.03,6.3
			c-2.54,2.23-3.82,3.57-4.16,6.96c-0.25,2.53-1.97,3.29-3.04,5.28c-0.61,1.13-1.05,3.06-0.9,4.34c0.04,0.32,0.13,0.55,0.27,0.72
			c0.48,0.61,1.48,0.42,2.32,0.37c1.65-0.11,2.18-0.21,2.92,1.3c0.02,0.02,0.03,0.05,0.04,0.07c0.34,0.71,1.21,1.03,2,0.95
			c1.38-0.15,2.5-1.02,3.83-1.32c1.91-0.41,4.19,0.11,5.88,1.03c0.19,0.1,0.36,0.22,0.52,0.34c1.41,1.09,1.8,2.85,3.75,3.06
			c0.15,0.02,0.3,0.03,0.45,0.04c4.01,0.39,8.26-0.02,12.29-0.04c4.15-0.01,8.41,0.26,12.54-0.15c3.79-0.37,6.86-2.74,10.67-2.75
			h0.3c1.08,0.03,2.18,0.18,3.28,0.22c0.73,0.04,1.46,0.03,2.18-0.09c2.01-0.32,3.48-1.74,5.56-1.8c0.59-0.02,1.24,0.01,1.88,0.01
			c1.51,0.01,3.06-0.11,4.12-1.25c0.09-0.1,0.18-0.2,0.26-0.32C467.09,204.86,467.2,204.02,467,203.17z"/>
		<path class="st8" d="M413.86,181.54c0,0,0.18,12.88-1.43,18.6c-1.61,5.72-6.26,15.38-6.26,15.38L431.85,288l23.87-71.05
			c0,0-5.37-12.34-6.44-19.14c-1.07-6.8-1.25-21.28-1.25-21.28L413.86,181.54z"/>
		<g>
			<path class="st0" d="M431.11,233c-10.3,0-21.25-14-21.72-14.61l0.79-0.61c0.12,0.15,11.79,15.01,21.78,14.19
				c10.07-0.85,16.24-9.1,16.3-9.18l0.8,0.59c-0.26,0.35-6.5,8.69-17.02,9.58C431.73,232.99,431.42,233,431.11,233z"/>
		</g>
		<g>
			<path class="st0" d="M431.71,245.47c-0.34,0-0.65-0.09-0.92-0.25c-4.17-2.53-18.43-24.07-19.04-24.99l0.83-0.55
				c0.15,0.22,14.75,22.27,18.72,24.68c0.33,0.2,0.85,0.11,1.52-0.26c5.35-2.95,16.15-20.75,16.18-22.54c0,0,0,0.06,0.04,0.14
				l0.87-0.49c0.8,1.42-8.56,16.42-14.12,21.8C434.11,244.66,432.76,245.47,431.71,245.47z"/>
		</g>
		<path class="st10" d="M413.81,186.98c0,0,0.59,4.48,3.1,6.54c2.5,2.06,13.7,8.5,17.99,6.35c4.28-2.15,7.07-3.93,8.81-5.01
			c1.73-1.07,4.65-7.91,4.65-7.91s-3.28-5.86-5.6-5.51c-2.33,0.36-16.46,3.58-22.63,3.93C413.95,185.74,413.81,186.98,413.81,186.98
			z"/>
		<path class="st8" d="M404.34,136.44c-0.2,0.74-0.34,1.5-0.4,2.28c-0.81,9.99,0.73,18.38,2.68,28.17c1.7,8.56,2.5,15.2,8.59,21.46
			c5.07,5.22,11.49,8.94,18.87,7.69c7.25-1.23,13.42-6.66,16.75-12.89c4.97-9.3,5.14-18.11,5.76-28.49
			c0.47-7.86,1.28-18.69-3.57-25.48c-6.32-8.85-23.4-9.58-32.97-7.07C413,123.95,406.36,129.02,404.34,136.44z"/>
		<path class="st11" d="M442.19,158.61c-0.54-0.18-1.04-0.46-1.38-0.91c-0.15-0.19-0.26-0.44-0.21-0.67c0.1-0.45,0.69-0.4,1.14-0.34
			c0.78,0.11,1.52,0.5,2.31,0.52c0.83,0.02,1.57-0.4,2.39-0.47c0.54-0.04,1.18,0.3,0.71,0.84c-0.36,0.42-0.91,0.69-1.4,0.92
			c-0.2,0.09-0.41,0.19-0.63,0.24c-0.82,0.17-1.67,0.17-2.48-0.01C442.49,158.7,442.34,158.66,442.19,158.61z"/>
		<path class="st11" d="M420.42,158.89c0.54-0.18,1.04-0.46,1.38-0.91c0.15-0.19,0.26-0.44,0.21-0.67c-0.1-0.45-0.69-0.4-1.14-0.34
			c-0.78,0.11-1.52,0.5-2.31,0.52c-0.83,0.02-1.57-0.4-2.39-0.47c-0.54-0.04-1.18,0.3-0.71,0.84c0.36,0.42,0.91,0.69,1.4,0.92
			c0.2,0.09,0.41,0.19,0.63,0.24c0.82,0.17,1.67,0.17,2.48-0.01C420.13,158.97,420.28,158.93,420.42,158.89z"/>
		<path class="st10" d="M423.56,177.42c0,0,2.55,0.74,7.82,0.74c5.24,0,8.75-1.14,8.75-1.14s-1.54,4.29-7.62,4.67
			C426.43,182.08,423.56,177.42,423.56,177.42z"/>
		<g>
			<path class="st10" d="M430.94,172.93c-0.21,0-0.4-0.13-0.47-0.34c-0.09-0.26,0.05-0.54,0.32-0.63c1.33-0.45,3.49-1.53,3.6-2.53
				c0.14-1.33-1.43-8.79-2.05-11.55c-0.06-0.27,0.11-0.54,0.38-0.6c0.28-0.05,0.54,0.11,0.6,0.38c0.23,1.03,2.25,10.15,2.07,11.88
				c-0.21,1.96-3.86,3.23-4.27,3.37C431.05,172.92,431,172.93,430.94,172.93z"/>
		</g>
		<path class="st9" d="M424.79,149.38c-0.31-0.31-0.74-0.59-1.18-0.78c-2.39-1-5.15-0.78-7.58-0.05c-0.73,0.22-5.62,1.87-3.39,3.1
			c1.07,0.59,2.48,0.31,3.6,0.07c1.49-0.32,2.99-0.47,4.51-0.36c1.12,0.08,2.38,0.33,3.46-0.1
			C425.5,150.75,425.38,149.99,424.79,149.38z"/>
		<path class="st9" d="M438.91,149.38c0.31-0.31,0.74-0.59,1.18-0.78c2.39-1,5.15-0.78,7.58-0.05c0.73,0.22,5.62,1.87,3.39,3.1
			c-1.07,0.59-2.48,0.31-3.6,0.07c-1.49-0.32-2.99-0.47-4.51-0.36c-1.12,0.08-2.38,0.33-3.46-0.1
			C438.2,150.75,438.32,149.99,438.91,149.38z"/>
		<path class="st8" d="M454.82,155.44c0,0,4.02-2.86,6.17,0.8s-0.86,10.39-3.49,12.97c-2.62,2.57-4.92,3.49-5.37,3.22
			C451.69,172.16,454.82,155.44,454.82,155.44z"/>
		<path class="st8" d="M407.13,155.44c0,0-4.02-2.86-6.17,0.8c-2.15,3.67,0.86,10.39,3.49,12.97c2.62,2.57,4.92,3.49,5.37,3.22
			C410.26,172.16,407.13,155.44,407.13,155.44z"/>
		<path class="st9" d="M455.31,130.97c-3.76-7.68-10.72-11.87-19.2-11.91c-5.13-0.03-10.4,0.64-15.42,1.7
			c-4.04,0.84-8.08,2.24-11.24,4.99c-3.26,2.85-4.46,6.6-5.4,10.7c-1.13,5-2.12,10.01-1.65,15.14c-0.05-0.03-0.09-0.06-0.15-0.08
			c-0.62-0.28-1.17,0.65-0.54,0.93c0.95,0.42,1.47,1.2,2.01,1.94c0.25,0.36,0.52,0.71,0.84,0.99c0.19,0.17,0.39,0.32,0.63,0.43
			c0.74,0.35,1.32,0.14,1.91-0.39c0.02-0.02,0.05-0.04,0.07-0.06c2.21-2.05,1.23-6.44,0.86-8.99c-0.74-5.03-0.54-11.19,4.66-13.58
			c3.08-1.41,5.3-3.96,8.04-5.81c2.58-0.74,5.34-0.77,8.08-0.28c1.94,0.36,3.47,0.68,5.47,0.47c2.42-0.25,4.52-0.42,6.89,0.29
			c3.09,0.91,8.5,2.32,9.61,5.69c0.42,1.3,0.58,2.73,1.03,4.06c0.54,1.56,1.12,3.11,1.71,4.66c0.16,2.22,0.32,4.45,0.48,6.67
			c0.16,2.06-0.24,5.16,0.76,7.18c0.15,0.29,0.32,0.56,0.53,0.8c0.22,0.25,0.7,0.18,0.85-0.11c0.14-0.28,0.27-0.56,0.4-0.85
			c0.16-0.35,0.3-0.7,0.44-1.06C459.81,147.09,458.73,137.94,455.31,130.97z"/>
		<path class="st6" d="M411.73,202.37c0,0,4.1,23.75,8.1,36.08c2.44,7.54,3.04,17,5.14,24c2.11,7,6.07,14.83,6.07,14.83
			s9.28-27.78,11.95-40.33c3.01-14.1,7.35-34.58,7.35-34.58s55.15,11.92,57.15,14.25c2,2.33-3.33,52.67-2.67,65.33
			c0.67,12.67,0.37,22.97-4.29,36.64c-4.67,13.67-1.8,29.12-1.47,38.78c0.33,9.67-8.83,20.67-8.83,20.67l-123.88-1.3
			c0,0-9.96-23.96-8.41-39.7c1.38-14-0.11-22.92-4.09-37.64c-4.66-17.22-8.46-71.37-6.03-78.11c3-8.33,30.58-10.26,36-13
			C389.25,205.55,411.73,202.37,411.73,202.37z"/>
		<path class="st6" d="M483,209.76c0,0,17.66,0.45,26.91,4.45c9.25,4,8.5,7.75,19,8.75s12.75,7.5,19.75,8.5s18.25,3.5,19.25,5.25
			s-7.5,50-9,51.5s-10.75-3-15.75-1.5s-3.75,4-12.75,3.13c-9-0.88-9.25,0.04-18,3.46c-8.75,3.42-11.75,8.42-22.75,4.67
			s-14.75-8.75-14.75-10.25S483,209.76,483,209.76z"/>
		<path class="st6" d="M386.18,207.37c0,0-18.97,4.09-19.6,4.17c-5.69,0.69-11.19,1.25-16.34,3.97c-3.4,1.79-6.58,4-10.03,5.69
			c-5.06,2.48-10.84,2.33-15.74,4.64c-4.29,2.02-7.73,5.92-12.59,6.61c-7,1-18.25,3.5-19.25,5.25s7.5,50,9,51.5s10.75-3,15.75-1.5
			s3.75,4,12.75,3.12c9-0.87,9.25,0.04,18,3.46c8.75,3.42,11.75,8.42,22.75,4.67s14.75-8.75,14.75-10.25
			S386.18,207.37,386.18,207.37z"/>
		<path class="st8" d="M577.79,251.88c0,0,4.45-22.97,9.67-39.95c4.61-15,10.71-36.74,10.71-36.74l15,3.01c0,0-4.5,87.77-11.5,93.52
			s-32.5,3.82-32.5,3.82L577.79,251.88z"/>
		<path class="st8" d="M629.21,143.31c-0.06-0.04-0.11-0.08-0.17-0.12c-1.93-1.24-3.12,1.8-3.77,3.06l-3.79,7.33
			c1.24-3.18,2.46-6.36,3.49-9.6c0.65-2.02,1.63-4.74,1.27-6.87c-0.21-1.19-0.52-1.68-1.77-1.32c-2.02,0.56-2.54,3.44-3.01,5.12
			c-1.09,3.91-2.33,7.64-4.02,11.31c-0.13-0.04-0.26-0.09-0.4-0.13c1.1-3.86,2.09-7.74,2.64-11.71c0.25-1.79,0.08-2.27-0.31-4.05
			c-0.33-1.53-1.47-5.34-3.04-5c-2.67,0.56-0.84,6.5-1.14,8.37c-0.63,3.87-1.64,7.64-2.89,11.34c-0.26-0.05-0.53-0.09-0.79-0.14
			c0.01-0.11,0.03-0.22,0.04-0.32c0.23-1.88,0.73-4.06,0.37-5.95c-0.57-2.95-3.2-3.47-5.68-2.43c-3.12,1.31-5.5,3.95-7.62,6.49
			c-0.6,0.72-1.75,1.78-1.76,2.83c-2.44-0.17-4.9,2.64-5.71,4.55c-2.14,5.06,4.07,18.96,6.09,21.73c0.12,0.18,0.23,0.31,0.32,0.39
			c1.78,1.6,5.07,1.75,7.34,1.99c3.43,0.37,8.16-0.49,8.19-0.59c0-0.01,0-0.01,0-0.02c1.05-3.35,11.53-17.88,13.13-24.81
			c0.65-2.82,2.87-5.15,3.44-8.03C629.86,145.73,630.12,144.08,629.21,143.31z M594.88,158.63c0.96-1.75,2.25-3.77,2.52-5.54
			c0.01-0.07,0-0.12,0.01-0.19c1.74-0.5,3.41-1.2,4.96-2.19c0.76-0.49,1.53-1.02,2.16-1.68c0.87-0.92,1.37-2.11,2.34-2.95
			c-0.29,1.24-0.95,2.83-1.13,3.49c-1.47,5.47-5.7,12.12-5.7,12.12S597.94,160.24,594.88,158.63z"/>
		<g>
			<path class="st12" d="M460.19,181.58c-0.18-1.15-0.49-2.18-0.84-2.88c-1.05-2.06-2.9-3.32-4.61-1.08
				c-0.61,0.8-0.86,1.82-1.03,2.81c-0.38,2.26-0.87,9.31,2.68,9.49C460.17,190.11,460.77,185.22,460.19,181.58z"/>
			<path class="st0" d="M456.89,167.16c-0.05-0.6-0.99-0.61-0.94,0c0.4,5.16,0.43,10.32,0.11,15.49c-0.04,0.61,0.91,0.6,0.94,0
				C457.32,177.49,457.29,172.32,456.89,167.16z"/>
		</g>
		<g>
			<path class="st12" d="M409.57,182.63c-0.18-1.15-0.49-2.18-0.84-2.88c-1.05-2.06-2.9-3.32-4.61-1.08
				c-0.61,0.8-0.86,1.82-1.03,2.81c-0.38,2.26-0.87,9.31,2.68,9.49C409.55,191.16,410.15,186.27,409.57,182.63z"/>
			<path class="st0" d="M406.41,168.21c0.06-0.6-0.88-0.6-0.94,0c-0.52,5.26-0.59,10.53-0.2,15.81c0.04,0.6,0.99,0.61,0.94,0
				C405.83,178.74,405.9,173.48,406.41,168.21z"/>
		</g>
		<path class="st7" d="M438.49,517.29l-18.26,1.65h-0.05c-2.51,0.04-5.03,0.08-7.54,0.12h-0.01c-15.22,0.24-30.43,0.45-45.64,0.58
			c-5.21-17.84-25.63-90.03-19.53-103.7c13.37-29.98,34.7-31.98,34.7-31.98l43,22l3.89,32.45L438.49,517.29z"/>
		<path class="st7" d="M494.34,517.89c-24.71,0.21-49.41,0.65-74.11,1.05h-0.05c-2.51,0.04-5.03,0.08-7.54,0.12l16.41-80.65
			l6.6-32.45l59.3-23.44c0,0,18.25,30.69,19.38,49.68C515.18,446.38,499.51,500.14,494.34,517.89z"/>
		<ellipse class="st0" cx="432" cy="249.6" rx="1.86" ry="4.89"/>
		<path class="st0" d="M424.4,232.37c-1.1-0.29-1.8-1.28-1.56-2.21c0.24-0.94,1.33-1.46,2.44-1.17c1.1,0.29,1.8,1.28,1.56,2.21
			C426.59,232.13,425.5,232.66,424.4,232.37z"/>
		<path class="st0" d="M436.79,238.88c0.64-0.94,1.81-1.26,2.61-0.71s0.92,1.75,0.28,2.69c-0.64,0.94-1.81,1.26-2.61,0.71
			C436.27,241.02,436.14,239.82,436.79,238.88z"/>
		<g>
			<path class="st0" d="M612.32,192.96c-0.21,0-5.18-0.05-10.71-4.33c-4.52-3.5-5.82-6.66-5.9-6.84c-0.12-0.25-0.01-0.55,0.24-0.66
				c0.25-0.12,0.55-0.01,0.67,0.24c0.02,0.04,1.29,3.13,5.61,6.47c5.25,4.07,10.04,4.12,10.09,4.12c0.28,0,0.5,0.22,0.5,0.5
				C612.82,192.73,612.6,192.96,612.32,192.96z"/>
		</g>
		<g>
			<path class="st0" d="M612.79,190.54c-0.1,0-2.07-0.04-7.25-2.98c-6.38-3.63-9.12-7.01-9.24-7.16c-0.17-0.21-0.14-0.53,0.08-0.7
				c0.21-0.17,0.53-0.14,0.7,0.08c0.03,0.04,2.75,3.39,8.96,6.92c4.89,2.78,6.74,2.85,6.76,2.85c0.27,0.01,0.49,0.23,0.49,0.5
				C613.28,190.32,613.06,190.54,612.79,190.54L612.79,190.54z"/>
		</g>
		<g>
			<path class="st10" d="M606.66,171.45c-0.02,0-0.04,0-0.06,0c-0.27-0.03-0.47-0.28-0.44-0.56c0-0.02,0.2-1.88-1.02-4.02
				c-1.25-2.2-4.22-4.14-4.25-4.16c-0.23-0.15-0.3-0.46-0.15-0.69c0.15-0.23,0.46-0.3,0.69-0.15c0.13,0.08,3.2,2.09,4.58,4.5
				c1.4,2.45,1.16,4.55,1.14,4.64C607.13,171.27,606.91,171.45,606.66,171.45z"/>
		</g>
		<g>
			<path class="st10" d="M253.91,168.56c-0.09,0-0.18-0.02-0.26-0.07c-0.24-0.14-0.31-0.45-0.16-0.69c0.01-0.01,0.86-1.39,2.1-3.13
				c1.33-1.86,4.37-2.89,4.5-2.93c0.26-0.09,0.54,0.05,0.63,0.32c0.09,0.26-0.05,0.54-0.32,0.63c-0.03,0.01-2.86,0.97-4,2.57
				c-1.22,1.71-2.06,3.06-2.07,3.08C254.24,168.48,254.08,168.56,253.91,168.56z"/>
		</g>
		<g>
			<path class="st13" d="M434.16,515.21c-0.27,0-0.5-0.22-0.5-0.49c-0.01-0.7-1.02-70.36-6.6-88.75
				c-5.51-18.18-50.56-28.91-51.01-29.02c-0.27-0.06-0.44-0.33-0.37-0.6c0.06-0.27,0.32-0.44,0.6-0.37
				c1.88,0.44,46.06,10.97,51.74,29.7c5.62,18.52,6.63,88.32,6.64,89.03C434.67,514.97,434.45,515.2,434.16,515.21
				C434.17,515.21,434.16,515.21,434.16,515.21z"/>
		</g>
		<g>
			<path class="st13" d="M427.54,426.32c-0.23,0-0.44-0.16-0.49-0.4c-0.02-0.11-2.18-10.68-8.3-19.24
				c-6.09-8.52-35.96-19.14-36.26-19.25c-0.26-0.09-0.4-0.38-0.31-0.64c0.09-0.26,0.38-0.4,0.64-0.31
				c1.24,0.44,30.47,10.83,36.74,19.61c6.24,8.74,8.44,19.52,8.46,19.62c0.05,0.27-0.12,0.53-0.39,0.59
				C427.61,426.31,427.57,426.32,427.54,426.32z"/>
		</g>
		<g>
			<path class="st13" d="M431.45,453.57c-0.04,0-0.08,0-0.13-0.02c-0.27-0.07-0.43-0.34-0.36-0.61l10.46-39.87
				c0.07-0.27,0.34-0.43,0.61-0.36c0.27,0.07,0.43,0.34,0.36,0.61l-10.46,39.87C431.88,453.42,431.68,453.57,431.45,453.57z"/>
		</g>
		<path class="st0" d="M493.66,349.21h-132c-0.55,0-1-0.45-1-1v-79.75c0-0.55,0.45-1,1-1h132c0.55,0,1,0.45,1,1v79.75
			C494.66,348.76,494.22,349.21,493.66,349.21z"/>
		<path class="st0" d="M356,351.96h142.83v-3.41c0-1.15-0.93-2.08-2.08-2.08H358.08c-1.15,0-2.08,0.93-2.08,2.08V351.96z"/>
		<g>
			<path class="st14" d="M494.66,349.71h-134c-0.28,0-0.5-0.22-0.5-0.5c0-0.28,0.22-0.5,0.5-0.5h134c0.28,0,0.5,0.22,0.5,0.5
				C495.16,349.48,494.94,349.71,494.66,349.71z"/>
		</g>
		<g>
			<path class="st14" d="M427.66,308.84c-6.2,0-12.78-1.59-12.78-4.53c0-2.94,6.58-4.53,12.78-4.53c6.2,0,12.78,1.59,12.78,4.53
				C440.44,307.25,433.86,308.84,427.66,308.84z M427.66,300.77c-6.94,0-11.78,1.86-11.78,3.53c0,1.67,4.84,3.53,11.78,3.53
				c6.94,0,11.78-1.86,11.78-3.53C439.44,302.63,434.61,300.77,427.66,300.77z"/>
		</g>
		<g>
			<path class="st11" d="M506.4,293.79c-0.04,0-0.08,0-0.12-0.01c-0.27-0.07-0.43-0.34-0.37-0.61c0.07-0.29,7.09-28.75,7.41-40.73
				c0.33-12.11,6.14-27.84,6.2-27.99c0.1-0.26,0.38-0.39,0.64-0.29c0.26,0.1,0.39,0.38,0.29,0.64c-0.06,0.16-5.81,15.73-6.14,27.67
				c-0.33,12.08-7.37,40.65-7.44,40.94C506.83,293.64,506.63,293.79,506.4,293.79z"/>
		</g>
		<g>
			<path class="st11" d="M347.54,290.33c-0.24,0-0.45-0.17-0.49-0.42c-0.05-0.31-5.14-31.04-5.88-44.92
				c-0.73-13.72-3.18-19.22-3.21-19.28c-0.11-0.25,0-0.55,0.25-0.66c0.25-0.12,0.55,0,0.66,0.25c0.1,0.23,2.55,5.7,3.29,19.64
				c0.74,13.82,5.82,44.5,5.87,44.81c0.04,0.27-0.14,0.53-0.41,0.58C347.59,290.33,347.57,290.33,347.54,290.33z"/>
		</g>
		<g>
			<path class="st11" d="M308.44,286.71c-0.24,0-0.46-0.18-0.49-0.43c-0.02-0.14-2.04-14.38-2.78-24.03
				c-0.74-9.58-5.19-24.25-5.23-24.39c-0.08-0.26,0.07-0.54,0.33-0.62c0.26-0.08,0.54,0.07,0.62,0.33
				c0.04,0.15,4.52,14.91,5.27,24.61c0.74,9.62,2.76,23.83,2.78,23.97c0.04,0.27-0.15,0.53-0.42,0.57
				C308.49,286.7,308.47,286.71,308.44,286.71z"/>
		</g>
		<g>
			<path class="st11" d="M552.66,285.71c-0.02,0-0.05,0-0.07,0c-0.27-0.04-0.46-0.29-0.43-0.56c0.02-0.16,2.27-16.12,3.75-26.25
				c1.49-10.18,5.49-21.24,5.53-21.35c0.09-0.26,0.38-0.39,0.64-0.3c0.26,0.09,0.39,0.38,0.3,0.64c-0.04,0.11-4,11.07-5.47,21.15
				c-1.48,10.13-3.73,26.09-3.75,26.25C553.12,285.52,552.91,285.71,552.66,285.71z"/>
		</g>
		<g>
			<path class="st11" d="M421.59,266.12c-0.16,0-0.31-0.07-0.41-0.21c-0.71-1.01-17.34-24.85-18.08-31.62
				c-0.7-6.42-11.28-13.85-11.39-13.92l-0.33-0.23l5.82-14.37c0.1-0.26,0.4-0.38,0.65-0.28c0.26,0.1,0.38,0.4,0.28,0.65l-5.52,13.63
				c1.87,1.35,10.8,8.12,11.49,14.4c0.71,6.52,17.74,30.91,17.91,31.16c0.16,0.23,0.1,0.54-0.12,0.7
				C421.79,266.09,421.69,266.12,421.59,266.12z"/>
		</g>
		<g>
			<path class="st11" d="M343.03,259.46c-0.19,0-0.37-0.11-0.45-0.29l-13.87-30c-0.12-0.25-0.01-0.55,0.24-0.66
				c0.25-0.12,0.55-0.01,0.66,0.24l13.87,30c0.12,0.25,0.01,0.55-0.24,0.66C343.17,259.44,343.1,259.46,343.03,259.46z"/>
		</g>
		<g>
			<path class="st11" d="M439.94,266.12c-0.07,0-0.14-0.02-0.21-0.05c-0.25-0.12-0.36-0.42-0.24-0.67
				c0.12-0.26,12.37-26.34,13.47-32.05c0.84-4.38,8.48-12.38,12.57-16.68c1.06-1.11,2.07-2.17,2.39-2.59
				c-0.65-0.98-4.47-4.97-7.95-8.45c-0.2-0.2-0.2-0.51,0-0.71c0.2-0.2,0.51-0.2,0.71,0c8.3,8.31,8.3,8.95,8.3,9.19
				c0,0.35-0.2,0.6-2.73,3.25c-4.03,4.22-11.53,12.09-12.32,16.18c-1.13,5.83-13.04,31.21-13.55,32.29
				C440.31,266.02,440.13,266.12,439.94,266.12z M468.02,214.24L468.02,214.24L468.02,214.24z"/>
		</g>
		<g>
			<path class="st15" d="M245.71,299.86c-0.16-0.21-0.33-0.4-0.51-0.59c-1.38-1.42-3.24-2.23-4.9-3.29c-2.72-1.74-2.95-4.41-5-6.38
				c-2.31-2.22-6.66-1.37-9.45-2.59c-2.87-1.25-5.4-3.04-8.44-3.89c-1.26-0.35-2.51-0.58-3.73-0.71
				c-9.8-0.99-18.51,4.82-24.61,12.36c-0.38-0.49-1.26-0.66-1.73,0.01c-0.96,1.37-1.92,2.75-2.88,4.12
				c-0.46,0.65,0.16,1.48,0.86,1.5c2.75,0.1,5.5,0.22,8.25,0.37c1.7,0.08,3.4,0.18,5.1,0.29c2.16,0.15,4.7,0,6.8,0.59
				c2,0.57,2.7,2.04,4.2,3.11c4.44,3.13,7.7,0.04,12.06-0.84c0.61-0.13,1.25-0.21,1.91-0.22c3.63-0.07,6.99,1.92,10.41,3.36
				c0.59,0.25,1.18,0.48,1.78,0.68c2.26,0.76,4.57,1.1,7.03,0.28c0.03-0.01,0.05-0.02,0.08-0.03c0.58-0.2,1.1-0.45,1.56-0.74
				C247.11,305.62,247.87,302.65,245.71,299.86z"/>
			<path class="st15" d="M157.27,309.7c-0.27-0.18-0.62-0.24-0.98-0.07c-0.29,0.13-0.58,0.24-0.88,0.35
				c-0.52-1.14-1.08-2.35-1.42-3.73c-0.18-0.76-0.27-1.52-0.29-2.3c-0.19-4.61,1.78-9.37-1.43-13.45c-2.52-3.2-6.14-4.29-8.54-6.66
				c-1.42-1.38-2.42-3.2-2.54-6.13c-0.21-5.29,1.68-10.65-0.67-15.71c-2.01-4.32-6.22-6.81-9.47-10.09
				c-4.93-4.98-4.77-10.78-5.58-17.28c-0.47-3.85-1.42-7.72-4.57-10.29c-1.92-1.57-4.28-2.12-6.45-3.21
				c-2.52-1.27-4.3-3.06-5.93-5.09c-0.8-0.98-1.56-2.03-2.36-3.09c-2.88-3.87-6.33-8.2-11.51-8.78c-8.92-0.99-11.3,9.5-9.67,16.22
				c2.12,8.71,8.35,14.89,14.79,20.91c8.11,7.57,16.56,14.88,17.56,26.64c0.52,6.05-0.51,12.63,2.78,18.09
				c0.42,0.69,0.89,1.33,1.41,1.93c2.46,2.91,5.94,4.83,9.36,6.44c4.53,2.12,9.82,3.74,13.48,7.29c0.65,0.63,1.15,1.41,1.58,2.26
				c0.38,0.75,0.7,1.56,1.01,2.38c0.58,1.49,1.13,2.99,1.95,4.16c-0.73,0.38-0.88,1.63,0.13,1.83c0.89,0.17,1.77,0.25,2.64,0.26
				c0.04,0.01,0.07,0.02,0.1,0.03c0.18,0.05,0.34,0.04,0.48,0c0.05-0.01,0.11-0.03,0.16-0.05c0.52-0.03,1.04-0.09,1.55-0.18
				c0.02,0.18,0.03,0.37,0.05,0.59c0,0.12,0.01,0.26,0.01,0.4c0.01,0.63-0.05,1.23-0.19,1.8c-0.71,2.89-3.31,4.67-6.84,3.5
				c-1.23-0.4-1.75,1.53-0.54,1.93c0.45,0.15,0.91,0.26,1.36,0.32c1.78,0.27,3.52-0.09,5.02-1c0.85-0.52,1.63-1.21,2.29-2.07
				c0.56-0.74,0.94-1.43,1.17-2.08c0.17-0.48,0.26-0.93,0.29-1.38c0.07-0.89-0.11-1.74-0.41-2.59c0.07-0.02,0.14-0.05,0.21-0.08
				c0.31-0.11,0.61-0.23,0.92-0.36C158.1,311,157.87,310.06,157.27,309.7z"/>
			<path class="st16" d="M157.45,312.72c-0.35-0.32-0.71-0.66-1.07-1c-0.21-0.2-0.43-0.4-0.65-0.6c-0.78-0.73-1.59-1.48-2.41-2.21
				c-0.53-1.7-1.16-3.36-1.91-4.96c-0.02-0.04-0.03-0.07-0.05-0.11c-1.88-4.01-4.43-7.68-7.68-10.81c-5.5-5.3-10.7-6.31-18.13-5.36
				c-1.41,0.18-2.75,0.28-4.03,0.29c-3.56,0.05-6.78-0.56-10.46-1.91c-3.09-1.13-6.26-2.28-9.6-1.75c-3.2,0.5-5.61,2.46-8.18,4.29
				c-2.95,2.11-5.81,2.82-8.96,3.32c-1.45,0.23-2.97,0.42-4.59,0.67c-6.11,0.94-12.08,4.52-15.35,9.84
				c-2.36,3.82-2.06,8.79,2.87,10.16c5.41,1.5,9.08-2.81,13.21-5.84c2.28-1.69,4.69-2.98,7.62-2.69c3.68,0.36,7.12,2.26,10.9,1.67
				c2.79-0.44,4.99-2.17,7.19-3.81c4.72-3.53,8.4-4.01,14-2.04c3.84,1.35,6.2,1.37,10.09,0.98c2.09-0.21,4.88-0.58,6.96,0.58
				c0.7,0.39,1.26,1.53,1.93,1.99c0.34,0.24,0.64,0.41,0.93,0.53c0.77,0.34,1.45,0.38,2.51,0.58c1.5,0.29,2.95,0.94,4.36,1.8
				c1.38,0.84,2.71,1.9,3.98,3.01v0.01c0.2,0.17,0.4,0.35,0.6,0.53c0.13,0.45,0.26,0.9,0.38,1.35c0.01,0,0.01,0,0.01,0
				c0.12,0.46,0.23,0.92,0.33,1.38c0.01,0.02,0.01,0.05,0.02,0.07c0.21,0.92,1.29,0.87,1.74,0.29c0.12-0.15,0.2-0.35,0.2-0.57
				c0.63,0.61,1.24,1.19,1.83,1.73c0.17,0.16,0.36,0.24,0.54,0.26C157.42,314.5,158.23,313.43,157.45,312.72z"/>
			<path class="st16" d="M164.38,256.22c-0.86-2.79-2.31-5.38-3.8-8.19c-3.74-7.09-2.09-12.97-0.06-20.18
				c1.35-4.81,2.31-9.62,0.88-14.53c-1.32-4.5-4.15-8.34-6.12-12.55c-3.3-7.04-1.08-13.43-1.8-20.75
				c-0.57-5.91-6.05-15.01-13.22-10.98c-3.01,1.68-3.38,5.14-3.63,8.23c-0.55,7-0.86,14.08-1.11,21.1
				c-0.19,5.38,0.5,9.51,3.09,14.25c4.2,7.65,3.3,13.5,1.72,21.7c-1.06,5.47,0.39,9.79,2.8,14.7c4.36,8.86,4.72,14.95,1.07,24.09
				c-1.61,4.04-1.79,7.17-0.47,10.73c0.3,0.85,0.7,1.73,1.19,2.66c2.98,5.66,5.81,11.2,6.44,17.34c0.01,0.03,0.01,0.07,0.01,0.11
				c0.02,0.17,0.04,0.34,0.05,0.51c-0.33,0.13-0.6,0.42-0.6,0.89c-0.01,1.24-0.14,2.76,0.11,3.99v0.01
				c0.07,0.35,0.17,0.68,0.31,0.97c0.03,0.43,0.32,0.76,0.67,0.91c0.01,0,0.01,0,0.01,0c0.06,0.02,0.11,0.04,0.16,0.05
				c0.45,0.29,1.06,0.45,1.88,0.4c0.65-0.04,1.24-0.23,1.77-0.56c0.59-0.34,1.11-0.84,1.54-1.42c0.83-1.08,1.4-2.44,1.75-3.62
				c0.05-0.2,0.1-0.39,0.15-0.58c0.12-0.51,0.21-1.03,0.27-1.55c0.16-1.38,0.17-2.78,0.33-4.15c0.39-3.22,1.92-4.62,3.09-7.26
				c0.81-1.81,0.52-3.62-0.13-5.44c-1.15-3.26-3.48-6.58-2.79-10.11c0.61-3.16,2.28-5.73,3.57-8.5c0.84-1.78,1.52-3.65,1.66-5.82
				C165.33,260.31,165.01,258.22,164.38,256.22z"/>
			<path class="st15" d="M199.54,189.3c1.16-4.03,1.97-8.59,0.23-12.6c-3.37-7.73-10.75-5.65-14.47,0.37
				c-6.15,9.94-6.96,22.21-9.81,33.27c-0.96,3.75-2.6,7.27-3.95,10.87c-0.55,1.48-1.05,2.97-1.44,4.49
				c-1.44,5.64,1.52,10.8,1.12,16.4c-0.21,2.97-1.55,5.46-3.09,7.88c-1.3,2.05-2.74,4.04-3.75,6.24c-0.35,0.77-0.66,1.56-0.88,2.38
				c-0.89,3.28-0.52,6.58,0.01,9.89c0.48,3.02,1.08,6.05,0.96,9.06c-0.13,3.18-0.85,6.37-1.74,9.55
				c-1.57,5.65-3.65,11.27-3.77,16.85c-0.02,0.71,0,1.42,0.06,2.13c0.14,2.04,0.6,4.07,1.49,6.1c-0.68,0.18-1.36,0.36-2.03,0.54
				c-1.25,0.33-0.72,2.26,0.53,1.93c0.77-0.21,1.6-0.39,2.47-0.57c0.12,0.21,0.24,0.42,0.37,0.64c0.68,1.08,2.42,0.08,1.73-1.01
				c-0.01-0.02-0.02-0.03-0.03-0.05c3.5-0.69,7.3-1.47,10.13-3.09c0.37-0.21,0.72-0.43,1.05-0.67c0.44-0.32,0.81-0.65,1.12-1.01
				c0.29-0.31,0.53-0.63,0.73-0.96c0.74-1.2,1.05-2.56,1.26-3.98c0.27-1.77,0.38-3.65,1.01-5.42c1.62-4.59,6.13-7.42,7.38-12.24
				c0.22-0.83,0.34-1.66,0.39-2.5c0.31-4.7-1.43-9.53-0.1-14.14c1.52-5.24,7.05-7.65,9.44-12.35c1.21-2.41,1.33-4.86,1-7.32
				c-0.23-1.75-0.68-3.51-1.12-5.26c-0.05-0.21-0.1-0.41-0.15-0.62c-1.75-7.12,0.33-12.1,2.5-18.75c1.72-5.31,1.15-9.98-0.05-15.33
				c-0.84-3.75-1.68-7.36-1.18-11.22C197.39,195.51,198.64,192.47,199.54,189.3z"/>
			<path class="st16" d="M239.75,249.98c-0.42-2.05-1.51-3.91-3.25-5.26c-0.53-0.41-1.12-0.77-1.77-1.08
				c-4.12-1.93-8.42-1.04-12.12,1.08c-1.34,0.76-2.61,1.69-3.76,2.7c-0.92,0.8-1.77,1.67-2.59,2.56c-2.05,2.22-3.9,4.62-6.01,6.78
				c-3.12,3.2-7.05,5.29-10.33,8.28c-3.23,2.95-5.06,6.79-7.15,10.55c-1.71,3.09-3.89,5.65-6.15,8.2c-1.17,1.32-2.37,2.63-3.53,4.02
				c-1.76,2.08-3.29,4.33-4.59,6.72c-1.51,2.8-3.13,5.98-4.05,9.18c-0.02,0.08-0.04,0.16-0.07,0.24c-0.48,1.67-1.1,3.81-0.88,5.52
				c0.02,0.16,0.07,0.62,0.18,1.1c0.1,0.41,0.23,0.85,0.42,1.15c0.27,0.42,0.66,0.56,1.2-0.07c0.15-0.18,0.21-0.42,0.25-0.65
				c0.01-0.05,0.01-0.1,0.02-0.15c0.1-0.66,0.16-1.32,0.28-1.96c0.09-0.43,0.2-0.86,0.36-1.26c0.12,0.1,0.25,0.21,0.37,0.3
				c0.87,0.72,1.74,1.34,2.68,1.78c1.09,0.51,2.28,0.77,3.66,0.65c1.18-0.1,2.3-0.46,3.3-1.04c0.72-0.4,1.37-0.92,1.94-1.54
				c1.05-1.14,1.58-2.55,2.4-3.83c0.02-0.03,0.03-0.05,0.05-0.08c0.86-1.31,1.88-2.22,2.96-3.1c0.71-0.58,1.44-1.14,2.18-1.79
				c2.73-2.41,3.43-5.81,5.92-8.33c2.87-2.9,7.06-4.07,10.26-6.52c0.67-0.51,1.25-1.09,1.75-1.72c3.69-4.6,3.62-11.83,8.72-14.98
				c6.01-3.71,13.51-3.57,16.67-11.1C239.95,254.24,240.17,252.02,239.75,249.98z"/>
			<g>
				<path class="st17" d="M200.96,325.59c0,1.76-0.13,3.5-0.38,5.19c-0.34,2.36-0.91,4.64-1.69,6.82
					c-4.93,13.84-18.14,23.74-33.68,23.74c-11.2,0-21.19-5.14-27.75-13.2c-0.81-1-1.57-2.05-2.28-3.14
					c-3.62-5.59-5.72-12.26-5.72-19.41c0-0.39,0.01-0.78,0.02-1.17c0.07-2.14,0.32-4.23,0.75-6.25c1.11-5.25,3.37-10.08,6.52-14.21
					h56.92c1.67,2.19,3.09,4.57,4.22,7.12c0.6,1.34,1.11,2.72,1.54,4.15C200.43,318.51,200.96,321.98,200.96,325.59z"/>
				<path class="st0" d="M162.23,319.26c-0.4-0.4-0.82-0.77-1.26-1.11c-1.37-1.05-2.97-1.84-4.68-2.38c-0.8-0.25-1.62-0.45-2.46-0.6
					c-3.54-0.63-7.31-0.32-10.44,0.78c-2.11,0.75-3.97,2.03-6.07,2.77c-2.81,0.99-4.92,0.45-7.09-0.56
					c-0.43,2.02-0.68,4.11-0.75,6.25c1.86,0.65,3.73,1.2,5.64,1.13c4.13-0.14,7.62-2.57,11.31-4.1c0.46-0.19,0.92-0.36,1.38-0.52
					c1.65-0.56,3.33-0.9,5.02-1c1.82-0.12,3.67,0.05,5.53,0.53c1.17,0.3,4.1,1.79,5.34,1.5
					C164.67,321.73,162.46,319.49,162.23,319.26z"/>
				<path class="st0" d="M197.89,311.07c-1.1,0.17-2.2,0.28-3.31,0.24c-3.11-0.13-5.53-1.43-8.36-1.99
					c-0.72-0.16-1.47-0.25-2.27-0.27c-1.39-0.03-3.03,0.21-4.69,0.66c-1.25,0.32-2.52,0.76-3.71,1.29c-0.5,0.23-0.98,0.47-1.45,0.72
					c-0.97,0.53-1.85,1.11-2.56,1.73c-0.78,0.68-1,1.73,2.05,0.74c5.63-1.82,10.71,1.03,16.2,1.59c3.3,0.34,6.44-0.17,9.64-0.56
					C199,313.79,198.49,312.41,197.89,311.07z"/>
				<path class="st0" d="M187.31,332.08c-8.53-0.82-17.89-5.2-25.19,1.46c-0.8,0.73-0.16,0.99,0.75,0.84
					c8.34-1.44,15.87,1.37,23.99,2.95c4,0.77,8.09,1.15,12.03,0.26c0.78-2.18,1.35-4.46,1.69-6.82
					C196.34,331.94,191.96,332.53,187.31,332.08z"/>
				<path class="st0" d="M161.12,346.13c-8.11-2.21-15.77-0.48-23.66,2.01c-0.81-1-1.57-2.05-2.28-3.14
					c8.71-3.34,20.39-5.22,27.75,0.49C163.81,346.17,163.27,346.71,161.12,346.13z"/>
			</g>
			<path class="st16" d="M192.3,181.14c-2.13,3.12-3.16,7.05-3.91,10.72c-0.85,4.18-1.48,8.16-1.48,12.45
				c0,4.39,0.07,8.79,0.07,13.18c0,5.06-0.91,9.69-2.78,14.37c-1.32,3.31-2.91,6.62-3.88,10.06c-1.09,3.87-0.84,8.03-0.85,12.01
				c0,2.09,0.16,4.24-0.04,6.32c-0.23,2.5-1.36,4.82-2.18,7.16c-1.27,3.63-2.31,7.5-3.17,11.25c-0.96,4.2-2.16,8.31-3.14,12.5
				c-0.92,3.9-1.22,8-1.22,11.99c0,0.64,1,0.64,1,0c0-3.7,0.29-7.66,1.08-11.28c0.78-3.56,2.08-6.98,2.78-10.55
				c0.75-3.82,1.92-7.5,2.91-11.26c1-3.77,2.93-7.19,2.98-11.17c0.05-4.11-0.2-8.26,0.18-12.35c0.42-4.43,2.07-7.92,3.62-12.02
				c1.48-3.91,2.82-7.59,3.46-11.76c0.59-3.89,0.27-8.03,0.23-11.95c-0.05-5.05-0.38-10.19,0.62-15.17c0.94-4.66,1.85-10.01,4.57-14
				C193.53,181.11,192.67,180.61,192.3,181.14z"/>
			<path class="st16" d="M135.09,287.54c-2.5-3-3.07-7.89-3.94-11.57c-0.78-3.3-1.51-6.58-3.27-9.52c-1.76-2.94-3.55-5.86-5.31-8.8
				c-1.96-3.27-2.81-6.91-3.88-10.53c-1.77-5.98-4.58-11.02-9.15-15.3c-2.4-2.25-4.69-4.47-6.77-7.02
				c-1.13-1.38-2.13-2.86-3.11-4.36c-0.84-1.3-2.44-3.11-2.69-4.68c-0.1-0.63-1.07-0.36-0.96,0.27c0.2,1.26,1.12,2.29,1.79,3.35
				c0.87,1.38,1.74,2.79,2.71,4.11c1.94,2.64,4.1,5.15,6.51,7.38c2.62,2.42,4.83,4.82,6.91,7.72c2.22,3.1,3.25,6.87,4.29,10.5
				c0.91,3.18,1.82,6.22,3.5,9.08c1.87,3.18,3.96,6.27,5.73,9.51c1.91,3.5,2.51,7.6,3.42,11.43c0.73,3.05,1.46,6.67,3.52,9.14
				C134.8,288.74,135.5,288.03,135.09,287.54z"/>
			<path class="st16" d="M239.09,302.04c-2.14-2.35-4.3-4.29-7.18-5.59c-4.21-1.9-8.42-3.22-13.07-3.5
				c-1.99-0.12-3.82-0.11-5.76,0.29c-1.78,0.37-3.38,0.62-5.17,0.22c-0.8-0.18-1.53-0.51-2.35-0.6c-3.38-0.36-8.11-0.35-11.07,1.59
				c-0.54,0.35-0.04,1.22,0.5,0.86c3.25-2.14,8.68-1.8,12.26-0.98c3.61,0.83,7.05-0.58,10.7-0.44c4.57,0.18,8.92,1.23,13.01,3.27
				c2.95,1.48,5.16,3.07,7.43,5.57C238.82,303.22,239.52,302.51,239.09,302.04z"/>
			<path class="st18" d="M153.85,272.59c1.01-3.29,1.63-6.76,1.67-10.21c0.03-3.29-1.52-6.1-2.39-9.2
				c-0.95-3.33-1.68-6.7-2.05-10.15c-0.42-3.93-0.01-8.01-0.09-11.96c-0.07-3.57-0.59-6.69-1.61-10.11c-1-3.32-1.84-6.7-2.35-10.15
				c-0.73-4.86-1.98-9.58-1.85-14.52c0.11-4.32,1.1-8.57,1.07-12.91c0-0.64-1-0.64-1,0c0.03,3.87-0.7,7.66-1.01,11.5
				c-0.34,4.14,0.43,7.79,1.17,11.81c0.7,3.81,1.01,7.73,2.12,11.45c1.06,3.54,2.03,6.85,2.29,10.55
				c0.53,7.58-0.51,15.25,1.75,22.64c1,3.26,2.86,6.83,2.97,10.28c0.13,3.99-0.86,7.84-1.96,11.62c-1.08,3.67-1.66,7.58-1.64,11.41
				c0.01,1.95,0.31,3.93,0.85,5.8c0.35,1.22,0.25,2.9,1.02,3.94c0.38,0.51,1.25,0.01,0.86-0.5c-0.6-0.81-0.75-3.02-1.03-4.03
				c-0.58-2.09-0.74-4.37-0.66-6.52C152.1,279.67,152.78,276.08,153.85,272.59z"/>
			<path class="st18" d="M141.72,298.51c-0.35-1.67-3.1-2.79-4.53-3.32c-2.62-0.97-5.58-1.49-8.37-1.54
				c-3.49-0.07-7.06,0.24-10.53-0.17c-2.72-0.33-5.4-0.82-8.11-1.16c-2.71-0.34-5.8-0.49-8.4,0.53c-1.51,0.6-2.65,1.38-4.28,1.77
				c-1.4,0.34-2.53,0.97-3.89,1.44c-3.09,1.06-6.72,1.48-9.96,1.55c-1.21,0.03-2.03,0.1-3.14,0.55c-1.23,0.5-2.18,1.57-3.42,2
				c-0.61,0.21-0.35,1.17,0.27,0.96c0.74-0.25,1.29-0.72,1.94-1.14c1.41-0.93,2.68-1.31,4.36-1.37c2.66-0.1,5.28-0.44,7.89-0.99
				c2.43-0.51,4.64-1.57,7.02-2.19c1.27-0.33,2.33-1.11,3.54-1.6c1.62-0.66,3.25-0.71,4.98-0.69c3.04,0.04,5.92,0.85,8.93,1.13
				c2.39,0.23,4.69,0.36,7.09,0.36c3.16,0,6.42-0.22,9.53,0.42c1.18,0.24,2.38,0.49,3.53,0.85c0.97,0.3,4.32,1.61,4.59,2.86
				C140.89,299.4,141.85,299.14,141.72,298.51z"/>
			<path class="st18" d="M231.98,252.21c-1.07,0.79-2.45,1.12-3.65,1.69c-1.45,0.69-2.88,1.38-4.27,2.16
				c-2.29,1.29-4.46,2.71-6.38,4.51c-2.05,1.92-3.59,4.12-5.26,6.35c-2.01,2.68-4.57,4.7-7.01,6.96c-1.87,1.73-4.79,3.26-6.2,5.43
				c-0.68,1.05-0.88,2.33-1.52,3.41c-0.83,1.42-1.97,2.31-3.09,3.45c-1.87,1.9-3.38,4.18-5.21,6.12c-1.74,1.84-3.79,4-4.83,6.34
				c-0.26,0.58,0.6,1.09,0.86,0.5c1.11-2.51,3.37-4.79,5.26-6.75c1.74-1.8,3.06-4.02,4.87-5.75c1.62-1.56,2.75-2.84,3.73-4.9
				c0.97-2.04,1.94-3.11,3.71-4.48c1.09-0.84,2.12-1.73,3.13-2.67c2.14-1.98,4.45-3.76,6.29-6.04c1.73-2.14,3.17-4.46,5.12-6.43
				c2.19-2.22,4.71-3.9,7.42-5.4c2.4-1.33,5.36-2.03,7.54-3.64C233,252.69,232.5,251.82,231.98,252.21z"/>
		</g>
		<g>
			<g>
				<path class="st6" d="M128.36,361.65l-0.03,3.31l-1.12,134.53c-2.43-1-4.82-2.07-7.15-3.21V360.44L128.36,361.65z"/>
			</g>
			<g>
				<path class="st6" d="M707.11,360.44v134.31c-2.19,1.15-4.55,2.18-7.16,3.15l-1.11-132.94l-0.03-3.31L707.11,360.44z"/>
			</g>
			<rect x="120.06" y="351.96" class="st19" width="587.05" height="13"/>
		</g>
		<g>
			<polygon class="st12" points="608.56,341.84 607.22,351.96 526.85,351.96 528.2,341.84 			"/>
			<polygon class="st17" points="532.34,341.89 596.54,341.89 597.63,333.71 533.42,333.71 			"/>
			<g>
				<polygon class="st4" points="605.43,319.9 605.28,321.29 604.09,332.13 603.92,333.71 539.71,333.71 539.88,332.13 
					541.07,321.29 541.22,319.9 				"/>
				<polygon class="st0" points="605.28,321.29 604.09,332.13 539.88,332.13 541.07,321.29 				"/>
			</g>
			<polygon class="st20" points="544.54,341.84 543.07,351.96 540.48,351.96 541.95,341.84 			"/>
		</g>
		<g>
			<rect x="207.23" y="325.55" class="st2" width="106.04" height="26.4"/>
			<circle class="st0" cx="224.66" cy="338.75" r="7.46"/>
			<circle class="st11" cx="224.66" cy="338.75" r="5.79"/>
			<rect x="267.16" y="334.01" class="st0" width="36.17" height="9.11"/>
		</g>
		<g>
			<rect x="221.73" y="299.27" class="st4" width="106.04" height="26.4"/>
			
				<ellipse transform="matrix(0.7071 -0.7071 0.7071 0.7071 -150.9041 260.6355)" class="st0" cx="239.16" cy="312.48" rx="7.46" ry="7.46"/>
			<circle class="st11" cx="239.16" cy="312.48" r="5.79"/>
			<rect x="281.66" y="307.73" class="st0" width="36.17" height="9.11"/>
		</g>
	</g>
	<g>
		<path class="st0" d="M677.03,267.41c-6.25,0.5-11.74,7.13-14.25,12.33c-0.9,1.87-1.5,3.86-2.75,5.54
			c-1.24,1.69-2.95,2.98-4.06,4.78c-2.47,4.02-4.51,10.62-4.46,15.37c0.01,0.46,0.72,0.72,0.93,0.25c1.78-3.86,3.3-8.9,6.6-11.78
			c2.24-1.94,7.39-2.6,7.59-6.34c0.15-2.64-2.73-2.54-4.57-1.97c-0.02,0.01-0.04,0.02-0.06,0.02c1.46-1.78,3.16-3.37,5.08-4.69
			c2.83-1.93,6.06-2.64,9.03-4.2c2.31-1.2,3.99-3.46,4.07-6.12C680.24,268.48,679.21,267.24,677.03,267.41z"/>
		<path class="st0" d="M659.66,277.11c-0.13-0.46-0.48-0.8-0.91-1.01c-0.32-0.16-0.68-0.23-1.03-0.23
			c-3.71,0.08-6.38,5.63-7.57,8.54c-1.49,3.64,2.08,6.35,4.05,2.13c1.23-2.63,2.52-4.63,4.41-6.81
			C659.25,278.98,659.94,278.05,659.66,277.11z"/>
	</g>
</g>
</svg>
