<?xml version="1.0" encoding="utf-8"?>
<!-- Generator: Adobe Illustrator 24.1.3, SVG Export Plug-In . SVG Version: 6.00 Build 0)  -->
<svg version="1.1" id="레이어_1" xmlns="http://www.w3.org/2000/svg" xmlns:xlink="http://www.w3.org/1999/xlink" x="0px"
	 y="0px" viewBox="0 0 841.89 595.28" style="enable-background:new 0 0 841.89 595.28;" xml:space="preserve">
<style type="text/css">
	.st0{fill:#FFFFFF;}
	.st1{fill:#FBF9F7;}
	.st2{fill:#6A3939;}
	.st3{fill:#47587B;}
	.st4{fill:#F4F0EC;}
	.st5{fill:#314264;}
	.st6{fill:#A7C6E0;}
	.st7{fill:#D0E4F4;}
	.st8{fill:#D4BEB5;}
	.st9{fill:#D4654C;}
	.st10{fill:#362D29;}
	.st11{fill:#F3A287;}
	.st12{fill:#F9D390;}
	.st13{fill:#878484;}
	.st14{fill:#262730;}
	.st15{fill:#E7805D;}
	.st16{fill:#522828;}
	.st17{fill:#736D6D;}
	.st18{fill:#EFAF6F;}
	.st19{fill:#B84B33;}
	.st20{fill:#F6D0B0;}
	.st21{fill:#DFCBC2;}
	.st22{fill:#4A4747;}
	.st23{fill:#E5D5CE;}
	.st24{fill:#D49C80;}
	.st25{fill:#749F85;}
	.st26{fill:#558265;}
</style>
<path class="st0" d="M-2874.46,710.77"/>
<g>
	<path class="st1" d="M702.23,360.45c-1.6,16.17-4.23,32.61-8.46,48.48c-6.1,22.82-15.53,44.44-29.97,62.3
		c-4.15,5.14-8.73,9.98-13.76,14.43c-5.73,5.07-11.83,9.5-18.23,13.35c-0.31,0.2-0.63,0.38-0.94,0.56
		c-11.47,6.78-23.9,11.81-36.9,15.61c-0.31,0.09-0.62,0.19-0.94,0.27c-11.93,3.44-24.33,5.87-36.9,7.73
		c-0.31,0.05-0.63,0.09-0.94,0.14c-12.24,1.78-24.63,3.02-36.9,4.1c-0.31,0.03-0.62,0.06-0.94,0.08
		c-5.23,0.47-10.44,0.91-15.61,1.35c-3.45,0.3-6.89,0.6-10.34,0.92c-3.45,0.31-6.89,0.63-10.33,0.97c-0.21,0.02-0.4,0.04-0.61,0.06
		c-0.32,0.03-0.63,0.06-0.94,0.08c-1.94,0.19-3.88,0.38-5.81,0.56c-0.99,0.09-1.98,0.2-2.98,0.29c-4.62,0.45-9.23,0.91-13.85,1.37
		c-2.35,0.23-4.7,0.46-7.04,0.7c-2.41,0.24-4.82,0.48-7.22,0.72c-0.31,0.03-0.62,0.06-0.94,0.09c-0.54,0.05-1.09,0.1-1.63,0.16
		c-1.87,0.18-3.74,0.37-5.61,0.54c-3.63,0.36-7.26,0.71-10.9,1.05c-1.5,0.14-3,0.28-4.5,0.42c-1.57,0.15-3.13,0.29-4.7,0.42
		c-3.18,0.3-6.37,0.58-9.56,0.85c-0.31,0.03-0.62,0.06-0.94,0.08c-1.55,0.13-3.11,0.26-4.66,0.39c-1.2,0.1-2.4,0.2-3.6,0.29
		c-0.14,0.02-0.27,0.03-0.41,0.04c-2.18,0.18-4.36,0.35-6.54,0.51c-2.35,0.18-4.69,0.35-7.03,0.51c-1.09,0.08-2.18,0.16-3.28,0.23
		c-1.79,0.12-3.6,0.24-5.4,0.36c-1.94,0.12-3.89,0.23-5.82,0.35c-0.05,0-0.1,0-0.16,0.01c-0.32,0.02-0.63,0.03-0.94,0.05
		c-1.88,0.1-3.75,0.21-5.62,0.29c-1.24,0.07-2.48,0.12-3.72,0.18c-3.64,0.17-7.28,0.31-10.92,0.43h-0.14
		c-1.52,0.05-3.04,0.09-4.56,0.13c-1.48,0.04-2.97,0.08-4.45,0.1c-0.26,0.01-0.54,0.02-0.8,0.02c-1.11,0.02-2.21,0.04-3.32,0.06
		c-1.13,0.02-2.24,0.04-3.37,0.04c-0.26,0.01-0.53,0.02-0.8,0.01c-0.05,0.01-0.09,0.01-0.14,0.01h-0.39
		c-9.48,0.08-18.95-0.03-28.42-0.39c-2.7-0.1-5.39-0.23-8.09-0.38c-0.31-0.02-0.62-0.03-0.92-0.06c-0.01,0.01-0.02,0-0.02,0
		c-0.36-0.01-0.71-0.04-1.07-0.07c-1.16-0.06-2.32-0.13-3.49-0.22c-0.35-0.02-0.7-0.05-1.06-0.08c-1.4-0.09-2.81-0.21-4.22-0.32
		c-0.75-0.06-1.5-0.11-2.25-0.18c-0.82-0.07-1.63-0.14-2.44-0.22c-0.51-0.05-1.01-0.09-1.51-0.14c-1.14-0.11-2.27-0.23-3.41-0.35
		c-0.96-0.1-1.91-0.21-2.86-0.32c-0.7-0.08-1.38-0.15-2.08-0.24c-2.5-0.3-5-0.63-7.5-0.99c-1.12-0.16-2.24-0.33-3.35-0.51
		c-0.55-0.08-1.1-0.17-1.65-0.26c-0.31-0.05-0.61-0.1-0.92-0.15c-0.01,0-0.02-0.01-0.02-0.01c-0.22-0.03-0.42-0.06-0.63-0.1
		c-0.59-0.09-1.19-0.2-1.78-0.3c-1.91-0.33-3.8-0.69-5.7-1.06c-0.7-0.12-1.4-0.26-2.09-0.41c-0.18-0.03-0.36-0.07-0.53-0.1
		c-1.04-0.22-2.08-0.43-3.11-0.67c-1.32-0.29-2.65-0.59-3.96-0.9c-7.16-1.7-14.21-3.72-21.12-6.11
		c-13.08-4.55-25.62-10.45-37.29-18.09c-26.41-17.28-47.75-44.52-51.59-75.86c-3.16-25.68,5.41-51.15,9.05-76.77
		c8.99-63.27-11.24-127.75,9.55-189.55c2.16-6.43,4.86-12.61,8.02-18.49c8.58-16.02,20.57-29.99,34.64-41.72
		c7.83-6.53,16.31-12.36,25.19-17.45c14.25-8.16,29.55-14.41,44.94-18.6c55.17-14.99,113.59-8.74,170.4-2.37
		c44.32,4.97,88.63,9.94,132.95,14.9c1.97,0.23,3.94,0.45,5.91,0.67c0.29,0.03,0.57,0.07,0.86,0.09c9.03,1.02,18.17,2.09,27.15,3.73
		c4.41,0.81,8.77,1.76,13.07,2.89c4.1,1.09,8.13,2.37,12.08,3.87c4.95,1.9,9.74,4.15,14.33,6.89c5.24,3.12,10.03,6.74,14.43,10.79
		c21.78,20.03,33.75,50.24,41.49,79.46C703.25,246.76,707.78,304.1,702.23,360.45z"/>
	<path class="st2" d="M615.1,421.06l-241.95,70.76c0,0-159.53-24.42-159.53-26.3c0-0.54-6.67-34.64-16.21-83.12
		c-0.61-3.14-1.24-6.33-1.88-9.58c-13.09-66.47-30.75-155.93-44.2-223.95c8.58-16.02,20.57-29.99,34.64-41.72
		c7.83-6.53,16.31-12.36,25.19-17.45c14.25-8.16,29.55-14.41,44.94-18.6c55.17-14.99,113.59-8.74,170.4-2.37
		c44.32,4.97,88.63,9.94,132.95,14.9c1.97,0.23,3.94,0.45,5.91,0.67c0.29,0.03,0.57,0.07,0.86,0.09c9.03,1.02,18.17,2.09,27.15,3.73
		c4.41,0.81,8.77,1.76,13.07,2.89C611.56,191.64,615.1,421.06,615.1,421.06z"/>
	<path class="st3" d="M693.77,408.93c-2.42,9.07-5.37,17.96-8.96,26.49c-5.43,12.92-12.31,25.05-21.01,35.82
		c-4.15,5.14-8.73,9.98-13.76,14.43c-5.73,5.07-11.83,9.5-18.23,13.35c-0.31,0.2-0.63,0.38-0.94,0.56
		c-11.47,6.78-23.9,11.81-36.9,15.61c-0.31,0.09-0.62,0.19-0.94,0.27c-11.93,3.44-24.33,5.87-36.9,7.73
		c-0.31,0.05-0.63,0.09-0.94,0.14c-12.24,1.78-24.63,3.02-36.9,4.1c-0.31,0.03-0.62,0.06-0.94,0.08
		c-5.23,0.47-10.44,0.91-15.61,1.35c-3.45,0.3-6.89,0.6-10.34,0.92c-3.44,0.31-6.89,0.64-10.33,0.97c-0.21,0.02-0.4,0.04-0.61,0.06
		c-0.31,0.03-0.63,0.06-0.94,0.09c-1.9,0.18-3.8,0.36-5.71,0.54c-0.04,0-0.07,0.01-0.1,0.01c-0.99,0.09-1.98,0.2-2.98,0.29
		c-4.62,0.45-9.23,0.91-13.85,1.37c-2.35,0.23-4.7,0.46-7.04,0.7c-2.41,0.24-4.82,0.48-7.22,0.71c-0.31,0.04-0.63,0.07-0.94,0.09
		c-0.54,0.06-1.09,0.11-1.63,0.17c-1.87,0.18-3.74,0.37-5.61,0.54c-3.64,0.36-7.26,0.7-10.9,1.05c-1.5,0.14-3,0.28-4.5,0.42
		c-1.57,0.15-3.13,0.29-4.7,0.42c-3.18,0.29-6.37,0.57-9.56,0.85c-0.31,0.03-0.62,0.06-0.94,0.08c-1.55,0.13-3.11,0.26-4.66,0.39
		c-1.2,0.1-2.4,0.2-3.6,0.29c-0.14,0.02-0.27,0.03-0.41,0.04c-2.18,0.18-4.36,0.35-6.54,0.51c-2.35,0.18-4.69,0.35-7.03,0.51
		c-1.1,0.08-2.19,0.16-3.28,0.23c-1.79,0.12-3.6,0.24-5.4,0.36c-1.94,0.12-3.89,0.23-5.82,0.35h-0.16v0.01
		c-0.32,0.02-0.63,0.03-0.94,0.05c-1.88,0.1-3.75,0.21-5.62,0.29c-1.24,0.07-2.48,0.12-3.72,0.18c-3.64,0.17-7.28,0.31-10.92,0.43
		h-0.14c-1.52,0.05-3.04,0.09-4.56,0.13c-1.48,0.04-2.97,0.08-4.45,0.1c-0.26,0.01-0.54,0.02-0.8,0.02
		c-1.11,0.02-2.21,0.04-3.32,0.06c-1.13,0.02-2.24,0.04-3.37,0.05h-0.8c-0.05,0.01-0.09,0.01-0.14,0c-0.13,0.01-0.25,0.01-0.39,0.01
		c-9.48,0.08-18.95-0.03-28.42-0.39c-2.7-0.1-5.39-0.23-8.09-0.38c-0.31-0.02-0.62-0.03-0.92-0.06c-0.01,0.01-0.02,0-0.02,0
		c-0.36-0.01-0.71-0.04-1.07-0.07c-1.16-0.06-2.32-0.13-3.49-0.22c-0.35-0.02-0.7-0.05-1.06-0.08c-1.4-0.09-2.81-0.21-4.22-0.32
		c-0.75-0.06-1.5-0.11-2.25-0.18c-0.82-0.07-1.63-0.14-2.44-0.22c-0.51-0.05-1.01-0.09-1.51-0.14c-1.14-0.11-2.27-0.23-3.41-0.35
		c-0.96-0.1-1.91-0.21-2.86-0.32c-0.7-0.08-1.39-0.16-2.08-0.24c-2.5-0.3-5-0.63-7.5-0.99c-1.12-0.16-2.24-0.33-3.35-0.51
		c-0.55-0.08-1.1-0.17-1.65-0.26c-0.31-0.05-0.61-0.1-0.92-0.15c-0.01,0-0.01,0-0.02,0c-0.21-0.04-0.42-0.08-0.63-0.11
		c-0.59-0.09-1.19-0.2-1.78-0.3c-1.91-0.33-3.8-0.69-5.7-1.06c-0.7-0.12-1.4-0.26-2.09-0.41c-0.18-0.03-0.36-0.07-0.53-0.1
		c-1.04-0.22-2.08-0.43-3.11-0.67c-1.32-0.29-2.65-0.59-3.96-0.9c-7.16-1.7-14.21-3.72-21.12-6.11l-7.79-90.77
		c0,0-1.88-28.65,4.7-26.77c1.18,0.34,16.96-1.18,42.02-3.91c0.31-0.04,0.62-0.07,0.94-0.1c10.76-1.17,23.2-2.56,36.9-4.11
		c0.31-0.04,0.63-0.07,0.94-0.1c11.5-1.31,23.88-2.72,36.9-4.23c0.31-0.04,0.62-0.08,0.94-0.11c11.84-1.37,24.2-2.81,36.9-4.3
		c0.32-0.03,0.63-0.07,0.94-0.1c12.05-1.41,24.39-2.86,36.9-4.33c0.31-0.04,0.62-0.08,0.94-0.11c12.21-1.44,24.55-2.9,36.9-4.37
		c0.31-0.04,0.63-0.08,0.94-0.11c12.36-1.47,24.7-2.93,36.9-4.39c0.32-0.04,0.63-0.08,0.94-0.11
		c100.15-11.95,189.82-22.85,189.82-22.85S683.59,385.11,693.77,408.93z"/>
	<path class="st0" d="M559.45,83.63v267.93l-112.72,9.6l-63.52,5.41l-10.76,0.92l-2.33,0.2l-71.46,6.09l-20.51,1.75l-80.75,6.89
		l-1.53,0.13l-0.35-9.71l-1.46-40.54l-8.11-225.13c7.83-6.53,16.31-12.36,25.19-17.45c14.25-8.16,29.55-14.41,44.94-18.6
		c37.04-10.06,75.54-10.55,114.03-7.86c0.78,0.06,1.55,0.11,2.33,0.17c18.07,1.32,36.14,3.32,54.04,5.33
		C470.82,73.7,515.13,78.67,559.45,83.63z"/>
	<polygon class="st4" points="559.45,93.09 559.45,351.56 446.73,361.16 446.73,152.26 475.38,135.36 507.75,152.26 507.75,93.09 	
		"/>
	<polygon class="st4" points="383.22,179.5 383.22,366.57 372.46,367.49 370.13,367.68 298.67,373.77 298.67,179.5 	"/>
	<polygon class="st4" points="278.16,114.69 278.16,375.52 197.41,382.4 195.88,382.53 195.53,372.82 194.08,332.28 203.52,114.69 	
		"/>
	<path class="st2" d="M372.46,63.4v309.48h-2.33V63.24C370.91,63.29,371.68,63.35,372.46,63.4z"/>
	<g>
		<path class="st4" d="M315.23,192.18c-1.3,0-2.35-1.05-2.35-2.35v-51.19c0-1.3,1.05-2.35,2.35-2.35c1.3,0,2.35,1.05,2.35,2.35
			v51.19C317.58,191.13,316.53,192.18,315.23,192.18z"/>
	</g>
	<path class="st3" d="M647.27,112.56v265.35l-15.47,0.02h-0.94l-36.9,0.03h-0.94l-26.81,0.03V84.39c8.91,1.01,17.94,2.07,26.81,3.67
		c0.11,0.02,0.23,0.04,0.34,0.06c0.2,0.04,0.4,0.08,0.6,0.11c12.92,2.4,25.51,6.02,36.9,12.39c0.32,0.18,0.63,0.36,0.94,0.54
		c0.35,0.2,0.7,0.4,1.04,0.61C638.09,104.88,642.88,108.51,647.27,112.56z"/>
	<g>
		<g>
			<path class="st5" d="M631.8,101.16v397.85c-0.31,0.2-0.63,0.38-0.94,0.56V100.62C631.18,100.8,631.49,100.98,631.8,101.16z"/>
		</g>
		<g>
			<path class="st5" d="M593.97,88.23v426.95c-0.31,0.09-0.62,0.19-0.94,0.27V88.06c0.11,0.02,0.23,0.04,0.34,0.06
				C593.57,88.16,593.77,88.19,593.97,88.23z"/>
		</g>
		<g>
			<path class="st5" d="M556.13,377.26v145.93c-0.31,0.05-0.63,0.09-0.94,0.14V377.26c0-0.25,0.21-0.47,0.47-0.47
				S556.13,377,556.13,377.26z"/>
		</g>
		<g>
			<path class="st5" d="M518.3,377.26v150.18c-0.31,0.03-0.62,0.06-0.94,0.08V377.26c0-0.25,0.21-0.47,0.47-0.47
				S518.3,377,518.3,377.26z"/>
		</g>
		<g>
			<path class="st5" d="M480.46,377.26v153.56c-0.31,0.03-0.63,0.06-0.94,0.09V377.26c0-0.25,0.21-0.47,0.47-0.47
				S480.46,377,480.46,377.26z"/>
		</g>
		<g>
			<path class="st5" d="M442.63,377.26v157.29c-0.31,0.03-0.62,0.06-0.94,0.09V377.26c0-0.25,0.21-0.47,0.47-0.47
				C442.42,376.79,442.63,377,442.63,377.26z"/>
		</g>
		<g>
			<path class="st5" d="M404.79,377.26v160.84c-0.31,0.03-0.62,0.06-0.94,0.08V377.26c0-0.25,0.21-0.47,0.47-0.47
				C404.59,376.79,404.79,377,404.79,377.26z"/>
		</g>
		<g>
			<path class="st5" d="M366.96,377.26v163.59c-0.32,0.02-0.63,0.03-0.94,0.05V377.26c0-0.25,0.21-0.47,0.47-0.47
				C366.75,376.79,366.96,377,366.96,377.26z"/>
		</g>
		<g>
			<path class="st5" d="M328.18,388.19v153.97c0.05,0,0.09,0,0.14-0.01h0.8V388.19H328.18z"/>
		</g>
		<g>
			<path class="st5" d="M290.35,388.19v153.16c0,0,0.01,0.01,0.02,0c0.3,0.03,0.61,0.04,0.92,0.06V388.19H290.35z"/>
		</g>
		<g>
			<path class="st5" d="M252.51,398.21v139.11c0.01,0,0.01,0,0.02,0c0.31,0.05,0.61,0.1,0.92,0.15V398.21H252.51z"/>
		</g>
	</g>
	<g>
		<path class="st6" d="M704.25,297.69c-0.14-4.45-0.36-8.9-0.63-13.33c-0.53-8.59-1.29-17.15-2.27-25.7
			c-1.56-13.49-3.7-26.91-6.41-40.22c-1.8-8.87-3.87-17.68-6.18-26.42c-3.75-14.14-8.48-28.52-14.85-41.85
			c-3.1-6.52-6.59-12.79-10.55-18.66c-4.68-6.95-9.99-13.35-16.09-18.95c-4.4-4.05-9.19-7.67-14.43-10.79
			c-4.59-2.73-9.38-4.99-14.33-6.89c0.45,11.24,3.69,22.52,7.62,32.99c0.95,2.52,1.94,5.03,2.96,7.55
			c1.55,3.81,3.14,7.62,4.68,11.45c4,9.93,7.65,20,9.18,30.57c0.26,1.82,0.46,3.66,0.59,5.52c0.22,3.09,0.17,6.16-0.03,9.22
			c-0.44,6.93-1.62,13.83-2.09,20.78c-0.66,9.58,1.14,18.39,4.24,27.41c0.03,0.09,0.07,0.19,0.09,0.28c1.34,3.9,2.69,7.77,3.9,11.67
			c1.76,5.62,3.27,11.29,4.24,17.19c0.8,4.88,1.31,9.8,1.6,14.73c0.24,4.31,0.31,8.63,0.23,12.94c-0.02,0.85-0.04,1.72-0.07,2.57
			c-0.64,19.94-6.24,40-3.32,59.94c1.06,7.26,2.99,14.3,5.16,21.28c1.14,3.67,2.35,7.33,3.55,10.98c2.06,6.33,4.06,12.67,5.55,19.13
			c2.05,8.87,3.06,18.05,1.63,27.1c-1.42,8.91-5.79,17.38-5.37,26.56c0.09,2.22,0.44,4.38,0.97,6.49
			c15.84-19.58,25.63-43.66,31.63-68.89c3.29-13.81,5.44-27.95,6.81-41.89c0.14-1.45,0.28-2.89,0.4-4.34
			C704.38,336.69,704.91,317.17,704.25,297.69z"/>
		<path class="st7" d="M663.36,131.5c-1.08,0.46-2.17,0.89-3.27,1.32c-4.78,1.82-9.76,3.24-14.87,3.66
			c-5.31,0.44-10.56-0.35-15.8-1.02c-0.11-0.02-0.23-0.03-0.34-0.04c1.55,3.81,3.14,7.62,4.68,11.45c2.79-0.82,5.58-1.63,8.39-2.24
			c5.34-1.16,10.6-1.32,15.87,0.19c4.31,1.25,8.38,3.2,12.66,4.55c1.08,0.34,2.15,0.61,3.22,0.8
			C670.81,143.65,667.32,137.37,663.36,131.5z"/>
		<path class="st7" d="M678.28,180c-2.54-2.29-6.01-2.62-9.28-2.5c-4.9,0.19-9.75,0.65-14.67,0.58c-2.58-0.03-5.17-0.14-7.74-0.33
			c-1.21-0.09-2.42-0.2-3.64-0.32h-0.01c0.26,1.82,0.46,3.66,0.59,5.52c0.22,3.09,0.17,6.16-0.03,9.22c1.51,0.17,3.03,0.3,4.55,0.39
			c4.54,0.26,9.08,0.2,13.62-0.03c4.12-0.21,8.49-0.2,12.53-1.07c2.62-0.56,5.34-2,6.27-4.69
			C681.33,184.29,680.15,181.69,678.28,180z"/>
		<path class="st7" d="M670.86,226.53c-3.79,1.06-18.82,7.23-25.21,13.84c0.03,0.09,0.07,0.19,0.09,0.28
			c1.34,3.9,2.69,7.77,3.9,11.67c1.88,0.5,3.9,0.57,5.87,0.58c5.21,0.03,10.44-0.25,15.62-0.85c4.28-0.5,8.68-1.09,12.71,0.78
			c5.62,2.59,11.77,5.59,17.51,5.82c-1.56-13.49-3.7-26.91-6.41-40.22C687.57,222.34,679,224.24,670.86,226.53z"/>
		<path class="st7" d="M703.62,284.36c-5.94,1.94-12.05,3.31-18.31,3.55c-5.49,0.23-10.65-0.74-15.94-2.09
			c-2.28-0.58-4.59-1.1-6.96-1.17c-2.06-0.08-4.1,0.11-6.14,0.08c1.22-1.95,2.45-3.89,3.73-5.81c0.34-0.5-0.47-0.97-0.81-0.47
			c-1.28,1.91-2.51,3.85-3.72,5.8c0.24,4.31,0.31,8.63,0.23,12.94c9.78-0.82,19.75-0.1,29.49,0.1c6.03,0.12,12.06,0.23,18.09,0.38
			c0.32,0.01,0.64,0.02,0.97,0.03C704.11,293.23,703.9,288.79,703.62,284.36z"/>
		<path class="st7" d="M696.42,332.29c-0.91-2.56-5.49-2.57-7.69-2.66c-1.13-0.05-2.24,0-3.34,0.12c-5.11-1-10.55-1.29-14.98,1.18
			c-3.79,2.11-7.48,7.82-2.88,11.13c4.96,3.58,21.9,0.37,26.29-3.68C695.27,337.03,697.19,334.42,696.42,332.29z"/>
		<path class="st7" d="M695.32,364.82c-5.4,5.37-11.73,9.07-19.04,11.23c-6.21,1.84-12.66,2.84-18.8,4.91
			c1.14,3.67,2.35,7.33,3.55,10.98c3.35-0.75,6.73-1.28,10.21-1.01c2.55,0.2,5.05,0.86,7.25,2.2c2.16,1.31,3.89,3.18,5.88,4.71
			c2.83,2.17,6.16,3.63,9.66,4.28c0.46,0.08,0.93,0.16,1.4,0.22c3.29-13.81,5.44-27.95,6.81-41.89c0.14-1.45,0.28-2.89,0.4-4.34
			C700.44,359.18,698.03,362.11,695.32,364.82z"/>
	</g>
	<g>
		<polygon class="st8" points="647.27,377.92 647.27,386.8 218.01,427.64 171.67,400.03 174.08,392.26 		"/>
		<polygon class="st0" points="174.08,392.26 216.6,418.56 647.27,377.92 566.22,356.85 		"/>
	</g>
	<g>
		<path class="st6" d="M235.79,466.09c-1.69-7.79-3.72-15.37-4.45-23.23c-0.19-1.98-0.29-3.97-0.28-5.99
			c0.02-6.4,0.67-12.77,0.95-19.15c0.16-3.74,0.19-7.49-0.1-11.23c-0.7-8.87-3.51-17.33-6.75-25.57
			c-3.32-8.43-7.07-16.72-9.44-25.48c-0.68-2.51-1.2-5.04-1.61-7.59c-1.1-7.08-1.18-14.3-0.7-21.48c0.48-7.21,1.48-14.39,2.47-21.57
			c1.67-12.14,3.33-24.26,2.42-36.55c-1.44-19.46-8.15-38.13-9.38-57.62c-0.76-12.11,1.08-23.99,3.13-35.86
			c0.82-4.7,1.66-9.39,2.39-14.1c0.51-3.3,0.96-6.6,1.3-9.92c1.94-18.8,0.75-37.93-3.42-56.36c-0.36-1.57-0.73-3.14-1.14-4.69
			c-22.76,13.04-42.85,30.95-56.32,53.04c-4.71,7.71-8.61,15.93-11.53,24.63c-0.23,0.7-0.47,1.41-0.69,2.1
			c-8.21,25.53-9.56,51.5-8.99,77.64c0.1,4.78,0.27,9.56,0.47,14.34c1.01,24.08,2.87,48.26,1.77,72.35c-0.23,5-0.59,9.98-1.12,14.96
			c-0.28,2.71-0.61,5.44-1,8.15c-0.83,5.81-1.91,11.63-3.04,17.43c-1.42,7.2-2.92,14.39-4.14,21.59c-0.79,4.65-1.47,9.3-1.92,13.96
			c-0.77,7.91-0.92,15.84,0.06,23.78c0.31,2.49,0.72,4.95,1.25,7.39c2.91,13.66,9.1,26.41,17.48,37.74
			c4.87,6.58,10.46,12.68,16.58,18.19c5.1,4.6,10.58,8.8,16.28,12.53c17.82,11.67,37.68,19.29,58.41,24.21
			c-0.51-4.07-1.54-8.16-2.01-12.06c-1.15-9.63,1.7-18.95,3.55-28.28C238.08,484.11,237.8,475.33,235.79,466.09z"/>
		<path class="st7" d="M201.89,132.19c-2.52-1.91-6.23-1.55-9.13-0.99c-3.65,0.7-7.09,2.26-10.39,3.95
			c-6.95,3.59-14.24,8.95-22.44,8.54c-1.78-0.08-3.45-0.52-5.09-0.96c-4.71,7.71-8.61,15.93-11.53,24.63
			c-0.23,0.7-0.47,1.41-0.69,2.1c0.18-0.24,0.36-0.49,0.54-0.73c3.32-4.36,7.09-8.2,12.15-10.5c4.62-2.11,9.71-2.97,14.71-3.65
			c8.28-1.15,16.75-1.92,24.08-6.3c3.06-1.84,5.83-4.29,7.62-7.41C203.21,138.27,204.79,134.38,201.89,132.19z"/>
		<path class="st7" d="M188.07,168.63c-8.95,3.38-17.95,8.01-23.8,15.83c-1.82,2.42-3.56,6.66,0.7,7.54
			c4.07,0.85,8.27-2.42,11.36-4.56c4.65-3.18,9.02-6.81,14.18-9.16c5.81-2.64,11.84-3.36,18.16-3.34c1.15,0,2.28-0.05,3.37-0.19
			c0.82-4.7,1.66-9.39,2.39-14.1C205.52,162.93,196.65,165.39,188.07,168.63z"/>
		<path class="st7" d="M204.24,248.8c-1.13-4.05-5.87-3.83-9.01-2.49c-5.16,2.21-8.44,7.1-13.19,9.94c-2.86,1.71-6.32,2.6-9.39,0.91
			c-3.57-1.95-4.25-5.64-1.66-8.73c1.83-2.19,4.08-4.1,6.11-6.1c2.61-2.56,5.23-5.13,7.84-7.69c2.18-2.14,4.36-4.27,6.54-6.42
			c1.9-1.86,4.03-3.69,5.26-6.09c1.63-3.16,1.09-7.45-2.58-8.76c-4.15-1.49-9.67,0.4-13.45,2.13c-4.58,2.09-8.65,5.19-12.41,8.53
			c-9.24,8.19-17.5,19.32-30.09,22.43c-1.5,0.38-3.03,0.55-4.58,0.65c0.1,4.78,0.27,9.56,0.47,14.34c2.43-0.85,4.88-1.44,7.52-1.47
			c3.3-0.06,6.6,0.61,9.6,1.98c2.83,1.29,5.22,3.29,7.86,4.88c8.78,5.34,19.96,6.07,29.33,1.82c4.44-2.01,8.41-5.06,11.5-8.83
			C202.23,257.01,205.34,252.72,204.24,248.8z"/>
		<path class="st7" d="M197.29,281.97c-8.62-1.76-17.57,6.2-24.43,10.21c-6.51,3.81-17.43,6.01-20.48,13.7
			c-1.57,3.95,0.21,8.27,4.52,9.18c5.34,1.13,9.51-2.88,13.7-5.44c5.29-3.23,11.42-4.59,17.02-7.14c4.86-2.21,9.47-5.47,11.59-10.55
			C200.45,288.95,201.6,282.85,197.29,281.97z"/>
		<path class="st7" d="M213.4,326.35c0.48-7.21,1.48-14.39,2.47-21.57c-7.47,7.83-13.48,17.38-21.59,24.53
			c-7.98,7.04-17.43,9.87-28.04,9.02c-10.07-0.81-20.21-4.42-30.38-4.53c-0.23,5-0.59,9.98-1.12,14.96c0.48-0.05,0.95-0.1,1.42-0.16
			c5.95-0.7,11.86-1.68,17.72-2.96c3.06-0.68,6.13-1.5,9.28-1.78c3.42-0.29,6.78,0.24,10.15,0.75c6.13,0.93,12.26,1.93,18.41,2.77
			c7.28,1,15.04,1.76,22.37,0.44C213,340.75,212.92,333.54,213.4,326.35z"/>
		<path class="st7" d="M205.64,392.37c-3.24-2.25-7.23-3.1-10.73-4.85c-4.18-2.09-7.65-5.55-9.75-9.72
			c-1.85-3.67-2.25-7.95-4.38-11.49c-1.88-3.13-5.05-4.72-8.62-5.05c-9.03-0.85-17.08,4.68-24.73,8.59
			c-4.25,2.19-8.79,4.17-13.63,4.5c-1.03,0.07-2.07,0.07-3.09,0c-1.42,7.2-2.92,14.39-4.14,21.59c3.26,0.45,6.67,0.3,8.94,0.09
			c4.26-0.39,7.93-1.91,11.51-4.19c3.64-2.33,7.24-5.2,11.6-5.96c11.38-1.98,18.49,9.99,25.47,16.7c5.3,5.1,14.04,9.86,21.01,4.99
			C210.61,403.73,211.34,396.35,205.64,392.37z"/>
		<path class="st7" d="M232.01,417.71c-5.74,8.63-13.13,15.94-23.29,19.27c-7.8,2.55-16.72,2.58-23.95-1.65
			c-5.99-3.51-12.31-12.62-20.36-9.39c-4.98,1.99-6.49,8.45-4.87,13.15c2.2,6.4,9.36,9.44,15.53,10.46
			c4.27,0.7,8.66,0.72,12.95,0.13c4.72-0.67,9.17-2.32,13.73-3.67c2.37-0.7,4.79-1.32,7.26-1.56c2.86-0.26,5.62,0.18,8.43,0.64
			c3.68,0.59,7.21,0.7,10.76-0.65c1.15-0.43,2.19-0.97,3.16-1.59c-0.19-1.98-0.29-3.97-0.28-5.99
			C231.08,430.47,231.72,424.1,232.01,417.71z"/>
		<path class="st7" d="M148.06,415.58c-0.86-8.27-10.2-6.92-16.29-6.57c-2.38,0.14-4.78,0.41-7.12,0.89
			c-0.77,7.91-0.92,15.84,0.06,23.78c0.31,2.49,0.72,4.95,1.25,7.39c4.26-2.15,8.42-4.46,12.16-7.25
			C143.76,429.63,148.83,423.01,148.06,415.58z"/>
		<path class="st7" d="M228.23,486.77c-0.34-2.71-2.33-4.78-4.67-6c-3.26-1.71-6.84-1.67-10.43-1.49
			c-5.09,0.25-9.36-0.11-13.99-2.38c-3.48-1.7-6.81-3.79-10.58-4.76c-3.66-0.95-7.49-0.75-11.17,0.01
			c-10.21,2.1-19.14,7.38-29.87,6.99c-1.37-0.06-2.73-0.16-4.1-0.31c4.87,6.58,10.46,12.68,16.58,18.19
			c5.83-2.14,11.69-4.15,18.01-3.83c9.31,0.47,17.73,5.06,26.88,6.36c6.41,0.91,13.7,0.39,18.89-3.89
			C226.37,493.52,228.65,490.26,228.23,486.77z"/>
	</g>
	<g>
		<path class="st8" d="M645.95,378.04c-0.04,0-0.08,0-0.12-0.01l-67.85-17.63c-0.25-0.07-0.4-0.32-0.34-0.57
			c0.07-0.25,0.32-0.4,0.57-0.34l67.85,17.63c0.25,0.07,0.4,0.32,0.34,0.57C646.35,377.9,646.16,378.04,645.95,378.04z"/>
	</g>
	<path class="st9" d="M540.52,265.63c0,0,9.13-24.12,6.91-30.47c-2.23-6.35,1.22-30.09,1.53-31.68c0.31-1.6,10.87,0.1,19.68,2.54
		c8.81,2.44,50.31,5.95,56.91,7.19c6.6,1.24,40.51,15.79,44.9,17.11c4.38,1.32,3.76,3.83,2.5,10.55
		c-1.25,6.73-1.25,51.82-5.32,64.65c-4.07,12.84-14.4,62.39-14.72,67.36s-4.83,6.64-13.85,5.81c-9.01-0.84-29.57-5.45-40.74-5.81
		c-11.17-0.35-37.78-12.64-37.78-12.64l-29.74-9.63L540.52,265.63z"/>
	<g>
		<path class="st10" d="M569.98,204.74c-0.4,2.64,0.77,4.36,1.96,6.59c1.78,3.34,0.76,6.48,1.05,10.03
			c0.21,2.52,1.39,4.73,2.94,6.69c0.87,1.11,1.81,2.21,2.79,3.29c-0.09,2.46,0.46,4.89,3.11,5.85c1.43,0.52,2.24,1.26,3.19,2.44
			c1.83,0.02,3.68,0.07,5.31,0.59c2.1,0.67,2.37,1.59,5.28,1.01c1-0.2,2.07-0.68,3.03-1.01c2.99-1.02,5.94-2.48,9.09-2.9
			c3.06-0.41,5.68,0.5,8.65,1.04c3.89,0.71,6.09-0.8,9.52-2.09c1.16-0.44,2.39-0.56,3.62-0.55c1.15,0.01,2.81,0.66,3.89,0.42
			c1.6-0.35,2.06-4.28,2.08-6.02c0.03-2.21-0.71-4.33-1.72-6.28c-1.16-2.25-2.78-4.36-4.16-6.56c0.72-3.26,0.95-6.58,0.03-9.92
			c-0.73-2.66-2.03-5.13-2.75-7.79c-0.84-3.1-0.1-6-0.24-9.13c-0.11-2.55-0.26-5.4-1.18-7.8c-0.84-2.2-2.56-3.89-4.28-5.44
			c-2.28-2.03-4.85-3.71-7.68-4.69c-0.85-0.66-1.96-1.13-2.78-1.59c-3.63-2.07-6.75-3.79-11.01-2.67c-2.36,0.62-4.54,1.41-6.98,1.72
			c-1.92,0.25-3.72,0.62-5.49,1.45c-2.36,1.11-5.17,2.76-7.31,4.77c-1.26,0.12-2.49,0.36-3.6,0.79c-1.44,0.56-2.33,1.87-3.15,3.17
			c-0.12,0.01-0.24,0.07-0.32,0.2c-1.57,2.5-3.18,5.12-3.8,8.05c-0.55,2.61,0.02,4.81,0.99,7.24c0.74,1.85,1.17,3.48,0.76,5.5
			C570.61,202.37,570.17,203.52,569.98,204.74z"/>
		<path class="st10" d="M628.31,172.89c-0.44-1.26-1.38-2.16-2.48-3c-1.18-0.89-2.85,0.1-3.7,0.96c-0.37,0.37-0.68,0.78-0.96,1.21
			c-1.01,0.09-1.94,0.38-2.48,1.42c-0.77,1.5-0.04,3.18,1.08,4.26c1.33,1.29,2.97,2.21,4.82,1.7c1.75-0.48,3.92-1.6,4.71-3.34
			C630.02,174.5,628.76,174.18,628.31,172.89z"/>
		<g>
			<path class="st11" d="M512.54,288.71c1.31-4.51-14.3-17.93-14.3-17.93l-28.84,1.43l-3.36,7.83c0,0,1.82,0.72,4.86,1.88
				c1.06,0.41,2.29,0.86,3.62,1.37c5.57,2.08,11.18,4.07,16.83,5.95c4.61,1.54,12.92,6.01,17.7,3.62
				C510.94,291.91,512.04,290.43,512.54,288.71z"/>
			<path class="st11" d="M471.18,272.66c0,0-10.3-4.9-14.43-4.66s-9.58,6.68-10.82,7.52c-1.25,0.83-2.84,4.55-1.22,5.62
				c1.62,1.07,9.36-1.59,13.64-1.45c4.28,0.14,9.3,0.99,9.3,0.99l6.16-4.4L471.18,272.66z"/>
		</g>
		<path class="st12" d="M570.09,230.32c0,0-21.13,31.06-22.38,32.31c-1.25,1.25-15.12,26.44-17.62,26.75
			c-2.51,0.31-11.03,11.56-11.03,11.56s-3.18-1.05-7.25-2.8c0-0.1-0.66-7.67-0.85-8.37c-0.81-2.89-2.16-5.68-4.2-7.91
			c-1.6-1.75-3.59-3.14-4.99-5.05c-1.66-2.3-5.08-6.63-2.64-9.3c1.55-1.7,6.24-3.01,8.19-3.64c3.33-1.06,4.46-5.01,7.35-6.73
			c0.18-0.1,0.36-0.21,0.54-0.3c0.7-0.41,1.38-0.79,2.08-1.16c7.01-3.71,13.91-5.84,19.86-11.38
			C552.17,230.32,570.09,230.32,570.09,230.32z"/>
		<path class="st13" d="M396.91,217.18l53.83,4.21c0.42,0.03,0.77,0.35,0.85,0.76l12.14,65.06l-55.15-7.65l-12.66-61.25
			C395.79,217.7,396.29,217.13,396.91,217.18z"/>
		<polygon class="st11" points="312.82,352.82 296.16,371.14 305.9,377.26 328.92,358.24 		"/>
		<path class="st11" d="M307.71,369.34c0,0,0.41,8.61-1.29,12.53c-1.71,3.91-5.9,3.88-15.49,5.67c-3.58,0.67-16.17,4.3-19.41,3.21
			c-3.24-1.08-0.69-4.49,2.94-6.2c3.63-1.71,13.89-8.32,17.05-10.39c3.16-2.07,5.2-4.13,5.2-4.13l4.99-4.99L307.71,369.34z"/>
		<polygon class="st11" points="353.32,360.25 340.18,381.23 350.84,385.52 370.13,362.72 		"/>
		<path class="st2" d="M506.69,298.95c0,0-106.45-31.15-122.89-18.47s-70.98,72.34-70.98,72.34l21.21,17.36
			c0,0,30.51-14.56,35.21-18.32c4.7-3.76,44.62-25.94,44.62-25.94s11.47,9.3,22.31,17.02c11.92,8.48,50.96,31.47,50.96,31.47
			l24.89-34.75l32.41,3.76c0,0,22.86-11.02,21.76-17.49C565.09,319.46,506.69,298.95,506.69,298.95z"/>
		<path class="st13" d="M458.13,277.17c0,0,40.57,21.66,41.77,23.12c0.2,0.24,0.31,0.54,0.36,0.85c0.31,1.97-1.91,3.37-3.67,2.46
			l-42.24-22.03L458.13,277.17z"/>
		<path class="st2" d="M575.24,338.09c0,0-3.11,8.77-5.14,12.52c-2.03,3.76-20.19,28.49-52.76,32.88
			c-32.56,4.38-56.05-21.29-70.76-33.5c-14.72-12.21-21.6-23.8-21.6-23.8s-3.13,7.63-12.52,19.31
			c-9.39,11.69-15.97,10.43-20.35,17.01c-4.38,6.58-10.02,13.15-15.97,16.59c-5.95,3.44-7.2,4.88-7.2,4.88l-21.48-14.36
			c0,0,14.31-22.94,29.62-46.88c14.22-22.24,29.15-45.36,37.99-51.1c21.11-13.71,112.61,56.43,114.18,56.43
			c1.57,0,32.25-8.45,32.25-8.45L575.24,338.09z"/>
		<path class="st12" d="M624.42,294.26c-1.73,9.07-16.19,30.4-32.56,41.52c-3.97,2.7-7,6.36-9.51,10.29c-0.42,0.66-0.84,1.32-1.23,2
			c-0.81,1.37-1.56,2.75-2.29,4.13c-0.71,1.37-1.41,2.73-2.08,4.06c-0.62,1.21-1.22,2.39-1.82,3.51c-0.6,1.12-1.2,2.17-1.82,3.16
			c-3.22,5.18-6.82,8.24-12.73,6.09c-5-1.81-4.7-37.18-5.17-37.65c-0.47-0.47-48.53-32.41-48.53-32.41s26.23-30.66,27.71-35.69
			c6.11-20.66,22.63-28.97,30.69-31.63c8.06-2.66,21.76-4.07,41.8-0.63c20.04,3.45,25.05,24.58,26.46,35.69
			C634.75,277.82,626.14,285.17,624.42,294.26z"/>
		<path class="st0" d="M557.42,253.95c1.35-0.98,1.81-5.9,1.75-7.08c-0.07-1.42-0.38-2.86-0.11-4.25c0.27-1.4,2.7-4.32,4-2.1
			c0.69,1.17-0.79,4.9-0.74,6.43c0.05,1.44-0.29,6.29,1.41,6.96c2.78,1.09,2.6-7.08,2.55-8.46c-0.05-1.25-0.23-2.5-0.07-3.73
			c0.16-1.24,0.73-2.5,1.82-3.11c1.08-0.61,2.71-0.3,3.2,0.85c0.41,0.96-0.06,2.04-0.44,3.01c-1.26,3.21-1.6,6.79-0.96,10.18
			c0.18,0.95,0.75,2.11,1.7,1.98c0.68-0.1,1.06-0.81,1.28-1.46c0.65-1.84,0.93-3.8,0.84-5.74c-0.1-2.12-0.65-4.27-0.1-6.32
			c0.55-2.05,2.84-3.85,4.73-2.9c0.1,4.91-1.61,9.96-0.09,14.64c0.68,2.1,3.03,2.49,3.39-0.05c0.44-3.08-0.64-6.91-0.98-9.99
			c-0.14-1.26-0.21-2.71,0.7-3.58c1.11-1.07,2.96-0.59,4.29,0.2c0.79,0.47,2.03-0.31,1.87-1.27c-0.18-1.11-2.51-1.16-3.41-1.37
			c-2.41-0.58-4.9-0.74-7.36-0.85c-3.77-0.18-7.57,0.07-11.29,0.67c-1.93,0.31-3.88,0.76-5.52,1.82c-3.35,2.19-4.66,6.5-4.77,10.5
			c-0.03,1.19,0.15,4.36,1.31,5.06C556.8,254.19,557.13,254.16,557.42,253.95z"/>
		<path class="st0" d="M559.83,278.53c-0.52,1.58,1.97,5.85,2.7,6.78c0.89,1.11,1.97,2.1,2.57,3.39c0.6,1.29,0.32,5.09-2.03,4.04
			c-1.24-0.55-2.21-4.44-3.15-5.66c-0.88-1.14-3.43-5.28-5.21-4.83c-2.9,0.73,2.01,7.27,2.86,8.36c0.77,0.98,1.64,1.9,2.23,2.99
			c0.59,1.1,0.86,2.46,0.34,3.59c-0.52,1.13-2.03,1.82-3.1,1.17c-0.89-0.54-1.14-1.69-1.4-2.71c-0.85-3.35-2.65-6.45-5.15-8.83
			c-0.7-0.67-1.84-1.28-2.53-0.61c-0.49,0.47-0.38,1.28-0.19,1.93c0.54,1.87,1.45,3.63,2.66,5.15c1.32,1.66,3.02,3.1,3.76,5.08
			c0.75,1.98-0.06,4.78-2.15,5.11c-2.94-3.93-4.5-9.03-8.46-11.95c-1.78-1.31-3.91-0.26-2.73,2.02c1.44,2.76,4.55,5.24,6.62,7.54
			c0.84,0.94,1.75,2.08,1.52,3.32c-0.28,1.51-2.06,2.21-3.6,2.34c-0.92,0.08-1.47,1.44-0.78,2.13c0.8,0.8,2.72-0.52,3.57-0.87
			c2.29-0.93,4.41-2.26,6.48-3.6c3.17-2.05,6.11-4.47,8.79-7.13c1.39-1.37,2.71-2.88,3.42-4.7c1.45-3.73-0.01-8-2.25-11.31
			c-0.67-0.98-2.66-3.46-4.01-3.34C560.19,277.98,559.94,278.19,559.83,278.53z"/>
		<path class="st11" d="M510.06,296.81c0,0-7.95-8.17-11.91-9.38c-3.96-1.21-11.3,2.94-12.76,3.29c-1.46,0.35-4.24,3.28-3.1,4.85
			c1.14,1.57,9.33,1.76,13.29,3.38c3.97,1.62,8.38,4.16,8.38,4.16l7.31-1.99L510.06,296.81z"/>
		<path class="st11" d="M610.42,211.32l-0.18,20.47c0,0-7.79,8.17-14.2,9.27c-6.41,1.1-9.05-3.76-9.05-3.76l-0.34-1.71l-0.25-1.25
			l-0.46-2.3l-0.21-1.01l-2.36-11.71L610.42,211.32z"/>
		<path class="st11" d="M612.96,212.76c-0.28,0.87-4.05,2.5-4.39,3.36c-2.51,6.41-0.8,5.54-6.67,9.49c-7,4.71-15.41,6.58-19.48,4.71
			c-2.84-1.31-6.27-8.44-7.02-19.01c-0.16-2.22-0.49-6.24-0.18-10.85c0.05-0.75,0.1-1.48,0.14-2.17c0.23-3.31,0.42-5.83,0.42-5.83
			s10.52-13.92,17.24-14.03c6.73-0.11,19.25,2.4,22.03,9.25c0.47,1.15,0.68,2.42,0.8,3.66
			C616.62,198.45,615.08,206.02,612.96,212.76z"/>
		<path class="st14" d="M591.89,204.88c0.09-0.66,0.34-1.27,0.92-1.37c1.54-0.28,1.86,2.41,1.75,3.27c-0.07,0.51-0.37,1.1-0.86,1.33
			c-0.52,0.25-1.04-0.04-1.36-0.47c-0.28-0.39-0.42-0.86-0.47-1.34C591.84,205.97,591.81,205.41,591.89,204.88z"/>
		<path class="st14" d="M578.13,204.58c0.08-0.66,0.31-1.28,0.88-1.4c1.53-0.32,1.93,2.36,1.84,3.23c-0.05,0.51-0.35,1.11-0.82,1.36
			c-0.51,0.26-1.04-0.01-1.37-0.44c-0.29-0.38-0.44-0.85-0.51-1.32C578.11,205.67,578.07,205.11,578.13,204.58z"/>
		<path class="st0" d="M581.17,219.1c0,0,1.69,0.47,4.56,0.38c3.27-0.09,5.46-0.39,5.46-0.39s-1.47,2.72-4.8,2.87
			C583.06,222.11,581.17,219.1,581.17,219.1z"/>
		<path class="st11" d="M614.9,204.34c-0.72-1.39-1.89-2.54-3.42-3.05c-1.86-0.63-3.62-0.03-4.07,2.01
			c-0.13,0.56,0.73,0.84,0.86,0.27c0.21-0.1,0.41-0.2,0.62-0.3c-0.16,1.44-0.12,2.88-0.14,4.35c-0.04,2.26-0.73,4.39-0.94,6.63
			c-0.07,0.78,1.89,0.61,2.34,0.49C614.36,213.6,616.88,208.2,614.9,204.34z"/>
		<g>
			<path class="st15" d="M585.21,216.67c-0.05,0-0.09-0.01-0.14-0.02c-0.27-0.09-2.65-0.88-2.58-2.33c0.06-1.16,1.65-5.97,1.83-6.51
				c0.08-0.25,0.35-0.38,0.59-0.3c0.25,0.08,0.38,0.35,0.3,0.59c-0.48,1.45-1.74,5.39-1.78,6.26c-0.03,0.52,1.14,1.14,1.93,1.39
				c0.25,0.08,0.38,0.34,0.31,0.59C585.59,216.54,585.4,216.67,585.21,216.67z"/>
		</g>
		<path class="st15" d="M601.45,224.29c-0.1,0.25-1.88,4.16-3.06,5.76c-1.2,1.65-3.95,1.1-5.97,2.86c-2.02,1.77-3.66,1.98-5.71,1.49
			c-0.1-0.03-0.21-0.06-0.31-0.07l-0.46-2.3l-0.21-1.01c1.55-0.08,3.5-0.3,6.34-1.3C597.26,227.91,601.22,224.52,601.45,224.29z"/>
		<path class="st10" d="M591.66,197.86c1.28-0.56,3.53-0.32,4.27-0.14c0.94,0.23,1.85,0.56,2.6,1.11c0.32,0.23,0.89,0.63,1.03,0.97
			c0.56,1.39-2.48,0.62-2.99,0.55c-1.35-0.19-2.68,0.04-4.02-0.02c-0.72-0.03-1.86-0.47-1.79-1.37
			C590.8,198.43,591.15,198.08,591.66,197.86z"/>
		<path class="st10" d="M580.57,200.43c-1.34,0-2.67-0.28-4.02-0.14c-0.19,0.02-0.74,0.13-1.33,0.17c0.05-0.75,0.1-1.48,0.14-2.17
			c0.6-0.28,1.25-0.47,1.92-0.6c1.41-0.28,2.9-0.18,4.22,0.41C583.22,198.86,582.3,200.43,580.57,200.43z"/>
		<g>
			<path class="st16" d="M352.25,360.66c-0.09,0-0.18-0.02-0.26-0.08c-0.22-0.14-0.28-0.43-0.14-0.65
				c0.14-0.22,14.21-21.94,23.72-37.28c9.52-15.36,30.9-43.59,31.12-43.87c0.16-0.21,0.45-0.25,0.66-0.09
				c0.21,0.16,0.25,0.45,0.09,0.66c-0.21,0.28-21.57,28.47-31.07,43.8c-9.52,15.35-23.59,37.08-23.73,37.29
				C352.55,360.58,352.4,360.66,352.25,360.66z"/>
		</g>
		<g>
			<path class="st16" d="M544.89,333.86c-0.06,0-0.12-0.01-0.18-0.03c-0.84-0.34-20.55-8.32-22.96-9.88
				c-2.38-1.54-33.58-22.4-33.9-22.61c-0.22-0.14-0.27-0.44-0.13-0.65c0.14-0.21,0.44-0.27,0.65-0.13
				c0.31,0.21,31.52,21.07,33.89,22.61c2.34,1.51,22.6,9.71,22.8,9.79c0.24,0.1,0.36,0.37,0.26,0.61
				C545.25,333.75,545.08,333.86,544.89,333.86z"/>
		</g>
		<g>
			<path class="st16" d="M464.33,364.55c-0.12,0-0.24-0.05-0.33-0.14l-37.86-37.74l-3.33,5.03c-0.14,0.22-0.43,0.28-0.65,0.13
				c-0.22-0.14-0.28-0.43-0.13-0.65l3.96-5.99l38.67,38.56c0.18,0.18,0.18,0.48,0,0.67C464.57,364.5,464.45,364.55,464.33,364.55z"
				/>
		</g>
		<g>
			<path class="st16" d="M424.57,327.41l9.09-14.31c0.14-0.22,0.43-0.28,0.65-0.14c0.22,0.14,0.28,0.43,0.14,0.65l-6.88,10.83
				l8.35-5.2c0.22-0.13,0.51-0.07,0.65,0.15c0.14,0.22,0.07,0.51-0.15,0.65L424.57,327.41z"/>
		</g>
		<path class="st11" d="M351.28,381.58c0,0-0.37,8.61-2.42,12.36c-2.06,3.74-6.23,3.33-15.94,4.24c-3.63,0.34-16.49,2.81-19.62,1.44
			c-3.13-1.37-0.27-4.54,3.49-5.91c3.77-1.37,14.59-7.03,17.92-8.8c3.34-1.77,5.07-3.58,5.07-3.58l5.07-4.03L351.28,381.58z"/>
		<path class="st17" d="M429.6,239.47c-0.12,1.1-3.04,1.67-6.52,1.29c-3.48-0.38-6.2-1.58-6.08-2.68s3.04-1.67,6.52-1.29
			C427,237.18,429.72,238.38,429.6,239.47z"/>
		<path class="st12" d="M634.83,289.4c-4.7,6.12-4.25,15.61-9.28,22.92c-0.76,1.11-1.64,2.16-2.7,3.15c-0.54,0.51-1.02,1-1.47,1.47
			c-2.41,2.59-3.63,4.88-4.5,7.01c-0.95,2.29-1.49,4.4-2.72,6.49c-0.57,0.98-1.3,1.95-2.27,2.95c-10.67,10.87-15.55-0.94-15.55-0.94
			s-15.23-31.52-14.9-34.35c0.32-2.83,28.5-45.33,28.5-45.33l1.95-20.44c0,0,21.08,9.64,26.11,17.86c0.83,1.34,1.44,3.11,1.87,5.16
			c0.14,0.69,0.26,1.41,0.37,2.15C641.7,268.07,639.05,283.9,634.83,289.4z"/>
		<path class="st11" d="M503.97,303.1c0,0,34.07,19.03,46.98,24.03c8.5,3.29,15.88,1.87,17.78,1.55c5.73-0.94,22.17-4.22,22.17-4.22
			l-21.53-20.06l-9.01,0.98l-51.37-8.71L503.97,303.1z"/>
		<path class="st11" d="M586.98,236.88c0,0-2.73,5.09-4.25,8.22c-1.52,3.13-2.68,4.85-3.75,7.98c-1.06,3.13-5.6,10.18-5.6,10.18
			s11.9-7.51,19.33-12.05c7.44-4.54,17.53-19.42,17.53-19.42s-7.35,4.36-9.3,4.7C587.07,238.94,586.98,236.88,586.98,236.88z"/>
		<path class="st0" d="M535.58,279.36c-1.14-1.22-6.07-1.09-7.23-0.89c-1.41,0.24-2.79,0.71-4.21,0.62
			c-1.43-0.1-4.62-2.17-2.57-3.73c1.08-0.82,4.96,0.21,6.48-0.03c1.42-0.23,6.28-0.46,6.74-2.24c0.75-2.89-7.35-1.74-8.71-1.52
			c-1.23,0.2-2.45,0.53-3.69,0.52c-1.25-0.02-2.57-0.43-3.32-1.44c-0.73-1.01-0.61-2.66,0.47-3.28c0.9-0.53,2.03-0.19,3.04,0.08
			c3.34,0.87,6.92,0.78,10.22-0.25c0.92-0.29,2.01-1,1.76-1.93c-0.17-0.66-0.93-0.96-1.6-1.11c-1.9-0.42-3.88-0.47-5.81-0.15
			c-2.09,0.36-4.16,1.16-6.26,0.85c-2.1-0.3-4.17-2.36-3.45-4.35c4.87-0.69,10.09,0.4,14.55-1.65c2-0.93,2.1-3.31-0.45-3.36
			c-3.11-0.07-6.79,1.47-9.81,2.17c-1.23,0.28-2.66,0.53-3.64-0.27c-0.53-0.43-0.77-1.03-0.84-1.7c-0.69,0.37-1.38,0.74-2.08,1.16
			c-0.07,1.83,0.04,3.68,0.17,5.51c0.28,3.77,0.98,7.5,2.02,11.13c0.54,1.88,1.21,3.77,2.46,5.26c2.57,3.07,7.02,3.85,11,3.48
			c1.18-0.11,4.31-0.67,4.87-1.91C535.9,279.94,535.83,279.62,535.58,279.36z"/>
		<path class="st0" d="M580.85,345.2c-1.9-0.42-3.88-0.48-5.8-0.15c-2.09,0.36-4.17,1.16-6.27,0.85c-2.09-0.3-4.16-2.37-3.44-4.36
			c4.86-0.68,10.08,0.41,14.54-1.64c2.01-0.93,2.1-3.31-0.45-3.36c-3.11-0.08-6.78,1.47-9.8,2.16c-1.23,0.29-2.67,0.54-3.64-0.27
			c-1.19-0.98-0.95-2.86-0.32-4.28c0.38-0.85-0.54-1.98-1.48-1.71c-1.09,0.32-0.85,2.64-0.96,3.55c-0.29,2.46-0.15,4.95,0.03,7.41
			c0.27,3.77,0.97,7.51,2.01,11.14c0.54,1.87,1.21,3.76,2.47,5.26c1.37,1.63,3.28,2.62,5.37,3.13c0.62-0.99,1.22-2.04,1.82-3.16
			c-0.97,0.21-1.94,0.42-2.92,0.35c-1.43-0.09-4.61-2.17-2.56-3.72c1.08-0.82,4.96,0.21,6.47-0.04c0.22-0.04,0.5-0.07,0.84-0.1
			c0.67-1.32,1.36-2.69,2.08-4.06c-2.03-0.01-4.22,0.31-4.87,0.41c-1.23,0.2-2.45,0.52-3.7,0.51c-1.25-0.01-2.57-0.43-3.31-1.44
			c-0.74-1-0.62-2.65,0.46-3.28c0.9-0.52,2.04-0.18,3.04,0.08c3.34,0.87,6.93,0.78,10.22-0.26c0.14-0.05,0.29-0.1,0.44-0.16
			c0.39-0.68,0.81-1.34,1.23-2C582.08,345.56,581.43,345.33,580.85,345.2z"/>
		<path class="st0" d="M617.6,272.37c-1.53,0.66-3.07,5.35-3.27,6.52c-0.24,1.4-0.26,2.87-0.83,4.17c-0.57,1.31-3.59,3.62-4.37,1.17
			c-0.41-1.29,1.85-4.6,2.14-6.11c0.27-1.42,1.67-6.07,0.16-7.1c-2.47-1.68-4.1,6.33-4.35,7.69c-0.23,1.23-0.33,2.49-0.76,3.65
			c-0.43,1.17-1.27,2.28-2.46,2.63c-1.19,0.36-2.71-0.31-2.93-1.54c-0.19-1.03,0.51-1.98,1.1-2.84c1.94-2.86,3.06-6.26,3.18-9.72
			c0.03-0.96-0.26-2.22-1.22-2.3c-0.68-0.06-1.21,0.56-1.57,1.14c-1.04,1.65-1.75,3.5-2.09,5.41c-0.37,2.09-0.31,4.31-1.3,6.19
			c-0.99,1.88-3.62,3.13-5.25,1.78c0.99-4.81,3.77-9.36,3.32-14.26c-0.2-2.2-2.4-3.09-3.32-0.7c-1.11,2.9-0.9,6.88-1.25,9.96
			c-0.14,1.26-0.39,2.69-1.48,3.34c-1.32,0.8-3.02-0.07-4.14-1.14c-0.67-0.64-2.05-0.15-2.11,0.83c-0.07,1.13,2.2,1.69,3.02,2.09
			c2.22,1.1,4.62,1.8,6.99,2.46c3.64,1.01,7.4,1.6,11.16,1.84c1.95,0.12,3.95,0.12,5.78-0.56c3.75-1.39,5.98-5.32,6.97-9.19
			c0.29-1.15,0.82-4.29-0.16-5.22C618.25,272.27,617.93,272.23,617.6,272.37z"/>
		<path class="st0" d="M619.91,311.81c-3.78-0.18-7.57,0.08-11.3,0.68c-1.93,0.31-3.88,0.75-5.51,1.82
			c-3.35,2.18-4.66,6.5-4.77,10.5c-0.03,1.18,0.15,4.36,1.31,5.05c0.37,0.23,0.7,0.19,0.99-0.02c1.34-0.98,1.81-5.9,1.75-7.08
			c-0.08-1.42-0.38-2.86-0.11-4.25c0.27-1.41,2.71-4.33,4-2.1c0.69,1.16-0.79,4.89-0.73,6.42c0.05,1.45-0.29,6.3,1.41,6.97
			c2.78,1.09,2.6-7.08,2.55-8.46c-0.06-1.25-0.23-2.5-0.08-3.73c0.17-1.24,0.74-2.5,1.82-3.12c1.08-0.61,2.71-0.29,3.2,0.85
			c0.4,0.96-0.07,2.04-0.44,3.02c-1.27,3.21-1.61,6.78-0.97,10.17c0.14,0.74,0.52,1.61,1.13,1.9c1.23-2.09,1.78-4.2,2.72-6.49
			c0-0.21-0.01-0.42-0.02-0.63c-0.1-2.11-0.65-4.27-0.1-6.32c0.55-2.05,2.84-3.85,4.73-2.89c0.02,0.94-0.03,1.89-0.11,2.84
			c0.44-0.48,0.93-0.97,1.47-1.47c1.05-0.99,1.94-2.04,2.7-3.15C623.68,312.02,621.79,311.91,619.91,311.81z"/>
		<path class="st0" d="M639.87,255.34c-0.33,0.27-0.72,0.46-1.17,0.53c-2.94-3.93-4.5-9.04-8.45-11.95
			c-1.78-1.31-3.91-0.25-2.73,2.02c1.44,2.75,4.56,5.24,6.62,7.54c0.85,0.94,1.75,2.08,1.51,3.33c-0.27,1.51-2.06,2.21-3.6,2.34
			c-0.92,0.08-1.47,1.44-0.78,2.12c0.8,0.8,2.71-0.52,3.57-0.86c1.91-0.77,3.67-1.8,5.4-2.91
			C640.14,256.75,640.01,256.03,639.87,255.34z"/>
		<g>
			<path class="st18" d="M571.3,301.42c-0.13,0-0.27-0.06-0.36-0.17c-0.17-0.2-0.14-0.5,0.06-0.66
				c0.14-0.12,14.02-11.61,19.64-15.18c1.79-1.14,4.21-3.41,7.03-6.04c5.97-5.58,13.39-12.52,19.56-13.1
				c8.84-0.82,18.31,1.24,18.4,1.26c0.25,0.06,0.41,0.31,0.36,0.56c-0.06,0.25-0.3,0.42-0.56,0.36c-0.09-0.02-9.42-2.04-18.12-1.24
				c-5.85,0.54-13.14,7.36-19.01,12.85c-2.84,2.66-5.3,4.96-7.16,6.14c-5.57,3.54-19.4,15-19.54,15.11
				C571.52,301.38,571.41,301.42,571.3,301.42z"/>
		</g>
		<g>
			<path class="st18" d="M513.42,289.71c-0.12,0-0.23-0.04-0.33-0.13c-0.19-0.18-0.19-0.48-0.01-0.66
				c0.2-0.21,19.91-20.71,23.92-25.95c3.95-5.16,5.84-18.59,5.86-18.72c0.03-0.26,0.28-0.42,0.53-0.4c0.26,0.03,0.44,0.27,0.4,0.53
				c-0.08,0.56-1.94,13.8-6.04,19.16c-4.04,5.28-23.17,25.18-23.99,26.03C513.67,289.67,513.55,289.71,513.42,289.71z"/>
		</g>
		<g>
			<path class="st18" d="M562.09,272.24l0.56-1.06c0.06-0.11,5.61-10.66,7-14.5c0.79-2.2,1.32-7.99,1.74-12.65
				c0.42-4.68,0.61-6.5,0.92-7.01c0.7-1.15,7.84-2.72,10.88-3.35c0.25-0.05,0.5,0.11,0.56,0.37c0.05,0.25-0.11,0.5-0.37,0.55
				c-4.57,0.94-9.79,2.32-10.27,2.92c-0.23,0.43-0.52,3.7-0.79,6.59c-0.43,4.71-0.96,10.57-1.79,12.88
				c-1.16,3.21-5.04,10.75-6.5,13.56c4.31-1.53,19.92-7.09,28.5-10.55c9.5-3.83,19.05-10.45,19.99-11.82
				c-0.75-1.45-1.53-7.78-1.96-11.63c-0.03-0.26,0.16-0.49,0.42-0.52c0.25-0.03,0.49,0.16,0.52,0.42c0.56,5.09,1.4,10.7,1.83,11.29
				c0.13,0.1,0.2,0.31,0.17,0.52c-0.24,1.56-11.45,8.92-20.62,12.62c-9.99,4.03-29.47,10.9-29.67,10.97L562.09,272.24z
				 M612.67,248.4c0.01,0.01,0.02,0.03,0.04,0.04C612.7,248.43,612.68,248.41,612.67,248.4z"/>
		</g>
		<path class="st10" d="M616.4,185.47c-1.19-2.72-3.38-4.51-5.86-6.01c-2.76-1.67-5.79-3.51-9.07-3.84
			c-3.76-0.38-7.45,1.14-10.96,2.28c-1.97,0.64-4.23,1.19-5.43,2.9c-0.19,0.01-0.35,0.13-0.36,0.35c-0.07,0.02-0.13,0.04-0.19,0.1
			c-0.39,0.32-0.8,0.61-1.23,0.88c-0.13,0.08-0.19,0.19-0.21,0.3c-3.19,2.4-7.2,7.53-8.15,11.37c-0.09,0.36,0.32,0.74,0.66,0.51
			c1.12-0.78,2.26-1.55,3.27-2.47c1.3-1.18,1.09-1.67,2.8-2.31c0.92-0.35,1.87-0.57,2.49-1.42c0.11-0.15,0.19-0.3,0.25-0.46
			c0.33,1.26,0.83,2.45,1.63,3.39c1.37,1.6,3.16,1.46,5.09,1.6c2.4,0.18,2.7,1.23,3.93,2.87c0.52,0.69,1.14,1.23,1.91,1.63
			c1.38,0.72,2.86,0.81,4.29,0.42c1.29,1.72,3.1,0.99,3.48,3.15c0.11,0.62,0.12,1.26,0.1,1.92c0.5-0.22,1.07-0.3,1.65-0.2
			c1.85,0.3,2.68,2.22,3.01,3.86c0.56,2.8-0.43,5.49-2.23,7.54c-0.07,1.04,2.96,17.96,2.96,17.96s9.48-2.91,9.65-3.29
			c1.56-3.46-6.79-6.68-5.36-10.2c1.31-3.24,1.94-6.51,2.36-9.97c0.51-4.25,1.02-8.53,1.01-12.82
			C617.9,192.19,617.75,188.56,616.4,185.47z"/>
		<g>
			<path class="st0" d="M577.78,212.54c-1.32,0-2.57-0.57-3.55-1.61c-1.01-1.08-1.61-2.55-1.68-4.13c-0.15-3.29,2.04-6.08,4.89-6.21
				c2.85-0.16,5.29,2.44,5.44,5.74l0,0c0.07,1.58-0.39,3.1-1.29,4.27c-0.92,1.19-2.2,1.88-3.59,1.95
				C577.93,212.54,577.85,212.54,577.78,212.54z M577.65,201.52c-0.06,0-0.11,0-0.17,0c-2.33,0.11-4.12,2.46-3.99,5.23
				c0.06,1.36,0.57,2.61,1.43,3.53c0.84,0.9,1.92,1.36,3.03,1.31c1.11-0.05,2.14-0.61,2.9-1.59c0.77-0.99,1.16-2.29,1.1-3.65l0,0
				C581.82,203.66,579.91,201.52,577.65,201.52z"/>
		</g>
		<g>
			<path class="st0" d="M591.75,212.54c-1.32,0-2.57-0.57-3.54-1.61c-1.01-1.08-1.61-2.55-1.68-4.13c-0.07-1.58,0.39-3.1,1.29-4.27
				c0.92-1.19,2.2-1.88,3.59-1.95c2.89-0.14,5.29,2.44,5.44,5.74c0.15,3.29-2.04,6.08-4.89,6.21
				C591.89,212.54,591.82,212.54,591.75,212.54z M591.62,201.52c-0.06,0-0.11,0-0.17,0c-1.11,0.05-2.14,0.61-2.89,1.59
				c-0.77,0.99-1.16,2.29-1.1,3.65c0.06,1.36,0.57,2.61,1.43,3.53c0.84,0.9,1.93,1.36,3.03,1.31c2.33-0.11,4.12-2.46,3.99-5.23
				C595.79,203.66,593.88,201.52,591.62,201.52z"/>
		</g>
		<g>
			<rect x="582.41" y="205.88" class="st0" width="4.57" height="0.94"/>
		</g>
		<g>
			<path class="st0" d="M596.34,206.32c-0.18,0-0.36-0.11-0.43-0.29c-0.1-0.24,0.01-0.51,0.25-0.61l10.18-4.27
				c0.24-0.1,0.51,0.01,0.61,0.25c0.1,0.24-0.01,0.51-0.25,0.61l-10.18,4.27C596.46,206.3,596.4,206.32,596.34,206.32z"/>
		</g>
	</g>
	<g>
		<path class="st19" d="M645.96,374.88c-0.02,0-0.04,0-0.07,0c-0.26-0.04-0.44-0.27-0.4-0.53c0.25-1.74,6.06-42.65,9.09-51.98
			c3.01-9.25,6.32-25.73,6.47-40.05c0.15-14,6.6-47.14,6.66-47.47c0.05-0.26,0.3-0.42,0.55-0.37c0.26,0.05,0.42,0.3,0.37,0.55
			c-0.06,0.33-6.49,33.39-6.65,47.3c-0.16,14.41-3.49,31.01-6.52,40.32c-3.01,9.25-8.99,51.39-9.05,51.82
			C646.39,374.71,646.19,374.88,645.96,374.88z"/>
	</g>
	<g>
		<path class="st19" d="M627.17,370.17c-0.02,0-0.05,0-0.07-0.01c-0.32-0.05-7.84-1.27-16.38-8.79
			c-8.48-7.48-17.28-22.04-17.37-22.18c-0.13-0.22-0.06-0.51,0.16-0.64c0.22-0.13,0.51-0.06,0.64,0.16
			c0.09,0.14,8.81,14.58,17.19,21.96c8.31,7.32,15.82,8.56,15.9,8.57c0.26,0.04,0.43,0.28,0.39,0.54
			C627.6,370.01,627.4,370.17,627.17,370.17z"/>
	</g>
	<g>
		<path class="st19" d="M624.5,355.86c-0.07,0-0.15-0.02-0.22-0.05l-22.16-11.51c-0.23-0.12-0.32-0.4-0.2-0.63
			c0.12-0.23,0.41-0.32,0.63-0.2l22.16,11.51c0.23,0.12,0.32,0.4,0.2,0.63C624.83,355.77,624.67,355.86,624.5,355.86z"/>
	</g>
	<g>
		<path class="st19" d="M640.24,249.57c-0.13,0-0.26-0.05-0.35-0.16c-0.17-0.19-0.15-0.49,0.04-0.66c0.07-0.06,7.15-6.27,13.7-9.78
			c6.39-3.42,7.71-3.58,7.89-3.58c0.26,0,0.47,0.21,0.47,0.47c0,0.26-0.21,0.47-0.47,0.47c-0.02,0-1.29,0.17-7.45,3.47
			c-6.45,3.46-13.45,9.59-13.52,9.65C640.46,249.53,640.35,249.57,640.24,249.57z"/>
	</g>
	<g>
		<path class="st10" d="M345.76,484.31v57.49c-1.57,0.05-3.14,0.09-4.7,0.13v-57.62H345.76z"/>
	</g>
	<path class="st10" d="M419.08,478.79V489c0,0-16.68,15.84-67.8,17.14c-55.18,1.41-75.47-17.14-75.47-17.14v-10.22H419.08z"/>
	<ellipse class="st20" cx="347.44" cy="478.79" rx="71.63" ry="21.13"/>
	<g>
		<path class="st10" d="M280.51,487.83v52.84c-1.57-0.11-3.13-0.24-4.7-0.39v-52.44H280.51z"/>
	</g>
	<g>
		<path class="st10" d="M419.05,487.83v48.98c-1.57,0.15-3.13,0.29-4.7,0.42v-49.41H419.05z"/>
	</g>
	<polygon class="st0" points="348.7,450.11 347.45,483.13 311.24,486.19 290.81,473.63 290.81,441.67 325.54,438.79 	"/>
	<g>
		<path class="st21" d="M311.82,484.78C311.82,484.78,311.82,484.78,311.82,484.78c-0.26,0-0.47-0.21-0.47-0.47l0.28-28.3
			c0-0.26,0.2-0.47,0.47-0.47c0.26,0,0.47,0.21,0.47,0.47l-0.28,28.3C312.29,484.57,312.08,484.78,311.82,484.78z"/>
	</g>
	<path class="st9" d="M343.59,463.62c-0.08-0.33-0.55-0.48-0.78-0.21c-2.39,2.74-7.18,7.47-7.03,8.13c0.16,0.67,3.09,1.05,4.14,1.29
		c1.75,0.4,3.51,0.81,5.26,1.21c0.37,0.08,0.64-0.22,0.58-0.58C345.15,470.16,344.43,466.88,343.59,463.62z M337.32,471.14
		c1.86-2.13,3.72-4.27,5.57-6.4c0.69,2.72,1.29,5.47,1.8,8.23c-1.16-0.27-2.32-0.53-3.48-0.8
		C340.22,471.95,338.16,471.84,337.32,471.14z"/>
	<path class="st9" d="M306.09,466.3c0.03-0.34-0.37-0.63-0.67-0.45c-3.15,1.82-9.21,4.74-9.27,5.42c-0.07,0.68,2.58,1.99,3.49,2.56
		c1.53,0.95,3.05,1.9,4.58,2.84c0.32,0.2,0.68,0,0.73-0.36C305.45,472.99,305.84,469.66,306.09,466.3z M297.73,471.38
		c2.45-1.42,4.89-2.83,7.34-4.25c-0.23,2.8-0.55,5.59-0.96,8.37c-1.01-0.63-2.02-1.26-3.03-1.88
		C300.22,473.09,298.3,472.32,297.73,471.38z"/>
	<path class="st9" d="M323.13,447.66c-0.33-0.05-0.66,0.31-0.5,0.64c1.56,3.29,3.98,9.57,4.65,9.69s2.2-2.42,2.83-3.28
		c1.07-1.45,2.14-2.89,3.21-4.34c0.23-0.3,0.05-0.68-0.3-0.76C329.75,448.83,326.46,448.18,323.13,447.66z M327.52,456.41
		c-1.21-2.55-2.43-5.11-3.64-7.66c2.77,0.46,5.53,1,8.27,1.63c-0.71,0.96-1.42,1.91-2.12,2.87
		C329.42,454.07,328.5,455.92,327.52,456.41z"/>
	<path class="st9" d="M298.27,448.67c-2.47-0.59-4.96-1.1-7.46-1.54v0.97c2.21,0.39,4.41,0.84,6.58,1.34
		c-0.7,0.96-1.41,1.92-2.12,2.87c-0.6,0.82-1.52,2.67-2.5,3.16c-0.66-1.38-1.32-2.75-1.96-4.13V454c0.77,1.71,1.42,3.01,1.72,3.05
		c0.68,0.12,2.2-2.41,2.84-3.28c1.07-1.45,2.13-2.89,3.2-4.34C298.79,449.13,298.62,448.76,298.27,448.67z"/>
	<path class="st9" d="M325.22,477.39c0.29-0.17,0.3-0.66-0.02-0.81c-3.3-1.53-9.17-4.81-9.77-4.48c-0.6,0.34-0.14,3.26-0.08,4.33
		c0.1,1.8,0.21,3.59,0.31,5.39c0.02,0.38,0.39,0.55,0.72,0.39C319.38,480.72,322.33,479.11,325.22,477.39z M316.25,473.46
		c2.57,1.19,5.13,2.38,7.7,3.57c-2.42,1.42-4.89,2.77-7.4,4.03c-0.07-1.19-0.14-2.38-0.2-3.57
		C316.28,476.48,315.81,474.47,316.25,473.46z"/>
	<polygon class="st2" points="294.8,443.21 311.96,454.04 345.76,451.55 323.8,441.1 	"/>
	<path class="st0" d="M655.47,418.56c0,0,14,8.27,29.33,16.86c-5.43,12.92-12.31,25.05-21.01,35.82
		c-4.15,5.14-8.73,9.98-13.76,14.43c-5.73,5.07-11.83,9.5-18.23,13.35c-0.31,0.2-0.63,0.38-0.94,0.56
		c-11.47,6.78-23.9,11.81-36.9,15.61c-0.31,0.09-0.62,0.19-0.94,0.27c-11.93,3.44-24.33,5.87-36.9,7.73
		c-0.31,0.05-0.63,0.09-0.94,0.14c-12.24,1.78-24.63,3.02-36.9,4.1c-0.31,0.03-0.62,0.06-0.94,0.08
		c-5.23,0.47-10.44,0.91-15.61,1.35c-3.45,0.3-6.89,0.6-10.34,0.92c-3.44,0.31-6.89,0.64-10.33,0.97c-0.21,0.02-0.4,0.04-0.61,0.06
		c-0.31,0.03-0.63,0.06-0.94,0.09c-1.9,0.18-3.8,0.36-5.71,0.54v-92.66L655.47,418.56z"/>
	<path class="st20" d="M723.99,454.04c0,0.06-0.01,0.11-0.03,0.16C723.98,454,723.99,453.94,723.99,454.04z"/>
	<g>
		<path class="st21" d="M547.34,482.76l-0.14-0.08l-72.05-41.17c-0.23-0.13-0.3-0.42-0.18-0.64c0.13-0.23,0.42-0.3,0.64-0.18
			l71.91,41.09l117.79-16.38c0.25-0.03,0.49,0.14,0.53,0.4c0.04,0.26-0.14,0.49-0.4,0.53L547.34,482.76z"/>
	</g>
	<g>
		<path class="st21" d="M547.43,522.35c-0.26,0-0.47-0.21-0.47-0.47v-37.57c0-0.26,0.21-0.47,0.47-0.47c0.26,0,0.47,0.21,0.47,0.47
			v37.57C547.9,522.14,547.69,522.35,547.43,522.35z"/>
	</g>
	<g>
		<path class="st21" d="M548.64,511.64c-0.23,0-0.43-0.17-0.46-0.41c-0.04-0.26,0.14-0.49,0.4-0.53l78.91-10.89
			c0.25-0.04,0.49,0.14,0.53,0.4c0.04,0.26-0.14,0.49-0.4,0.53l-78.91,10.89C548.68,511.64,548.66,511.64,548.64,511.64z"/>
	</g>
	<g>
		<path class="st21" d="M606.26,483.27c-0.65,0-1.28-0.21-1.8-0.61c-0.63-0.48-1.03-1.18-1.14-1.97c-0.1-0.79,0.1-1.57,0.59-2.2
			c0.48-0.63,1.18-1.03,1.97-1.14l24.49-3.24c1.63-0.21,3.12,0.94,3.34,2.56c0.21,1.63-0.93,3.12-2.56,3.34l-24.49,3.24
			C606.52,483.26,606.39,483.27,606.26,483.27z M630.76,475.02c-0.09,0-0.18,0.01-0.27,0.02L606,478.28
			c-0.54,0.07-1.02,0.35-1.35,0.78c-0.33,0.43-0.47,0.97-0.4,1.51c0.07,0.54,0.35,1.02,0.78,1.35c0.43,0.33,0.96,0.48,1.51,0.4
			l24.49-3.24c0.54-0.07,1.02-0.35,1.35-0.78c0.33-0.43,0.47-0.96,0.4-1.5C632.64,475.77,631.77,475.02,630.76,475.02z
			 M631.09,479.54L631.09,479.54L631.09,479.54z"/>
	</g>
	<g>
		<path class="st22" d="M613.78,433.7v0.03c0,1.23,0.82,1.97,2.19,2.34l29.98,9.21c0.49,0.03,0.99-0.09,1.4-0.35l8.45-5.31
			c0.68-0.43,1.1-1.18,1.1-1.98v-0.73L613.78,433.7z"/>
		<path class="st13" d="M613.78,433.7l12.47-5.84c0.36-0.17,0.76-0.24,1.16-0.22l29.49,9.27l-10.83,6.66L613.78,433.7z"/>
		<polygon class="st0" points="618.71,433.92 628.69,429.04 654.91,437.05 646.08,442.3 		"/>
	</g>
	<g>
		<path class="st23" d="M575.5,444.75c-0.83-1.34-2.51-2.45-4.45-3.4c-3.69-1.8-7.62-3.91-9.67-7.64
			c-1.78-3.23-2.19-7.13-2.35-10.76c-0.19-4.3,0.28-8.6,0.99-12.83c0.05-0.27,0.03-0.57-0.07-0.83c-0.88-2.35-14.07-2.35-15.03,0.59
			c-0.37,1.13,0.49,2.61,0.74,3.75c0.51,2.35,0.93,4.73,1.07,7.14c0.27,4.58,0,9.21-1.93,13.34c-1.52,3.27-5.41,5.85-8.14,8.13
			c-1.73,1.45-4.11,3.14-4.45,5.58c-0.47,3.37,4.04,6.93,6.32,8.8c5.05,4.13,8.14,7.02,16.75,6.85c6.83-0.14,11.64-4.12,17.77-11.17
			C575.08,449.96,576.46,446.29,575.5,444.75z"/>
		<path class="st22" d="M559.06,409.74c0.01,0.26-0.31,0.52-0.85,0.73c-0.28,0.12-0.63,0.23-1.02,0.33
			c-0.86,0.22-1.97,0.39-3.21,0.48c-0.31,0.02-0.62,0.04-0.95,0.05c-0.13,0.01-0.26,0.02-0.39,0.02c-0.49,0.01-0.97,0.01-1.42,0
			c-0.33-0.01-0.64-0.02-0.94-0.04c-0.66-0.04-1.26-0.1-1.79-0.2c-0.39-0.06-0.73-0.12-1.03-0.21c-0.83-0.22-1.31-0.51-1.32-0.84
			c-0.01-0.25,0.28-0.5,0.8-0.71c0.24-0.1,0.54-0.21,0.87-0.29c0.61-0.17,1.36-0.31,2.21-0.4c0.3-0.05,0.61-0.08,0.93-0.1
			c0.52-0.04,1.06-0.08,1.63-0.08c0.27-0.01,0.54-0.01,0.8-0.01c0.33,0,0.64,0.01,0.95,0.02c1.3,0.05,2.43,0.18,3.27,0.39
			c0.36,0.08,0.67,0.19,0.9,0.29C558.85,409.32,559.05,409.52,559.06,409.74z"/>
		<g>
			<path class="st24" d="M565.5,375.99c0.1-1,0.23-1.64-0.6-2.28c-0.14-0.11-0.33-0.07-0.47,0c-1.8,0.85-1.9,4.9-2.27,6.59
				c-0.34,1.58-0.62,3.18-0.79,4.78c-0.17,1.58,0,3.11-0.05,4.64c-0.01,0.2-0.05,0.39-0.09,0.59c-0.74,3.51-0.74,4.01-1.45,7.53
				c-0.37,1.84-0.74,3.67-1.11,5.51c-0.35,1.72-1.11,3.76-1.11,5.51c-0.12,0.65-0.25,1.29-0.39,1.93c0.39-0.09,0.74-0.21,1.02-0.33
				l0.26-1.32c1.17-5.8,1.66-8.59,2.82-14.39c0.25-1.27,0.37-2.58,0.82-3.8c0.48-1.33,1.3-2.39,1.66-3.79
				c0.5-1.9,1.18-3.71,1.7-5.59C565.96,379.81,565.32,377.82,565.5,375.99z"/>
			<path class="st24" d="M547.79,409.06c-1.47-4.33-3.02-8.64-4.65-12.91c-0.43-4.55-1.87-16.33-5.43-14.43
				c-2.4,1.28-0.49,5.57,0.04,7.15c0.58,1.72,0.73,3.58,1.59,5.2c0.67,1.26,1.89,2.12,2.75,3.24c0.37,0.47,0.51,1.07,0.76,1.6
				c0.26,0.56,0.66,0.91,0.98,1.4c0.73,1.11,0.82,2.58,1.26,3.81c0.62,1.74,1.23,3.48,1.82,5.23c0.18,0.52,0.36,1.03,0.53,1.55
				c0.3,0.08,0.65,0.15,1.03,0.21C548.25,410.42,548.02,409.74,547.79,409.06z"/>
			<path class="st24" d="M550.93,408.55c-0.34-3.28-0.39-6.61-1.03-9.86c-0.61-3.15,0.59-6.2,0.57-9.36
				c-0.01-1.39-0.3-2.75-0.77-4.06c-0.51-1.43-1.61-4.88-3.09-1.86c-0.83,1.69-0.99,4.13-0.49,5.95c0.23,0.84,0.83,1.48,1.04,2.34
				c0.23,0.93,0.07,1.96,0.16,2.91c0.14,1.41,0.75,2.99,1.57,4.19c0.4,3.28,0.78,6.56,1.12,9.84c0.1,0.88,0.2,1.77,0.27,2.65
				c0.3,0.02,0.61,0.03,0.94,0.04C551.13,410.41,551.03,409.48,550.93,408.55z"/>
			<path class="st24" d="M557.15,374.03c-1.91-0.35-1.82,3.85-1.82,4.91c0,2.01-0.3,3.9-0.45,5.89c-0.08,1.15,0.29,2.23,0.38,3.36
				c0.15,1.9-0.16,3.98-0.37,5.88c-0.17,1.6-0.32,3.2-0.49,4.8c-0.33,3.2-0.71,6.4-1.05,9.6c-0.1,0.96-0.22,1.91-0.33,2.86
				c0.33-0.01,0.64-0.03,0.95-0.05c0.11-0.93,0.23-1.87,0.33-2.8c0.72-6.26,1.2-12.57,2.11-18.79c0.46-3.14,1.86-6.06,2.25-9.23
				C558.83,379.13,559.35,374.43,557.15,374.03z"/>
		</g>
	</g>
	<path class="st25" d="M300.18,412.36c-1.6-2.72-5.28-3.1-8.09-3.24c-2.23-0.11-4.5-0.05-6.64-0.74c-2.76-0.88-4.13-2.75-5.08-5.37
		c-0.99-2.72-1.89-5.45-4.84-6.55c-3.63-1.35-7.55,0.69-11.11-0.45c-2.04-0.65-3.77-2.43-5.65-3.43c-1.53-0.82-3.19-1.47-4.93-1.62
		c-4.07-0.34-7.16,2.66-10.9,3.68c-3.9,1.05-8.14,0.72-11.77,2.73c-2.69,1.49-4.35,4.17-4.22,7.29c0.38,8.67,13.2,7.68,13.59,16.48
		c0.15,3.38,0.12,5.93,3.1,8.11c1.44,1.05,3.12,1.66,4.82,2.14c1.05,0.3,2.13,0.53,3.18,0.81c0.51,0.14,1.08,0.27,1.58,0.46
		c1.72,0.69,2.18,1.38,2.66,3.01c0.98,3.31,1.27,6.74,4.2,9.05c1.21,0.95,3.12,0.64,4.48,1.25c2.4,1.08,1.33,1.74,2.13,3.9
		c2.51,6.83,11.68,0.82,15.22-1.73C290.17,442.17,307.07,424.05,300.18,412.36z"/>
	<path class="st25" d="M295.28,473.54c-0.73-0.7-1.46-1.37-2.12-2.02c-7.15-7.03-15.88-16.03-26.9-14.78
		c-2.36,0.27-5.05,1.08-5.97,3.52c-0.82,2.16,0.06,4.54,0.61,6.65c0.56,2.18,0.79,4.15-0.88,5.92c-1.08,1.14-2.47,1.95-3.6,3.05
		c-1.88,1.83-3.19,4.23-3.81,6.77c-0.31,1.27-0.45,2.6-0.39,3.9c0.08,1.83,1.01,3.84,0.57,5.64c-0.36,1.46-1.56,2.74-2.2,4.1
		c-0.66,1.41-1.14,2.91-1.41,4.45c-0.76,4.46,0.2,11.27,6.02,11.26c2.87-0.01,5.3-1.62,7.61-3.14c1.51-0.99,3.05-2,4.81-2.47
		c2.02-0.54,4.15-0.34,6.2-0.69c2.41-0.41,4.16-1.64,5.29-3.8c1.11-2.13,1.46-4.68,2.94-6.61c2.18-2.85,5.83-1.45,8.65-2.9
		c2.39-1.23,1.66-4.26,3.63-5.62c1.49-1.03,3.46-0.04,4.86-1.4c0.68-0.66,1.04-1.64,1.11-2.57
		C300.61,479.03,297.93,476.08,295.28,473.54z"/>
	<path class="st25" d="M309,382.46c-0.71,1.62-0.8,3.41-1.65,4.99c-1.54,2.9-4.74,4.31-5.41,7.65c-0.7,3.49,1.15,7.5,3.02,10.31
		c1.13,1.69,2.51,3.52,2.18,5.53c-0.28,1.75-2.07,3.4-1.68,5.25c0.37,1.75,2.71,2.71,3.7,4.07c2.55,3.49-1.85,8.41,1.84,11.85
		c2.03,1.9,4.95,1.99,7.56,1.7c7.5-0.85,16.03-1.38,22.88-4.8c3.14-1.57,3.45-4.26,3.09-7.51c-0.36-3.25-1.59-6.4-3.53-9.04
		c-0.72-0.98-1.78-1.88-2.03-3.12c-0.17-0.82,0.02-1.7,0.03-2.54c0-1.14-0.21-2.25-0.63-3.31c-1.1-2.82-3.38-4.77-5.9-6.3
		c-1.71-1.04-3.57-2-4.83-3.6c-1.23-1.58-1.28-3.34-1.58-5.23c-0.43-2.67-1.79-5.08-3.86-6.84
		C318.66,378.51,311.32,377.21,309,382.46z"/>
	<path class="st25" d="M390.47,473.75c-2.72-1.99-5.19-3.66-5.85-7.21c-0.52-2.79-0.24-5.79-2.03-8.2
		c-1.97-2.65-5.47-3.48-7.62-5.93c-1.4-1.6-2.1-3.7-3.13-5.53c-0.85-1.5-1.84-2.92-2.95-4.24c-2.1-2.49-4.64-4.37-7.8-5.22
		c-13.59-3.68-23.94,16.5-25.24,27.33c-0.78,6.46,4.92,7.35,10.03,7.57c2,0.09,4,0.17,6,0.26c2.31,0.1,4.78,0.07,6.3,2.12
		c1.57,2.12,2,4.28,4.62,5.44c2.63,1.17,5.31,0.73,8.08,0.78c2.55,0.05,3.14,1.51,4.53,3.3c0.72,0.92,1.65,1.65,2.67,2.21
		c4.36,2.36,11.5,2.36,14.95-1.6C396.63,480.72,394.23,476.5,390.47,473.75z"/>
	<path class="st26" d="M327.09,421.63c-1.47-5.67-4.24-10.88-6.06-16.43c-1.92-5.85-2.82-11.96-2.82-18.11c0-0.6-0.94-0.61-0.94,0
		c0,5.51,0.71,11,2.22,16.3c1.65,5.76,4.48,11.08,6.22,16.8c1.74,5.75,2.37,12.27-0.59,17.75c-1.68,3.11-4.73,5.37-6.13,8.54
		c-1.17-4.37-7.58-7.18-11.2-8.64c-3.55-1.43-7.35-1.99-10.96-3.25c-3.64-1.28-7.02-3.23-10.13-5.51
		c-6.22-4.56-10.97-10.85-17.47-15.04c-5.79-3.73-12.43-5.86-19.28-6.38c-0.6-0.05-0.6,0.89,0,0.94c6.82,0.51,13.42,2.69,19.13,6.46
		c5.87,3.87,10.28,9.49,15.8,13.81c4.71,3.68,9.82,6.27,15.6,7.76c3.42,0.89,6.74,1.79,9.9,3.43c3.21,1.66,8.75,4.47,7.74,8.86
		c-0.12,0.5,0.52,0.75,0.8,0.45c0.16-0.06,0.3-0.2,0.33-0.41c0.56-4.87,5.78-7.9,7.54-12.38
		C328.66,431.8,328.36,426.52,327.09,421.63z"/>
	<path class="st26" d="M317.38,448.94c-3.86-4.13-9.9-3.92-14.65-1.54c-6.09,3.06-11.23,8.72-15.36,14.02
		c-4.55,5.84-7.42,12.72-12.58,18.08c-2.46,2.56-5.13,4.91-7.56,7.51c-2.06,2.21-4.07,4.51-4.4,7.62c-0.06,0.6,0.88,0.6,0.94,0
		c0.39-3.65,3.58-6.48,6.05-8.94c2.14-2.13,4.38-4.17,6.44-6.39c4-4.31,6.37-9.61,9.7-14.4c3.58-5.15,7.92-9.94,12.86-13.83
		c5-3.94,12.78-6.95,17.9-1.47C317.13,450.05,317.8,449.38,317.38,448.94z"/>
	<path class="st26" d="M368.83,465c-4.06-2.07-5.8-6.53-9.13-9.43c-3.44-3-7.96-5.02-12.1-6.84c-8.15-3.58-17.72-5.33-25.75-0.49
		c-0.52,0.31-0.05,1.12,0.47,0.81c8.82-5.32,19.21-2.33,27.8,1.89c3.82,1.87,7.85,3.8,10.68,7.07c2.41,2.78,4.17,6.07,7.56,7.8
		C368.89,466.08,369.37,465.27,368.83,465z"/>
</g>
</svg>
