<?xml version="1.0" encoding="utf-8"?>
<!-- Generator: Adobe Illustrator 24.1.3, SVG Export Plug-In . SVG Version: 6.00 Build 0)  -->
<svg version="1.1" id="레이어_1" xmlns="http://www.w3.org/2000/svg" xmlns:xlink="http://www.w3.org/1999/xlink" x="0px"
	 y="0px" viewBox="0 0 841.89 595.28" style="enable-background:new 0 0 841.89 595.28;" xml:space="preserve">
<style type="text/css">
	.st0{fill:#FFFFFF;}
	.st1{fill:#EE9481;}
	.st2{fill:#76A7D0;}
	.st3{fill:#1F2043;}
	.st4{fill:#F3E3D4;}
	.st5{fill:#994C4B;}
	.st6{fill:#434884;}
	.st7{fill:#D2715C;}
	.st8{fill:#D9C4B5;}
</style>
<path class="st0" d="M2882.17-232.04"/>
<g>
	<path class="st1" d="M456.38,498.66c-1.58-1.53-0.72-1.26-3-1.69c-0.33-0.06-0.68-0.03-1.02,0.07c-0.72-0.95-1.99-1.4-3.18-0.42
		c-9.62,7.95-20.28,14.56-29.6,22.88c-1.19,1.06-1.42,2.74-0.14,3.87c2.34,2.07,1.83,1.24,4.48,2.87c0.7,0.43,5.38-1.36,6.01-1.82
		c5.13-3.71,22.08-16.75,26.88-20.97C458.05,502.34,457.6,499.83,456.38,498.66z"/>
	<path class="st2" d="M152.74,273.91c-6.66,34.19,15.98,65.47,38.46,88.62c28.82,29.68,59.68,52.81,96.13,72.34
		c2.99,1.6,5.14-2.71,4.87-2.86c8.64-41.88,12.28-86.87-3.05-127.7c-11.89-31.66-35.75-61.14-68.55-72.37
		c-15.72-5.39-32.82-4.89-46.42,5.38C162.6,246.08,155.47,259.85,152.74,273.91z"/>
	<path class="st2" d="M334.15,279.89c-21.54,18.73-22.7,50.35-19.85,76.65c3.64,33.71,11.91,64.22,25.61,95.22
		c1.12,2.54,4.69,0.84,4.59,0.61c26.7-22.7,51.75-49.92,62.43-84.03c8.29-26.45,7.74-57.52-7.78-81.32
		c-7.44-11.41-18.73-19.71-32.7-19.94C354.55,266.88,343,272.19,334.15,279.89z"/>
	<path class="st2" d="M128.1,403.84c-5.97,10.14-4.96,21.91-0.02,32.27c10.31,21.62,32.42,35.65,55.08,41.3
		c29.23,7.29,59.8,1.23,87.85-8.02c0.12,0.17,2.91-1.65,1.58-3.57c-16.28-23.46-34.6-42.81-57.24-60.23
		c-17.67-13.59-40.92-26.65-63.85-19.37C142.07,389.22,133.19,395.2,128.1,403.84z"/>
	<path class="st3" d="M183.71,243.03c15.41,20.85,29.89,42.38,43.38,64.52c13.59,22.29,26.19,45.19,37.74,68.6
		c11.52,23.34,22,47.2,31.41,71.47c9.37,24.17,17.67,48.76,24.86,73.66c0.71,2.44,1.39,4.89,2.08,7.34c0.27,0.02,0.54,0.04,0.8,0.07
		c-1.52-5.46-3.09-10.9-4.71-16.33c-7.51-25.04-16.14-49.74-25.85-74c-9.61-24-20.27-47.57-31.95-70.63
		c-11.81-23.32-24.65-46.12-38.48-68.3c-13.84-22.18-28.67-43.73-44.44-64.58c-0.29-0.39-0.93,0.03-0.63,0.42
		C179.86,237.85,181.8,240.44,183.71,243.03z"/>
	<path class="st3" d="M297.08,518.51c0.05,0.32,0.09,0.64,0.13,0.96c24.19-22.39,41.26-51.65,51.22-82.95
		c12.52-39.34,14.48-81.23,12.09-122.19c-0.03-0.49-0.79-0.49-0.76-0.01c1.33,22.77,1.31,45.66-1.1,68.36
		c-4.02,37.79-14.96,75.25-36.64,106.8C314.79,500.01,306.43,509.81,297.08,518.51z"/>
	<path class="st3" d="M355.18,487.91c-27.63-3.84-55.48-2.02-83.19-0.04c-0.75-0.04-1.69,0.44-1.45,1.9
		c1.66,12.87,5.17,26.56,11.91,37.74c2.77,4.59,6.96,6.82,12.15,7.71c5.75,0.98,31.42,1.18,37.82,0.09
		c5.2-0.88,9.38-3.12,12.15-7.71c6.91-11.45,10.43-25.54,12.03-38.68C356.73,488.01,356.13,488.06,355.18,487.91z"/>
	<path class="st3" d="M130.64,409.31c27.23,7.47,54.54,14.96,80.73,25.6c25.27,10.26,49.35,23.42,71.65,39.12
		c12.45,8.76,24.32,18.31,35.57,28.57c0.36,0.33-0.2,0.84-0.56,0.51c-20.11-18.34-42.27-34.38-65.98-47.73
		c-24.12-13.58-49.7-23.94-76.07-32.23c-15.08-4.74-30.33-8.93-45.57-13.11C129.94,409.9,130.17,409.18,130.64,409.31z"/>
	<path class="st1" d="M544.83,250.05c-1.41-1.73-2.61-3.6-3.65-5.56c0.84-1.4,1.69-6.15,1.85-9.5c0.02-0.49-7.46-4-10.77-3.37
		c-1.65,0.31-3.33,0.6-4.94,1.07c-0.66,0.19-1.34,0.34-1.83,0.87c-1.52,1.65-4.58,3.63-4.09,5.42c0.74,2.72,5.73,7.13,7.26,9.54
		c0.68,1.07,1.72,2,2.94,2.25c1.73,1.24,2.92,3.11,4.35,4.68c1.62,1.78,3.42,3.37,5.35,4.82c0.12,0.09,0.35,0.1,0.46-0.02
		c1.39-1.5,3.24-2.55,4.7-4.01c0.67-0.67,1.7-1.39,1.46-2.42C547.62,252.51,545.65,251.05,544.83,250.05z"/>
	<path class="st4" d="M629.33,206.01c1.63-3.16,3.13-6.36,4.49-9.62c0.38-0.9-1.09-1.29-1.46-0.4
		c-7.78,18.63-20.16,35.94-36.26,48.29c-15.18,11.65-38.42,18.12-53.65,2.79c-0.31-0.31-0.76-0.27-1.07,0
		c-4.11,3.5-7.95,7.26-11.54,11.3c-0.21,0.24-0.32,0.64-0.12,0.92c13.16,19.02,39.84,24.13,61.35,19.48
		c10.67-2.31,20.73-7.18,29.24-14.02c4.27-3.43,8.37-7.36,11.39-11.96c3.17-4.83,4.92-10.48,6.26-16.06
		C640.71,225.24,638.61,213.84,629.33,206.01z"/>
	<path class="st1" d="M460.52,487.85c-1.37-1.72-0.55-1.34-2.75-2.07c-0.32-0.11-0.67-0.12-1.02-0.07c-0.59-1.03-1.79-1.65-3.1-0.83
		c-10.57,6.63-22,11.79-32.33,18.82c-1.32,0.9-1.77,2.53-0.65,3.82c2.05,2.35,1.65,1.47,4.07,3.43c0.64,0.52,5.51-0.65,6.19-1.02
		c5.57-3.01,24.07-13.73,29.39-17.28C461.7,491.72,461.58,489.17,460.52,487.85z"/>
	<path class="st5" d="M540.69,211.11c-6.5-0.14-12.38,0-18.56,0.12c-0.99,0.02-1.37,0.54-1.21,2.59c0.58,7.1,1.38,14.18,2.44,21.22
		c0.31,2.03,0.13,5.86,1.67,7.43c1.65,1.67,5.64,0.84,7.67,0.84c1.44,0,4.38,0.69,5.49-0.62c0.54-0.65,0.48-1.67,0.56-2.45
		c0.19-1.88,0.38-3.77,0.56-5.65c0.75-7.53,1.5-15.06,2.25-22.59C541.62,211.51,541.13,211.12,540.69,211.11z"/>
	<path class="st3" d="M426.2,530.85c5.14-4.71,5.79-5.38,5.37-6.39c-1.14-2.77-4.71-8.14-6.28-10.98c-0.78-1.21-1.84-1.19-2.22-0.9
		c-3.01,2.24-3.51,1.23-7.71-1.64c-3.58-2.45-6.83-4.91-11.43-9.43c-4.1-4.02-3.05-3.97-6.16-2.29c-2.23,1.2,0.88,5.96,3.34,9.85
		c0.39,0.61,0.77,1.23,1.14,1.84c1.13,1.85,2.55,3.51,4.2,4.93c0.3,0.26,0.6,0.52,0.9,0.77c2.76,2.35,4.56,4.88,6.25,8.08
		c0.08,0.15,0.08,0.4-0.07,0.52c-0.3,0.24-0.47,0.35-0.78,0.58c-0.54,0.4-0.68,1.16-0.33,1.73c0.77,1.27,1.55,2.54,2.35,3.81
		c1.51,2.39,2.85,4.7,3.68,4.73c0.92,0.03,0.95-0.23,1.64-0.63C421.96,534.33,424.41,532.49,426.2,530.85z"/>
	<path class="st6" d="M582.39,371.72c-43.33,34.69-86.68,69.42-131.94,101.59c-3.18,2.26-6.37,4.51-9.57,6.75
		c-1.81,1.26-4.6,2.5-5.67,4.54c-1.18,2.23,0.09,4.95,0.69,7.19c1.01,3.82,2.02,7.63,3.04,11.45c0.24,0.91,1.04,1.19,1.75,1.03
		c-0.97,1.03-0.18,3.13,1.4,2.53c12.57-4.79,24.4-11.16,36.04-17.86c11.23-6.46,22.3-13,32.23-21.38
		c19.86-16.76,37.7-36.96,53.44-57.58c8.63-11.31,16.21-23.39,21.14-36.79C585.5,371.61,583.43,370.88,582.39,371.72z"/>
	<path class="st6" d="M415.1,510.81c0.28-0.4-0.38-0.78-0.66-0.38c-0.64,0.92-1.27,1.85-1.88,2.8c-0.26,0.41,0.39,0.79,0.66,0.38
		C413.83,512.66,414.45,511.73,415.1,510.81z M418.08,512.83c0.19-0.44-0.46-0.83-0.66-0.38c-0.47,1.08-1.01,2.11-1.62,3.11
		c-0.26,0.42,0.4,0.79,0.66,0.38C417.07,514.94,417.62,513.9,418.08,512.83z M420.81,517.2c0.18-1.16,0.28-2.32,0.3-3.5
		c0.01-0.48-0.75-0.58-0.75-0.09c-0.02,1.17-0.12,2.34-0.3,3.5C419.98,517.59,420.73,517.69,420.81,517.2z"/>
	<path class="st6" d="M420.08,535.44c0.55-0.32,1.16-0.72,1.78-1.15c-2.29-2.69-3.86-5.82-5.49-8.93c-1.61-3.07-3.44-5.9-5.65-8.57
		c-4.69-5.67-8.79-11.49-11.92-18.14c-0.29,0.16-0.62,0.35-1.03,0.57c-2.23,1.2,0.88,5.96,3.34,9.85c0.39,0.61,0.77,1.23,1.14,1.84
		c1.13,1.85,2.55,3.51,4.2,4.93c0.3,0.26,0.6,0.52,0.9,0.77c2.76,2.35,4.56,4.88,6.25,8.08c0.08,0.15,0.08,0.4-0.07,0.52
		c-0.3,0.24-0.47,0.35-0.78,0.58c-0.54,0.4-0.68,1.16-0.33,1.73c0.77,1.27,1.55,2.54,2.35,3.81c1.51,2.39,2.85,4.7,3.68,4.73
		C419.37,536.1,419.39,535.85,420.08,535.44z"/>
	<path class="st3" d="M627.24,115.11c-2.06,0.41-3.9,0.97-6.05,0.74c-2.15-0.23-4.22-1.05-6.3-1.57c-2.92-0.73-5.89-1.09-8.9-1.02
		c-4.66,0.1-7.6,1.42-10.4,3.99c1.22,1.66,2.22,3.56,3.21,5.2c1.21,2,2.73,4.53,3.28,7.08c0.8-0.07,1.64-0.07,2.56,0.02
		c3.37,0.34,6.64,1.32,10,1.7c3.23,0.36,6.44,0.11,9.66-0.28c3.9-0.47,7.85-1.24,11.8-0.89c4.09,0.36,7.66,2.03,11.29,3.81
		c0.7,0.34,1.25-0.1,1.42-0.68c0.61,0.59,1.88,0.43,1.95-0.66C651.5,120.8,637.76,113.01,627.24,115.11z"/>
	<path class="st6" d="M662.62,343.32c-0.6-5.97-11.46-5.62-15.99-6.07c-15.23-1.52-30.52-2.52-45.82-3.02
		c0.37-2.36,0.65-4.75,0.83-7.16c0.18-2.43-5.93-2.24-6.11,0.17c-1.17,15.5,0.43,27.9-1.8,30.59c-9.62,11.58-31.6,34.82-42.54,45.06
		c-23.74,22.22-47.95,43.93-72.63,65.11c-14.24,12.22-28.64,24.26-43.17,36.13c-1,0.82-1.13,2.03-0.24,3
		c8.35,9.08,11.66,13.94,21.57,21.28c0.79,0.59,1.98,0.72,2.68-0.13c3.92-4.78,30.37-13.29,35.52-15.98
		c9.15-4.78,14.17-13.46,19.62-21.82c3.07-4.71,6.44-9.29,11.05-12.61c4.75-3.42,10.28-5.49,15.62-7.78
		c4.72-2.03,9.44-4.22,13.47-7.46c4.12-3.31,7.38-7.44,10.61-11.58c3.37-4.31,6.78-8.75,11.27-11.97c5.1-3.65,11.19-5.46,16.92-7.85
		c5.01-2.09,9.51-4.7,13.6-8.28c4.31-3.77,8.18-8.08,13.1-11.1c9.17-5.64,22.83-8.69,29.47-17.97c6.35-8.89,9.23-19.22,10.78-29.73
		c0.57-3.84,1.06-7.68,1.48-11.54C662.23,349.61,662.93,346.34,662.62,343.32z"/>
	<path class="st1" d="M642.65,137.8c-5.73-8.68-17.17-15.67-28.15-15.95c-0.31,0.35-0.71,0.63-1.25,0.79
		c-4.52,1.32-9.3,1.6-13.65,3.5c-0.6,0.26-1.2,0.26-1.73,0.09c-5.91,7.83-5.3,21.54-6.61,33.61c-0.49,4.51-0.71,16.21,1.07,20.3
		c2.31,5.3,11.36,6.17,16.31,5c13.12-3.09,24.89-9.97,32.3-21.34C647.79,153.31,649.69,148.46,642.65,137.8z"/>
	<path class="st1" d="M642.45,195.47l-4.85-39.44c-0.31-1.48-4.46,4.72-5.51,5.88c-5.38,5.87-12.68,8.39-20.08,10.75
		c-0.23,0.07-0.41,0.18-0.59,0.29c-1.06,0.22-2.01,1.14-1.72,2.51c1.83,8.69,4.49,25.49,8.21,33.63c0.97,2.11,0.78-1.33,3.31-0.81
		c1.71,0.35,4.55-0.54,6.3-0.75c2.24-0.27,4.48-0.54,6.72-0.81c2.45-0.29,7.51,0.16,9.14-2.2
		C644.98,202.22,642.93,197.74,642.45,195.47z"/>
	<path class="st3" d="M598.49,151.21c-0.14,1.41-0.92,2.48-1.75,2.4c-0.83-0.08-1.39-1.28-1.25-2.69c0.14-1.41,0.92-2.48,1.75-2.4
		S598.62,149.81,598.49,151.21z"/>
	<path class="st3" d="M626.23,340.61c0.05-0.48-0.71-0.48-0.76,0c-1.05,9.46-3.97,18.66-8.63,26.96
		c-4.39,7.81-10.33,14.56-16.96,20.54c-13.15,11.88-28.49,21.02-41.67,32.87c-13.93,12.52-26.51,26.37-41.05,38.23
		c-13.4,10.93-27.57,20.86-41.15,31.56c-10.83,8.53-21.29,17.62-30.46,27.89c0.17,0.18,0.34,0.36,0.52,0.53
		c19.68-22.11,45.2-38.37,68.26-56.75c6.99-5.57,13.75-11.39,20.21-17.57c7.18-6.86,14.08-14.01,21.36-20.77
		c6.93-6.43,14.31-12.23,21.92-17.83c6.87-5.05,13.82-10.03,20.28-15.6c7.26-6.25,13.86-13.31,18.74-21.6
		C621.96,360.38,625.12,350.64,626.23,340.61z"/>
	<path class="st1" d="M592.8,162.37c-0.51-0.29,2.22-13.28,2.22-13.28c0.72-1.06-1.12-2.06-1.84-1.01
		c-1.42,2.09-2.85,4.19-4.27,6.28c-1.09,1.6-3.01,3.5-3.29,5.49c-0.47,3.32,4.04,4,6.49,4.36
		C593.21,164.37,593.9,162.98,592.8,162.37z"/>
	<path class="st7" d="M613.71,155.67c-0.62-0.27-0.96,0.72-0.35,0.99c1.97,0.85,1.52,3.6-0.54,3.94c-0.67,0.11-0.48,1.14,0.19,1.03
		C616.17,161.12,616.6,156.93,613.71,155.67z"/>
	<polygon class="st3" points="256.82,534.39 249.25,533.89 286.76,337.14 294.33,337.64 	"/>
	<polygon class="st3" points="532.45,534.77 540.03,534.27 503.37,331.56 495.79,332.06 	"/>
	<rect x="257.61" y="314.25" class="st3" width="268.54" height="28.34"/>
	<path class="st3" d="M518.01,314.44h-93.19l0,0c0-5.03,4.08-9.11,9.11-9.11h74.97C513.93,305.33,518.01,309.41,518.01,314.44
		L518.01,314.44z"/>
	<path class="st3" d="M367.57,315.2h-40.05l0,0c0-5.03,4.08-9.11,9.11-9.11h21.83C363.49,306.09,367.57,310.17,367.57,315.2
		L367.57,315.2z"/>
	<path class="st3" d="M408.12,284.64h-121.1c-3.04,0-5.5-2.46-5.5-5.5v-92.25c0-3.04,2.46-5.5,5.5-5.5h121.1
		c3.04,0,5.5,2.46,5.5,5.5v92.25C413.62,282.18,411.16,284.64,408.12,284.64z"/>
	<rect x="343.15" y="227.96" class="st3" width="9.87" height="86.8"/>
	<path class="st2" d="M400.98,270.85H296.39c-3.04,0-5.5-2.46-5.5-5.5v-70.49c0-3.04,2.46-5.5,5.5-5.5h104.59
		c3.04,0,5.5,2.46,5.5,5.5v70.49C406.48,268.39,404.02,270.85,400.98,270.85z"/>
	<path class="st0" d="M338.18,261.11H305.5c-3.04,0-5.5-2.46-5.5-5.5v-51.76c0-3.04,2.46-5.5,5.5-5.5h32.68c3.04,0,5.5,2.46,5.5,5.5
		v51.76C343.68,258.65,341.22,261.11,338.18,261.11z"/>
	<path class="st0" d="M391.58,261.11h-32.68c-3.04,0-5.5-2.46-5.5-5.5v-51.76c0-3.04,2.46-5.5,5.5-5.5h32.68
		c3.04,0,5.5,2.46,5.5,5.5v51.76C397.08,258.65,394.62,261.11,391.58,261.11z"/>
	<path class="st3" d="M306.25,207.46c24.33-0.1,6.11,0.07,30.44-0.03c0.49,0,0.5-0.76,0.01-0.76c-24.33,0.1-6.11-0.07-30.44,0.03
		C305.77,206.7,305.76,207.46,306.25,207.46z M336.67,214.55c-24.33,0.1-6.08-0.07-30.41,0.03c-0.49,0-0.5,0.76-0.01,0.76
		c24.33-0.1,6.08,0.07,30.41-0.03C337.15,215.31,337.16,214.55,336.67,214.55z M336.47,223.16c0.49,0,0.5-0.76,0.01-0.76
		c-24.33,0.1-6.08-0.04-30.41,0.06c-0.49,0-0.5,0.76-0.01,0.76C330.39,223.11,312.14,223.25,336.47,223.16z M336.6,230.75
		c-24.33,0.1-6.02-0.04-30.34,0.06c-0.49,0-0.5,0.76-0.01,0.76c24.33-0.1,6.02,0.04,30.34-0.06
		C337.08,231.5,337.09,230.75,336.6,230.75z"/>
	<path class="st3" d="M360.15,206.45c24.33-0.1,6.11,0.07,30.44-0.03c0.49,0,0.5-0.76,0.01-0.76c-24.33,0.1-6.11-0.07-30.44,0.03
		C359.67,205.69,359.66,206.45,360.15,206.45z M390.57,213.54c-24.33,0.1-6.08-0.07-30.41,0.03c-0.49,0-0.5,0.76-0.01,0.76
		c24.33-0.1,6.08,0.07,30.41-0.03C391.05,214.3,391.06,213.54,390.57,213.54z M390.37,222.14c0.49,0,0.5-0.76,0.01-0.76
		c-24.33,0.1-6.08-0.04-30.41,0.06c-0.49,0-0.5,0.76-0.01,0.76C384.29,222.1,366.04,222.24,390.37,222.14z M390.51,229.74
		c-24.33,0.1-6.02-0.04-30.34,0.06c-0.49,0-0.5,0.76-0.01,0.76c24.33-0.1,6.02,0.04,30.34-0.06
		C390.99,230.49,391,229.73,390.51,229.74z"/>
	<path class="st4" d="M661.1,216.15c-3.93-5.7-7.46-13.29-13.33-17.2c-0.96-1.32-1.91-2.65-2.88-3.97c-0.74-1.02-1.48-2.4-2.65-2.96
		c-1.58-0.75-2.82-0.14-4.33,0.51c-2.96,1.27-5.89,2.63-8.83,3.94c-2.72,1.21-5.43,2.43-8.15,3.64c-2.38,1.06-5.06,1.94-6.89,3.89
		c-2.91,3.1-4.65,8.73-5.34,12.77c-0.12,0.67,0.49,1.15,1.12,0.86c1.95-0.91,3.44-2.23,4.87-3.73c-5.04,20.57-6.28,42.65-9.7,63.25
		c-2.04,12.28-5.48,24.28-9.24,36.13c-3.41,10.75-7.76,21.51-6.48,32.99c0.12,1.05,1.04,1.32,1.83,1.04
		c0.18,0.09,0.4,0.14,0.64,0.14c19.49,0.09,38.98-0.27,58.45-1.13c5.28-0.23,14.86,1.14,17.84-4.62c1.94-3.75,2.35-8.89,3.17-12.99
		c0.89-4.48,1.68-8.99,2.37-13.5C678.5,282.7,680.68,244.56,661.1,216.15z"/>
	<g>
		
			<ellipse transform="matrix(0.9514 -0.3078 0.3078 0.9514 -13.6253 110.4841)" class="st3" cx="343.41" cy="98.43" rx="51.37" ry="51.37"/>
		<circle class="st0" cx="343.79" cy="98.43" r="41.76"/>
		<path class="st3" d="M346.45,99.7L346.45,99.7c-2.73,0-4.93-2.21-4.93-4.93V65.98c0-1.36,1.1-2.47,2.47-2.47l0,0
			c1.36,0,2.47,1.1,2.47,2.47V99.7z"/>
		<path class="st3" d="M345.06,96.68L345.06,96.68c1.83,2.02,1.67,5.14-0.35,6.97l-21.35,19.31c-1.01,0.91-2.57,0.84-3.49-0.18l0,0
			c-0.91-1.01-0.84-2.57,0.18-3.49L345.06,96.68z"/>
		<path class="st3" d="M364.44,101.7v-4.93h15.33c1.36,0,2.47,1.1,2.47,2.47l0,0c0,1.36-1.1,2.47-2.47,2.47H364.44z"/>
		<path class="st3" d="M341.9,117.28h4.93v15.33c0,1.36-1.1,2.47-2.47,2.47l0,0c-1.36,0-2.47-1.1-2.47-2.47V117.28z"/>
		<path class="st3" d="M323.53,96.64v4.93H308.2c-1.36,0-2.47-1.1-2.47-2.47l0,0c0-1.36,1.1-2.47,2.47-2.47H323.53z"/>
	</g>
	<path class="st0" d="M594.41,172.11c1.07-0.48,2.78-1.06,3.07-2.38c0.24-1.08-0.48-1.56-1.44-1.62c-1.67-0.11-3.42,0.01-5.11,0.11
		c0.01,1.64,0.06,3.33,0.17,4.92C592.24,172.96,593.33,172.6,594.41,172.11z"/>
	<path class="st3" d="M603.02,143.18c-0.04-0.06-0.79-0.36-0.82-0.36c-2.34-0.75-5.5-1.26-7.65-0.05c-1.12,0.63-2.18,2.09-0.53,2.7
		c1.4,0.52,3.38,0.35,4.84,0.32c1.18-0.02,2.64,0.12,3.73-0.46C603.91,144.64,603.93,143.85,603.02,143.18z"/>
	<path class="st3" d="M653.19,135.53c-1.7-6.57-6.8-10.77-12.96-12.88c-7.42-2.54-14.8-3.46-22.64-3.28
		c-7.43,0.17-14.86,2.27-20.52,7.24c-0.28,0.25-0.07,0.64,0.21,0.67c-0.03,0.2,0.07,0.42,0.32,0.45c3.53,0.47,8.4,0.45,11.31,2.73
		c3.05,2.4,3.4,6.63,3.51,10.2c0.07,2.45-0.06,5.14,1.12,7.38c1.29,2.43,3.35,2.31,5.72,2.91c3.63,0.93,3.51,5.29,4.19,8.28
		c0.66,2.91,1.6,5.96,3.21,8.49c3,4.71,13.56,7.8,13.39,7.55c4.69-5,7.69-11.92,10.39-18.24
		C653.27,150.44,655.04,142.67,653.19,135.53z"/>
	<path class="st3" d="M617.18,113.86c-2.7-1.31-5.99-2.62-9.03-2.91c-3.88-0.37-4.69,1.87-7.72,3.43c-2.72,1.4-5.56,1.37-7.54,4.16
		c-1.6,2.27-1.44,5.28,0.15,7.52c1.56,2.21,3.91,2.9,6.43,3.37c3.42,0.64,5.88,2.05,9.43,1.08
		C616.21,128.53,626.37,118.31,617.18,113.86z"/>
	<path class="st3" d="M696.97,415.37c0.06-4.16,0.15-8.32,0.15-12.48c0-3.04-0.19-6.12-1.94-8.71c-3.09-4.59-9.08-5.85-14.21-6.44
		c-12.24-1.41-73.05-2.29-90.74-0.25c-5.13,0.59-11.12,1.85-14.21,6.44c-1.75,2.59-1.94,5.68-1.94,8.71c0,4.4,0.1,8.81,0.16,13.21
		c-0.03,0.16-0.02,0.33,0.01,0.49l0,0.01c0.01,1.09,1.13,1.53,2.98,1.34c20.3-0.39,79.9-0.18,89.94,0.17
		c9.26,0.32,21,0.11,27.36,0.4C696.44,418.2,697.32,415.83,696.97,415.37z"/>
	<path class="st3" d="M704.03,262.22c-4.15-0.31-8.3-0.65-12.45-0.91c-3.03-0.19-6.12-0.18-8.82,1.41
		c-4.77,2.81-6.39,8.71-7.29,13.79c-2.15,12.13-4.44,37.42-3.48,55.19c0.28,5.15,1.18,11.21,5.57,14.57
		c2.48,1.9,5.55,2.28,8.58,2.46c4.39,0.26,8.8,0.43,13.19,0.64c0.16,0.04,0.33,0.04,0.49,0.02l0.01,0c1.09,0.05,1.6-1.03,1.52-2.89
		c0.84-20.28,2.39-44.41,3.35-54.4c0.88-9.23,1.38-20.95,2.05-27.28C706.82,262.92,704.51,261.9,704.03,262.22z"/>
	<polygon class="st3" points="663.5,518.32 655.92,517.82 663.93,388.68 671.51,389.18 	"/>
	<path class="st3" d="M686.26,333l-58.22-0.28c-14.17-0.07-25.95,10.92-26.86,25.06l-3.72,57.8l7.58,0.5l3.26-50.63
		c0.94-20.33,10.69-25.27,26.83-25.06l51.09,0.2L686.26,333z"/>
	<polygon class="st3" points="697.12,415.98 689.55,415.48 699.35,264.27 706.92,264.77 	"/>
	<path class="st3" d="M594.06,516.06L594.06,516.06c0-2.1,1.7-3.8,3.8-3.8h69.97c2.1,0,3.8,1.7,3.8,3.8l0,0c0,2.1-1.7,3.8-3.8,3.8
		h-69.97C595.76,519.86,594.06,518.16,594.06,516.06z"/>
	<circle class="st3" cx="601.81" cy="530.3" r="7.4"/>
	<circle class="st3" cx="663.17" cy="530.04" r="7.4"/>
	<path class="st1" d="M531.49,296.98c-0.24-0.14-0.54-0.2-0.87-0.07c0,0-0.01,0-0.01,0c0.94-0.7,3.71-5.74,2.66-5.09
		c-7.94,4.92-21.97,7.39-28.27,7.29c-6.78-0.1-10.56-1.09-13.92,0.78c-2.18,1.21-8.24,4.83-7.48,7.98c0.17,0.72,1.01,1.07,1.61,0.58
		c0.49-0.4,0.99-0.83,1.49-1.26c0.01,0.54,0.34,1.07,1.27,1.17c0.86,0.09,2.46-1.28,3.55-1.86c0.73-0.39,1.78-0.43,2.51-0.83
		c-1.14,1.69-2.19,3.57-3.4,5.46c-0.44,0.69-0.01,1.39,0.72,1.55c2.37,0.52,3.31-1.45,4.58-3.17c0.56-0.76,1.1-1.45,1.64-2.06
		c2.05-0.88,4.23-1.71,6.49-1.09c3.22,0.88,7.22,0.65,7.76-0.71c5.5-0.08,20.55-3.64,21.51-4.44c0.07-0.05-0.96-2.55-0.89-2.6
		C533.34,297.94,532.42,296.7,531.49,296.98z"/>
	<circle class="st3" cx="330.35" cy="253.29" r="5.55"/>
	<circle class="st3" cx="383.36" cy="253.42" r="5.55"/>
	<path class="st2" d="M339.75,240.59c-0.64-0.37-1.46-0.15-1.83,0.49l-7.81,13.53l-3.23-4.21c-0.45-0.59-1.29-0.7-1.88-0.25
		c-0.59,0.45-0.7,1.29-0.25,1.88l4.48,5.85c0.45,0.59,1.29,0.7,1.88,0.25c0.24-0.19,0.4-0.44,0.47-0.72l8.65-14.99
		C340.61,241.77,340.39,240.96,339.75,240.59z"/>
	<path class="st2" d="M392.82,240.79c-0.64-0.37-1.46-0.15-1.83,0.49l-7.81,13.53l-3.23-4.21c-0.45-0.59-1.29-0.7-1.88-0.25
		c-0.59,0.45-0.7,1.29-0.25,1.88l4.48,5.85c0.45,0.59,1.29,0.7,1.88,0.25c0.24-0.19,0.4-0.44,0.47-0.72l8.65-14.99
		C393.68,241.97,393.46,241.15,392.82,240.79z"/>
	<path class="st3" d="M561.53,423.81c-0.09-0.48-0.82-0.28-0.73,0.2c1.08,5.93,2.17,11.87,3.25,17.8c0.09,0.48,0.82,0.28,0.73-0.2
		L561.53,423.81z"/>
	<path class="st3" d="M559.74,432.04c-0.08-0.48-0.81-0.28-0.73,0.2c0.73,4.56,1.45,9.12,2.18,13.68c0.08,0.48,0.81,0.28,0.73-0.2
		C561.19,441.16,560.46,436.6,559.74,432.04z"/>
	<path class="st3" d="M432.23,504.06c-1.26-2.51-2.54-5.91-4.91-7.51c-1.54-1.04-3.99-1.24-5.57-2.27
		c-0.5-0.33-6.74-7.66-8.63-10.23c-4.18-5.67-6.18-5.45-9.22-2.96c-0.75,0.61,0,1.88,0.79,1.3c0.02-0.01,0.04-0.03,0.06-0.04v0
		c4.2,4.96,8.66,9.79,12.21,15.24c3.44,5.29,6.5,10.85,9.61,16.34c-0.26,0.18-0.52,0.34-0.76,0.47c-0.86,0.47-0.07,1.76,0.79,1.3
		c0.25-0.14,2.09-1.22,2.02-1.42c1.53-1.35,2.64-3.05,3.63-4.97C433.39,507.11,433.35,506.29,432.23,504.06z"/>
	<path class="st6" d="M425.27,508.5c-2.34-4.94-5.4-9.47-8.39-14.01c-2.56-3.89-5.05-9.55-8.82-12.33
		c-2.07-1.53-3.32-2.68-5.02-0.55c-2.24,2.82-0.61,6.72,0.69,9.63c4.2,9.39,10.86,17.17,18.3,24.08c2.03,1.89,2.65,1.89,3.99,0.92
		C428.68,514.31,426.39,510.87,425.27,508.5z"/>
	<path class="st3" d="M567.74,392.16c-32.05,28.01-64.67,55.37-97.84,82.05c-9.4,7.55-18.84,15.05-28.32,22.5
		c-0.38,0.3,0.16,0.84,0.54,0.54c33.48-26.29,66.42-53.26,98.79-80.9c9.17-7.83,18.29-15.71,27.37-23.65
		C568.64,392.37,568.11,391.84,567.74,392.16z"/>
	<path class="st4" d="M535.25,195.17c-0.99-1.18-2.44-1.8-3.42-2.93c-1.46-1.67-1.4-3.8-1.64-5.84c-0.32-2.74-0.6-5.51-1.45-8.15
		c-2.03-6.29-10.58-14.07-16.73-7.21c-2.41,2.69-3.19,8.37-2.32,11.84c0.53,2.11,1.96,2.72,3.16,4.36c1.54,2.09,0.55,5.59,1.02,8.02
		c0.73,3.78,2.82,7.39,6.37,9.15c4.44,2.2,10.52,1.65,15.31,1.95c0.27,0.02,0.45-0.09,0.57-0.25c0.38,0.33,1.07,0.3,1.24-0.32
		C538.38,202.1,537.77,198.16,535.25,195.17z"/>
	<path class="st1" d="M542.81,233.34c-0.57-1.57-2.31-2.81-3.53-3.77c-0.92-0.72-2.64-2.33-3.98-2c-3.85,0.95,2.71,7.45,3.03,8.61
		c0.16,0.56-0.52,9.44,2.24,6.95c0.53-0.48,0.74-1.33,1-1.98c0.49-1.24,0.93-2.53,1.24-3.84
		C543.13,235.93,543.29,234.64,542.81,233.34z"/>
	<path class="st1" d="M527.19,239.01c0.01-0.01,0.03-0.01,0.04-0.01c1.02-0.44,0.66-2.04,0.3-3.15c0.07-0.01,0.14-0.01,0.2-0.03
		c2.26-0.65,0.25-4.52-0.43-5.67c-0.72-1.21-2.98-4.19-4.66-2.85c-0.93,0.74-0.89,2-0.51,3.21c-0.9-0.14-1.67,0.26-1.8,1.45
		c-0.19,1.71,1.24,3.38,2.36,4.61c-0.76,0.03-1.41,0.46-1.53,1.47c-0.22,1.89,2.07,3.37,3.44,4.18c0.96,0.57,3.67,1.96,4.33,0.32
		C529.43,241.26,528.27,239.79,527.19,239.01z"/>
	<path class="st4" d="M634.78,233.18c-2.18-2.64-5.36-4.44-8.12-6.38c-3.39-2.38-6.78-4.76-10.17-7.15c1.04-2-2-3.9-3.27-1.9
		c-23.09,36.28-59.26,63.46-100.58,75.44c-1.26,0.37-1.73,1.55-1.26,2.73c1.28,3.2,2.57,6.4,3.85,9.6c0.84,2.1,1.44,4.99,3.85,5.78
		c2.23,0.73,5.37-0.17,7.6-0.47c3.59-0.47,7.16-1.1,10.7-1.86c13.5-2.92,26.51-7.79,39.1-13.4c12.51-5.57,25.39-11.39,37.05-18.62
		c10.44-6.48,18.69-15.6,22.39-27.48C637.55,244.21,638.59,237.79,634.78,233.18z"/>
	<path class="st8" d="M586.29,250.48c-0.58,0.29-1.17,0.58-1.77,0.85c-8.87,9.88-18.99,18.7-31.4,23.77
		c-0.45,0.18-0.25,0.92,0.2,0.73C566.45,270.48,577.04,261.02,586.29,250.48z"/>
	<path class="st8" d="M624.12,264.96c3.09-3.06,6.39-6.04,9.11-9.44c2.59-3.22,4.26-7.03,5.84-10.82c1.63-3.91,2.99-8.08,2.69-12.37
		c-0.38-5.26-3.53-9.4-7.9-11.67c1.33-3.18,2.33-6.48,2.89-9.89c0.42-2.56,1.18-5.94,0.11-8.45c3.46-1.48,7.01-2.75,10.63-3.81
		c-0.16-0.22-0.32-0.43-0.47-0.65c-3.61,1.07-7.15,2.34-10.6,3.82c-0.15-0.03-0.31,0.04-0.4,0.17c-7.71,3.35-14.97,7.71-21.54,12.97
		c-0.1,0.41-0.19,0.81-0.28,1.22c6.69-5.46,14.08-9.99,21.98-13.43c1.12,2.61,0.12,6.71-0.39,9.29c-0.57,2.89-1.46,5.7-2.6,8.41
		c-1.49-0.69-3.1-1.17-4.79-1.41c-5.5-0.78-10.67,0.72-15.49,3.12c-0.06,0.31-0.12,0.62-0.18,0.93c3.89-1.99,8.02-3.4,12.49-3.48
		c2.72-0.04,5.38,0.53,7.72,1.63c0.37,0.2,0.39,0.47,0.59,0.29c4.35,2.27,7.46,6.43,7.53,11.93c0.05,4.34-1.52,8.47-3.22,12.39
		c-1.69,3.9-3.55,7.6-6.42,10.78c-5.21,5.79-11,11.21-16.71,16.51c-3.43,3.19-6.97,6.27-10.64,9.17c-0.08,0.38-0.16,0.77-0.24,1.15
		c3.59-2.8,7.05-5.77,10.4-8.85C617.6,271.37,620.88,268.18,624.12,264.96z"/>
</g>
</svg>
