<?xml version="1.0" encoding="utf-8"?>
<!-- Generator: Adobe Illustrator 24.1.3, SVG Export Plug-In . SVG Version: 6.00 Build 0)  -->
<svg version="1.1" id="레이어_1" xmlns="http://www.w3.org/2000/svg" xmlns:xlink="http://www.w3.org/1999/xlink" x="0px"
	 y="0px" viewBox="0 0 841.89 595.28" style="enable-background:new 0 0 841.89 595.28;" xml:space="preserve">
<style type="text/css">
	.st0{fill:#FFFFFF;}
	.st1{fill:#F3E3D4;}
	.st2{fill:#76A7D0;}
	.st3{fill:#1F2043;}
	.st4{fill:#EE9481;}
	.st5{fill:#434884;}
	.st6{fill:#D2715C;}
	.st7{fill:#994C4B;}
	.st8{fill:#787988;}
</style>
<line class="st0" x1="-841.36" y1="-230.39" x2="2190.63" y2="-230.39"/>
<g>
	<path class="st1" d="M436.83,171.71c-0.81,6.56,2.47,12.65,6.57,17.53c5.06,6.03,12.27,10.82,15.26,18.37
		c2.83,7.17,1.91,15.31,4.06,22.7c2.46,8.48,7.21,15.76,13.48,21.92c6.49,6.38,13.31,12.01,16.59,20.77
		c5.08,13.56,3.78,29.3,13.37,41.03c1.77,2.16,2.69,0.89,3.96-2.45c16.97-33.52,33.51-67.22,50.41-100.78
		c4.12-8.17,8.19-16.37,12.09-24.65c1.9-4.03,3.77-8.08,5.56-12.16c1.27-2.89,2.67-5.93,2.59-9.15c-0.21-7.56-9.11-11.3-15.23-13.3
		c-7.55-2.46-15.63-3.54-23.49-4.52c-15.95-1.99-32.11-2.34-48.13-1.1c-7.82,0.6-15.61,1.6-23.33,2.97
		c-7.68,1.37-15.74,2.81-22.5,6.91C442.4,159.26,437.67,164.92,436.83,171.71z"/>
	<path class="st2" d="M560.19,242.51c4.33-4.14,6.58-9.49,8.47-15.08c2.26-6.68,4.63-13.29,7.39-19.78
		c2.77-6.52,5.85-12.91,9.23-19.14c3.07-5.66,7.32-11.21,8.83-17.55c0.63-2.66-1.87-5.32-4.57-3.97
		c-7.51,3.76-16.42,3.13-24.59,3.13c-7.65,0-15.29-0.19-22.93-0.53c0.31-1.48,0.61-2.96,0.91-4.44c0.82-4.09-5.38-6.21-6.22-2.07
		c-1.96,9.72-3.91,19.43-5.87,29.15c-1.8,8.93-4.9,18.56-4.69,27.73c0.37,16.16,15.69,27.94,31.39,23.47
		c0.05-0.01,0.1-0.03,0.14-0.05C558.5,243.5,559.39,243.27,560.19,242.51z"/>
	<path class="st3" d="M606.65,525.42c-5.39-13.9-48.58-24.69-101.04-24.64c-43.18,0.04-80.05,7.42-94.74,17.78
		c1.66,3.84,2.21,7.83,1.81,11.67c14.92,10.22,51.59,17.42,94.47,17.38C556.24,547.56,597.18,538.04,606.65,525.42z"/>
	<path class="st2" d="M608.97,521.1L608.97,521.1c0-2.77-0.94-5.43-2.76-7.94c-0.02,0.03-0.04,0.05-0.06,0.07l-94.18-175.01
		l1.78-3.33c-0.04,0.02-0.09,0.03-0.13,0.05l95.06-177.61l-6.79-2.63l-94.12,175.86L412.9,154.16l-6.79,2.64l97.55,181.42
		l-1.78,3.33c0.04-0.02,0.09-0.03,0.13-0.05l-92.73,173.26c-0.18,0.3-1.84,5.89-1.84,6.54c0,4.82,2.81,9.29,8.26,13.28
		c5.25,3.85,12.97,7.25,23.01,10.11c18.63,5.31,43.32,8.22,69.53,8.19c26.21-0.03,50.89-2.98,69.51-8.33
		C598.19,538.68,608.98,530.58,608.97,521.1z M508.23,544.87c-25.48,0.02-49.39-2.78-67.32-7.88
		c-18.76-5.35-25.45-11.61-25.45-15.69c0-1.49,2.2-5.87,1.85-6.22l90.56-169.2l92.42,172.06l0.04-0.02c0.58,1.04,0.63,2.26,0.63,3.2
		l0,0C600.97,530.99,565.7,544.81,508.23,544.87z"/>
	<path class="st2" d="M557.7,442.2c2.01-1.32,3.7-3.06,4.8-5.09c-12.69-25.17-25.99-50.02-38.9-75.08
		c-1.91-0.91-3.62-2.12-5.13-3.64c-2.64-1.9-4.64-4.36-6.01-7.39c-0.86-1.72-1.5-3.6-2.07-5.44c-5.86,2.29-11.94,4.73-11.36,12.02
		c0.4,5.1,3.68,10.35,5.71,14.94c2.38,5.38,4.83,10.74,7.34,16.07c4.99,10.59,10.23,21.06,15.72,31.4
		c2.76,5.2,5.58,10.37,8.46,15.51c1.92,3.42,3.95,9.64,8.14,10.83C548.43,447.48,554.38,444.38,557.7,442.2z"/>
	<ellipse class="st2" cx="507.08" cy="154.91" rx="101.59" ry="27.67"/>
	<path class="st3" d="M508.6,174.07c49.09-0.05,90.03-9.57,99.5-22.19c-5.39-13.9-48.58-24.69-101.04-24.64
		c-49.09,0.05-90.03,9.57-99.5,22.19C412.95,163.32,456.13,174.12,508.6,174.07z"/>
	<path class="st2" d="M602.46,525.69c3.34-7.01-1.42-13.84-4.93-19.72c-10.28-17.22-22.23-33.89-28.06-53.31
		c-0.17-0.58-0.47-1.04-0.82-1.41c1.13-2.25-0.33-5.62-3.35-4.73c-8.04,2.36-16.26,4.8-23.1,9.83c-5.79,4.26-8.04,10.08-7.17,17.16
		c0.97,7.84,4.1,15.72,6.7,23.14c2.93,8.35,6.29,16.55,10.04,24.57c1.78,3.8,3.65,7.55,5.61,11.25c1.69,3.2,3.34,7.87,6.55,9.89
		c2.59,1.63,5.99,0.98,8.8,0.49c4.23-0.74,8.39-2.01,12.33-3.69C591.4,536.46,599.36,532.19,602.46,525.69z"/>
	<path class="st2" d="M486.27,247.26c-5.36-12.34-20.22-42.95-22.55-44.92c-2.38-2.02-6.27-1.65-8.89-0.19
		c-3.65,2.03-1.35,6.25-0.21,9.22c1.96,5.1,17.9,34.94,19.3,37.47c1.24,2.24,2.31,4.96,4,6.91c2.11,2.43,5.61,2.2,8.26,0.75
		C490.29,254.25,487.71,250.57,486.27,247.26z"/>
	<path class="st2" d="M455.51,193.88c4.11-2.25,1.53-5.93,0.09-9.25c-1.45-3.34-3.6-8.02-6.01-13.11c-4.55,1.6-9.49,1.54-14.08,0.17
		c3.76,7.15,7.12,13.42,7.73,14.52c1.24,2.24,2.31,4.96,4,6.91C449.36,195.56,452.86,195.33,455.51,193.88z"/>
	<path class="st4" d="M368.43,497.96c-2.04,0.52-1.39-0.05-2.9,1.59c-0.22,0.24-0.37,0.54-0.46,0.86c-1.14,0.11-2.15,0.92-1.95,2.38
		c1.64,11.86,1.66,23.88,3.75,35.69c0.27,1.51,1.52,2.54,3.09,2.07c2.86-0.87,1.93-0.87,4.6-2.21c0.71-0.36,1.6-5.08,1.54-5.82
		c-0.45-6.06-2.54-26.46-3.57-32.51C372.28,498.45,370,497.56,368.43,497.96z"/>
	<path class="st3" d="M376.97,530.12c-2.84-0.44-9.11-0.54-12.22-0.65c-1.38,0.04-1.88,0.92-1.84,1.38
		c0.35,3.58-2.91,3.23-7.35,5.26c-3.78,1.73-7.42,3.18-13.41,4.72c-5.34,1.37-4.77,0.54-4.93,3.92c-0.12,2.42,5.33,2.23,9.75,2.14
		c0.7-0.01,1.39-0.02,2.08-0.03c2.08-0.01,4.15-0.36,6.13-1.01c0.36-0.12,0.72-0.24,1.08-0.36c3.3-1.1,6.26-1.33,9.73-1.13
		c0.17,0.01,0.37,0.13,0.39,0.31c0.05,0.36,0.05,0.56,0.09,0.93c0.06,0.64,0.61,1.13,1.26,1.13c1.42,0,2.85-0.01,4.29-0.04
		c2.71-0.06,5.27-0.01,5.71-0.68c0.48-0.74,0.28-0.89,0.29-1.66C378.05,542.27,378.01,530.28,376.97,530.12z"/>
	<path class="st5" d="M355.33,536.26c-0.19-0.43-0.83-0.07-0.64,0.35c0.44,0.98,0.89,1.96,1.37,2.93c0.21,0.42,0.84,0.07,0.64-0.35
		C356.22,538.22,355.77,537.25,355.33,536.26z M358.47,534.81c-0.27-0.38-0.91-0.03-0.64,0.35c0.65,0.92,1.24,1.87,1.75,2.87
		c0.22,0.42,0.85,0.06,0.64-0.35C359.71,536.68,359.12,535.73,358.47,534.81z M364.42,535.8c-0.86-0.72-1.77-1.38-2.73-1.98
		c-0.39-0.24-0.85,0.32-0.45,0.57c0.96,0.59,1.86,1.25,2.73,1.98C364.33,536.67,364.78,536.1,364.42,535.8z"/>
	<path class="st5" d="M378.01,544.35c-0.01-0.62-0.05-1.31-0.12-2.03c-3.32,0.65-6.68,0.49-10.05,0.39c-3.33-0.1-6.54,0.1-9.82,0.69
		c-6.94,1.26-13.73,1.94-20.77,1.44c0,0.31,0,0.68-0.01,1.13c-0.05,2.43,5.39,2.07,9.81,1.85c0.7-0.03,1.39-0.06,2.08-0.09
		c2.08-0.08,4.14-0.48,6.09-1.19c0.36-0.13,0.71-0.26,1.07-0.39c3.26-1.2,6.22-1.51,9.69-1.42c0.17,0,0.38,0.12,0.4,0.3
		c0.06,0.36,0.07,0.56,0.12,0.93c0.08,0.64,0.65,1.11,1.29,1.09c1.42-0.05,2.85-0.1,4.29-0.17c2.71-0.14,5.27-0.17,5.68-0.85
		C378.22,545.25,378.02,545.11,378.01,544.35z"/>
	<path class="st3" d="M391.9,480.47c-0.41-5.36-2.56-10.16-4.2-15.21c-6.67-20.54,10.23-43.69,5.34-64.56
		c-2.58-11.05-0.17-19.81-0.63-31.33c-0.45-11.42,2.21-22.63,4.73-33.68c4.36-19.1,8.53-40.74-3.21-58.16
		c-5.18-7.68-12.98-13.22-22.3-14.33c-9.32-1.11-18.47,2-26.01,7.34c-1.02-1.01-3.2-0.62-3.12,1.21
		c1.49,33.93,2.97,67.85,4.46,101.78c0.73,16.75,1.32,33.51,2.67,50.23c1.32,16.28,3.31,32.5,5.29,48.71
		c2.28,18.65,4.55,37.31,6.83,55.96c0.12,1.02,0.74,1.77,1.82,1.82c12.43,0.62,12.46,1.01,24.85-0.18c1.06-0.1,1.71-0.76,1.82-1.82
		c0.58-5.43-0.71-10.6-1.27-15.97c-0.62-5.92,0.47-11.64,1.54-17.45C391.39,490.13,392.26,485.29,391.9,480.47z"/>
	<path class="st4" d="M313.11,499.36c-2.07-0.39-1.24-0.64-3.3,0.22c-0.3,0.12-0.56,0.33-0.78,0.59c-1.08-0.38-2.34-0.08-2.77,1.33
		c-3.54,11.44-8.63,22.33-11.74,33.91c-0.4,1.48,0.3,2.95,1.92,3.18c2.96,0.43,2.12,0.03,5.1-0.05c0.79-0.02,3.6-3.92,3.87-4.61
		c2.17-5.67,8.92-25.04,10.56-30.95C316.39,501.44,314.71,499.67,313.11,499.36z"/>
	<path class="st3" d="M306.52,530.97c-2.84-0.44-9.11-0.54-12.22-0.65c-1.38,0.04-1.88,0.92-1.84,1.38
		c0.35,3.58-2.91,3.23-7.35,5.26c-3.78,1.73-7.42,3.18-13.41,4.72c-5.34,1.37-4.77,0.54-4.93,3.92c-0.12,2.42,5.33,2.23,9.75,2.14
		c0.7-0.01,1.39-0.02,2.08-0.03c2.08-0.01,4.15-0.36,6.13-1.01c0.36-0.12,0.72-0.24,1.08-0.36c3.3-1.1,6.26-1.33,9.73-1.13
		c0.17,0.01,0.37,0.13,0.39,0.31c0.05,0.36,0.05,0.56,0.09,0.93c0.06,0.65,0.61,1.13,1.26,1.13c1.42,0,2.85-0.01,4.29-0.04
		c2.71-0.06,5.27-0.01,5.71-0.68c0.48-0.74,0.28-0.89,0.29-1.66C307.6,543.12,307.55,531.13,306.52,530.97z"/>
	<path class="st5" d="M284.88,537.11c-0.19-0.43-0.83-0.07-0.64,0.35c0.44,0.98,0.89,1.96,1.37,2.93c0.21,0.42,0.84,0.07,0.64-0.35
		C285.77,539.07,285.31,538.09,284.88,537.11z M288.02,535.66c-0.27-0.38-0.91-0.03-0.64,0.35c0.65,0.92,1.24,1.87,1.75,2.87
		c0.22,0.42,0.85,0.06,0.64-0.35C289.25,537.53,288.67,536.57,288.02,535.66z M293.96,536.65c-0.86-0.72-1.77-1.38-2.73-1.98
		c-0.39-0.25-0.85,0.32-0.45,0.57c0.96,0.59,1.86,1.25,2.73,1.98C293.87,537.52,294.32,536.95,293.96,536.65z"/>
	<path class="st5" d="M307.55,545.2c-0.01-0.62-0.05-1.31-0.12-2.03c-3.32,0.65-6.68,0.49-10.05,0.39c-3.33-0.1-6.54,0.1-9.82,0.69
		c-6.94,1.26-13.73,1.94-20.77,1.44c0,0.31,0,0.68-0.01,1.13c-0.05,2.43,5.39,2.07,9.81,1.85c0.7-0.03,1.39-0.06,2.08-0.09
		c2.08-0.08,4.14-0.48,6.09-1.19c0.36-0.13,0.71-0.26,1.07-0.39c3.26-1.2,6.22-1.51,9.69-1.42c0.17,0,0.38,0.12,0.4,0.3
		c0.06,0.36,0.07,0.56,0.12,0.93c0.08,0.64,0.65,1.11,1.29,1.09c1.42-0.05,2.85-0.1,4.29-0.17c2.71-0.14,5.27-0.17,5.68-0.85
		C307.77,546.1,307.57,545.96,307.55,545.2z"/>
	<path class="st3" d="M424.6,257.13c-5.02-2.68-14.74,10.41-20.3,10.62c-7.83,0.3-15.59,1.29-23.28,2.75
		c0.2-0.68,0.41-1.35,0.61-2.03c0.82-2.7-3.45-3.64-4.26-0.97c-20.63,68.26-41.27,136.54-64.37,204.01
		c-6.47,18.89-13.13,37.71-20.03,56.44c-0.53,1.45,0.99,2.62,2.23,2.67c7.47,0.27,14.94,0.53,22.41,0.8c4.91,0.18,7.78-7,8.63-9.15
		c1.01-2.56,2.35-4.98,3.88-7.26c3-4.49,6.77-8.43,10.42-12.39c7.42-8.06,13.95-16.24,16.25-27.21c1.28-6.13,1.55-12.41,2.45-18.59
		c0.92-6.37,2.79-12.29,5.8-17.98c5.42-10.25,13.13-19.12,18.16-29.6c5.68-11.82,7.3-25.18,13.73-36.68
		c3.21-5.75,35.68-52.43,35.68-70.64C432.61,290.94,436.19,263.32,424.6,257.13z"/>
	<path class="st1" d="M285.02,136c-2.06-7.33-10.61-42.69-12.67-50.02c-1.03-3.67-2.06-7.33-3.09-11c-0.67-2.38-0.94-6.46-2.65-8.34
		c-1.2-1.33-3.63-1.1-5.23-1.25c-3.85-0.36-7.7-0.73-11.55-1.09c-7.54-0.72-15.09-1.43-22.63-2.15c-0.73-0.36-1.87,0.22-1.58,1.24
		c2.06,7.33,4.12,14.66,6.18,22c1.03,3.67,8.54,35.36,9.57,39.03c0.67,2.38,0.94,6.46,2.65,8.34c1.21,1.33,3.63,1.1,5.23,1.25
		c3.85,0.36,7.7,0.73,11.55,1.09c7.54,0.72,15.09,1.43,22.63,2.15C284.18,137.6,285.31,137.02,285.02,136z"/>
	<path class="st2" d="M256.81,145.35c-2.06-7.33-4.12-14.66-6.18-22c-1.03-3.67-2.06-7.33-3.09-11c-0.67-2.38-0.94-6.46-2.65-8.34
		c-1.21-1.33-3.63-1.1-5.23-1.25c-3.85-0.36-7.7-0.73-11.55-1.09c-7.54-0.72-15.09-1.43-22.63-2.15c-0.73-0.36-1.87,0.21-1.58,1.24
		c2.06,7.33,4.12,14.66,6.18,22c1.03,3.67,2.06,7.33,3.09,11c0.67,2.38,0.94,6.46,2.65,8.34c1.2,1.33,3.63,1.1,5.23,1.25
		c3.85,0.36,7.7,0.73,11.55,1.09c7.54,0.72,15.09,1.43,22.63,2.15C255.97,146.95,257.1,146.38,256.81,145.35z"/>
	<path class="st2" d="M236.41,97c-6.3-5.09-12.78-9.95-19.4-14.62c-0.25-0.18-0.68-0.11-0.88,0.11
		c-4.79,5.31-8.85,11.13-12.14,17.48c-0.4,0.78,0.94,3.26,1.44,2.66c3.14,1.73,5.54,2.44,8.83,3.9c2.69,1.19,5.62,1.69,8.53,2.07
		c4.2,0.55,8.44,0.8,12.67,0.76c2.5-0.02,7.85,1.81,9.9,0.01C249.82,105.43,238.88,99,236.41,97z"/>
	<path class="st2" d="M303.94,109.73c-0.61-0.35-1.4-0.14-1.75,0.47l-7.5,12.98l-3.1-4.04c-0.43-0.56-1.24-0.67-1.8-0.24
		c-0.56,0.43-0.67,1.24-0.24,1.8l4.3,5.61c0.43,0.56,1.24,0.67,1.8,0.24c0.23-0.18,0.38-0.42,0.45-0.69l8.3-14.38
		C304.77,110.87,304.56,110.09,303.94,109.73z"/>
	<path class="st5" d="M368.35,316.6c-4.81,13.47-10.26,26.71-16.33,39.67c-0.2,0.42,0.43,0.79,0.63,0.37
		c6.09-13.02,11.56-26.31,16.4-39.84C369.21,316.35,368.51,316.16,368.35,316.6z"/>
	<path class="st5" d="M426.13,284.71c-0.75,3.63-1.76,7.17-2.97,10.63c-0.01,0-0.01,0-0.02-0.01c-4.96-0.19-10.25-0.9-14.48-3.71
		c-4.79-3.18-6.63-8.53-8.07-13.83c-0.12-0.45-0.83-0.26-0.7,0.19c1.44,5.29,3.29,10.67,7.96,13.96c4.35,3.06,9.86,3.88,15.06,4.1
		c-3.42,9.59-8.32,18.64-13.31,27.52c-7.53,13.39-15.09,26.76-22.63,40.13c-4.27,7.57-8.54,15.14-12.81,22.71
		c-0.23,0.41,0.4,0.78,0.63,0.37c7.71-13.67,15.42-27.34,23.13-41.01c7.26-12.87,15.05-25.58,21.34-38.96
		c3.3-7.02,6.02-14.3,7.59-21.91C426.93,284.44,426.23,284.25,426.13,284.71z"/>
	<path class="st5" d="M390.2,385.89c-9.02,6.64-10.26,18.45-11.54,28.72c-0.8,6.44-1.97,12.74-5.13,18.49
		c-2.6,4.74-5.99,8.98-9.06,13.41c-3.28,4.74-6.18,9.78-7.16,15.53c-0.08,0.46,0.62,0.66,0.7,0.19
		c1.77-10.38,9.62-17.99,14.91-26.65c2.91-4.75,4.69-9.81,5.64-15.29c1.02-5.87,1.29-11.87,2.65-17.68
		c1.44-6.16,4.12-12.25,9.34-16.1C390.94,386.25,390.58,385.62,390.2,385.89z"/>
	<path class="st5" d="M369.86,399.98c-2.19-2.06-4.38-4.12-6.57-6.18c-0.34-0.32-0.86,0.19-0.51,0.51c2.19,2.06,4.38,4.12,6.57,6.18
		C369.69,400.81,370.21,400.3,369.86,399.98z"/>
	<path class="st5" d="M368.75,406.18c-1.79-2.21-3.69-4.3-5.71-6.3c-0.33-0.33-0.85,0.19-0.51,0.51c2.02,1.99,3.92,4.09,5.71,6.3
		C368.54,407.06,369.05,406.54,368.75,406.18z"/>
	<path class="st5" d="M360.96,417.26c-7.4,21.81-16.66,42.97-27.7,63.18c-3.11,5.7-6.37,11.32-9.75,16.86
		c-0.24,0.4,0.38,0.77,0.63,0.37c11.98-19.61,22.27-40.24,30.71-61.61c2.43-6.14,4.69-12.35,6.82-18.6
		C361.81,417.01,361.11,416.82,360.96,417.26z"/>
	<path class="st4" d="M415.22,68.9c-8.14-5.77-20.79-8.05-30.7-4.48c-0.15,0.42-0.42,0.81-0.84,1.14c-3.59,2.75-2.11,3.78-5.34,6.99
		c-0.45,0.44-0.98,0.65-1.52,0.69c-2.57,9.06-2.91,21.98,0.11,33.23c1.13,4.21,4.09,15.04,8.6,18.96
		c6.28,5.46,14.84,3.88,20.54-0.61c10.16-8,16.55-18.09,17.6-31.07C424.64,81.72,425.21,75.99,415.22,68.9z"/>
	<path class="st4" d="M421.44,131.29l-4.65-37.83c-0.3-1.42-4.27,4.53-5.29,5.64c-5.16,5.63-9.73,7.97-16.82,10.23
		c-0.22,0.07-0.4,0.17-0.56,0.28c-1.02,0.21-1.92,1.1-1.65,2.41c1.76,8.34,4.3,24.45,7.87,32.26c0.93,2.03,0.75-1.28,3.18-0.78
		c1.64,0.34,4.36-0.52,6.04-0.72c2.15-0.26,1.86-0.44,4.01-0.69c2.35-0.28,7.2,0.16,8.77-2.11
		C423.87,137.77,421.9,133.48,421.44,131.29z"/>
	<path class="st3" d="M401.25,99.12c0.16,1.34-0.35,2.51-1.14,2.61c-0.79,0.1-1.57-0.92-1.73-2.26c-0.16-1.34,0.35-2.51,1.14-2.61
		C400.32,96.76,401.09,97.77,401.25,99.12z"/>
	<path class="st3" d="M382.75,99.09c0.16,1.34-0.35,2.51-1.14,2.61c-0.79,0.1-1.57-0.92-1.73-2.26c-0.16-1.34,0.35-2.51,1.14-2.61
		C381.81,96.73,382.58,97.74,382.75,99.09z"/>
	<path class="st3" d="M405.28,92.43c-0.04-0.06-0.76-0.34-0.79-0.34c-2.24-0.72-5.27-1.21-7.34-0.05c-1.07,0.6-2.09,2.01-0.51,2.59
		c1.35,0.5,3.24,0.33,4.64,0.31c1.14-0.02,2.53,0.11,3.58-0.44C406.14,93.83,406.16,93.07,405.28,92.43z"/>
	<path class="st3" d="M376.01,94.7c1.04,0.57,2.44,0.46,3.57,0.51c1.4,0.05,3.29,0.25,4.65-0.22c1.59-0.56,0.61-1.98-0.46-2.6
		c-2.05-1.2-5.09-0.76-7.34-0.09c-0.03,0-0.75,0.27-0.8,0.33C374.74,93.24,374.75,94,376.01,94.7z"/>
	<path class="st6" d="M392.07,111.02c-1.65,0.07-3.66,0.01-4.24-1.91c-0.4-1.35,0.04-2.92,0.25-4.26c0.44-2.79,0.87-5.58,1.31-8.37
		c0.07-0.46-0.63-0.66-0.7-0.19l-1.04,6.63c-0.27,1.72-0.75,3.55-0.67,5.3c0.13,2.97,2.51,3.64,5.09,3.53
		C392.54,111.73,392.54,111,392.07,111.02z"/>
	<path class="st0" d="M399.64,113.7c-6.88,2.82-13.25,0.13-13.61,0.26c-0.15,0.06-0.31,0.19-0.27,0.35c0.74,3,4.25,4.55,6.93,4.58
		c2.79,0.03,6.61-1.79,7.4-4.74C400.16,113.9,399.92,113.59,399.64,113.7z"/>
	<path class="st3" d="M431.12,79.31c-0.39-4.16-1.42-8.37-4.27-11.56c-3.03-3.4-7.3-5.14-11.6-6.31
		c-4.33-4.11-11.42-6.05-17.07-5.44c-5.87,0.63-11.29,3.17-16.14,6.45c-3.04,2.05-6.91,4.4-8.52,7.83c0,0-0.01,0.01-0.01,0.01
		c-0.04,0.07-0.08,0.14-0.12,0.21c-2.61,4.93-1.79,11.28,0.47,15.43c0.2,0.37,0.39,0.64,0.7,0.73c0.33,0.1,0.71,0.09,1.04-0.2
		c2.87-2.55,7.12-0.36,10.72-1.37c2.08-0.58,4.01-1.25,6.2-1.2c1.79,0.03,3.52,0.53,5.33,0.36c5.7-0.54,9.66-4.87,11.17-10.07
		c-0.08,1.76-0.22,3.51-0.43,5.28c-0.23,2.04,0.92,7.61,1.96,9.46c2.28,4.04,7.28,2.09,7.16,11.14c-0.06,4.78-1.45,8.21-0.45,11.19
		c0.17,0.52,0.81,0.72,1.22,0.32c2.61-2.52,4.6-5.98,6.27-9.56c2.1-2.39,3.52-5.9,4.49-8.54C430.9,88.96,431.56,84.07,431.12,79.31z
		"/>
	<path class="st6" d="M406.99,89.52c-0.47,0-0.47,0.72,0,0.73c1.4,0.01,1.59,1.34,1.51,2.47c-0.08,1.09-0.53,1.9-1.5,2.41
		c-0.41,0.22-0.05,0.85,0.37,0.63c1.49-0.79,1.92-2.23,1.87-3.84C409.19,90.57,408.43,89.53,406.99,89.52z"/>
	<path class="st1" d="M392.28,141.43c1.94,3.32,3.5,7.51,4.41,11.9c7.05-1.82,14.22-3.25,21.21-5.25
		c3.09-4.24,6.93-7.74,11.53-10.46c0.24-0.1,0.48-0.2,0.73-0.31c-0.71-0.26-1.42-0.5-2.14-0.73c-0.09-0.31-1.84-5.13-2.97-7.07
		c-0.65-1.12-1.55-3.29-3.16-3.04c-0.92,0.14-1.85,0.72-2.69,1.08c-1.29,0.55-2.58,1.11-3.87,1.68c-2.35,1.03-4.77,1.93-7.03,3.14
		c-5.9,3.15-6.06,2.4-9.18,0.91c-1.11-0.53-1.89-0.91-2.8,0.18c-1.12,1.35-1.83,3.33-2.34,5.12c-0.95,0.37-1.89,0.73-2.81,1.1
		C391.55,140.25,391.93,140.84,392.28,141.43z"/>
	<path class="st3" d="M407.4,140c-1.48-1.43-2.76-2.92-4.25-4.34c-0.39-0.41-0.7-0.36-0.9-0.05c-1.13,1.75-2.45,3.48-3.43,5.32
		c-0.63,1.19-0.61,2.23-0.01,3.44c0.75,1.51,1.9,2.92,3.03,4.17c0.68,0.75,1.22,1.71,2.27,1.29c2.05-0.82,4.53-4.62,4.88-6.72
		C409.21,141.77,408.3,140.87,407.4,140z"/>
	<path class="st7" d="M439.37,142c-3.46-2.43-7.29-4.22-11.31-5.46c-0.09-0.31-7.08,4.22-11.21,6.42
		c-4.88,2.6-10.71,3.76-16.08,2.04c-3.37-1.08-6.28-3.12-8.27-5.89c-14.45,5.64-25.47,10.86-33.88,24.15
		c-12.93,20.42-11.51,27.44-16.51,59.23c-2.04,12.96-8.51,48.17-7.84,51.32c0.65,3.1,1,6.74,2.33,9.63c2.06,4.47,8.89,3.3,12.8,2.91
		c6.74-0.66,13.38-2.17,20.09-3.05c13.57-1.79,46.14-4.78,59.76-5.23c11.49-0.38,7.96-7.17,12.38-18.93
		c0.41-1.09,6.77-29.97,10.83-55.81C455.75,182.42,459.3,156.03,439.37,142z"/>
	<path class="st3" d="M264.68,154.23c0.6,11.7,5.91,57.96,6.01,61.14c0.05,1.72-0.41,3.96,0.72,5.38c0.24,0.3,79.15,5.53,85.86,5.58
		c1.7,0.2,2.84-0.1,2.76-1.14c-1.62-21.42-3.12-44.36-4.01-65.48c-0.01-0.32-0.18-0.85-0.37-1.04c-0.14-0.35-0.95-0.38-1.43-0.42
		c-30.88-2.52-57.39-4.02-88.36-5.06C265.31,153.17,264.65,153.62,264.68,154.23z"/>
	<path class="st8" d="M309.9,184.91c-6.08-0.39-6.69,9.06-0.6,9.45C315.38,194.74,315.99,185.3,309.9,184.91z"/>
	<path class="st3" d="M393.03,227.41c0.04-0.64-0.44-1.06-1.02-1.16c-20.96-3.71-42.12-6.2-63.37-7.39
		c-10.5-0.59-21.03-0.86-31.55-0.82c-5.26,0.02-10.52,0.12-15.78,0.29c-2.34,0.08-5.36-0.28-7.66,0.28
		c0.08-0.36,0.16-0.71,0.23-1.02c0.3-1.36-1.76-2.08-2.07-0.71c-0.58,2.6-1.14,5.86,0.79,8.06c1.08,1.23,2.55,1.51,4.11,1.72
		c2.85,0.37,5.73,0.59,8.59,0.88c11.69,1.15,23.4,2.15,35.12,2.98c23.68,1.68,47.4,2.69,71.14,3.07c0.59,0.01,1.12-0.41,1.16-1.02
		C392.83,230.84,392.93,229.13,393.03,227.41z"/>
	<path class="st4" d="M328.03,235.72c-0.21-0.39-0.6-0.7-0.88-1.04c-0.25-0.32-0.47-0.61-0.66-0.89c-0.74-3.23-0.45-6.6-0.45-9.92
		c0-2.26,0.29-6.77-2.19-7.94c-0.16-0.08-0.41-0.06-0.5,0.13c-0.46,1.02-0.39,2.05-0.4,3.16c-0.02,1.71-0.04,3.43-0.02,5.14
		c0.01,0.61,0.03,1.22,0.06,1.83c-0.65-0.83-1.35-1.63-2.03-2.41c-0.51-0.59-1.21-1.65-1.94-2.31c-1.45-2.01-2.77-4.11-3.92-6.32
		c-0.89-1.7-1.7-3.46-2.53-5.19c-0.67-1.4-0.65-2.9-1.87-3.05c-2.61-0.32,0.53,6.57,0.91,7.52c1.03,2.6,2.31,5.09,3.8,7.44
		c-0.23,0.18-0.45,0.35-0.66,0.51c-2.7-3.16-4.53-6.87-6.27-10.64c-0.33-0.71-3.35-5.82-4.18-4.09c-0.63,1.33,0.51,3.48,0.95,4.77
		c0.64,1.87,1.38,3.7,2.22,5.48c1.1,2.34,2.38,4.59,3.8,6.73c-0.21,0.14-0.41,0.28-0.61,0.42c-1.99-3.06-3.66-6.25-5.31-9.52
		c-0.3-0.59-3.83-6.89-4.74-4.73c-0.15,0.35,4.08,8.99,7.4,15.07c0.74,1.35,0.04,1-0.34,0.61c-0.46-0.6-5.58-9.6-6.77-9.02
		c-1.04,0.51,1.86,6.84,4.02,9.47c2.2,2.66,3.91,5.53,6.45,7.87c1.58,1.55,3.32,3.02,5.27,3.78c2.85,1.11,5.99,0.95,8.81,2.19
		c0.35,0.15,0.65-0.04,0.78-0.3c0.07-0.04,0.13-0.1,0.18-0.18C327.49,238.6,329.31,238.14,328.03,235.72z"/>
	<path class="st7" d="M441.26,175.38c-2.86-2.06-6.61-3.08-9.88-4.26c-4.27-1.54-8.58-2.96-12.91-4.29
		c-0.81-0.25-1.33,0.41-1.34,1.06c-0.55-0.43-1.52-0.37-1.78,0.51c-5.9,19.93-12.13,40.8-26.68,56.32
		c-6.77,7.23-15.68,13.72-25.63,15.44c-11.43,1.97-21.87-4.34-31.17-10.11c-0.53-0.33-1.16-0.08-1.49,0.39
		c-3.7,5.19-6.92,10.64-9.67,16.39c-0.27,0.57-0.12,1.12,0.39,1.49c11.32,8.24,24.42,13.89,38.24,16.27
		c13.5,2.32,27.79,1.98,39.9-5.05c11.03-6.41,19.26-16.77,25.87-27.47c7.68-12.45,13.6-26.01,17.53-40.11
		C444.18,186.45,446.88,179.43,441.26,175.38z"/>
	<path class="st3" d="M451.05,189.46c-5.16,17.01-13.59,33.21-25.84,46.21c-12.33,13.09-28.52,22.34-46.37,25.2
		c-10.14,1.62-20.57,1.05-30.39-2.01c-0.45-0.14-0.64,0.56-0.19,0.7c17.41,5.42,36.41,2.94,52.67-4.95
		c16.42-7.96,29.51-21.48,38.73-37.08c5.17-8.75,9.15-18.16,12.1-27.88C451.88,189.21,451.18,189.01,451.05,189.46z"/>
	<path class="st3" d="M430.58,145.88c-0.36-0.3-0.88,0.22-0.51,0.51c4.57,3.78,7.53,9.08,8.27,14.97c0.06,0.46,0.79,0.46,0.73,0
		C438.3,155.28,435.31,149.79,430.58,145.88z"/>
	<path class="st3" d="M437.08,166.53c-7.34,1.65-12.93,7.45-17.49,13.1c-5.07,6.27-9.15,13.26-13.2,20.22
		c-0.24,0.41,0.39,0.77,0.63,0.37c3.91-6.72,7.84-13.47,12.68-19.57c4.56-5.73,10.15-11.74,17.57-13.41
		C437.73,167.13,437.54,166.43,437.08,166.53z"/>
	<path class="st3" d="M397.54,229.02c-1.43-1.78-2.87-3.56-4.3-5.34c-0.29-0.36-0.81,0.15-0.51,0.51c1.43,1.78,2.87,3.56,4.3,5.34
		C397.32,229.9,397.83,229.38,397.54,229.02z"/>
	<path class="st3" d="M392.06,228.06c-0.14-0.44-0.85-0.25-0.7,0.19c0.62,1.91,1.08,3.86,1.37,5.85c0.07,0.46,0.77,0.27,0.7-0.19
		C393.14,231.92,392.69,229.97,392.06,228.06z"/>
	<path class="st3" d="M370.43,235.46c-6.25,2.26-12.81,4.53-19.54,3.25c-0.46-0.09-0.65,0.61-0.19,0.7
		c6.87,1.3,13.53-0.95,19.93-3.25C371.06,236.01,370.88,235.3,370.43,235.46z"/>
	<path class="st1" d="M527.81,499.36c-4.09-5.9-8.92-11.4-10.72-18.52c-1.35-5.36-2.13-13.16-8.74-14.68
		c-5.99-1.37-10.24,4.19-12.37,8.94c-3.32,7.41-6.32,14.67-12.45,20.29c-5.41,4.96-12.99,8.65-16.13,15.67
		c-2.28,5.1,3.94,11.1,11.45,12.54c4.23,0.81,8.71-0.18,13.02-0.29c8.34-0.22,16.82-0.03,25.11-1.13
		c4.86-0.64,13.97-1.87,16.24-7.16C535.37,510,530.49,503.24,527.81,499.36z"/>
	<path class="st1" d="M508.09,397.31c-0.1-0.78-0.95-4.35-2.35-3.18c-0.08,0.05-0.15,0.12-0.21,0.2c-0.01,0.01-0.01,0.01-0.02,0.02
		c-0.31,0.36-0.45,0.92-0.51,1.49c-0.06,0.09-0.11,0.2-0.12,0.33c-0.06,0.65-0.09,1.31-0.07,1.96c-0.03,1.04,0.06,2.09,0.28,3.14
		c0.06,0.29,0.24,0.43,0.46,0.49c0.16,0.19,0.36,0.34,0.65,0.4C508.34,402.64,508.23,398.44,508.09,397.31z"/>
	<path class="st1" d="M508.6,437.94c-0.03-0.02-0.05-0.04-0.08-0.06c-0.02-0.07-0.03-0.15-0.06-0.22c-0.18-0.6-1-0.72-1.33-0.17
		c-0.31,0.51-0.51,1.07-0.6,1.64c-0.27,0.86-0.28,1.77-0.04,2.64c0.18,0.64,0.99,0.68,1.33,0.17c0.02-0.04,0.04-0.07,0.07-0.11
		c0.58-0.37,0.92-0.96,1.06-1.67C509.07,439.47,509.19,438.48,508.6,437.94z"/>
	<path class="st1" d="M204.26,101.64c13.87,1.25,27.74,2.51,41.61,3.76c-0.14-0.26-0.29-0.51-0.47-0.77
		c-13.81-1.25-27.61-2.5-41.42-3.75C204.04,101.13,204.14,101.39,204.26,101.64z"/>
</g>
</svg>
