<?xml version="1.0" encoding="utf-8"?>
<!-- Generator: Adobe Illustrator 24.1.3, SVG Export Plug-In . SVG Version: 6.00 Build 0)  -->
<svg version="1.1" id="레이어_1" xmlns="http://www.w3.org/2000/svg" xmlns:xlink="http://www.w3.org/1999/xlink" x="0px"
	 y="0px" viewBox="0 0 841.89 595.28" style="enable-background:new 0 0 841.89 595.28;" xml:space="preserve">
<style type="text/css">
	.st0{fill:#FFFFFF;}
	.st1{fill:#76A7D0;}
	.st2{fill:#1F2043;}
	.st3{fill:#F3E3D4;}
	.st4{fill:#434884;}
	.st5{fill:#E0AC5C;}
	.st6{fill:#EF9F8F;}
	.st7{fill:#EE9481;}
	.st8{fill:#D2715C;}
	.st9{fill:#D9C4B5;}
	.st10{fill:#C18F42;}
</style>
<path class="st0" d="M-1859.94,744.26"/>
<g>
	<g>
		<path class="st1" d="M308.36,288.97c3.23,38.94,31.2,72.46,59.93,96.31c55.54,46.11,98.65,61.09,100.35,61.45
			c3.12,0.66,7.31-1.49,7.64-4.96c0.44-4.57,0.77-9.15,0.93-13.73c1.26-35.69-7.3-71.33-23.29-103.15
			c-7.94-15.8-17.86-30.49-29.48-43.81c-11.96-13.71-25.8-26.79-41.79-35.69c-15.57-8.67-34.74-12.25-51.37-4.29
			c-7.91,3.78-14.72,9.67-18.56,17.69C308.31,268,307.52,278.89,308.36,288.97z"/>
		<path class="st1" d="M322.16,450.23c13.11,20.07,37.99,29.99,60.45,34.47c43.42,8.67,71.06,4.16,72.08,3.86
			c1.88-0.55,3.51-2.94,2.68-4.91c-1.1-2.59-2.26-5.16-3.51-7.68c-9.74-19.62-24.76-36.35-42.68-48.86
			c-8.89-6.21-18.54-11.24-28.69-15.03c-10.45-3.91-21.74-6.92-32.96-7.06c-10.93-0.14-22.32,3.53-28.97,12.68
			c-3.16,4.35-5.12,9.51-4.85,14.96C316.01,438.93,318.76,445.03,322.16,450.23z"/>
		<path class="st2" d="M320.17,247.79c16.64,15.67,33.04,31.6,48.82,48.14c15.63,16.37,30.66,33.34,44.65,51.14
			c14.11,17.95,27.15,36.75,38.58,56.52c11.23,19.43,20.93,39.77,28.53,60.89c7.56,21.02,13.03,42.83,15.78,65.01
			c0.35,2.8,0.65,5.6,0.91,8.41c0.04,0.45-0.65,0.51-0.69,0.06c-2.09-22.41-6.97-44.5-14.08-65.84
			c-7.14-21.43-16.48-42.1-27.44-61.84c-10.92-19.68-23.46-38.42-37.11-56.31c-13.82-18.12-28.75-35.37-44.33-51.99
			c-15.42-16.44-31.49-32.27-47.83-47.79c-2.07-1.97-4.15-3.93-6.22-5.88C319.39,248.02,319.84,247.48,320.17,247.79z"/>
		<path class="st2" d="M319.38,423.63c29,4.17,57.31,12.85,83.65,25.69c13.23,6.45,26.22,13.79,37.93,22.73
			c10.52,8.03,19.97,17.44,28.08,27.91c8.94,11.55,16.19,24.33,21.52,37.92c0.16,0.42-0.51,0.6-0.67,0.19
			c-9.63-24.56-25.69-46.47-46.23-63.03c-11.27-9.08-23.89-16.48-36.77-23.02c-13.02-6.61-26.55-12.21-40.43-16.72
			c-15.41-5.01-31.23-8.68-47.27-10.99C318.75,424.24,318.94,423.56,319.38,423.63z"/>
		<path class="st2" d="M451.89,495.62c15.56-0.03,51.18-0.55,62.07-0.64c1.01-0.01,1.67-0.76,1.52,0.56
			c-0.83,6.86-1.65,13.72-2.84,20.49c-0.9,5.14-1.76,11.08-4.03,15.52c-2.12,4.14-5.4,5.35-9,5.59c-5.22,0.35-10.47,0.25-15.69,0.36
			c-4.76,0.1-9.79,0.82-14.52-0.01c-3.81-0.68-6.5-3.36-8.5-7.64c-2.49-5.34-4.38-11.37-6.23-17.14c-1.96-6.1-2.94-10.12-4.28-16.52
			C450.1,494.88,450.87,495.62,451.89,495.62z"/>
	</g>
	<polygon class="st2" points="256.39,537.86 249.43,537.4 317.57,211.24 324.53,211.7 	"/>
	<polygon class="st2" points="453.91,535.07 460.87,534.61 392.72,208.45 385.76,208.91 	"/>
	<g>
		<path class="st3" d="M501.64,287.38H198.87c-2.83,0-5.12-2.39-5.12-5.35l-4.28-238.96c0-2.95,2.29-5.35,5.12-5.35h302.78
			c2.83,0,5.12,2.39,5.12,5.35l4.28,238.96C506.76,284.98,504.47,287.38,501.64,287.38z"/>
		<path class="st0" d="M371.82,70.39c0.01-0.58-0.49-1.02-1.05-1.05c-12.06-0.46-47.54-0.47-50.33-0.58
			c-2.29-0.09-1.82,2.01-1.81,2.39c0.11,8.4,0.09,33.12,0.42,37.19c0.14,1.81,0.42,2.71,2.28,3.17c3.52,0.86,38.91,0.72,47.62,0.81
			c2.76,0.03,2.62-0.73,2.76-5.38C372.31,87.58,371.52,84.45,371.82,70.39z"/>
		<path class="st0" d="M463,71.64c0.01-0.58-0.49-1.02-1.05-1.05c-12.06-0.46-47.54-0.47-50.33-0.58c-2.29-0.09-1.82,2.01-1.81,2.39
			c0.11,8.4,0.09,33.12,0.42,37.19c0.14,1.81,0.42,2.71,2.28,3.17c3.52,0.86,38.91,0.72,47.62,0.81c2.76,0.03,2.62-0.73,2.76-5.38
			C463.49,88.83,462.71,85.7,463,71.64z"/>
		<path class="st0" d="M379.66,181.17c0.01-0.58-0.49-1.02-1.05-1.05c-12.06-0.46-47.54-0.47-50.33-0.58
			c-2.29-0.09-1.82,2.01-1.81,2.39c0.11,8.4,0.09,33.12,0.42,37.19c0.14,1.81,0.42,2.71,2.28,3.17c3.52,0.86,38.91,0.72,47.62,0.81
			c2.76,0.03,2.62-0.73,2.76-5.38C380.15,198.36,379.37,195.23,379.66,181.17z"/>
		<path class="st0" d="M286.22,181.76c0.01-0.58-0.49-1.02-1.05-1.05c-12.06-0.46-47.54-0.47-50.33-0.58
			c-2.29-0.09-1.82,2.01-1.81,2.39c0.11,8.4,0.09,33.12,0.42,37.19c0.14,1.81,0.42,2.71,2.28,3.17c3.52,0.86,38.91,0.72,47.62,0.81
			c2.76,0.03,2.62-0.73,2.76-5.38C286.71,198.95,285.92,195.82,286.22,181.76z"/>
		<path class="st0" d="M281.58,71.99c0.01-0.58-0.49-1.02-1.05-1.05c-12.06-0.46-47.54-0.47-50.33-0.58
			c-2.29-0.09-1.82,2.01-1.81,2.39c0.11,8.4,0.09,33.12,0.42,37.19c0.14,1.81,0.42,2.71,2.28,3.17c3.52,0.86,38.91,0.72,47.62,0.81
			c2.76,0.03,2.62-0.73,2.76-5.38C282.07,89.18,281.29,86.05,281.58,71.99z"/>
		<path class="st0" d="M467.76,182.8c0.01-0.58-0.49-1.02-1.05-1.05c-12.06-0.46-47.54-0.47-50.33-0.58
			c-2.29-0.09-1.82,2.01-1.81,2.39c0.11,8.4,0.09,33.12,0.42,37.19c0.14,1.81,0.42,2.71,2.28,3.17c3.52,0.86,38.91,0.72,47.62,0.81
			c2.76,0.03,2.62-0.73,2.76-5.38C468.25,199.99,467.46,196.86,467.76,182.8z"/>
		<path class="st0" d="M344.74,70.78c-1.46,1.7-2.78,3.49-3.96,5.39c-0.24,0.38,0.36,0.73,0.6,0.35c1.15-1.85,2.44-3.6,3.85-5.25
			C345.52,70.94,345.03,70.44,344.74,70.78z"/>
		<path class="st1" d="M351.43,66.11c-0.74-0.61-2.39-1.72-3.56-2.43c-0.26-0.16-0.42,0.18-0.65,0.55c-0.46,0.71-1.54,2.31-2,3.01
			c-0.29-0.06-3.7,0.06-3.97,1.29c-0.15,0.69,0.42,2.27,0.84,2.89c1.09,1.63,5.32,4.12,6.31,2.54c0.64-1.02,0.44-3.89,0.42-3.95
			c0.9-1.15,1.79-2.31,2.67-3.48C351.57,66.42,351.54,66.2,351.43,66.11z"/>
		<path class="st0" d="M360.81,184.75c-1.46,1.7-2.78,3.49-3.96,5.39c-0.24,0.38,0.36,0.73,0.6,0.35c1.15-1.85,2.44-3.6,3.85-5.25
			C361.59,184.9,361.1,184.4,360.81,184.75z"/>
		<path class="st1" d="M364.94,175.65c-0.74-0.61-2.39-1.72-3.56-2.43c-0.26-0.16-0.42,0.18-0.65,0.55c-0.46,0.71-1.54,2.31-2,3.01
			c-0.29-0.06-3.7,0.06-3.97,1.29c-0.15,0.69,0.42,2.27,0.84,2.89c1.09,1.63,5.32,4.12,6.31,2.54c0.64-1.02,0.44-3.89,0.42-3.95
			c0.9-1.15,1.79-2.31,2.67-3.48C365.08,175.96,365.05,175.74,364.94,175.65z"/>
		<path class="st0" d="M264.11,179.17c-1.46,1.7-2.78,3.49-3.96,5.39c-0.24,0.38,0.36,0.73,0.6,0.35c1.15-1.85,2.44-3.6,3.85-5.25
			C264.89,179.33,264.4,178.83,264.11,179.17z"/>
		<path class="st1" d="M270.8,174.5c-0.74-0.61-2.39-1.72-3.56-2.43c-0.26-0.16-0.42,0.18-0.65,0.55c-0.46,0.71-1.54,2.31-2,3.01
			c-0.29-0.06-3.7,0.06-3.97,1.29c-0.15,0.69,0.42,2.27,0.84,2.89c1.09,1.63,5.32,4.12,6.31,2.54c0.64-1.02,0.44-3.89,0.42-3.95
			c0.9-1.15,1.79-2.31,2.67-3.48C270.94,174.81,270.91,174.59,270.8,174.5z"/>
		<path class="st0" d="M434.88,71.8c-1.46,1.7-2.78,3.49-3.96,5.39c-0.24,0.38,0.36,0.73,0.6,0.35c1.15-1.85,2.44-3.6,3.85-5.25
			C435.66,71.96,435.17,71.46,434.88,71.8z"/>
		<path class="st1" d="M441.57,67.13c-0.74-0.61-2.39-1.72-3.56-2.43c-0.26-0.16-0.42,0.18-0.65,0.55c-0.46,0.71-1.54,2.31-2,3.01
			c-0.29-0.06-3.7,0.06-3.97,1.29c-0.15,0.69,0.42,2.27,0.84,2.89c1.09,1.63,5.32,4.12,6.31,2.54c0.64-1.02,0.44-3.89,0.42-3.95
			c0.9-1.15,1.79-2.31,2.67-3.48C441.71,67.44,441.68,67.22,441.57,67.13z"/>
		<path class="st0" d="M443.7,181.41c-1.46,1.7-2.78,3.49-3.96,5.39c-0.24,0.38,0.36,0.73,0.6,0.35c1.15-1.85,2.44-3.6,3.85-5.25
			C444.49,181.57,443.99,181.07,443.7,181.41z"/>
		<path class="st1" d="M450.4,176.74c-0.74-0.61-2.39-1.72-3.56-2.43c-0.26-0.16-0.42,0.18-0.65,0.55c-0.46,0.71-1.54,2.31-2,3.01
			c-0.29-0.06-3.7,0.06-3.97,1.29c-0.15,0.69,0.42,2.27,0.84,2.89c1.09,1.63,5.32,4.12,6.31,2.54c0.64-1.02,0.44-3.89,0.42-3.95
			c0.9-1.15,1.79-2.31,2.67-3.48C450.54,177.05,450.51,176.83,450.4,176.74z"/>
		<path class="st0" d="M258.08,70.92c-1.46,1.7-2.78,3.49-3.96,5.39c-0.24,0.38,0.36,0.73,0.6,0.35c1.15-1.85,2.44-3.6,3.85-5.25
			C258.86,71.07,258.37,70.58,258.08,70.92z"/>
		<path class="st1" d="M264.77,66.25c-0.74-0.61-2.39-1.72-3.56-2.43c-0.26-0.16-0.42,0.18-0.65,0.55c-0.46,0.71-1.54,2.31-2,3.01
			c-0.29-0.06-3.7,0.06-3.97,1.29c-0.15,0.69,0.42,2.27,0.84,2.89c1.09,1.63,5.32,4.12,6.31,2.54c0.64-1.02,0.44-3.89,0.42-3.95
			c0.9-1.15,1.79-2.31,2.67-3.48C264.91,66.55,264.88,66.33,264.77,66.25z"/>
		<path class="st2" d="M275.29,85.21c-28.59-0.38-10.88-0.07-39.48-0.45c-0.45-0.01-0.45,0.69,0,0.7
			c28.59,0.38,10.88,0.07,39.48,0.45C275.74,85.92,275.74,85.22,275.29,85.21z"/>
		<path class="st2" d="M279.93,194.16c-28.59-0.38-10.88-0.07-39.48-0.45c-0.45-0.01-0.45,0.69,0,0.7
			c28.59,0.38,10.88,0.07,39.48,0.45C280.38,194.87,280.38,194.17,279.93,194.16z"/>
		<path class="st2" d="M279.76,208.63c-28.59-0.38-10.88-0.07-39.48-0.45c-0.45-0.01-0.45,0.69,0,0.7
			c28.59,0.38,10.88,0.07,39.48,0.45C280.21,209.34,280.21,208.64,279.76,208.63z"/>
		<path class="st2" d="M353.76,82.01c-28.59-0.38,1.58,0.02-27.01-0.36c-0.45-0.01-0.45,0.69,0,0.7c28.59,0.38-1.58-0.02,27.01,0.36
			C354.21,82.72,354.21,82.02,353.76,82.01z"/>
		<path class="st2" d="M366.75,193.84c-28.59-0.38,1.58,0.02-27.01-0.36c-0.45-0.01-0.45,0.69,0,0.7
			c28.59,0.38-1.58-0.02,27.01,0.36C367.2,194.54,367.2,193.85,366.75,193.84z"/>
		<path class="st2" d="M366.92,199.51c-28.59-0.38,1.58,0.02-27.01-0.36c-0.45-0.01-0.45,0.69,0,0.7
			c28.59,0.38-1.58-0.02,27.01,0.36C367.37,200.21,367.37,199.51,366.92,199.51z"/>
		<path class="st2" d="M367.1,206.3c-28.59-0.38,1.58,0.02-27.01-0.36c-0.45-0.01-0.45,0.69,0,0.7c28.59,0.38-1.58-0.02,27.01,0.36
			C367.55,207.01,367.55,206.31,367.1,206.3z"/>
		<path class="st2" d="M454.49,85.53c-38.3-0.38,2.12,0.02-36.18-0.36c-0.6-0.01-0.6,0.69,0,0.7c38.3,0.38-2.12-0.02,36.18,0.36
			C455.09,86.23,455.09,85.54,454.49,85.53z"/>
		<path class="st2" d="M454.72,91.54c-38.3-0.38,2.12,0.02-36.18-0.36c-0.6-0.01-0.6,0.69,0,0.7c38.3,0.38-2.12-0.02,36.18,0.36
			C455.32,92.25,455.32,91.55,454.72,91.54z"/>
		<path class="st2" d="M454.32,106.89c-38.3-0.38,2.12,0.02-36.18-0.36c-0.6-0.01-0.6,0.69,0,0.7c38.3,0.38-2.12-0.02,36.18,0.36
			C454.92,107.59,454.92,106.89,454.32,106.89z"/>
		<path class="st2" d="M365.59,105.4c-28.59-0.38-10.88-0.07-39.48-0.45c-0.45-0.01-0.45,0.69,0,0.7
			c28.59,0.38,10.88,0.07,39.48,0.45C366.03,106.11,366.03,105.41,365.59,105.4z"/>
		<path class="st2" d="M453.77,194.78c-28.59-0.38,1.58,0.02-27.01-0.36c-0.45-0.01-0.45,0.69,0,0.7
			c28.59,0.38-1.58-0.02,27.01,0.36C454.22,195.48,454.22,194.78,453.77,194.78z"/>
		<path class="st0" d="M282.35,127.79c0-0.33-0.18-0.59-0.38-0.6c-4.42-0.26-17.42-0.27-18.44-0.33c-0.84-0.05-0.67,1.15-0.66,1.37
			c0.04,4.8,0.03,15.78,0.15,18.11c0.05,1.03,0.15,1.55,0.83,1.81c1.29,0.49,14.26,0.41,17.45,0.46c1.01,0.02,0.96-0.42,1.01-3.07
			C282.53,134.46,282.24,135.83,282.35,127.79z"/>
		<path class="st0" d="M381.25,237.33c0-0.33-0.18-0.59-0.38-0.6c-4.42-0.26-17.42-0.27-18.44-0.33c-0.84-0.05-0.67,1.15-0.66,1.37
			c0.04,4.8,0.03,15.78,0.15,18.11c0.05,1.03,0.15,1.55,0.83,1.81c1.29,0.49,14.26,0.41,17.45,0.46c1.01,0.02,0.96-0.42,1.01-3.07
			C381.43,244,381.14,245.37,381.25,237.33z"/>
		<path class="st4" d="M375.45,125.58c0-0.33-0.18-0.59-0.38-0.6c-4.42-0.26-17.42-0.27-18.44-0.33c-0.84-0.05-0.67,1.15-0.66,1.37
			c0.04,4.8,0.03,15.78,0.15,18.11c0.05,1.03,0.15,1.55,0.83,1.81c1.29,0.49,14.26,0.41,17.45,0.46c1.01,0.02,0.96-0.42,1.01-3.07
			C375.63,132.25,375.34,133.62,375.45,125.58z"/>
		<path class="st5" d="M251.2,126.39c0-0.33-0.18-0.59-0.38-0.6c-4.42-0.26-17.42-0.27-18.44-0.33c-0.84-0.05-0.67,1.15-0.66,1.37
			c0.04,4.8,0.03,15.78,0.15,18.11c0.05,1.03,0.15,1.55,0.83,1.81c1.29,0.49,14.26,0.41,17.45,0.46c1.01,0.02,0.96-0.42,1.01-3.07
			C251.38,133.07,251.09,134.43,251.2,126.39z"/>
		<path class="st2" d="M280.01,131.48c-4.77,0-9.53,0-14.3-0.01c-0.45,0-0.45,0.7,0,0.7c4.77,0,9.53,0,14.3,0.01
			C280.46,132.18,280.46,131.48,280.01,131.48z"/>
		<path class="st2" d="M358.87,129.1c4.77,0,9.53,0,14.3,0.01c0.45,0,0.45-0.7,0-0.7c-4.77,0-9.53-0.01-14.3-0.01
			C358.42,128.4,358.42,129.1,358.87,129.1z M373.17,134.1c-4.77,0-9.53,0-14.3-0.01c-0.45,0-0.45,0.7,0,0.7
			c4.77,0,9.53,0,14.3,0.01C373.62,134.8,373.62,134.1,373.17,134.1z"/>
		<path class="st5" d="M351.61,236.51c0-0.33-0.18-0.59-0.38-0.6c-4.42-0.26-17.42-0.27-18.44-0.33c-0.84-0.05-0.67,1.15-0.66,1.37
			c0.04,4.8,0.03,15.78,0.15,18.11c0.05,1.03,0.15,1.55,0.83,1.81c1.29,0.49,14.26,0.41,17.45,0.46c1.01,0.02,0.96-0.42,1.01-3.07
			C351.79,243.19,351.5,244.55,351.61,236.51z"/>
		<path class="st2" d="M335.03,240.03c4.77,0,9.53,0,14.3,0.01c0.45,0,0.45-0.7,0-0.7c-4.77,0-9.53,0-14.3-0.01
			C334.58,239.33,334.58,240.03,335.03,240.03z M349.33,245.04c-4.77,0-9.53,0-14.3-0.01c-0.45,0-0.45,0.7,0,0.7
			c4.77,0,9.53,0,14.3,0.01C349.77,245.73,349.77,245.04,349.33,245.04z"/>
		<path class="st1" d="M288.03,236.51c0-0.33-0.18-0.59-0.38-0.6c-4.42-0.26-17.42-0.27-18.44-0.33c-0.84-0.05-0.67,1.15-0.66,1.37
			c0.04,4.8,0.03,15.78,0.15,18.11c0.05,1.03,0.15,1.55,0.83,1.81c1.29,0.49,14.26,0.41,17.45,0.46c1.01,0.02,0.96-0.42,1.01-3.07
			C288.21,243.19,287.92,244.55,288.03,236.51z"/>
		<path class="st2" d="M271.45,240.03c4.77,0,9.53,0,14.3,0.01c0.45,0,0.45-0.7,0-0.7c-4.77,0-9.53,0-14.3-0.01
			C271,239.33,271,240.03,271.45,240.03z M285.75,245.04c-4.77,0-9.53,0-14.3-0.01c-0.45,0-0.45,0.7,0,0.7c4.77,0,9.53,0,14.3,0.01
			C286.2,245.73,286.2,245.04,285.75,245.04z"/>
		<path class="st1" d="M258.74,236.51c0-0.33-0.18-0.59-0.38-0.6c-4.42-0.26-17.42-0.27-18.44-0.33c-0.84-0.05-0.67,1.15-0.66,1.37
			c0.04,4.8,0.03,15.78,0.15,18.11c0.05,1.03,0.15,1.55,0.83,1.81c1.29,0.49,14.26,0.41,17.45,0.46c1.01,0.02,0.96-0.42,1.01-3.07
			C258.92,243.19,258.63,244.55,258.74,236.51z"/>
		<path class="st2" d="M242.16,240.03c4.77,0,9.53,0,14.3,0.01c0.45,0,0.45-0.7,0-0.7c-4.77,0-9.53,0-14.3-0.01
			C241.71,239.33,241.71,240.03,242.16,240.03z M256.46,245.04c-4.77,0-9.53,0-14.3-0.01c-0.45,0-0.45,0.7,0,0.7
			c4.77,0,9.53,0,14.3,0.01C256.91,245.73,256.91,245.04,256.46,245.04z"/>
		<path class="st4" d="M347.56,125.93c0-0.33-0.18-0.59-0.38-0.6c-4.42-0.26-17.42-0.27-18.44-0.33c-0.84-0.05-0.67,1.15-0.66,1.37
			c0.04,4.8,0.03,15.78,0.15,18.11c0.05,1.03,0.15,1.55,0.83,1.81c1.29,0.49,14.26,0.41,17.45,0.46c1.01,0.02,0.96-0.42,1.01-3.07
			C347.74,132.6,347.45,133.97,347.56,125.93z"/>
		<path class="st2" d="M330.98,129.45c4.77,0,9.53,0,14.3,0.01c0.45,0,0.45-0.7,0-0.7c-4.77,0-9.53-0.01-14.3-0.01
			C330.53,128.75,330.53,129.44,330.98,129.45z M345.27,134.45c-4.77,0-9.53,0-14.3-0.01c-0.45,0-0.45,0.7,0,0.7
			c4.77,0,9.53,0,14.3,0.01C345.72,135.15,345.72,134.45,345.27,134.45z"/>
		<path class="st5" d="M437.17,128.37c0-0.33-0.18-0.59-0.38-0.6c-4.42-0.26-17.42-0.27-18.44-0.33c-0.84-0.05-0.67,1.15-0.66,1.37
			c0.04,4.8,0.03,15.78,0.15,18.11c0.05,1.03,0.15,1.55,0.83,1.81c1.29,0.49,14.26,0.41,17.45,0.46c1.01,0.02,0.96-0.42,1.01-3.07
			C437.35,135.04,437.06,136.41,437.17,128.37z"/>
		<path class="st2" d="M420.59,131.89c4.77,0,9.53,0,14.3,0.01c0.45,0,0.45-0.7,0-0.7c-4.77,0-9.53-0.01-14.3-0.01
			C420.14,131.19,420.14,131.89,420.59,131.89z M434.89,136.89c-4.77,0-9.53,0-14.3-0.01c-0.45,0-0.45,0.7,0,0.7
			c4.77,0,9.53,0,14.3,0.01C435.33,137.59,435.33,136.89,434.89,136.89z"/>
		<path class="st5" d="M465.76,128.72c0-0.33-0.18-0.59-0.38-0.6c-4.42-0.26-17.42-0.27-18.44-0.33c-0.84-0.05-0.67,1.15-0.66,1.37
			c0.04,4.8,0.03,15.78,0.15,18.11c0.05,1.03,0.15,1.55,0.83,1.81c1.29,0.49,14.26,0.41,17.45,0.46c1.01,0.02,0.96-0.42,1.01-3.07
			C465.94,135.39,465.65,136.76,465.76,128.72z"/>
		<path class="st2" d="M449.18,132.23c4.77,0,9.53,0,14.3,0.01c0.45,0,0.45-0.7,0-0.7c-4.77,0-9.53-0.01-14.3-0.01
			C448.73,131.54,448.73,132.23,449.18,132.23z M463.48,137.24c-4.77,0-9.53,0-14.3-0.01c-0.45,0-0.45,0.7,0,0.7
			c4.77,0,9.53,0,14.3,0.01C463.93,137.94,463.93,137.24,463.48,137.24z"/>
		<path class="st2" d="M364.32,240.84c4.77,0,9.53,0,14.3,0.01c0.45,0,0.45-0.7,0-0.7c-4.77,0-9.53-0.01-14.3-0.01
			C363.87,240.15,363.87,240.84,364.32,240.84z M378.61,245.85c-4.77,0-9.53,0-14.3-0.01c-0.45,0-0.45,0.7,0,0.7
			c4.77,0,9.53,0,14.3,0.01C379.06,246.55,379.06,245.85,378.61,245.85z M378.88,251.52c-4.77,0-9.53,0-14.3-0.01
			c-0.45,0-0.45,0.7,0,0.7c4.77,0,9.53,0,14.3,0.01C379.33,252.21,379.33,251.52,378.88,251.52z"/>
		<path class="st2" d="M249.78,135.66c-4.77,0-9.53-0.01-14.3-0.01c-0.45,0-0.45,0.7,0,0.7c4.77,0,9.53,0,14.3,0.01
			C250.23,136.35,250.23,135.66,249.78,135.66z M235.56,131.33c3.22,0,6.43,0,9.65,0.01c0.3,0,0.3-0.7,0-0.7
			c-3.22,0-6.43-0.01-9.65-0.01C235.26,130.64,235.26,131.33,235.56,131.33z"/>
	</g>
	<g>
		<path class="st6" d="M590.38,170.2c-0.39-0.23-0.79-0.45-1.19-0.67c-0.2-0.3-0.44-0.56-0.76-0.76c-4.58-2.97-9.58-4.82-14.77-5.9
			c-9.04-2.76-18.57-3.91-28.04-3.29c-7.57,0.49-15.11,2.04-22.2,4.75c-2.7,1.03-6.92,2.14-7.82,5.33c-0.2,0.72-0.19,1.45-0.02,2.12
			c-0.4,0.81-0.28,1.76,0.18,2.54c-0.6,0.7-1.04,1.52-1.21,2.53c-0.33,2.03,1.21,4.04,3.43,3.43c0.98-0.27,1.96-0.53,2.94-0.8
			c3.45,3.78,7.32,7.16,11.56,10.02c0.59,1.7,2.34,2.96,4.17,2.66c2.33,1.44,5.21,3.1,7.99,3.84c0.49,2.17,3.37,3.74,5.62,2.73
			c1.11,1.41,2.98,2.13,4.72,0.81c0.26-0.2,0.51-0.41,0.77-0.61c0,0,0,0,0,0.01c0.02-0.02,0.04-0.04,0.06-0.05
			c3.81-2.95,7.38-6.11,10.7-9.52c3.47-2.65,6.83-5.43,10.08-8.36c1.91-1.73,1.1-4.53-0.61-5.9c-0.08-0.14-0.17-0.27-0.27-0.39
			c4.43,0.24,8.85,0.48,13.27,0.68C591.79,175.52,592.69,171.56,590.38,170.2z M536.84,182.09c-0.23,0.21-0.46,0.41-0.69,0.63
			c-0.3-0.21-0.6-0.43-0.9-0.64c0.25-0.01,0.49-0.04,0.74-0.06C536.27,182.04,536.55,182.07,536.84,182.09z"/>
		<path class="st2" d="M584.23,148.95c-0.57-3.83-0.12-7.71-1.5-11.41c-0.75-2.02-1.72-3.85-1.89-6.04
			c-0.16-2.04,0.15-4.1,0.19-6.14c0.07-3.43-0.28-6.89-1.09-10.23c-3.08-12.75-13.7-23.49-27.36-22.9c-0.25,0-0.38-0.02-0.55-0.03
			c-13.76-0.71-24.6,9.93-27.7,22.75c-0.81,3.34-1.16,6.8-1.09,10.23c0.04,2.04,0.35,4.1,0.19,6.14c-0.17,2.19-1.14,4.02-1.89,6.04
			c-1.38,3.7-0.93,7.57-1.5,11.41c-0.5,3.34-2.55,6.36-1.63,9.77c0.08,0.28,0.37,0.53,0.67,0.51c7.2-0.5,14.27,1.52,21.06-1.39
			c3.74-1.6,11.81-2.21,11.85-7.45c0.09,0,0.17,0,0.26-0.01c-0.15,5.42,8.07,6.02,11.85,7.64c6.79,2.91,13.87,0.88,21.06,1.39
			c0.3,0.02,0.6-0.23,0.67-0.51C586.79,155.31,584.73,152.29,584.23,148.95z"/>
		<path class="st7" d="M666.51,171.65c-0.2,0.03-0.38,0.1-0.54,0.18c0.21-1.8-2.41-3.04-3.19-1.15
			c-5.85,14.02-12.36,29.62-26.54,37.07c-6.23,3.28-27.95,6.91-34.61-23.03c-0.16-0.71-5.92,9.84-6.5,10.25
			c-2.65,1.86-5.31,3.72-7.96,5.57c-1.79,1.26-4.76,2.64-5.65,4.82c-1.42,3.48-1.79-2.79,0,0c21.42,33.35,49.85,26.85,58.95,21.77
			c9.32-5.2,16.4-16.44,20.93-25.79c2.84-5.86,5.05-12.06,6.57-18.39C668.44,180.98,671.72,170.84,666.51,171.65z"/>
		<path class="st6" d="M504.53,399.74c0.14,25.07,11.11,110.78,11.26,135.85c0,0.83,0.55,1.4,1.28,1.68
			c4.07,1.59,7.15-1.84,8.12-5.48c1.68-6.31,2.16-13.24,3.11-19.69c3.41-23.26,5.29-46.6,6.74-70.06
			c1.49-24.14,4.02-48.19,7.73-72.09c0.34-2.2-3.02-3.14-3.36-0.93c-0.16,1.05-0.32,2.09-0.48,3.14c-4.48,0.3-9.28,0.79-13.18,3.19
			c-4.2,2.59-9.84-18.51-10.78-13.87C510.1,385.72,504.39,375.18,504.53,399.74z"/>
		<path class="st6" d="M507.13,557.33c1.45,0.35,3.6-0.58,4.94-0.97c1.99-0.58,4.12-1.2,6.01-2.07c3.02-1.39,4.49-7.46,6.36-10.07
			c2.51-3.51,2.57-3.82,2.04-8c-0.71-5.54-0.15-10.87,0.65-16.38c0.13-0.88-1.22-1.25-1.35-0.37c-0.4,2.75-0.8,5.52-0.98,8.29
			c-0.06,0-0.12-0.02-0.18-0.01c-3.28,0.53-8.94,1.23-8.93,5.59c0.02,7.24-9.43,15.39-9.81,18.92
			C505.7,553.95,504.84,556.78,507.13,557.33z"/>
		<path class="st2" d="M504.27,559.61c0.7,0.64,2.04,0.14,2.81,0.01c2.47-0.4,4.96-0.79,7.41-1.26c3.17-0.62,5.46-1.75,6.81-4.8
			c0.95-2.14,1.71-4.24,2.56-6.3l0.28,5.6c0.01,0.18,0.16,0.36,0.35,0.35c0.53-0.03,1.03-0.1,1.55-0.19
			c0.14-0.03,0.26-0.2,0.25-0.34c-0.25-4.07,0.13-8.1,1.12-12.05c0.35-0.75-0.79-1.45-1.32-0.71c-1.01,1.42-1.93,2.88-2.75,4.4
			c-0.8,1.48-1.49,3.02-2.07,4.62c-0.18,0.49-0.33,1.01-0.48,1.52c-0.03,0-0.04-0.02-0.07-0.02c-4.95-0.43-9.1-0.83-14.04-0.34
			c-0.24,0.02-0.5,0.26-0.56,0.49C505.67,552.22,502.7,558.19,504.27,559.61z"/>
		<path class="st6" d="M549.47,397.59c0.06,25.07,10.75,110.82,10.81,135.89c0,0.83,0.54,1.4,1.27,1.69
			c4.06,1.61,7.15-1.82,8.14-5.45c1.71-6.3,2.21-13.23,3.17-19.68c3.49-23.25,5.45-46.58,6.97-70.03
			c1.57-24.14,4.17-48.18,7.97-72.07c0.35-2.2-3.01-3.15-3.36-0.94c-0.17,1.05-0.32,2.09-0.49,3.14c-4.48,0.29-9.28,0.76-13.19,3.14
			c-4.21,2.58-9.78-18.54-10.73-13.9C555.08,383.59,549.41,373.03,549.47,397.59z"/>
		<path class="st3" d="M593.35,303.84c-4.68-22.01-8.18-26.21-8.51-35.26c-0.1-2.77,1.5-13.26,0.35-15.87
			c-1.27-2.88-72.52-3.06-72.64-2.96c-0.33-1.79,0.34,13.73,0.23,15.81c-0.57,11.57-4.77,16.32-7.44,27.43
			c-2.7,11.26-16.74,112.62-11.08,154.12c0.13,0.95,0.79,1.72,1.75,1.74c20.71,0.49,46.72,0.87,70.94,1.14
			c2.39-11.72,6.35-59.28,9.54-70.84c0.29-1.05,1.6-1.09,2.17-0.28c3.21,4.52-1.92,60.66-2.07,71.03
			c6.25,0.06,18.61,0.36,24.22,0.41c1.01,0.01,1.72-0.81,1.74-1.75C603.2,410.84,601.29,341.22,593.35,303.84z"/>
		<path class="st6" d="M551.55,555.19c1.45,0.36,3.6-0.57,4.95-0.96c1.99-0.57,4.13-1.19,6.01-2.05c3.02-1.38,4.52-7.44,6.4-10.05
			c2.52-3.5,2.58-3.81,2.06-7.99c-0.69-5.55-0.11-10.87,0.71-16.38c0.13-0.88-1.21-1.26-1.34-0.37c-0.41,2.75-0.82,5.51-1.01,8.29
			c-0.06,0-0.12-0.02-0.18-0.01c-3.29,0.52-8.95,1.21-8.95,5.56c0,7.24-9.48,15.36-9.87,18.88
			C550.13,551.81,549.26,554.63,551.55,555.19z"/>
		<path class="st2" d="M548.68,557.46c0.7,0.64,2.04,0.14,2.81,0.02c2.47-0.39,4.96-0.77,7.42-1.24c3.18-0.6,5.47-1.73,6.83-4.78
			c0.95-2.13,1.72-4.23,2.59-6.29l0.26,5.6c0.01,0.18,0.15,0.36,0.35,0.35c0.53-0.03,1.03-0.09,1.55-0.18
			c0.14-0.03,0.26-0.2,0.26-0.34c-0.23-4.07,0.15-8.1,1.16-12.05c0.35-0.74-0.79-1.45-1.32-0.71c-1.02,1.41-1.94,2.87-2.76,4.39
			c-0.8,1.48-1.5,3.02-2.08,4.62c-0.18,0.49-0.33,1-0.48,1.52c-0.03,0-0.04-0.02-0.07-0.02c-4.95-0.45-9.1-0.86-14.04-0.39
			c-0.24,0.02-0.5,0.26-0.56,0.49C550.11,550.08,547.11,556.04,548.68,557.46z"/>
		<path class="st6" d="M573.33,112.02c0.03-4.37-2-6.19-5.51-8.09c-18.9-10.22-35.87-0.88-35.99,1.81
			c-0.47,10.91-1.41,24.83,3.66,34.69c3.79,7.38,11.22,13.92,19.7,10.29C564.04,146.94,573.15,136.26,573.33,112.02z"/>
		<path class="st6" d="M688.83,159.95c0.77-0.85,1.69-1.92,1.75-2.75c0.15-2.15-2.36-0.56-3.11,0.1c-1.57,1.4-3.11,2.8-4.74,4.14
			c-0.81,0.67-1.61,1.38-2.46,2.01c-0.42,0.31-2.77,1.75-3.32,1.17c2.24-2.16,4.47-4.31,6.69-6.49c0.92-0.9,4.08-3.65,3.27-5.27
			c-0.1-0.2-0.27-0.29-0.49-0.28c-2.58,0.11-5.19,3.05-6.84,4.78c-1.1,1.16-2.78,3.78-4.33,4.31c-0.43,0.15-0.8,0.1-1.13-0.06
			c-0.34-0.44-0.65-0.9-0.93-1.39c-0.15-0.37-0.33-0.73-0.52-1.08c-0.04-0.09-0.08-0.18-0.12-0.27c-0.04-0.1-0.1-0.16-0.18-0.21
			c-0.64-0.97-1.48-1.78-2.67-2.32c-2.01-0.9-5.74-1.4-7.43,0.32c-0.25,0.26-0.08,0.57,0.18,0.68c0.16,0.3,0.3,0.36,0.73,0.52
			c1.19,0.44,2.45,0.51,3.61,1.1c1.53,0.79,2.78,1.92,3.56,3.34c0.37,1.61,0.1,3.27-1.01,4.68c-1.02,1.3-2.46,1.91-3.98,2.3
			c-0.01-0.05-0.03-0.1-0.06-0.15c-1.55-2.35-2.19-5.01-2.49-7.77c-0.13-1.19,0.26-3.37-0.92-4.11c-0.22-0.13-0.44-0.07-0.59,0.06
			c-0.12,0.03-0.23,0.11-0.3,0.24c-1.1,2.12-1.57,4.79-1.35,7.18c0.18,1.89,1.07,3.56,2.02,5.18c0.15,1.29-0.26,2.45-0.58,3.82
			c-0.21,0.92-0.47,2.33-0.04,3.3c-0.02,0.06-0.02,0.12-0.02,0.18c0,0.05,0,0.1,0,0.15c0.01,0.18,0.21,0.4,0.4,0.4
			c0.04,0,0.07,0,0.11,0c0.03,0,0.06-0.01,0.09-0.02c0.1,0.07,0.21,0.13,0.34,0.18c0.1,0.04,0.19,0.04,0.27,0.02
			c0.65,0.45,1.5,1.21,1.82,1.4c0.38,0.22,0.79,0.57,1.24,0.63c0.78,0.1,1.56-0.44,2.19-0.82c2.69-1.62,5.15-3.85,7.37-6.05
			c0.47-0.46,1.02-0.95,1.53-1.47c1.59-1.02,3.1-2.14,4.55-3.21c1.86-1.38,3.66-2.85,5.39-4.41c1.04-0.94,2.68-2.07,2.71-3.61
			C689.08,160.2,689,160.06,688.83,159.95z"/>
		<path class="st6" d="M561.98,162l2.97-36.38c-0.01-1.39-3.3,3.12-4.46,3.97c-5.93,4.28-10.67,5.59-17.76,6.33
			c-0.22,0.02-0.41,0.08-0.58,0.15c-0.99,0-0.91,0.47-0.91,1.75c0.03,8.16-1.81,23.94,0.02,31.96c0.48,2.08,0.95-1.05,3.13-0.11
			c1.47,0.64,4.19,0.36,5.81,0.49c2.06,0.18,1.83-0.05,3.89,0.13c2.26,0.19,5.13,1.84,7.04,0.02
			C563,168.55,561.99,164.14,561.98,162z"/>
		<path class="st2" d="M543.42,124.94c0.02,1.3-0.59,2.36-1.35,2.37c-0.76,0.01-1.4-1.03-1.42-2.33c-0.02-1.3,0.59-2.36,1.35-2.37
			C542.77,122.6,543.4,123.64,543.42,124.94z"/>
		<path class="st2" d="M562.09,125.36c-0.01,1.3-0.65,2.34-1.41,2.33c-0.76-0.01-1.37-1.07-1.36-2.36c0.01-1.3,0.65-2.34,1.41-2.33
			C561.49,123,562.1,124.06,562.09,125.36z"/>
		<path class="st2" d="M565.47,118.4c-0.04-0.06-0.71-0.36-0.74-0.36c-2.11-0.78-4.99-1.39-7.02-0.37c-1.05,0.53-2.09,1.83-0.6,2.46
			c1.27,0.54,3.09,0.46,4.43,0.5c1.09,0.03,2.42,0.22,3.44-0.26C566.24,119.77,566.28,119.05,565.47,118.4z"/>
		<path class="st2" d="M537.13,119.48c0.97,0.59,2.31,0.55,3.39,0.64c1.34,0.11,3.14,0.39,4.46-0.01c1.55-0.46,0.67-1.87-0.32-2.51
			c-1.91-1.24-4.83-0.95-7.02-0.41c-0.03,0-0.73,0.22-0.78,0.28C535.99,118.04,535.95,118.76,537.13,119.48z"/>
		<path class="st0" d="M557.63,138.71c-6.7,2.39-12.68-0.46-13.03-0.35c-0.15,0.05-0.3,0.16-0.27,0.32c0.57,2.9,3.86,4.54,6.42,4.68
			c2.67,0.15,6.41-1.42,7.29-4.21C558.11,138.92,557.9,138.61,557.63,138.71z"/>
		<path class="st8" d="M552.91,135.25c-1.85,0.46-3.55-0.14-3.75-2.2c-0.09-0.96,0.22-2.19,0.33-3.14c0.23-2.05,0.49-4.1,0.77-6.15
			c0.06-0.44-0.64-0.48-0.7-0.04c-0.24,1.72-0.46,3.45-0.66,5.18c-0.18,1.52-0.64,3.31-0.45,4.83c0.26,2.17,2.84,2.64,4.61,2.21
			C553.49,135.82,553.34,135.14,552.91,135.25z"/>
		<path class="st6" d="M438.16,229.1c-0.48-0.77-2.17-1.25-2.9-1.65c-1.14-0.61-2.25-1.28-3.34-1.96c-0.32-3.02-2.54-5.49-4.41-7.95
			c-1.66-2.17-3.99-7.03-7.42-6.5c-0.27,0.04-0.54,0.36-0.38,0.65c0.93,1.7,2.42,3.03,3.47,4.66c0.62,0.96,1.15,1.95,1.61,2.98
			c-0.89-0.73-1.82-1.39-2.79-1.8c-3.12-1.86-6.37-3.47-9.77-4.75c-2.15-0.81-5.49-2.47-7.83-1.77c-0.15,0.04-0.27,0.22-0.29,0.37
			c-0.22,2.02,4.13,3.1,5.49,3.62c2.74,1.06,5.4,2.24,8,3.57c-0.09,0.08-0.17,0.17-0.26,0.26c-0.09,0.09-0.19,0.19-0.29,0.29
			c-3.19-1.18-6.4-2.3-9.65-3.31c-2.18-0.67-5.19-1.87-7.46-1.19c-0.21,0.06-0.3,0.3-0.29,0.49c0.02,0.94,0.91,1.19,1.67,1.57
			c1.65,0.83,3.37,1.5,5.11,2.12c2.71,0.96,5.45,1.8,8.13,2.84c-0.03,0.03-0.06,0.07-0.09,0.1c-2.89-0.89-5.84-1.71-8.83-2.2
			c-1.43-0.24-4.91-1.05-5.99,0.33c-0.1,0.13-0.13,0.31-0.07,0.47c0.56,1.38,3.19,1.86,4.79,2.23c-1.07-0.04-2.14-0.03-3.22,0.04
			c-0.37,0.03-0.52,0.47-0.32,0.75c1.08,1.54,4.2,1.95,5.95,2.4c2.71,0.69,5.46,1.23,8.13,2.06c0.14,0.12,0.29,0.24,0.43,0.36
			c1.91,1.65,4.11,3.45,6.36,4.61c0.8,0.41,1.53,0.6,2.22,0.62c0.73,0.18,1.51,0.19,2.42,0.16c3.43-0.11,6.2,0.53,8.99,2.6
			c0.35,0.26,0.78-0.04,0.91-0.37C436.76,234.36,439.12,230.64,438.16,229.1z"/>
		<path class="st6" d="M573.21,122.45c-1.72-1.64-4.68-0.03-5.26,1.93c-0.13,0.43,0.15,0.69,0.49,0.75c-0.3,0.71-0.49,1.55-0.53,2.4
			c0,0,0,0,0,0c-0.27,1-0.37,1.98-0.21,2.68c0,0.35,0.02,0.71,0.05,1.06c-0.15,0.4-0.21,0.81-0.05,1.2
			c1.04,2.47,4.28-0.96,4.88-2.05C573.66,128.47,575.15,124.31,573.21,122.45z"/>
		<path class="st7" d="M529.28,122.19c1.53-1.82,4.65-0.54,5.44,1.35c0.17,0.41-0.08,0.71-0.41,0.8c0.38,0.68,0.65,1.49,0.79,2.32
			l0,0c0.38,0.96,0.59,1.93,0.5,2.64c0.03,0.35,0.05,0.71,0.07,1.06c0.19,0.38,0.3,0.79,0.18,1.19c-0.77,2.57-4.36-0.49-5.08-1.51
			C529.49,128.22,527.55,124.25,529.28,122.19z"/>
		<path class="st2" d="M573.87,117.57c0.04-0.07,0.07-0.14,0.1-0.22c1.01-0.02,2.1-0.94,1.87-2.35c-0.33-2-0.98-3.81-1.85-5.49
			c0.6-0.52,0.92-1.4,0.42-2.33c-1.97-3.67-5.7-6.11-9.77-7.58c0-0.94-0.56-1.93-1.67-2.05c-3.19-0.34-6.39-0.51-9.6-0.49
			c-0.1-0.59-0.48-1.1-1.23-1.25c-2.62-0.54-4.99-0.07-7.36,0.62c-0.37-0.66-1.08-1.12-1.93-0.92c-1.51,0.36-3.02,1.11-4.47,2.03
			c-0.62-0.67-1.68-0.96-2.55-0.21c-2.45,2.1-5.05,4.43-5.48,7.91c-0.09,0.73,0.27,1.26,0.78,1.56c-1.11,2.55-1.91,5.24-2.36,8.09
			c-0.26,1.65,1.29,2.63,2.38,2.28c-0.2,1.07-0.34,2.17-0.43,3.27c-0.07,0.93,1.21,0.97,1.37,0.12c0.01-0.01,0.01-0.02,0.02-0.03
			c1.98-5.88,7.09-8.35,12.13-10.41c3.57-1.46,6.06-4.09,7.67-7.63c0.4,2.1,1.05,4.18,2.43,5.86c1.98,2.41,4.92,2.95,7.55,4.34
			c3.3,1.75,4.66,4.67,7.1,7.28c0.74,0.8,3.33,2.13,3.59,1.72c0.52-0.05,1.07-0.23,1.64-0.57c0.96-0.57,0.39-1.92-0.5-1.96
			c0.08-0.15,0.13-0.32,0.14-0.53C573.87,118.26,573.87,117.91,573.87,117.57z"/>
		<path class="st8" d="M570.9,124.75c-0.02,1.39-0.34,2.7-0.96,3.95c-0.2,0.4,0.4,0.75,0.6,0.35c0.67-1.35,1.03-2.79,1.06-4.3
			C571.6,124.3,570.9,124.3,570.9,124.75z"/>
		<path class="st8" d="M533.12,128.24c-0.53-1.18-0.82-2.43-0.88-3.72c-0.02-0.45-0.72-0.45-0.7,0c0.07,1.42,0.4,2.77,0.98,4.07
			C532.7,129,533.3,128.64,533.12,128.24z"/>
		<path class="st2" d="M539.9,106.93c-2.87,3.34-5.75,6.83-7.63,10.76c-0.17-1.79-2.89-2.44-3.38-0.41
			c-2.2,9.24-3.39,18.63-3.59,28.11c-0.08,0.57-0.1,1.16-0.04,1.78c0.2,2.2,3.47,2.28,3.49,0c0-0.42,0.02-0.85,0.03-1.27
			c0.36-2.74,2.56-4.96,3.66-7.48c1.29-2.97,1.23-6.15,1.17-9.32c-0.14-8.23,3.56-13.66,8.75-19.71
			C543.82,107.7,541.36,105.22,539.9,106.93z"/>
		<path class="st9" d="M585.22,272.57c-0.04-0.23-0.07-0.46-0.1-0.69c-2.42-0.09-4.84-0.16-7.26-0.23
			c-0.76-6.05-1.62-12.09-2.59-18.12c-0.07-0.44-0.74-0.25-0.67,0.19c0.96,5.96,1.81,11.93,2.56,17.91
			c-16.97-0.47-33.96-0.54-50.94-0.17c-4.74,0.1-9.47,0.25-14.21,0.41c-0.05,0.24-0.09,0.47-0.14,0.7
			c21.78-0.77,43.58-0.85,65.37-0.25c3.15,25.42,4.44,51.06,3.82,76.67c-0.22,8.89-0.67,17.77-1.34,26.63
			c-0.03,0.45,0.66,0.45,0.7,0c2.4-31.82,1.89-63.85-1.57-95.58c-0.28-2.57-0.59-5.14-0.9-7.7c2.39,0.07,4.79,0.14,7.18,0.22
			C585.16,272.57,585.19,272.57,585.22,272.57z"/>
		<path class="st3" d="M590.21,175.18c-0.09-2.52-0.97-4.76-2.34-6.71c-4.41-2.76-9.21-4.52-14.18-5.55
			c-0.38,0.44-0.8,0.93-1.3,1.45c-3.97,4.1-8.79,7.44-14.27,9.15c-11.15,3.47-22.83-0.87-28.38-11.21c-2.14,0.6-4.25,1.28-6.33,2.07
			c-2.7,1.03-6.92,2.14-7.82,5.33c-0.2,0.72-0.19,1.45-0.02,2.12c-0.4,0.81-0.28,1.76,0.18,2.54c-0.6,0.7-1.04,1.52-1.21,2.53
			c-0.33,2.03,1.21,4.04,3.43,3.43c0.98-0.27,1.96-0.53,2.94-0.8c3.45,3.78,7.32,7.16,11.56,10.02c0.59,1.7,2.34,2.96,4.17,2.66
			c2.33,1.44,5.21,3.1,7.99,3.84c0.49,2.17,3.37,3.74,5.62,2.73c1.11,1.41,2.98,2.13,4.72,0.81c0.26-0.2,0.51-0.41,0.77-0.61
			c0,0,0,0,0,0.01c0.02-0.02,0.04-0.04,0.06-0.05c3.81-2.95,7.38-6.11,10.7-9.52c3.47-2.65,6.83-5.43,10.08-8.36
			c1.91-1.73,1.1-4.53-0.61-5.9c-0.08-0.14-0.17-0.27-0.27-0.39c4.43,0.24,8.85,0.48,13.27,0.68
			C589.44,175.46,589.85,175.36,590.21,175.18z M536.14,182.76c-0.3-0.21-0.6-0.43-0.9-0.64c0.25-0.01,0.49-0.04,0.74-0.06
			c0.28,0.02,0.56,0.05,0.85,0.07C536.6,182.34,536.37,182.55,536.14,182.76z"/>
		<path class="st5" d="M666.39,198.16c0.61-1.21,0.91-2.78,1.24-3.71c0.55-1.52,2.29-4.3,1.63-5.95c-0.71-1.77-4.34-2.53-5.89-3.21
			c-1.91-0.84-5.13-3.16-7.28-2.99c-1.54,0.13-1.97,1.2-2.6,2.51c-1.15,2.4-2.09,4.9-2.96,7.41c-3.55-1.07-6.74,0.83-9.4,3.4
			c-2.22,2.15-4.2,4.54-7.23,5.58c-3.63,1.24-7.21-0.06-10.51-1.56c-1.97-0.89-4.04-1.21-6.13-1.39c-4.05-2.61-7.73-5.64-10.75-9.66
			c-3.02-4.02-12.7-15.81-14.24-17.44c-3.4-3.59-7.71-6.26-12.96-7.83c-7.87,11.1-17.28,21.19-28.03,29.51
			c-0.76,0.59-1.95,1.05-2.85,0.37c-6-4.57-25.95-27.34-27.17-29.41c-18.06,6.52-26.29,20.64-34.52,37.33
			c-2.8,4.3-5.47,8.88-8.85,12.72c-3.3,3.74-7.71,6.22-11.12,9.85c-2.2,2.34-4.02,4.16-7.51,4.27c-2.25,0.07-4.47-0.42-6.71-0.11
			c-1.73,0.24-3.26,0.83-4.46,1.82c-1.04-0.49-2.07-0.97-3.11-1.46c-1.15-0.54-2.33-1.28-3.6-1.46c-0.27-0.04-0.51,0-0.73,0.08
			c-0.67-0.19-1.48,0.06-1.74,0.92c-0.67,2.2-1.35,4.4-2.02,6.6c-0.53,1.72-1.88,4.36-1.76,6.15c0.18,2.67,5.27,3.77,7.59,4.5
			c4.66,5.19,9.99,10.66,17.36,11.21c3.94,0.29,7.56-1.53,11.44-1.72c4.43-0.21,8.66,1,13.14,0.51c3.29-0.36,7.03-0.62,9.98-2.21
			c3.11-1.67,5.4-4.82,7.52-7.55c2.24-2.89,4.25-5.93,6.03-9.09c1.26,3.88,2.24,7.93,2.2,10.29c-0.11,6.42-0.37,7.55,1.32,13.8
			c0.44,1.64,0.96,3.25,1.53,4.85c11.25,1.5,32.27-0.36,43.01-0.43c5.89-0.04,20.26,0.82,26.1,1.48c0.36,0.04,0.73,0.08,1.09,0.12
			c0.8-1.08,1.61-2.15,2.37-3.26c1.91-2.79,1.84-6.55,2.86-9.75c1.44-4.52,3.75-18.97,5.4-25.45c2.33,1.34,6.78,3.61,9.13,4.93
			c3.96,2.22,8.13,4.34,12.75,4.57c4.58,0.23,9.24-1.46,13.44-3.1c2.35-0.91,4.64-2.18,7.15-2.56c2.86-0.43,5.72,0.34,8.59-0.05
			c6.93-0.92,15.32-7.71,17.23-14.51c0.74-2.65,1.16-4.78,2.83-7.1c1.27-1.77,2.68-3.52,3.19-5.68
			C668.98,201.86,668.2,199.54,666.39,198.16z"/>
		<path class="st10" d="M588.61,213.31c-2.13-4.9-4.09-9.93-5-15.21c-0.94-5.45-0.59-11.08,0.94-16.39
			c1.27-4.4,3.34-8.52,6.08-12.16c-0.17-0.15-0.35-0.3-0.52-0.45c-5.19,6.89-8,15.5-7.7,24.17c0.39,11.06,6.07,20.87,10.18,30.85
			c0.52,1.26,1.01,2.53,1.46,3.8c0.01-0.05,0.02-0.1,0.04-0.15c0.24,0.14,0.51,0.29,0.79,0.44
			C593.11,223.14,590.74,218.22,588.61,213.31z M504.09,174.54c-0.24,0.24-0.48,0.47-0.72,0.71c0.48,14.76,5.99,29.83,5.66,44.54
			c-0.14,6.36-1.21,12.65-2.34,18.9c0.35-0.56,0.68-1.13,1.01-1.7c0.77-4.35,1.47-8.72,1.82-13.12c0.44-5.6,0.13-11.16-0.65-16.72
			C507.34,196.28,504.3,185.59,504.09,174.54z"/>
		<path class="st10" d="M629.1,203.89c-3.01,1.92-6.14,3.63-9.38,5.13c-0.41,0.19-0.05,0.79,0.35,0.6c3.24-1.5,6.36-3.21,9.38-5.13
			C629.83,204.25,629.48,203.65,629.1,203.89z"/>
		<path class="st10" d="M446.6,233.4c-1.19,3.13-2.38,6.26-3.57,9.38c-0.16,0.42,0.51,0.6,0.67,0.19c1.19-3.13,2.38-6.26,3.57-9.38
			C447.43,233.17,446.76,232.99,446.6,233.4z"/>
		<path class="st10" d="M467.15,248.35c-2.35-1.71-4.53-3.61-6.54-5.71c-0.31-0.32-0.8,0.17-0.49,0.49
			c2.05,2.14,4.28,4.08,6.68,5.82C467.16,249.21,467.51,248.61,467.15,248.35z"/>
		<path class="st10" d="M466.52,251.5c-2.09-0.78-4.01-1.87-5.75-3.28c-0.35-0.28-0.84,0.21-0.49,0.49
			c1.83,1.49,3.84,2.64,6.05,3.46C466.76,252.33,466.94,251.66,466.52,251.5z"/>
		<path class="st10" d="M665.82,196.87c-4.64-1.54-9.27-3.1-13.92-4.61c-0.43-0.14-0.61,0.53-0.19,0.67
			c4.65,1.51,9.28,3.07,13.92,4.61C666.06,197.68,666.24,197.01,665.82,196.87z"/>
	</g>
</g>
</svg>
