<?xml version="1.0" encoding="utf-8"?>
<!-- Generator: Adobe Illustrator 24.1.3, SVG Export Plug-In . SVG Version: 6.00 Build 0)  -->
<svg version="1.1" id="레이어_1" xmlns="http://www.w3.org/2000/svg" xmlns:xlink="http://www.w3.org/1999/xlink" x="0px"
	 y="0px" viewBox="0 0 841.89 595.28" style="enable-background:new 0 0 841.89 595.28;" xml:space="preserve">
<style type="text/css">
	.st0{fill:#FFFFFF;}
	.st1{fill:#FBF9F7;}
	.st2{fill:#E5D5CE;}
	.st3{fill:#D4BEB5;}
	.st4{fill:#6A3939;}
	.st5{fill:#596B8E;}
	.st6{fill:#314264;}
	.st7{fill:#F9D390;}
	.st8{fill:#D0E4F4;}
	.st9{fill:#F1D0B8;}
	.st10{fill:#D49C80;}
	.st11{fill:#E7785F;}
	.st12{fill:#332723;}
	.st13{fill:#4A4747;}
	.st14{fill:#DFCBC2;}
	.st15{fill:#F2F0EF;}
	.st16{fill:#DBAC89;}
	.st17{fill:#D09C74;}
	.st18{fill:#F3A287;}
	.st19{fill:#D4654C;}
	.st20{fill:#F6D0B0;}
	.st21{fill:#262730;}
	.st22{fill:#E7805D;}
	.st23{fill:#D9CCC6;}
	.st24{fill:#EFAF6F;}
</style>
<line class="st0" x1="-2338.19" y1="-122.22" x2="1639.53" y2="-122.22"/>
<g>
	<path class="st1" d="M716.98,306.8c-1.04-23.34-1.77-46.68-1.02-69.87c1.03-31.85,4.66-65.09-7.73-94.45
		c-8.56-20.28-24.03-36.73-39.18-52.7c-13.13-13.85-27.49-28.4-46.19-32.23c-14.4-2.95-29.25,0.96-43.95,0.82
		c-20.49-0.19-39.99-8.2-59.99-12.71c-41.02-9.25-83.72-3.72-125.75-4.6c-31.15-0.65-62.23-4.86-93.37-3.86
		c-31.15,1-63.23,7.73-88.09,26.51c-23.1,17.45-37.93,43.7-49.05,70.44c-19.07,45.87-28.94,94.81-37.94,143.47
		c-9.07,49.02-17.34,98.49-33.47,145.81c-10.52,30.85-2.66,78.75,25.27,98.72c13.22,9.45,29.98,12.11,46.09,14.23
		c56.86,7.5,114.11,11.71,171.41,14.25c112.63,4.99,226.63,3.43,336.4-22.29c35.76-8.38,42.56-47.19,46.34-78.07
		C722.61,402.65,719.1,354.55,716.98,306.8z"/>
	<g>
		<g>
			<path class="st2" d="M656.42,514.21c0,5.42-12.98,10.49-35.66,14.86c-5.1,0.98-10.7,1.93-16.75,2.84
				c-13.57,2.04-29.43,3.87-47.15,5.46c-2.56,0.23-5.16,0.46-7.8,0.67c-9.56,0.8-19.63,1.53-30.13,2.18
				c-11.46,0.71-23.44,1.32-35.86,1.84c-12.86,0.54-26.2,0.97-39.91,1.28c-2.21,0.05-4.43,0.09-6.66,0.14
				c-8.28,0.16-16.7,0.28-25.23,0.35c-7.06,0.07-14.19,0.1-21.39,0.1c-4.51,0-8.99-0.01-13.44-0.04c-15.7-0.08-31.05-0.32-45.92-0.7
				c-2.3-0.06-4.58-0.12-6.85-0.19c-19.05-0.54-37.29-1.31-54.45-2.28c-7.33-0.42-14.47-0.87-21.39-1.36
				c-12.67-0.89-24.61-1.9-35.72-3.02c-13.31-1.32-25.42-2.79-36.11-4.4c-14.84-2.22-26.97-4.68-35.82-7.31
				c-1.67-0.5-3.22-1-4.65-1.51c-7.91-2.81-12.18-5.81-12.18-8.91c0-5.2,11.96-10.08,32.99-14.33c4.34-0.88,9.06-1.73,14.15-2.55
				c16.35-2.63,36.44-4.96,59.4-6.89c11.4-0.95,23.5-1.81,36.21-2.55c14.21-0.83,29.17-1.53,44.74-2.07
				c4.12-0.14,8.28-0.27,12.48-0.39c12.64-0.36,25.64-0.62,38.94-0.78c2.78-0.02,5.57-0.05,8.38-0.07
				c6.36-0.05,12.77-0.08,19.24-0.08c10.12,0,20.1,0.06,29.93,0.18c9.03,0.12,17.93,0.28,26.66,0.49
				c6.11,0.15,12.14,0.32,18.08,0.51c2.88,0.09,5.74,0.19,8.57,0.29c15.36,0.57,30.11,1.28,44.1,2.13
				c9.55,0.58,18.76,1.22,27.56,1.93c9.44,0.75,18.42,1.57,26.88,2.45c2.54,0.26,5.03,0.53,7.46,0.81
				c16.35,1.83,30.55,3.91,42.17,6.17c3.72,0.72,7.17,1.46,10.34,2.22C647.54,505.49,656.42,509.73,656.42,514.21z"/>
			<g>
				<path class="st3" d="M631.63,501.68c-1.35,1.95-2.6,3.99-3.65,6.22c-2.85,6.04-4.71,12.49-6.58,18.88
					c-0.22,0.75-0.43,1.51-0.64,2.29c-5.1,0.98-10.7,1.93-16.75,2.84c0.52-0.92,1.03-1.84,1.54-2.76
					c3.73-6.83,7.14-13.85,10.8-20.72c1.59-2.99,3.2-6.03,4.94-8.97C625.01,500.18,628.46,500.92,631.63,501.68z"/>
				<path class="st3" d="M579.12,493.29c-1.18,3.28-2.87,6.44-4.46,9.52c-3.79,7.35-7.58,14.7-11.36,22.05l-6,11.64
					c-0.15,0.29-0.3,0.58-0.44,0.87c-2.56,0.23-5.16,0.46-7.8,0.67c1.35-2.23,2.66-4.48,3.9-6.77c3.02-5.59,5.56-11.42,8.08-17.24
					c3.18-7.35,6.42-14.76,10.62-21.55C574.2,492.74,576.69,493.01,579.12,493.29z"/>
				<path class="st3" d="M544.78,490.03c-0.29,2.43-0.73,4.83-1.5,7.13c-3.08,9.17-10.36,15.97-15.29,24.08
					c-3.64,5.99-5.66,12.87-9.06,18.98c-11.46,0.71-23.44,1.32-35.86,1.84c0.96-1.03,1.93-2.04,2.9-3.04
					c6.05-6.32,11.15-12.52,13.89-20.96c1.45-4.46,2.94-8.71,5.35-12.76c2.37-3.98,5.07-7.79,7.78-11.55
					c1.36-1.89,2.76-3.78,4.23-5.65C526.77,488.68,535.98,489.32,544.78,490.03z"/>
				<path class="st3" d="M473.12,485.97c-1.31,3.18-2.77,6.32-4.28,9.43c-4.16,8.55-8.42,17.06-12.63,25.58
					c-3.51,7.11-7.41,15.88-13.05,22.36c-2.21,0.05-4.43,0.09-6.66,0.14c0.68-1.06,1.33-2.14,1.96-3.24
					c6.34-11.09,10.39-23.28,15.48-34.95c2.7-6.18,5.72-12.22,9.43-17.86c0.39-0.59,0.78-1.17,1.18-1.75
					C467.43,485.77,470.29,485.87,473.12,485.97z"/>
				<path class="st3" d="M446.47,485.17c-2.31,4.74-5.38,9.16-8.57,13.24c-7.06,9.05-14.84,17.46-18.85,28.42
					c-1.81,4.95-3.26,10.07-6.09,14.58c-0.52,0.83-1.08,1.64-1.69,2.42c-7.06,0.07-14.19,0.1-21.39,0.1
					c-4.51,0-8.99-0.01-13.44-0.04c2.79-2.93,5.54-5.91,8.04-9.09c4.11-5.23,7.59-10.92,11.05-16.59
					c7.24-11.88,15.23-23.13,24.28-33.53C428.84,484.8,437.74,484.96,446.47,485.17z"/>
				<path class="st3" d="M370.64,484.58c-1.64,2.38-3.34,4.72-5.06,7.04c-10.3,13.86-21.45,27.09-29.74,42.31
					c-1.59,2.92-3.34,6.12-5.32,9.26c-2.3-0.06-4.58-0.12-6.85-0.19c1.13-1.06,2.19-2.2,3.16-3.47c2.65-3.45,4.67-7.32,6.76-11.11
					c4.58-8.28,9.67-16.27,14.97-24.1c4.48-6.61,8.99-13.23,13.7-19.67C365.04,484.63,367.83,484.6,370.64,484.58z"/>
				<path class="st3" d="M323.32,485.43c-8.19,7.41-16.14,15.09-23.81,23.03c-7.51,7.76-14.54,15.93-21.79,23.93
					c-2.65,2.92-5.46,5.79-8.5,8.33c-7.33-0.42-14.47-0.87-21.39-1.36c2.76-4.15,5.56-8.28,8.82-12.06
					c3.77-4.39,8.22-7.89,12.98-11.15c5.72-3.92,11.09-7.82,15.84-12.91c4.47-4.77,8.81-8.66,14.7-11.59
					c3.71-1.85,7.27-3.67,10.67-5.83C314.96,485.68,319.12,485.55,323.32,485.43z"/>
				<path class="st3" d="M266.1,487.89c-4.18,4.84-8.19,9.87-13.05,14.08c-5.15,4.45-11.02,7.93-16.68,11.67
					c-5.93,3.92-11.38,8.34-16.31,13.45c-2.8,2.9-5.31,6.14-7.95,9.25c-13.31-1.32-25.42-2.79-36.11-4.4
					c9.02-4.79,18.29-9.14,26.89-14.69c5.57-3.6,10.85-7.72,15.34-12.64c4.11-4.51,7.19-10,11.66-14.17
					C241.29,489.49,253.39,488.63,266.1,487.89z"/>
				<path class="st3" d="M170.49,497.33c-0.41,0.35-0.81,0.71-1.21,1.07c-5.41,4.85-10.83,9.71-16.25,14.56
					c-2.71,2.43-5.42,4.86-8.13,7.29c-1.57,1.41-3.12,2.94-4.72,4.38c-1.67-0.5-3.22-1-4.65-1.51c4.81-5.22,9.38-10.67,14.04-15.84
					c2.24-2.48,4.49-4.95,6.77-7.4C160.68,499,165.4,498.15,170.49,497.33z"/>
			</g>
		</g>
		<g>
			<path class="st4" d="M544.39,433.36c0,0-4.14,51.53-4.16,51.71c-0.07,1.12-0.3,2.78-1.47,3.17c-0.95,0.31-2.32,0.23-3.13-0.79
				c-1.12-1.41-0.62-4.1-0.57-5.78c0.08-2.38,0.15-4.76,0.23-7.14c0.22-6.94,0.32-38.38,0.32-38.38L544.39,433.36z"/>
			<path class="st4" d="M680.46,433.18c0,0,0.34,51.69,0.34,51.88c-0.01,1.12,0.09,2.8,1.23,3.27c0.93,0.38,2.3,0.4,3.18-0.56
				c1.22-1.33,0.92-4.04,0.99-5.72c0.1-2.38,0.2-4.76,0.3-7.14c0.29-6.94,2.5-38.3,2.5-38.3L680.46,433.18z"/>
			<polygon class="st5" points="690.9,465.54 530.7,465.54 539.7,78.88 699.9,78.88 			"/>
			<g>
				<g>
					<path class="st6" d="M687.83,461.38H534.96l0.74-17.77c0.01-0.28,0.24-0.49,0.52-0.48c0.28,0.01,0.49,0.25,0.48,0.52
						l-0.7,16.73h150.84l4.84-253.75l-150.13-1.49c-0.14,4.25-1.11,34.6-1.11,35.75c0,0.28-0.22,0.5-0.5,0.5
						c-0.28,0-0.5-0.22-0.5-0.5c0-1.24,1.08-34.84,1.13-36.27l0.02-0.49l152.12,1.51l-0.01,0.5L687.83,461.38z"/>
				</g>
				<g>
					<path class="st6" d="M690.9,252.13h-34.72c-0.28,0-0.5-0.22-0.5-0.5c0-0.28,0.22-0.5,0.5-0.5h34.72c0.28,0,0.5,0.22,0.5,0.5
						C691.4,251.9,691.17,252.13,690.9,252.13z"/>
				</g>
				<g>
					<path class="st6" d="M690.9,294.63h-34.72c-0.28,0-0.5-0.22-0.5-0.5c0-0.28,0.22-0.5,0.5-0.5h34.72c0.28,0,0.5,0.22,0.5,0.5
						C691.4,294.4,691.17,294.63,690.9,294.63z"/>
				</g>
				<g>
					<path class="st6" d="M688.01,423.21h-34.72c-0.28,0-0.5-0.22-0.5-0.5c0-0.28,0.22-0.5,0.5-0.5h34.72c0.28,0,0.5,0.22,0.5,0.5
						C688.51,422.99,688.29,423.21,688.01,423.21z"/>
				</g>
				<g>
					<path class="st6" d="M688.01,386.01h-34.72c-0.28,0-0.5-0.22-0.5-0.5c0-0.28,0.22-0.5,0.5-0.5h34.72c0.28,0,0.5,0.22,0.5,0.5
						C688.51,385.78,688.29,386.01,688.01,386.01z"/>
				</g>
				<g>
					<path class="st6" d="M631.62,213.38h-29.89c-1.42,0-2.58-1.16-2.58-2.58c0-1.42,1.16-2.58,2.58-2.58h29.89
						c1.42,0,2.58,1.16,2.58,2.58C634.2,212.22,633.04,213.38,631.62,213.38z M601.73,209.21c-0.87,0-1.58,0.71-1.58,1.58
						c0,0.87,0.71,1.58,1.58,1.58h29.89c0.87,0,1.58-0.71,1.58-1.58c0-0.87-0.71-1.58-1.58-1.58H601.73z"/>
				</g>
			</g>
			<polygon class="st0" points="694.01,140.21 542.83,140.21 544.26,82.75 695.45,82.75 			"/>
			<polygon class="st0" points="692.26,201.46 541.08,201.46 542.51,144 693.7,144 			"/>
			<path class="st7" d="M603.5,116.55c0,13.07-8.67,23.66-27,23.66c-13.81,0-23-10.59-23-23.66c0-3.34,0.87-6.53,2.39-9.41
				c0.17-0.33,0.35-0.65,0.54-0.97c1.38-2.34,3.19-4.46,5.32-6.29h35.49c1.63,1.74,2.96,3.75,3.97,5.95c0.16,0.33,0.31,0.66,0.44,1
				C602.86,109.8,603.5,113.09,603.5,116.55z"/>
			<polygon class="st8" points="607.2,113.5 608.33,122 602.33,140.21 620.2,140.21 616.95,122.25 618.83,113.5 			"/>
			<polygon class="st9" points="597.45,201.46 677.82,201.46 679.7,194.75 599.34,194.75 			"/>
			<polygon class="st10" points="627.2,194.75 682.69,194.75 684.15,189.63 628.66,189.63 			"/>
			<polygon class="st5" points="625.2,189.63 680.69,189.63 683.08,181.32 627.59,181.32 			"/>
			<path class="st0" d="M562.2,107.38c-2.1-0.08-4.21-0.11-6.31-0.24c0.17-0.33,0.35-0.65,0.54-0.97c1.92,0.13,3.86,0.14,5.77,0.21
				C562.84,106.41,562.84,107.41,562.2,107.38z"/>
			<path class="st0" d="M575.2,106.25h-5.75c-0.64,0-0.64,1,0,1h5.75C575.85,107.25,575.85,106.25,575.2,106.25z"/>
			<path class="st0" d="M588.33,106.27c-2.12-0.06-4.25-0.12-6.37-0.18c-0.64-0.02-0.64,0.98,0,1c2.12,0.06,4.25,0.12,6.37,0.18
				C588.97,107.29,588.97,106.29,588.33,106.27z"/>
			<path class="st0" d="M601.65,106.83c-2.07-0.03-4.13-0.06-6.2-0.1c-0.64-0.01-0.64-1.01,0-1c1.92,0.04,3.84,0.07,5.76,0.1
				C601.37,106.16,601.52,106.49,601.65,106.83z"/>
			<polygon class="st11" points="640.04,140.21 640.83,117.54 685.49,117.54 685.04,140.21 			"/>
		</g>
		<g>
			<path class="st12" d="M135.18,428.96c0,0-19.5,59.29-19.56,59.5c-0.4,1.29-1.14,3.18-2.62,3.3c-1.2,0.09-2.79-0.39-3.44-1.81
				c-0.91-1.98,0.44-4.99,0.97-6.95c0.76-2.77,1.53-5.54,2.29-8.31c2.23-8.08,11.28-44.95,11.28-44.95L135.18,428.96z"/>
			<path class="st12" d="M650.41,425.34c0,0,10.94,61.45,10.98,61.67c0.26,1.33,0.5,3.34-0.75,4.15c-1.02,0.65-2.64,0.98-3.89,0.04
				c-1.74-1.31-1.98-4.6-2.43-6.58c-0.64-2.8-1.28-5.6-1.92-8.41c-1.87-8.17-11.37-44.92-11.37-44.92L650.41,425.34z"/>
			<path class="st10" d="M143.04,336.2c0,0,9.22-96.05,19.99-99.27c6.96-2.08,211.76-2.61,366.83-1.39
				c84.92,0.67,134.24,0.33,141.73,3.88c6.58,3.12,1.6,19.85-0.35,40.44c-2.51,26.49-6.58,56.22-6.58,56.22l-1.38,70.09
				l-536.89,7.42L143.04,336.2z"/>
			<path class="st10" d="M109.57,386.93h573.56l-7.65,64.84c-0.22,1.82-1.76,3.2-3.6,3.2H107.9c-2.12,0-3.78-1.81-3.61-3.92
				L109.57,386.93z"/>
			<path class="st10" d="M109.57,386.93c0,0,4.14-67.19,8.57-72.61c1.95-2.38,25.96-2.05,28.65,2.62
				c2.69,4.67-9.03,83.11-9.03,83.11L109.57,386.93z"/>
			<path class="st10" d="M653.29,386.93c0,0,6.06-43.21,10.82-68.82c1.36-7.33,23.83-4.45,25.86-1c4.43,7.5-8.49,82.94-8.49,82.94
				L653.29,386.93z"/>
			<g>
				<path class="st13" d="M140.86,387.43c-0.27,0-0.5-0.22-0.5-0.5c0-0.28,0.22-0.5,0.5-0.5l514.02-3.68c0,0,0,0,0,0
					c0.27,0,0.5,0.22,0.5,0.5c0,0.28-0.22,0.5-0.5,0.5L140.86,387.43C140.86,387.43,140.86,387.43,140.86,387.43z"/>
			</g>
			<g>
				<path class="st13" d="M135.03,451.27c-0.01,0-0.03,0-0.04,0c-0.27-0.02-0.48-0.26-0.46-0.54l9.66-118.79
					c0.02-0.27,0.25-0.47,0.54-0.46c0.27,0.02,0.48,0.26,0.46,0.54l-9.66,118.79C135.51,451.07,135.29,451.27,135.03,451.27z"/>
			</g>
			<g>
				<path class="st13" d="M648.25,454.51c-0.02,0-0.05,0-0.07,0c-0.27-0.04-0.47-0.29-0.43-0.56l17.7-132.2
					c0.04-0.27,0.29-0.48,0.56-0.43c0.27,0.04,0.47,0.29,0.43,0.56l-17.7,132.2C648.71,454.33,648.49,454.51,648.25,454.51z"/>
			</g>
			<g>
				<path class="st13" d="M650.29,436.47H136.27c-0.28,0-0.5-0.22-0.5-0.5s0.22-0.5,0.5-0.5h514.02c0.28,0,0.5,0.22,0.5,0.5
					S650.57,436.47,650.29,436.47z"/>
			</g>
		</g>
		<g>
			<polygon class="st14" points="451.05,192.07 209.86,192.07 222.78,74.55 463.96,74.55 			"/>
			<polygon class="st0" points="457.78,80.14 456.33,93.04 455.29,102.31 450.17,148.04 445.79,187.05 215.78,187.05 219.74,151.71 
				223.48,118.41 227.77,80.14 			"/>
			<path class="st15" d="M283.85,80.14c-2.98,3.99-5.19,8.45-7.31,12.95c-4.38,9.29-9.33,20.2-19.7,24.06
				c-5.72,2.13-11.1,0.35-16.82-0.69c-5.19-0.94-10.14-0.19-15.11,1.45c-0.48,0.16-0.96,0.32-1.43,0.5l-3.74,33.3
				c0.23-0.15,0.47-0.3,0.7-0.44c9.4-5.68,20.04-8.92,29.67-14.18c8.27-4.51,16.17-10.29,21.39-18.28
				c6.08-9.32,6.96-20.81,12.28-30.47c1.62-2.94,3.63-5.66,5.87-8.2H283.85z"/>
			<path class="st15" d="M388.1,80.14c-2.04,0.62-4.08,1.26-6.11,1.91c-8.24,2.64-16.44,5.62-24.03,9.82
				c-7.83,4.32-14.29,9.96-20.1,16.73c-5.57,6.49-10.97,12.73-18.65,16.78c-7.75,4.08-16,6.83-21.91,13.66
				c-5.62,6.48-9.58,13.98-16.04,19.78c-6.67,5.98-14.59,9.36-22.4,13.53c-6.13,3.28-12.43,8.08-14.73,14.7h67.69
				c0.34-0.36,0.68-0.72,1.01-1.08c6.34-6.89,12.05-14.41,19.19-20.52c3.46-2.95,7.24-5.55,11.42-7.39
				c4.66-2.05,9.78-2.93,13.46-6.71c3.33-3.41,5.22-7.92,7.4-12.08c2.14-4.08,4.76-7.84,7.99-11.13c3.16-3.22,6.82-5.97,10.8-8.09
				c4.15-2.2,8.65-3.61,12.86-5.69c4.74-2.35,8.29-5.57,10.55-10.41c1.98-4.26,3.16-8.87,5.94-12.74
				c3.69-5.14,9.08-8.57,14.84-11.07H388.1z"/>
			<path class="st0" d="M394.37,89.56c-5.16-1.29-14.35,2.28-17.68,3.53c-7.15,2.68-13.39,7.08-17.87,13.32
				c-1.38,1.92-2.57,4.62-1.13,6.49c0.92,1.2,2.59,1.52,4.1,1.58c4.73,0.19,9.36-1.26,13.79-2.93c7.63-2.88,15.27-6.68,20.25-13.13
				c1.53-1.98,2.79-4.74,1.49-6.87C396.69,90.5,395.65,89.88,394.37,89.56z"/>
			<path class="st0" d="M359.23,122.51c-3.99,0.37-9.54,3.24-12.28,6.08c-2.05,2.12-4.87,10.17,0.55,9.98
				c6.19-0.22,11.45-5.72,14.12-10.88c0.53-1.03,1-2.18,0.77-3.31C362.06,122.81,360.83,122.36,359.23,122.51z"/>
			<path class="st0" d="M318.94,160c-1.13-0.73-2.22-1.07-2.91-2.38c-0.53-1-0.63-2.14-0.74-3.26c-0.17-1.65-0.15-3.45-0.93-4.96
				c-1.65-3.21-5.39-2.76-8.23-1.57c-5.93,2.47-11.08,6.47-15.79,10.98c-2.69,1.85-5.3,3.8-7.81,5.89c-2.49,2.07-6.95,5.32-5.1,9.16
				c1.68,3.5,7.78,2.29,10.72,1.69c2.83-0.58,5.63-1.43,8.52-1.67c2.86-0.23,5.73,0.23,8.59-0.05c4.72-0.46,8.7-3.22,12.23-6.2
				C319.87,165.61,322.46,162.28,318.94,160z"/>
			<path class="st15" d="M440,107.36c-3.85,3.87-7.79,7.64-12.28,10.76c-4.18,2.9-8.7,5.3-13.3,7.47
				c-9.25,4.37-18.94,7.8-27.93,12.72c-9.17,5.01-16.6,11.61-22.06,20.58c-3.5,5.74-6.37,11.85-10.26,17.35
				c-2.86,4.04-6.24,7.66-10.03,10.81h9.48c1.65-2.28,2.31-5.43,3.54-7.93c4.87-9.87,13.06-17.61,21.44-24.53
				c4.7-3.88,9.48-7.74,14.5-11.19c5.02-3.44,10.44-6.17,15.92-8.78c5.46-2.59,10.98-5.07,16.21-8.1
				c5.05-2.92,9.79-6.36,14.31-10.04c5.08-4.14,9.88-8.61,14.63-13.12c0.37-0.35,0.74-0.7,1.12-1.05l1.04-9.27
				C450.22,96.88,445.11,102.23,440,107.36z"/>
			<path class="st15" d="M447.74,150.33c-6.58,6.64-13.04,13.41-19.56,20.11c-3.55,3.65-6.98,7.84-11.17,10.78
				c-4.09,2.86-9.21,3.75-14.03,4.6c-2.82,0.5-5.65,0.88-8.5,1.15c-0.33,0.03-0.65,0.06-0.98,0.08h52.29l4.38-39.01
				C449.32,148.78,448.5,149.56,447.74,150.33z"/>
			<path class="st15" d="M415.47,153.62c-0.14-0.69-0.43-1.33-0.9-1.89c-1.04-1.22-2.73-1.67-4.32-1.86
				c-12.18-1.46-24.3,8.74-31.15,17.84c-1.54,2.04-2.97,4.35-3,6.9c0,0.55,0.07,1.12,0.37,1.58c1.07,1.6,3.53,0.49,5.13-0.59
				c3.99-2.7,8.65-4.43,13.44-4.98c4.4-0.51,9.13-0.11,12.95-2.35c3.41-2,5.4-5.74,6.76-9.45
				C415.34,157.18,415.81,155.27,415.47,153.62z"/>
			<path class="st15" d="M428.81,133.29c-1.74,0.43-3.3,1.67-4.31,3.18c-1.6,2.37-4.09,9.99,0.38,11.22
				c1.43,0.39,2.84-0.6,3.93-1.61c1.67-1.55,3.18-3.28,4.49-5.15c0.73-1.04,1.42-2.19,1.47-3.46c0.09-2.32-2.18-4.29-4.5-4.35
				C429.77,133.11,429.29,133.17,428.81,133.29z"/>
			<path class="st15" d="M334.73,88.73c-1.08-2.47-4.41-3.35-7.22-3.66c-5.25-0.58-10.54-0.77-15.82-0.57
				c-3.44,0.13-7.09,0.5-9.81,2.6c-2.49,1.92-3.79,4.95-5.39,7.66c-2.34,3.97-29,33.16-12.93,34.16c2.98,0.19,5.72-1.59,7.95-3.57
				c6.85-6.08,11.36-14.8,19.26-19.42c7.31-4.28,17.06-4.76,22.46-11.28c1.23-1.48,2.18-3.43,1.71-5.3
				C334.89,89.14,334.82,88.93,334.73,88.73z"/>
			<path class="st15" d="M275.09,137.11c-0.48-0.55-1.27-0.81-2.01-0.95c-8.07-1.55-14.83,5.65-16.41,12.99
				c-0.24,1.13-0.34,2.42,0.37,3.32c0.88,1.12,2.57,1.13,3.97,0.87c6.89-1.27,12.78-6.9,14.37-13.72c0.17-0.71,0.28-1.5-0.05-2.15
				C275.27,137.34,275.19,137.22,275.09,137.11z"/>
			<path class="st15" d="M253.7,91.35c-0.45-0.09-0.95-0.02-1.41,0.09c-3.18,0.74-6.9,3.01-8.51,5.93
				c-0.88,1.61-0.67,3.97,0.93,4.86c1.1,0.61,2.47,0.37,3.64-0.09c3.2-1.27,5.72-4.13,6.57-7.46c0.29-1.14,0.26-2.62-0.78-3.17
				C254,91.43,253.86,91.38,253.7,91.35z"/>
		</g>
		<g>
			<path class="st9" d="M554.95,203.13c-13.31-9.43-31.08-8.19-45.76-2.97c-0.6,0.21-1.17,0.4-1.78,0.57
				c-2.57,0.71-8.5,1.77-8.5,1.77s-1.15-6.03-1.08-5.63c0.04,0.22-0.61-6.23-2.98-5.84c-1.08,0.18-2.03,1.35-2.75,2.07
				c-0.7,0.71-1.34,1.46-1.94,2.25c-5.06-0.56-10.13-0.36-15.15,0.58c-0.74-0.81-1.54-1.56-2.41-2.24
				c-0.65-0.51-1.61-1.38-2.51-0.94c-0.76,0.37-0.84,1.34-0.89,2.07c-0.1,1.31,0.02,2.61,0.26,3.9c-0.83,3.64-3.57,8.77-3.28,12.39
				c0.29,3.57,4.06,5.92,6.61,8.54c-0.35,3.19-1.12,7.11,0.89,9.9c1.36,1.89,3.58,2.97,5.81,3.62c6.13,1.76,12.45,2.41,18.81,2.69
				c15.89,0.71,31.83,0.78,47.73,1.15c4.42,0.1,8.83,0.24,13.25,0.3c2.2,0.03,4.52-0.07,6.23-1.41c0.14,0.22,2.11,1.5,2.09,1.15
				C566.95,222,564.16,209.65,554.95,203.13z"/>
			<path class="st9" d="M495.3,232.08c-0.61-3.05-4.27-4.78-6.74-6.04c-3.57-1.82-7.39-3.03-11.33-3.72
				c-0.05-0.3-0.38-0.59-0.75-0.41c-2.59,1.23-4.1,1.55-4.1,1.55s-1.35,5-4.53,6.76c-2.37,1.31-4.94,2.2-7.22,3.68
				c-2.35,1.52-4.03,3.93-4.79,6.62c-0.25,0.9-0.2,1.93,0.19,2.78c0.55,1.21,1.89,1.63,3.12,1.34c1.56-0.37,2.54-1.71,3.62-2.78
				c1.01-1.02,2.34-1.6,3.6-2.23c1.11-0.55,2.24-1.06,3.37-1.57c1.89-0.85,3.79-1.68,5.69-2.49c0.14-0.06,0.43-0.12,0.55-0.23
				c0,0-0.2,0.2-1.03,0.85c-2.39,1.87-6.78,4.37-7.42,7.64c-0.36,1.81,0.54,3.82,2.51,4.09c3.42,0.47,6.87-3.94,9.34-5.61
				c3.68-2.49,8.08-3.69,12.16-5.34C493.74,236.07,495.84,234.79,495.3,232.08z"/>
			<path class="st9" d="M567.59,237.07c0.04-1.18-1.61-9.66-3.02-9.73c-1.37-0.07-1.68,2.03-2.97,2.43
				c-0.39,0.12-0.77,0.24-1.16,0.36c-0.14-0.81-0.3-1.62-0.46-2.42c-0.13-0.63-1.09-0.36-0.96,0.27c0.16,0.81,0.32,1.63,0.46,2.45
				c-1.15,0.35-2.3,0.71-3.45,1.06c-0.61,0.19-0.35,1.15,0.27,0.96c1.11-0.34,2.23-0.68,3.34-1.03c0.27,2.01-0.57,9.77-0.93,12.34
				c-0.72,5.21-1.65,10.58-4.05,15.32c-2.38,4.68-6.24,8.96-10.32,12.22c-1.96,1.57-4,3.06-5.85,4.77c-1.74,1.6-4.28,3.69-4.56,6.21
				c-0.39,3.45,5.65,2.81,7.41,2.06c4.31-1.83,7.58-6.07,10.6-9.47c6.81-7.69,11.52-13.97,13.46-22.72
				C566.69,246.26,567.41,242.18,567.59,237.07z"/>
			<path class="st13" d="M476.67,205.5c-0.97-0.8-1.95-1.03-3.18-0.76c-0.75,0.17-0.51,1,0.19,1c0.87,0,1.72,0.21,2.48,0.62
				C476.73,206.67,477.17,205.91,476.67,205.5z"/>
			<path class="st13" d="M487.13,205.5c0.97-0.8,1.95-1.03,3.18-0.76c0.75,0.17,0.51,1-0.19,1c-0.87,0-1.72,0.21-2.48,0.62
				C487.06,206.67,486.63,205.91,487.13,205.5z"/>
			<path class="st16" d="M490.21,220.08c-4.37,2.84-11.58,2.81-15.94-0.03c-0.54-0.35-1.04,0.51-0.5,0.86
				c4.66,3.04,12.27,3.07,16.95,0.03C491.26,220.59,490.76,219.72,490.21,220.08z"/>
			<path class="st17" d="M472.15,195.98c-0.26-0.51-0.8-1.84-1.57-1.11c-0.3,0.29-0.25,0.77-0.23,1.15
				c0.02,0.51,0.08,1.01,0.14,1.51c0.05,0.36,0.37,0.42,0.63,0.3c0.18,0.02,0.38-0.03,0.58-0.09c0.34-0.11,0.7-0.21,0.81-0.59
				C472.62,196.73,472.33,196.32,472.15,195.98z"/>
			<path class="st17" d="M495.73,194.35c-0.06-0.42-0.15-0.89-0.64-1c-0.46-0.1-0.74,0.28-0.97,0.62c-0.28,0.41-1.75,2.03-0.72,2.29
				c0.03,0.04,0.07,0.07,0.11,0.09c0.61,0.27,1.19,0.35,1.86,0.24c0.23-0.04,0.34-0.28,0.37-0.48
				C495.81,195.52,495.81,194.93,495.73,194.35z"/>
			<path class="st13" d="M482.65,208.82c-0.73-0.21-2.27-0.29-2.67,0.4c-0.14,0.24-0.12,0.55,0.13,0.78
				c0.26,0.24,0.62,0.47,0.92,0.65c0.26,0.15,0.51,0.24,0.81,0.14c0.57-0.19,2-1.56,0.88-1.94
				C482.69,208.83,482.67,208.83,482.65,208.82z"/>
			<path class="st17" d="M484.52,211.65c-0.36,0.37-0.74,0.78-1.29,0.82c-0.64,0.05-1.13-0.38-1.36-0.95
				c-0.09-0.36-0.56-0.57-0.81-0.27c-0.12,0.08-0.2,0.2-0.19,0.36c-0.17,0.35-0.37,0.67-0.79,0.78c-0.49,0.14-0.95-0.02-1.35-0.31
				c-0.52-0.38-1.02,0.48-0.5,0.86c0.6,0.45,1.39,0.62,2.12,0.42c0.47-0.13,0.8-0.4,1.06-0.74c0.35,0.43,0.81,0.74,1.41,0.84
				c1.01,0.15,1.75-0.41,2.41-1.1C485.68,211.9,484.97,211.19,484.52,211.65z"/>
			<path class="st16" d="M559.16,233.01c-0.07-0.63-1.07-0.64-1,0c0.1,0.96,0.2,1.91,0.3,2.87c0.07,0.63,1.07,0.64,1,0
				C559.36,234.92,559.26,233.96,559.16,233.01z"/>
			<path class="st16" d="M502.18,228.88c-0.92,2.57-3.2,4.2-5.35,5.7c-0.52,0.37-0.03,1.23,0.5,0.86c2.39-1.67,4.79-3.46,5.81-6.3
				C503.36,228.54,502.39,228.28,502.18,228.88z"/>
			<path class="st16" d="M499.28,204.13c-0.11-0.63-1.08-0.36-0.96,0.27c0.4,2.23,0.68,4.48,0.86,6.74c0.05,0.64,1.05,0.64,1,0
				C499.99,208.78,499.69,206.45,499.28,204.13z"/>
			<path class="st16" d="M527.89,218.06c0.44-0.47-0.27-1.18-0.71-0.71c-2.19,2.37-3.07,6.13-3.5,9.24
				c-0.44,3.24,0.03,6.39,1.81,9.16c0.35,0.54,1.21,0.04,0.86-0.5c-1.81-2.81-2.14-6.05-1.57-9.3
				C525.26,223.3,526.02,220.08,527.89,218.06z"/>
			<path class="st16" d="M484.61,229.64c-2.74,1.29-5.37,2.77-7.89,4.46c-0.53,0.36-0.03,1.22,0.5,0.86
				c2.52-1.68,5.15-3.17,7.89-4.46C485.69,230.23,485.18,229.36,484.61,229.64z"/>
			<path class="st0" d="M475.17,209.64c-2.64,0.19-5.36,0.19-8,0.17c-0.64-0.01-0.64,0.99,0,1c2.65,0.03,5.36,0.02,8-0.17
				C475.81,210.6,475.82,209.6,475.17,209.64z"/>
			<path class="st0" d="M474.96,211.66c-1.38,0.5-2.77,1.01-4.15,1.47c-1.25,0.42-2.64,0.59-3.8,1.25c-0.56,0.32-0.06,1.18,0.5,0.86
				c1.2-0.67,2.69-0.83,3.98-1.28c1.24-0.43,2.49-0.88,3.73-1.33C475.82,212.41,475.57,211.44,474.96,211.66z"/>
			<path class="st0" d="M495.04,208.08c-1.6,0.23-3.19,0.47-4.8,0.67c-1.11,0.14-2.29,0.49-3.4,0.48c-0.64-0.01-0.64,0.99,0,1
				c1.3,0.02,2.62-0.39,3.92-0.54c1.53-0.18,3.03-0.42,4.55-0.64C495.94,208.95,495.67,207.99,495.04,208.08z"/>
			<path class="st0" d="M496.14,212.83c-1.46-0.54-3.2-0.71-4.72-1.06c-1.16-0.27-2.37-0.45-3.53-0.69
				c-0.63-0.13-0.9,0.83-0.27,0.96c1.16,0.24,2.37,0.42,3.53,0.69c1.52,0.34,3.27,0.52,4.72,1.06
				C496.48,214.02,496.74,213.05,496.14,212.83z"/>
		</g>
		<g>
			<polygon class="st18" points="507.96,369.7 503.63,380.14 502.53,380.06 496.54,379.62 474.36,377.98 484.19,364.48 
				501.72,368.33 506.66,369.41 			"/>
			<path class="st18" d="M534.75,359.38c-1.04,3.19-10.81,14.89-12.78,17.88c-1.96,3-6.51,8.33-10.6,7.39
				c-2.45-0.56-6.22-2.85-8.84-4.59c-1.75-1.16-3-2.08-3-2.08l0.99-7.04l0.07-0.48l0.17-0.03l5.9-1.02l0.2-0.03
				c0,0,2.46-0.09,5.95-1.38c3.48-1.28,11.85-8.06,15.32-9.93C531.6,356.21,535.79,356.18,534.75,359.38z"/>
			<path class="st0" d="M534.75,359.38c-1.04,3.19-10.81,14.89-12.78,17.88c-1.96,3-6.51,8.33-10.6,7.39
				c-2.45-0.56-6.22-2.85-8.84-4.59l-3.21-0.24l-1.05-0.07l-1.73-0.13l3.98-8.68l0.24-0.51l0.96-2.1l1.58,0.35l0.98,0.21l2.38,0.52
				l0.2-0.03c0,0,2.46-0.09,5.95-1.38c3.48-1.28,11.85-8.06,15.32-9.93C531.6,356.21,535.79,356.18,534.75,359.38z"/>
			<path class="st19" d="M504.28,368.89c-1.43,3.73-3.18,7.34-4.96,10.93l-1.05-0.07c1.8-3.64,3.57-7.29,5.03-11.07L504.28,368.89z"
				/>
		</g>
		<g>
			<polygon class="st18" points="412.18,482.72 401.02,484.5 400.52,483.53 398.43,479.5 387.53,458.44 404.18,459.74 
				410.73,478.55 411.74,481.45 			"/>
			<path class="st18" d="M435.01,500.13c-3.26,0.79-18.35-1.4-21.93-1.51c-3.58-0.11-10.5-1.19-11.84-5.16
				c-0.8-2.38-0.83-6.79-0.72-9.93c0.06-2.11,0.19-3.65,0.19-3.65l1.54-0.67l5.42-2.37l1.61,1.82l2.46,2.79l0.14,0.16
				c0,0,1.37,2.06,4.29,4.35c2.92,2.29,13.08,5.87,16.49,7.85C436.06,495.79,438.28,499.34,435.01,500.13z"/>
			<path class="st0" d="M435.01,500.13c-3.26,0.79-18.35-1.4-21.93-1.51c-3.58-0.11-10.5-1.19-11.84-5.16
				c-0.8-2.38-0.83-6.79-0.72-9.93l-0.83-1.6l-0.51-0.99l-0.75-1.44l3.82-0.29l7.03-0.55l1.45-0.11l0.54,1.56l0.34,0.97l0.13,0.37
				l0.14,0.16c0,0,1.37,2.06,4.29,4.35c2.92,2.29,13.08,5.87,16.49,7.85C436.06,495.79,438.28,499.34,435.01,500.13z"/>
			<path class="st19" d="M411.61,481.08c-3.96,0.45-7.94,0.73-11.92,0.85l-0.51-0.99c4.05-0.1,8.08-0.37,12.09-0.83L411.61,481.08z"
				/>
		</g>
		<path class="st18" d="M277.59,281.45c0,0,9.28,7.74,14.11,13.74c4.83,6,18.33,19.9,18.33,19.9l-12.83,8.79
			c0,0-21.83-9.17-27.5-14.83c-5.67-5.67-12.67-19.83-12.67-19.83l12.17-10.33L277.59,281.45z"/>
		<path class="st18" d="M230.71,260.33c0,0,21.31,29.61,23.7,31.72c2.38,2.11,23.19-10.61,23.19-10.61l-19.5-32.85L230.71,260.33z"
			/>
		<path class="st7" d="M221.68,208.07c0,0,14.53,2.56,24.78,18.56c10.25,16,20.43,30,20.21,30.75c-0.21,0.75-18.9,9.75-18.9,9.75
			L221.68,208.07z"/>
		<path class="st13" d="M491.09,365.99c0,0-12.4,17.76-16.73,19.1c-4.33,1.33-8.33-5-24.66-0.33c-16.33,4.66-43.5,0.03-56.5-1.51
			c-13-1.53-1.83,0.63-24.83,0.3c-23-0.34-37.67-9-74-13c-36.34-4-52.34-15.33-62-19.33c-9.67-4.01-20.34-25.67-16.67-28.34
			c3.67-2.67,47.05-10.02,47.05-10.02s7.12,1.27,17.98,3.28c6.24,1.16,13.71,2.55,21.78,4.1h0.01c26.7,5.09,59.92,11.75,76.51,16.31
			C409.37,344.88,491.09,365.99,491.09,365.99z"/>
		<path class="st18" d="M302.51,320.24l-5.31,3.64c0,0-8.65-3.63-16.47-7.74C286.97,317.3,294.44,318.69,302.51,320.24z"/>
		<path class="st13" d="M159.7,343.88c0,0,10.67,36.67,29,49c18.33,12.33,45,3.67,72,9.33c27,5.67,36.67-0.67,46.67,0
			c10,0.67,18.33,0.33,18.33,0.33s3.67,22.33,15.67,30.33s15,12.67,19.67,23.67c4.67,11,10,5.67,14.67,12.33
			c3.97,5.67,11.66,7.24,18.08,6.05c1.17-0.22,14.53-3.58,14.59-3.38c0,0-9-31-22.67-57.33c-13.67-26.33-23.67-55.33-34.67-63
			s-27.67-4.67-59.33-7.34c-31.67-2.67-64.29-19-64.29-19L159.7,343.88z"/>
		<path class="st7" d="M269.43,303.98c-2.53-3.89-7.95-14.57-8.68-19.21c-0.77-4.91-6.16-19.03-7.67-23.01
			c-3.71-9.76-6.67-20.47-10.16-29.43c-1.71-4.38-2.76-9.11-5.39-13.08c-2.18-3.28-5.26-5.8-8.65-7.74
			c-8.14-4.64-17.75-6.93-26.65-9.73c0.01-0.07,0.02-0.15,0.03-0.22c0.12-0.63-0.84-0.9-0.96-0.27c-0.01,0.08-0.02,0.15-0.04,0.23
			c-0.41,0.06-0.54,0.69-0.14,0.92c-1.18,8.32,2.22,16.21,5.72,23.63c4.23,8.96,8.47,17.92,12.74,26.86
			c8.8,18.39,21.73,43.13,31.67,60.92c0.58,1.04,1.23,3.11,2.45,3.65c1.26,0.56,3.46-0.7,4.58-1.13c3.53-1.33,7.56-2.79,10.56-5.12
			C271.45,309.21,271.11,306.57,269.43,303.98z"/>
		<path class="st0" d="M182.05,318.67c0.95,4.31,1.55,8.56,3.48,12.58c1.45,3.01,3.31,5.84,4.74,8.86c3.41-0.4,6.77-1.02,10.03-2.13
			c8.66-2.93,12.28-3.98,24.2-4.96c3.61-0.3,14.45-7.14,16.08-7.27c3.66-0.29,12.26-5.18,15.13-6.25c1.82-0.68,7.37-5.02,7.37-5.02
			c0-4.23-9.22-15.33-10.41-19.37c-1.75-5.91-4.42-11.07-7.33-16.46c-2.97-5.49-4.72-11.07-5.64-17.22
			c-0.83-5.53-1.22-11.15-2.6-16.59c-0.59-2.31-1.35-4.58-2.4-6.72c-1.27-2.61-3.22-4.76-4.56-7.31c-1.52-2.88-1.49-6.06-2.27-9.14
			c-0.6-2.39-1.63-4.67-3.02-6.71c-2.63-3.88-6.35-6.62-10.72-8.26c-3.05-1.14-6.3-1.83-9.18-3.4c-2.8-1.53-4.83-3.92-7.15-6.05
			c-1.76-1.62-3.73-3.08-6.11-3.61c-3.27-0.72-8.74,0.9-10.15-3.31c-0.09-0.27-0.33-0.36-0.55-0.33c-0.08-0.29,0.43,2.07-0.72-0.33
			l-9.66,5c0,0-16.65,22.3-15.07,28.52c1.25,4.9,1.18,10.01,1.77,15c0.57,4.86,2.07,9.34,3.97,13.83c1.84,4.35,3.73,8.64,4.87,13.24
			c1.19,4.82,1.81,9.76,2.46,14.67c1.17,8.86,2.65,17.57,7.27,25.36C178.45,309.63,180.95,313.67,182.05,318.67z"/>
		<path class="st20" d="M233.62,159.9c-0.39-0.77-0.94-1.49-1.65-2.13c-0.2-0.18-0.42-0.36-0.53-0.61
			c-0.27-0.59,0.12-1.24,0.37-1.84c0.89-2.13-0.3-5.22-0.24-7.52c0.05-2.1-1.07-3.38-2-5.16c-0.99-1.89-0.86-4.43-2.33-6.01
			c-1.09-1.17-2.52-2.08-4.13-1.46c-0.76,0.29-1.51,0.85-2.17,1.5c-1.05-2.35-2.56-4.44-4.96-5.67c-2.32-1.19-6.98-2.96-9.18-0.69
			c-0.91,0.94-1.3,1.5-2.82,1.18c-0.69-0.14-1.35-0.5-2.09-0.62c-2.18-0.35-4.19-1.54-6.46-1.47c-2.4,0.07-4.42,1.2-5.83,2.94
			c-4.38-1.3-7.88,0.12-9.75,4.48c-0.85,1.97-1.6,3.98-1.27,6.15c0.18,1.22,0.57,2.47,1.09,3.59c0.22,0.48,0.67,0.99,1.09,1.5
			c-0.28,1.36-0.63,2.73-0.83,4.12c-0.38,2.59,0.89,4.98,0.84,7.59c-0.06,3.18-0.34,6.28-0.14,9.48c0.2,3.09,0.55,6.17,0.86,9.25
			c0.06,0.6,1.01,0.61,0.95,0c-0.12-1.25-0.25-2.5-0.38-3.75c2.76-0.35,5.55-0.83,8.33-0.83c3.11-0.01,6.11,0.86,9.09,1.64
			c4.9,1.26,9.99,2.42,15.06,1.65c1.27-0.19,2.51-0.51,3.72-0.96c1.77-0.65,3.06-0.24,4.77,0.2c1.29,0.34,2.21-0.24,3.23-1.01
			c0.57-0.43,1.07-0.91,1.72-1.21c0.58-0.27,1.24-0.13,1.8-0.37c0.6-0.26,0.86-0.59,1.13-1.16c0.25-0.52,0.35-1.08,0.37-1.65
			c0.02-0.6,1.53-2.18,1.85-2.83c0.58-1.17,1-2.43,1.18-3.73C234.54,162.85,234.32,161.28,233.62,159.9z"/>
		<path class="st18" d="M208.82,190.36l-0.76,1.56l-5.2,10.74l-1.96,4.54l-0.28,0.64c0,0-8.95,1.5-14.56-2.41
			c-5.62-3.91-9.08-10.45-9.08-10.45l5.82-25.65L208.82,190.36z"/>
		<path class="st18" d="M227.84,159.92c0,0-0.76,4.63-1.99,10.48c-0.19,0.91-0.4,1.86-0.62,2.83c-1.35,6.01-3.12,12.66-5.05,16.77
			c-2.76,5.86-5.16,11.21-12.09,13.52c-7,2.33-14.42-3.26-18.97-10.87c-3.83-6.39-4.34-9.35-3.86-16.58
			c0.06-0.97-2.81-4.2-2.69-5.15c0.99-7.37,2.91-15.27,6.81-21.7c0.67-1.13,1.43-2.24,2.4-3.13c5.7-5.29,18.76-2.09,25.11,1.03
			C223.24,150.21,227.84,159.92,227.84,159.92z"/>
		<path class="st21" d="M204.02,171.58c0.16-0.68,0.15-1.38-0.38-1.7c-1.41-0.86-2.74,1.66-2.96,2.55
			c-0.13,0.53-0.05,1.22,0.34,1.63c0.41,0.44,1.04,0.36,1.51,0.05c0.42-0.27,0.74-0.68,0.97-1.13
			C203.65,172.66,203.89,172.12,204.02,171.58z"/>
		<path class="st21" d="M220.31,175.45c0.16-0.68,0.15-1.38-0.38-1.7c-1.41-0.86-2.74,1.66-2.96,2.55
			c-0.13,0.53-0.05,1.22,0.34,1.63c0.41,0.44,1.04,0.36,1.51,0.05c0.42-0.27,0.74-0.68,0.97-1.13
			C219.95,176.54,220.18,176,220.31,175.45z"/>
		<path class="st22" d="M211.25,191.19c0,0-1.79-0.24-4.72-0.95c-2.93-0.71-5.4-2-5.4-2s0.69,3.18,4.01,4.31
			C208.46,193.68,211.25,191.19,211.25,191.19z"/>
		<g>
			<path class="st22" d="M209.19,188.09c-0.23,0-0.38-0.01-0.41-0.01c-0.28-0.02-0.48-0.26-0.46-0.53c0.02-0.28,0.28-0.49,0.53-0.46
				c0.04,0.01,4.05,0.25,4.52-2.36c0.53-2.95-1-9.06-1.02-9.12c-0.07-0.27,0.09-0.54,0.36-0.61c0.27-0.07,0.54,0.09,0.61,0.36
				c0.07,0.26,1.6,6.39,1.04,9.54C213.82,187.83,210.39,188.09,209.19,188.09z"/>
		</g>
		<path class="st22" d="M202.36,203.78l-1.47,3.42c-2.41-0.54-5.67-1.41-8-2.61c-4.15-2.13-2.84-4.43-4.81-6.72
			c-1.98-2.3-2.49-11.67-2.49-11.67s1.77,7.29,8.83,13.09C199.13,203.15,202.36,203.78,202.36,203.78z"/>
		<path class="st20" d="M206.31,165.25c-0.05-0.02-0.09-0.04-0.13-0.05c-1.77-0.63-3.87-0.99-5.74-0.69
			c-0.36,0.06-0.73,0.15-1.03,0.35c-0.8,0.53-0.72,1.63,0.14,2.04c0.47,0.22,1,0.24,1.5,0.36c0.66,0.16,1.32,0.32,1.98,0.48
			c1.13,0.28,2.26,0.58,3.38,0.89c0.64,0.17,1.84,0.54,2.42,0.06C210.58,167.37,207.44,165.7,206.31,165.25z"/>
		<path class="st20" d="M225.84,170.39c-0.19,0.91-0.4,1.86-0.62,2.83c-0.08-0.02-0.14-0.04-0.22-0.06
			c-0.65-0.16-1.32-0.32-1.98-0.48c-1.13-0.27-2.27-0.52-3.41-0.77c-0.65-0.13-1.89-0.36-2.18-1.05c-0.94-1.97,2.62-2.01,3.82-1.9
			c0.06,0.01,0.1,0.02,0.14,0.02C222.89,169.18,224.49,169.63,225.84,170.39z"/>
		<path class="st20" d="M225.04,153.88c-2.02-2.47-4.29-4.58-6.99-6.28c-2.1-1.33-4.25-2.25-6.44-2.87
			c-0.03-0.09-0.1-0.18-0.22-0.23c-0.24-0.11-0.49-0.2-0.73-0.29c0.07-0.23-0.01-0.49-0.31-0.56c-1.28-0.29-2.56-0.47-3.84-0.56
			c-0.07-0.14-0.2-0.26-0.4-0.26c-3.63-0.14-7.33-0.18-10.62,1.27c-1.42,0.29-2.84,0.62-4.25,0.95c-0.32,0.08-0.39,0.38-0.3,0.62
			c-2.27,0.72-4.33,1.84-5.72,3.69c-1.64,2.18-2.28,4.84-2.67,7.49c-0.3,2.09-0.27,3.2,0.62,4.92c-0.4-0.11-0.81-0.16-1.31-0.15
			c-0.61,0.01-0.61,0.96,0,0.95c1.82-0.03,3.33,1.45,4.74,2.4c0.27,0.18,0.8,0.69,1.24,0.59c1.21-0.28,1.91-2.74,2.23-3.72
			c0.83-2.6,1.52-5.07,2.89-7.47c0.79-1.37,1.65-2.7,2.52-4.02c0.68,0.28,1.35,0.66,2.04,0.91c1.02,0.37,2.08,0.52,3.16,0.52
			c1.1,0,2.15-0.22,3.23-0.41c1.39-0.24,2.56-0.41,3.85,0.3c0.78,0.43,1.26,0.89,1.88,1.51c1.41,1.41,2.37,2.13,4.4,2.42
			c2.11,0.31,4.18,0.14,6.22-0.37c0.35,0.41,0.81,0.78,1.27,1.11c1.32,0.95,2.37,1.95,3.54,3.04c0.85,0.79,1.77,0.87,2.7,1.54
			c0.31,0.22,0.7-0.08,0.71-0.41C228.65,157.85,226.62,155.8,225.04,153.88z"/>
		<path class="st7" d="M224.72,332.19c-3.17-4.09-5.97-8.45-8.35-13.05c-2.28-4.43-3.97-9.09-5.94-13.66
			c-1.83-4.25-4.09-8.14-7.04-11.71c-3.18-3.85-6.78-7.32-9.88-11.23c-6.3-7.95-10.91-17.05-15.46-26.06
			c-2.46-4.86-4.89-9.76-6.04-15.12c-1.14-5.34-1.17-10.86-1.37-16.3c-0.22-5.94-0.44-11.89-0.66-17.83
			c-0.13-3.52,0.63-12.55,0.63-12.55s-37.32,19.59-42.16,25.85c-4.6,5.95-6.62,12.91-5.65,20.4c1.11,8.6,5.25,16.29,8.51,24.19
			c1.64,3.97,3.09,8.05,3.77,12.3c0.68,4.25,0.06,8.61,0.92,12.83c0.88,4.33,3.57,8.07,5.2,12.12c1.63,4.08,2.75,8.35,3.7,12.64
			c2.04,9.24,3.71,18.56,5.55,27.84c0.6,3.04,1.24,6.47,4.42,7.8c2.67,1.12,5.78,0.36,8.47-0.29c4.97-1.2,9.84-2.57,14.59-4.49
			c4.82-1.94,9.81-3.18,14.83-4.5c10.58-2.78,21.16-5.56,31.74-8.34C224.9,332.92,224.94,332.47,224.72,332.19z"/>
		<g>
			<polygon class="st15" points="285.54,342.29 310.47,272.11 400.45,274.38 374.22,342.61 			"/>
			<path class="st15" d="M285.54,342.29l-55.32-2.18c0,0,2.24-3.73,3.99-4.23s68.92,1.83,68.92,1.83L285.54,342.29z"/>
		</g>
		<path class="st18" d="M145.95,290.88c0,0,22.8,28.49,25.28,30.47c2.49,1.99,13.3-8.07,13.3-8.07l-15.92-33.34L145.95,290.88z"/>
		<path class="st18" d="M229.63,331.38c0,0-2.08-0.06-5.54-0.21c-1.21-0.05-2.6-0.12-4.12-0.19c-11.76-0.6-31.82-1.97-46.27-4.85
			c-9.52-1.9-15.33-7.39-16.86-8.77c-4.61-4.12-10.89-17.68-10.89-17.68l24.19-4.49l52.95,24.87l3.67,1.72l2.04,0.96L229.63,331.38z
			"/>
		<path class="st18" d="M227.75,322.24c0,0,11.82-2.8,16.06-1.62c4.24,1.18,8.47,9.1,9.58,10.24c1.11,1.15,1.94,5.37,0.02,6.13
			c-1.92,0.75-9.39-3.74-13.87-4.56c-4.49-0.82-9.9-1.05-9.9-1.05l-5.43-5.96L227.75,322.24z"/>
		<path class="st7" d="M128.45,220.53c0,0-9.74,8.85-10.24,27.35c-0.38,13.99,12.52,59.39,12.52,59.39s11.96,0.25,24.71-3.46
			c22.1-6.43,31.43-17.76,31.43-17.76l-18.33-28.17L128.45,220.53z"/>
		<path class="st12" d="M226.76,321.78c-0.78,3.16-1.68,6.29-2.67,9.39c-1.21-0.05-2.6-0.12-4.12-0.19
			c1.18-3.6,2.22-7.24,3.12-10.92L226.76,321.78z"/>
		<path class="st0" d="M227.43,325.42c-0.38,1.82-2.24,2.98-4.15,2.58c-1.91-0.4-3.14-2.2-2.76-4.03c0.38-1.82,2.24-2.98,4.15-2.58
			C226.58,321.79,227.81,323.59,227.43,325.42z"/>
		<g>
			<path class="st0" d="M372.37,340.61C372.37,340.61,372.37,340.61,372.37,340.61l-82.92-0.69c-0.28,0-0.5-0.23-0.5-0.5
				c0-0.28,0.23-0.5,0.5-0.5c0,0,0,0,0,0l82.92,0.69c0.28,0,0.5,0.23,0.5,0.5C372.87,340.39,372.64,340.61,372.37,340.61z"/>
		</g>
		<g>
			<path class="st0" d="M286.2,341.96c-0.04,0-0.08,0-0.12-0.02c-0.27-0.07-0.43-0.34-0.36-0.61l0.92-3.58
				c0.07-0.27,0.34-0.43,0.61-0.36c0.27,0.07,0.43,0.34,0.36,0.61l-0.92,3.58C286.63,341.81,286.43,341.96,286.2,341.96z"/>
		</g>
		<g>
			<path class="st0" d="M349.91,295.79c-4.23,0-7.42-1.5-7.42-3.5c0-2,3.19-3.5,7.42-3.5c4.23,0,7.42,1.5,7.42,3.5
				C357.33,294.29,354.14,295.79,349.91,295.79z M349.91,289.79c-3.78,0-6.42,1.32-6.42,2.5c0,1.18,2.63,2.5,6.42,2.5
				c3.78,0,6.42-1.32,6.42-2.5C356.33,291.11,353.69,289.79,349.91,289.79z"/>
		</g>
		<g>
			<g>
				<path class="st2" d="M649.28,328.34c-0.2-0.3-0.43-0.59-0.7-0.85c-0.25-0.25-0.53-0.48-0.85-0.68
					c-0.64-0.42-1.47-0.83-2.41-1.24c-1.5-0.64-3.26-1.27-4.98-1.87c-2.18-0.75-4.28-1.45-5.69-2.08c-0.01-0.01-0.02-0.01-0.03-0.02
					c-1.47-0.65-2.93-1.31-4.4-1.97c-1.19-0.53-2.38-1.06-3.58-1.59c-0.88-0.4-1.77-0.79-2.65-1.19c-0.42-0.19-0.83-0.37-1.25-0.56
					c-1.32-0.6-2.63-1.2-3.95-1.8c-0.31-0.14-0.6-0.28-0.91-0.42c-1.13-0.51-2.26-1.03-3.39-1.54c-1.1-0.49-2.2-0.97-3.3-1.45
					c-1.05-0.44-2.1-0.89-3.16-1.31c-1.82-0.73-3.66-1.42-5.51-2.05c-0.89-0.31-1.8-0.61-2.7-0.92c-0.32-0.1-0.63-0.21-0.94-0.33
					c-1.99-0.66-3.99-1.3-6.02-1.8c-1.6-0.39-3.22-0.71-4.88-0.88c-0.08-0.01-0.17-0.02-0.26-0.03c-0.33-0.02-0.68-0.06-1.04-0.08
					c-1.96-0.13-4.14-0.06-5.76,0.98c-0.12,0.08-0.23,0.15-0.33,0.23c-2.09,1.6-2.39,4.58-3.45,6.89
					c-5.72,12.44-10.63,25.67-14.38,38.99c-0.29,1.05-0.58,2.09-0.87,3.15c-0.22,0.83-0.44,1.65-0.64,2.48
					c-0.45,1.77-0.9,3.55-1.32,5.33c-0.37,1.65-1.76,4.59-0.8,6.24c0.56,0.96,1.94,1.14,2.87,1.41c0.51,0.15,1.02,0.28,1.54,0.42
					c1.24,0.34,2.47,0.66,3.72,1c1.59,0.43,3.18,0.89,4.77,1.35c0.35,0.1,0.69,0.2,1.03,0.3c2.81,0.83,5.59,1.71,8.37,2.63
					c0.9,0.3,1.79,0.6,2.69,0.91c0.72,0.23,1.42,0.48,2.13,0.73c1.07,0.36,2.13,0.74,3.19,1.12c0.34,0.12,0.68,0.25,1.02,0.37
					c1.78,0.64,3.56,1.3,5.33,1.97c1.73,0.65,3.45,1.32,5.18,1.98c1.22,0.47,2.44,0.95,3.65,1.44c0.59,0.24,1.18,0.47,1.78,0.71
					c0.57,0.23,1.14,0.46,1.71,0.7c1.61,0.68,3.22,1.4,4.83,2.11c1.91,0.85,3.83,1.69,5.77,2.46c1.85,0.74,3.72,1.41,5.62,1.94
					c0.32,0.1,0.64,0.19,0.96,0.27c1.05,0.27,2.09,0.5,3.15,0.67c1.58,0.27,3.71,0.2,4.57-1.33c2.72-4.95,2.93-12.98,4-18.42
					c1.73-8.67,5.09-16.41,7.55-24.93C645.84,343.26,652.5,333.34,649.28,328.34z"/>
			</g>
			<path class="st3" d="M602.51,307.73c-0.89-0.31-1.8-0.61-2.7-0.92c-0.32-0.1-0.63-0.21-0.94-0.33c-1.99-0.66-3.99-1.3-6.02-1.8
				c-5.65,9.56-8.41,20.73-12.15,31.2c-4.3,12.03-11.4,22.64-17.17,33.92c1.24,0.34,2.47,0.66,3.72,1c1.59,0.43,3.18,0.89,4.77,1.35
				c0.35,0.1,0.69,0.2,1.03,0.3c2.81,0.83,5.59,1.71,8.37,2.63c8.5-21.92,17.19-43.76,26.62-65.31
				C606.2,309.05,604.37,308.35,602.51,307.73z"/>
			<path class="st0" d="M611.18,311.09c-1.72,5.37-3.43,10.77-5.57,15.94c-1.42,3.43-3.54,6.4-5.28,9.67
				c-1.55,2.93-2.47,6.09-3.3,9.29c-0.97,3.69-1.9,7.35-3.56,10.81c-1.49,3.13-3.33,6.06-4.86,9.15c-1.63,3.29-2.97,6.72-4.52,10.04
				c0.72,0.23,1.42,0.48,2.13,0.73c5.08-9.8,10.08-19.66,14.5-29.78c4.95-11.32,9.28-22.91,13.76-34.41
				C613.38,312.05,612.28,311.56,611.18,311.09z"/>
			<path class="st0" d="M587.71,303.78c-1.94,5.24-4.16,10.39-6.7,15.38c-3.4,6.69-7.65,12.9-10.21,19.99
				c-1.14,3.16-2.19,6.34-3.87,9.26c-1.62,2.82-3.66,5.35-5.63,7.92c-0.03,0.02-0.04,0.06-0.06,0.09c0.21-0.82,0.42-1.65,0.64-2.48
				c1.39-1.81,2.76-3.64,3.94-5.61c1.91-3.23,3.04-6.8,4.33-10.3c2.36-6.42,6.2-12.06,9.33-18.09c2.74-5.26,5.13-10.69,7.19-16.24
				C587.03,303.71,587.38,303.75,587.71,303.78z"/>
			<path class="st3" d="M618.79,314.5c-1.81,5.68-3.62,11.37-5.67,16.96c-1.41,3.8-3.11,7.39-5.21,10.86
				c-2.08,3.44-4.19,6.8-5.7,10.55c-3.12,7.78-4.86,15.61-9.8,22.56c-0.66,0.94-1.32,1.86-1.97,2.79c-0.34-0.12-0.68-0.25-1.02-0.37
				c0.18-0.25,0.36-0.5,0.54-0.75c2.74-3.73,5.17-7.46,6.86-11.78c1.44-3.69,2.5-7.51,3.87-11.22c2.88-7.83,8.2-14.33,11.18-22.12
				c2.24-5.87,4.13-11.89,6.02-17.89C618.18,314.22,618.48,314.35,618.79,314.5z"/>
			<path class="st0" d="M634.62,321.6c-1.47-0.65-2.93-1.31-4.4-1.97c-1.19-0.53-2.38-1.06-3.58-1.59c-0.88-0.4-1.77-0.79-2.65-1.19
				c-0.42-0.19-0.83-0.37-1.25-0.56c-5.7,13.5-11.4,27-17.09,40.5c-3.3,7.79-6.58,15.59-9.88,23.38c1.73,0.65,3.45,1.32,5.18,1.98
				c1.22,0.47,2.44,0.95,3.65,1.44c0.59,0.24,1.18,0.47,1.78,0.71c0.57,0.23,1.14,0.46,1.71,0.7c1.48-3.38,3.25-6.63,5.05-9.87
				c3.42-6.16,6.52-12.37,9.04-18.95c4.38-11.45,7.61-23.33,12.48-34.59C634.64,321.61,634.63,321.61,634.62,321.6z"/>
			<path class="st3" d="M630.21,319.63c-0.03,0.1-0.06,0.19-0.1,0.29c-1.15,3.42-1.13,7.73-2.48,11.08
				c-1.58,3.91-3.76,7.5-5.64,11.26c-0.7,1.39-1.28,2.84-1.79,4.32c-1.5,4.38-2.95,8.79-4.88,13.1c-2.21,4.93-4.42,9.85-6.63,14.78
				c-1.37,3.06-2.74,6.11-4.11,9.17c-1.21-0.49-2.44-0.97-3.65-1.44c4.34-10.73,6.62-21.54,11.45-32.07
				c3.55-7.74,7.63-15.04,10.64-22.51c1.28-3.16,2.53-6.32,3.6-9.54C627.83,318.57,629.02,319.1,630.21,319.63z"/>
			<path class="st0" d="M599.81,306.81c-2.53,6.32-4.42,12.88-6.66,19.33c-2.88,8.29-7.48,15.86-10.08,24.24
				c-1.23,3.94-2.23,7.94-3.81,11.76c-1.55,3.77-3.78,7.06-6.21,10.31c0,0.01-0.01,0.01-0.01,0.02c-0.33-0.11-0.68-0.21-1.03-0.3
				c2.27-3.04,4.47-6.11,6-9.63c1.87-4.28,2.94-8.84,4.35-13.28c1.26-3.95,3-7.63,4.83-11.35c2.19-4.47,3.99-9.05,5.58-13.77
				c2-5.9,3.77-11.88,6.09-17.65C599.18,306.59,599.49,306.7,599.81,306.81z"/>
			<path class="st3" d="M640.33,323.7c-1.84,3.57-3.04,7.45-4.28,11.32c-2.16,6.77-5.63,12.65-8.63,19.04
				c-5.1,10.91-8.17,22.79-14.52,33.07c1.91,0.85,3.83,1.69,5.77,2.46c4.95-11.08,9.65-22.3,13.9-33.66
				c2.26-6.03,3.97-12.29,6.39-18.25c1.72-4.22,4.52-7.96,6.35-12.12C643.82,324.93,642.05,324.3,640.33,323.7z"/>
			<path class="st0" d="M649.28,328.34c-9.91,20.39-17.8,41.64-24.01,63.46c-0.32-0.08-0.64-0.17-0.96-0.27
				c6.27-22.02,14.26-43.46,24.28-64.04C648.85,327.75,649.08,328.04,649.28,328.34z"/>
		</g>
		<g>
			<path class="st15" d="M374.22,513.31c-0.05-0.19-0.14-0.39-0.27-0.59c-1.02-1.55-5.5-1.17-6.99-1.17
				c-1.48,0-14.22,1.66-14.69,0.28c0,0-3.39-10.06-3.39-10.07c-0.75-2.22-16.52,8.02-17.64,9.08c-1.73,1.64-3,3.72-1.75,6.04
				c2.54,4.72,11.62,3.09,15.85,2.91C352.5,519.49,374.89,515.77,374.22,513.31z"/>
			<g>
				<path class="st23" d="M353.37,517.71c-0.23,0-0.44-0.16-0.49-0.39l-0.92-4.14c-0.06-0.27,0.11-0.54,0.38-0.6
					c0.28-0.06,0.54,0.11,0.6,0.38l0.92,4.14c0.06,0.27-0.11,0.54-0.38,0.6C353.44,517.71,353.4,517.71,353.37,517.71z"/>
			</g>
		</g>
		<g>
			<path class="st15" d="M330.17,500.43c-1.65-0.08-3.28,0.13-4.88,0.48c-1.78-3.79-10.38-7.89-11.6-7.48
				c-3.4,1.16-4.94,2.65-7.79,4.69c-3.03,2.18-15.03,13.07-5.07,14.9c6.92,1.27,14.28-0.58,20.76-2.92
				c2.59-0.94,13.15-3.79,12.75-7.78C334.17,500.57,331.4,500.49,330.17,500.43z"/>
			<g>
				<path class="st23" d="M328.37,506.63c-0.17,0-0.34-0.09-0.43-0.25l-2.67-4.69c-0.14-0.24-0.05-0.55,0.19-0.68
					c0.24-0.14,0.54-0.05,0.68,0.19l2.67,4.69c0.14,0.24,0.05,0.54-0.19,0.68C328.54,506.61,328.45,506.63,328.37,506.63z"/>
			</g>
		</g>
		<g>
			<path class="st24" d="M179.37,291.54c-0.2,0-0.39-0.12-0.46-0.31c-0.15-0.37-15.04-37.42-19.65-46.46
				c-4.54-8.91-7.03-11.16-7.05-11.18c-0.21-0.18-0.23-0.5-0.05-0.71c0.18-0.21,0.49-0.23,0.7-0.05c0.11,0.09,2.63,2.33,7.29,11.48
				c4.62,9.08,19.54,46.17,19.69,46.54c0.1,0.26-0.02,0.55-0.28,0.65C179.49,291.53,179.43,291.54,179.37,291.54z"/>
		</g>
		<g>
			<path class="st24" d="M253.67,263.81c-0.21,0-0.4-0.13-0.47-0.33c-0.07-0.19-6.83-19.01-8.64-24.96
				c-1.8-5.89-10.21-22.42-10.3-22.58c-0.13-0.25-0.03-0.55,0.22-0.67c0.25-0.12,0.55-0.03,0.67,0.22
				c0.35,0.68,8.54,16.77,10.37,22.75c1.81,5.92,8.56,24.72,8.63,24.91c0.09,0.26-0.04,0.55-0.3,0.64
				C253.78,263.8,253.72,263.81,253.67,263.81z"/>
		</g>
		<g>
			<path class="st24" d="M177.53,342.79c-0.03,0-0.05,0-0.08-0.01c-0.06-0.01-5.78-0.95-12.38-3.26
				c-6.76-2.38-9.97-10.3-10.11-10.64c-0.1-0.26,0.02-0.55,0.28-0.65c0.26-0.1,0.55,0.02,0.65,0.28c0.03,0.08,3.18,7.84,9.51,10.06
				c6.51,2.29,12.15,3.21,12.2,3.22c0.27,0.04,0.46,0.3,0.41,0.57C177.99,342.62,177.77,342.79,177.53,342.79z"/>
		</g>
		<g>
			<path class="st14" d="M248.87,319.21c-0.07,0-0.15-0.02-0.22-0.05c-0.25-0.12-0.35-0.42-0.23-0.67c0.03-0.07,3.28-6.8,3.12-12.6
				c-0.16-5.84-0.65-7.87-0.65-7.89c-0.07-0.27,0.1-0.54,0.37-0.6c0.26-0.07,0.54,0.09,0.61,0.36c0.02,0.08,0.51,2.12,0.68,8.11
				c0.17,6.05-3.08,12.78-3.22,13.07C249.23,319.11,249.05,319.21,248.87,319.21z"/>
		</g>
		<g>
			<path class="st14" d="M193.83,211.97c-8.75,0-18.9-12.55-19.35-13.11c-0.17-0.22-0.14-0.53,0.08-0.7
				c0.22-0.17,0.53-0.14,0.7,0.08c0.11,0.14,11.24,13.94,19.7,12.65c8.29-1.25,9.05-5.05,9.05-5.09c0.05-0.27,0.3-0.45,0.57-0.41
				c0.27,0.04,0.46,0.29,0.41,0.57c-0.03,0.18-0.8,4.55-9.89,5.92C194.69,211.94,194.26,211.97,193.83,211.97z"/>
		</g>
		<path class="st18" d="M184.36,174.05c0.38,0.32,2.17,1.36,2.45,0.58c0.8-2.23,1.09-4.57,2.07-6.74c0.63-1.41,1.32-2.76,1.8-4.21
			c0.15,0.19,0.31,0.37,0.46,0.56c-0.13,0.6,0.81,0.72,0.94,0.13c0.48-2.15-0.93-3.51-2.98-3.74c-1.69-0.19-3.32,0.37-4.63,1.38
			C180.86,164.81,180.86,171.08,184.36,174.05z"/>
	</g>
	<g>
		<path class="st21" d="M370.64,383.11c-0.21,0-0.4-0.13-0.47-0.33c-0.08-0.23-8.06-22.7-16.07-28.15
			c-8.04-5.46-35.44-7.76-35.71-7.79c-0.28-0.02-0.48-0.26-0.46-0.54c0.02-0.27,0.28-0.48,0.54-0.46
			c1.14,0.09,27.94,2.34,36.19,7.96c8.28,5.63,16.12,27.7,16.45,28.64c0.09,0.26-0.04,0.55-0.31,0.64
			C370.75,383.1,370.7,383.11,370.64,383.11z"/>
	</g>
	<g>
		<path class="st21" d="M328.76,400.59c-0.11,0-0.21-0.03-0.3-0.1c-0.22-0.17-0.26-0.48-0.1-0.7l10.99-14.58
			c0.17-0.22,0.48-0.26,0.7-0.1c0.22,0.17,0.26,0.48,0.1,0.7l-10.99,14.58C329.06,400.52,328.91,400.59,328.76,400.59z"/>
	</g>
	<g>
		<path class="st21" d="M328.76,402.37c-0.19,0-0.36-0.1-0.45-0.28c-0.12-0.25-0.02-0.55,0.23-0.67l10.99-5.33
			c0.25-0.12,0.55-0.02,0.67,0.23c0.12,0.25,0.02,0.55-0.23,0.67l-10.99,5.33C328.91,402.36,328.83,402.37,328.76,402.37z"/>
	</g>
</g>
</svg>
