<?xml version="1.0" encoding="utf-8"?>
<!-- Generator: Adobe Illustrator 24.1.3, SVG Export Plug-In . SVG Version: 6.00 Build 0)  -->
<svg version="1.1" id="레이어_1" xmlns="http://www.w3.org/2000/svg" xmlns:xlink="http://www.w3.org/1999/xlink" x="0px"
	 y="0px" viewBox="0 0 841.89 595.28" style="enable-background:new 0 0 841.89 595.28;" xml:space="preserve">
<style type="text/css">
	.st0{fill:#FFFFFF;}
	.st1{fill:#FBF9F7;}
	.st2{fill:#ECDFD9;}
	.st3{fill:#D2C1B9;}
	.st4{fill:#F6D0B0;}
	.st5{fill:#FADAA2;}
	.st6{fill:#F0BB79;}
	.st7{fill:#4A4747;}
	.st8{fill:#878484;}
	.st9{fill:#D49C80;}
	.st10{fill:#DEAB7E;}
	.st11{fill:#D4654C;}
	.st12{fill:#E5D5CE;}
	.st13{fill:#558265;}
	.st14{fill:#3D6554;}
	.st15{fill:#F3A287;}
	.st16{fill:#6A3939;}
	.st17{fill:#47587B;}
	.st18{opacity:0.48;fill:#FFFFFF;}
	.st19{fill:#B84B33;}
	.st20{fill:#E7805D;}
	.st21{fill:#262730;}
</style>
<path class="st0" d="M903.83-113.96"/>
<path class="st0" d="M-3073.88-113.96"/>
<g>
	<path class="st1" d="M711.35,374.18c-1.09,12.18-2.25,24.37-3.73,36.51c0,0-14.23,1.11-38.12,2.97c-0.66,0.06-1.33,0.11-2.01,0.16
		c-12.09,0.95-26.51,2.07-42.71,3.34c-0.66,0.04-1.34,0.1-2.02,0.15c-14.04,1.09-29.38,2.29-45.66,3.55
		c-0.67,0.06-1.34,0.11-2.01,0.16c-13.66,1.06-27.96,2.17-42.71,3.32c-0.67,0.05-1.34,0.1-2.02,0.15
		c-14.85,1.16-30.15,2.34-45.67,3.55c-0.67,0.05-1.34,0.1-2.01,0.15c-14.1,1.09-28.38,2.2-42.69,3.3c-0.67,0.05-1.34,0.1-2.02,0.16
		c-138.15,10.66-277.85,21.3-278.75,20.8c-1.79-1-21.79-41.76-21.79-41.76s-1.7-69.18-1.25-120.44c0.14-16.82,0.51-31.71,1.25-41.6
		c0.11-1.4,0.21-2.89,0.3-4.47c0.1-1.49,0.19-3.07,0.28-4.71c2.58-45.88,5.18-146,49.18-180.17c4.22-3.27,8.57-6.07,13.04-8.44
		c45.1-24.03,101.94-5.14,149.25,3.06c16.86,2.92,32.96,5.25,49.2,6.52c14.86,1.18,29.84,1.47,45.62,0.53
		c1.9-0.11,3.82-0.22,5.75-0.31c1.52-0.08,3.05-0.14,4.59-0.2c8.56-0.34,17.36-0.48,26.32-0.37c8.68,0.11,17.5,0.44,26.38,1.05
		c0.66,0.04,1.33,0.09,2,0.14c15.53,1.13,31.24,3.09,46.69,6.1c0.66,0.12,1.32,0.25,1.97,0.38c14.24,2.86,28.23,6.6,41.65,11.42
		c0.65,0.23,1.3,0.46,1.95,0.71c15.61,5.73,30.4,12.93,43.84,21.85c0.64,0.42,1.28,0.85,1.91,1.28
		c15.35,10.47,28.85,23.25,39.68,38.73c0.62,0.87,1.23,1.76,1.81,2.65c5,7.48,9.37,15.57,13.05,24.31
		C728.73,232.55,717.31,307.44,711.35,374.18z"/>
	<g>
		<g>
			
				<rect x="92.8" y="308.17" transform="matrix(0.0668 -0.9978 0.9978 0.0668 -106.8833 504.0585)" class="st0" width="246.46" height="2"/>
		</g>
		<g>
			
				<rect x="48.33" y="308.17" transform="matrix(0.0668 -0.9978 0.9978 0.0668 -148.3865 459.6824)" class="st0" width="246.46" height="2"/>
		</g>
		<g>
			
				<rect x="184.68" y="308.17" transform="matrix(0.0668 -0.9978 0.9978 0.0668 -21.1438 595.733)" class="st0" width="246.46" height="2"/>
		</g>
		<g>
			
				<rect x="140.21" y="308.17" transform="matrix(0.0668 -0.9978 0.9978 0.0668 -62.647 551.3568)" class="st0" width="246.46" height="2"/>
		</g>
		<g>
			
				<rect x="276.56" y="308.17" transform="matrix(0.0668 -0.9978 0.9978 0.0668 64.5957 687.4075)" class="st0" width="246.46" height="2"/>
		</g>
		<g>
			
				<rect x="232.09" y="308.17" transform="matrix(0.0668 -0.9978 0.9978 0.0668 23.0925 643.0313)" class="st0" width="246.46" height="2"/>
		</g>
		<g>
			<path class="st0" d="M509.34,61.28l-24.65,366.76l-0.28,4.14l-1.99-0.13l0.26-3.86l24.66-367.05
				C508,61.18,508.67,61.23,509.34,61.28z"/>
		</g>
		<g>
			
				<rect x="323.97" y="308.17" transform="matrix(0.0668 -0.9978 0.9978 0.0668 108.8315 734.7053)" class="st0" width="246.46" height="2"/>
		</g>
		<g>
			<path class="st0" d="M601.6,79.89l-24.5,340.97l-0.81,11.33l-1.99-0.14l0.79-11.03l24.56-341.84
				C600.3,79.41,600.95,79.64,601.6,79.89z"/>
		</g>
		<g>
			<path class="st0" d="M558,67.76l-25.62,356.58l-0.56,7.85l-2-0.14l0.54-7.56l25.67-357.11C556.69,67.5,557.35,67.63,558,67.76z"
				/>
		</g>
		<g>
			<path class="st0" d="M688.84,144.4L669.5,413.66l-1.33,18.53l-1.99-0.14l1.31-18.23l19.54-272.07
				C687.65,142.62,688.26,143.51,688.84,144.4z"/>
		</g>
		<g>
			<path class="st0" d="M647.35,103.02l-22.57,314.14l-1.08,15.03l-2-0.14l1.06-14.74l22.68-315.57
				C646.08,102.16,646.72,102.59,647.35,103.02z"/>
		</g>
	</g>
	<path class="st2" d="M734.11,499.46c-0.01,7.6-1.55,13.71-5.36,17.2c-1.92,1.75-4.81,3.53-8.57,5.31c-0.7,0.34-1.44,0.67-2.2,1
		c-9.74,4.24-24.34,8.45-42.36,12.21c-0.48,0.1-0.96,0.2-1.46,0.3h-0.01c-50.64,10.41-127.54,17.32-200.19,12.15
		c-3.36-0.24-6.64-0.48-9.85-0.72c-0.39-0.03-0.79-0.06-1.18-0.09c-94.82-7.09-123.08-13.81-172.2-10.24
		c-0.43,0.03-0.87,0.06-1.31,0.1c-3.89,0.29-7.91,0.64-12.11,1.07c-49.2,5.01-123.37,9.34-156.74-4.54
		c-0.32-0.13-0.63-0.26-0.94-0.4c-6-2.62-10.6-5.86-13.38-9.84c-0.23-0.33-0.45-0.66-0.65-1c-0.18-0.29-0.34-0.58-0.5-0.88
		c-3.77-7.16-4.12-14.32-2.32-21.63c0.08-0.34,0.16-0.67,0.25-1c1.97-7.3,6.01-14.75,10.82-22.5c0.2-0.33,0.41-0.66,0.62-1
		c1.9-3.03,3.91-6.11,5.96-9.25c2.58-3.95,4.8-8.5,6.71-13.26c0.14-0.33,0.27-0.66,0.4-1c2.96-7.58,5.13-15.6,6.68-22.51
		c0.07-0.34,0.15-0.67,0.21-1c2.16-9.89,3-17.25,3-17.25h570.19c0,0,3.2,6.91,7.39,17.25c0.13,0.33,0.26,0.66,0.4,1
		c0.78,1.94,1.59,3.99,2.42,6.13c0.14,0.37,0.28,0.75,0.43,1.12c1.81,4.75,3.7,9.91,5.51,15.26c0.11,0.33,0.22,0.67,0.34,1
		c2.46,7.37,4.77,15.06,6.54,22.51c0.08,0.34,0.16,0.67,0.24,1c1.88,8.08,3.11,15.83,3.21,22.5
		C734.11,498.8,734.11,499.13,734.11,499.46z"/>
	<g>
		<g>
			<path class="st3" d="M720.18,521.97c-0.7,0.34-1.44,0.67-2.2,1H106.25c-0.23-0.33-0.45-0.66-0.65-1H720.18z"/>
		</g>
		<g>
			<path class="st3" d="M734.11,499.46H102.78c0.08-0.34,0.16-0.67,0.25-1H734.1C734.11,498.8,734.11,499.13,734.11,499.46z"/>
		</g>
		<g>
			<path class="st3" d="M730.89,475.96H113.85c0.2-0.33,0.41-0.66,0.62-1h616.18C730.73,475.3,730.81,475.63,730.89,475.96z"/>
		</g>
		<g>
			<path class="st3" d="M724.11,452.45H127.14c0.14-0.33,0.27-0.66,0.4-1h596.23C723.88,451.78,723.99,452.12,724.11,452.45z"/>
		</g>
		<g>
			<path class="st3" d="M715.41,428.94H134.22c0.07-0.34,0.15-0.67,0.21-1h580.58C715.14,428.27,715.27,428.6,715.41,428.94z"/>
		</g>
		<g>
			<path class="st3" d="M202.72,522.97c-0.1,0-0.21-0.03-0.29-0.1c-0.22-0.16-0.27-0.48-0.11-0.7l17.21-23.51
				c0.16-0.22,0.48-0.27,0.7-0.11c0.22,0.16,0.27,0.48,0.11,0.7l-17.21,23.51C203.02,522.9,202.87,522.97,202.72,522.97z"/>
		</g>
		<g>
			<path class="st3" d="M222.23,475.89c-0.1,0-0.21-0.03-0.29-0.1c-0.22-0.16-0.27-0.48-0.11-0.7l17.21-23.51
				c0.16-0.22,0.48-0.27,0.7-0.11c0.22,0.16,0.27,0.48,0.11,0.7l-17.21,23.51C222.54,475.82,222.39,475.89,222.23,475.89z"/>
		</g>
		<g>
			<path class="st3" d="M300.84,522.77l-0.15,0.2l-9.96,13.61c-0.43,0.03-0.87,0.06-1.31,0.1l10.03-13.71l0.59-0.8
				c0.1-0.13,0.24-0.2,0.39-0.2c0.11,0,0.21,0.03,0.3,0.1C300.96,522.23,301.01,522.54,300.84,522.77z"/>
		</g>
		<g>
			<path class="st3" d="M305.02,499.47c-0.1,0-0.21-0.03-0.29-0.1c-0.22-0.16-0.27-0.48-0.11-0.7l17.21-23.51
				c0.16-0.22,0.48-0.27,0.7-0.11c0.22,0.16,0.27,0.48,0.11,0.7l-17.21,23.51C305.33,499.4,305.17,499.47,305.02,499.47z"/>
		</g>
		<g>
			<path class="st3" d="M322.23,452.45c-0.1,0-0.21-0.03-0.29-0.1c-0.22-0.16-0.27-0.48-0.11-0.7l17.21-23.51
				c0.16-0.22,0.48-0.27,0.7-0.11c0.22,0.16,0.27,0.48,0.11,0.7l-17.21,23.51C322.53,452.38,322.38,452.45,322.23,452.45z"/>
		</g>
		<g>
			<path class="st3" d="M128.22,522.77l-0.15,0.2l-7.5,10.24c-0.32-0.13-0.63-0.26-0.94-0.4l7.2-9.84l0.59-0.8
				c0.1-0.13,0.24-0.2,0.4-0.2c0.1,0,0.21,0.03,0.3,0.1C128.34,522.23,128.39,522.54,128.22,522.77z"/>
		</g>
		<g>
			<path class="st3" d="M132.4,499.47c-0.1,0-0.21-0.03-0.29-0.1c-0.22-0.16-0.27-0.48-0.11-0.7l17.21-23.51
				c0.16-0.22,0.48-0.27,0.7-0.11c0.22,0.16,0.27,0.48,0.11,0.7l-17.21,23.51C132.71,499.4,132.55,499.47,132.4,499.47z"/>
		</g>
		<g>
			<path class="st3" d="M149.61,452.45c-0.1,0-0.21-0.03-0.29-0.1c-0.22-0.16-0.27-0.48-0.11-0.7l17.21-23.51
				c0.16-0.22,0.48-0.27,0.7-0.11c0.22,0.16,0.27,0.48,0.11,0.7l-17.21,23.51C149.92,452.38,149.76,452.45,149.61,452.45z"/>
		</g>
		<g>
			<path class="st3" d="M481.79,522.77l-17.68,24.14c-0.39-0.03-0.79-0.06-1.18-0.09l18.06-24.65c0.16-0.22,0.47-0.27,0.7-0.1
				C481.91,522.23,481.96,522.54,481.79,522.77z"/>
		</g>
		<g>
			<path class="st3" d="M485.97,499.47c-0.1,0-0.21-0.03-0.3-0.1c-0.22-0.16-0.27-0.48-0.11-0.7l17.21-23.51
				c0.16-0.22,0.48-0.27,0.7-0.11c0.22,0.16,0.27,0.48,0.11,0.7l-17.21,23.51C486.28,499.4,486.12,499.47,485.97,499.47z"/>
		</g>
		<g>
			<path class="st3" d="M503.18,452.45c-0.1,0-0.21-0.03-0.29-0.1c-0.22-0.16-0.27-0.48-0.11-0.7l17.21-23.51
				c0.16-0.22,0.48-0.27,0.7-0.11c0.22,0.16,0.27,0.48,0.11,0.7l-17.21,23.51C503.49,452.38,503.33,452.45,503.18,452.45z"/>
		</g>
		<g>
			<path class="st3" d="M684.71,522.77l-0.15,0.2l-8.94,12.21c-0.48,0.1-0.96,0.2-1.46,0.3l9.15-12.51l0.59-0.8
				c0.1-0.13,0.25-0.2,0.4-0.2c0.11,0,0.21,0.03,0.3,0.1C684.82,522.23,684.87,522.54,684.71,522.77z"/>
		</g>
		<g>
			<path class="st3" d="M688.88,499.47c-0.1,0-0.21-0.03-0.29-0.1c-0.22-0.16-0.27-0.48-0.11-0.7l17.21-23.51
				c0.16-0.22,0.48-0.27,0.7-0.11c0.22,0.16,0.27,0.48,0.11,0.7l-17.21,23.51C689.19,499.4,689.04,499.47,688.88,499.47z"/>
		</g>
		<g>
			<path class="st3" d="M717.83,435.07c0.14,0.37,0.28,0.75,0.43,1.12l-11.17,15.26l-0.59,0.8c-0.1,0.13-0.25,0.2-0.4,0.2
				c-0.11,0-0.21-0.03-0.3-0.1c-0.22-0.16-0.27-0.47-0.11-0.7l0.15-0.2L717.83,435.07z"/>
		</g>
		<g>
			<path class="st3" d="M255.27,410.69l-12.63,17.25l-0.48,0.65c-0.1,0.14-0.25,0.21-0.41,0.21c-0.1,0-0.2-0.03-0.29-0.1
				c-0.23-0.16-0.27-0.48-0.11-0.7l0.04-0.06l12.63-17.25H255.27z"/>
		</g>
		<g>
			<path class="st3" d="M386.48,522.97c-0.1,0-0.21-0.03-0.3-0.1c-0.22-0.16-0.27-0.48-0.11-0.7l17.21-23.51
				c0.16-0.22,0.48-0.27,0.7-0.11c0.22,0.16,0.27,0.48,0.11,0.7l-17.21,23.51C386.78,522.9,386.63,522.97,386.48,522.97z"/>
		</g>
		<g>
			<path class="st3" d="M405.99,475.89c-0.1,0-0.21-0.03-0.3-0.1c-0.22-0.16-0.27-0.48-0.11-0.7l17.21-23.51
				c0.16-0.22,0.48-0.27,0.7-0.11c0.22,0.16,0.27,0.48,0.11,0.7l-17.21,23.51C406.3,475.82,406.15,475.89,405.99,475.89z"/>
		</g>
		<g>
			<path class="st3" d="M439.03,410.69l-12.63,17.25l-0.48,0.65c-0.1,0.14-0.25,0.21-0.41,0.21c-0.1,0-0.2-0.03-0.29-0.1
				c-0.23-0.16-0.27-0.48-0.11-0.7l0.04-0.06l12.63-17.25H439.03z"/>
		</g>
		<g>
			<path class="st3" d="M570.24,522.97c-0.1,0-0.21-0.03-0.29-0.1c-0.22-0.16-0.27-0.48-0.11-0.7l17.21-23.51
				c0.16-0.22,0.48-0.27,0.7-0.11c0.22,0.16,0.27,0.48,0.11,0.7l-17.21,23.51C570.54,522.9,570.39,522.97,570.24,522.97z"/>
		</g>
		<g>
			<path class="st3" d="M589.75,475.89c-0.1,0-0.21-0.03-0.29-0.1c-0.22-0.16-0.27-0.48-0.11-0.7l17.21-23.51
				c0.16-0.22,0.48-0.27,0.7-0.11c0.22,0.16,0.27,0.48,0.11,0.7l-17.21,23.51C590.06,475.82,589.91,475.89,589.75,475.89z"/>
		</g>
		<g>
			<path class="st3" d="M622.79,410.69l-12.63,17.25l-0.48,0.65c-0.1,0.14-0.25,0.21-0.41,0.21c-0.1,0-0.2-0.03-0.29-0.1
				c-0.23-0.16-0.27-0.48-0.11-0.7l0.04-0.06l12.63-17.25H622.79z"/>
		</g>
	</g>
	<g>
		<path class="st0" d="M665.98,457.64c-11.34-12.54-30.15-14.22-45.85-16.66c-19.32-3.01-38.77-5.21-58.25-6.93
			c-40.15-3.53-81.08-6.6-121.34-6.81c-58.54-0.31-118.7,5.84-176.5,15.02c-22.23,3.53-60.35,18.82-55.85,43.74
			c1.22,6.79,5.49,12.28,11.6,15.39c6.1,3.1,13.1,3.99,19.84,4.48c9.41,0.68,18.85,1.05,28.28,1.52
			c39.69,1.95,79.41,3.24,119.15,3.88c39.57,0.64,79.14,0.63,118.71-0.03c37.28-0.62,74.92-0.85,111.92-5.92
			c16.5-2.26,34.3-0.84,47.23-13.19c4.45-4.25,7.66-9.82,8.1-16.04C673.52,469.21,670.52,462.66,665.98,457.64z"/>
		<path class="st2" d="M232.51,479.96c-5.43-0.86-10.87-1.04-16.34-0.51c-0.64,0.06-0.64,1.06,0,1c5.38-0.52,10.74-0.37,16.08,0.48
			C232.87,481.03,233.14,480.06,232.51,479.96z"/>
		<path class="st2" d="M356.77,443.68c-5.43-0.86-10.87-1.04-16.34-0.51c-0.63,0.06-0.64,1.06,0,1c5.38-0.52,10.74-0.37,16.08,0.48
			C357.14,444.75,357.41,443.78,356.77,443.68z"/>
		<path class="st2" d="M451.55,502.92c-5.43-0.86-10.87-1.04-16.34-0.51c-0.63,0.06-0.64,1.06,0,1c5.38-0.52,10.74-0.37,16.08,0.48
			C451.91,503.98,452.18,503.02,451.55,502.92z"/>
		<path class="st2" d="M577.4,471.3c-5.43-0.86-10.87-1.04-16.34-0.51c-0.64,0.06-0.64,1.06,0,1c5.38-0.52,10.74-0.37,16.08,0.48
			C577.77,472.36,578.04,471.4,577.4,471.3z"/>
		<path class="st2" d="M623.89,454.93c-5.43-0.86-10.87-1.04-16.34-0.51c-0.64,0.06-0.64,1.06,0,1c5.38-0.52,10.74-0.37,16.08,0.48
			C624.25,456,624.52,455.03,623.89,454.93z"/>
		<path class="st2" d="M272.27,451.3c-5.43-0.86-10.87-1.04-16.34-0.51c-0.64,0.06-0.64,1.06,0,1c5.38-0.52,10.74-0.37,16.08,0.48
			C272.64,452.36,272.91,451.4,272.27,451.3z"/>
		<path class="st2" d="M285.54,495.65c-5.43-0.86-10.87-1.04-16.34-0.51c-0.64,0.06-0.64,1.06,0,1c5.38-0.52,10.74-0.37,16.08,0.48
			C285.9,496.72,286.17,495.75,285.54,495.65z"/>
		<path class="st2" d="M329.96,468.3c-5.43-0.86-10.87-1.04-16.34-0.51c-0.64,0.06-0.64,1.06,0,1c5.38-0.52,10.74-0.37,16.08,0.48
			C330.32,469.36,330.59,468.4,329.96,468.3z"/>
		<path class="st2" d="M368.68,491.72c-5.43-0.86-10.87-1.04-16.34-0.51c-0.64,0.06-0.64,1.06,0,1c5.38-0.52,10.74-0.37,16.08,0.48
			C369.04,492.78,369.31,491.82,368.68,491.72z"/>
		<path class="st2" d="M531.82,502.02c-5.43-0.86-10.87-1.04-16.34-0.51c-0.64,0.06-0.64,1.06,0,1c5.38-0.52,10.74-0.37,16.08,0.48
			C532.18,503.09,532.45,502.13,531.82,502.02z"/>
		<path class="st2" d="M621.18,491.72c-5.43-0.86-10.87-1.04-16.34-0.51c-0.64,0.06-0.64,1.06,0,1c5.38-0.52,10.74-0.37,16.08,0.48
			C621.54,492.78,621.81,491.82,621.18,491.72z"/>
		<path class="st2" d="M669.04,472.19c-5.43-0.86-10.87-1.04-16.34-0.51c-0.64,0.06-0.64,1.06,0,1c5.38-0.52,10.74-0.37,16.08,0.48
			C669.4,473.25,669.67,472.29,669.04,472.19z"/>
	</g>
	<path class="st4" d="M454.64,60.46l-10.5,183.72H137.73c0.1-1.49,0.19-3.07,0.28-4.71c2.58-45.88,5.18-146,49.18-180.17
		c46.79-36.32,110.29-14.39,162.29-5.38c32.29,5.6,61.79,9.02,94.82,7.05c1.9-0.11,3.82-0.22,5.75-0.31
		C451.57,60.58,453.1,60.52,454.64,60.46z"/>
	<path class="st0" d="M450.05,60.66l-10.22,178.81H138.01c2.58-45.88,5.18-146,49.18-180.17c31.26-24.26,69.97-22.53,107.73-16.02
		c0.33,0.06,0.65,0.11,0.98,0.17c18.43,3.22,36.62,7.53,53.58,10.47c32.29,5.6,61.79,9.02,94.82,7.05
		C446.2,60.86,448.12,60.75,450.05,60.66z"/>
	<g>
		<path class="st4" d="M295.9,43.45l-1.96,42.18l-0.05,1l-7.1,152.84l-0.11,2.3l-1-0.05l0.1-2.25l7.12-152.84l0.05-1l1.97-42.35
			C295.25,43.34,295.57,43.39,295.9,43.45z"/>
	</g>
	<g>
		<rect x="174.95" y="85.63" class="st4" width="238.93" height="1"/>
	</g>
	<path class="st5" d="M548.53,254.72c-1.29,0.15-2.61,0.2-3.98,0.11c-7.55-0.48-12.92-0.1-19.6,3.6
		c-6.32,3.49-11.57,6.97-19.02,7.26c-6.93,0.27-12.74,1.46-19.2,4.13c-7.53,3.11-15.21,5.91-23.18,7.66
		c-8.12,1.77-16.17,1.3-24.37,2.01c-1.43,0.12-2.84,0.31-4.23,0.54c1.38-12.58,4.95-25.22,0.86-37.43
		c-2.62-7.83-8.94-13.48-12.49-20.81c-3.77-7.78-2.27-16.04-1.1-24.25c1.36-9.54,1.13-19.17-0.99-28.59
		c-2.06-9.2-6.08-17.23-10.56-25.44c-4.32-7.94-5.81-15.9-5.36-24.9c0.48-9.34,2.15-18.61,0.85-27.96
		c-1.42-10.17-5.39-20.11-7.48-30.21c14.86,1.18,29.84,1.47,45.62,0.53c1.9-0.11,3.82-0.22,5.75-0.31c1.52-0.08,3.05-0.14,4.59-0.2
		c8.56-0.34,17.36-0.48,26.32-0.37c0.09,1.33,0.14,2.64,0.16,3.89c0.12,6.04,0.06,12.28,3.01,17.75c2.44,4.55,6.26,8.14,9.44,12.15
		c6.08,7.64,7.38,16.56,8.23,26.01c0.46,5.18,0.89,10.42,2.41,15.42c1.7,5.63,5.24,9.84,8.44,14.64c6.03,9.02,6.65,19.92,8.52,30.3
		c2.06,11.47,7.24,21.81,11.71,32.47C538.65,226.51,543.87,240.52,548.53,254.72z"/>
	<path class="st5" d="M188.22,148.04c1.27,5.87,2.31,11.84,2.36,17.87c0.04,5.59-0.8,11.15-1.98,16.6
		c-2.48,11.35-6.58,22.38-7.88,33.97c-0.65,5.82-0.46,11.69,0.93,17.4c1.41,5.84,3.76,11.42,4.92,17.32
		c1.09,5.54,0.59,10.61-1.19,15.93c-2.03,6.06-3.57,11.87-2.94,18.33c0.29,2.89,0.99,5.66,1.94,8.39c-0.03,0.01-0.05,0.01-0.08,0.02
		c-2.56-0.9-5.04-2.1-7.72-3.03c-4.32-1.5-8.4-1.5-12.78-0.22c-6.2,1.83-11.01,3.82-17.62,2.2c-3.42-0.85-6.66-1.85-10-2.57
		c0.14-16.82,0.51-31.71,1.25-41.6c0.11-1.4,0.21-2.89,0.3-4.47c0.1-1.49,0.19-3.07,0.28-4.71c2.58-45.88,5.18-146,49.18-180.17
		c4.22-3.27,8.57-6.07,13.04-8.44c-8.56,19.08-16.08,39.17-17.11,59.99C182.49,123.66,185.53,135.64,188.22,148.04z"/>
	<path class="st6" d="M513.76,214.1c-4.33-8.34-8.7-16.77-11.09-25.9c-2.37-9.04-2.63-18.43-3.36-27.71
		c-0.68-8.62-1.88-17.15-5.13-25.22c-2.85-7.07-6.76-13.63-10.43-20.29c-4.35-7.89-8.35-16.04-9.72-25.03
		c-0.1-0.63-1.06-0.36-0.96,0.27c2.39,15.7,12.58,28.38,18.95,42.53c3.85,8.55,5.45,17.53,6.22,26.83c0.73,8.9,0.96,17.9,2.92,26.65
		c2.26,10.06,7.02,19.29,11.73,28.38C513.19,215.18,514.05,214.67,513.76,214.1z"/>
	<path class="st6" d="M501.49,235.3c-7.74-12.79-13.83-26.47-18.17-40.77c-0.19-0.61-1.15-0.35-0.96,0.27
		c4.36,14.38,10.5,28.15,18.27,41.01C500.96,236.36,501.82,235.85,501.49,235.3z"/>
	<path class="st6" d="M166.12,243.89c0.08-7.08-1.69-13.32-3.96-19.97c-2.48-7.27-3.64-14.52-3.22-22.21
		c0.43-7.94,2.12-15.73,3.81-23.48c0.14-0.63-0.83-0.9-0.96-0.27c-3.25,14.82-6.02,29.74-1.16,44.53c1.16,3.52,2.5,6.98,3.39,10.58
		c0.95,3.86,1.18,7.78,1.09,11.74c-0.17,7.51-1.25,14.99,0.14,22.46c0.12,0.63,1.08,0.36,0.96-0.27
		C164.78,259.33,166.04,251.62,166.12,243.89z"/>
	<path class="st6" d="M437.93,209.82c-5.27-7.23-5.23-16.41-4.89-24.97c0.33-8.39,0.62-16.77,0.27-25.16
		c-0.69-16.37-3.74-32.88-12.45-47.01c-0.34-0.55-1.2-0.05-0.86,0.5c9.22,14.97,12,32.56,12.42,49.87
		c0.2,8.36-0.31,16.67-0.48,25.02c-0.16,7.73,0.42,15.79,5.13,22.24C437.45,210.84,438.31,210.34,437.93,209.82z"/>
	<g>
		<path class="st7" d="M360.45,503.59v0.04c0,1.31,1.02,2.4,2.33,2.49l32.32,2.18c0.53,0.04,1.05-0.1,1.5-0.38l8.99-5.65
			c0.73-0.46,1.17-1.25,1.17-2.11v-0.78L360.45,503.59z"/>
		<path class="st8" d="M360.45,503.59l13.28-6.22c0.38-0.18,0.81-0.26,1.23-0.23l31.8,2.23l-11.06,6.59L360.45,503.59z"/>
		<polygon class="st0" points="366.39,503.25 377.02,498.05 404.82,499.85 395.46,505.19 		"/>
	</g>
	<g>
		<path class="st9" d="M690.51,387.35c0,0,4.99,51.45,5.01,51.64c0.09,1.12,0.34,2.78,1.52,3.14c0.96,0.29,2.32,0.19,3.11-0.84
			c1.1-1.43,0.55-4.11,0.47-5.79c-0.11-2.38-0.23-4.76-0.34-7.13c-0.33-6.93-0.95-38.37-0.95-38.37L690.51,387.35z"/>
		<path class="st9" d="M534.71,387.46c0,0-5.8,51.37-5.82,51.55c-0.11,1.12-0.39,2.77-1.57,3.12c-0.96,0.28-2.33,0.16-3.1-0.89
			c-1.07-1.45-0.49-4.12-0.38-5.8c0.15-2.38,0.3-4.75,0.46-7.13c0.44-6.93,1.56-38.35,1.56-38.35L534.71,387.46z"/>
		<polygon class="st4" points="531.54,207.53 707.62,207.53 700.62,393.53 524.54,393.53 		"/>
		<g>
			<path class="st10" d="M696.01,389.01H529.59l0.02-0.52l7.33-176.02h165.84l-0.02,0.52L696.01,389.01z M530.63,388.01h164.41
				l6.7-174.54H537.91L530.63,388.01z"/>
		</g>
		<g>
			<path class="st10" d="M700.83,243.19H536.19c-0.28,0-0.5-0.22-0.5-0.5s0.22-0.5,0.5-0.5h164.64c0.28,0,0.5,0.22,0.5,0.5
				S701.11,243.19,700.83,243.19z"/>
		</g>
		<g>
			<path class="st10" d="M699.77,273.47H535.13c-0.28,0-0.5-0.22-0.5-0.5c0-0.28,0.22-0.5,0.5-0.5h164.64c0.28,0,0.5,0.22,0.5,0.5
				C700.27,273.24,700.04,273.47,699.77,273.47z"/>
		</g>
		<g>
			<path class="st10" d="M699.04,303.74H534.4c-0.28,0-0.5-0.22-0.5-0.5c0-0.28,0.22-0.5,0.5-0.5h164.64c0.28,0,0.5,0.22,0.5,0.5
				C699.54,303.52,699.32,303.74,699.04,303.74z"/>
		</g>
		<g>
			<path class="st10" d="M697.98,334.02H533.34c-0.28,0-0.5-0.22-0.5-0.5c0-0.28,0.22-0.5,0.5-0.5h164.64c0.28,0,0.5,0.22,0.5,0.5
				C698.48,333.8,698.25,334.02,697.98,334.02z"/>
		</g>
		<g>
			<path class="st10" d="M695.67,364.3H531.03c-0.28,0-0.5-0.22-0.5-0.5s0.22-0.5,0.5-0.5h164.64c0.28,0,0.5,0.22,0.5,0.5
				S695.95,364.3,695.67,364.3z"/>
		</g>
		<g>
			<path class="st10" d="M618.51,231.97c-2.76,0-5-2.24-5-5s2.24-5,5-5c2.76,0,5,2.24,5,5S621.26,231.97,618.51,231.97z
				 M618.51,222.97c-2.21,0-4,1.79-4,4c0,2.21,1.79,4,4,4c2.21,0,4-1.79,4-4C622.51,224.76,620.71,222.97,618.51,222.97z"/>
		</g>
		<g>
			<path class="st10" d="M617.45,262.83c-2.76,0-5-2.24-5-5c0-2.76,2.24-5,5-5c2.76,0,5,2.24,5,5
				C622.45,260.59,620.2,262.83,617.45,262.83z M617.45,253.83c-2.21,0-4,1.79-4,4c0,2.21,1.79,4,4,4c2.21,0,4-1.79,4-4
				C621.45,255.63,619.65,253.83,617.45,253.83z"/>
		</g>
		<g>
			<path class="st10" d="M616.38,291.85c-2.76,0-5-2.24-5-5c0-2.76,2.24-5,5-5c2.76,0,5,2.24,5,5
				C621.38,289.6,619.14,291.85,616.38,291.85z M616.38,282.85c-2.21,0-4,1.79-4,4c0,2.21,1.79,4,4,4c2.21,0,4-1.79,4-4
				C620.38,284.64,618.59,282.85,616.38,282.85z"/>
		</g>
		<g>
			<path class="st10" d="M615.32,322.06c-2.76,0-5-2.24-5-5c0-2.76,2.24-5,5-5c2.76,0,5,2.24,5,5
				C620.32,319.81,618.08,322.06,615.32,322.06z M615.32,313.06c-2.21,0-4,1.79-4,4c0,2.21,1.79,4,4,4c2.21,0,4-1.79,4-4
				C619.32,314.85,617.53,313.06,615.32,313.06z"/>
		</g>
		<g>
			<path class="st10" d="M614.26,352.97c-2.76,0-5-2.24-5-5c0-2.76,2.24-5,5-5c2.76,0,5,2.24,5,5
				C619.26,350.73,617.01,352.97,614.26,352.97z M614.26,343.97c-2.21,0-4,1.79-4,4c0,2.21,1.79,4,4,4c2.21,0,4-1.79,4-4
				C618.26,345.76,616.46,343.97,614.26,343.97z"/>
		</g>
		<g>
			<path class="st10" d="M613.2,381.79c-2.76,0-5-2.24-5-5c0-2.76,2.24-5,5-5c2.76,0,5,2.24,5,5
				C618.2,379.55,615.95,381.79,613.2,381.79z M613.2,372.79c-2.21,0-4,1.79-4,4c0,2.21,1.79,4,4,4c2.21,0,4-1.79,4-4
				C617.2,374.59,615.4,372.79,613.2,372.79z"/>
		</g>
	</g>
	<polygon class="st11" points="626.43,207.53 693.62,207.53 695.2,200.83 628,200.83 	"/>
	<polygon class="st7" points="642.7,200.83 698.19,200.83 699.64,195.7 644.15,195.7 	"/>
	<polygon class="st12" points="640.7,195.7 696.19,195.7 698.57,187.39 643.08,187.39 	"/>
	<g>
		<g>
			<path class="st13" d="M589.59,163.18c-2.71-0.43-6.16,1.5-8.27,2.99c-0.21,0.15-0.41,0.31-0.62,0.47
				c0.49-1.29,0.95-2.6,1.34-3.93c0.89-3.02,1.5-6.13,1.7-9.28c0.14-2.23,0.52-5.99-0.7-8.04c-2.19-3.65-7.04,2.19-8.3,4.04
				c-1.7,2.51-3.08,5.44-4.16,8.48c-0.12-2.05-0.36-4.1-0.7-6.12c-0.3-1.8-0.45-4.87-2.04-6.16c-3.02-2.44-5.76,3.64-6.56,5.62
				c-0.92,2.28-1.68,7.07-1.68,7.07s-1.73-5.07-2.27-6.57c-1.18-3.29-3.37-10.06-8.35-8.76c-2.88,0.75-2.91,6.9-2.81,9.22
				c0.08,2.12,0.45,4.17,1.03,6.17c-1.27-1.03-2.64-1.55-3.9-0.69c-3.29,2.24-2.01,7.37-0.77,10.29c2,4.71,5.1,8.85,8.91,12.25
				c0.19,1.25-0.01,2.69,0.75,3.73c0.74,1.02,2.01,1.15,3.18,1.35c4.17,0.73,8.44,0.86,12.66,0.71c3.24-0.12,6.69-0.32,9.52-2.06
				c3.08-1.89,5.48-5.28,7.71-8.03C586.53,174.36,594.94,164.03,589.59,163.18z"/>
			<g>
				<path class="st14" d="M555.68,175.05c-0.18,0-0.35-0.1-0.44-0.26l-7.58-14.25c-0.13-0.24-0.04-0.55,0.21-0.68
					c0.24-0.13,0.55-0.04,0.68,0.21l7.58,14.25c0.13,0.24,0.04,0.55-0.21,0.68C555.84,175.03,555.76,175.05,555.68,175.05z"/>
			</g>
			<g>
				<path class="st14" d="M561.17,168.3c-0.25,0-0.46-0.18-0.49-0.43l-1.17-8.42c-0.04-0.27,0.15-0.53,0.43-0.56
					c0.26-0.04,0.53,0.15,0.56,0.43l1.17,8.42c0.04,0.27-0.15,0.53-0.43,0.56C561.22,168.3,561.2,168.3,561.17,168.3z"/>
			</g>
			<g>
				<path class="st14" d="M567.26,175.05c-0.03,0-0.07,0-0.1-0.01c-0.27-0.05-0.45-0.32-0.39-0.59l3.17-15.67
					c0.05-0.27,0.32-0.44,0.59-0.39c0.27,0.05,0.45,0.32,0.39,0.59l-3.17,15.67C567.7,174.89,567.49,175.05,567.26,175.05z"/>
			</g>
			<g>
				<path class="st14" d="M573.34,175.05c-0.12,0-0.25-0.05-0.34-0.14c-0.2-0.19-0.21-0.51-0.02-0.71l6.42-6.75
					c0.19-0.2,0.51-0.21,0.71-0.02c0.2,0.19,0.21,0.51,0.02,0.71l-6.42,6.75C573.61,175,573.47,175.05,573.34,175.05z"/>
			</g>
		</g>
		<g>
			<path class="st9" d="M584.93,177.38l-0.52,7.85l-0.24,3.64l-0.27,4.14l-0.78,11.72c-0.11,1.57-1.42,2.8-3,2.8h-33.11
				c-1.73,0-3.11-1.47-2.99-3.2l1.37-20.6l0.42-6.35H584.93z"/>
			<path class="st0" d="M545.81,177.38l-0.42,6.35c2.91-0.56,4.91-3.01,7.8-0.36c2.91,2.67,6.2,3.18,9.71,1.26
				c1.15-0.62,2.23-1.54,3.48-1.93c2.22-0.69,3.28,0.67,4.78,1.87c1.48,1.18,3.18,2.16,5.08,2.44c1.84,0.26,3.49-0.13,5-1.18
				c1.15-0.79,2.17-0.82,3.17-0.6l0.52-7.85H545.81z"/>
			<path class="st0" d="M549.25,187.83c-0.75,0.27-1.41,0.87-1.61,1.66c0,0.02,0,0.03,0,0.05c-0.05,0.12-0.07,0.25-0.09,0.38
				c-0.07,0.18-0.11,0.38-0.11,0.59c0,0.72,0.58,1.43,1.15,1.81c0.63,0.41,1.41,0.43,2.04,0.02c0.1-0.07,0.19-0.15,0.29-0.24
				c0.69-0.46,1.22-1.23,1.34-2.01C552.53,188.35,550.79,187.28,549.25,187.83z"/>
			<path class="st0" d="M566.62,187.87c-1.75,0.16-3.28,1.86-2.23,3.59c0.21,0.34,0.48,0.58,0.78,0.77
				c0.27,0.24,0.61,0.37,0.98,0.42c0.24,0.06,0.49,0.1,0.74,0.07c0.43-0.04,0.79-0.24,1.1-0.53c0.28-0.18,0.53-0.4,0.72-0.66
				C569.91,189.87,568.64,187.69,566.62,187.87z"/>
			<path class="st0" d="M584.17,188.87l-0.27,4.14c-0.76,0.13-1.59-0.06-1.99-0.71c-0.01-0.01-0.02-0.02-0.03-0.03
				c0,0-0.01-0.01-0.01-0.02c-0.02-0.04-0.04-0.09-0.06-0.13c-0.27-0.51-0.25-1.1-0.17-1.66c0.19-1.19,1.14-1.61,2.18-1.56
				c0.07-0.01,0.14-0.02,0.22-0.03H584.17z"/>
		</g>
	</g>
	<g>
		<path class="st15" d="M590.33,435.99c-0.13-0.19-0.27-0.38-0.42-0.56c-1.51-1.85-3.19-3.81-5.48-4.69
			c-2.22-0.86-4.68-1.02-7.03-1.08c-4.04-0.09-7.48-0.53-11.53-0.36c0.27-0.49-0.53-0.93-0.89-0.44c-0.12,0.17-0.24,0.33-0.37,0.5
			c-0.04,0-0.09,0-0.13,0.01c-0.43,0.01-0.56,0.46-0.42,0.75c-1.07,1.44-2.13,2.88-3.2,4.33c-0.87,1.17-2.97,3.17-3.27,4.58
			c-0.47,2.23,2.48,1.82,3.96,1.96c4.17,0.4,8.33,0.78,12.51,1c3.96,0.21,8.18,0.56,12.13,0c2.42-0.34,5.35-1.1,4.86-4.29
			C590.96,437.08,590.69,436.51,590.33,435.99z"/>
		<path class="st11" d="M570.7,432.98c-1.65-4.16-3.99-8.45-6.86-11.9c-0.95-1.14-2.09-2.24-3.51-2.75
			c-2.53-0.91-4.83,0.49-6.83-1.91c-2.76-3.32-8.4-3.17-12.32-2.81c-4.86,0.44-9.48,2.1-13.57,4.73c-0.4-1.21-0.82-2.42-1.27-3.61
			c-0.22-0.6-1.19-0.34-0.96,0.27c3.14,8.45,5.23,17.25,6.09,26.23c0.75,7.78,1.03,16.15-0.94,23.83
			c-5.48-0.94-10.8-2.74-15.76-5.34c-0.57-0.3-1.08,0.56-0.5,0.86c5.03,2.64,10.44,4.48,16.01,5.45c-0.17,0.59-0.35,1.18-0.54,1.76
			c-0.21,0.61,0.76,0.87,0.96,0.27c0.21-0.61,0.39-1.23,0.57-1.86c3.41,0.53,6.86,0.73,10.33,0.59c9.22-0.39,18.18-2.72,24.07-10.24
			c2.54-3.25,5.88-6.71,6.7-10.88C573.19,441.42,572.27,436.92,570.7,432.98z"/>
		<path class="st15" d="M481.84,272.81c0,0,3.34-17.85,6.5-20.76c3.17-2.92,7.17-1.67,10.75,0.58c3.58,2.25,3.08,8.33,3.5,10.67
			c0.42,2.33,0.04,7-3.67,11.84c-1.03,1.34-7.74,6.54-7.74,6.54L481.84,272.81z"/>
		<path class="st15" d="M338.61,274.92c0,0-15.69-0.7-22.44,6.88s-10.2,35.08-12.7,50.58s-7.55,59.77-7.55,59.77l25.87-6.29
			c0,0,15.38-47.48,15.63-48.73s0.5-39.5,0-42.5S338.61,274.92,338.61,274.92z"/>
		<path class="st15" d="M395.18,267.31c0,0,14.02-0.65,23.25,3.57c9.23,4.22,22.36,25.55,30.89,38.73
			c8.53,13.18,20.22,35.9,20.22,35.9l-26.21,4.66c0,0-22.44-21.5-23.17-22.54c-0.73-1.04-16.36-35.96-17.11-38.9
			C402.29,285.78,395.18,267.31,395.18,267.31z"/>
		<path class="st15" d="M434.74,370.21c-0.88-2.67,1.31-0.38,0.64-3.12c-1.28-5.3-2.18-10.82-1.95-16.25c0-0.09,0.01-0.19,0.01-0.28
			c0.6-14.45,0.48-29.29-1.38-43.87c-0.83-6.64-2.04-13.23-3.69-19.7c-1.75-6.87-4.78-13.12-11.45-16.31
			c-7.27-3.47-16.24-4.05-24.2-3.37c-0.31,0.02-0.62,0.05-0.93,0.08c-0.03,0-0.06,0.01-0.09,0.01c-7.01,0.69-13.81,2.58-20.14,5.56
			c-4.8,2.25-12.81,1.52-18.03,1.84c-1.19,0.07-2.38,0.1-3.58,0.09c-0.33,0-0.67,0-1-0.01c-4.67-0.04-9.4-0.35-13.95,0.47
			c-4.79,0.86-7.08,3.96-7.36,8.68c-0.71,12.08-0.04,24.05,2.01,35.76c2.44,14.03,6.84,27.69,13.15,40.73
			c4.81,9.94,8.62,8.61,14.72,17.76c5.03,7.54,5.12,16.41,7.85,24.9c0.37,1.14,2.18,23.95,2.52,25.11
			c9.61-2.4,17.74-8.59,25.55-14.4c6.87-5.11,14.04-9.82,21.17-14.57c6.29-4.18,11.81-9.85,18.49-13.37c3.61-1.9-0.8-5.9,1.73-9.01
			c1.2-1.46,2.01-2.96,2.54-4.47C437.79,371.3,435.18,371.53,434.74,370.21z"/>
		<path class="st11" d="M555.1,432.77c-1.71-4.49-4.83-7.77-8.49-10.78c-8.17-6.71-16.62-13.21-26.41-17.37
			c-8.11-3.45-15.29-8.27-23.22-12.05c-6.97-3.32-14.53-5.02-21.97-6.92c-3.84-0.98-7.57-2.26-11.38-3.31
			c-3.58-0.98-7.15-0.01-10.73-0.74c-2.8-0.58-5.21-2.3-7.36-4.11c-1.92-1.62-4.02-2.78-6.18-3.86c-1.64,0.65-2.1,5.44-3.69,6.24
			c-4.22,2.14-6.92,2.26-11.08,4.51c-3.71,2-7.5,3.2-11.67,5.49c-4.02,2.21-8.04,4.56-12.43,5.81c-3.99,1.13-7.93,2.16-11.76,3.77
			c-3.72,1.56-7.31,3.39-10.99,5.04c-2.03,0.91-4.08,1.77-6.18,2.49c-1.89,0.65-3.89,0.95-5.77,1.6c-3,1.03-3.24,4.15-3.13,6.97
			c0.2,5.07,1.59,10.2,2.49,15.17c0.95,5.27,1.91,10.55,2.86,15.82c0.71,7.87,3.01,15.58,6.84,22.55
			c2.61,4.75,5.91,9.39,10.09,12.89c4.32,3.62,9.38,5.12,14.81,6.25c14.78,3.06,29.09,7.14,44.23,8.18
			c16.38,1.13,32.81,0.29,49.2,0.73c15.46,0.41,31.67,0.48,45.14-8.08c4.59-2.92,8.34-7.55,9.34-12.99
			c0.66-3.58-0.01-7.08-1.44-10.29c6.26-3.38,10.67-9.72,11.23-16.94C557.85,443.65,556.95,437.64,555.1,432.77z"/>
		<path class="st15" d="M322.23,384.36c0,0-2.55,8.54-5.24,20.2c-2.69,11.67-17.56,54.5-17.56,54.5h-13.25c0,0,2.27-49.65,5.1-62.65
			c2.83-13,10.66-36.16,10.66-36.16l13.62,11.11L322.23,384.36z"/>
		<path class="st15" d="M444.97,342.2c0,0,0.48-6.84,4.66-18.06c4.18-11.22,32.93-52.36,32.93-52.36l10.67,1.4
			c0,0-12.8,49.81-17.3,62.33c-4.5,12.52-12.21,23.61-18.5,24.13c-6.29,0.52-14.11-9.46-14.11-9.46L444.97,342.2z"/>
		<path class="st16" d="M385.49,235.57c1.82-4.09,1.08-8.88-1.59-12.36c0.18-1.96,0.17-3.94-0.16-5.81
			c-0.25-1.39-0.73-2.2-1.77-3.12c-1.97-1.76-2.66-3.75-3.57-6.19c-1.23-3.28-2.27-4.31-5.73-5.21c-0.48-0.12-0.96-0.22-1.44-0.31
			c-2.53-2.98-6.72-5.04-10.35-5.76c-2.04-0.4-3.89-0.02-5.72,0.81c0.49-1.6,0.11-3.54,0-5.12c-0.38-5.45-5.9-5.24-10.02-4.3
			c-2.03,0.46-4.29,1.19-5.38,3.14c-0.44,0.79-0.51,1.5-0.56,2.37c-0.04,0.73,0.17,1.47,0.03,2.19c-0.14,0.73-0.93,1.49-0.99,2.14
			c-0.18,2.03,1.28,3.19,3.26,3.85c-0.45,0.19-0.88,0.42-1.29,0.71c-2.01,1.41-3.08,3.72-4.88,5.35c-1.71,1.55-4.12,2.09-5.31,4.21
			c-0.47,0.84-0.72,1.77-0.84,2.72c-0.01,0.08-0.04,0.16-0.09,0.26c-0.19,0-0.37,0.11-0.43,0.35c-0.04,0.16-0.08,0.31-0.13,0.47
			c-2.61,3.23-7.41,8.65-7.44,13c-0.02,2.32,1.02,4.72,0.5,7.02c-0.27,1.19-1.56,2.35-1.1,3.65c0.33,0.93,1.41,1.36,2.3,1.52
			c1.45,0.26,2.66-0.17,3.92,1c0.51,0.47,0.61,1.21,1.22,1.67c0.63,0.47,2.08,0.55,3.35,0.81c0.61,1.49,1.01,2.99,1.6,4.5
			c1.24,3.2,3.32,3.86,5.73,5.6c1.71,1.24,2.76,2.95,4.62,4.03c2.95,1.72,4.91,1.89,8.2,1.48c1.16-0.14,2.32-0.18,3.48-0.2
			c1.93-0.77,3.79-1.64,5.44-2.32c3.53-1.45,6.93-3.14,10.64-4.1c3.27-0.85,6.8-1.43,9.63-3.41c1.93-1.35,3.57-3.33,4.12-5.66
			c0.26-1.11,0.23-2.21-0.06-3.31c-0.41-1.56-1.03-1.86-0.23-3.89C384.73,236.75,385.21,236.19,385.49,235.57z"/>
		<path class="st4" d="M343.4,261.05c-0.03-1.86,0.2-4.85-1.11-6.34c-1.34-1.53-2.77-0.4-3.62,0.98c-1.37,2.22-1.76,4.93-1.76,7.5
			c0,1.46-0.01,2.94,0.26,4.38c0.13,0.68,0.29,1.52,0.76,2.07c0.32,0.37,1.57,1.13,1.54,0.07c-0.03-1.14-0.18-2.29-0.18-3.43
			c-0.02-0.72-0.04-1.44-0.04-2.16c0.01-0.94,0.04-1.89,0.1-2.83c0.03-0.44-0.01-1.06,0.02-1.66c0.08-0.69,0.13-1.79,1.06-1.85
			c0.33-0.02,0.67,0.15,0.84,0.44c0.13,0.21,0.17,0.47,0.2,0.72c0.38,3.38-0.12,6.99-0.33,10.37c-0.01,0.14-0.02,0.28,0.03,0.41
			c0.08,0.21,0.31,0.34,0.54,0.37c0.48,0.05,0.94-0.3,1.16-0.73c0.22-0.43,0.26-0.93,0.29-1.41c0.15-2.28,0.28-4.57,0.24-6.86
			C343.4,261.09,343.4,261.07,343.4,261.05z"/>
		<path class="st0" d="M339.99,254.11c1.64,1.27,3.3-1.06,2.53-2.59c-0.41-0.81-1.49-1.29-2.3-0.86c-0.53,0.28-0.84,0.86-0.94,1.44
			c-0.08,0.48-0.04,1,0.2,1.42C339.63,253.77,339.8,253.97,339.99,254.11z"/>
		<g>
			<g>
				<path class="st17" d="M519.63,241.18c0.04,2.08-1.17,30.18-1.94,31.82c-0.78,1.64-7.06,2.89-11.53,2.49
					c-6.39-0.56-8.91-2.1-9.73-3.12c-0.82-1.03-2.01-29.1-2.15-30.93C494.16,239.99,519.6,239.45,519.63,241.18z"/>
			</g>
			<g>
				<path class="st17" d="M496.97,270.82c-2.06,0-4.06-0.97-5.73-2.78c-1.77-1.93-2.96-4.62-3.35-7.58
					c-0.83-6.29,2.28-11.91,6.94-12.52c4.65-0.61,9.11,4.01,9.93,10.3c0.83,6.29-2.28,11.91-6.93,12.52
					C497.54,270.8,497.26,270.82,496.97,270.82z M495.67,250.73c-0.16,0-0.31,0.01-0.47,0.03c-3.04,0.4-5.1,4.67-4.49,9.33
					c0.31,2.38,1.24,4.52,2.62,6.02c1.25,1.36,2.72,2.01,4.12,1.83c3.04-0.4,5.1-4.67,4.49-9.33
					C501.37,254.2,498.55,250.73,495.67,250.73z"/>
			</g>
			<g>
				<path class="st18" d="M531.67,199.55c-6.25,0.5-11.73,7.12-14.24,12.32c-0.9,1.87-1.5,3.86-2.75,5.54
					c-1.25,1.68-2.95,2.98-4.06,4.78c-2.47,4.02-4.51,10.62-4.46,15.37c0.01,0.46,0.72,0.72,0.93,0.25c1.77-3.86,3.3-8.9,6.6-11.78
					c2.23-1.94,7.39-2.61,7.59-6.34c0.14-2.64-2.74-2.54-4.58-1.97c-0.02,0.01-0.04,0.01-0.06,0.02c1.46-1.78,3.16-3.37,5.08-4.69
					c2.83-1.93,6.05-2.64,9.03-4.2c2.31-1.21,3.99-3.46,4.07-6.13C534.89,200.62,533.86,199.38,531.67,199.55z"/>
				<path class="st18" d="M513.39,208.24c-0.32-0.15-0.68-0.23-1.03-0.22c-3.71,0.07-6.38,5.63-7.57,8.53
					c-1.49,3.64,2.08,6.35,4.05,2.13c1.23-2.63,2.52-4.63,4.41-6.81c0.65-0.74,1.34-1.68,1.05-2.62
					C514.17,208.79,513.82,208.45,513.39,208.24z"/>
			</g>
		</g>
		<path class="st15" d="M481.26,275.3c0,0,3.17-14.58,5.92-16.58s5.33-3.17,6.67-2.17c1.33,1-0.83,2.58-1.17,4.92
			c-0.33,2.33,0.55,11.71,0.55,11.71s-10.63,1.79-11.3,1.96C481.26,275.3,481.26,275.3,481.26,275.3z"/>
		<g>
			<path class="st19" d="M542.18,464.13c-0.12,0-0.24-0.04-0.33-0.13c-0.15-0.13-14.9-13.17-37.21-15.37
				c-23.84-2.36-43.85-8.78-48.18-11.06c-4.37-2.3-6.05-1.66-6.07-1.65c-0.25,0.1-0.54-0.01-0.65-0.26
				c-0.11-0.25-0.01-0.54,0.24-0.65c0.2-0.1,2.12-0.87,6.95,1.68c5.08,2.67,25.97,8.78,47.82,10.94
				c22.65,2.24,37.64,15.49,37.79,15.63c0.21,0.18,0.22,0.5,0.04,0.71C542.45,464.08,542.31,464.13,542.18,464.13z"/>
		</g>
		<g>
			<path class="st19" d="M557.54,429.15c-0.22,0-0.42-0.15-0.48-0.37c-0.01-0.03-1.06-3.66-7.28-7.73
				c-6.33-4.14-11.4-5.17-11.45-5.18c-0.27-0.05-0.45-0.32-0.39-0.59c0.05-0.27,0.32-0.45,0.59-0.4c0.21,0.04,5.3,1.07,11.8,5.32
				c6.59,4.31,7.66,8.15,7.7,8.31c0.07,0.27-0.09,0.54-0.36,0.61C557.63,429.15,557.58,429.15,557.54,429.15z"/>
		</g>
		<g>
			<path class="st19" d="M560.8,427.51c-0.2,0-0.39-0.12-0.46-0.31c-0.01-0.02-0.75-1.85-2.56-4.26c-1.74-2.32-6.9-3.42-6.95-3.44
				c-0.27-0.06-0.44-0.32-0.39-0.59c0.06-0.27,0.33-0.44,0.59-0.39c0.23,0.05,5.58,1.19,7.55,3.81c1.89,2.52,2.66,4.41,2.69,4.49
				c0.1,0.26-0.02,0.55-0.28,0.65C560.93,427.5,560.86,427.51,560.8,427.51z"/>
		</g>
		<g>
			<path class="st19" d="M392.18,455.88c-0.1,0-0.21-0.03-0.3-0.1c-0.22-0.16-0.27-0.48-0.11-0.7c0.23-0.31,5.75-7.68,20.22-13.27
				c14.42-5.57,32.76-5.18,32.94-5.18c0.28,0.01,0.49,0.24,0.49,0.51c-0.01,0.27-0.23,0.49-0.5,0.49c0,0-0.01,0-0.01,0
				c-0.18-0.01-18.32-0.39-32.56,5.11c-14.2,5.49-19.72,12.86-19.78,12.93C392.48,455.81,392.33,455.88,392.18,455.88z"/>
		</g>
		<g>
			<path class="st19" d="M441.68,434.63h-37.5c-0.28,0-0.5-0.22-0.5-0.5s0.22-0.5,0.5-0.5h37.5c0.28,0,0.5,0.22,0.5,0.5
				S441.95,434.63,441.68,434.63z"/>
		</g>
		<g>
			<path class="st19" d="M369.93,413.93c-0.2,0-0.39-0.12-0.46-0.32c-0.1-0.26,0.02-0.55,0.28-0.65c0.05-0.02,4.7-1.85,20.05-6.31
				c15.27-4.43,47.07-21.04,47.39-21.21c0.24-0.13,0.55-0.03,0.68,0.21c0.13,0.25,0.03,0.55-0.21,0.68
				c-0.32,0.17-32.21,16.82-47.58,21.29c-15.28,4.44-19.91,6.26-19.96,6.28C370.05,413.91,369.99,413.93,369.93,413.93z"/>
		</g>
		<g>
			<path class="st19" d="M449.05,432.76c-0.09,0-0.18-0.03-0.27-0.08c-0.23-0.15-0.3-0.46-0.16-0.69l8.38-13.25
				c0.15-0.23,0.46-0.3,0.69-0.16c0.23,0.15,0.3,0.46,0.16,0.69l-8.38,13.25C449.38,432.68,449.22,432.76,449.05,432.76z"/>
		</g>
		<path class="st15" d="M299.43,459.06c0,0-2,8.57-3.5,10.32s-14.88,3-20.38,2.88s-5.88,0.25-6.5-1.38s8.75-2.5,8.75-2.5
			s-4.13-3.57-8.25-2.72s-11.38,5.35-13.63,4.97s1.13-6,3.63-7.63s9.77-5.38,13.76-5.63c3.99-0.25,12.86,1.68,12.86,1.68l7.13-4.05
			L299.43,459.06z"/>
		<g>
			<path class="st20" d="M328.36,329.63c-0.17,0-0.34-0.09-0.43-0.24l-6.13-10.25c-0.14-0.24-0.07-0.54,0.17-0.69
				c0.23-0.14,0.54-0.07,0.69,0.17l6.13,10.25c0.14,0.24,0.07,0.54-0.17,0.69C328.54,329.61,328.45,329.63,328.36,329.63z"/>
		</g>
		<g>
			<path class="st20" d="M381.87,316.22c-0.19,0-0.38-0.11-0.46-0.3L378.8,310c-0.11-0.25,0-0.55,0.25-0.66
				c0.25-0.11,0.55,0,0.66,0.25l2.61,5.92c0.11,0.25,0,0.55-0.25,0.66C382,316.2,381.93,316.22,381.87,316.22z"/>
		</g>
		<g>
			<path class="st20" d="M427.43,302.13c-0.28,0-0.5-0.22-0.5-0.5v-6c0-0.28,0.22-0.5,0.5-0.5s0.5,0.22,0.5,0.5v6
				C427.93,301.91,427.7,302.13,427.43,302.13z"/>
		</g>
		<g>
			<path class="st20" d="M445.96,336.83c-0.06,0-0.13-0.01-0.19-0.04c-0.26-0.1-0.38-0.39-0.28-0.65l6.96-17.44
				c0.1-0.26,0.39-0.38,0.65-0.28c0.26,0.1,0.38,0.39,0.28,0.65l-6.96,17.44C446.35,336.71,446.16,336.83,445.96,336.83z"/>
		</g>
		<g>
			<path class="st0" d="M446.49,374.89c-1.13,2.73-5.03,4.61-7.56,5.61c-3.68,1.46-7.59,2.46-11.55,3.31
				c-0.68,0.15-1.37,0.29-2.06,0.43c-3.38,0.7-6.78,1.34-10.06,2.11c-1.18,0.28-2.37,0.56-3.55,0.85
				c-6.93,1.69-13.82,3.56-20.55,5.92c-0.2,0.06-0.39,0.13-0.59,0.2c-4.4,1.56-8.72,3.34-12.92,5.39c-4.77,2.32-9.22,3.5-13.9,4.07
				c-2.97,0.37-6.03,0.5-9.32,0.54c-2.22,0.02-4.5,0.1-6.66,0.65c-1,0.26-3.01,1.55-3.99,1.34c-2.7-0.57-2.52-6.69-2.48-8.62
				c0.02-0.9,0-1.78-0.05-2.63c-0.14-2.76-0.62-5.31-1.48-7.99c-0.14-0.46-0.3-0.93-0.47-1.4c-1.27-3.53-2.21-6.89-2.53-10.59
				c-0.03-0.38-0.08-0.75-0.13-1.11c-0.49-3.19-1.82-6.04-2.48-9.23c-0.39-1.86-0.75-3.72-1.08-5.59h-0.01
				c-0.41-2.33-0.8-4.65-1.18-6.98c-0.5-3.06-0.98-6.12-1.38-9.19c-0.15-1.15-0.29-2.31-0.42-3.47c-0.19-1.72-1.09-5.02-0.28-6.69
				c1.47-3.06,3.96-9.3,7.15-14.62c0.25-0.42,0.5-0.83,0.76-1.24c1.94-3.04,4.25-8.81,6.58-11.67c2.01-2.47,3.37-5.27,5.88-7.24
				c-0.03-1.64-0.07-3.27-0.12-4.91c-0.19-5.76-0.56-11.52-1.11-17.26c0.33,0.01,0.67,0.01,1,0.01c0.54,5.68,0.91,11.36,1.1,17.06
				c0.05,1.67,0.1,3.34,0.12,5.01c0.97,1.13,4.03,4.38,6.97,7.46c2.89,3.03,5.69,5.89,6.28,6.4c0.69,0.58,1.4,1.14,2.15,1.67
				c0,0.01,0,0.01,0,0.01c4.48,3.2,9.92,5.52,15.1,7c2.64,0.75,2.67,0.91,4.24-1.26c0.89-1.22,1.62-2.63,2.32-4
				c0.25-0.47,0.49-0.94,0.73-1.4c0.27-0.5,2.34-5.25,4.57-10.36c2.28-5.24,4.73-10.87,5.62-12.76c-1.5-4.33-2.98-8.68-4.42-13.03
				c-1.03-3.09-2.04-6.19-3.03-9.29c0.03,0,0.06-0.01,0.09-0.01c0.31-0.03,0.62-0.06,0.93-0.08c1,3.13,2.02,6.26,3.07,9.38
				c1.39,4.22,2.83,8.43,4.28,12.63c3.95,1.83,7.85,3.75,11.69,5.77c3.39,1.76,6.74,3.61,10.05,5.53c2.01,1.16,4,2.35,5.98,3.57
				c1.29,3.42,1.71,7.04,2.55,10.58c0.09,0.45,0.21,0.9,0.33,1.35c0.82,3.01,2.29,5.8,3.28,8.75c0.27,0.82,0.51,1.65,0.69,2.51
				c0.93,4.49,1.26,9,2.63,13.36c0.17,0.56,0.37,1.12,0.58,1.67c0.48,1.25,1.02,2.49,1.59,3.73c0.17,0.54,0.32,1.09,0.46,1.65
				c0.38,1.55,0.69,3.09,1.02,4.64c0.45,2.15,0.92,4.3,1.6,6.42C444.6,365.38,447.07,373.48,446.49,374.89z"/>
			<path class="st12" d="M360.93,321.7c-2.68-2.25-6.77-1.33-9.38,0.5c-3.32,2.33-5.03,6.16-7.27,9.41
				c-2.09,3.03-4.28,4.77-7.75,6.02c-2.12,0.76-3.87,1.68-5.33,3.45c-0.24,0.29-0.47,0.59-0.69,0.9c0.4,3.07,0.88,6.13,1.38,9.19
				c0.38,2.33,0.77,4.65,1.18,6.98h0.01c0.43-0.04,0.86-0.11,1.3-0.22c3.83-1,5.99-4.44,7.37-7.9c1.97-4.94,3.01-9.68,7.6-12.96
				c3.5-2.5,7.7-4.12,10.55-7.47C361.71,327.48,363.55,323.91,360.93,321.7z"/>
			<path class="st12" d="M351.17,296.96c-0.02-1.67-0.07-3.34-0.12-5.01c-0.33,0.05-0.66,0.11-0.99,0.19
				c0.05,1.64,0.09,3.27,0.12,4.91c-2.51,1.97-3.87,4.77-5.88,7.24c-2.33,2.86-4.64,8.63-6.58,11.67c-0.26,0.41-0.51,0.82-0.76,1.24
				c1.43,1.3,3.45,1.97,5.33,1.38c2.54-0.8,3.59-3.45,4.72-5.61c1.9-3.64,4.99-6.54,8.89-7.94c0.7-0.25,1.47-0.42,2.24-0.61
				C355.2,301.34,352.14,298.09,351.17,296.96z"/>
			<path class="st12" d="M392.41,321.73c-0.48-2.82-2.11-5.39-4.18-7.49c-0.7,1.37-1.43,2.78-2.32,4c-1.57,2.17-1.6,2.01-4.24,1.26
				c-5.18-1.48-10.62-3.8-15.1-7c0.15,1.19,0.53,2.35,1.15,3.43c1.14,1.96,3.02,3.31,4.51,4.98c2.4,2.68,3.1,5.95,1.81,9.36
				c-1.17,3.09-3.45,5.39-6.02,7.38c-2.1,1.63-4.54,3.31-5.29,6.03c-0.93,3.36,1.81,5.88,5.08,5.66c4.67-0.32,8.88-4.87,11.13-8.6
				c1.8-2.98,3.29-5.84,6.19-7.92C389.18,329.92,393.4,327.59,392.41,321.73z"/>
			<path class="st12" d="M360.34,358.1c-0.92-6.06-7.92-6.26-11.55-2.41c-2.75,2.92-3.64,6.95-5.31,10.48
				c-1.01,2.15-2.4,4.02-4.32,5.43c-0.25,0.18-1.29,0.79-2.52,1.37c0.05,0.36,0.1,0.73,0.13,1.11c0.32,3.7,1.26,7.06,2.53,10.59
				c0.17,0.47,0.33,0.94,0.47,1.4c1.57-0.6,3.06-1.44,4.21-2.16c3.08-1.95,5.64-4.58,7.87-7.44
				C355.62,371.67,361.33,364.67,360.34,358.1z"/>
			<path class="st12" d="M377.13,381.2c-1.25-1-3.75-0.89-5.23-0.88c-1.94,0-3.92,0.29-5.66,1.2c-1.58,0.82-2.84,2.09-4.12,3.29
				c-2.38,2.24-4.68,3.48-7.95,3.9c-4.05,0.53-8.09,0.54-11.27,3.48c-0.63,0.58-1.18,1.21-1.65,1.87c0.05,0.85,0.07,1.73,0.05,2.63
				c-0.04,1.93-0.22,8.05,2.48,8.62c0.98,0.21,2.99-1.08,3.99-1.34c2.16-0.55,4.44-0.63,6.66-0.65c3.29-0.04,6.35-0.17,9.32-0.54
				c0.08-0.28,0.15-0.56,0.22-0.85c0.67-2.85,1.48-4.84,4.04-6.44c3.04-1.89,6.75-2.77,8.8-5.95
				C378.08,387.57,379.41,383.01,377.13,381.2z"/>
			<path class="st12" d="M404.36,352.43c-1.66-4.31-5.67-6.89-10.3-6.23c-3.63,0.51-6.48,2.57-8.92,5.11
				c-2.72,1.5-5.18,3.15-8.09,4.39c-4.03,1.72-8.34,4.03-9.14,8.79c-0.7,4.13,2.55,6.68,6.33,7.14c2.5,0.31,5.01-0.22,7.51-0.04
				c3.11,0.23,5.56,2.21,8.77,1.7c4.58-0.73,9.04-4.49,11.69-8.13C404.89,361.47,406.04,356.8,404.36,352.43z"/>
			<path class="st12" d="M425.26,362.78c-1.34-3.14-4.75-4.01-7.78-2.89c-3.7,1.37-5.52,4.97-7.12,8.31
				c-1.02,2.16-2.04,4.37-3.69,6.13c-2.09,2.23-4.62,2.55-7.4,3.24c-4.27,1.06-5.79,3.8-6.27,8c-0.31,2.69-0.66,5.13-1.84,7.55
				c6.73-2.36,13.62-4.23,20.55-5.92c0.57-1.38,1.29-2.68,2.18-3.92c2.68-3.73,6.24-6.73,8.97-10.43
				C424.96,370,426.77,366.31,425.26,362.78z"/>
			<path class="st12" d="M442.52,358.85c-0.68-2.12-1.15-4.27-1.6-6.42c-0.12,1.04-0.1,2.11-0.14,3.15
				c-0.13,2.97-0.79,5.9-2.02,8.61c-2.34,5.14-6.89,8.76-9.35,13.84c-0.9,1.86-1.57,3.8-2.03,5.78c3.96-0.85,7.87-1.85,11.55-3.31
				c2.53-1,6.43-2.88,7.56-5.61C447.07,373.48,444.6,365.38,442.52,358.85z"/>
			<path class="st12" d="M434.64,327.38c-0.18-0.86-0.42-1.69-0.69-2.51c-5.15,4.14-12.51,5.66-19.02,6.6
				c-3.33,0.48-7.17,1.05-9.15,4.12c-1.64,2.56-1,5.13,1.11,7.12c1.82,1.72,3.2,2.63,3.61,5.33c0.19,1.25,0.32,2.48,1.43,3.28
				c3.04,2.22,7.1-1.56,10.29-1.34c2.78,0.18,4.13,2.28,6.56,3.03c1.15,0.35,2.06,0.04,2.91-0.8c2.51-2.48,2.95-6.55,4.39-9.62
				c0.34-0.74,0.75-1.33,1.19-1.85C435.9,336.38,435.57,331.87,434.64,327.38z"/>
			<path class="st12" d="M427.79,304.19c-1.98-1.22-3.97-2.41-5.98-3.57c-2.07,4.84-5.18,9.19-9.17,12.71
				c-2.17,1.92-12.44,7.41-5.98,10.84c5.11,2.7,10.62-2.79,14.33-5.56c1.34-1,2.74-1.94,4.29-2.58c1.64-0.68,3.38-0.83,5.06-1.26
				C429.5,311.23,429.08,307.61,427.79,304.19z"/>
			<path class="st12" d="M400.07,289.32c-1.45-4.2-2.89-8.41-4.28-12.63c-0.35-0.02-0.71-0.02-1.06,0c1.44,4.35,2.92,8.7,4.42,13.03
				c-0.89,1.89-3.34,7.52-5.62,12.76c0.68,1.54,1.03,3.23,1.84,4.74c1.23,2.29,3.57,3.93,6.17,2.76c3.43-1.54,5.44-6.27,7.13-9.34
				c0.98-1.78,2.08-3.65,3.09-5.55C407.92,293.07,404.02,291.15,400.07,289.32z"/>
		</g>
		<path class="st15" d="M385.55,271.25c0,0-5.34,4.7-11.53,8.41c-6.18,3.7-15.48,1.47-15.48,1.47l-0.24-0.69l-0.17-0.48l-0.43-1.22
			l-1.02-2.89l-0.11-0.32l-0.81-2.03c-0.01,0-0.01,0-0.01,0l-3.87-9.64l-0.68-1.69l26.35-19.49L385.55,271.25z"/>
		<path class="st15" d="M378.19,245.99c0.5,7.62,0.16,10.4-3.88,17.13c-4.8,8.02-13.32,13.22-20.26,9.7
			c-8.18-4.16-10.02-7.33-12.93-13.5c-2.01-4.28-3.59-9.85-5-16.09c-0.02-0.08-0.03-0.15-0.05-0.23c-0.15-0.66-0.29-1.31-0.43-1.94
			c-0.08-0.35-0.15-0.7-0.22-1.04c-1.3-6.16-2.1-11.04-2.1-11.04s4.84-10.23,11.54-13.5c6.7-3.28,20.45-6.65,26.46-1.08
			c1.02,0.94,1.82,2.11,2.53,3.3c4.1,6.77,6.13,15.09,7.17,22.86C381.15,241.56,378.13,244.97,378.19,245.99z"/>
		<path class="st21" d="M358.41,241.27c-0.17-0.72-0.15-1.45,0.4-1.79c1.48-0.9,2.89,1.75,3.12,2.68c0.14,0.56,0.05,1.29-0.35,1.72
			c-0.44,0.47-1.09,0.38-1.59,0.05c-0.44-0.29-0.78-0.72-1.02-1.19C358.79,242.41,358.54,241.84,358.41,241.27z"/>
		<path class="st21" d="M341.85,246.45c-0.17-0.72-0.15-1.45,0.4-1.79c1.48-0.9,2.89,1.75,3.12,2.68c0.14,0.56,0.05,1.29-0.35,1.72
			c-0.44,0.47-1.09,0.38-1.59,0.05c-0.44-0.29-0.78-0.72-1.02-1.19C342.23,247.59,341.98,247.03,341.85,246.45z"/>
		<path class="st0" d="M350.78,261.06c0,0,1.88-0.25,4.97-1c3.09-0.75,5.69-2.1,5.69-2.1s-0.72,3.35-4.22,4.54
			S350.78,261.06,350.78,261.06z"/>
		<path class="st16" d="M353.33,238.22c0.58,0.44,1.45-0.11,2.04-0.29c0.84-0.26,1.69-0.51,2.53-0.74c1.96-0.54,3.94-0.96,5.91-1.41
			c0.94-0.21,0.57-0.8-0.05-1.09c-0.52-0.24-1.11-0.42-1.68-0.5c-1.12-0.17-2.25-0.11-3.37-0.05c-1.76,0.11-3.5,0.6-4.94,1.65
			c-0.29,0.22-0.58,0.46-0.77,0.77c-0.25,0.4-0.3,0.88-0.04,1.28C353.05,237.99,353.19,238.12,353.33,238.22z"/>
		<path class="st16" d="M344.67,240.67c-0.02,0.18-0.08,0.35-0.16,0.51c-0.31,0.65-1.34,0.56-1.94,0.66
			c-0.87,0.15-1.74,0.31-2.6,0.49c-1.29,0.27-2.57,0.58-3.85,0.9c-0.02-0.08-0.03-0.15-0.05-0.23c-0.15-0.66-0.29-1.31-0.43-1.94
			c0.71-0.41,1.47-0.75,2.23-1.08c1.62-0.7,3.39-1.06,5.15-0.77c0.36,0.06,0.72,0.15,1.04,0.34
			C344.46,239.79,344.73,240.19,344.67,240.67z"/>
		<path class="st15" d="M379,232.34c-1.37-1.06-3.1-1.65-4.87-1.45c-2.16,0.24-3.64,1.68-3.14,3.94c0.14,0.62,1.13,0.49,0.99-0.13
			c0.16-0.2,0.32-0.39,0.48-0.59c0.51,1.52,1.23,2.94,1.9,4.43c1.03,2.29,1.34,4.75,2.18,7.1c0.29,0.82,2.18-0.27,2.58-0.61
			C382.81,241.89,382.8,235.28,379,232.34z"/>
		<g>
			<path class="st20" d="M352.27,256.31c-1.11,0-2.47-0.15-2.9-0.85c-0.53-0.86-0.76-7.34-0.82-9.31c-0.01-0.28,0.21-0.51,0.48-0.52
				c0.01,0,0.01,0,0.02,0c0.27,0,0.49,0.21,0.5,0.48c0.12,3.92,0.41,8.29,0.68,8.82c0.17,0.28,1.67,0.43,3.08,0.32
				c0.26-0.02,0.52,0.18,0.54,0.46c0.02,0.28-0.18,0.52-0.46,0.54C353.11,256.28,352.71,256.31,352.27,256.31z"/>
		</g>
		<path class="st20" d="M373.81,261.63c0,0,0,4.42-0.88,6.58c-0.88,2.17-2.17,2.59-3.75,4.75c-1.58,2.17-3.71,2.84-6.71,3.84
			c-2.75,0.92-2.99,2.11-4.77,1.94l-1.02-2.89l-0.11-0.32l-0.81-2.03c0.23,0.06,3.68,0.85,6.58-0.12c3.01-1,6.59-4.83,8.26-6.83
			C372.26,264.55,373.81,261.63,373.81,261.63z"/>
		<path class="st16" d="M376.82,221.35c-3.1-6.03-7.47-12.1-14.79-12.73c-7.49-0.64-15.32,0.85-21.34,5.46
			c-4.87,3.74-9.54,8.63-10.1,14.97c-0.57-0.08-1.12-0.19-1.62-0.37c-0.61-0.21-0.87,0.75-0.27,0.96c0.57,0.2,1.19,0.35,1.84,0.45
			c0.1,0.43,0.71,0.46,0.91,0.11c3.98,0.32,8.83-1.04,10.96-4.02c0.83-1.15,0.81-3.1,2.18-3.92c1.78-1.06,3.68,0.38,5.26,1.05
			c1.5,0.63,2.42,0.33,3.75-0.44c1.73-0.99,3.76-0.78,5.48-1.85c0.84-0.52,1.56-1.19,2.21-1.93c0.21,1.37,0.6,2.73,1.42,3.64
			c0.38,0.41,0.86,0.61,1.34,0.86c2,1.04,3.34,2.36,3.61,4.68c0.12,1.03,0,2.07,0.52,3.01c0.59,1.07,1.25,2.05,1.84,3.17
			c0.63,1.2,1.29,2.07,2.75,1.68c0.23-0.06,0.34-0.26,0.37-0.48c0.38-3.23,3.9-1.51,5.7-2.53c0.78-0.45,0.95-1.21,1.07-2.09
			C380.41,227.67,378.3,224.23,376.82,221.35z"/>
		<path class="st4" d="M380.53,253.13c-0.03-1.86,0.2-4.85-1.11-6.34c-1.34-1.53-2.77-0.4-3.62,0.98c-1.37,2.22-1.76,4.93-1.76,7.5
			c0,1.46-0.01,2.94,0.26,4.38c0.13,0.68,0.29,1.52,0.76,2.07c0.32,0.37,1.57,1.13,1.54,0.07c-0.03-1.14-0.18-2.29-0.18-3.43
			c-0.02-0.72-0.04-1.44-0.04-2.16c0.01-0.94,0.04-1.89,0.1-2.83c0.03-0.44-0.01-1.06,0.02-1.66c0.08-0.69,0.13-1.79,1.06-1.85
			c0.33-0.02,0.67,0.15,0.84,0.44c0.13,0.21,0.17,0.47,0.2,0.72c0.38,3.38-0.12,6.99-0.33,10.37c-0.01,0.14-0.02,0.28,0.03,0.41
			c0.08,0.21,0.31,0.34,0.54,0.37c0.48,0.05,0.94-0.3,1.16-0.73c0.22-0.43,0.26-0.93,0.29-1.41c0.15-2.28,0.28-4.57,0.24-6.86
			C380.53,253.17,380.53,253.15,380.53,253.13z"/>
		<path class="st0" d="M377.12,246.19c1.64,1.27,3.3-1.06,2.53-2.59c-0.41-0.81-1.49-1.29-2.3-0.86c-0.53,0.28-0.84,0.86-0.94,1.44
			c-0.09,0.48-0.04,1,0.2,1.42C376.76,245.85,376.93,246.04,377.12,246.19z"/>
	</g>
	<g>
		<g>
			<path class="st7" d="M191.75,500.55h-35c-2.48,0-4.5-2.02-4.5-4.5v-80.29h3v80.29c0,0.83,0.67,1.5,1.5,1.5h35
				c0.83,0,1.5-0.67,1.5-1.5v-85.07h3v85.07C196.25,498.53,194.23,500.55,191.75,500.55z"/>
		</g>
		<g>
			<path class="st7" d="M329.83,500.55h-35c-2.48,0-4.5-2.02-4.5-4.5v-80.29h3v80.29c0,0.83,0.67,1.5,1.5,1.5h35
				c0.83,0,1.5-0.67,1.5-1.5v-85.07h3v85.07C334.33,498.53,332.31,500.55,329.83,500.55z"/>
		</g>
		<g>
			<g>
				<path class="st7" d="M267.04,404.48l56.38-0.52c0,0-2.24-3.73-3.99-4.23s-69.92-0.35-69.92-0.35L267.04,404.48z"/>
				<polygon class="st7" points="267.6,404.17 241.73,329.13 151.75,328.39 178.91,404.48 				"/>
			</g>
			<rect x="151.75" y="403.97" class="st9" width="183" height="14.02"/>
			<g>
				<path class="st8" d="M267.17,403.43c-0.21,0-0.4-0.13-0.47-0.34l-0.89-2.59c-0.09-0.26,0.05-0.55,0.31-0.64
					c0.26-0.09,0.55,0.05,0.64,0.31l0.89,2.59c0.09,0.26-0.05,0.55-0.31,0.64C267.28,403.42,267.22,403.43,267.17,403.43z"/>
			</g>
			<g>
				<path class="st8" d="M264.05,402.13h-83.63c-0.28,0-0.5-0.22-0.5-0.5c0-0.28,0.22-0.5,0.5-0.5h83.63c0.28,0,0.5,0.22,0.5,0.5
					C264.55,401.91,264.32,402.13,264.05,402.13z"/>
			</g>
			<g>
				<path class="st8" d="M202.72,355.63c-2.66,0-4.75-1.2-4.75-2.72c0-1.53,2.09-2.72,4.75-2.72c2.66,0,4.75,1.2,4.75,2.72
					C207.47,354.43,205.38,355.63,202.72,355.63z M202.72,351.18c-2.21,0-3.75,0.91-3.75,1.72s1.54,1.72,3.75,1.72
					c2.21,0,3.75-0.91,3.75-1.72S204.93,351.18,202.72,351.18z"/>
			</g>
		</g>
	</g>
</g>
</svg>
