<?xml version="1.0" encoding="utf-8"?>
<!-- Generator: Adobe Illustrator 24.1.3, SVG Export Plug-In . SVG Version: 6.00 Build 0)  -->
<svg version="1.1" id="레이어_1" xmlns="http://www.w3.org/2000/svg" xmlns:xlink="http://www.w3.org/1999/xlink" x="0px"
	 y="0px" viewBox="0 0 841.89 595.28" style="enable-background:new 0 0 841.89 595.28;" xml:space="preserve">
<style type="text/css">
	.st0{fill:#FFFFFF;}
	.st1{fill:#FBF9F7;}
	.st2{fill:#A7C6E0;}
	.st3{fill:#D49C80;}
	.st4{fill:#653F35;}
	.st5{fill:#ECDFD9;}
	.st6{fill:#4A4747;}
	.st7{fill:#F3A287;}
	.st8{fill:#DFCBC2;}
	.st9{fill:#D4654C;}
	.st10{fill:#332723;}
	.st11{fill:#E7805D;}
	.st12{fill:#F9D390;}
	.st13{fill:#262730;}
	.st14{fill:#AC7459;}
	.st15{fill:#E5D5CE;}
	.st16{fill:#B84B33;}
	.st17{fill:#916254;}
	.st18{fill:#878484;}
	.st19{fill:#47587B;}
	.st20{fill:#314264;}
	.st21{fill:#6A3939;}
	.st22{fill:#F6D0B0;}
	.st23{fill:#749F85;}
	.st24{fill:#558265;}
	.st25{opacity:0.48;fill:#FFFFFF;}
	.st26{fill:#DEAB7E;}
</style>
<path class="st0" d="M-14505.14-1284.11"/>
<path class="st0" d="M17712.98,3492.27"/>
<g>
	<path class="st1" d="M654.48,330.7c-2.69-13.43-8.88-25.84-11.38-39.31c-2.76-14.84-1.01-30.01-0.24-44.94
		c0.71-13.72,0-27.21-2.88-40.65c-2.9-13.52-7.5-26.6-12.72-39.35c-5.04-12.3-10.46-24.52-16.31-36.45
		c-5.25-10.72-11.8-20.28-21.22-27.64c-9.86-7.71-21.22-12.54-33.15-15.23c-15.74-6.8-33.54-8.97-50.55-9.67
		c-31.3-1.29-62.56,2.78-93.22,8.9c-30.33,6.06-60.79,13.27-90.5,21.97c-26.66,7.81-50.7,19.87-71.94,38.11
		c-8.6,7.38-16.65,15.41-24.3,23.79c-7.67,8.4-17.07,15.32-23.52,24.83c-5.81,8.58-9.23,18.33-14,27.45
		c-5.06,9.67-11.41,18.49-15.86,28.55c-11.62,26.27-3.96,53.02,5.11,78.7c4.45,12.58,8.86,25.11,11.63,38.21
		c5.38,25.51,10.86,49.53,30.57,67.94c3.66,3.42,7.5,6.64,11.4,9.77c8.37,9.56,18.47,17.59,28.27,25.73
		c7.03,5.84,13.99,11.83,20.1,18.65c7.18,8.01,12.85,17.17,18.74,26.14c10.01,15.25,22.1,31.46,40.41,36.97
		c19.47,5.86,36.94-5.71,54.94-11.21c22.45-6.86,46.53-1.46,69.55-4.15c20.39-2.38,40.29-8.55,58.52-17.98
		c9.81-5.07,19.03-11.37,29.33-15.46c9.45-3.75,19.55-5.11,29.54-6.57c23.5-3.44,44.53-11.75,54.56-34.86
		c10.5-24.18,4.84-51.72,14.48-76.23C656.68,369.31,658.14,348.98,654.48,330.7z"/>
	<g>
		<path class="st2" d="M554.18,256.4c0,0,39.65-13.13,65.65,27.7s12.17,87.69,3.33,100.83c-8.84,13.15-35.57,20.14-35.57,20.14
			L554.18,256.4z"/>
		<g>
			<path class="st3" d="M531.33,149.01c0,0,9.87-19.04,38.64-21.98c20.2-2.07,38.43,5.15,38.45,14.69
				c0.02,9.54,0.12,28.19-0.28,36.99c-0.27,5.95,0.31,20.17,0.31,20.17s-1.04,16.28-25.68,20.49c-14.74,2.51-27.13-7.12-27.05-7.26
				C555.8,211.97,531.33,149.01,531.33,149.01z"/>
			<path class="st4" d="M545.18,146.17c-0.28-7.09,12.39-15.25,28.63-15.9c16.24-0.64,29.91,6.48,30.19,13.57
				c0.28,7.09-12.58,17.67-28.83,18.32C558.93,162.8,545.46,153.25,545.18,146.17z"/>
		</g>
		<g>
			<path class="st5" d="M261.54,148.54c0,0-9.79,51.76-7.06,60.14c2.73,8.39,5.95,18.31,7.06,32.42
				c1.11,14.12,32.18,103.51,30.55,124.77c-1.64,21.26,23.25,86.66,24.71,101.38c1.46,14.72,8.68,71.4,17.33,75.22
				c8.65,3.82,22.82-7.09,38.63-7.63c15.81-0.55,28.89-4.36,47.43-9.27c18.53-4.91,24.96,7.09,71.89-10.9
				c46.93-17.99,93.64-25.62,106.81-29.98c13.16-4.36,18.61-3.82,18.61-7.63c0-3.82,5.73-25.53,4.99-29.66
				C621.73,443.27,261.54,148.54,261.54,148.54z"/>
			<path class="st5" d="M562.22,159.14c-6.72-26.11-18.56-62.33-22.66-70.03s-107.87,16.18-143.05,23.12
				c-35.18,6.93-129.96,28.44-134.97,36.31s51.26,204.86,52.02,227.21c0.76,22.35,21.71,97.86,22.79,110.18
				c1.08,12.33,5.82,25.43,15.4,25.43c9.57,0,112.22-26.97,127.93-30.82c15.71-3.85,63.42-12.33,88.1-18.49
				c24.69-6.16,54.63-12.33,54.68-14.64C622.53,445.09,568.94,185.26,562.22,159.14z"/>
		</g>
		<g>
			<path class="st6" d="M353.86,513.84c-0.61,0-1.02-0.06-1.23-0.18c-2.52-1.44-9.11-32.53-17.46-73.02
				c-2.64-12.82-4.93-23.89-6.55-31.08c-2.67-11.81-4.57-23.31-6.25-33.45c-2.01-12.12-3.74-22.59-6.3-31.53
				c-4.73-16.57-51.16-187.1-51.63-188.83c-0.06-0.22,0.07-0.44,0.29-0.5c0.22-0.06,0.44,0.07,0.5,0.29
				c0.47,1.72,46.9,172.25,51.63,188.81c2.56,8.98,4.3,19.47,6.32,31.62c1.68,10.13,3.58,21.62,6.24,33.4
				c1.63,7.2,3.91,18.27,6.55,31.09c5.84,28.31,14.66,71.1,17.06,72.47c1.85,1.06,29.06-5.09,53.06-10.51
				c20.75-4.69,42.2-9.54,53.01-11.18c24.07-3.66,155.05-38.5,156.37-38.85c0.22-0.06,0.44,0.07,0.5,0.29
				c0.06,0.22-0.07,0.44-0.29,0.5c-1.32,0.35-132.34,35.21-156.46,38.87c-10.78,1.64-32.22,6.48-52.96,11.17
				C377.64,509.71,358.94,513.84,353.86,513.84z"/>
		</g>
		<polygon class="st7" points="407.68,438.52 418.05,452.81 422.96,446.26 412.73,427.2 		"/>
		<polygon class="st7" points="446.96,455.55 450.42,473.63 457.43,470.36 456.02,448.1 		"/>
		<path class="st7" d="M424.55,462.76c-1.77,1.84-8.48,10.59-10.48,11.76c-2,1.16-2.44-1.98-1.57-4.81c0.2-0.67,0.56-1.58,1-2.62
			c1.4-3.34,3.57-7.98,3.94-10.1c0.48-2.76,0.28-4.63,0.28-4.63l0.05-4.84l4.86-1.7c0,0,2.43,2.69,4.16,5.3
			c0.66,0.99,1.23,1.96,1.51,2.78C429.37,456.87,426.33,460.92,424.55,462.76z"/>
		<g>
			<path class="st0" d="M303.81,144.03c3.27-1.71,51.49-10.39,65.68-11.59c14.19-1.2,27.28,0.04,40.91-6.23
				c13.63-6.27,86.16-25.22,92.64-23.88c17.16,3.54,16.61,35.6,13.37,39.99c-7.12,9.65-14.48,8.15-60.81,18.78
				c-23.39,5.36-37.7,9.95-73.04,14.68c-35.34,4.73-68.64,12.67-74.79,10.63c-6.15-2.04-12.69-19.98-12.42-28.18
				C295.63,150.02,300.54,145.74,303.81,144.03z"/>
			<g>
				<path class="st8" d="M510.39,144.91c-0.07,0-0.13-0.02-0.19-0.05c-0.2-0.11-0.28-0.35-0.17-0.55c0.04-0.07,3.86-7.46,1.87-19.56
					c-2-12.13-8.83-19.88-8.89-19.96c-0.15-0.17-0.14-0.43,0.03-0.58c0.17-0.15,0.43-0.14,0.58,0.03c0.07,0.08,7.05,8,9.09,20.37
					c2.04,12.39-1.79,19.77-1.95,20.08C510.67,144.83,510.53,144.91,510.39,144.91z"/>
			</g>
			<g>
				<path class="st8" d="M309.94,184.63c-0.2,0-0.37-0.14-0.4-0.34c-0.04-0.22,0.12-0.43,0.34-0.47c0.02,0,2.45-0.42,4.24-3.2
					c1.75-2.72,3.2-8.26,0.2-19.18c-3.16-11.51-6.17-14.3-7.67-14.94c-0.8-0.34-1.27-0.11-1.27-0.11c-0.2,0.11-0.45,0.04-0.56-0.16
					c-0.11-0.2-0.04-0.45,0.16-0.56c0.08-0.04,0.82-0.42,1.99,0.07c2.01,0.85,5.05,4.22,8.14,15.47c2.48,9.02,2.37,15.71-0.32,19.86
					c-1.99,3.08-4.67,3.52-4.78,3.54C309.98,184.63,309.96,184.63,309.94,184.63z"/>
			</g>
			<g>
				<path class="st8" d="M306.02,168.4c-0.45,0-0.94-0.29-1.4-0.84c-0.49-0.58-0.91-1.42-1.21-2.35c-0.29-0.93-0.41-1.86-0.35-2.62
					c0.08-0.88,0.42-1.45,0.95-1.62c0.53-0.16,1.14,0.11,1.7,0.79c0.49,0.58,0.91,1.42,1.21,2.35l0,0c0.29,0.93,0.41,1.86,0.35,2.62
					c-0.08,0.88-0.42,1.46-0.95,1.62C306.22,168.39,306.12,168.4,306.02,168.4z M304.32,161.75c-0.02,0-0.04,0-0.06,0.01
					c-0.14,0.04-0.32,0.31-0.38,0.91c-0.06,0.65,0.05,1.47,0.31,2.3c0.26,0.83,0.63,1.57,1.05,2.07c0.39,0.47,0.69,0.58,0.83,0.54
					c0.14-0.04,0.32-0.31,0.38-0.91c0.06-0.65-0.05-1.47-0.31-2.3c-0.26-0.83-0.63-1.57-1.05-2.07
					C304.75,161.89,304.48,161.75,304.32,161.75z"/>
			</g>
			<g>
				<path class="st8" d="M371.33,139.46c-0.05,0-0.09-0.01-0.14-0.02c-0.06-0.02-5.75-2.08-12.16-2.71c-6.41-0.63-9.97-0.01-10.01,0
					c-0.22,0.04-0.43-0.11-0.47-0.33c-0.04-0.22,0.11-0.43,0.33-0.47c0.15-0.03,3.71-0.64,10.23,0c6.52,0.64,12.31,2.74,12.36,2.76
					c0.21,0.08,0.32,0.31,0.24,0.52C371.65,139.36,371.49,139.46,371.33,139.46z"/>
			</g>
			<g>
				<path class="st8" d="M354.77,141.4c-0.21,0-0.39-0.17-0.41-0.38c-0.01-0.23,0.16-0.42,0.38-0.43l8.48-0.51
					c0.22-0.02,0.42,0.16,0.43,0.38c0.01,0.23-0.16,0.42-0.38,0.43l-8.48,0.51C354.79,141.4,354.78,141.4,354.77,141.4z"/>
			</g>
			<g>
				<path class="st8" d="M364.37,167.13c-0.13,0-0.25-0.06-0.33-0.17c-0.13-0.18-0.09-0.44,0.09-0.57l14.52-10.49
					c0.18-0.13,0.44-0.09,0.57,0.09c0.13,0.18,0.09,0.44-0.09,0.57l-14.52,10.49C364.54,167.11,364.46,167.13,364.37,167.13z"/>
			</g>
			<g>
				<path class="st8" d="M419.46,130.47c-0.14,0-0.27-0.07-0.35-0.19c-0.12-0.19-0.06-0.44,0.13-0.56c0.1-0.06,10.11-6.39,16.7-9.63
					c6.64-3.27,13.38-3.62,13.45-3.62c0.22-0.02,0.42,0.16,0.43,0.39c0.01,0.23-0.16,0.42-0.39,0.43c-0.07,0-6.64,0.34-13.12,3.54
					c-6.55,3.22-16.52,9.52-16.62,9.59C419.61,130.45,419.54,130.47,419.46,130.47z"/>
			</g>
			<g>
				<path class="st8" d="M422.32,132.41c-0.18,0-0.35-0.12-0.39-0.31c-0.06-0.22,0.07-0.44,0.29-0.5l12.05-3.17
					c0.22-0.06,0.44,0.07,0.5,0.29c0.06,0.22-0.07,0.44-0.29,0.5l-12.05,3.17C422.39,132.41,422.36,132.41,422.32,132.41z"/>
			</g>
			<g>
				<path class="st8" d="M443.86,155.02c-1.79,0-3.37-0.04-4.59-0.13c-5.9-0.41-18.16-3.85-18.68-4c-0.22-0.06-0.34-0.29-0.28-0.5
					c0.06-0.22,0.29-0.35,0.5-0.28c0.13,0.04,12.7,3.57,18.52,3.97c5.84,0.4,16.48-0.24,17.5-0.56c0.1-0.08,0.23-0.11,0.36-0.07
					c0.22,0.06,0.35,0.28,0.29,0.5c-0.08,0.3-0.17,0.61-7.08,0.92C448.08,154.97,445.84,155.02,443.86,155.02z"/>
			</g>
		</g>
		<path class="st7" d="M332.45,158.04c0,0,6.57,8.84,10.72,9.76c4.54,1.01,43.89-20.49,43.89-20.49l0.9-10.99l-47.27,10.76
			L332.45,158.04z"/>
		<path class="st9" d="M375.22,181c0,0-1.51-3.59-2.33-8.97c-0.82-5.38,2.04-4.29,5.45-7.83c3.41-3.54,3.46-11.16,9.62-11.6
			c6.16-0.44,7.92-3.53,15.02-4.62c7.11-1.09,10.24,6.43,16.51,8.87s6.81,11.16,5.31,14.43c-1.5,3.27,2.9,5.92,0.7,8.68
			c-2.2,2.77-6.83,6.44-8.6,6.44C415.14,186.41,375.22,181,375.22,181z"/>
		<path class="st10" d="M422.84,136.43c-0.66-1.7-1.98-2.4-3.57-2.93c-0.87-0.29-1.71-0.56-2.23-1.3c-0.3-0.43-0.51-0.99-0.77-1.45
			c-0.36-0.63-0.76-1.28-1.31-1.77c-0.64-0.56-1.61-0.9-2.1-1.28c-0.84-0.67-1.27-1.29-2.47-1.49c-1.82-0.3-4.87,0.87-6.14-0.94
			c-2.16-3.08-6.64-0.38-8.53,1.67c-2.22-0.87-4.62-1.45-6.88-0.39c-1.14,0.54-1.95,1.39-2.44,2.55c-0.29,0.7-0.41,1.5-0.82,2.14
			c-0.56,0.89-1.55,1.37-2.43,1.86c-0.96,0.53-1.94,1.04-2.61,1.94c-0.43,0.58-0.61,1.23-0.91,1.87c-0.61,1.28-1.52,1.69-2.56,2.5
			c-2.18,1.71-1.98,4.48-1.64,6.97c0.02,0.17,0.13,0.25,0.25,0.28c0.29,0.78,0.68,1.24,1.55,1.67c1.03,0.51,1.77,0.72,2.23,1.87
			c0.13,0.34,0.22,0.7,0.34,1.05c0.2,0.57,0.42,1.18,0.81,1.65c0.35,0.42,0.74,0.68,1.24,0.86c1.4,0.51,2.19,0.64,3.42,1.71
			c1.28,1.11,2.5,1.8,4.19,2.11c1.99,0.36,4.13,0.22,6,1.12c1.59,0.77,2.83,2.24,4.63,2.53c0.75,0.12,1.4-0.02,2.14-0.15
			c1.42-0.25,2.59-0.18,3.96,0.21c1.36,0.39,2.94,1.06,3.99-0.15c0.1-0.12,0.12-0.26,0.08-0.38c3.17-1.78,5.69-4.55,7.09-7.94
			c0.42-1.03,0.72-2.08,0.93-3.17c0.2-1.02,0.23-1.84,0.94-2.75c0.34-0.44,0.84-0.73,1.21-1.14c1.55-1.71,0.37-3.69,1.32-5.6
			C422.45,138.77,423.48,138.08,422.84,136.43z"/>
		<path class="st3" d="M421.89,413.86c-2.77-5.07-3.03-12.89-5.95-17.84c-1.29-2.18-3.12-4.06-4.21-6.36
			c-1.14-2.41-1.62-5.25-2.64-7.75c-0.75-1.85-1.68-4.19-3.01-5.9c0.14-2.34-0.14-4.7,0.3-7.02c0.46-2.42,1.08-4.58,1.13-7.08
			c0.06-2.68,0.07-5.21,0.75-7.81c0.66-2.53,1.46-5,2.03-7.56c1.11-5.06,4.06-12.13,4.99-17.23c1.75-9.61,3.81-19.54,2.22-29.37
			c-0.6-3.69-1.63-8.62-3.75-11.63c-0.93-1.32-2.15-1.36-3.55-1.33c-2.3,0.06-4.59,0.22-6.88,0.45c-9.83,0.96-34.24,8.21-34.24,8.21
			s-1.74,22.79-2.45,36.17c-0.4,7.56-0.52,36.53-0.07,43.34c0.41,6.2,4.09,14.9,7.43,19.8c3.9,5.7,8.22,11.07,12.35,16.56
			c4.26,5.67,8.52,11.34,12.79,17c2.21,2.94,4.43,5.89,6.64,8.83c0.98,1.31,1.97,2.62,2.95,3.92c0.9,1.19,3.44,3.64,3.44,3.64
			s7.29-3.69,11.52-8.76c3.29-3.95,4.41-8.34,4.41-8.34S423.72,417.21,421.89,413.86z"/>
		<path class="st3" d="M438.1,455.15c4.97,2.96,12.55,2.83,17.3,1.73c2.85-0.66,5.84-1.51,8.63-2.75c0.37-9.9,1.63-18.68,0.27-28.51
			c-0.77-5.55-1.33-12.16-1.6-17.78c-0.28-5.65-0.14-11.31-0.46-16.96c-0.63-11.12-2.1-21.82-3.02-32.92
			c-0.9-10.88-0.98-25.99-2.45-36.79c-1.59-11.69-5.93-31.89-5.93-31.89c-0.11-0.17-5.25-1.58-6.49-1.55
			c-3.36,0.07-6.35-0.45-9.58-1.51c-2.92-0.96-5.82-1.91-8.87-2.08c-3.36-0.19-6.71,0.36-10.01,1.05c-1.94,0.41-4.86,0.51-6.27,2.37
			c-1.58,2.11-0.23,5.29,0.45,7.48c2.34,7.57-0.95,12.09-0.23,20.11c1.37,15.07,7.28,32.08,9.01,47.12
			c1.73,15.06,6.3,29.44,9.04,44.26c1.49,8.05,2.55,17.08,5.56,24.66c1.58,3.98,0.73,8.14,1.98,12.29
			C436.58,447.29,437.37,451.22,438.1,455.15z"/>
		<polygon class="st7" points="390.06,165.97 389.38,182.32 402.46,189.68 411.51,180.56 409.28,162.83 		"/>
		<path class="st11" d="M389.94,168.95c0,0,5.35,3.52,9.93,3.73c4.57,0.2,10.09-4.42,10.09-4.42s-1.43,6.31-3.48,7.18
			s-2.04,2.5-4.91,2.55c-2.86,0.05-7.35-0.92-8.79-2.55C391.36,173.8,389.94,168.95,389.94,168.95z"/>
		<path class="st7" d="M384.54,142.64c-0.88,2.6,0.77,4.74,0.84,7.48c0.21,8.25,1.38,16.27,7.33,21.58
			c6.01,5.35,12.75,3.47,16.14-1.65c3.5-5.29,4.2-7.36,4.79-13.46c0.47-4.92,0.38-17.3-2.86-21.43c-3.57-4.55-12.05-2.35-17.07-0.8
			c-3.06,0.95-5.77,3.53-7.83,5.9C385.26,140.98,384.83,141.79,384.54,142.64z"/>
		<path class="st0" d="M460.97,298.67c-1.42,0.28-2.84,0.55-4.24,0.8c-5.47,0.96-17.08,1.57-22.6,2.05
			c-5.18,0.46-10.31,1.46-15.49,1.84c-10.86,0.81-21.68-1.73-32.55-0.77c-4.43,0.39-16.87,1.8-21.31,1.93
			c-2.92,0.09-5.33-0.24-7.96-1.41c0-1.41,0.03-3.17,0.08-5.14c0.01-0.26,0.02-0.53,0.02-0.8c0.22-8.21,0.74-19.4,0.74-22.56
			c0-4.71,5.85-36.43,10.58-61.45c0.06-0.28,0.11-0.56,0.16-0.83c0.98-5.22,1.91-10.13,2.73-14.41c0.06-0.28,0.11-0.56,0.16-0.83
			c1.51-7.91,2.58-13.53,2.8-14.81c0.02-0.16,0.04-0.25,0.04-0.27c0-0.07,0.12-0.21,0.35-0.43c2.31-2.07,15.37-10.32,15.37-10.32
			s2.43,11.62,11.22,10.03c8.8-1.59,9.37-9.29,9.37-9.29s12.8,5.44,17.68,9.97c0.24,0.22,0.46,0.44,0.65,0.66
			c0.05,0.05,0.09,0.09,0.13,0.14c1.88,2.15,2.43,5.79,2.75,9.81c0.02,0.26,0.04,0.54,0.07,0.81c0.31,4.5,0.43,9.38,1.82,13.13
			c0.69,1.86,1.88,5.03,3.3,8.86c0.09,0.27,0.2,0.54,0.29,0.82c1.27,3.43,2.7,7.33,4.11,11.28c0.09,0.27,0.19,0.53,0.29,0.79
			c3.15,8.88,6.15,17.82,6.96,22.01c1.64,8.45,5.68,24.82,9.5,33.82c0.29,0.68,0.61,1.98,0.92,3.53c0.05,0.26,0.11,0.52,0.16,0.8
			C459.83,292.37,460.58,297.4,460.97,298.67z"/>
		<path class="st12" d="M443.98,181.63c-5.61-1.78-11.32-0.31-16.95,0.55c-6.84,1.05-13.83,1.35-20.72,1.9
			c-6.59,0.53-13.23,1.38-19.84,1.54c-3.31,0.08-6.44-0.46-9.32-2.15c-2.64-1.55-4.85-3.71-7.03-5.84
			c-0.38-0.37-0.96,0.21-0.58,0.58c3.76,3.66,7.76,7.34,13.18,8.06c3.29,0.44,6.65,0,9.94-0.26c3.48-0.28,6.96-0.56,10.44-0.85
			c6.95-0.56,13.93-0.97,20.86-1.76c6.53-0.74,13.31-3.05,19.8-0.99C444.27,182.57,444.48,181.78,443.98,181.63z"/>
		<path class="st12" d="M444.29,192.74c-13.07-1-26.03,1.07-38.96,2.65c-6.42,0.78-12.86,1.44-19.33,1.51
			c-6.39,0.07-12.81-0.51-19.11,0.88c-0.51,0.11-0.3,0.9,0.22,0.79c6.6-1.46,13.36-0.72,20.05-0.87c6.34-0.14,12.65-0.81,18.94-1.59
			c12.67-1.57,25.38-3.54,38.19-2.55C444.81,193.6,444.81,192.78,444.29,192.74z"/>
		<path class="st12" d="M456.35,215.66c-15.13-0.72-30.26,0.17-45.4-0.02c-7.48-0.09-14.96-0.47-22.39-1.43
			c-7.49-0.97-14.96-2.35-22.55-1.74c-0.52,0.04-0.53,0.86,0,0.82c7.45-0.6,14.79,0.72,22.16,1.69c7.55,0.99,15.17,1.39,22.78,1.49
			c15.13,0.19,30.27-0.7,45.4,0.02C456.87,216.5,456.87,215.69,456.35,215.66z"/>
		<path class="st12" d="M444.07,227.27c-24.11,2.17-48.35,2.72-72.53,1.66c-0.53-0.02-0.52,0.79,0,0.82
			c24.19,1.06,48.42,0.51,72.53-1.66C444.59,228.05,444.59,227.23,444.07,227.27z"/>
		<path class="st12" d="M459.06,288.47c-6.04,0-12.1-0.49-18.15-0.43c-9.02,0.11-17.91,1.77-26.83,2.8
			c-9.18,1.06-18.53,0.33-27.64,1.93c-8.72,1.54-17.14,4.32-26.01,5c-1.18,0.09-2.36,0.16-3.54,0.2c0.01-0.26,0.02-0.53,0.02-0.8
			c2.22-0.09,4.44-0.25,6.66-0.52c8.86-1.06,17.34-4.11,26.2-5.21c4.46-0.55,8.95-0.48,13.43-0.61c4.42-0.12,8.82-0.55,13.21-1.1
			c8.94-1.14,17.82-2.62,26.85-2.52c5.22,0.06,10.44,0.43,15.65,0.44C458.96,287.93,459.01,288.19,459.06,288.47z"/>
		<path class="st9" d="M374.88,177.17c-2.08,1.01-4.27,1.79-6.52,2.34c-1.79,0.44-3.99,0.52-5.46,1.76
			c-1.01,0.85-1.37,2.07-1.74,3.29c-0.69,2.34-1.3,4.71-1.83,7.1c-0.99,4.43-1.73,8.91-2.2,13.43c-0.48,4.61-0.44,9.4-3.03,13.44
			c-1.95,3.05-6.83,17.39-7.12,21.55c-0.34,4.98-1.54,9.85-2.97,14.61c-0.93,3.08-1.74,6.2-2.87,9.22
			c-0.78,2.09-1.96,3.99-2.89,6.02c-0.82,1.8-1.37,3.72-1.94,5.61c-0.16,0.53-2.07,7.91-2.21,7.9c2.94,0.33,5.18,0.91,7.7,2.25
			c2.36,1.25,5.05,0.68,7.6,1.47c2.63,0.82,5.29,1.69,8.02,2.12c2.39,0.37,11.28,4.59,11.95,4.66c1.88,0.2,4.44-9.03,4.79-10.76
			c0.85-4.13,0.58-9.03,0.17-13.21c-0.17-1.8,0.22-3.59,0.71-5.31c0.72-2.53,1.77-4.96,2.27-7.55c0.56-2.88,0.4-5.81,0.52-8.72
			c0.27-6.27,2.28-12.23,3.56-18.32c1.19-5.7,1.05-11.36,1.21-17.14c0.36-13.51,7.21-41.62,7.21-41.62S378.58,175.38,374.88,177.17z
			"/>
		<path class="st9" d="M422.17,219.27c2.42,7.14,5.67,14.04,7.11,21.48c1.44,7.42,1.25,15.15,3.67,22.38
			c0.73,2.19,1.7,4.32,1.75,6.67c0.05,2.17-0.56,4.29-0.75,6.44c-0.33,3.61,0.37,7.17,1.82,10.47c4.73-0.28,9.36-0.94,14.13-1.86
			c7.59-1.46,15.1-1.64,21.65-4.69c-0.05-0.37-0.12-0.75-0.21-1.14c-2.52-10.83-7.91-24.2-14.27-33.33
			c-8.29-11.89-12.07-22.2-14.11-32.98c-0.95-4.98-1.19-10.33-2.95-15.11c-1.45-3.94-5.09-6.79-6.09-10.87
			c-0.58-2.35-0.13-4.85-1.75-6.86c-1-1.24-2.47-1.97-3.94-2.51c-5.62-2.08-17.79-5.32-17.79-5.32s5.87,16.89,7.23,24.14
			C419.13,203.94,419.62,211.71,422.17,219.27z"/>
		<path class="st13" d="M391.86,156.64c0.04-0.45,0.19-0.87,0.57-0.96c1.03-0.24,1.35,1.56,1.31,2.15
			c-0.03,0.35-0.21,0.76-0.53,0.93c-0.34,0.19-0.71,0.01-0.94-0.27c-0.2-0.25-0.32-0.57-0.37-0.89
			C391.86,157.38,391.82,157,391.86,156.64z"/>
		<path class="st13" d="M405.04,155.62c0.04-0.45,0.19-0.87,0.57-0.96c1.03-0.24,1.35,1.56,1.31,2.15
			c-0.03,0.35-0.21,0.76-0.53,0.93c-0.34,0.19-0.71,0.01-0.94-0.27c-0.2-0.25-0.32-0.57-0.37-0.89
			C405.04,156.36,405.01,155.98,405.04,155.62z"/>
		<path class="st11" d="M396.34,167.36c0,0,1.45,0.11,3.89,0.04c2.44-0.07,4.6-0.68,4.6-0.68s-1.07,2.4-3.89,2.74
			C398.13,169.8,396.34,167.36,396.34,167.36z"/>
		<g>
			<path class="st11" d="M400.87,166.15c-0.04,0-0.07,0-0.11-0.01c-0.31-0.08-1.86-0.54-2.21-1.3c-0.32-0.7,0.25-4.9,0.51-6.68
				c0.03-0.22,0.23-0.38,0.46-0.34c0.22,0.03,0.38,0.24,0.34,0.46c-0.4,2.71-0.72,5.78-0.57,6.22c0.12,0.26,0.96,0.65,1.67,0.84
				c0.22,0.06,0.35,0.28,0.29,0.5C401.22,166.03,401.05,166.15,400.87,166.15z"/>
		</g>
		<path class="st10" d="M403,152.59c-0.1,0.5,0.34,1,0.79,1.14c0.64,0.2,1.36,0.1,2.02,0.03c0.99-0.1,1.98-0.24,2.97-0.37
			c0.5-0.06,1.11,0,1.5-0.37c0.15-0.15,0.2-0.31,0.14-0.51c-0.27-0.91-1.99-1.03-2.77-1.1c-1.1-0.1-2.31-0.03-3.37,0.28
			c-0.33,0.1-0.79,0.25-1.06,0.53C403.11,152.32,403.03,152.44,403,152.59z"/>
		<path class="st10" d="M395.5,152.88c0.17,0.49-0.2,1.04-0.63,1.24c-0.61,0.28-1.34,0.28-1.99,0.3c-0.99,0.03-1.99,0.02-2.99,0.03
			c-0.5,0.01-1.1,0.15-1.53-0.16c-0.17-0.12-0.23-0.28-0.2-0.49c0.14-0.94,1.83-1.29,2.59-1.46c1.07-0.24,2.29-0.34,3.38-0.17
			c0.34,0.05,0.82,0.14,1.12,0.38C395.36,152.63,395.45,152.75,395.5,152.88z"/>
		<path class="st10" d="M412.97,136.51c-0.99-1.97-2.45-4.07-4.59-4.87c-2.22-0.83-4.8-0.42-7.04,0.1c-2.81,0.65-5.57,1.42-8.4,2
			c-2.39,0.49-3.77,1.77-5.43,3.46c-1.53,1.56-3.56,3.04-3.95,5.32c-0.48,2.8,0.09,6.05,0.2,8.88c-0.04,0.01-0.08,0.02-0.13,0.02
			c-0.52,0.05,0.6,1.5,1.12,1.45c1.36-0.14,1.41-1.31,2.22-2.45c0.52-0.72,0.55-1.43,0.83-2.24c0.45-1.26,1.14-0.99,2.05-1.61
			c1.84-1.26,1.2-3.84,2.98-5.25c0.93-0.73,1.73-1.21,2.36-1.93c1,1.96,2.7,3.77,4.72,4.35c0.51,0.15,0.95,0.06,1.46,0.09
			c1.41,0.07,2.45,0.19,3.36,1.31c0.15,0.18,0.27,0.39,0.42,0.56c1.17,1.32,2.91,1.4,4.15,2.52c0.26,0.45,0.53,0.9,0.82,1.33
			c0.59,0.84,1.43,1.31,1.97,2.18c0.32,0.51,0.48,1.35,1.1,1.63c0.58,0.26,0.83-0.12,1.37-0.1c0.29,0.01,0.43-0.27,0.39-0.52
			C414.22,147.35,415.5,141.55,412.97,136.51z"/>
		<path class="st7" d="M412.35,152.43c0,0,1.42-1.28,2.81,0.46c1.39,1.73,0.81,6-0.54,7.14c-1.34,1.14-3.08,1.17-3.06,1
			C411.59,160.85,412.35,152.43,412.35,152.43z"/>
		<path class="st7" d="M386.51,152.73c0,0-1.51-1.16-2.77,0.67c-1.25,1.84-0.33,6.05,1.09,7.08c1.43,1.03,3.17,0.92,3.13,0.76
			C387.92,161.06,386.51,152.73,386.51,152.73z"/>
		<path class="st9" d="M345.25,146.05l8.57,19.7c0,0,5.37-0.62,7.96,2.51c2.59,3.13,5.8,1.87,9.62,3.02
			c3.82,1.16,11.17,4.5,11.17,4.5l-26.16,53.94c0,0-13.9-18.11-16.35-22.19c-2.45-4.09-7.63-4.91-8.86-10.22
			c-1.23-5.31-5.86-16.75-8.58-24.18c-2.73-7.43-2.15-11.9-0.24-17.47C324.28,150.08,345.25,146.05,345.25,146.05z"/>
		<path class="st7" d="M465.91,495.38c-1.68,0.68-5.05-0.56-6.75-3.71c-1.68-3.15-5.05-5.96-6.97-10.34
			c-0.59-1.34-0.98-2.58-1.24-3.65c-0.38-1.53-0.49-2.72-0.52-3.41c0-0.02,0-0.05-0.01-0.07c0.01-0.02,0-0.03,0-0.05
			c-0.02-0.34-0.01-0.52-0.01-0.52l3.29-5.91l3.71,2.64c0,0,2.94,6.8,5.41,12.31c0.47,1.05,0.94,2.15,1.37,3.23
			C466.05,490.46,467.28,494.84,465.91,495.38z"/>
		<g>
			<path class="st14" d="M413.75,332.2L413.75,332.2c-0.23,0-0.41-0.18-0.41-0.41l0.09-26.61c0-0.23,0.18-0.41,0.41-0.41h0
				c0.23,0,0.41,0.18,0.41,0.41l-0.09,26.61C414.15,332.02,413.97,332.2,413.75,332.2z"/>
		</g>
		<g>
			<path class="st14" d="M413.75,323.35c-0.18,0-0.35-0.12-0.4-0.31c-0.05-0.22,0.08-0.44,0.3-0.5c0.04-0.01,3.96-1.03,4.32-4
				c0.39-3.23,0.09-13.89,0.09-13.99c-0.01-0.23,0.17-0.41,0.4-0.42c0.22,0.01,0.41,0.17,0.42,0.4c0.01,0.44,0.3,10.82-0.09,14.11
				c-0.43,3.54-4.75,4.65-4.94,4.7C413.81,323.35,413.78,323.35,413.75,323.35z"/>
		</g>
		<g>
			<path class="st14" d="M400.83,392.71c-0.06,0-0.12-0.01-0.18-0.04c-0.2-0.1-0.28-0.35-0.18-0.55c0.02-0.03,0.43-0.92,1.74-5.65
				c1.34-4.82,1.89-9.03,1.9-9.07c0.03-0.22,0.23-0.38,0.46-0.35c0.22,0.03,0.38,0.23,0.35,0.46c-0.01,0.04-0.56,4.31-1.92,9.19
				c-1.36,4.89-1.78,5.76-1.8,5.8C401.12,392.63,400.98,392.71,400.83,392.71z"/>
		</g>
		<g>
			<path class="st14" d="M400.83,379.5c-0.06,0-0.11-0.01-0.17-0.04c-0.21-0.09-0.3-0.33-0.21-0.54l3.68-8.24
				c0.09-0.21,0.33-0.3,0.54-0.21c0.21,0.09,0.3,0.33,0.21,0.54l-3.68,8.24C401.13,379.41,400.98,379.5,400.83,379.5z"/>
		</g>
		<g>
			<path class="st6" d="M375.29,269.8l-5.16,24.34c-0.06,0.22-0.09,0.44-0.09,0.67l0,0c0,1.38,1.14,2.48,2.52,2.44l76.47-2.43
				c1.32-0.04,2.36-1.12,2.36-2.44v-0.16c0-0.4-0.1-0.79-0.28-1.14l-11.03-23.04L375.29,269.8z"/>
			<path class="st6" d="M375.29,269.8l-1.67-35.02c-0.02-0.45,0.33-0.83,0.78-0.86l63.49-2.78c0.45-0.02,0.84,0.33,0.86,0.79
				l1.33,36.1c0,0-31.2,3.95-32.16,3.95C406.96,271.98,375.29,269.8,375.29,269.8z"/>
		</g>
		<polygon class="st15" points="377.15,271.5 372.87,294.34 448.79,291.71 438.78,269.32 		"/>
		<polygon class="st13" points="397.78,234.61 398.16,241.31 414.83,240.45 414.47,233.79 		"/>
		<g>
			
				<rect x="405.89" y="233.79" transform="matrix(0.9992 -0.0395 0.0395 0.9992 -9.1153 16.2497)" class="st6" width="0.82" height="9.61"/>
		</g>
		<g>
			<path class="st13" d="M377.56,269.73c-0.22,0-0.4-0.17-0.41-0.39l-1.84-33.94c-0.01-0.23,0.16-0.42,0.39-0.43
				c0.2-0.02,0.42,0.16,0.43,0.39l1.84,33.94c0.01,0.23-0.16,0.42-0.39,0.43C377.58,269.73,377.57,269.73,377.56,269.73z"/>
		</g>
		<g>
			<path class="st13" d="M438.27,268.44c-0.22,0-0.4-0.17-0.41-0.39l-1.37-35.42c-0.01-0.23,0.17-0.42,0.39-0.42
				c0.22,0,0.42,0.17,0.42,0.39l1.37,35.42c0.01,0.23-0.17,0.42-0.39,0.42C438.28,268.44,438.28,268.44,438.27,268.44z"/>
		</g>
		<g>
			<path class="st13" d="M377.56,244.32c-0.22,0-0.4-0.17-0.41-0.39c-0.01-0.23,0.17-0.42,0.39-0.43l58.66-2.35
				c0.21,0.01,0.42,0.17,0.42,0.39c0.01,0.23-0.17,0.42-0.39,0.43l-58.66,2.35C377.57,244.32,377.57,244.32,377.56,244.32z"/>
		</g>
		<path class="st7" d="M430.3,235.38c0,0-3.88-1.4-6.84-0.43c-2.96,0.97-8.32,3.75-7.3,5.39c1.02,1.64,5.87-1.74,5.87-1.74
			c-2.83,3.03-7.75,5.84-8.11,10.36c-0.21,2.56,6.44,2.87,8.12,2.61c4.5-0.7,10.72-7.91,10.72-7.91L430.3,235.38z"/>
		<path class="st9" d="M417.34,175.25c0,0,10.82-1.34,20.9,1.28c6.58,1.71,11.17,5.3,16.06,9.82c2.56,2.37,5.15,4.69,8.3,6.25
			c3.95,1.96,7.83,3.34,10.73,6.85c2.99,3.62,4.88,7.98,7.53,11.83c1.61,2.35,2.27,13.34,0.23,16.03
			c-4.91,6.48-18.24,3.01-18.24,3.01s-1.04,3.19-7.64-1.53c-6.6-4.72-11.66-4.77-14.2-8.36c-2.54-3.59-5.43-19.09-7.83-22.08
			C430.79,195.35,417.34,175.25,417.34,175.25z"/>
		<path class="st7" d="M468.04,211.01c6.35,0.53,11.06,6.2,10.31,12.53c-0.13,1.09-0.37,2.05-0.76,2.75
			c-2.27,4.06-44.85,17.36-44.85,17.36l-2.86-7.92l30.47-22.54C462.57,211.55,465.3,210.78,468.04,211.01L468.04,211.01z"/>
		<g>
			<path class="st16" d="M384.28,188.72c-0.03,0-0.06,0-0.09-0.01c-0.22-0.05-0.36-0.27-0.31-0.49c0.02-0.08,1.92-8.51-0.07-13.15
				c-2.07-4.84-2.16-9.55-2.17-9.74c0-0.23,0.18-0.41,0.4-0.42c0.21-0.01,0.41,0.18,0.42,0.4c0,0.05,0.1,4.75,2.1,9.44
				c2.09,4.89,0.19,13.3,0.11,13.66C384.63,188.6,384.47,188.72,384.28,188.72z"/>
		</g>
		<g>
			<path class="st16" d="M415.48,186.37c-0.22,0-0.41-0.18-0.41-0.4c0-0.3-0.09-7.48,1.39-12.29c1.42-4.62-0.86-11.5-0.88-11.57
				c-0.07-0.21,0.04-0.45,0.26-0.52c0.22-0.07,0.45,0.04,0.52,0.26c0.1,0.29,2.39,7.19,0.89,12.07c-1.44,4.69-1.36,11.97-1.36,12.04
				C415.89,186.18,415.71,186.37,415.48,186.37C415.48,186.37,415.48,186.37,415.48,186.37z"/>
		</g>
		<g>
			<path class="st16" d="M383.15,196.9c-0.2,0-0.38-0.15-0.41-0.36c-0.01-0.07-0.92-7.46-4.05-13.31c-3.17-5.92-5.41-9.86-5.43-9.9
				c-0.11-0.2-0.04-0.45,0.15-0.56c0.2-0.11,0.45-0.04,0.56,0.15c0.02,0.04,2.26,3.99,5.44,9.92c3.21,5.99,4.14,13.53,4.14,13.6
				c0.03,0.22-0.13,0.43-0.36,0.45C383.18,196.9,383.16,196.9,383.15,196.9z"/>
		</g>
		<g>
			<path class="st16" d="M419.46,201.4c-0.18,0-0.35-0.12-0.4-0.31c-0.06-0.22-1.34-5.38-0.01-12.85
				c1.33-7.47,5.03-12.53,5.18-12.74c0.13-0.18,0.39-0.22,0.57-0.09c0.18,0.13,0.22,0.39,0.09,0.57c-0.04,0.05-3.74,5.13-5.04,12.4
				c-1.3,7.28-0.02,12.45-0.01,12.5c0.06,0.22-0.08,0.44-0.3,0.5C419.53,201.39,419.5,201.4,419.46,201.4z"/>
		</g>
		<g>
			<path class="st16" d="M341.38,185.22c-0.1,0-0.2-0.04-0.27-0.11c-0.17-0.15-0.18-0.41-0.03-0.58c0.03-0.03,2.56-2.85,4.86-6.75
				c2.32-3.94,6.5-11.2,6.54-11.27c0.11-0.2,0.36-0.26,0.56-0.15c0.2,0.11,0.26,0.36,0.15,0.56c-0.04,0.07-4.22,7.34-6.54,11.28
				c-2.34,3.97-4.93,6.85-4.95,6.88C341.61,185.17,341.49,185.22,341.38,185.22z"/>
		</g>
		<g>
			<path class="st16" d="M341.79,175.32c-0.11,0-0.22-0.04-0.3-0.13c-0.15-0.16-0.15-0.42,0.02-0.58l8.69-8.19
				c0.16-0.15,0.42-0.15,0.58,0.02c0.15,0.16,0.15,0.42-0.02,0.58l-8.69,8.19C341.99,175.28,341.89,175.32,341.79,175.32z"/>
		</g>
		<g>
			<path class="st16" d="M457.07,214.17c-0.03,0-0.07,0-0.1-0.01c-0.22-0.05-0.35-0.27-0.3-0.49c0.09-0.35,2.12-8.54,5.59-10.86
				c3.48-2.33,7.7-1.44,7.88-1.4c0.22,0.05,0.36,0.27,0.31,0.49c-0.05,0.22-0.26,0.36-0.49,0.31c-0.04-0.01-4.07-0.85-7.25,1.28
				c-3.2,2.15-5.23,10.29-5.25,10.38C457.42,214.05,457.26,214.17,457.07,214.17z"/>
		</g>
		<g>
			<path class="st16" d="M443.43,223.04c-0.18,0-0.35-0.13-0.4-0.31c-0.01-0.05-1.3-5.46-2.44-11.13
				c-1.15-5.72,0.77-27.31,0.85-28.22c0.02-0.23,0.22-0.38,0.44-0.37c0.22,0.02,0.39,0.22,0.37,0.44
				c-0.02,0.22-1.99,22.39-0.86,27.99c1.14,5.65,2.42,11.05,2.44,11.1c0.05,0.22-0.08,0.44-0.3,0.49
				C443.5,223.03,443.47,223.04,443.43,223.04z"/>
		</g>
		<g>
			<path class="st16" d="M352.83,221.5c-0.05,0-0.1-0.01-0.15-0.03c-0.21-0.08-0.31-0.32-0.23-0.53c0.1-0.26,9.94-25.75,9.99-32.64
				c0.05-6.99,1.02-15.15,1.02-15.23c0.03-0.22,0.23-0.39,0.45-0.36c0.22,0.03,0.38,0.23,0.36,0.45c-0.01,0.08-0.97,8.2-1.02,15.14
				c-0.05,7.04-9.64,31.87-10.04,32.93C353.15,221.41,352.99,221.5,352.83,221.5z"/>
		</g>
		<g>
			<path class="st16" d="M349.46,274.3c-0.09,0-0.18-0.03-0.26-0.09c-0.18-0.14-0.2-0.4-0.06-0.57l9.81-12.26
				c0.14-0.18,0.4-0.2,0.57-0.06c0.18,0.14,0.2,0.4,0.06,0.57l-9.81,12.26C349.69,274.25,349.58,274.3,349.46,274.3z"/>
		</g>
		<g>
			<path class="st16" d="M456.74,267.49c-0.13,0-0.25-0.06-0.33-0.17c-0.21-0.28-1.78-1.96-3.29-3.59
				c-2.67-2.87-4.44-4.77-4.68-5.16c-0.12-0.19-0.06-0.44,0.13-0.56c0.19-0.12,0.44-0.06,0.56,0.14c0.21,0.35,2.74,3.05,4.58,5.03
				c1.93,2.07,3.13,3.36,3.35,3.66c0.13,0.18,0.1,0.44-0.09,0.57C456.91,267.46,456.83,267.49,456.74,267.49z"/>
		</g>
		<path class="st0" d="M428.31,453.91c-0.29-0.82-0.85-1.79-1.51-2.78c-0.1,0.14-0.19,0.26-0.26,0.36c-2,2.52-3.56,5.34-5.32,8.02
			c-0.95,1.44-1.95,2.85-3.12,4.12c-0.65,0.7-1.33,1.36-2.08,1.95c-0.29,0.24-0.57,0.47-0.89,0.68c-0.35,0.26-0.73,0.47-1.14,0.61
			c-0.16,0.1-0.33,0.17-0.48,0.22c-0.43,1.04-0.79,1.95-1,2.62c-0.87,2.83-0.43,5.97,1.57,4.81c2-1.17,8.71-9.92,10.48-11.76
			C426.33,460.92,429.37,456.87,428.31,453.91z"/>
		<path class="st0" d="M464.21,485.9c-0.02,0.03-0.06,0.05-0.08,0.07c-2.41,1.87-5.95-0.45-7.83-2.04
			c-2.09-1.77-3.87-3.92-5.35-6.25c0.26,1.07,0.65,2.31,1.24,3.65c1.92,4.38,5.29,7.19,6.97,10.34c1.69,3.16,5.06,4.39,6.75,3.71
			C467.28,494.84,466.05,490.46,464.21,485.9z"/>
		<polygon class="st0" points="436.22,271.98 443.44,288.47 425.71,288.94 422.5,272.35 		"/>
		<g>
			<path class="st0" d="M403.11,289.9c-0.22,0-0.4-0.18-0.41-0.4c-0.01-0.23,0.17-0.41,0.4-0.42l19.39-0.55
				c0.22,0,0.41,0.17,0.42,0.4c0.01,0.23-0.17,0.41-0.4,0.42l-19.39,0.55C403.12,289.9,403.11,289.9,403.11,289.9z"/>
		</g>
		<g>
			<path class="st0" d="M402.77,286.72c-0.22,0-0.4-0.18-0.41-0.4c-0.01-0.23,0.17-0.41,0.4-0.42l19.39-0.55
				c0.23-0.01,0.41,0.17,0.42,0.4c0.01,0.23-0.17,0.41-0.4,0.42l-19.39,0.55C402.78,286.72,402.77,286.72,402.77,286.72z"/>
		</g>
		<g>
			<path class="st0" d="M402.42,283.55c-0.22,0-0.4-0.18-0.41-0.4c-0.01-0.23,0.17-0.41,0.4-0.42l19.05-0.54
				c0.23,0.02,0.41,0.17,0.42,0.4c0.01,0.23-0.17,0.41-0.4,0.42l-19.06,0.54C402.43,283.55,402.43,283.55,402.42,283.55z"/>
		</g>
		<g>
			<path class="st0" d="M402.08,280.37c-0.22,0-0.4-0.18-0.41-0.4c-0.01-0.23,0.17-0.41,0.4-0.42l18.99-0.54
				c0.24,0.01,0.41,0.17,0.42,0.4c0.01,0.23-0.17,0.41-0.4,0.42l-18.99,0.54C402.09,280.37,402.08,280.37,402.08,280.37z"/>
		</g>
		<polygon class="st0" points="378.94,272.93 377.92,279.41 397.15,278.94 396.25,272.53 		"/>
		<g>
			<path class="st0" d="M561.93,324.79c-0.13-1.4-0.43-2.88-0.92-4.33c-0.72-2.13-1.86-4.2-3.52-5.91
				c-0.02-0.02-0.03-0.04-0.06-0.07c-1.4-1.42-4.83-2.47-7.91-2.87c-1.63-0.22-3.16-0.25-4.25-0.07c-5.25,0.88-6.07,6.02-6.07,6.02
				s-2.62-7.6-1.47-16.43c0.04-0.4,0.11-0.8,0.17-1.2c0.62-3.73,1.74-6.66,1.68-10.88c-0.02-1.53-0.68-2.45-1.87-2.22
				c-1.67,0.34-2.42,2.44-3.07,3.92c-1.34,3.03-2.52,6.22-3.45,9.46c-0.74,2.54-1.32,5.12-1.73,7.68
				c-0.66,4.19-1.16,12.58-1.64,14.67c-2.14-2.35-4.33-4.74-6.05-7.33c-2.48-3.73-2.66-9.3-2.46-13.57
				c0.16-3.57,0.71-7.91,0.77-10.55c0.04-2.17-2.38-2.35-3.46-0.78c-0.86,1.26-1.02,2.8-1.39,4.24c-0.41,1.57-2.8,13.41-3.36,17.35
				c-0.51,3.54-1.05,7.7,0.29,11.05c1.55,3.86,3.68,7.96,3.68,7.96s-3.82,14.37-5.6,21.58c-1.6,6.44-2.07,13.12-1.93,19.74
				c0.07,3.07,0.2,6.14,0.66,9.18c0.24,1.55,0.55,3.07,0.96,4.59c0.13,0.49,1.68,4.22,1.51,4.42c-1.52,1.83-2.68,3.93-3.52,6.17
				c-1.46,3.85-1.99,8.12-1.88,12.12c0.07,2.19,0.35,4.37,0.87,6.5c0.37,1.53,0.86,3.03,1.48,4.46c0.91,2.08,2.41,4.82,3.16,6.97
				c0.85,2.45,0.26,4.02-0.2,6.51c-0.42,2.31-0.95,4.6-1.59,6.86c-0.48,1.74-1.44,3.71-1.27,5.57c0.08,0.88,0.34,2.3,1.53,1.79
				c1.17-0.5,2.11-1.93,2.78-2.94c1.86-2.8,3.17-5.39,4.31-8.54c1.11-3.07,1.59-3.86,2.5-7.05c0.72-2.51-0.22-4.1-1.14-5.36
				c-1.08-1.47-0.3-5.22,0.3-7.1c0.38-1.21,1.07-2.38,1.67-3.49c1.25-2.31,2.71-4.38,4.44-6.19c-1.43,5.38-1.79,11.11,1.54,15.87
				c0.92,1.33,2.13,2.38,3.26,3.53c1.84,1.9,2.73,3.92,2.87,6.56c0.23,4.52-0.69,9.06-0.63,13.58c0.02,2.17,0.54,3.4,2.62,1.85
				c1-0.74,1.45-2.03,1.91-3.14c0.9-2.19,3.06-14.22,3.2-17.59c0.06-1.23-1.09-3.07-1.32-3.38c-0.87-1.09-0.14-3.81,0.39-5.04
				c0.48-1.12,1.04-2.42,1.62-3.82c1.04-2.45,2.19-5.19,3.25-7.66c0,0,0,0,0-0.01c0.65-1.51,1.28-2.93,1.82-4.12
				c0.71-1.56,0.6-6.34,0.2-11.05c-0.29-3.52-0.74-7.01-1.11-9.1c-0.47-2.62-0.83-5.27-1.1-7.91c-0.26-2.57-0.44-5.14-0.52-7.73
				c-0.33-10.11,3.01-29.89,3.01-29.89s4.3,3.47,10.58-1.43c0.36-0.28,0.76-0.65,1.17-1.07c0.69-0.71,1.41-1.59,2.06-2.52
				c0.93-1.32,1.73-2.75,2.09-3.96c0.1-0.35,0.16-0.69,0.19-1c0.02-0.21,0.02-0.43,0.03-0.64
				C562.03,326.33,562.01,325.57,561.93,324.79z"/>
			<path class="st0" d="M566.17,326.82c-0.87-0.75-2.6-1.55-3.67-1.86c-0.17-0.05-0.36-0.11-0.56-0.17
				c-0.47-0.14-0.99-0.25-1.4,0.01c-0.72,0.45-0.51,1.26-0.48,1.97c0.07,1.74-0.16,3.41-0.65,5.08c-0.25,0.11-0.51,0.22-0.79,0.3
				c-0.22,0.06-0.37,0.31-0.3,0.54c0.11,0.38,0.38,0.25,0.68,0.19c0.24-0.06,0.47-0.13,0.7-0.23c0.69-0.28,1.32-0.71,1.95-1.12
				c1.15-0.75,2.48-0.91,3.63-1.6C566.69,329.06,567.47,327.95,566.17,326.82z"/>
			<path class="st0" d="M593.84,411.56c-0.85-1.31-2.08-1.16-3.29-0.46c-1.89,1.1-3.35,2.91-5.05,4.26
				c-2.44,1.95-5.33,2.85-8.41,3.12c-5.66,0.51-12.31-0.07-17.31-2.96c-3.29-1.9-5.55-3.96-7.55-6.52c-1.2-1.55-2.31-3.28-3.49-5.26
				c-1.14-1.9-2.49-8.14-3.13-11.45c-0.26-1.27-0.41-2.11-0.41-2.11s-1.17-2.06-2.17-4.97c-0.17-0.5-0.96-0.29-0.78,0.21
				c1.19,3.45,1.26,7.16,2.49,10.56c-0.24-0.19-0.69-0.09-0.67,0.3c0.06,1.41-1.1,2.27-1.54,3.5c-0.3,0.86-0.35,1.76-0.29,2.66
				c0.13,1.66,0.67,3.42,1.34,5.02c0,0.01,0,0.01,0,0.01c0.23,0.54,0.47,1.06,0.72,1.56c0.83,1.68,2.04,3.07,3.35,4.37
				c0.17,0.18,0.35,0.35,0.53,0.52c2.01,1.95,4.02,3.95,6.15,5.77c3.53,3.05,7.99,4.73,12.59,5.32c3.98,0.51,8.01-0.13,11.89-1.05
				c2.99-0.7,7.3-1.22,9.79-3.11c1.77-1.35,3.64-3.2,4.77-5.13C594.09,414.5,594.71,412.87,593.84,411.56z"/>
			<path class="st17" d="M548.75,403.75c-1.14-1.9-2.49-8.14-3.13-11.45c-0.29-3.52-0.74-7.01-1.11-9.1
				c-0.47-2.62-0.83-5.27-1.1-7.91c-3.67,1.97-6.73,5.6-7.42,9.3c-0.7,3.77,0.87,7.1,2.1,10.55c1.39,3.89-1.82,7.29-1.98,11.18
				c-0.11,2.87,0.83,6.45,3.23,8.26c0.32,0.24,0.65,0.43,1,0.57c1.04-2.45,2.19-5.19,3.25-7.66c0.23,0.54,0.47,1.06,0.72,1.56
				c0.83,1.68,2.04,3.07,3.35,4.37c1.68-1.24,3.31-2.71,4.58-4.4C551.03,407.45,549.92,405.73,548.75,403.75z"/>
			<path class="st17" d="M539.48,359.15c-2.97-0.71-5.8,6.1-6.66,8.22c-0.53,1.33-1.4,3.54-0.44,4.89c0.78,1.09,2.34,1.05,3.43,0.54
				c1.53-0.72,2.33-2.29,2.8-3.83c0.67-2.17,1.67-4.66,1.91-6.91C540.63,361.03,540.71,359.44,539.48,359.15z"/>
			<path class="st17" d="M537.71,286.83c-1.67,0.34-2.42,2.44-3.07,3.92c-1.34,3.03-2.52,6.22-3.45,9.46
				c1.07,1.33,2.74,2.24,4.49,1.89c0.74-0.15,1.42-0.49,2.05-0.96c0.04-0.4,0.11-0.8,0.17-1.2c0.62-3.73,1.74-6.66,1.68-10.88
				C539.56,287.52,538.9,286.6,537.71,286.83z"/>
			<path class="st17" d="M566.17,326.82c-0.87-0.75-2.6-1.55-3.67-1.86c-0.17-0.05-0.36-0.11-0.56-0.17
				c-0.13-1.4-0.43-2.88-0.92-4.33c-0.29,0.13-0.56,0.31-0.82,0.53c-0.49,0.43-0.87,0.97-1.36,1.41c-0.81,0.73-1.75,0.75-2.78,0.96
				c-0.78,0.16-1.32,0.34-1.88,0.94c-1.38,1.5-2.4,4.42-1.5,6.35c0.94,2.05,3.47,2.52,4.77,4.24c0.07,0.09,0.13,0.18,0.19,0.29
				c0.69-0.71,1.41-1.59,2.06-2.52c0.69-0.28,1.32-0.71,1.95-1.12c1.15-0.75,2.48-0.91,3.63-1.6
				C566.69,329.06,567.47,327.95,566.17,326.82z"/>
			<path class="st17" d="M509.8,409.24c-0.42-1.68-0.16-3.12-0.07-4.82c0.1-1.97,0.25-4.57-0.74-6.36
				c-0.29-0.52-0.65-1.01-1.08-1.47c-1.46,3.85-1.99,8.12-1.88,12.12c0.07,2.19,0.35,4.37,0.87,6.5c0.49,0.06,1.04-0.02,1.64-0.24
				c1.3-0.47,1.91-1.68,1.89-3.02C510.41,411,510.02,410.14,509.8,409.24z"/>
			<path class="st13" d="M551.91,318.67c0.21-1.01,0.01-1.81-0.65-2.59c-0.41-0.48-0.92,0.01-0.65,0.52
				c0.33,0.63,0.5,1.33,0.49,2.03C551.09,319.16,551.81,319.19,551.91,318.67z"/>
			<path class="st13" d="M555.88,326.24c0.95,0.4,1.49,1.02,1.76,2.01c0.17,0.61-0.53,0.75-0.8,0.24c-0.33-0.63-0.81-1.16-1.4-1.56
				C555.01,326.64,555.4,326.04,555.88,326.24z"/>
			<g>
				<path class="st0" d="M555.53,308.8c-1.26,0.46-2.2,1.4-3.52,1.83c-0.69,0.23-1.35,0.51-2.03,0.77
					c-0.16,0.07-0.32,0.13-0.47,0.21c-0.05,0.03-0.1,0.07-0.15,0.1c-0.46,0.35-0.36,1.37,0.28,0.91c0.24-0.17,0.47-0.31,0.73-0.43
					c1.61,0.65,3.05,1.52,4.37,2.65c0.55,0.47,1.05,1.14,1.84,0.85c0.47-0.16,0.72-0.66,0.9-1.14c0.07-0.18,0.13-0.35,0.2-0.5
					c0.43-1.03,0.87-2.89,0.83-4.03C558.44,308.3,557.1,308.21,555.53,308.8z"/>
				<path class="st8" d="M556.51,311.95c0.25-0.4,0.94-1.34,0.11-1.57c-0.33-0.09-0.65,0.16-0.9,0.32c-0.35,0.23-0.67,0.48-1,0.74
					c-0.23,0.18-0.14,0.44,0.06,0.57c0.06,0.14,0.18,0.25,0.31,0.36c0.22,0.19,0.44,0.4,0.76,0.31
					C556.18,312.6,556.34,312.23,556.51,311.95z"/>
			</g>
			<path class="st4" d="M551.78,324.27c-0.13-0.61-0.65-1.75-1.3-1.78c-0.22-0.01-0.44,0.12-0.52,0.39
				c-0.07,0.28-0.11,0.63-0.12,0.91c-0.01,0.24,0.02,0.46,0.21,0.64c0.36,0.34,1.89,0.86,1.74-0.1
				C551.79,324.3,551.78,324.28,551.78,324.27z"/>
			<path class="st8" d="M550.44,326.7c-0.41-0.12-0.85-0.24-1.09-0.62c-0.27-0.44-0.15-0.96,0.17-1.34c0.23-0.21,0.2-0.63-0.11-0.69
				c-0.1-0.06-0.22-0.07-0.33,0c-0.32,0.01-0.62-0.02-0.87-0.27c-0.29-0.3-0.35-0.7-0.28-1.1c0.08-0.52-0.74-0.55-0.82-0.04
				c-0.09,0.61,0.08,1.24,0.5,1.69c0.27,0.29,0.59,0.42,0.94,0.48c-0.18,0.42-0.23,0.87-0.07,1.34c0.27,0.79,0.96,1.11,1.71,1.33
				C550.7,327.63,550.95,326.84,550.44,326.7z"/>
			<path class="st4" d="M562.82,328.69c0.46-0.09,1.62-0.23,1.21-1c-0.16-0.3-0.56-0.36-0.85-0.43c-0.4-0.09-0.81-0.16-1.22-0.21
				c-0.29-0.04-0.41,0.2-0.38,0.43c-0.05,0.14-0.06,0.3-0.05,0.47c0.02,0.29,0.02,0.6,0.3,0.76
				C562.12,328.9,562.5,328.76,562.82,328.69z"/>
			<path class="st8" d="M539.62,318.77c-0.19-0.48-0.98-0.27-0.79,0.22c2.09,5.29,3.65,10.74,4.68,16.33
				c0.09,0.52,0.88,0.3,0.79-0.22C543.27,329.51,541.71,324.06,539.62,318.77z"/>
			<path class="st8" d="M527.49,324.3c0.06-0.52-0.75-0.52-0.82,0c-0.34,2.72-0.44,5.44-0.31,8.18c0.02,0.52,0.84,0.53,0.82,0
				C527.05,329.74,527.15,327.02,527.49,324.3z"/>
			<path class="st8" d="M523.03,324.42c-2.33,1.7-4.4,3.68-6.17,5.96c-0.32,0.41,0.26,0.99,0.58,0.58c1.73-2.22,3.73-4.18,6-5.83
				C523.87,324.82,523.46,324.11,523.03,324.42z"/>
			<path class="st8" d="M529.55,397.71c-2.49,2.27-4.2,5.14-5.02,8.41c-0.13,0.51,0.66,0.73,0.79,0.22
				c0.79-3.14,2.42-5.87,4.81-8.05C530.52,397.93,529.94,397.35,529.55,397.71z"/>
			<path class="st8" d="M520.72,400.78c-3.04-2.4-5.6-5.26-7.63-8.57c-0.28-0.45-0.98-0.04-0.71,0.41c2.07,3.36,4.67,6.29,7.76,8.73
				C520.56,401.68,521.14,401.11,520.72,400.78z"/>
		</g>
		<g>
			<path class="st6" d="M335.97,540.29c-0.09,0-0.17-0.03-0.24-0.08c-0.18-0.14-0.22-0.39-0.08-0.57c0.06-0.08,6.13-8.2,8.34-12.81
				c2.24-4.68,8.45-13.66,8.52-13.75c0.13-0.19,0.38-0.23,0.57-0.1c0.19,0.13,0.23,0.38,0.1,0.57c-0.06,0.09-6.24,9.02-8.45,13.64
				c-2.24,4.68-8.17,12.61-8.42,12.95C336.21,540.23,336.09,540.29,335.97,540.29z"/>
		</g>
		<g>
			<path class="st6" d="M351.3,538.24c-0.04,0-0.09-0.01-0.13-0.02c-0.21-0.07-0.33-0.3-0.26-0.52l5.93-17.99
				c0.07-0.21,0.3-0.34,0.52-0.26c0.21,0.07,0.33,0.3,0.26,0.52l-5.93,17.99C351.63,538.14,351.47,538.24,351.3,538.24z"/>
		</g>
		<g>
			<path class="st6" d="M429.58,521.48c-0.01,0-0.02,0-0.03,0c-0.23-0.02-0.39-0.21-0.38-0.44c0.4-5.05,1.43-18.28,1.43-18.77
				c0-0.23,0.18-0.41,0.41-0.41l0,0c0.23,0,0.41,0.18,0.41,0.41c0,0.62-1.37,18.09-1.43,18.84
				C429.97,521.32,429.79,521.48,429.58,521.48z"/>
		</g>
		<g>
			<path class="st6" d="M519.31,502.68c-0.18,0-0.34-0.11-0.39-0.29c-0.07-0.23-1.65-5.61-1.65-8.5c0-2.77-2.62-12.05-2.64-12.14
				c-0.06-0.22,0.06-0.44,0.28-0.5c0.21-0.06,0.44,0.06,0.5,0.28c0.11,0.39,2.67,9.48,2.67,12.36c0,2.77,1.6,8.21,1.62,8.26
				c0.06,0.22-0.06,0.44-0.28,0.51C519.39,502.67,519.35,502.68,519.31,502.68z"/>
		</g>
		<g>
			<path class="st6" d="M524.52,502.68c-0.17,0-0.33-0.1-0.39-0.27l-3.65-10.32c-0.08-0.21,0.04-0.45,0.25-0.52
				c0.21-0.08,0.45,0.04,0.52,0.25l3.65,10.32c0.08,0.21-0.04,0.45-0.25,0.52C524.61,502.67,524.56,502.68,524.52,502.68z"/>
		</g>
		<g>
			<path class="st6" d="M294.81,357.83c-0.05,0-0.09-0.01-0.14-0.02c-0.21-0.08-0.32-0.31-0.25-0.52
				c0.05-0.13,4.69-13.19,6.25-22.79c1.57-9.69,6.42-22.4,6.47-22.52c0.08-0.21,0.32-0.32,0.53-0.24c0.21,0.08,0.32,0.32,0.24,0.53
				c-0.05,0.13-4.87,12.76-6.43,22.36c-1.57,9.68-6.24,22.81-6.29,22.94C295.14,357.73,294.98,357.83,294.81,357.83z"/>
		</g>
		<g>
			<path class="st6" d="M296.99,326.61c-0.04,0-0.08-0.01-0.12-0.02c-0.22-0.07-0.33-0.3-0.27-0.51l6.27-19.74
				c0.07-0.21,0.3-0.33,0.51-0.27c0.22,0.07,0.33,0.3,0.27,0.51l-6.27,19.74C297.33,326.5,297.17,326.61,296.99,326.61z"/>
		</g>
		<g>
			<path class="st6" d="M259.66,216.9c-0.03,0-0.05,0-0.08-0.01c-0.22-0.04-0.37-0.26-0.32-0.48c0.02-0.13,2.49-12.95,5.19-22.35
				c2.68-9.35,3.79-17.78,3.8-17.86c0.03-0.22,0.23-0.38,0.46-0.35c0.22,0.03,0.38,0.23,0.35,0.46c-0.01,0.08-1.13,8.56-3.83,17.98
				c-2.69,9.37-5.14,22.15-5.17,22.28C260.02,216.76,259.85,216.9,259.66,216.9z"/>
		</g>
		<g>
			<path class="st18" d="M495.16,169.45l-3.32,13.25c-0.11,0.45,0.17,0.9,0.62,1l27.87,5.97c0.44,0.09,0.87-0.18,0.97-0.62
				l3.05-13.19c0.1-0.44-0.18-0.89-0.62-0.98l-27.6-6.04C495.69,168.76,495.27,169.02,495.16,169.45z"/>
			<path class="st6" d="M498.67,170.93l-2.97,11.87c-0.1,0.4,0.15,0.81,0.56,0.89l22.8,4.9c0.39,0.08,0.78-0.16,0.87-0.55
				l2.73-11.81c0.09-0.4-0.16-0.79-0.56-0.88l-22.56-4.96C499.15,170.3,498.77,170.54,498.67,170.93z"/>
			<path class="st6" d="M496.13,174.92c-0.44-0.26-1-0.12-1.28,0.3c-0.22,0.33-0.27,0.79-0.25,1.18c0.04,0.74,0.78,1.22,1.41,0.69
				C496.6,176.6,496.95,175.4,496.13,174.92z"/>
		</g>
		<g>
			<path class="st10" d="M501.56,252.87c-0.34,0.08-0.7-0.07-0.89-0.38c-0.23-0.39-0.1-0.89,0.29-1.12l21.39-12.56
				c0.39-0.23,2.85-0.9,2.85-0.9s-1.63,2.08-2.02,2.31l-21.39,12.56C501.72,252.82,501.64,252.85,501.56,252.87z"/>
		</g>
		<g>
			<polygon class="st19" points="496.61,229.09 498.48,203.54 503.86,203.54 502.64,226.84 			"/>
			<polygon class="st0" points="497.17,228.75 499.43,204.26 503.52,203.54 501.55,226.64 			"/>
			<polygon class="st19" points="501.34,202.09 537.72,205.71 536.32,229.09 499.12,226.48 			"/>
			<path class="st19" d="M499.12,226.48l-2.51,2.61l37,2.66l2.72-2.66c0,0-30.72-10.63-32.36-10.53
				C502.33,218.67,499.12,226.48,499.12,226.48z"/>
			<path class="st9" d="M498.72,223.26c-0.62,0.12-1.24,0.29-1.85,0.52c-1.48,0.55-2.42,1.1-4.07,1.1c-1.45,0-2.91-0.07-4.37-0.11
				c-0.53-0.01-0.53,0.8,0,0.82c2.15,0.05,4.82,0.59,6.86-0.17c1.06-0.4,2-0.99,3.12-1.26c0.1-0.02,0.2-0.03,0.31-0.05V223.26z"/>
			<g>
				<path class="st20" d="M534.66,229.43c-0.01,0-0.02,0-0.03,0l-34.42-2.25c-0.23-0.02-0.4-0.21-0.38-0.43
					c0.02-0.23,0.2-0.4,0.43-0.38l34.42,2.25c0.23,0.02,0.4,0.21,0.38,0.43C535.05,229.27,534.87,229.43,534.66,229.43z"/>
			</g>
		</g>
		<g>
			<path class="st6" d="M347.11,223.66c-0.07,0-0.13-0.02-0.19-0.05c-0.08-0.04-8.2-4.35-16.24-6.73
				c-8.08-2.39-14.26-4.15-14.32-4.16c-0.22-0.06-0.34-0.29-0.28-0.51c0.06-0.22,0.29-0.35,0.5-0.28c0.06,0.02,6.24,1.77,14.33,4.17
				c8.12,2.4,16.31,6.75,16.39,6.8c0.2,0.11,0.27,0.35,0.17,0.55C347.39,223.59,347.25,223.66,347.11,223.66z"/>
		</g>
		<g>
			<path class="st6" d="M320.75,208.1c-0.04,0-0.07,0-0.11-0.01l-17.49-4.67c-0.22-0.06-0.35-0.28-0.29-0.5
				c0.06-0.22,0.29-0.34,0.5-0.29l17.49,4.67c0.22,0.06,0.35,0.28,0.29,0.5C321.1,207.98,320.93,208.1,320.75,208.1z"/>
		</g>
		<g>
			<path class="st6" d="M378.38,482.05c-0.18,0-0.35-0.12-0.39-0.3c-0.06-0.22,0.07-0.44,0.29-0.5c0.03-0.01,2.91-0.88,11.3-7.93
				c8.51-7.14,18.89-19.56,18.99-19.68c0.15-0.17,0.4-0.2,0.58-0.05c0.17,0.14,0.2,0.4,0.05,0.58c-0.1,0.13-10.53,12.6-19.1,19.79
				c-8.61,7.22-11.5,8.06-11.62,8.09C378.45,482.04,378.42,482.05,378.38,482.05z"/>
		</g>
		<g>
			<path class="st6" d="M484.77,363.55c-0.14,0-0.28-0.08-0.36-0.21c-0.11-0.2-0.04-0.45,0.16-0.56l17.44-9.81
				c0.2-0.11,0.45-0.04,0.56,0.16c0.11,0.2,0.04,0.45-0.16,0.56l-17.44,9.81C484.91,363.54,484.84,363.55,484.77,363.55z"/>
		</g>
		<g>
			<path class="st6" d="M480.35,350.75c-0.13,0-0.23-0.01-0.29-0.02c-0.22-0.04-0.36-0.26-0.32-0.48c0.04-0.22,0.26-0.37,0.48-0.32
				c1.5,0.28,25.85-3.6,27.71-4.4c0.21-0.09,0.45,0.01,0.54,0.21c0.09,0.21-0.01,0.45-0.21,0.54
				C506.23,347.15,483.53,350.75,480.35,350.75z"/>
		</g>
		<g>
			<path class="st6" d="M460.97,188.29c-0.05,0-0.11-0.01-0.16-0.03c-0.21-0.09-0.3-0.33-0.21-0.54
				c0.26-0.59,6.45-14.58,10.68-18.53c4.23-3.95,6.92-4.88,7.03-4.92c0.21-0.07,0.44,0.04,0.52,0.26c0.07,0.21-0.04,0.45-0.26,0.52
				c-0.03,0.01-2.65,0.93-6.73,4.74c-4.11,3.83-10.43,18.11-10.49,18.26C461.27,188.2,461.13,188.29,460.97,188.29z"/>
		</g>
		<g>
			<path class="st6" d="M571.14,398.09c-0.91,0-1.89-0.03-2.93-0.09c-7.04-0.43-19.32-4.45-19.44-4.49
				c-0.21-0.07-0.33-0.3-0.26-0.52c0.07-0.21,0.3-0.33,0.52-0.26c0.12,0.04,12.3,4.03,19.24,4.45c6.92,0.42,11.18-0.83,11.22-0.84
				c0.22-0.07,0.44,0.06,0.51,0.27c0.06,0.22-0.06,0.44-0.27,0.51C579.57,397.18,576.45,398.09,571.14,398.09z"/>
		</g>
		<g>
			<path class="st0" d="M254.65,286.86c-2.08,0-3.71-2.27-3.71-5.18c0-2.9,1.63-5.18,3.71-5.18s3.71,2.27,3.71,5.18
				C258.36,284.58,256.73,286.86,254.65,286.86z M254.65,278.14c-1.13,0-2.08,1.62-2.08,3.54c0,1.92,0.95,3.54,2.08,3.54
				c1.13,0,2.08-1.62,2.08-3.54C256.73,279.76,255.78,278.14,254.65,278.14z"/>
		</g>
		<g>
			<g>
				<g>
					<path class="st21" d="M196.7,358.65c-0.62,0-1.16-0.47-1.22-1.11l-3.82-38.94c-0.07-0.67,0.43-1.27,1.1-1.34
						c0.67-0.07,3.53,0.55,3.59,1.22l1.56,38.82c0.07,0.67-0.43,1.27-1.1,1.34C196.78,358.64,196.74,358.65,196.7,358.65z"/>
				</g>
				<g>
					<path class="st21" d="M273.69,344.63c-0.62,0-1.16-0.47-1.22-1.11l-3.82-38.94c-0.07-0.67,0.43-1.27,1.1-1.34
						c0.67-0.07,3.53,0.55,3.59,1.22l1.56,38.82c0.07,0.67-0.43,1.27-1.1,1.34C273.77,344.62,273.73,344.63,273.69,344.63z"/>
				</g>
				<g>
					<path class="st21" d="M175.04,273.04c-0.62,0-1.16-0.47-1.22-1.11l-3.82-40.56c0,0,0.43,0.35,1.11,0.28
						c0.67-0.07,3.53,0.55,3.59,1.22l1.56,38.82c0.07,0.67-0.43,1.27-1.1,1.34C175.12,273.04,175.08,273.04,175.04,273.04z"/>
				</g>
				<polygon class="st22" points="250.7,216.49 169.99,231.38 191.93,322.13 273.42,304.54 				"/>
			</g>
			<g>
				<ellipse class="st9" cx="196.63" cy="243.98" rx="18.19" ry="15.74"/>
				<ellipse class="st4" cx="196.63" cy="241.35" rx="13.79" ry="9.97"/>
				<path class="st23" d="M190.43,208.5c-0.63-3.42-3.68-5.92-7.19-4.76c-2.58,0.86-4.95,3.55-4.79,6.45
					c0.17,3.06,3.34,6.05,6.49,5.38c1.34-0.29,3.29-1.11,4.29-2.07C190.61,212.19,190.76,210.27,190.43,208.5z"/>
				<path class="st23" d="M200.89,214.99c-1.96-1.6-4.9-1.46-6.71,0.32c-2.13,2.09-3.07,7.17-0.17,8.99
					c2.62,1.65,5.57,0.02,7.18-2.21C202.76,219.91,203.16,216.84,200.89,214.99z"/>
				<path class="st23" d="M177.58,222.54c-2-1.2-4.48-0.83-6.63,0.22c-1.79,0.87-3.3,2-4.33,3.79c-4.17,7.21,7.84,9.7,11.95,5.23
					C181.03,229.08,180.87,224.51,177.58,222.54z"/>
				<path class="st23" d="M217.21,226.9c-3.44,1.23-8.74,5.6-5.22,9.62c0.31,0.35,0.66,0.62,1.03,0.85c1.57,1.45,4.5,1.76,6.99,1.01
					c3.64-1.1,9.57-4.85,9.56-9.25C229.55,223.65,220.21,225.82,217.21,226.9z"/>
				<path class="st23" d="M220.06,215.35c-3.45-1.39-9.48,2.42-9.56,6.18c-0.02,1.14,0.43,2.03,1.15,2.61
					c1.13,1.62,3.44,1.79,5.23,1.01c1.96-0.86,3.59-2.51,4.48-4.45C222.26,218.75,222.39,216.29,220.06,215.35z"/>
				<path class="st23" d="M184.97,240.76c-4.87-0.2-9.92,3.13-11.03,7.99c-1.06,4.62,2.82,8.31,7.35,7.55
					c3.5-0.59,6.44-3.16,8.23-6.13c1.47-2.43,2.77-6.48-0.35-8.24C187.86,241.19,186.42,240.82,184.97,240.76z"/>
				<path class="st24" d="M198.31,217.41c0.18-0.5-0.61-0.71-0.79-0.22c-1.29,3.57-1.29,7.51-1.43,11.26
					c-0.14,3.97-0.12,7.95,0.03,11.92c-0.02-0.02-0.03-0.05-0.06-0.06c-1.87-3.26-4.72-6.25-7.66-8.72c-0.01-0.02,0-0.04-0.01-0.06
					c-3.12-7.3-2.87-15.87-3.53-23.67c-0.04-0.52-0.86-0.53-0.82,0c0.64,7.48,0.48,15.56,3.09,22.69c-0.32-0.25-0.64-0.5-0.95-0.74
					c-4.23-3.18-9.25-4.54-14.3-2.49c-0.48,0.2-0.27,0.99,0.22,0.79c5.32-2.16,10.38-0.32,14.61,3.16c2.98,2.46,6.12,5.44,8.23,8.8
					c-2.7-0.2-5.62,1.91-7.21,3.83c-0.33,0.4,0.24,0.98,0.58,0.58c1.54-1.86,4.55-4.11,7.16-3.49c0.15,0.27,0.32,0.54,0.46,0.82
					c0.12,0.25,0.37,0.25,0.55,0.13c0.23,0.05,0.51-0.07,0.49-0.38c-0.18-4.1-0.22-8.2-0.09-12.3
					C197.01,225.31,196.96,221.15,198.31,217.41z"/>
				<path class="st24" d="M216.58,218.85c-8.1,5.19-14.56,12.55-18.63,21.27c-0.22,0.47,0.48,0.89,0.71,0.41
					c4.02-8.6,10.35-15.86,18.34-20.98C217.43,219.28,217.02,218.57,216.58,218.85z"/>
				<path class="st24" d="M223.17,230.09c-8.54,2.27-17.01,5.86-22.85,12.75c-0.34,0.4,0.24,0.98,0.58,0.58
					c5.75-6.79,14.07-10.3,22.49-12.54C223.9,230.75,223.68,229.96,223.17,230.09z"/>
			</g>
			<path class="st0" d="M238.19,275.6c0.45,2.79,2.08,10.03,2.39,11.22c0.52,1.98,4.12,4.35,7.16,4.01c4.34-0.47,5.47-1.93,5.9-3.96
				c0.77-3.58,1.41-7.25,1.81-10.89c0.07-0.6,0.2-1.91,0.12-2.5c-0.29-2.18-1.41-3.42-3.29-4.38c-2.02-1.03-5.88-1.27-8.07-0.78
				C240.84,269.07,237.6,271.89,238.19,275.6z"/>
			<path class="st4" d="M254.5,273.56c0.11,2.63-3.13,4.9-7.22,5.07c-4.1,0.17-7.5-1.83-7.61-4.46c-0.11-2.63,3.09-4.81,7.19-4.98
				C250.96,269.02,254.4,270.93,254.5,273.56z"/>
			<g>
				<path class="st25" d="M223.68,243.26c0.07,2.18,1.44,4.02,3.33,5.01c2.43,1.27,5.07,1.85,7.38,3.43
					c1.58,1.08,2.96,2.38,4.16,3.84c-0.02,0-0.03-0.01-0.05-0.02c-1.51-0.47-3.86-0.55-3.74,1.61c0.16,3.05,4.38,3.6,6.21,5.19
					c2.7,2.35,3.95,6.47,5.4,9.63c0.18,0.39,0.76,0.17,0.76-0.21c0.04-3.88-1.63-9.28-3.65-12.56c-0.91-1.47-2.3-2.53-3.32-3.91
					c-1.02-1.38-1.51-3-2.25-4.53c-2.05-4.25-6.54-9.67-11.65-10.08C224.47,240.52,223.63,241.53,223.68,243.26z"/>
				<path class="st25" d="M240.45,248.58c-0.23,0.77,0.33,1.53,0.86,2.14c1.54,1.78,2.6,3.42,3.61,5.57
					c1.61,3.45,4.53,1.24,3.31-1.74c-0.97-2.38-3.16-6.92-6.19-6.98c-0.29-0.01-0.58,0.06-0.84,0.18
					C240.85,247.93,240.57,248.21,240.45,248.58z"/>
			</g>
			<g>
				<path class="st26" d="M192.75,318.86c-0.19,0-0.36-0.13-0.4-0.32c-0.05-0.22,0.09-0.44,0.31-0.49l77.94-16.76
					c0.22-0.04,0.44,0.09,0.49,0.31c0.05,0.22-0.09,0.44-0.31,0.49l-77.94,16.76C192.81,318.85,192.78,318.86,192.75,318.86z"/>
			</g>
		</g>
		<path class="st23" d="M543.72,88.33c-0.11-0.47-0.28-0.94-0.51-1.39c-1.09-2.16-3.31-3.5-5.5-4.52
			c-9.54-4.42-23.57-9.33-34.09-7.27c-3.67,0.72-7.19,2.08-10.84,2.88c-5.49,1.2-11.17,1.11-16.79,1.47
			c-8.71,0.56-17.86,2.44-24.28,8.35c-2.23,2.05-4.13,4.75-4.16,7.77c-0.02,2.04,0.85,4.03,2.13,5.62
			c4.11,5.12,11.59,5.92,18.12,5.26c6.53-0.66,13.2-2.36,19.55-0.71c2.26,0.58,4.41,1.58,6.7,2c2.99,0.55,6.07,0.11,9.1-0.2
			c6.37-0.65,12.82-0.69,19.13-1.75c6.32-1.06,12.65-3.26,17.36-7.6C542.39,95.71,544.55,91.81,543.72,88.33z"/>
		<path class="st23" d="M546.15,123.03c-3.59-5.74-14.3-1.13-19.18,0.03c-10.41,2.48-19.67,5.79-29.1,10.94
			c-5.27,2.88-10.76,5.77-14.99,10.13c-3.01,3.11-7.46,9.16-3.78,13.29c4.12,4.65,10.75,1.49,15.09-1.02c3-1.74,5.85-3.75,8.5-5.99
			c3.11-2.63,5.66-5.36,9.98-5.6c3.25-0.18,6.42,0.28,9.66-0.35c3.23-0.62,6.3-1.89,9.2-3.41c3.1-1.63,6.06-3.54,8.96-5.51
			c2.26-1.53,4.6-3.27,5.82-5.79C547.3,127.7,547.39,125.02,546.15,123.03z"/>
		<path class="st23" d="M573.71,78.08c-4.79-8.04-15.87-15.76-20.3-21.25c-3.73-4.62-9.04-12.62-16.07-9.77
			c-3.28,1.33-5.08,5.19-4.68,8.7c0.94,8.29,9.37,10.11,14.75,14.72c4.2,3.6,4.76,8.49,7.63,12.8c2.41,3.61,7.05,6.4,10.9,8.17
			c1.41,0.65,2.94,1.2,4.48,1.03C577.64,91.67,576.22,82.29,573.71,78.08z"/>
		<path class="st23" d="M628.28,205.59c-1.39-2.64-2.67-5.01-2.87-8.05c-0.17-2.59-0.15-5.1-0.82-7.63
			c-2.53-9.65-9.2-16.18-15.64-23.31c-5.96-6.61-11.61-13.02-20.71-15.2c-2.32-0.56-5.07-0.02-6.46,1.93
			c-1.71,2.4-0.73,5.73,0.41,8.44c1.08,2.55,2.26,5.06,3.53,7.52c1.91,6.36,5.33,12.25,10.01,17.01c0.89,0.9,1.87,1.72,2.83,2.56
			c1.2,1.46,2.44,2.89,3.71,4.29c0.89,1.72,1.34,3.64,2.03,5.46c0.76,2.02,1.9,3.68,3.54,5.08c1.72,1.46,3.69,2.59,5.37,4.09
			c3.27,2.93,4.24,7.94,8.96,9.11c3.84,0.96,7.76-1.12,7.85-5.32C630.09,209.43,629.26,207.45,628.28,205.59z"/>
		<path class="st23" d="M623.37,50.72c-0.68-4.07-3.96-7.06-8.23-6.4c-5.47,0.84-8.4,5.88-10.58,10.42
			c-1.37,2.86-2.83,5.54-4.68,8.12c-1.82,2.54-3.52,5.07-4.56,8.04c-1.2,3.41-1.7,7.01-2.51,10.53c-0.6,2.61-1.49,5.08-2.53,7.5
			c-2.17,5.06-4.88,9.89-6.98,14.99c-1.15,2.78-2.85,6.12-3.07,9.17c-0.74,10.18,11.66,0.1,13.99-2.95
			c1.74-2.28,2.92-4.91,4.35-7.38c1.69-2.91,4.01-5.12,6.27-7.57c4.15-4.5,4.96-9.69,5.89-15.54c0.52-3.23,1.27-6.36,2.99-9.19
			c1.58-2.58,3.63-4.82,5.48-7.21C622.04,59.63,624.17,55.46,623.37,50.72z"/>
		<path class="st24" d="M603.82,66.77c-2.5,7.07-4.99,14.13-7.49,21.2c-2.44,6.9-4.46,14.24-8.03,20.66
			c-3.33,5.99-8,10.9-10.66,17.31c-2.1,5.07-3.32,10.42-4.32,15.8c0.18-0.95-0.71-3.1-0.89-4.19c-0.29-1.72-0.5-3.45-0.84-5.16
			c-0.63-3.17-0.74-6.39-0.63-9.62c0.15-4.43,0.8-8.84,1.91-13.14c1.02-3.94,2.49-7.8,2.94-11.87c0.69-6.27-1.93-10.94-6.22-15.28
			c-6.33-6.41-12.89-12.6-19.33-18.9c-0.75-0.74-1.91,0.42-1.16,1.16c6,5.85,12.02,11.68,17.99,17.57c2.89,2.85,5.93,5.82,6.89,9.92
			c1.06,4.54-0.47,9.18-1.72,13.51c-1.83,6.36-2.79,12.77-2.82,19.16c-0.59-1.75-1.26-3.46-2.07-5.12
			c-2.21-4.53-5.32-7.42-8.99-10.72c-5.91-5.33-7.26-15.41-14.97-18.77c-3.9-1.7-8.14-1.03-12.21-0.43
			c-6.73,0.99-13.03,0.73-19.77-0.02c-12.19-1.36-24.22-1.23-36.32,0.87c-1.03,0.18-0.6,1.76,0.43,1.58
			c11.39-1.98,22.83-2.25,34.31-0.99c5.24,0.57,10.51,1.3,15.79,0.93c5.39-0.38,11.1-2.53,16.39-0.66
			c7.58,2.67,8.92,12.59,14.27,17.82c3.36,3.29,6.81,5.81,9.07,10.08c2.11,3.98,3.34,8.34,4.43,12.69
			c0.59,5.36,1.86,10.67,3.88,15.9c0.38,0.97,1.96,0.55,1.58-0.43c-0.34-0.88-0.65-1.77-0.96-2.66c0.06-0.08,0.1-0.19,0.12-0.31
			c1.23-6.98,2.65-14.07,5.77-20.5c2.98-6.14,7.85-11.05,10.78-17.23c2.81-5.94,4.73-12.34,6.91-18.53
			c2.5-7.07,4.99-14.13,7.49-21.2C605.75,66.21,604.17,65.78,603.82,66.77z"/>
		<path class="st24" d="M573.99,149.21c-3.66-5.5-7.44-10.92-11.38-16.22c-2.24-3.01-4.76-7.79-8.56-9.05
			c-4.3-1.43-10.66,1.02-14.88,2.02c-6.38,1.5-12.64,3.42-18.8,5.66c-0.98,0.36-0.56,1.94,0.43,1.58c4.73-1.72,9.53-3.26,14.4-4.56
			c4.85-1.29,10.81-3.4,15.85-3.29c5.8,0.13,9.3,7.29,12.39,11.54c3.14,4.32,6.17,8.71,9.13,13.15
			C573.16,150.91,574.58,150.09,573.99,149.21z"/>
		<path class="st24" d="M612.17,188.02c-3.43-5.06-6.26-10.32-10.04-15.18c-6.72-8.66-13.43-20.34-25.06-22.6
			c-1.03-0.2-1.47,1.38-0.43,1.58c10.84,2.11,17.14,12.9,23.43,21c3.4,4.38,6.48,8.72,9.22,13.54c2.61,4.59,8.72,8.84,8.9,14.25
			c0.04,1.05,1.67,1.05,1.64,0C619.64,195,615.07,192.29,612.17,188.02z"/>
		<g>
			<g>
				<path class="st19" d="M279.78,383.02c-1.6-4.25-5.74-2.48-8.21-0.54c-3.85,3.02-8.03,5.82-12.74,7.28
					c-3.63,1.13-6.72,2.44-8.83,5.81c-3.54,5.65-1.77,13.63,6.07,12.55c3.95-0.54,7.26-3.03,10.09-5.7
					c3.86-3.64,7.53-7.67,11.02-11.65C279.02,388.68,280.88,385.92,279.78,383.02z"/>
				<g>
					<path class="st20" d="M265.18,401.3c-0.13,0-0.27-0.07-0.34-0.19c-6.02-9.38-6.09-9.57-6.11-9.63
						c-0.07-0.21,0.04-0.45,0.26-0.52c0.2-0.07,0.42,0.03,0.5,0.22c0.21,0.39,3.71,5.87,6.03,9.48c0.12,0.19,0.07,0.44-0.12,0.57
						C265.33,401.28,265.25,401.3,265.18,401.3z"/>
				</g>
			</g>
			<g>
				<path class="st19" d="M279.79,401.53c-2.52-3.78-6.15-1.13-8.12,1.32c-3.07,3.81-6.51,7.47-10.77,9.96
					c-3.28,1.92-6,3.89-7.3,7.64c-2.18,6.3,1.34,13.68,8.74,10.86c3.73-1.42,6.39-4.59,8.55-7.82c2.94-4.41,5.61-9.16,8.12-13.83
					C280.32,407.22,281.51,404.12,279.79,401.53z"/>
				<g>
					<path class="st20" d="M269.26,423.03c-0.1,0-0.21-0.04-0.29-0.12l-8.04-8.04c-0.16-0.16-0.16-0.42,0-0.58
						c0.16-0.16,0.42-0.16,0.58,0l8.04,8.04c0.16,0.16,0.16,0.42,0,0.58C269.47,422.99,269.37,423.03,269.26,423.03z"/>
				</g>
			</g>
		</g>
	</g>
	<g>
		<path class="st0" d="M614.56,385.34c-0.08,0-0.16-0.02-0.23-0.07c-0.19-0.13-0.23-0.38-0.1-0.57
			c17.05-24.58,18.62-60.92,3.91-90.42c-5.35-10.73-18.14-24.52-31.29-28.93c-0.21-0.07-0.33-0.3-0.26-0.52
			c0.07-0.21,0.3-0.33,0.52-0.26c13.36,4.48,26.34,18.46,31.77,29.34c14.85,29.76,13.25,66.43-3.97,91.25
			C614.82,385.28,614.69,385.34,614.56,385.34z"/>
	</g>
</g>
<path class="st0" d="M-1567.94,674.28"/>
<path class="st0" d="M2409.78,674.28"/>
</svg>
