<?xml version="1.0" encoding="utf-8"?>
<!-- Generator: Adobe Illustrator 24.1.3, SVG Export Plug-In . SVG Version: 6.00 Build 0)  -->
<svg version="1.1" id="레이어_1" xmlns="http://www.w3.org/2000/svg" xmlns:xlink="http://www.w3.org/1999/xlink" x="0px"
	 y="0px" viewBox="0 0 841.89 595.28" style="enable-background:new 0 0 841.89 595.28;" xml:space="preserve">
<style type="text/css">
	.st0{fill:#FFFFFF;}
	.st1{fill:#F6D0B0;}
	.st2{fill:#ECBF97;}
	.st3{fill:#F29A87;}
	.st4{fill:#ECDFD9;}
	.st5{fill:#A7C6E0;}
	.st6{fill:#B8D4EA;}
	.st7{fill:#E4F2FC;}
	.st8{fill:#D49C80;}
	.st9{fill:#AC7459;}
	.st10{fill:#558265;}
	.st11{fill:#3D6554;}
	.st12{fill:#749F85;}
	.st13{fill:#F3A287;}
	.st14{fill:#F9D390;}
	.st15{fill:#6A3939;}
	.st16{fill:#D4654C;}
	.st17{fill:#47587B;}
	.st18{fill:#262730;}
	.st19{fill:#E7805D;}
	.st20{fill:#DFCBC2;}
	.st21{fill:#314264;}
	.st22{fill:#4A4747;}
</style>
<path class="st0" d="M-94.58,722.17"/>
<path class="st0" d="M2431.06,670.44"/>
<g>
	<g>
		<g>
			<path class="st1" d="M728.67,433.99c-3.08-16.98-7.65-33.06-15.22-49.76c-7.78-17.17-17.72-33.25-28.82-48.47
				c-6.81,1-13.67,3.15-20.15,3.91c-26.24,3.06-54.66-1.22-80.49,7.6c-5.44,1.86-10.84,3.45-16.61,3.87
				c-5.83,0.42-11.69-0.07-17.47-0.9c-10.96-1.58-21.76-4.32-32.85-4.8c-10.53-0.45-21.04,1.04-31.31,3.34
				c-21.83,4.88-42.86,13.19-65.27,15.32c-22.9,2.19-45.84-0.58-68.75-0.84c-10.85-0.12-21.74,0.31-32.45,2.12
				c-10.76,1.81-21.06,5.27-31.2,9.22c-9.95,3.88-19.77,8.12-30,11.25c-11,3.37-22.11,4.91-33.62,4.32
				c-11.82-0.6-23.54-2.6-35.4-2.63c-10.51-0.03-21.03,1.16-31.27,3.48c-10.28,2.32-20.83,5.66-30.03,10.97
				c0.27,0.31,6.15,7.07,11.04,12.55c2.51,2.82,4.75,5.3,5.85,6.42c8.54,8.66,17.08,17.3,25.62,25.96
				c8.54,8.66,17.08,17.31,25.62,25.96c8.19,8.31,16.15,16.97,24.74,24.86c7.68,7.05,16.49,11.2,26.24,14.62
				c10.9,3.82,21.81,7.6,32.91,10.79c10.76,3.1,21.73,5.59,32.88,6.82c11.93,1.32,23.96,1.18,35.94,0.71
				c24-0.94,47.92-1.97,71.95-1.24c24.12,0.72,48.14,2.88,71.98,6.61c11.45,1.8,22.9,3.76,34.45,4.76
				c12.05,1.04,24.1,0.67,36.13-0.41c24.21-2.17,48.35-5.34,72.5-8.09c25.96-2.95,54.45-4.24,75.98-20.91
				c14.14-10.96,19.75-24.6,20.69-40.02c0.35-5.82,0.03-11.9-0.74-18.17C730.74,446.63,729.81,440.25,728.67,433.99z"/>
			<path class="st0" d="M248.02,438.04c-1.05-0.03-2.16,0.15-3.15,0.49c-0.83,0.28-2.25,0.72-2.33,1.76c-0.09,1.2,0.98,1.98,2,2.34
				c0.09,0.05,0.18,0.07,0.28,0.09c0.03,0.01,0.07,0.02,0.1,0.03c0.13,0.03,0.28,0.05,0.41,0.07c0.9,0.45,2.11,0.57,2.9,0.54
				c1.53-0.06,3.74-0.79,3.55-2.71C251.62,438.83,249.6,438.08,248.02,438.04z"/>
			<path class="st2" d="M609.36,478.2c-14.64-3.44-29.24-6.84-43.51-11.59c-6.21-2.07-12.8-3.1-19.11-4.9
				c-7.81-2.24-15.62-3.17-23.5-4.92c-6.54-1.45-11.98-5.32-17.97-8.19c-3.55-1.7-6.86-3.78-10.55-5.23
				c-3.95-1.55-8.16-2.49-12.25-3.63c-15.56-4.38-31.91-7.56-47.93-9.73c-7.89-1.07-14.58-3.57-22.12-5.87
				c-3.75-1.14-7.64-1.41-11.42-2.37c-4.55-1.15-7.79-3.76-11.82-5.89c-5.81-3.07-12.12-4.64-18.23-6.95
				c-5.89-2.23-13.38-4.8-19.75-3.69c-0.33,0.06-0.65,0.4-0.72,0.72c-0.02,0.08-0.03,0.17-0.05,0.25
				c-11.6-2.77-24.22,4.01-34.43,8.83c-4.95,2.34-9.3,4.93-12.72,9.34c-3.63,4.69-4.26,11.25-4.49,17
				c-0.15,3.53,0.61,7.17-1.38,10.3c-1.51,2.39-3.71,3.92-4.98,6.51c-1.84,3.76-2.9,8.32,0.25,11.6c3.4,3.54,9.67,4.32,14.21,5.04
				c7.23,1.15,14.62,1.34,21.91,1.97c7.08,0.61,15,0.71,21.93,2.21c7.88,1.71,16.03,4.83,23.21,8.42c5.39,2.7,11,5.3,15.91,8.82
				c5.24,3.76,10.3,6.08,16.84,6.76c7.24,0.76,14.58-0.08,21.83,0.97c7.04,1.02,13.97,3.67,21.07,3.86
				c3.56,0.1,7.14-0.07,10.71-0.07c3.69,0,7.79-0.65,11.42,0.07c2.3,0.45,4.8,1.55,6.98,2.43c3.3,1.32,5.68,4.06,8.9,5.35
				c9.96,3.99,22.85,9.79,33.97,7.63c3.05-0.59,5.6-2.47,8.73-2.88c4.2-0.54,7.84,1.23,11.86,2.04c3.01,0.61,6.06,1.02,9.04,1.77
				c4.04,1,7.82,2.73,11.93,3.48c6.4,1.17,13.48,1.18,19.9,0.19c3.48-0.54,9.5-1.88,10.68-6.04c1.03-3.65-3.45-7.23-5.68-9.46
				c-2.15-2.15-6.58-5-2.88-7.8c2.18-1.64,8.06-2.33,10.69-2.76c6.9-1.13,13.94-0.13,20.83-1.29c3.91-0.66,11.05-2.44,12.88-6.63
				C633.57,484.64,614.75,479.47,609.36,478.2z"/>
			<path class="st0" d="M259.95,456.9c-0.4,0.02-0.77,0.2-1.09,0.42c-0.14,0.09-0.28,0.2-0.42,0.3c-0.03,0.02-0.08,0.05-0.14,0.09
				c-0.85,0.16-1.92,0.68-1.9,1.68c0.02,1.36,1.8,1.63,2.81,1.41c1.09-0.23,2.55-0.98,2.49-2.29
				C261.66,457.59,260.87,456.84,259.95,456.9z"/>
			<path class="st0" d="M443.85,504.47c-0.97-0.54-2.58-0.39-3.63-0.32c-1.52,0.1-2.88,0.56-4.21,1.3c-0.3,0.17-0.53,0.54-0.51,0.89
				c0.05,1.19,0.71,1.92,1.62,2.29c1.31,1.15,3.81,0.67,5.2,0.16c0.93-0.34,1.95-0.76,2.35-1.75
				C445.05,506.11,444.76,504.98,443.85,504.47z"/>
			<path class="st0" d="M462.82,490.38c-0.13-0.54-0.59-0.89-1.1-1.05c-0.81-0.25-1.69-0.12-2.52-0.12c-0.48,0-0.79,0.28-0.92,0.62
				c-0.26,0.1-0.49,0.3-0.59,0.65c-0.78,2.67,3.17,3.1,4.55,1.57C462.65,491.6,462.98,491.01,462.82,490.38z"/>
			<path class="st0" d="M413.52,472.85c-0.59-0.16-1.18-0.17-1.78-0.15c-0.13,0-0.27,0.03-0.4,0.09c-0.03,0.01-0.05,0.02-0.07,0.04
				c-0.34,0.18-0.6,0.52-0.56,0.9c0.01,0.1,0.05,0.18,0.08,0.27c0.01,0.06,0.03,0.13,0.05,0.19c0.24,0.68,0.81,1.15,1.61,1.18
				c0.77,0.03,1.67-0.41,1.8-1.24C414.33,473.56,414.11,473.01,413.52,472.85z"/>
			<path class="st0" d="M352.17,495.95c-0.44-0.12-0.96,0.11-1.17,0.52c-0.55,0.05-1.13-0.04-1.68-0.04c-1.33-0.01-1.33,2.05,0,2.06
				c0.93,0.01,1.85,0.14,2.77-0.13c0.33-0.1,0.65-0.37,0.72-0.72c0.03-0.14,0.06-0.29,0.09-0.43
				C353,496.67,352.73,496.1,352.17,495.95z"/>
			<path class="st0" d="M581.42,380.74c0.18-0.54-0.21-1.11-0.72-1.27c-0.93-0.3-1.88-0.15-2.84-0.15c-1.33,0-1.33,2.06,0,2.06
				c0.09,0,0.18-0.01,0.27-0.01c0.11,0.24,0.31,0.43,0.64,0.49c0.44,0.08,0.88,0.1,1.28,0.04c0.13,0,0.26,0,0.39,0
				C581.16,381.9,581.48,381.3,581.42,380.74C581.42,380.74,581.42,380.74,581.42,380.74z"/>
			<path class="st0" d="M628.81,406.72c-0.99,0.36-0.96,2.01,0.18,2.02c0.06,0.39,0.35,0.73,0.75,0.86
				c1.36,0.45,4.06,0.15,3.99-1.75C633.64,405.21,630.3,406.18,628.81,406.72z"/>
			<path class="st0" d="M713.26,453.22c-0.44-0.1-0.88-0.12-1.33-0.12c-0.15-0.01-0.3-0.02-0.44,0c0,0-0.01,0-0.01,0
				c-0.01,0-0.01,0-0.02,0c-0.55,0.06-1.08,0.29-1.39,0.8c-0.49,0.79-0.04,1.73,0.7,2.16c1.34,0.78,3.26-0.29,3.25-1.84
				C714.02,453.77,713.7,453.32,713.26,453.22z"/>
			<path class="st0" d="M706.44,477.49c-0.55-0.18-1.1-0.17-1.67-0.15c-1.18,0.03-1.31,1.68-0.37,2c0.14,0.32,0.43,0.57,0.89,0.58
				c0.62,0.01,1.21-0.21,1.61-0.7C707.39,478.6,707.23,477.75,706.44,477.49z"/>
			<path class="st3" d="M672.39,392.45c-1.08,0.22-2.15,0.41-3.19,0.79c-0.52,0.19-1.08,0.48-1.61,0.58
				c-0.03,0.01-0.1,0.02-0.17,0.03c-0.44-0.82-0.79-1.68-1.3-2.47c-0.74-1.14-1.36-2.34-2.07-3.49c-0.59-0.96-1.94-2.43-3.23-1.98
				c-1.65,0.58-1.41,3.5-1.21,4.75c0.28,1.71,1,3.3,1.32,4.98c0.4,2.13-0.69,1.52-2.4,2.66c-1.16,0.77-2.74,1.31-3.62,2.46
				c-0.85,1.12-0.35,2.12,0.97,2.55c1.39,0.45,2.98-0.12,4.39-0.02c1.18,0.09,0.89-0.65,2.13,0.68c0.45,0.49,0.73,1.26,0.93,1.86
				c0.7,2.14,0.94,4.27,3.1,5.45c0.27,0.14,0.54,0.04,0.71-0.19c1.04-1.41,0.94-2.9,1.07-4.58c0.07-0.88-0.25-3.92,1.3-3.05
				c1.15,0.65,6.03,4.89,6.96,2.29c0.19-0.52-0.01-1.11-0.33-1.66c-1.37-2.32-2.39-4.65-4.46-6.46c0.82-0.46,1.75-0.83,2.49-1.38
				c0.67-0.5,2.36-1.92,1.92-2.98C675.64,392.2,673.28,392.27,672.39,392.45z"/>
			<g>
				<path class="st0" d="M222.8,440.63c-0.41-1.15-1.78-2.4-2.7-3.14c-1.44-1.16-2.95-2.23-4.56-3.16c-2.66-1.53-5.85-2.63-8.88-1.3
					c-2.38,1.04-3.14,4.59-3.18,6.9c-0.06,3.1,0.48,6.03,0.99,9.08c0.64,3.84,3.72,1.18,5.92,0.71c1.67-0.36,3,0.81,4.64,0.2
					c0.98-0.36,1.6-1.09,2.11-1.98c0.7-1.22,0.94-1.57,2.34-2.01c0.43-0.13,0.9-0.15,1.32-0.32
					C222.92,444.75,223.5,442.62,222.8,440.63z"/>
				<path class="st4" d="M210.04,447.53c-1.42-3.34-1.96-6.64-1.99-10.23c-0.01-0.66-1.04-0.67-1.03,0
					c0.04,3.78,0.63,7.23,2.13,10.75C209.41,448.66,210.3,448.13,210.04,447.53z"/>
				<path class="st4" d="M217.61,444.09c-0.55-1.29-1.67-2.71-2.51-3.84c-1.07-1.43-2.38-2.7-3.5-4.09
					c-0.42-0.52-1.14,0.22-0.73,0.73c1.08,1.35,2.35,2.59,3.38,3.96c0.84,1.12,1.93,2.47,2.47,3.76
					C216.97,445.22,217.86,444.69,217.61,444.09z"/>
			</g>
		</g>
		<g>
			<path class="st5" d="M687.29,339.45c-0.04-0.05-0.08-0.1-0.12-0.17c-0.57-0.8-1.15-1.6-1.72-2.4c-0.44-0.6-0.88-1.2-1.32-1.8
				c-0.28-0.4-0.57-0.78-0.86-1.18c-1.01-1.38-2.04-2.77-3.09-4.13c-1.19-1.57-2.38-3.13-3.59-4.67c-1.08-1.39-2.18-2.77-3.28-4.15
				c-3.5-4.37-7.07-8.69-10.69-12.96c-10.91-12.83-22.3-25.24-33.65-37.66c-4.07-4.45-8.1-8.72-12.17-12.82
				c-15.76-15.9-31.93-29.18-51.54-40.03c-0.4-0.45-0.8-0.91-1.23-1.37c-1.99-2.18-3.7-4.15-5.24-6.69c-1.22-2-2.68-3.75-4.23-5.5
				c-1.84-2.07-4.05-3.55-6.07-5.43c-1.85-1.73-3.66-3.48-5.52-5.2c-1.95-1.8-3.43-2.59-5.84-3.63c-2.55-1.11-4.86-2.66-7.41-3.77
				c-2.54-1.09-5.2-1.7-7.81-2.58c-5.36-1.8-9.55-5.66-13.76-9.25c-1.94-1.66-3.86-3.36-5.83-4.98c-1.91-1.57-3.81-3.43-5.87-4.76
				c-2.16-1.38-3.94-2.48-5.76-4.31c-1.65-1.67-3.58-3.27-5.46-4.68c-4.21-3.17-9.74-3.92-14.76-5.02
				c-11.54-2.54-23.09-4.82-34.65-7.23c-4.79-1-9.74-1.83-14.62-2.21c-6.09-0.47-12.31-0.02-18.42-0.21
				c-2.49-0.07-4.55,0.56-6.96,0.82c-2.94,0.31-6.19,0.1-9.15-0.06c-6.33-0.35-11.8-3.12-17.46-5.7c-2.23-1.02-4.26-2.21-6.42-3.33
				c-2.06-1.07-4.65-1.64-6.89-2.3c-4.64-1.35-9.43-2.36-14.31-2.36h-8.67c-2.94,0-5.65,0.55-8.55,0.71
				c-1.33,0.07-2.66-0.06-3.99,0.01c-1.4,0.07-2.73,0.48-4.14,0.58c-1.29,0.08-2.58-0.07-3.88,0.13c-1.33,0.21-2.59,0.7-3.91,1
				c-2.62,0.62-5.15,0.61-7.73,1.52c-2.6,0.91-5.16,1.62-7.85,2.22c-5.28,1.16-10.52,2.87-15.31,5.4c-2.61,1.38-5.19,2.68-7.92,3.82
				c-2.4,1.01-4.47,2.45-6.78,3.55c-1.11,0.54-2.37,0.65-3.54,1.01c-1.64,0.51-3.01,1.07-4.77,1.26c-2.58,0.28-5.22,0.11-7.81,0.14
				c-3.02,0.02-5.82-0.18-8.77-0.9c-2.67-0.65-5.44-1.58-8.17-1.85c-2.44-0.24-4.66-1.2-7.07-1.4c-2.82-0.24-5.72,0.01-8.54-0.07
				c-2.58-0.08-5.14-0.15-7.7,0.27c-2.57,0.42-5.14,0.32-7.59,1.18c-4.85,1.69-9.77,2.98-13.89,6.19c-1.95,1.52-3.49,3.38-5.31,5.01
				c-1.7,1.51-2.77,3.59-4.41,5.21c-1.5,1.49-2.71,3.03-3.85,4.81c-1.35,2.13-3.31,3.69-4.8,5.74c-3.57,4.91-7.75,8.71-13.38,11.05
				c-2.4,1.01-4.89,1.84-7.31,2.83c-2.55,1.05-5.15,1.82-7.71,2.81c-4.44,1.73-8.47,4.14-12.06,7.27c-3.79,3.3-6.41,7.65-9.67,11.42
				c-1.47,1.69-2.69,3.26-3.66,5.3c-0.99,2.09-2.36,4.1-3.24,6.21c-0.5,1.2-0.67,2.34-1.33,3.49c-0.54,0.93-1.25,1.72-1.75,2.68
				c-1.25,2.38-2,5.06-2.91,7.58c-2.9,8.14-5.61,16.36-7.84,24.71c-1.29,4.84-1.26,12.83-2.61,18.35c-0.3,1.24-0.66,2.34-1.14,3.27
				c-2.13,4.19-2.96,8.28-3.31,12.66c-0.11,1.59-0.18,3.22-0.21,4.91c-0.36,19.92,4.69,38.7,8.66,58.02
				c0.1,0.51,0.21,1.01,0.31,1.52c0.68,3.42,2.04,6.73,3.79,9.92c1.92,3.5,4.28,6.86,6.7,10.07c1.84,2.45,3.71,4.81,5.45,7.07
				c1.99,2.6,3.95,5.08,5.76,7.32c1.53,1.89,2.94,3.59,4.16,5.06c0.33,0.4,0.65,0.78,0.96,1.15c0.61,0.72,1.16,1.37,1.62,1.92
				c0.03,0.03,0.06,0.07,0.09,0.1c1.1,1.3,1.75,2.04,1.76,2.05c0.23,0.13,3.15,1.86,5.91,3.45c2.54,1.45,4.93,2.78,4.97,2.64
				c0.04-0.01,0.08-0.03,0.11-0.05c0.03,0.04,0.06,0.09,0.11,0.12c0.23,0.17,0.46,0.31,0.69,0.46c7.48-1.99,14.97-3.95,22.38-6.13
				c23.71-6.96,47.11-14.91,70.38-23.18c21.87-7.77,43.27-16.59,66.24-20.58c21.87-3.81,44.11-4.83,66.25-6.02
				c24.06-1.3,47.63-4.17,71.44-7.77c23.95-3.61,47.61-5.59,71.84-5.48c25.09,0.1,50.16,1.1,75.25,1.16
				c12.2,0.02,24.4,0.18,36.57,1.14c10.42,0.83,20.61,2.61,30.88,4.46c5.12,0.92,11.37,2,17.22,3.96
				c8.15-2.01,16.35-4.02,22.51-6.05C689.46,342.55,688.38,340.99,687.29,339.45z"/>
			<path class="st6" d="M339.69,233.11c-0.03-0.26-0.06-0.52-0.1-0.77c-3.54-21.69-34.74,0.01-45.5,3.31
				c-18.6,5.72-38.55,1.2-57.97-0.07c-4.25-0.28-8.65-0.38-12.63,1.15s-7.48,5.04-7.75,9.29c-0.25,3.92,2.3,7.62,5.64,9.69
				c3.33,2.07,7.33,2.78,11.24,3.11c14.3,1.2,28.61-2.08,42.96-1.9c10.72,0.14,21.4,2.21,32.11,1.7
				c10.71-0.51,22.04-4.16,28.29-12.87C338.58,242.1,340.17,237.55,339.69,233.11z"/>
			<path class="st6" d="M528.08,207.22c-0.71-2.45-2.16-4.68-4.14-6.28c-2.72-2.18-6.22-3.11-9.62-3.89
				c-11.09-2.54-36.26-10.65-42.89,3.23c-2.27,4.75-2.15,10.24-1.98,15.5c0.1,3.15,0.2,6.3,0.3,9.46c0.06,1.97,0.18,4.1,1.42,5.64
				c1.73,2.16,4.96,2.32,7.69,1.87c8.76-1.46,16.35-7.26,25.13-8.6c6.29-0.96,13.24,0.34,18.67-2.98c3.38-2.06,5.65-5.83,5.9-9.78
				C528.64,209.99,528.47,208.58,528.08,207.22z"/>
			<path class="st6" d="M420.86,209.71c-5.9-5.5-18.15-1.86-24.34,1.21c-3.78,1.88-13.61,10.22-9.45,15.43
				c3.73,4.66,19.44,2.28,24.26,1.51c3.4-0.54,6.94-1.44,9.44-3.8c2.96-2.8,3.91-7.51,2.27-11.23
				C422.49,211.57,421.75,210.54,420.86,209.71z"/>
			<path class="st6" d="M198.87,252.7c-4.48-6.04-23.57-3.87-28.2-3.04c-2.74,0.49-5.57,1.24-7.61,3.14
				c-2.04,1.9-2.95,5.26-1.33,7.53c1.59,2.23,4.72,2.52,7.46,2.61c5.37,0.17,10.74,0.34,16.11,0.52c2.92,0.09,5.9,0.18,8.67-0.76
				c2.76-0.94,5.29-3.13,5.77-6.01C199.99,255.06,199.65,253.75,198.87,252.7z"/>
			<path class="st6" d="M93.17,276.97c-0.3,1.24-0.66,2.34-1.14,3.27c-2.13,4.19-2.96,8.28-3.31,12.66
				c3.32-0.05,6.63-0.64,9.91-1.22c4.93-0.88,9.92-1.76,14.47-3.84c1.58-0.72,3.14-1.65,4.41-2.83c1-0.94,1.82-2.04,2.28-3.34
				C124.2,269.49,104.1,273.78,93.17,276.97z"/>
			<path class="st6" d="M628.97,270.34c-4.07-4.45-8.1-8.72-12.17-12.82c-1.58,0.4-3.11,0.96-4.54,1.74
				c-2.81,1.53-5.3,3.82-8.66,4.02c-3.37,0.21-6.8-1.28-10-2.18c-2.67-0.73-5.19-1.85-7.83-2.66c-4.54-1.39-8.66-2.89-13.31-1.01
				c-1.9,0.77-3.18,2.07-4.56,3.54c-2.07,2.2-4.37,4.15-6.84,5.9c-9.96,7.06-21.79,9.13-33.75,7.31c-2.88-0.43-5.83-0.84-8.63-1.6
				c-3.49-0.95-6.21-2.68-9.18-4.6c-2.06-1.34-4.27-2.57-6.45-3.72c-2.26-1.2-4.57-2.68-6.91-3.67c-6.25-2.61-14.67-4.13-19.46,1.71
				c-2.56,3.13-4.59,6.93-6.94,10.25c-1.56,2.21-2.7,4.52-3.93,6.9c-1.14,2.21-2.67,4.01-4.5,5.69c-2.84,2.6-6.4,3.27-10.15,3.44
				c-12.15,0.56-24.47-0.6-36.56-1.63c-6.07-0.52-12.04-1.34-18.15-1.47c-5.74-0.12-11.04,0.53-16.68,1.52
				c-11.16,1.96-21.62,6.66-32.28,10.37c-11.21,3.91-24.6,4.37-35.39-0.99c-2.4-1.2-4.97-1.98-7.38-3.17
				c-2.1-1.04-4.18-2.27-6.54-2.6c-4.17-0.59-7.45,2.69-10.56,5.01c-4.3,3.21-8.71,6.22-13.27,9.09c-4.92,3.1-10.73,6.44-16.55,7.28
				c-6.43,0.93-12.62-0.84-18.91-1.88c-5.78-0.94-11.39-2.57-17.12-3.75c-9.85-2.02-21.97-2.65-30.79,3.13
				c-4.13,2.7-7.75,6.27-10.68,10.21c-3.19,4.3-5.01,9.16-7.29,13.96c-1.09,2.31-2.6,4.51-4.68,6.01c-1.75,1.27-5.4,2.19-7.64,2.5
				c-5.83,0.78-11.35-1.51-17.1-1.59c-2.14-0.02-5.2-0.53-7.26,0.17c-2.59,0.87-3.4,3.51-6.55,3.62c-5.43,0.2-10.78-2.03-16.04-3.01
				c-3.6-0.67-7.06-0.59-9.81,2.07c-3.35,3.23-4.11,7.65-6.21,11.56c-0.17,0.3-0.34,0.58-0.55,0.85c0.1,0.51,0.21,1.01,0.31,1.52
				c0.68,3.42,2.04,6.73,3.79,9.92c1.92,3.5,4.28,6.86,6.7,10.07c1.84,2.45,3.71,4.81,5.45,7.07c1.99,2.6,3.95,5.08,5.76,7.32
				c1.53,1.89,2.94,3.59,4.16,5.06c0.33,0.4,0.65,0.78,0.96,1.15c0.61,0.72,1.16,1.37,1.62,1.92c0.03,0.03,0.06,0.07,0.09,0.1
				c1.1,1.3,1.75,2.04,1.76,2.05c0.23,0.13,3.15,1.86,5.91,3.45c0.65-0.17,1.29-0.33,1.94-0.48c6.15-1.51,12.4-2.46,18.51-4.1
				c2.43-0.65,4.95-0.99,7.36-1.75c2.92-0.92,5.96-1.47,8.86-2.45c5.46-1.84,10.77-4.22,15.95-6.71
				c11.09-5.31,22.82-8.74,34.52-12.4c11.13-3.49,22.87-5.43,34.38-7.19c6.27-0.96,12.58-1.79,18.84-2.81
				c6.29-1.04,12.48-2.48,18.82-3.29c5.94-0.76,11.77-2.05,17.75-2.64c5.98-0.6,12-1.44,17.96-2.22c12.37-1.61,24.85-2.32,37.2-4
				c24.02-3.26,48.15-5.34,72-9.9c12.55-2.38,25.18-4.26,37.68-6.82c12.85-2.63,25.67-5.34,38.54-7.87
				c25.17-4.94,50.76-6.96,75.96-11.55c24.12-4.37,48.63-6.25,72.66-11.27C651.71,295.17,640.32,282.76,628.97,270.34z"/>
			<path class="st6" d="M454.63,246.83c-3.42-4.73-11.08-0.1-15.5,2.32c-4.38,2.39-9.78,1.91-14.58,0.56
				c-4.8-1.36-9.39-3.51-14.31-4.34c-2-0.34-4.21-0.4-5.87,0.76c-2.2,1.55-2.6,4.7-2.06,7.34c1.19,5.9,5.75,10.48,10.24,14.49
				c3.11,2.78,6.44,5.55,10.48,6.61c4,1.05,8.22,0.3,12.29-0.46c2.27-0.42,4.6-0.87,6.54-2.13c2.13-1.38,3.55-3.57,5.17-5.52
				c2.09-2.53,4.57-4.73,6.46-7.4c1.89-2.68,3.18-6.04,2.42-9.23C455.61,248.56,455.18,247.58,454.63,246.83z"/>
			<path class="st6" d="M538.88,256.17c-0.17-0.43-0.38-0.84-0.61-1.23c-2.09-3.5-5.83-5.67-9.57-7.29
				c-7.41-3.21-20.37-7.73-27.86-2.46c-1.86,1.31-3.03,3.9-2,5.93c1.84,3.62,9.12,4.28,12.31,7.07c5.05,4.41,12.33,4.9,19.03,4.93
				c1.91,0.01,3.87-0.01,5.63-0.73c1.77-0.71,3.32-2.29,3.43-4.19C539.29,257.51,539.14,256.82,538.88,256.17z"/>
			<path class="st6" d="M560.29,240.54c-0.01-0.03-0.02-0.05-0.03-0.08c-0.41-1.15-1.56-1.85-2.65-2.4
				c-6.49-3.29-15.37-5.93-22.1-1.76c-1.59,0.99-3.14,2.76-2.55,4.54c0.64,1.96,3.21,2.31,5.27,2.48c4.65,0.38,9.23,1.6,13.45,3.58
				c1.01,0.48,2.06,1.01,3.17,0.94c1.66-0.11,2.92-1.5,3.94-2.82C559.79,243.72,560.79,242.09,560.29,240.54z"/>
			<path class="st6" d="M168.45,285.12c-2.94-0.4-5.99,0.29-8.72,1.49c-10.88,4.78-18.23,17.45-30.1,18.1
				c-5.51,0.3-11.7-2.04-16.18,1.18c-4.52,3.24-4.02,10.7-0.16,14.69c3.87,3.99,9.85,5.14,15.4,5.05
				c16.12-0.26,34.62-11.48,44.7-23.91c2.15-2.66,3.94-5.98,3.37-9.36c-0.57-3.41-3.57-6.1-6.92-6.97
				C169.38,285.27,168.91,285.18,168.45,285.12z"/>
			<path class="st6" d="M241.95,287.21c-0.34-2.6-2.9-4.35-5.15-5.32c-3.36-1.44-7.35-1.26-10.88-0.72
				c-7.34,1.12-20.59,6.73-6.71,11.83c3.48,1.28,7.33,1.7,11.03,1.54c2.84-0.12,6.13,0.25,8.77-1.03
				C241.43,292.34,242.29,289.79,241.95,287.21z"/>
			<path class="st7" d="M699.49,357.97c-1.45,0.21-2.92,0.3-4.33,0.27c-5.68-0.13-11.18-1.7-16.64-3.11
				c-5.61-1.44-11.25-2.53-17.01-3.01c-0.34-0.03-0.67-0.05-1.01-0.07c-10.59-0.78-21.2,0.09-31.68,1.58
				c-21.2,3.02-42.06,8.7-63.51,9.72c-10.7,0.51-20.99-0.63-31.45-2.75c-5.6-1.15-11.35-2.3-17.1-1.84
				c-6.43,0.51-11.06,3.68-16.35,6.99c-19.41,12.11-43.71-0.21-64.42-0.82c-11.98-0.36-22.59,3.88-33.32,8.72
				c-9.49,4.27-18.88,8.06-29.3,9.34c-11.79,1.45-23.7,0.52-35.53,0c-5.76-0.24-11.56-0.47-17.3-0.12c-3.37,0.22-6.83,0.72-9.9,2.23
				c-2.61,1.29-4.68,3.31-6.92,5.13c-7.46,6.07-16.2,6.02-25.33,4.81c-10.59-1.39-20.32-2.87-30.47,1.41
				c-8.42,3.54-15.9,9.09-24.59,12.02c-9,3.03-17.31,1.25-26.06-1.71c-4.89-1.65-9.81-3.47-14.99-3.92
				c-5.41-0.47-10.25,1.16-14.84,3.92c-5.41,3.26-10.3,7.01-16,8.48c-2.62,0.67-5.42,0.87-8.51,0.32c-1.38-0.25-2.76-0.58-4.12-1
				c-2.39-2.69-5.04-5.69-7.13-8.07c-2.18-2.49-3.78-4.32-3.91-4.48c-0.01-0.01-0.01-0.01-0.01-0.01s-0.65-0.74-1.75-2.04
				c-0.03-0.03-0.06-0.06-0.09-0.1c-0.46-0.55-1.01-1.2-1.62-1.92c-0.31-0.36-0.63-0.74-0.96-1.15c-1.22-1.47-2.63-3.17-4.16-5.06
				c-1.81-2.24-3.77-4.72-5.76-7.32c7.55-3.84,15.11-7.69,22.66-11.54c10.01-5.11,20.09-11.28,31.41-12.83
				c11.4-1.56,23.18,0.11,34.64,0.24c12.12,0.13,24.28-0.34,36.33-1.76c24.45-2.89,47.14-11.13,70.27-19.13
				c22.2-7.67,44.94-13.37,68.22-16.52c23.15-3.12,46.64-3.85,69.94-2.1c24.14,1.82,48.27,7.96,72.58,6.09
				c22.16-1.69,42.8-10.69,63.78-17.28c9.86-3.11,19.93-5.73,30.24-6.83c11.23-1.2,22.5-0.28,33.53,1.98
				c5.55,1.15,11.02,2.61,16.43,4.27c3.34,3.95,6.64,7.93,9.87,11.97c1.1,1.38,2.2,2.76,3.28,4.15c1.21,1.55,2.4,3.11,3.59,4.67
				c1.04,1.36,2.07,2.74,3.09,4.13c0.29,0.39,0.58,0.77,0.86,1.18c0.45,0.6,0.89,1.2,1.32,1.8c0.58,0.8,1.16,1.6,1.72,2.4
				c0.04,0.06,0.08,0.11,0.12,0.17c1.09,1.55,2.18,3.11,3.25,4.67C693.65,348.65,696.65,353.27,699.49,357.97z"/>
			<path class="st0" d="M685.44,336.88c-6.7-0.89-13.4-1.14-19.73,1.44c-2.31,0.94-4.34,2.5-6.79,3.07
				c-3.23,0.76-6.91,0.57-10.03-0.55c-1.45-0.52-3.1-1.82-4.68-1.06c-0.51,0.24-0.86,0.73-1.22,1.15c-1.3,1.52-2.26,2.57-4.4,3.03
				c-2.83,0.63-7.57,0.87-10.34,0c-1.5-0.47-3.14-1.75-4.79-1.24c-0.87,0.27-0.77,0.5-1.41,1.09c-1.83,1.71-2.28,2.64-4.99,2.56
				c-1.32-0.03-2.68-0.41-3.98-0.62c-1.5-0.23-3.17-0.98-4.66-1.02c-0.87-0.02-1.47,0.14-1.97,0.87c-0.68,1-0.22,2.15-1.29,3.11
				c-1.98,1.75-4.58,0.84-6.09-0.99c-2.07-2.52-1.9-7.82-6.59-5.41c-1.31,0.67-2.45,1.71-2.95,3.11c-0.3,0.86-0.25,1.7-0.35,2.6
				c-0.29,2.36-1.66,3.54-3.59,4.6c-1.37,0.75-2.83,1.58-4.4,1.82c-2.17,0.32-3.3-0.67-5.11-1.29c-1.98-0.67-3.72,1.35-5.63,1.45
				c-2.32,0.12-4.18-2.09-6.33-1.96c-0.28,0.02-0.47,0.17-0.72,0.26c-0.52,0.2-1.03,0.95-1.53,1.25c-1.34,0.8-3.26,1.16-4.8,0.79
				c-3.32-0.77-4.75-5.53-8.31-3.87c-3.06,1.43-6.9,1.02-10.15,0.26c-1.71-0.39-3.39-0.98-4.92-1.86c-1.36-0.78-2.48-1.98-3.9-2.67
				c-3.61-1.75-9.03-0.42-12.14,1.8c-1.55,1.1-3.02,2.5-4.02,4.12c-1.09,1.75-2.29,2.6-4.4,2.05c-1.23-0.32-2.31-0.76-3.6-0.78
				c-4.23-0.08-7.28,1.85-9.29,5.4c-0.61,1.09-0.97,1.94-2.17,2.37c-0.9,0.33-2.03,0.58-2.96,0.83c-2.99,0.8-6.48,0.23-9.57,0.3
				c-3.28,0.08-6.03-1.29-9.18-1.93c-0.42-0.09-0.86-0.13-1.27-0.22c-1.84-0.39,0.35,0.21-3.07-1.52c-0.42-0.22-0.55-0.37-1.19-0.54
				c-1.19-0.3-2.82-0.12-4.08-0.28c-1.6-0.2-3.09-0.46-4.63-0.87c-2.06-0.53-4.1-1.37-6.22-1.48c-3.37-0.15-6.47,0.29-9.77-0.79
				c-3.05-1-6.03-1.73-9.19-2.29c-2.51-0.44-4.88-0.36-7.41-0.5c-3.47-0.19-6.82-1.18-10.29-1.4c-3.03-0.2-6.19-0.29-9.23-0.09
				c-3.14,0.21-6.15,1.17-9.31,1.1c-6.24-0.1-12.37-0.01-18.59,0.36c-2.56,0.15-5.18,0.47-7.74,0.76c-2.17,0.24-4.26,0.82-6.14,1.95
				c-2.49,1.52-4.92,3.01-7.49,4.41c-2.76,1.5-5.67,2-8.68,2.72c-2.55,0.62-5.41,0.75-8.05,1.02c-3.11,0.3-6.34-0.44-9.41-0.02
				c-1.89,0.26-3.82,1.67-5.34,2.75c-0.83,0.59-1.35,1.34-2.1,1.99c-1.35,1.17-3.26,1.69-4.87,2.41c-1.79,0.82-3.29,1.53-5.3,1.67
				c-1.8,0.12-3.29-0.54-4.98-0.86c-1.98-0.37-3.22,0.27-4.79,1.51c-1.82,1.45-3.43,3.17-4.79,5.06c-2.17,3-3.91,6.56-8.09,6.66
				c-2.54,0.05-4.76-1.35-7.31-0.94c-1.34,0.22-2.53,0.99-3.84,1.23c-1.29,0.23-3.31-0.13-4.57-0.58c-1.97-0.69-2.83-3.02-4.76-3.61
				c-1.37-0.42-3.18,0.62-4.27,1.32c-0.87,0.57-1.7,1.84-2.6,2.2c-1.17,0.47-3.95-0.25-5.09-0.64c-0.57-0.19-1.17-0.5-1.69-0.74
				c-1.32-0.63-2.49-1.34-3.56-2.36c-0.74-0.71-1.37-1.6-2.31-2.09c-3.42-1.83-6.05,1.71-7.56,4.34c-2.34,4.06-6.13,6.88-10.58,3.82
				c-3.12-2.16-2.94-5.13-4.25-8.26c-1.24-2.95-3.71-2.94-5.57-0.55c-1.23,1.59-1.61,3.34-1.62,5.31c-0.02,2.86,1.72,7.13-0.17,9.55
				c-2.18,2.79-5.45,0.44-8.03,0.28c-2.33-0.14-3.86,1.91-5.68,2.95c-4.23,2.41-6.85-0.91-10.33-2.59c-0.97-0.47-1.97-0.75-2.79-1.5
				c-0.85-0.78-1.32-1.71-2.42-2.19c-2-0.87-4.52,0-6.49,0.5c-2.76,0.69-5.24,0.75-7.8,2.08c-4.81,2.52-7.54,6.38-11.32,10.13
				c-2.86,2.86-5.62,1.64-9.17,1.52c-1.76-0.06-2.9,0.73-4.2,1.85c-2.49,2.15-4.43,3.84-7.98,2.79c-2.38-0.7-3.83-2.23-6.37-2.2
				c-2.34,0.02-4.46,0.01-6.45,0.37c2.09,2.38,4.74,5.38,7.13,8.07c1.36,0.42,2.73,0.75,4.12,1c3.1,0.55,5.89,0.35,8.51-0.32
				c5.71-1.48,10.6-5.22,16-8.48c4.59-2.77,9.43-4.4,14.84-3.92c5.18,0.45,10.1,2.27,14.99,3.92c8.75,2.96,17.07,4.75,26.06,1.71
				c8.69-2.93,16.17-8.48,24.59-12.02c10.15-4.28,19.88-2.81,30.47-1.41c9.13,1.21,17.87,1.26,25.33-4.81
				c2.24-1.82,4.31-3.84,6.92-5.13c3.06-1.51,6.52-2.01,9.9-2.23c5.75-0.35,11.55-0.11,17.3,0.12c11.82,0.52,23.73,1.45,35.53,0
				c10.42-1.28,19.81-5.07,29.3-9.34c10.73-4.84,21.34-9.08,33.32-8.72c20.71,0.61,45.01,12.93,64.42,0.82
				c5.29-3.3,9.93-6.48,16.35-6.99c5.75-0.46,11.49,0.69,17.1,1.84c10.46,2.13,20.75,3.26,31.45,2.75
				c21.45-1.02,42.3-6.7,63.51-9.72c10.47-1.49,21.09-2.36,31.68-1.58c0.34,0.02,0.67,0.04,1.01,0.07
				c5.77,0.48,11.4,1.57,17.01,3.01c5.46,1.4,10.97,2.97,16.64,3.11c1.41,0.03,2.88-0.06,4.33-0.27
				C695.11,350.74,690.39,343.72,685.44,336.88z"/>
			<path class="st7" d="M150.73,350.38c-1.94-2.77-7.99-0.52-10.33,0.44c-5.36,2.19-10.04,5.54-15.8,6.73
				c-5.89,1.21-11.42,2.03-16.76,5c-2.37,1.33-4.57,2.9-6.58,4.71c1.92,3.5,4.28,6.86,6.7,10.07c2.92-2.62,5.76-5.29,9.24-7.29
				c5.21-2.99,10.96-4.9,16.72-6.53c4.53-1.28,9.42-2.3,13.26-5.17C149.22,356.81,152.68,353.17,150.73,350.38z"/>
			<path class="st7" d="M189.95,347.61c-0.14-0.53-0.58-0.94-1.01-1.29c-7.16-5.83-17.46-3.18-25.29-0.34
				c-1.11,0.4-2.26,0.85-3.1,1.68c-0.84,0.83-1.31,2.16-0.81,3.23c0.47,1,1.65,1.51,2.76,1.54c1.11,0.04,2.19-0.3,3.28-0.52
				c3.73-0.77,7.58-0.29,11.38-0.09c3.8,0.2,7.79,0.08,11.14-1.74c0.9-0.49,1.85-1.34,1.67-2.36
				C189.97,347.69,189.96,347.65,189.95,347.61z"/>
			<path class="st7" d="M159.88,337.98c-1.47-1.74-4.57-0.79-6.29,0.06c-1.92,0.95-4.63,4.5-0.9,4.94c1.64,0.19,3.41,0.04,4.95-0.57
				C159.25,341.77,161.41,339.78,159.88,337.98z"/>
			<path class="st7" d="M258.06,338.84c-1.07-1.23-4.08-1.29-6.1-1.26c-4.7,0.07-9.45-0.08-14.02-1.28c-3.1-0.81-6.1-2.1-9.28-2.4
				c-6.6-0.63-12.86,2.98-19.45,3.63c-1.69,0.17-3.41,0.14-5.06,0.57c-1.48,0.38-4.62,2.02-4.01,4.08c0.16,0.56,0.67,0.93,1.12,1.29
				c2.25,1.84,2.5,4.47,4.25,6.53c1.2,1.42,3.32,1.71,5.14,1.32c1.82-0.39,3.46-1.33,5.19-2.03c6.67-2.71,14.18-1.65,21.37-1.35
				c4.22,0.18,8.59,0.02,12.64-1.29c2.6-0.84,6.23-2.29,7.81-4.65C258.65,340.5,258.64,339.51,258.06,338.84z"/>
			<path class="st7" d="M271.74,328.25c-0.28-0.52-0.67-0.99-1.12-1.36c-5.73-4.67-18.64-1.89-24.99-0.07
				c-1.1,0.31-2.22,0.69-3.05,1.47c-0.83,0.78-1.27,2.09-0.75,3.1c0.84,1.61,3.16,1.36,4.98,1.29c3.64-0.15,7.12,1.36,10.72,1.97
				c3.61,0.61,7.36,0.3,10.82-0.91c1.64-0.57,3.4-1.56,3.76-3.27C272.28,329.72,272.11,328.94,271.74,328.25z"/>
			<path class="st7" d="M291.01,333.99c0.29-0.26,0.18-0.89-0.33-0.92c-0.14-0.01-0.28-0.01-0.42-0.02
				c-1.15-1.24-2.65-2.32-3.52-2.91c-0.55-0.37-1.07,0.52-0.52,0.89c0.83,0.56,1.78,1.21,2.56,1.97c-4.05,0.02-8.04,1.04-11.56,3.14
				c-1.02,0.61-2.68,1.56-2.59,2.97c0.1,1.57,2.09,1.9,3.3,2.08c2.29,0.35,4.62-0.07,6.8-0.74c1.89-0.58,4.47-1.28,6.06-2.52
				C292.27,336.79,291.96,335.35,291.01,333.99z"/>
			<path class="st7" d="M236.27,317.13c-1.06-1.3-3.66-1.27-4.96-0.02c-0.89,0.86-1.39,2.06-1.69,3.26
				c-0.05,0.19-0.09,0.4-0.01,0.58c0.1,0.2,0.32,0.3,0.53,0.37c1.23,0.44,2.58,0.69,3.84,0.38c1.27-0.31,2.43-1.28,2.69-2.56
				C236.85,318.29,236.66,317.62,236.27,317.13z"/>
			<path class="st7" d="M458.33,307.32c-1.27-0.81-2.82-1.14-4.33-1.28c-5.17-0.47-10.4,1.02-15.53,0.25
				c-5.08-0.76-9.54-3.62-14.57-4.55c-5.28-0.98-11.2,0.04-16.21,1.79c0.32-0.47,0.25-1.16-0.15-1.55
				c-1.26,1.99-3.26,3.51-5.51,4.19c-0.56,0.17-1.3,0.66-0.95,1.14c0.24,0.34,0.76,0.18,1.13,0c1.17-0.59,2.35-1.17,3.52-1.76
				c-0.22,1.76-0.43,3.64,0.4,5.21c1.37,2.61,4.85,3.14,7.79,2.99c6.88-0.33,13.61-2.59,20.49-2.39c6.24,0.18,12.23,2.35,18.39,3.38
				c1.45,0.24,2.95,0.42,4.39,0.08c1.43-0.34,2.8-1.3,3.25-2.7c0.52-1.62-0.32-3.45-1.66-4.5
				C458.64,307.53,458.49,307.42,458.33,307.32z"/>
			<path class="st7" d="M469.44,296.9c-0.4-2.62-3.15-3.29-5.39-3.42c-4.02-0.24-8.2-0.12-12.21,0.22c-3.5,0.3-7.76,0.65-10.89,2.37
				c-1.47,0.81-2.92,2.69-1.78,4.37c2.45,3.6,11.98,0,15.43-0.46c2.42-0.32,4.83-0.79,7.27-0.51c1.54,0.18,3.13,0.88,4.71,0.7
				C468.33,299.97,469.72,298.75,469.44,296.9z"/>
			<path class="st7" d="M512.45,311.43c-1.99-2.51-5.2-3.66-8.28-4.05c-8.08-1.03-15.38,1.79-23.46-1.08
				c-1.05-0.37-2.1-0.81-3.21-0.95c-3.18-0.4-5.05,2.52-5.25,5.39c-0.26,3.68,2.23,3,4.7,4.65c2.98,2,4.86,3.9,8.72,3.33
				c2.22-0.33,4.32-1.22,6.55-1.52c2.82-0.39,5.31,0.66,8.02,1.18c3.67,0.7,8.16,0.54,11.53-1.24
				C514.34,315.78,514.11,313.53,512.45,311.43z"/>
			<path class="st7" d="M493.37,296.48c-1.46-0.43-5.16,1.38-5.29,3.06c-0.23,3.08,5.48,2.43,6.78,0.72
				C496.01,298.76,495.03,296.97,493.37,296.48z"/>
			<path class="st7" d="M562.86,303.62c-0.05-0.16-0.13-0.31-0.24-0.45c-0.33-0.43-0.88-0.63-1.4-0.78
				c-7.61-2.25-15.55,1.64-22.75,3.85c-2.35,0.72-4.73,1.46-6.91,2.62c-1.35,0.72-3.48,2.14-4.23,3.51
				c-1.41,2.58,2.79,2.52,4.64,2.64c2.8,0.18,5.62-0.41,8.27-1.29c4.22-1.41,8.2-3.55,12.52-4.61c2.92-0.72,6.07-0.98,8.57-2.65
				C562.29,305.83,563.16,304.62,562.86,303.62z"/>
			<path class="st7" d="M538.42,294.8c-6.84-5.56-20.16,8.73-9.1,7.68c2.13-0.2,4.21-0.83,6.08-1.87
				C536.94,299.75,540.9,296.82,538.42,294.8z"/>
			<path class="st7" d="M546.03,286.03c-1.6-0.33-3.28,0-4.63,0.92c-1.77,1.21-1.3,2.41,0.73,2.48c1.83,0.06,3.6-1.05,4.26-2.77
				C546.49,286.42,546.29,286.09,546.03,286.03z"/>
			<path class="st7" d="M621.48,288.67c-0.08-0.24-0.21-0.45-0.4-0.64c-0.33-0.32-0.77-0.47-1.21-0.61
				c-9.23-3.01-24.41-6.44-32.08,1.55c-0.64,0.66-1.23,1.41-2.06,1.81c-1.1,0.54-2.39,0.39-3.62,0.36
				c-3.88-0.1-8.07,1.37-10.02,4.72c-0.62,1.06-0.98,2.39-0.49,3.53c0.47,1.09,1.64,1.75,2.81,1.9c1.17,0.15,2.36-0.12,3.5-0.45
				c3.14-0.91,6.15-2.25,9.32-3.04c7.94-1.97,16.38-0.35,24.43-1.84c3.27-0.61,6.59-1.82,8.82-4.29
				C621.22,290.86,621.79,289.62,621.48,288.67z"/>
			<path class="st7" d="M612.79,275.16c-0.24-0.96-1.23-1.59-2.19-1.9c-0.4-0.13-0.82-0.24-1.11-0.54c-0.28-0.29-0.39-0.72-0.69-1
				c-0.42-0.4-1.08-0.37-1.66-0.31c-3.35,0.34-6.75,0.65-9.98,1.65c-1.6,0.49-3.15,1.14-4.57,2.03c-0.58,0.36-1.87,1.38-2.05,2.05
				c-0.39,1.45,1.39,1.3,2.83,1.63c5.16,1.2,10.57,0.61,15.72-0.34c0.89-0.16,1.8-0.35,2.56-0.85c0.76-0.5,1.32-1.39,1.17-2.28
				C612.81,275.25,612.8,275.21,612.79,275.16z"/>
			<path class="st7" d="M578.72,278.92c-0.27-0.12-0.55-0.2-0.82-0.26c-0.08-0.12-0.21-0.21-0.39-0.22
				c-7.01-0.44-13.18,2.85-17.15,8.55c-1.12,1.61-2.31,3.4-3.1,5.18c-0.31,0.71-0.72,1.6-0.29,2.36c1.02,1.77,4.42-0.31,5.63-0.79
				c3.63-1.44,6.4-4.33,10.04-5.55c2.65-0.89,6.54-1.82,7.98-4.54C581.65,281.69,580.65,279.74,578.72,278.92z"/>
			<path class="st0" d="M162.14,382.86c-1.52-2.49-4.37-4-7.27-4.48c-3.18-0.53-6.95-0.48-10.03,0.54
				c-3.41,1.13-4.17,3.17-3.93,6.51c0.19,2.63,0.31,5.32-0.21,7.93c-0.43,2.13-3.01,5.51-1.38,7.54c1.76,2.19,5.73,2.93,7.81,0.82
				c1.2-1.21,1.58-2.97,2.16-4.57c1.99-5.45,7.38-3.02,11.35-5.6c2.59-1.69,3.17-5.54,1.73-8.28
				C162.3,383.13,162.22,382.99,162.14,382.86z"/>
			<path class="st0" d="M171.63,380.73c-0.91-1.07-2.75-3.31-4.38-2.43c-2.85,1.55,0.45,4.85,1.29,6.39
				c0.48,0.88,1.36,2.55,2.64,2.35c0.94-0.15,1.33-1.46,1.46-2.25C172.88,383.29,172.62,381.9,171.63,380.73z"/>
			<path class="st0" d="M212.28,379.94c-0.44-2.16-5.17-1.15-6.64-1.14c-3.75,0.02-7.34-1.28-10.72-2.79c-2.93-1.3-6-3.78-9.33-3.44
				c-5.08,0.52-7.21,6.04-1.43,7.7c3.59,1.03,7.66,0.21,10.28,3.36c1.51,1.82,3.31,4.28,5.97,3.98c2.61-0.29,5.86-1.52,8.11-2.88
				C209.81,383.96,212.66,381.81,212.28,379.94z"/>
			<path class="st0" d="M242.47,372.02c-0.78-4.12-7.87-2.04-9.36,0.23c-0.26,0.39-0.42,0.72-0.39,1.2c0,0.04,0.01,0.07,0.02,0.11
				c-0.16,2.41,1.7,4.02,4.15,3.68C239.22,376.9,243.02,374.9,242.47,372.02z"/>
			<path class="st0" d="M297.16,363.78c-1.02-0.62-2.41-0.61-4.03,0.54c-1.45,1.04-2.41,2.61-3.67,3.89
				c-4.86,4.95-11.67,3.24-17.55,1.55c-2.26-0.65-4.42-1.06-6.74-1.37c-1.67-0.22-3.88-0.55-5.47,0.14
				c-1.56,0.68-3.44,2.42-2.57,4.31c0.51,1.11,1.99,1.48,2.99,1.99c2.76,1.41,5.41,0.29,8.3,0.75c3.27,0.51,6.08,1.86,9.43,1.95
				c3.48,0.09,6.83-0.59,10.2-1.45c3.36-0.86,7.13-2.57,9.52-5.16C299.68,368.63,299.14,365,297.16,363.78z"/>
			<path class="st0" d="M132.36,390.22c-2.03-2.8-10.44-0.39-13.19,1.5c1.53,1.89,2.94,3.59,4.16,5.06c0.33,0.4,0.65,0.78,0.96,1.15
				c0.61,0.72,1.16,1.37,1.62,1.92c0.03,0.03,0.06,0.07,0.08,0.1H126c1.86-1.09,3.88-1.87,5.22-3.74
				C132.38,394.59,133.74,392.13,132.36,390.22z"/>
			<path class="st0" d="M541.41,338.2c-2.21-0.19-4.27,0.2-5.35,1.8c-0.92,1.35-0.81,3.31,0.25,4.56c1.24,1.45,3.37,1.76,5.27,1.57
				c1.9-0.19,3.76-0.77,5.67-0.69c1.33,0.06,2.91,0.34,3.76-0.68c0.62-0.74,0.51-1.89-0.03-2.7c-0.54-0.8-1.41-1.31-2.27-1.74
				C547.08,339.54,544.13,338.43,541.41,338.2z"/>
			<path class="st0" d="M560.31,341.93c-1.12-0.14-2.34,0.09-3.23,0.65c-0.58,0.36-0.77,0.89-0.84,1.48
				c-0.19,0.1-0.33,0.3-0.28,0.57c0.31,1.56,2.33,2.33,3.73,2.58c1.42,0.26,3.15-0.24,3.46-1.83
				C563.55,343.25,562.06,342.14,560.31,341.93z"/>
			<path class="st0" d="M600.24,331.49c-0.84-0.31-1.75-0.45-2.64-0.52c-3.58-0.29-7.24,0.38-10.48,1.91
				c-3.84,1.81-8.39,1.06-12.25,2.79c-8,3.58-2,14.39,5.52,7.47c2.03-1.87,3.73-4.26,6.29-5.29c4.09-1.65,8.74,0.75,13.11,0.13
				c1.15-0.16,2.36-0.6,2.96-1.6c0.78-1.28,0.2-3.06-0.95-4.02C601.34,331.98,600.81,331.7,600.24,331.49z"/>
			<path class="st0" d="M619.86,332.71c-2.71-1.79-7.87-2.2-10.71-0.53c-2.59,1.52-0.85,4.53,1.73,4.58c0.17,0,0.3-0.06,0.38-0.16
				c1.46,0.84,3.72,0.78,5.24,0.6C618.76,336.92,623.18,334.91,619.86,332.71z"/>
			<path class="st0" d="M651.6,321.25c-1.18-0.96-2.18-0.58-3.52-1.09c-0.19-0.07-0.34-0.02-0.45,0.08c-3.01-0.56-5.81-0.88-9,0.17
				c-1.19,0.39-3.16,0.97-3.95,1.98c-0.38,0.48-0.44,0.86-0.58,1.44c-0.34,1.36-0.53,2.71-0.92,4.07c-0.5,1.72-1.42,3.03-2.72,4.22
				c-1.05,0.96-4.21,1.8-4.26,3.52c-0.04,1.56,1.78,1.39,2.8,1.54c1.79,0.25,3.42,0.42,5.12-0.32c1.23-0.53,2.84-1.15,3.83-2.1
				c1.88-1.8,1.86-3.46,5.09-3.53c2.12-0.04,3.58,0.9,5.65,0.14c3.04-1.12,4.91-3.33,4.67-6.72
				C653.26,323.23,652.72,322.16,651.6,321.25z"/>
			<path class="st0" d="M521.52,340.14c-0.19-0.17-0.42-0.29-0.66-0.36c-2.44-0.63-6.02,0.95-8.1,2.03
				c-0.63,0.33-1.27,0.72-1.64,1.33c-0.37,0.61-0.37,1.5,0.17,1.96c0.56,0.47,1.4,0.32,2.1,0.12c2.46-0.69,4.86-1.61,7.16-2.74
				c0.66-0.32,1.4-0.81,1.38-1.54C521.92,340.62,521.76,340.35,521.52,340.14z"/>
		</g>
		<g>
			<g>
				<path class="st8" d="M702.2,350.77c-7.89-9.6-14.87-20.65-23.39-29.7c-8.77-9.31-11.93-14.48-19.98-24.44
					c-14.98-18.53-25.53-40.07-39.16-59.52c-7.03-10.03-14.85-19.47-21.96-29.44c-7.34-10.29-13.26-21.26-18.65-32.68
					c-12.78-27.1-25.38-54.28-38.07-81.42c-0.09-0.19-0.28-0.39-0.52-0.35c-3.85,0.65-6.6,3.51-7.85,7.14
					c-1.9,5.52,0.33,11.41,2.23,16.6c4.77,13.03,9.55,26.05,14.32,39.08c2.36,6.43,4.72,12.86,7.07,19.3
					c2.02,5.5,3.79,11.22,6.62,16.38c2.93,5.34,7.89,8.98,10.99,14.17c3.17,5.3,4.98,11.37,7.45,17.01
					c10.36,23.68,24.92,45.5,38.22,67.57c13,21.57,26.02,42.99,43.2,61.54c4.82,5.2,9.74,10.32,14.15,15.89
					c4.2,5.31,7.35,11.31,11.45,16.68c7.08,9.25,33.12,20.27,33.12,20.27S708.87,358.9,702.2,350.77z"/>
				<path class="st9" d="M597.45,215.27c-4.79,0.18-9.35-0.78-13.65-2.9c-0.59-0.29-1.12,0.6-0.52,0.89
					c4.46,2.2,9.2,3.23,14.17,3.04C598.11,216.27,598.12,215.24,597.45,215.27z"/>
				<path class="st9" d="M596.92,222.69c-3.65-0.03-7.03-0.99-10.15-2.88c-0.57-0.35-1.09,0.55-0.52,0.89
					c3.26,1.98,6.85,3,10.67,3.02C597.58,223.72,597.58,222.69,596.92,222.69z"/>
				<path class="st9" d="M571.31,171.82c-1.3,4.07-4.23,7.27-8.14,8.98c-0.61,0.27-0.08,1.16,0.52,0.89
					c4.15-1.82,7.23-5.29,8.61-9.6C572.51,171.47,571.51,171.19,571.31,171.82z"/>
				<path class="st9" d="M615.13,238.79c-6.74-1.35-15.9,2.38-20.99-3.76c-0.42-0.51-1.15,0.22-0.73,0.73
					c5.31,6.41,14.48,2.62,21.45,4.02C615.5,239.91,615.78,238.92,615.13,238.79z"/>
				<path class="st9" d="M612.42,249.24c-4.53,0.47-8.95,0.01-13.29-1.4c-0.63-0.21-0.9,0.79-0.27,1c4.42,1.44,8.94,1.92,13.56,1.44
					C613.07,250.2,613.08,249.17,612.42,249.24z"/>
				<path class="st9" d="M629.34,262.85c-6.34,1-12.69,0.77-18.94-0.68c-0.65-0.15-0.92,0.84-0.27,0.99
					c6.44,1.49,12.97,1.72,19.49,0.68C630.26,263.74,629.99,262.75,629.34,262.85z"/>
				<path class="st9" d="M664.41,311.79c-7,2.18-14.23,3-21.54,2.46c-0.66-0.05-0.66,0.98,0,1.03c7.4,0.55,14.73-0.29,21.81-2.5
					C665.32,312.59,665.05,311.59,664.41,311.79z"/>
				<path class="st9" d="M675.35,321.86c-5.83,2.2-11.84,3.69-18.03,4.43c-0.65,0.08-0.66,1.11,0,1.03
					c6.28-0.75,12.38-2.23,18.3-4.47C676.24,322.62,675.97,321.63,675.35,321.86z"/>
				<path class="st9" d="M633.68,269.83c-2.14,5.67-5.77,10.55-10.59,14.22c-0.52,0.4-0.01,1.29,0.52,0.89
					c5.06-3.85,8.82-8.88,11.07-14.84C634.91,269.49,633.91,269.22,633.68,269.83z"/>
				<path class="st9" d="M652.65,299.56c-1.19,2.42-2.81,4.52-4.86,6.28c-0.51,0.43,0.23,1.16,0.73,0.73
					c2.11-1.81,3.8-3.99,5.02-6.49C653.83,299.49,652.94,298.96,652.65,299.56z"/>
				<path class="st9" d="M683.09,339.07c-0.16,4.71-2.7,8.88-6.79,11.21c-0.58,0.33-0.06,1.22,0.52,0.89
					c4.42-2.52,7.13-7.02,7.3-12.1C684.15,338.41,683.11,338.41,683.09,339.07z"/>
				<path class="st9" d="M705.92,368.58c-5.12,4.25-11.17,6.94-17.75,7.94c-0.65,0.1-0.38,1.09,0.27,0.99
					c6.76-1.03,12.94-3.84,18.2-8.2C707.16,368.89,706.42,368.16,705.92,368.58z"/>
				<path class="st9" d="M578.53,188.85c-2.14,1.11-4.48,1.37-6.82,0.79c-0.64-0.16-0.92,0.84-0.27,0.99
					c2.61,0.65,5.22,0.34,7.61-0.9C579.64,189.44,579.12,188.55,578.53,188.85z"/>
			</g>
			<g>
				<path class="st10" d="M541.88,120.97c-1.28,11.59-4.91,22.8-10.63,32.97c-0.2,0.36-0.75,0.17-0.83-0.19l-0.82-4.44
					c-6.91,11.95-13.84,23.91-20.75,35.86c-0.21,0.36-0.74,0.17-0.83-0.19c-0.87-3.87-1.05-7.77-0.54-11.67
					c-3.5,4.76-7,9.5-10.5,14.26c-3.02,4.11-5.88,8.79-9.94,12c-1.53,1.21-3.27,2.18-5.18,2.62c-1.39,0.33-2.87,0.25-4.22,0.74
					c-1.76,0.65-2.7,2.14-3.78,3.57c-2.98,4-6.23,7.79-9.74,11.33c-6.54,6.61-13.96,12.37-22,17.07c-2.13,1.25-4.3,2.42-6.52,3.52
					c-0.9,0.44-2.64,1.79-3.8,1.24c-0.05-0.02-0.09-0.04-0.14-0.07c-0.31-0.19-0.5-0.45-0.6-0.77c-0.28-0.79-0.04-1.85,0.1-2.56
					c0.46-2.28,1.07-4.54,1.76-6.76c1.61-5.15,4.02-9.88,6.11-14.83c1.17-2.74,2.12-5.58,2.36-8.56c0.19-2.19,0.1-4.29,1.01-6.35
					c2.03-4.58,5.47-8.84,8.28-12.98c2.94-4.35,5.96-8.65,9.07-12.89c-3.44,1.11-6.95,1.91-10.6,2.14
					c-0.36,0.02-0.74-0.37-0.45-0.71c9.16-10.69,28.76-32.08,27.81-33.52c-3.02,1.31-5.99,2.72-8.91,4.25
					c-0.41,0.21-0.85-0.32-0.57-0.68c4.01-5.15,8.54-9.81,13.55-13.98c1.63-1.75,3.45-3.35,5.27-4.84
					c15.68-12.74,33.08-23.69,50.83-33.36c0.12-0.02,0.25-0.06,0.37-0.15c1.85-1.45,2.99,0.01,3.71,2.29
					c0.94,2.98,1.17,7.35,1.26,8.44C542.56,109.49,542.51,115.25,541.88,120.97z"/>
				<path class="st11" d="M534.81,102.21c-0.61,2.51-2.19,4.28-4.07,5.97c-2.48,2.24-4.74,4.29-6.55,7.16
					c-3.12,4.94-5.24,10.46-9.85,14.29c-4.53,3.74-10.12,5.96-13.56,10.94c-3.29,4.76-5.47,10.16-8.83,14.91
					c-7.21,10.16-15.65,19.1-21.35,30.28c-2.7,5.29-5.15,10.74-8.31,15.78c-3.16,5.05-7.18,9.14-11.5,13.19
					c-7.82,7.33-13.63,15.86-18.95,24.93c-0.05-0.02-0.09-0.04-0.14-0.07c-0.31-0.19-0.5-0.45-0.6-0.77
					c2.24-3.9,4.59-7.75,7.19-11.43c3.92-5.56,8.51-10.3,13.45-14.94c4.66-4.4,8.51-9.16,11.64-14.77c2.9-5.2,5.29-10.68,8.15-15.9
					c5.86-10.68,14.61-19.23,21.28-29.37c3.07-4.65,4.98-10.28,8.71-14.47c3.76-4.21,9.23-6.24,13.29-10.09
					c4.01-3.82,5.92-9.14,8.93-13.69c1.45-2.2,3.2-4,5.18-5.74c2.1-1.84,4.21-3.63,4.91-6.48
					C533.97,101.29,534.96,101.57,534.81,102.21z"/>
			</g>
			<g>
				<path class="st10" d="M704.02,154.89c-0.17-0.27-0.34-0.54-0.52-0.8c-7.71-12.19-16.84-23.39-27.22-33.42
					c1.41-0.59,2.83-1.02,4.33-1.3c0.45-0.08,0.48-0.73,0.12-0.95c-12.37-7.2-25.83-12.3-39.86-15.11c0.67-0.23,1.35-0.44,2.02-0.67
					c0.51-0.17,0.47-0.82,0-0.99c-19-7.05-38.36-13.02-58.01-17.93c0.36-0.27,0.27-0.96-0.28-0.93l-2.77,0.17
					c-0.21-0.05-0.41-0.1-0.62-0.15c-0.25-0.06-0.44,0.05-0.55,0.23c-8.08,0.49-16.16,0.96-24.24,1.44
					c-8.77,0.53-18.02,0.31-26.5,2.88c-0.31,0.09-0.47,0.46-0.31,0.76c11.15,18.7,31.18,29.03,50.12,38.22
					c0.35,0.18,0.76-0.03,0.77-0.44c0.04-0.97,0.07-1.95,0.11-2.93c8.47,5.26,17.5,9.49,26.96,12.62c0.42,0.13,0.69-0.28,0.64-0.63
					c-0.24-1.72-0.46-3.45-0.7-5.16c6.87,3.27,13.73,6.54,20.61,9.81c0.43,0.2,0.83-0.13,0.75-0.59c-0.11-0.74-0.23-1.49-0.34-2.23
					c10.61,5.53,21.5,10.44,32.67,14.73c0.4,0.15,0.69-0.29,0.64-0.64c-0.23-1.35-0.45-2.7-0.68-4.04
					c14.08,2.94,28.17,5.88,42.25,8.82c0.13,0.03,0.27,0,0.38-0.07C704.06,155.44,704.2,155.15,704.02,154.89z"/>
				<path class="st11" d="M703.83,155.58c-8.09-5.9-16.76-11.01-25.88-15.18c-5.63-2.58-11.47-4.58-17.17-6.98
					c-5.47-2.29-10.61-5.23-15.86-7.93c-11.46-5.9-23.87-9.86-35.94-14.28c-11.92-4.36-23.8-8.88-35.95-12.6
					c-12.44-3.8-25.18-6.49-38.09-8.03c-0.65-0.07-0.65-1.11,0-1.03c14.36,1.71,28.45,4.86,42.21,9.27
					c12.55,4.02,24.86,8.75,37.23,13.27c11.76,4.3,23.45,8.45,34.53,14.34c5.98,3.17,11.99,6.03,18.31,8.44
					c5.36,2.05,10.62,4.23,15.75,6.79c7.17,3.58,14.03,7.75,20.53,12.42c0.18,0.27,0.35,0.54,0.52,0.8
					C704.2,155.15,704.06,155.44,703.83,155.58z"/>
			</g>
			<g>
				<path class="st12" d="M539.92,91.25c-0.21,4.91-4.83,11.26-8.09,13.15c-2.57,1.48-5.68,2.13-8.47,3.01c-3.13,1-6.25,2-9.39,3
					c-12.79,4.1-25.7,8.77-39.26,9.23c-0.41,0.02-0.63-0.44-0.45-0.77c0.71-1.34,1.42-2.69,2.14-4.03
					c-14.54,6.24-29.36,11.81-44.42,16.67c-0.4,0.13-0.85-0.39-0.58-0.75c1.62-2.26,3.25-4.52,4.88-6.78
					c-10.23,4.03-20.46,8.06-30.69,12.09c-10.03,3.95-20.23,8.32-31.22,8.04c-0.4-0.01-0.62-0.42-0.44-0.77
					c1.42-2.73,2.28-5.57,2.63-8.61c-22.09,3.28-44.42,4.79-66.76,4.47c-0.06,0-0.12-0.01-0.18-0.04c-0.31-0.13-0.5-0.59-0.19-0.84
					l0.56-0.43c22.84-17.9,49.05-30.62,75.39-42.49c-3.27-1.74-6.61-3.34-10.03-4.77c-0.43-0.19-0.54-0.86,0-1
					c17.92-4.74,36.02-8.81,54.25-12.2c9.03-1.67,18.1-3.18,27.19-4.51c2.31-0.34,4.62-0.67,6.94-0.98
					c1.68-0.24,4.93-0.08,6.26-0.93c3.24-2.05-0.32-3.19-1.67-4.28c-0.65-0.55-1.08-1.09-1.4-1.88c-0.17-0.39,0.29-0.7,0.63-0.64
					c14.12,2.94,28.24,6.07,42.11,10.01c8.02,2.28,15.95,5.08,23.24,9.19c1.94,1.08,4.52,2.23,5.95,4.06
					c0.62,0.78,0.94,1.71,1.04,2.73C539.93,90.54,539.94,90.89,539.92,91.25z"/>
				<path class="st10" d="M543.12,91.95c-0.34,0-0.5-0.27-0.5-0.54c-0.05,0.02-0.12,0.03-0.21,0.03c-0.84-0.07-1.66-0.13-2.5-0.2
					c-9.42-0.76-18.86-1.26-28.31-1.45c-5.01-0.11-10.03-0.17-15.04-0.09c-4.4,0.06-9.5,0.29-12.94,3.43
					c-2.24,2.04-3.27,4.25-6.53,4.73c-4.3,0.63-8.81,0.45-13.16,0.7c-9.19,0.54-18.28,1.59-27.19,4.02
					c-8.64,2.37-17.09,4.89-25.95,6.32c-8.77,1.42-17.55,2.59-26.22,4.6c-17,3.93-33.43,9.92-49.72,16.08
					c-8.42,3.18-16.83,6.38-25.24,9.58c-0.31-0.13-0.5-0.59-0.19-0.84l0.56-0.43c10.33-3.93,20.66-7.85,31.01-11.71
					c16.62-6.18,33.49-11.95,50.94-15.28c8.77-1.67,17.65-2.58,26.39-4.41c8.72-1.84,17.09-5.02,25.84-6.74
					c8.47-1.65,17.11-2.13,25.71-2.53c2.35-0.11,4.81-0.04,7.13-0.42c2.75-0.45,3.62-2.07,5.36-3.88c2.18-2.27,5.19-3.35,8.24-3.84
					c3.59-0.56,7.27-0.43,10.89-0.43c4.55,0,9.1,0.07,13.66,0.21c8.25,0.24,16.51,0.69,24.74,1.35c0.85,0.06,1.68,0.13,2.52,0.21
					c0.33,0.02,0.5,0.29,0.5,0.55c0.06-0.02,0.13-0.04,0.21-0.04C543.79,90.92,543.79,91.95,543.12,91.95z"/>
			</g>
			<g>
				<path class="st12" d="M650.7,216.74c-2.8-5.13-5.63-10.24-8.45-15.36c-5.47-9.95-10.94-19.9-16.42-29.86
					c5.07,0.63,10.13,0.61,15.21-0.07c0.43-0.05,0.54-0.72,0.17-0.93c-15.83-8.98-34.56-26.09-34.56-26.09s3.61-2.29,11.12-5.97
					c0.31-0.15,0.4-0.72,0.04-0.89c-15.43-7.35-30.23-15.95-44.19-25.79c-13.3-9.36-26.16-20.07-42.1-24.55
					c-0.3-0.08-0.68,0.12-0.67,0.47c0.06,2.16,0.24,4.3,0.51,6.43c-0.15,0.12-0.26,0.32-0.21,0.53c0.24,0.95,0.47,1.9,0.71,2.86
					c0.56,3.05,1.35,6.06,2.34,9c6.8,25.33,15.9,50.79,34.89,69.5c0.36,0.36,0.99,0.06,0.89-0.46c-0.48-2.35-0.98-4.71-1.47-7.06
					c0.09,0.42,1.4,1.25,1.74,1.55c0.68,0.61,1.36,1.22,2.04,1.83c1.32,1.17,2.62,2.34,3.93,3.52c2.62,2.35,5.22,4.73,7.82,7.1
					c5.19,4.76,10.34,9.55,15.45,14.39c1.84,1.74,3.66,3.49,5.5,5.24c0.54,0.53,4.59,5.04,5.23,4.3c0.42-0.48-1.04-2.69-1-3.34
					c13.97,7.93,27.94,15.88,41.91,23.82c0.27,0.15,0.53,0.08,0.71-0.14c0.22-0.27,0.4-0.54,0.56-0.83c0.2-0.34,0.34-0.7,0.43-1.06
					C653.61,222.17,652.02,219.15,650.7,216.74z"/>
				<path class="st10" d="M652.85,224.87c-0.09,0.36-0.24,0.72-0.43,1.06c-5.99-6.69-11.79-13.55-17.37-20.6
					c-3.88-4.9-7.44-10.1-11.58-14.8c-4.08-4.63-9.41-7.33-13.97-11.35c-4.12-3.62-6.66-8.51-9.32-13.22
					c-2.97-5.25-6.48-9.73-11.1-13.63c-4.28-3.61-8.96-6.73-13.18-10.39c-4.36-3.8-8.08-8.23-11.59-12.8
					c-8.41-10.97-16.57-22.15-24.84-33.22c-0.4-0.54,0.5-1.05,0.89-0.53c9.14,12.24,17.92,24.88,27.58,36.71
					c3.92,4.8,8.3,8.99,13.2,12.76c4.32,3.32,8.81,6.48,12.64,10.4c3.75,3.85,6.28,8.44,8.91,13.07c3.19,5.61,6.76,9.88,12.12,13.54
					c4.9,3.35,8.88,7.08,12.53,11.78c4.01,5.18,7.94,10.41,12.08,15.49C643.78,214.5,648.25,219.75,652.85,224.87z"/>
			</g>
			<g>
				<path class="st12" d="M700.58,69.55c-0.74-1.97-2.72-2.97-4.78-3.69c-4.03-1.41-8.2-2.53-12.33-3.72
					c1.79-0.4,3.47-1.05,5.1-2.03c0.27-0.15,0.35-0.59,0.09-0.8c-8.04-6.76-18.4-9.18-28.57-10.62c-11.79-1.65-23.73-2.1-35.62-1.45
					c1.63-1.65,3.26-3.31,4.9-4.97c0.34-0.35,0.04-0.83-0.37-0.88c-17.7-2.23-34.32,5.64-51.25,9.37c0.68-1.43,1.49-2.78,2.49-4.07
					c0.25-0.32,0.11-0.91-0.37-0.88c-9.34,0.61-17.76,4.82-25.37,10.02c-7.5,5.11-14.33,11.12-20.45,17.82
					c-0.32-2.05-0.04-4.02,0.85-5.98c0.24-0.51-0.38-1.06-0.82-0.62c-8.88,9.22-18.3,22.9-11.41,35.78
					c-1.2-0.33-2.99-0.82-4.11-1.08c0.02-0.05,0.03-0.12,0.02-0.2c0-0.04-0.01-0.09-0.01-0.14c-0.02-0.21-0.14-0.46-0.38-0.5
					c-0.39-0.06-0.57-0.05-0.85,0.25c-0.17,0.18-0.2,0.42-0.07,0.63c0.32,0.57,0.68,0.61,1.29,0.84c1.64,0.6,3.37,1.02,5.05,1.54
					c0.43,0.13,0.8-0.39,0.58-0.76c-2.32-3.8-3.1-7.68-2.81-11.49l3.5,5.69c0.08,0.14,0.27,0.27,0.44,0.25
					c6.43-0.53,12.74-1.91,18.75-4.27c2.94-1.16,5.64-2.84,8.56-3.99c2.79-1.1,5.88-1.24,8.83-1.48c7.38-0.6,14.81-0.55,22.17,0.13
					c0.26,0.03,0.54-0.26,0.52-0.52c-0.19-1.87-0.88-3.51-1.99-4.83c0.9-0.04,1.81-0.07,2.7-0.09c0.79-0.01,1.59-0.02,2.38-0.02
					c11.98,1.5,24.06,1.98,36.13,1.41c0.55-0.02,0.66-0.67,0.26-0.96c-1.53-1.1-3.06-2.16-4.63-3.18c3.51-0.27,7.03-0.51,10.55-0.7
					c7.65-0.42,15.3-0.69,22.97-0.8c0.54-0.01,0.66-0.69,0.25-0.97c-1.42-0.97-2.86-1.94-4.28-2.91
					c16.97-4.09,34.49-5.24,51.87-3.43c0.26,0.03,0.55-0.26,0.52-0.52v-0.03C700.81,70.28,700.71,69.89,700.58,69.55z"/>
				<path class="st10" d="M700.87,70.68c-10.08-2.54-20.32-4.5-30.65-5.83c-11.91-1.53-23.92-2.24-35.92-2.12
					c-6.35,0.06-12.7,0.28-18.98,1.27c-5.61,0.88-11.09,1.88-16.78,2.15c-6.17,0.3-12.39,0.21-18.5,1.26
					c-5.84,1-11.03,3.58-16.59,5.51c-9.8,3.38-20.78,4.43-29.06,11.23c-0.52,0.42-1.25-0.31-0.73-0.73
					c9.03-7.41,21.06-8.21,31.63-12.27c5.6-2.15,10.91-4.32,16.91-5.1c6.06-0.77,12.18-0.65,18.26-1.03
					c6.29-0.39,12.4-1.87,18.65-2.57c6.18-0.69,12.43-0.77,18.63-0.75c21.17,0.07,42.29,2.73,62.83,7.86
					C700.71,69.89,700.81,70.28,700.87,70.68z"/>
			</g>
		</g>
	</g>
	<path class="st13" d="M413.89,319.61c0,0-0.26,13.89,3.17,18.02c3.75,4.51,59.64,13.42,59.64,13.42l0.22-8.75l-46.35-27.27
		L413.89,319.61z"/>
	<path class="st13" d="M390.38,304.08c0,0,26.12,25.63,28.73,27.62c2.6,2,18.29-12.19,18.29-12.19l-22.06-30.39L390.38,304.08z"/>
	<path class="st14" d="M433.08,297.69c0,0-10.51,2.59-11.94,9.01c-0.61,2.74-2.16,4.65-3.76,5.95c-2.15,1.74-4.35,2.37-4.35,2.37
		L398,282.31l-8.1-17.62l-0.52-1.12l-1.33-2.89l-1.09-2.37l-1.26-2.74l-0.23-0.5l-0.01-0.02c0,0,0.3,0.04,0.87,0.18
		c0.1,0.03,0.22,0.05,0.34,0.09c0.1,0.02,0.22,0.05,0.34,0.08c0.03,0.01,0.05,0.01,0.08,0.02c0.75,0.22,1.73,0.54,2.93,1.02
		c0.01,0,0.02,0,0.03,0.01c0.2,0.08,0.41,0.17,0.63,0.27c1.63,0.7,3.59,1.68,5.8,3.06c1.29,0.8,2.66,1.75,4.11,2.85
		c0.96,0.73,1.95,1.54,2.96,2.41c2.25,1.95,4.91,4.59,7.71,7.54c1.79,1.87,3.61,3.87,5.43,5.88
		C425.1,287.86,433.08,297.69,433.08,297.69z"/>
	<g>
		<path class="st15" d="M498.82,522.72c-0.76,0-1.49-0.44-1.83-1.18l-29.69-66.04c-0.45-1.01,0-2.19,1-2.64c1.01-0.45,2.19,0,2.64,1
			l29.69,66.04c0.45,1.01,0,2.19-1,2.64C499.37,522.67,499.09,522.72,498.82,522.72z"/>
	</g>
	<g>
		<path class="st15" d="M619.62,491.27c-0.76,0-1.49-0.44-1.83-1.18l-29.69-66.04c-0.45-1.01,0-2.19,1-2.64c1.01-0.45,2.19,0,2.64,1
			l29.69,66.04c0.45,1.01,0,2.19-1,2.64C620.17,491.21,619.9,491.27,619.62,491.27z"/>
	</g>
	<g>
		<path class="st0" d="M596.82,423.68c0,0-6.9,3.46-16.46,7.72c-0.55,0.24-1.09,0.48-1.65,0.72c-10.15,4.47-22.85,9.62-33.54,12.54
			c-3.24,0.89-7.06,1.76-11.21,2.61c-0.47,0.1-0.95,0.2-1.42,0.3c-13.07,2.63-29.1,5-40.79,6.6c-0.71,0.1-1.4,0.2-2.07,0.29
			c-8.31,1.11-13.96,1.79-13.96,1.79l-138.92-32.6L256.2,289.14c0,0,5.95-1.05,13.9-2.47c0.36-0.06,0.73-0.13,1.1-0.2
			c5.53-0.98,11.89-2.12,17.83-3.19c0.35-0.06,0.69-0.12,1.04-0.19c7.11-1.28,13.49-2.44,16.93-3.1
			c10.83-2.06,79.16,6.45,79.16,6.45l58.84,114.02l47.01,3.65l4.1,0.32l7.81,0.61L596.82,423.68z"/>
	</g>
	<path class="st16" d="M491.75,454.17c-0.71,0.1-1.4,0.2-2.07,0.29c-12.89-5.08-25.96-9.66-39.2-13.73
		c-20.81-6.42-41.93-10.99-63.2-15.56c-9.26-2-18.53-4.42-27.02-8.71c-8.82-4.45-16.01-11.05-22.02-18.84
		c-6.08-7.87-11.04-16.56-16.18-25.05c-6.19-10.24-12.38-20.48-18.57-30.72c-11.12-18.4-22.25-36.78-33.38-55.18
		c0.36-0.06,0.73-0.13,1.1-0.2c12.47,20.63,24.94,41.25,37.41,61.88c6.02,9.95,12.02,19.89,18.04,29.84
		c5.19,8.57,10.43,17.24,17.28,24.62c7.03,7.57,15.61,12.9,25.32,16.38c9.36,3.36,19.17,5.19,28.89,7.16
		C430.11,432.84,461.44,442.16,491.75,454.17z"/>
	<path class="st16" d="M533.96,447.27c-0.47,0.1-0.95,0.2-1.42,0.3c-7.5-4.44-15.93-7.48-23.88-10.78
		c-12.52-5.21-25.04-10.39-37.55-15.6c-22.39-9.32-44.72-18.78-66.88-28.62c-11.11-4.94-22.19-9.97-33.23-15.07
		c-9.47-4.37-18.93-8.09-25.36-16.69c-2.97-3.97-5.37-8.34-8.13-12.44c-3.13-4.66-6.86-8.83-10.79-12.83
		c-7.47-7.59-15.09-14.84-21.33-23.53c-6.46-8.99-11.7-18.7-16.34-28.72c0.35-0.06,0.69-0.12,1.04-0.19
		c6.01,12.92,13.02,25.33,22.32,36.2c6.93,8.1,15.26,14.89,22.01,23.15c6.26,7.68,10.08,17.61,17.86,23.98
		c4.32,3.54,9.64,5.71,14.65,8.04c5.52,2.57,11.04,5.11,16.58,7.64c10.91,4.97,21.86,9.86,32.84,14.68
		c22.45,9.83,45.07,19.28,67.71,28.67c11.11,4.61,22.24,9.21,33.33,13.86C523.04,441.68,528.73,444.11,533.96,447.27z"/>
	<path class="st16" d="M580.36,431.4c-0.55,0.24-1.09,0.48-1.65,0.72c-8.23-1.59-16.41-3.49-24.5-5.71
		c-8.93-2.45-17.74-5.27-26.42-8.48c-8.65-3.18-17.08-6.9-25.67-10.21c-3.34-1.29-6.71-2.49-10.09-3.6
		c-14.35-4.74-29.13-8.1-43.87-11.43c-0.65-0.14-0.38-1.14,0.27-0.99c10.4,2.34,20.8,4.69,31.07,7.54c5.6,1.56,11.14,3.28,16.63,5.2
		c3.34,1.17,6.67,2.41,9.97,3.74c8.53,3.42,16.97,7.02,25.64,10.09C547.57,423.9,563.84,428.28,580.36,431.4z"/>
	<g>
		<path class="st15" d="M601.73,426.6c-0.13,0-0.26-0.01-0.39-0.04l-148.05-28.91l-83.38-139.17c-0.57-0.95-0.26-2.18,0.69-2.74
			c0.95-0.57,2.18-0.26,2.74,0.69l82.46,137.65l146.3,28.57c1.08,0.21,1.79,1.26,1.58,2.35C603.5,425.93,602.67,426.6,601.73,426.6z
			"/>
	</g>
	<path class="st17" d="M527.56,401.82c-1.14-10.5-1.72-18.2-7.14-23.36c-5.42-5.16-30.34-12.55-36.46-14.1
		c-17.59-4.45-65.73-19.3-74.63-24.08c0,0-35.21,16.98-36.33,17.63c-1.11,0.65-28.14,31.51-28.14,31.51s0.23,20.58,12.19,27.82
		c11.96,7.24,15.65,6.4,26.57,9.81c16.51,5.14,34.15,8.75,42.12,11.73c5.25,1.96,10.93,2.92,16.42,3.95
		c5.34,1,19.26,4.75,24.96,3.67c11.25-2.13,2.01,2.06,22.53-12.64C491.57,432.37,528.9,414.12,527.56,401.82z"/>
	<path class="st15" d="M377.11,208.11c-0.14-0.89-0.41-1.75-0.7-2.59c1.47-1.97,2.3-4.07,0.99-6.56c-0.83-1.58-1.62-3.5-2.73-4.93
		c-0.92-1.19-2-1.59-3.28-2.26c-1.8-0.93-0.97-0.97-1.41-2.61c-0.33-1.26-1.41-2.08-2.5-2.67c-1.57-0.86-3.33-1.37-5.05-1.34
		c0.11-0.98-0.01-1.93-0.66-2.65c-1.56-1.72-5.47-1.53-7.45-1.04c-1.87,0.46-3.45,1.33-5.4,1.53c-1.66,0.17-3.34,0.05-4.98,0.5
		c-1.66,0.45-3.25,1.33-4.77,2.31c-0.99,0.22-2.01,0.35-3.1,0.44c-1.85,0.15-3.1,0.68-4.58,1.8c-0.67,0.51-1.3,1.04-1.89,1.62
		c-2.16,1.29-3.35,3.31-4.01,5.63c-0.04,0.05-0.08,0.1-0.1,0.18c-0.04,0.15-0.06,0.3-0.07,0.45c-0.57,2.42-0.62,5.12-0.6,7.65
		c-0.08,0.27-0.16,0.55-0.22,0.82c-0.71,3.07-0.58,5.73,0.17,8.76c0.72,2.92,0.7,5.96,1.61,8.84c1.14,3.61,2.54,7.16,3.81,10.73
		c0.21,0.59,1.11,0.22,0.9-0.36c-0.18-0.5-0.36-1-0.54-1.5c5.63-1.88,11.42-3.15,17.13-4.72c5.86-1.61,11.32-4.64,17.32-5.64
		c2.43-0.41,5.24-0.44,7.55-1.33c1.97-0.75,2.39-2.74,3.13-4.55C376.53,212.5,377.48,210.44,377.11,208.11z"/>
	<path class="st13" d="M358.17,234.99l-3.26,11.94l-0.28,1.03l-0.13,0.48l-0.51,1.87l-0.22,0.77l-0.13,0.5l0.37,3.75
		c0,0-3.07,4.84-9.62,3.25c-6.55-1.58-16.91-9.75-16.91-9.75l3.29-23.98L358.17,234.99z"/>
	<path class="st13" d="M368.05,230.34c-2.68,10.64-7.61,16.89-10.72,17.81c-4.45,1.31-12.78-1.86-19.25-7.74
		c-5.43-4.92-3.82-3.77-5.43-10.72c-0.22-0.93-3.84-3.16-3.99-4.09c-1.17-7.23-1.61-15.21,0.22-22.38c0.32-1.25,0.72-2.52,1.37-3.63
		c3.87-6.61,17.07-7.32,23.95-6.2c6.86,1.12,16.84,16.06,16.84,16.06s-0.1,2.31-0.45,5.81c-0.07,0.7-0.16,1.44-0.25,2.22
		C369.89,221.25,369.17,225.87,368.05,230.34z"/>
	<path class="st18" d="M351.34,219.91c0.19-0.66,0.22-1.34-0.28-1.69c-1.33-0.92-2.79,1.47-3.06,2.33c-0.16,0.51-0.12,1.2,0.24,1.62
		c0.38,0.46,1,0.41,1.48,0.14c0.43-0.25,0.77-0.63,1.02-1.06C350.92,220.96,351.18,220.44,351.34,219.91z"/>
	<path class="st18" d="M366.8,221.74c0.12-0.65,0.08-1.3-0.43-1.58c-1.36-0.74-2.5,1.67-2.67,2.52c-0.1,0.5,0.01,1.15,0.39,1.52
		c0.41,0.4,0.99,0.29,1.42-0.02c0.38-0.28,0.67-0.67,0.86-1.1C366.51,222.78,366.71,222.26,366.8,221.74z"/>
	<path class="st0" d="M360.29,236.84c0,0-1.8,0.23-4.73-0.29c-3.34-0.59-5.53-1.22-5.53-1.22s1.1,3.01,4.49,3.66
		C357.91,239.64,360.29,236.84,360.29,236.84z"/>
	<path class="st13" d="M328.71,247.53l-6.86,2.69c0,0,18.96,26.04,24.57,30.17c5.61,4.13,5.24,10.58,9.62,12.64
		c4.38,2.06,11.86,6.96,11.86,6.96s-3.8-8.25-3.58-13.93s-2.32-9.03-1.69-12.9c0.63-3.87-3.43-21.93-3.43-21.93l-5.13-1.18
		c0,0-6.55,0.15-8.42-0.24C343.77,249.44,328.71,247.53,328.71,247.53z"/>
	<g>
		<path class="st19" d="M357.35,233.46c-0.22,0-0.42-0.14-0.48-0.36c-0.08-0.27,0.08-0.54,0.34-0.62c1.68-0.48,3.32-1.25,3.44-1.61
			c0.11-0.55-0.65-4.64-1.45-8.27c-0.06-0.27,0.11-0.54,0.38-0.6c0.27-0.06,0.54,0.11,0.6,0.38c0.39,1.79,1.66,7.71,1.45,8.69
			c-0.24,1.13-2.98,2.03-4.14,2.36C357.44,233.46,357.39,233.46,357.35,233.46z"/>
	</g>
	<path class="st15" d="M354.43,213.82c-0.43-0.6-1.38-0.88-2.05-1.05c-1.31-0.32-2.67-0.32-3.98-0.02
		c-1.21,0.27-3.07,0.77-3.87,1.81c-0.24,0.31-0.11,0.79,0.3,0.86c1.5,0.27,3.11-0.24,4.65-0.12c0.99,0.08,6.54,1,4.99-1.43
		C354.46,213.86,354.44,213.84,354.43,213.82z"/>
	<path class="st15" d="M370.34,217.5c-0.93-0.2-1.88-0.51-2.83-0.56c-0.99-0.06-6.61,0.07-4.74-2.12c0.02-0.02,0.03-0.03,0.05-0.05
		c0.52-0.53,1.49-0.68,2.18-0.75c1.34-0.13,2.68,0.07,3.94,0.53c0.48,0.19,1.08,0.42,1.64,0.72
		C370.52,215.98,370.43,216.72,370.34,217.5z"/>
	<path class="st15" d="M372.27,210.02c-1.3-2.76-3.2-5.25-5.8-6.83c0.12-0.12,0.18-0.29,0.08-0.49c-0.52-1.1-1.15-1.72-2.07-2.47
		c-1.47-1.19-1.96-2.6-3.05-4.04c-1.65-2.18-4.3-3.26-6.84-4.02c-5.81-1.72-12.65-3.37-18.19-0.03c-5.66,3.42-8.08,9.96-8.98,16.2
		c-0.99,6.86-0.83,14.08,2.26,20.41c0.15,0.31,0.6,0.44,0.83,0.12c1.11-1.55,2.88-3.67,2.53-5.71c-0.21-1.22-0.88-2.33-1.02-3.59
		c-0.16-1.48-0.1-3.25,0.81-4.51c0.94-1.32,2.38-1.33,3.22,0.09c0.44,0.74,1.68,0.59,2.07,0.02c0.58-0.87,0.42-1.66,0.78-2.72
		c0.66-1.95,2.42-1.87,3.69-3.07c1.3-1.22,2.02-2.73,3.49-3.84c1.73-1.3,3.57-2.49,5.82-2.23c1.56,0.18,2.64,0.39,4.22,0.05
		c1.94-0.42,3.65-1.06,5.69-0.82c4.5,0.53,7.74,3.92,9.58,7.83C371.64,210.95,372.54,210.59,372.27,210.02z"/>
	<path class="st0" d="M324.01,249.37c0,0,9.38,13.61,22.01,21.6c12.63,8,10.59,3.97,11.32-4.82c0.73-8.78-1.28-15.64-1.28-15.64
		s27.56,5,29.88,6.92c2.32,1.92,5.67,40.61,7.74,47.58c2.06,6.96,28.78,33.68,31.1,37.03c2.32,3.35-16.83,13.35-23.79,17.48
		c-6.96,4.13-31.24,8.69-31.24,8.69s-64.81-105.25-64.81-108.08C304.95,257.3,324.01,249.37,324.01,249.37z"/>
	<path class="st14" d="M373.05,391.44c-1.42,5.08-0.25,5.52-4.36,9.4c-1.04,0.96-2.41,2.16-4.26,3.7c-0.12,0.1-0.25,0.21-0.37,0.31
		c-2.14,1.79-4.22,3.45-6.22,4.94c-0.51,0.37-1,0.74-1.5,1.1c-6.37,4.55-11.83,7.19-15.32,6.08c-1.33-0.42-2.81-4.18-4.39-9.58
		c-0.34-1.17-0.68-2.41-1.03-3.71c-1.06-3.97-2.18-8.51-3.32-13.11c-0.07-0.31-0.14-0.63-0.23-0.95c-0.04-0.15-0.08-0.32-0.12-0.48
		c-0.28-1.13-0.56-2.27-0.85-3.4c-2.7-10.76-5.55-20.99-8.37-24.47c-2.66-3.29-6.15-8.07-9.75-13.53c-2.62-3.96-5.3-8.3-7.78-12.69
		c-0.85-1.52-1.68-3.03-2.47-4.55c-1.68-3.22-3.21-6.42-4.47-9.47c-4.3-10.47-12.93-26.08-14.7-37.52
		c-0.22-1.35-0.33-2.65-0.33-3.87c0-2.7,0.56-5.05,1.88-6.85c0.95-1.3,2.29-2.65,3.91-4.01c0.03-0.02,0.04-0.03,0.04-0.03
		c1.95-1.64,4.29-3.3,6.81-4.91c1.05-0.68,2.15-1.35,3.24-2c3.62-2.16,7.39-4.17,10.75-5.86c2.35-1.2,4.5-2.23,6.24-3.04
		c2.72-1.29,4.47-2.04,4.47-2.04s-0.12,23.45,6.58,32.48c3.67,4.94,9.12,13.68,14.35,22.65c1.21,2.04,2.39,4.11,3.55,6.14
		c3.01,5.31,5.79,10.42,7.89,14.55c6.45,12.64,11.42,20.64,16.67,23.73c5.25,3.1,19.7,27.6,20.73,29.41
		C391.36,381.64,374.85,384.99,373.05,391.44z"/>
	<path class="st14" d="M455.49,356.19c-0.63-0.1-13.88-2.4-26.03-6.8c-9.58-3.47-10.3-2.66-14.17-6.53
		c-0.51-0.51-1.22-1.54-2.08-2.97c-0.5-0.82-1.04-1.77-1.64-2.84c-0.61-1.12-1.28-2.36-1.99-3.7c-2.84-5.34-6.27-12.15-9.66-18.65
		c-4.26-8.17-8.44-15.81-11.22-19.31c-4.96-6.25-7.68-11.17-9.9-16.64c-0.59-1.42-1.14-2.88-1.67-4.41c-0.3-0.85-0.6-1.7-0.91-2.6
		c-0.43-1.26-1.21-2.71-2.19-4.24c-1.45-2.29-3.37-4.76-5.31-7.06c-4.17-4.95-8.44-9.14-8.44-9.14s9.07,1.08,17.17,2.34
		c1.24,0.2,2.46,0.39,3.61,0.58c1.61,0.29,3.12,0.56,4.41,0.84c0.29,0.05,0.57,0.11,0.84,0.18c0.12,0.03,0.24,0.05,0.36,0.07
		c0.1,0.02,0.22,0.05,0.34,0.08c0.03,0.01,0.05,0.01,0.08,0.02c0.36,0.09,0.7,0.18,1,0.26c0.67,0.19,1.32,0.44,1.93,0.76
		c0.01,0,0.02,0,0.03,0.01c0.19,0.09,0.36,0.2,0.54,0.3c1.3,0.77,2.48,1.86,3.59,3.27c0.69,0.85,1.34,1.83,1.99,2.93
		c0.83,1.41,1.63,3.03,2.45,4.88c0.73,1.63,1.47,3.43,2.21,5.41c0.82,2.14,1.66,4.47,2.55,7.03c2.68,7.72,7.73,19.03,12.72,29.64
		c0.43,0.92,0.86,1.84,1.29,2.74c0.1,0.23,0.21,0.44,0.32,0.66c0.51,1.08,1.01,2.15,1.52,3.19c0.54,1.13,1.07,2.25,1.6,3.34
		c0.6,1.26,1.2,2.48,1.77,3.65c0.46,0.96,0.93,1.9,1.36,2.81c1.73,3.51,3.22,6.49,4.29,8.65
		C433.33,345.1,454.82,355.86,455.49,356.19z"/>
	<g>
		<path class="st15" d="M483.97,460.04c-0.15,0-0.3-0.02-0.46-0.05l-148-34.59l-0.44-0.73l-82.92-138.41
			c-0.57-0.95-0.26-2.18,0.69-2.74c0.95-0.57,2.18-0.26,2.74,0.69l82.48,137.68l146.35,34.2c1.08,0.25,1.74,1.33,1.49,2.4
			C485.7,459.42,484.88,460.04,483.97,460.04z"/>
	</g>
	<g>
		<path class="st15" d="M297.21,470.74c-0.16,0-0.33-0.02-0.49-0.06c-0.73-0.18-1.29-0.76-1.46-1.49l-41.01-179.61
			c-0.25-1.08,0.43-2.15,1.5-2.4c1.08-0.25,2.15,0.43,2.4,1.5l40.14,175.79l37-42.15c0.73-0.83,1.99-0.91,2.82-0.18
			c0.83,0.73,0.91,1.99,0.18,2.82l-39.58,45.09C298.33,470.5,297.78,470.74,297.21,470.74z"/>
	</g>
	<g>
		<path class="st13" d="M474.93,409.17c-6.87,5.1-13.48,10.35-14.05,10.85c3,8.37,7.88,18.41,18.27,29.61
			c10.76,11.6,25.64,25.27,37.54,36.42c14.03,13.13,24.01,24.65,24.01,24.65l12.02-6.81c0,0-38.91-65.66-58.22-91.76
			C489.9,405.9,481.14,404.55,474.93,409.17z"/>
		<path class="st13" d="M539.81,501.67c0,0-0.89,11.12,0.68,15.72c1.57,4.59,9.59,5.81,13.74,5.91c4.14,0.1,21.62,2.55,25.39,1.62
			s1.19-5.03-2.76-7.3c-3.95-2.27-15.73-6.36-19.13-9c-3.39-2.64-4.99-5.01-4.99-5.01l-4.89-5.5L539.81,501.67z"/>
	</g>
	<g>
		<path class="st13" d="M508.38,389.51c-6.7,6.35-13.58,13.37-14.12,13.98c4.02,7.93,10.12,17.28,21.82,27.1
			c12.12,10.17,28.59,21.88,41.79,31.45c15.56,11.28,26.9,21.46,26.9,21.46l11.07-8.25c0,0-49.07-63.22-70.78-85.41
			C520.51,385.19,513.09,385.04,508.38,389.51z"/>
		<path class="st13" d="M582.75,474.66c0,0,0.5,11.15,2.64,15.51c2.14,4.36,10.24,4.57,14.37,4.15c4.13-0.41,21.77-0.16,25.4-1.56
			c3.63-1.39,0.55-5.14-3.65-6.9s-16.41-4.35-20.1-6.54c-3.7-2.19-5.58-4.34-5.58-4.34l-5.54-4.85L582.75,474.66z"/>
	</g>
	<g>
		<path class="st0" d="M515,319.36l-76.44,22.81c-0.33,0.1-0.6,0.36-0.69,0.7l-16.73,56.48l73.36-27.61l21.74-50.98
			C516.59,319.94,515.84,319.11,515,319.36z"/>
		<path class="st0" d="M421.14,399.34l-41.96-18.02c-0.84-0.36-0.83-1.56,0.02-1.9l66.34-27.18l19.09,9.03L421.14,399.34z"/>
		<g>
			<path class="st20" d="M421.14,397.36c-0.05,0-0.1-0.01-0.15-0.02c-0.26-0.08-0.41-0.36-0.33-0.63l11.94-37.82
				c0.08-0.26,0.36-0.41,0.63-0.33c0.26,0.08,0.41,0.36,0.33,0.63l-11.94,37.82C421.55,397.22,421.35,397.36,421.14,397.36z"/>
		</g>
		<g>
			<path class="st20" d="M424.2,397.15c-0.2,0-0.39-0.12-0.47-0.32c-0.1-0.26,0.03-0.55,0.29-0.64L493.25,370
				c0.26-0.09,0.55,0.03,0.64,0.29c0.1,0.26-0.03,0.55-0.29,0.64l-69.22,26.19C424.32,397.14,424.26,397.15,424.2,397.15z"/>
		</g>
		<polygon class="st4" points="425.42,362.29 408.27,369.06 413.43,370.74 429.87,364.23 		"/>
		<g>
			<path class="st20" d="M471.76,344.63c-1.82,0-3.16-0.37-3.39-1.28l0,0c-0.47-1.83,4.04-3.88,8.42-5c2.34-0.6,4.61-0.93,6.38-0.94
				c0.01,0,0.02,0,0.03,0c2.02,0,3.16,0.43,3.37,1.28c0.22,0.85-0.58,1.78-2.37,2.76c-1.56,0.85-3.71,1.65-6.05,2.25
				C475.95,344.26,473.6,344.63,471.76,344.63z M469.33,343.11c0.13,0.51,3.21,0.99,8.57-0.38c2.26-0.58,4.33-1.35,5.82-2.16
				c1.65-0.9,1.92-1.49,1.88-1.63c-0.04-0.14-0.55-0.52-2.4-0.52c-0.01,0-0.02,0-0.03,0c-1.69,0-3.87,0.33-6.14,0.91
				C471.67,340.7,469.2,342.6,469.33,343.11L469.33,343.11z"/>
		</g>
	</g>
	<path class="st13" d="M298.92,336.26c0,0,22.65,28.74,24.98,31.05c2.33,2.31,19.7-9.76,19.7-9.76l-18.02-32.95L298.92,336.26z"/>
	<path class="st13" d="M319.16,349.64c0,0,0.96,13.86,4.74,17.67c4.13,4.17,60.59,8.14,60.59,8.14l-0.55-8.73l-48.56-23.1
		L319.16,349.64z"/>
	<path class="st13" d="M383.94,366.72c0,0,8.82-2.94,12.83-1.98c4.01,0.96,8.25,8.23,9.33,9.27c1.08,1.04,2,4.97,0.22,5.74
		c-1.77,0.77-8.92-3.19-13.15-3.8c-4.23-0.61-8.69-0.5-8.69-0.5l-5.92-5.55L383.94,366.72z"/>
	<path class="st14" d="M289.04,268.74c0,0-9.98,6.06-11.12,16.5c-1.14,10.44,2.27,27.69,4.33,31.82c2.06,4.13,0.52,12.65,3.44,16.99
		c2.92,4.33,3.61,12.07,4.3,14.82c0.69,2.75,2.92,7.33,2.92,7.33s1.89-3.84,11.01-4.72c9.11-0.89,14.96-10.43,21.15-11.85
		c6.19-1.42,11.17-8.64,11.17-8.64s1.03-5.17,0-5.68C335.21,324.8,289.04,268.74,289.04,268.74z"/>
	<path class="st19" d="M354.5,248.44l-0.51,1.87l-0.22,0.77c-0.12-0.05-1.08-0.39-1.99-0.28c-0.97,0.11-1.95-0.86-3.32-1.43
		c-1.38-0.58-3.7-0.62-4.6-1.43c-0.91-0.83-1.12-1.38-2.36-2.63c-1.25-1.25-1.33-3.14-1.33-3.14s5.37,3.46,8.02,4.69
		C350.83,248.1,354.5,248.44,354.5,248.44z"/>
	<path class="st16" d="M319.1,269.65c-0.08,0.4-0.39,0.71-0.69,0.99c-3.91,3.69-8.39,6.77-13.25,9.08
		c-0.43,0.22-0.87,0.41-1.31,0.61c-1.12,0.5-2.31,0.98-3.17,1.87c-0.1,0.1-0.2,0.21-0.28,0.32c-1.05,1.32-1.33,3.15-1.55,4.85
		c1.53-0.12,2.79-0.93,3.99-1.9c1.59-1.27,3.11-2.81,5.01-3.43c1.36-0.43,2.95-0.42,4.01-1.37c0.83-0.74,1.35-2.05,2.46-2.09
		c0.86-0.04,1.55,0.85,1.55,1.71c0,0.86-0.54,1.63-1.18,2.21c-1.8,1.61-4.37,1.95-6.49,3.11c-1.2,0.64-2.23,1.54-3.3,2.37
		c-0.54,0.41-1.07,0.8-1.65,1.15c-1.24,0.73-2.63,1.22-4.07,1.39c-0.36,0.05-0.74,0.09-0.99,0.35c-0.21,0.23-0.25,0.56-0.28,0.87
		c-0.11,1.16-0.22,2.3-0.33,3.45c3.54-0.91,7.01-2.08,10.36-3.53c1.43-0.61,2.85-1.27,4.23-1.97c0.88-0.44,2.03-0.88,2.75-0.22
		c0.59,0.55,0.47,1.55-0.02,2.18c-0.5,0.62-1.27,0.95-2,1.26c-0.97,0.41-1.95,0.82-2.92,1.23c-1.29,0.54-2.58,1.08-3.87,1.62
		c-2.93,1.23-5.73,2.09-8.84,2.57c-0.26,0.04-0.56,0.68-0.67,0.89c-1.09-0.52-2.04-2.8-2.8-3.89c-0.92-1.34-1.89-2.64-2.91-3.91
		c-2.11-2.64-4.41-5.13-6.87-7.43c-0.17-0.15-0.34-0.31-0.51-0.47c-0.48-0.47-0.92-0.99-1.13-1.62c-0.29-0.84-0.01-1.92,0.8-2.25
		c0.01-0.01,0.03-0.01,0.04-0.02c0.98-0.35,1.93,0.54,2.61,1.33c3.63,4.29,7.27,8.6,10.91,12.9c0.47-2.57-1.01-5.02-2.34-7.27
		c-2.32-3.94-4.3-8.08-5.92-12.36c-0.15-0.41-0.31-0.86-0.23-1.29c0.15-0.9,1.3-1.34,2.16-1.04c1.4,0.51,1.82,2.1,2.19,3.38
		c1.14,4,2.94,7.82,5.31,11.24c-0.46-1.02,1.1-2.07,0.78-3.15c-0.11-0.38-0.44-0.65-0.71-0.95c-1.02-1.15-1.18-2.79-1.27-4.32v-0.01
		c-0.28-4.45-0.57-8.9-0.85-13.35c-0.02-0.29-0.04-0.59-0.04-0.89c1.05-0.68,2.15-1.35,3.24-2c0.26,0.59,0.25,1.37,0.22,2.05
		c-0.2,4,0.61,16.32,0.61,16.32s3.74-9.75,4.92-12.15c1.03-2.08,2.26-4.05,3.13-6.2c0.77-1.9,1.26-3.92,1.88-5.88
		c2.35-1.2,4.5-2.23,6.24-3.04v0.01c0.01,1.93-0.8,3.74-1.61,5.49c-1.91,4.13-3.88,8.35-7.05,11.62c-1.75,1.81-3.93,3.41-4.73,5.8
		c2.68,0.24,5.12-1.47,7.13-3.24c2.01-1.76,4.02-3.78,6.64-4.4C317.64,267.93,319.34,268.48,319.1,269.65z"/>
	<path class="st16" d="M425.73,332.23c0.59,0.55,0.47,1.55-0.02,2.18c-0.5,0.62-1.27,0.95-2,1.26c-2.26,0.95-4.53,1.9-6.79,2.85
		c-1.25,0.52-2.48,0.98-3.71,1.37c-0.5-0.82-1.04-1.77-1.64-2.84c3.93-1.2,7.75-2.73,11.41-4.6
		C423.85,332.01,425.01,331.56,425.73,332.23z"/>
	<path class="st16" d="M423.96,326.3c-1.57,0.8-3.38,1.22-4.95,2.06c-1.79,0.97-3.21,2.5-4.95,3.53c-1.24,0.73-2.63,1.22-4.07,1.39
		c-0.13,0.02-0.28,0.03-0.41,0.06c-2.84-5.34-6.27-12.15-9.66-18.65c0.4-0.19,0.89-0.21,1.3-0.06c1.4,0.51,1.82,2.1,2.19,3.38
		c1.13,4,2.94,7.81,5.31,11.24c-0.46-1.02,1.1-2.07,0.78-3.15c-0.11-0.38-0.44-0.65-0.71-0.95c-1.02-1.15-1.17-2.81-1.27-4.33
		c-0.28-4.45-0.57-8.9-0.85-13.35c-0.06-0.91-0.11-1.86,0.3-2.66c0.4-0.82,1.43-1.38,2.24-0.97c0.92,0.47,0.93,1.76,0.88,2.8
		c-0.2,4,0.62,16.32,0.62,16.32s3.72-9.75,4.92-12.17c0.14-0.3,0.3-0.6,0.46-0.9c0.43,0.92,0.86,1.84,1.29,2.74
		c0.1,0.23,0.21,0.44,0.32,0.66c-1.65,1.61-3.5,3.13-4.22,5.29c2.09,0.19,4.03-0.82,5.74-2.1c0.54,1.13,1.07,2.25,1.6,3.34
		c-1.57,0.97-3.19,1.86-4.86,2.65c-0.44,0.21-0.88,0.41-1.32,0.61c-1.12,0.5-2.31,0.98-3.17,1.87c-1.29,1.34-1.59,3.32-1.83,5.17
		c3.53-0.29,5.64-4.24,9.01-5.32c1.33-0.43,2.88-0.42,3.94-1.32C423.06,324.45,423.52,325.39,423.96,326.3z"/>
	<path class="st16" d="M345.86,329.43c-0.29,0.85-1.21,1.55-2.05,1.28c-0.99-0.33-1.21-1.61-1.26-2.64
		c-0.24-5.63-0.48-11.26-0.73-16.88c-1.95,1.73-2.27,4.59-2.6,7.18c-0.57,4.54-1.53,9.03-2.87,13.4c-0.13,0.42-0.28,0.87-0.62,1.17
		c-0.67,0.61-1.85,0.26-2.34-0.51c-0.8-1.26-0.14-2.78,0.35-4.01c1.55-3.86,2.45-7.98,2.66-12.13c-0.26,1.09-2.15,0.96-2.55,2
		c-0.14,0.37-0.04,0.79-0.02,1.19c0.11,1.54-0.78,2.93-1.64,4.21c-2.5,3.69-4.99,7.39-7.49,11.08c-0.52,0.74-1.05,1.53-1.88,1.92
		c-0.82,0.39-1.98,0.22-2.35-0.61c-0.44-0.94,0.34-1.96,1.01-2.74c2.53-2.97,9.13-12.73,9.48-13.26c-0.53,0.31-8.98,5.44-11.32,6.58
		c-2.07,1.01-4.26,1.83-6.25,2.99c-2.84,1.65-5.28,3.98-8.21,5.4c-0.28,0.14-0.57,0.28-0.87,0.39c-0.95,0.38-2.12,0.63-2.92,0
		c-1.09-0.84-0.72-2.62,0.12-3.71c0.35-0.46,0.75-0.87,1.2-1.23c1.02-0.86,2.24-1.5,3.43-2.12c4.04-2.1,8.18-4.24,12.69-4.88
		c2.49-0.36,5.19-0.3,7.27-1.7c-1.97-1.83-4.93-1.97-7.61-1.81c-2.67,0.18-5.5,0.53-7.93-0.58c-1.09-0.5-2.12-1.98-1.21-2.77
		c0.32-0.27,0.75-0.32,1.17-0.36c5.34-0.54,10.77-0.22,16.02,0.92c0.47,0.1,0.94,0.21,1.41,0.33c1.2,0.29,2.42,0.63,3.65,0.45
		c1.84-0.28,3.28-1.66,4.6-2.97c-2.97-1.92-7.06-0.09-10.38-1.3c-1.35-0.49-2.6-1.48-4.02-1.36c-1.1,0.07-2.31,0.79-3.22,0.14
		c-0.7-0.5-0.7-1.62-0.18-2.29c0.53-0.68,1.42-0.97,2.28-1.03c2.4-0.18,4.65,1.14,7.04,1.52c2,0.33,4.06-0.01,6.07,0.24
		c1.43,0.19,2.83,0.66,4.08,1.39c0.31,0.18,0.64,0.38,0.99,0.33c0.31-0.05,0.55-0.3,0.75-0.53c0.79-0.84,1.58-1.67,2.37-2.52
		c-4.78-2.06-9.79-3.6-14.91-4.57c-0.96-0.19-2.15-0.55-2.31-1.53c-0.13-0.78,0.58-1.51,1.35-1.69c0.77-0.2,1.58,0.01,2.35,0.22
		c2.37,0.64,4.75,1.28,7.11,1.91c2.08,0.56,4.01,1.21,5.91,2.06c1.21,2.04,2.39,4.11,3.55,6.14c-0.08,1.51-0.11,3.03-0.08,4.54
		c0.05,3.38,0.35,6.76,0.9,10.09C345.99,327.65,346.15,328.58,345.86,329.43z"/>
	<path class="st16" d="M343.91,378.15c-4,3.66-7.99,7.33-11.99,10.99c-0.28-1.13-0.56-2.27-0.85-3.4c0.88-0.68,1.73-1.38,2.58-2.12
		c2.55-2.21,4.94-4.6,7.15-7.16c0.58-0.68,1.19-1.39,2.02-1.71c0.84-0.32,1.96-0.07,2.3,0.75
		C345.51,376.46,344.67,377.45,343.91,378.15z"/>
	<path class="st16" d="M355.65,399.27c-1.88-1.68-3.57-3.79-5.98-4.49c-0.13,2.68,1.66,5.06,3.51,7c1.86,1.95,3.94,3.88,4.65,6.46
		c0.13,0.47,0.13,1.05,0,1.56c-0.51,0.37-1,0.74-1.5,1.1c-0.33-0.11-0.62-0.37-0.87-0.62c-3.84-3.76-7.09-8.12-9.6-12.88
		c-0.23-0.42-0.44-0.86-0.65-1.29c-0.55-1.1-1.07-2.27-2-3.09c-1.38-1.24-3.37-1.47-5.23-1.62c0.43,3.51,4.46,5.47,5.68,8.79
		c0.5,1.34,0.54,2.93,1.54,3.95c0.76,0.79,2.09,1.27,2.19,2.37c0.06,0.86-0.79,1.58-1.65,1.61c-0.86,0.03-1.66-0.47-2.26-1.08
		c-1.67-1.73-2.13-4.3-3.35-6.38c-1.04-1.73-2.61-3.1-3.71-4.8c-0.78-1.22-1.32-2.59-1.56-4.01c-0.05-0.35-0.11-0.74-0.38-0.97
		c-0.24-0.21-0.57-0.23-0.89-0.25c-0.43-0.02-0.88-0.05-1.31-0.07c-0.07-0.31-0.14-0.63-0.23-0.95c2.35,0.07,4.55-1.38,6.57-2.68
		c3.85-2.48,7.9-4.62,12.11-6.41c0.41-0.18,0.85-0.35,1.29-0.28c0.9,0.12,1.39,1.25,1.12,2.12c-0.45,1.42-2.03,1.9-3.3,2.31
		c-3.95,1.3-7.69,3.25-11.01,5.76c1-0.51,2.12,1.02,3.17,0.66c0.38-0.12,0.64-0.46,0.93-0.74c1.09-1.07,2.74-1.29,4.27-1.44
		c4.44-0.45,8.87-0.92,13.31-1.37c0.9-0.09,1.85-0.18,2.67,0.2c0.83,0.37,1.43,1.38,1.05,2.2c-0.44,0.94-1.72,1-2.76,0.99
		c-4.01-0.04-16.28,1.25-16.28,1.25s9.88,3.35,12.34,4.45c2.12,0.94,4.14,2.08,6.31,2.87c1.57,0.57,3.21,0.94,4.83,1.35
		c-1.04,0.96-2.41,2.16-4.26,3.7C361.26,403.15,358.2,401.56,355.65,399.27z"/>
	<path class="st16" d="M416.68,278.47c-0.48,0.24-1.04,0.38-1.57,0.4c-1.92,0.08-3.77-0.67-5.54-1.4c-2.99-1.24-6.03-2.51-8.75-4.23
		c-1.1-0.7-2.17-1.48-3.14-2.35c-1.88-1.68-3.56-3.8-5.98-4.49c-0.12,2.68,1.67,5.05,3.52,7c1.85,1.94,3.93,3.88,4.65,6.46
		c0.32,1.16-0.17,2.89-1.34,2.69c-0.2-0.03-0.37-0.11-0.54-0.23c-0.18-0.12-0.34-0.27-0.5-0.42c-3.84-3.76-7.09-8.12-9.59-12.88
		c-0.23-0.42-0.44-0.86-0.66-1.29c-0.55-1.1-1.07-2.27-1.99-3.1c-1.39-1.23-3.38-1.45-5.23-1.62c0.42,3.51,4.46,5.48,5.68,8.79
		c0.48,1.35,0.54,2.93,1.53,3.96c0.77,0.79,2.09,1.27,2.19,2.37c0.07,0.86-0.78,1.58-1.65,1.61c-0.86,0.03-1.65-0.47-2.25-1.09
		c-1.68-1.72-2.13-4.29-3.36-6.37c-1.03-1.74-2.61-3.11-3.71-4.81c-0.78-1.21-1.31-2.58-1.55-4c-0.06-0.35-0.11-0.74-0.39-0.97
		c-0.23-0.21-0.57-0.24-0.88-0.25c-1.16-0.07-2.3-0.13-3.46-0.2c0.55,1.84,1.18,3.66,1.87,5.45c-1.45-2.29-3.37-4.76-5.31-7.06
		c0.88-0.82,2.36-1.56,3.17-2.16c1.3-0.98,2.57-2,3.8-3.06c0.6-0.52,1.19-1.04,1.76-1.58c1.24,0.2,2.46,0.39,3.61,0.58
		c-2.53,2.32-5.06,4.63-7.58,6.94c2.58,0.37,4.98-1.22,7.18-2.63c1.64-1.05,3.32-2.05,5.04-2.98c0.2-0.11,0.4-0.23,0.61-0.32
		c0-0.02,0.01-0.02,0.02-0.02c0.1,0.03,0.22,0.05,0.34,0.09c0.1,0.02,0.22,0.05,0.34,0.08c0.03,0.01,0.05,0.01,0.08,0.02
		c0.36,0.09,0.7,0.18,1,0.26c0.67,0.19,1.32,0.44,1.93,0.76c0.01,0,0.02,0,0.03,0.01c0.2,0.08,0.41,0.17,0.63,0.27
		c-0.03,0-0.06,0.02-0.09,0.03c-1.24,0.45-2.46,0.97-3.63,1.56c-2.15,1.05-4.19,2.31-6.09,3.75c1-0.51,2.12,1.02,3.18,0.66
		c0.38-0.13,0.63-0.47,0.92-0.75c0.82-0.78,1.94-1.11,3.09-1.28c0.4-0.07,0.8-0.11,1.2-0.15c1.64-0.18,3.29-0.34,4.93-0.51
		c0.77-0.08,1.54-0.17,2.3-0.24c1.29,0.8,2.66,1.75,4.11,2.85c-1.34,0.08-2.87,0.2-4.42,0.32c-2.52,0.21-5.07,0.44-6.79,0.62
		c-1.31,0.12-2.15,0.22-2.15,0.22s1.1,0.37,2.66,0.91c2.64,0.91,6.58,2.29,8.72,3.14c0.38,0.14,0.71,0.28,0.96,0.39
		c2.12,0.95,4.15,2.09,6.33,2.88c1.74,0.63,3.56,1.02,5.36,1.49C413.04,274.45,414.87,276.45,416.68,278.47z"/>
	<g>
		<path class="st21" d="M488.96,403.55c-0.17,0-0.34-0.09-0.43-0.25c-0.04-0.06-1.25-1.81-7.94-3.47c-3.67-0.91-5.42-2.05-7.11-3.16
			c-1.63-1.07-3.18-2.07-6.46-2.75c-3.47-0.72-5.92-0.88-7.89-1.02c-1.83-0.13-3.42-0.23-5.15-0.73c-3.42-0.99-4.32-1.18-4.33-1.18
			c-0.27-0.05-0.45-0.32-0.39-0.59c0.05-0.27,0.31-0.45,0.59-0.39c0.04,0.01,0.92,0.19,4.41,1.2c1.63,0.47,3.09,0.57,4.94,0.7
			c2,0.14,4.49,0.31,8.02,1.04c3.47,0.72,5.09,1.77,6.8,2.89c1.62,1.06,3.3,2.15,6.8,3.02c7.23,1.8,8.46,3.74,8.57,3.96
			c0.13,0.24,0.04,0.55-0.2,0.68C489.12,403.53,489.04,403.55,488.96,403.55z"/>
	</g>
	<g>
		<path class="st21" d="M462.13,442.24c-0.05,0-0.11-0.01-0.16-0.03c-0.26-0.09-6.29-2.25-9.26-11.32c-2.94-9-0.12-17.04,0-17.37
			c0.09-0.26,0.38-0.39,0.64-0.3c0.26,0.09,0.39,0.38,0.3,0.64c-0.03,0.08-2.83,8.06,0,16.72c2.8,8.57,8.57,10.67,8.63,10.69
			c0.26,0.09,0.4,0.38,0.31,0.64C462.53,442.11,462.33,442.24,462.13,442.24z"/>
	</g>
	<g>
		<path class="st21" d="M458.82,443.87c-0.14,0-0.28-0.06-0.38-0.17c-0.03-0.03-2.93-3.42-6.94-8.52
			c-4.09-5.2-4.96-11.61-4.99-11.88c-0.04-0.27,0.16-0.52,0.43-0.56c0.27-0.05,0.52,0.16,0.56,0.43c0.01,0.06,0.88,6.42,4.79,11.39
			c4,5.08,6.89,8.45,6.92,8.48c0.18,0.21,0.16,0.53-0.05,0.71C459.05,443.83,458.93,443.87,458.82,443.87z"/>
	</g>
	<g>
		<path class="st8" d="M680.7,467.45c-6.76-4.72-14.66,1.17-21.3,2.69c-1.83,0.42-3.46,1.23-5.25,1.74
			c-3.06,0.87-7.08,2.32-8.43,5.59c-1.02,2.46-0.48,5.46,2.06,6.72c2.86,1.42,5.55,0.28,8.42-0.3c3.17-0.64,6.33-1.27,9.54-1.79
			c6.18-1,13.14-1.69,17.1-7.28C684.73,472.13,683.07,469.1,680.7,467.45z"/>
		<path class="st15" d="M680.74,470.48c-1.22,0.2-2.48,0.16-3.71-0.02c-1.33-0.2-2.65-0.57-3.87-1.16c-1.13-0.55-2.2-1.31-2.95-2.33
			c-0.1-0.14-0.19-0.28-0.28-0.43c-0.08-0.13-0.07-0.24-0.12-0.38c-0.09-0.25-0.34-0.39-0.6-0.32c-0.03,0.01-0.07,0.02-0.1,0.03
			c-0.34,0.1-0.45,0.46-0.31,0.76c1.52,3.28,5.86,4.85,9.6,4.99c-1.7,0.94-3.34,2.3-4.51,3.54c-0.85,0.9-1.47,1.98-1.92,3.13
			c-0.44,1.11-0.44,1.37-0.73,2.52c-0.24,0.93,0.7,1.04,0.95,0.17c0.68-2.34,0.7-3.22,2.43-5.08c1.53-1.65,4.15-3.68,6.39-4.24
			c0.28-0.07,0.38-0.29,0.36-0.51C681.43,470.82,681.17,470.41,680.74,470.48z"/>
	</g>
	<g>
		<path class="st8" d="M671.52,504.38c-2.67-7.8-12.52-7.71-18.78-10.41c-1.72-0.74-3.52-1.05-5.27-1.7
			c-2.98-1.1-7.08-2.3-10.1-0.47c-2.27,1.38-3.62,4.13-2.31,6.64c1.47,2.83,4.31,3.5,6.97,4.73c2.94,1.35,5.86,2.72,8.75,4.19
			c5.58,2.84,11.6,6.4,18.1,4.23C672,510.54,672.45,507.11,671.52,504.38z"/>
		<path class="st15" d="M669.82,507.17c-0.21-0.54-0.47-1.15-0.5-1.7c-0.07-1.53-1.5-2.87-2.36-4.02c-0.55-0.73-0.98-1.55-1.5-2.32
			c-0.47-0.7-1.4-1.84-1.64-2.67c-0.19-0.64-1.19-0.36-0.99,0.27c0.2,0.67,0.68,1.21,1.05,1.8c0.57,0.91,1.07,1.88,1.64,2.77
			c0.69,1.08,1.91,2.19,2.5,3.43c-2.48-1.55-6.48-1.46-9.17-1.07c-2.55,0.37-5.58,1.83-6.34,4.49c-0.18,0.64,0.81,0.91,0.99,0.27
			c0.7-2.47,3.86-3.65,6.19-3.77c1.49-0.07,2.99-0.17,4.48-0.04c0.74,0.07,1.49,0.18,2.19,0.42c0.34,0.11,0.66,0.25,0.97,0.43
			c0.67,0.39,1.14,0.82,1.36,1.58c0.16,0.58,0.67,1.32,0.65,1.92c-0.02,0.66,1.01,0.66,1.03,0c0.02-0.55-0.28-1.05-0.46-1.55
			C669.89,507.34,669.86,507.26,669.82,507.17z"/>
	</g>
	<path class="st22" d="M369.49,301.82c0.17-0.59-0.19-1.6-0.38-2.14c-0.9-2.52-2-4.76-3.44-7.04c-0.46-0.76-0.95-1.51-1.49-2.21
		c-0.28-0.36-0.66-0.96-1.12-1.11l-0.13-0.03l-1.29-2.63l0.02-0.05c0.27-0.65-0.49-3.88-1.74-6.72c-0.67-1.52-1.46-2.99-2.26-4.45
		c-0.39-0.71-0.78-1.43-1.17-2.15c-0.29-0.55-1.7-0.42-1.59,0.19c0.06,0.32,0.54,1.43,0.54,1.43s-2.48,1.43-2.86,1.77l-0.14,0.13
		c-0.97,0.88-2.6,2.34,0.02,7.79c0.68,1.4,1.69,2.35,3.02,2.81c1.77,0.62,3.67,0.24,4.83-0.13c0.8,0.55,1.25,1.59,1.39,2.6
		c-0.97,0.6-2.37,1.69-3.01,3.29c-0.52,1.28-0.46,2.66,0.15,4.11c0.14,0.34,0.32,0.75,0.54,1.2c0.77,1.6,2.02,3.58,3.88,3.72
		c1.48,0.11,3.07-0.42,4.47-0.95c0.05,0.1,0.1,0.2,0.14,0.3c0.17,0.36,0.33,0.83,0.8,0.86C369,302.42,369.4,302.14,369.49,301.82z"
		/>
	<g>
		<path class="st20" d="M349.58,277.15c-0.24,0-2.59-0.16-11.36-5.62c-8.91-5.55-14.48-15.43-14.53-15.53
			c-0.13-0.24-0.05-0.54,0.19-0.68c0.24-0.13,0.55-0.05,0.68,0.19c0.05,0.1,5.51,9.76,14.19,15.17c8.5,5.3,10.75,5.47,10.84,5.47
			c0.27,0.01,0.49,0.24,0.48,0.51C350.06,276.93,349.85,277.15,349.58,277.15z"/>
	</g>
	<g>
		<path class="st20" d="M347.91,279.21c-0.05,0-0.11-0.01-0.16-0.03l-11.12-3.87c-0.26-0.09-0.4-0.38-0.31-0.64
			c0.09-0.26,0.38-0.4,0.64-0.31l11.12,3.87c0.26,0.09,0.4,0.38,0.31,0.64C348.31,279.09,348.12,279.21,347.91,279.21z"/>
	</g>
	<g>
		<path class="st20" d="M360.29,275.86c-0.03,0-0.06,0-0.09-0.01c-0.27-0.05-0.45-0.31-0.4-0.58c0.01-0.04,0.63-3.52,0.86-9.09
			c0.23-5.53-1.87-13.05-1.89-13.13c-0.07-0.27,0.08-0.54,0.35-0.62c0.27-0.07,0.54,0.08,0.62,0.35c0.09,0.31,2.16,7.75,1.92,13.44
			c-0.23,5.64-0.87,9.19-0.88,9.23C360.73,275.69,360.52,275.86,360.29,275.86z"/>
	</g>
	<g>
		<path class="st20" d="M400.99,355.74c-0.04,0-0.08,0-0.12-0.01c-0.27-0.07-0.43-0.34-0.37-0.6c0.02-0.1,2.48-10.27,2.31-18.23
			c-0.17-7.96-1.13-12.13-1.14-12.17c-0.06-0.27,0.1-0.54,0.37-0.6c0.27-0.07,0.54,0.1,0.6,0.37c0.04,0.17,1,4.3,1.17,12.38
			c0.17,8.1-2.31,18.39-2.34,18.49C401.42,355.59,401.22,355.74,400.99,355.74z"/>
	</g>
	<g>
		<path class="st20" d="M399.92,332.4c-0.25,0-0.46-0.18-0.5-0.43l-2.28-16.86c-0.04-0.27,0.15-0.53,0.43-0.56
			c0.27-0.05,0.52,0.15,0.56,0.43l2.28,16.86c0.04,0.27-0.15,0.53-0.43,0.56C399.96,332.4,399.94,332.4,399.92,332.4z"/>
	</g>
</g>
<path class="st6" d="M517.2,201.6c-0.64,0-0.64,1,0,1C517.84,202.6,517.85,201.6,517.2,201.6z"/>
</svg>
