<?xml version="1.0" encoding="utf-8"?>
<!-- Generator: Adobe Illustrator 24.1.3, SVG Export Plug-In . SVG Version: 6.00 Build 0)  -->
<svg version="1.1" id="레이어_1" xmlns="http://www.w3.org/2000/svg" xmlns:xlink="http://www.w3.org/1999/xlink" x="0px"
	 y="0px" viewBox="0 0 841.89 595.28" style="enable-background:new 0 0 841.89 595.28;" xml:space="preserve">
<style type="text/css">
	.st0{fill:#FFFFFF;}
	.st1{fill:#FBF9F7;}
	.st2{fill:#878484;}
	.st3{fill:#736D6D;}
	.st4{fill:#DFCBC2;}
	.st5{fill:#77849C;}
	.st6{fill:#FCE8C4;}
	.st7{fill:#F29A87;}
	.st8{fill:#F6D0B0;}
	.st9{fill:#4A4747;}
	.st10{fill:#D49C80;}
	.st11{fill:#ECDFD9;}
	.st12{fill:#965942;}
	.st13{fill:#262730;}
	.st14{fill:#F3A287;}
	.st15{fill:#AC7459;}
	.st16{fill:#7D442F;}
	.st17{fill:#D4654C;}
	.st18{fill:#6A3939;}
	.st19{opacity:0.33;}
	.st20{fill:#332723;}
	.st21{fill:#D2C1B9;}
	.st22{fill:#3D6554;}
	.st23{fill:#916254;}
	.st24{fill:#749F85;}
</style>
<path class="st0" d="M-1524.98,723.34"/>
<path class="st0" d="M2452.74,723.34"/>
<g>
	<g>
		<path class="st1" d="M764.57,270.19c-0.06-0.31-0.12-0.61-0.19-0.91c-3.96-19.5-10.01-38.74-17.09-56.89
			c-11.44-29.32-26.04-58.43-44.97-83.56c-4.54-6.03-9.33-11.82-14.39-17.34c-0.27-0.3-0.55-0.61-0.83-0.91
			c-3.85-4.16-7.86-8.16-12.03-11.96c-0.28-0.27-0.57-0.53-0.86-0.79c-11.14-10.06-23.41-18.79-36.94-25.76
			c-27.45-14.13-57.84-19.93-88.82-22.33c-0.3-0.03-0.6-0.05-0.9-0.06c-18.42-1.4-37.05-1.6-55.39-1.66c-1.27,0-2.54-0.01-3.81-0.01
			c-1.27-0.01-2.55-0.01-3.83-0.01c-19.14,0.03-38.45,0.29-57.68,1.23c-2.04,0.1-4.08,0.21-6.11,0.33
			c-58.38,3.29-115.92,13.25-166.09,42.09c-2.18,1.25-4.32,2.53-6.45,3.84c-2.68,1.64-5.32,3.34-7.93,5.08
			c-12.52,8.32-24.24,17.66-35.32,27.71c-13.69,12.44-26.4,25.98-38.44,40.14c-13.06,15.37-25.33,31.47-37.17,47.65
			c-1.8,2.47-3.6,4.93-5.38,7.4c-0.36,0.49-0.73,0.99-1.08,1.48c-16.54,22.9-28.79,48.23-34.19,76.06
			c-0.36,1.88-0.71,3.75-1.03,5.64c-4.79,27.72-5.35,56.31-0.37,84.04c2.53,14.12,6.54,27.99,12.06,41.21
			c4.51,10.81,10.07,21.2,16.66,30.96c0.66,0.98,1.34,1.96,2.02,2.93c20.06,28.36,48.21,50.14,79.79,65.05
			c1.5,0.72,3.02,1.41,4.53,2.09c13.71,6.13,28.01,10.98,42.52,14.53c38.38,9.39,78.28,10.33,117.7,6.34
			c1.51-0.15,3.03-0.31,4.53-0.48c11.5-1.27,22.96-2.96,34.32-4.96c55.24-9.76,108.75-26.92,161.5-46.27
			c1.51-0.55,3.02-1.12,4.53-1.67c2.82-1.04,5.64-2.09,8.45-3.15c1.51-0.56,3.03-1.12,4.53-1.7c15.61-5.87,31.17-11.88,46.69-17.89
			c31.59-12.24,64.53-25.63,91.21-45.78c2.34-1.76,4.62-3.58,6.86-5.45c0.29-0.24,0.69-0.65,1.17-1.21c0.14-0.16,0.3-0.34,0.46-0.53
			c0.82-0.97,1.84-2.26,2.99-3.76c0.13-0.16,0.25-0.33,0.38-0.5c3.22-4.23,7.34-9.98,10.97-15.17c1.65-2.37,3.19-4.62,4.49-6.55
			c1.06-1.58,1.96-2.94,2.64-4C771.64,358.19,773.27,313.6,764.57,270.19z"/>
		<g>
			<path class="st2" d="M718.36,431.9c-19.44,14.69-42.21,25.78-65.36,35.45c-0.73,0.3-1.45,0.61-2.18,0.91
				c-5.34,2.21-10.7,4.35-16.03,6.44c-0.77,0.31-1.54,0.61-2.31,0.91c-1.79,0.7-3.55,1.39-5.33,2.08
				c-15.53,6.02-31.08,12.03-46.69,17.89c-1.5,0.57-3.02,1.13-4.53,1.7c-2.81,1.05-5.63,2.1-8.45,3.15
				c-1.51,0.55-3.02,1.12-4.53,1.67c-18.67,6.84-37.42,13.42-56.32,19.48c-0.94,0.31-1.89,0.61-2.83,0.91
				c-2.89,0.92-5.79,1.83-8.69,2.72c-0.63,0.2-1.24,0.39-1.87,0.58c-30.16,9.25-60.7,17.09-91.78,22.58
				c-11.36,2-22.82,3.69-34.32,4.96c-0.09,0.01-0.17,0.02-0.26,0.03c-0.47,0.05-0.95,0.11-1.43,0.16c-0.94,0.1-1.89,0.2-2.84,0.29
				c-31.56,3.2-63.41,3.24-94.55-1.7c-0.36-0.05-0.73-0.11-1.11-0.17c-7.4-1.2-14.75-2.67-22.05-4.46
				c-14.51-3.55-28.82-8.4-42.52-14.53c-1.51-0.68-3.03-1.37-4.53-2.09c-1.94-0.92-3.87-1.86-5.79-2.83
				c-0.28-0.15-0.56-0.29-0.84-0.44c-3.19-1.62-6.34-3.33-9.44-5.1c-0.53-0.3-1.05-0.6-1.58-0.91
				c-16.92-9.84-32.48-21.85-45.83-35.94c-0.22-0.22-0.42-0.44-0.62-0.66c-2.85-3.02-5.58-6.14-8.2-9.36
				c-0.25-0.3-0.5-0.6-0.73-0.91c-3.09-3.82-6.01-7.76-8.77-11.84c-6.59-9.75-12.15-20.14-16.66-30.96H718.36z"/>
			<path class="st3" d="M688.13,431.58c-0.17-0.18-0.46-0.18-0.64,0l-0.32,0.32l-36.36,36.36c0.73-0.3,1.46-0.61,2.18-0.91
				l35.14-35.14c0.09-0.08,0.14-0.2,0.14-0.32C688.27,431.78,688.22,431.66,688.13,431.58z M545.57,474.69l42.48-42.48
				c0.09-0.08,0.14-0.2,0.14-0.32c0-0.12-0.05-0.24-0.14-0.32c-0.17-0.18-0.46-0.18-0.63,0l-0.32,0.32l-42.81,42.8h-98.8
				l42.48-42.48c0.09-0.08,0.14-0.2,0.14-0.32c0-0.12-0.05-0.24-0.14-0.32c-0.17-0.18-0.46-0.18-0.63,0l-0.32,0.32l-42.81,42.8
				h-98.79l42.48-42.48c0.08-0.08,0.13-0.2,0.13-0.32c0-0.12-0.05-0.24-0.13-0.32c-0.18-0.18-0.47-0.18-0.64,0l-0.32,0.32
				l-42.81,42.8h-98.79l42.48-42.48c0.08-0.08,0.13-0.2,0.13-0.32c0-0.12-0.05-0.24-0.13-0.32c-0.18-0.18-0.46-0.18-0.64,0
				l-0.32,0.32l-42.81,42.8h-98.79l42.75-42.8h-1.28l-42.75,42.8h-19.2c0.24,0.31,0.48,0.61,0.73,0.91h17.56l-9.36,9.36
				c0.2,0.22,0.4,0.44,0.62,0.66l10.02-10.02h98.79l-45.95,45.96h-17.02c0.53,0.31,1.05,0.61,1.58,0.91h14.54l-5.1,5.1
				c0.28,0.15,0.56,0.29,0.84,0.44l5.54-5.54h98.8l-29.44,29.44c0.37,0.06,0.74,0.13,1.11,0.17l29.62-29.62h98.79l-31.02,31.03
				c0.48-0.05,0.96-0.11,1.43-0.16l30.88-30.87h98.79l-3.3,3.3c0.63-0.19,1.24-0.38,1.87-0.58l2.72-2.72h5.97
				c0.94-0.3,1.89-0.6,2.83-0.91h-7.9l45.95-45.96h87.8c0.77-0.3,1.54-0.6,2.31-0.91H545.57z M297.28,521.56h-98.8l45.96-45.96
				h98.79L297.28,521.56z M397.35,521.56h-98.79l45.96-45.96h98.79L397.35,521.56z M497.43,521.56h-98.79l45.95-45.96h98.8
				L497.43,521.56z"/>
		</g>
		<path class="st4" d="M748.32,394.74c-3.35,5.25-12.22,18-18.09,25.72c-0.13,0.17-0.25,0.34-0.38,0.5
			c-1.15,1.5-2.18,2.79-2.99,3.76c-0.16,0.19-0.32,0.36-0.46,0.53c-0.48,0.55-0.88,0.96-1.17,1.21c-2.24,1.87-4.52,3.69-6.86,5.45
			H402.03l18.71-382.33c2.03-0.12,4.07-0.23,6.11-0.33c19.24-0.94,38.54-1.21,57.68-1.23c1.28,0,2.56,0,3.83,0.01
			c1.27,0,2.54,0.01,3.81,0.01c18.34,0.06,36.97,0.26,55.39,1.66c0.3,0.02,0.6,0.04,0.9,0.06c30.98,2.4,61.37,8.19,88.82,22.33
			c13.53,6.97,25.8,15.7,36.94,25.76c0.29,0.25,0.58,0.52,0.86,0.79c4.17,3.8,8.18,7.8,12.03,11.96c0.28,0.3,0.56,0.61,0.83,0.91
			c5.06,5.52,9.84,11.31,14.39,17.34c18.93,25.13,33.53,54.25,44.97,83.56c7.08,18.15,13.13,37.39,17.09,56.89
			c0.07,0.3,0.13,0.6,0.19,0.91C773.27,313.6,771.64,358.19,748.32,394.74z"/>
		<g>
			<path class="st4" d="M348.91,95.5l-9.08,184.37H121.19l2.78-56.39c1.78-2.47,3.57-4.93,5.38-7.4
				c11.84-16.18,24.1-32.28,37.17-47.65c12.04-14.16,24.75-27.7,38.44-40.14c11.08-10.05,22.8-19.39,35.32-27.71
				c2.61-1.74,5.25-3.44,7.93-5.08H348.91z"/>
			<path class="st0" d="M343.3,100.58l-8.25,174.75H126.55l2.8-59.25c11.84-16.18,24.1-32.28,37.17-47.65
				c12.04-14.16,24.75-27.7,38.44-40.14c11.08-10.05,22.8-19.39,35.32-27.71H343.3z"/>
			<path class="st5" d="M324.43,119.06c-6.01-7.99-15.59-9.36-24.5-6.21c-4.8,1.7-9.81,3.58-14.07,6.42
				c-5.16,3.44-9.26,7.52-15.37,9.36c-10.89,3.26-22.31-0.51-33.31,2.28c-6.1,1.54-15.37,5.4-21.28,11
				c-2.91,2.75-5.01,5.92-5.51,9.44c-0.87,6.1,4.58,11.69,10.43,13.56c1.39,0.45,2.8,0.69,4.15,0.67
				c10.42-0.11,15.57-12.65,22.67-18.38c10.11-8.15,22.73-9.94,35.33-9.97c11.24-0.03,24.3,2.11,35.14-1.68
				C325.32,133.02,329.43,125.72,324.43,119.06z"/>
		</g>
		<g>
			<path class="st6" d="M228.39,157.41l-7.57,7.48l-28.17,27.85l-13.03-12.11l-4.37-4.07l-8.75-8.13
				c12.04-14.16,24.75-27.7,38.44-40.14l10.95,13.61L228.39,157.41z"/>
			
				<rect x="157.71" y="179.4" transform="matrix(0.9489 0.3154 -0.3154 0.9489 68.2308 -40.8904)" class="st7" width="5.44" height="21.87"/>
			
				<rect x="233.33" y="108.49" transform="matrix(-1.836970e-16 1 -1 -1.836970e-16 355.4792 -116.6261)" class="st7" width="5.44" height="21.87"/>
			
				<rect x="165.53" y="152.41" transform="matrix(0.9489 0.3154 -0.3154 0.9489 73.6514 -42.5414)" class="st7" width="5.44" height="107.7"/>
			
				<rect x="304.1" y="158.97" transform="matrix(0.9489 0.3154 -0.3154 0.9489 74.9535 -87.1899)" class="st7" width="5.44" height="57.95"/>
			<polygon class="st6" points="276.09,165.57 307.34,164.58 321.56,187.95 291.22,203.77 257.32,192.74 			"/>
			<path class="st5" d="M228.41,187.61c-5.75-0.83-11.18,0.28-16.34,2.81c-3.5,1.72-6.81,4.01-10.66,4.86
				c-2.85,0.63-5.63,0.23-8.06,2.08c-3.08,2.36-4.68,7.47-4.4,11.25c0.36,4.9,5.07,4.74,8.99,4.79c15.97,0.18,32.11-3.62,47.82-6.23
				c-0.05,0.21-0.09,0.43-0.15,0.64c-0.32,1.12,1.43,1.6,1.74,0.48C250.45,197.13,237.94,189,228.41,187.61z"/>
		</g>
		<path class="st0" d="M235.55,437.2l-25.25,28.58h-92.27c-0.68-0.97-1.36-1.95-2.02-2.93c-6.59-9.75-12.15-20.14-16.66-30.96
			c-1.02-2.44-1.99-4.9-2.9-7.37c-0.11-0.31-0.22-0.61-0.33-0.91c-3.89-10.69-6.83-21.73-8.83-32.93c-0.7-3.89-1.29-7.79-1.77-11.7
			c-0.04-0.31-0.07-0.61-0.11-0.91c-1.7-14.16-2.01-28.47-1.12-42.71c0.01-0.31,0.04-0.61,0.05-0.91
			c0.61-9.33,1.73-18.62,3.32-27.81h142.22L235.55,437.2z"/>
		<g>
			<path class="st4" d="M208.96,462.16h-0.91l-0.18-37.63l-0.01-0.91l-0.22-44.64l-0.01-0.91l-0.21-42.71H84.29
				c0.01-0.31,0.04-0.61,0.05-0.91h123.97L208.96,462.16z"/>
		</g>
		<g>
			<path class="st4" d="M207.87,378.08v0.91H85.53c-0.04-0.31-0.07-0.61-0.11-0.91H207.87z"/>
		</g>
		<g>
			<path class="st4" d="M207.87,423.62v0.91H96.45c-0.11-0.31-0.22-0.61-0.33-0.91H207.87z"/>
		</g>
		<path class="st4" d="M149.87,359.61h-36.66c-0.95,0-1.73-0.77-1.73-1.73v0c0-0.95,0.77-1.73,1.73-1.73h36.66
			c0.95,0,1.73,0.77,1.73,1.73v0C151.59,358.83,150.82,359.61,149.87,359.61z"/>
		<path class="st4" d="M149.9,403h-36.72c-0.94,0-1.7-0.76-1.7-1.7v0c0-0.94,0.76-1.7,1.7-1.7h36.72c0.94,0,1.7,0.76,1.7,1.7v0
			C151.59,402.24,150.83,403,149.9,403z"/>
		<path class="st4" d="M150.03,446.29h-36.98c-0.86,0-1.57-0.7-1.57-1.57l0,0c0-0.86,0.7-1.57,1.57-1.57h36.98
			c0.86,0,1.57,0.7,1.57,1.57l0,0C151.59,445.59,150.89,446.29,150.03,446.29z"/>
		<g>
			<path class="st8" d="M109.08,324.98h15.55c5.5-2.83,9.27-8.54,9.27-15.15c0-9.41-2.84-15.65-17.04-15.65
				c-13.9,0-17.04,6.24-17.04,15.65C99.82,316.44,103.59,322.16,109.08,324.98z"/>
			<path class="st9" d="M127.13,297.84c0,0.46-0.74,0.89-1.99,1.23c-0.66,0.18-1.47,0.34-2.38,0.47c-1.09,0.15-2.33,0.26-3.67,0.32
				c-0.6,0.04-1.21,0.05-1.85,0.05h-0.37c-1.72,0-3.35-0.08-4.78-0.24c-0.89-0.09-1.7-0.22-2.4-0.35c-1.91-0.38-3.09-0.91-3.09-1.49
				c0-0.5,0.86-1.05,2.3-1.51c0.53-0.18,1.16-0.34,1.86-0.49c1.66-0.35,3.7-0.58,5.91-0.6h0.2c0.61,0,1.2,0.02,1.78,0.05
				c2.4,0.13,4.51,0.5,6.03,0.98c0.68,0.21,1.24,0.44,1.66,0.68C126.84,297.25,127.13,297.55,127.13,297.84z"/>
			<path class="st10" d="M110.75,295.84c-0.16,1.35,0.13,2.66,1.33,3.84c-0.89-0.09-1.7-0.22-2.4-0.35
				c-0.34-0.64-0.57-1.35-0.71-2.14c-0.05-0.29-0.08-0.58-0.08-0.86c-0.15-2.91,1.5-5.08,2.23-7.85c1.37-5.24-4.12-5-4.57-9.23
				c-0.24-2.26,1.63-4.02,1.82-6.18c0.18-2.05-0.82-4.02-2.16-5.52c-0.77-0.87,0.51-2.16,1.28-1.29c1.49,1.67,3.12,3.54,3.06,5.92
				c-0.05,2.29-2.28,4.02-2.04,6.28c0.13,1.22,0.98,2.47,1.94,3.2c0.34,0.26,0.67,0.53,1.01,0.79c1.34,1.83,2.23,3.29,1.8,5.69
				C112.82,290.72,111.03,293.37,110.75,295.84z"/>
			<path class="st10" d="M120.09,286.48c-0.24,0.86-0.64,0.89-0.95,1.71c-0.98,2.6-1.01,4.6-0.51,7.1c0.04,0.16,0.07,0.34,0.11,0.52
				c0.32,1.45,0.5,2.72,0.34,4.05c-0.6,0.04-1.21,0.05-1.85,0.05c0.23-1.62-0.17-3.14-0.57-4.68c-0.33-1.27-0.65-2.56-0.63-3.93
				c0.04-1.89,0.84-2.5,1.51-4.07c1.51-3.51-1.37-4.6-1.66-7.62c-0.22-2.32,1.4-4.31,1.41-6.63c0.01-1.17,1.82-1.17,1.81,0
				c-0.03,3.6-1.91,5.14-0.15,9.12C119.63,283.63,120.56,284.76,120.09,286.48z"/>
			<path class="st10" d="M134.62,268.36c-3.44,2.78-1.89,7.34-3.62,10.95c-1.69,3.52-4.04,3.53-3.93,8.69c0.05,2.5,0.73,4.44,0,7.01
				c-0.19,0.68-0.45,1.32-0.74,1.94c-0.35,0.73-0.76,1.43-1.19,2.12c-0.66,0.18-1.47,0.34-2.38,0.47c0.66-1.04,1.35-2.07,1.88-3.18
				c0.02-0.03,0.03-0.06,0.04-0.09c1.25-2.71,1.02-4.98,0.65-7.79c-0.29-2.31-0.38-3.82,0.88-5.83c0.83-1.34,1.93-2.28,2.69-3.7
				c1.12-2.07,1.14-3.89,1.52-6.16c0.4-2.33,1.03-4.19,2.93-5.72C134.24,266.36,135.53,267.64,134.62,268.36z"/>
		</g>
		<g>
			<path class="st0" d="M748.32,394.74c-3.35,5.25-12.22,18-18.09,25.72c-0.13,0.17-0.25,0.34-0.38,0.5
				c-1.15,1.5-2.18,2.79-2.99,3.76c-0.16,0.19-0.32,0.36-0.46,0.53c-0.48,0.55-0.88,0.96-1.17,1.21H409.19l1.12-23.78l1.38-29.53
				l4.82-102.94l0.05-0.91l7.39-157.8l0.04-0.91l2.87-61.34c19.24-0.94,38.54-1.21,57.68-1.23c1.28,0,2.56,0,3.83,0.01
				c1.27,0,2.54,0.01,3.81,0.01c18.34,0.06,36.97,0.26,55.39,1.66c0.3,0.02,0.6,0.04,0.9,0.06c30.98,2.4,61.37,8.19,88.82,22.33
				c0.58,0.3,1.15,0.6,1.72,0.91c7.98,4.22,15.5,9.07,22.62,14.44c4.35,3.28,8.56,6.75,12.6,10.42c0.29,0.25,0.58,0.52,0.86,0.79
				c4.17,3.8,8.18,7.8,12.03,11.96c0.28,0.3,0.56,0.61,0.83,0.91c5.06,5.52,9.84,11.31,14.39,17.34
				c15.89,21.09,28.74,45,39.21,69.48c2.01,4.68,3.93,9.38,5.77,14.09c7.08,18.15,13.13,37.39,17.09,56.89
				c0.07,0.3,0.13,0.6,0.19,0.91c0.98,4.86,1.82,9.75,2.52,14.62C772.64,323.49,769.03,362.29,748.32,394.74z"/>
		</g>
		<path class="st1" d="M638.99,72.98c-2.72,1.35-5.38,2.82-7.99,4.42c-15.04,9.28-25,22.65-29.73,39.66
			c-5.04,18.11-5.38,38.62-16.72,54.39c-12.04,16.76-33.07,22.48-50.09,32.51c-7.49,4.4-14.7,9.72-20.02,16.66
			c-5.8,7.57-7.8,16-8.47,25.37c-0.73,10.27-1.88,19.74-8.66,27.89c-4.97,5.96-11.43,10.46-17.9,14.64
			c-11.76,7.58-25.24,14.56-32.83,26.82c-4.73,7.62-5.84,16.53-7.54,25.16c-2.25,11.41-6.66,20.07-16.73,26.42
			c-3.47,2.19-7.03,4.22-10.62,6.2l-1.38,29.53c2.9,3.44,5.92,6.8,9.03,10.1c4.41,4.67,8.94,9.22,13.54,13.68h38.82
			c0.92-4.2,1.68-8.39,2.47-12.36c2.39-12.02,4.55-24.3,9.75-35.5c9.87-21.27,28.69-33.77,48.07-45.43
			c8.78-5.28,12.27-12.23,12.55-22.42c0.31-11.68-0.21-23.24,1.43-34.86c1.58-11.15,4.83-22.27,11.31-31.61
			c5.74-8.27,13.81-14.41,22.3-19.63c14.75-9.05,31.84-15.69,43.67-28.79c16.39-18.15,12.37-42.49,14.3-64.92
			c1.18-13.81,5.76-26.06,15.56-36.04c2.66-2.71,5.51-5.19,8.5-7.49C654.49,82.05,646.97,77.21,638.99,72.98z"/>
		<path class="st1" d="M764.57,270.19c-0.06-0.31-0.12-0.61-0.19-0.91c-3.96-19.5-10.01-38.74-17.09-56.89
			c-1.84-4.7-3.75-9.41-5.77-14.09c-0.17,0.48-0.34,0.96-0.51,1.45c-4.16,12.39-4.05,25.12-5.77,37.94
			c-1.84,13.71-7.67,26.36-17.46,36.22c-17.22,17.34-43.04,24.96-56.66,46.13c-7.16,11.12-6.89,24.29-11.37,36.36
			c-4.66,12.55-14.57,22.12-25.2,29.78c-9.86,7.1-20.52,13.76-25.31,25.49c-1.9,4.66-2.96,9.75-4.11,14.77h77.28
			c6.31-8.97,14.2-17.04,22.16-24.31c17.37-15.85,37.07-30.69,47.69-52.28c4.91-9.99,6.55-20.73,8.49-31.57
			c2.27-12.62,5.97-23.51,15.42-32.63c0.29-0.28,0.59-0.57,0.89-0.83C766.39,279.94,765.55,275.05,764.57,270.19z"/>
		<path class="st4" d="M764.38,269.29h-98.41l8.42-157.8h13.54c-0.27-0.3-0.55-0.61-0.83-0.91h-12.66l0.63-11.96
			c-0.28-0.27-0.57-0.53-0.86-0.79l-0.68,12.75H545.2l3.25-60.84c-0.3-0.03-0.6-0.05-0.9-0.06l-3.25,60.9H421.16v0.91h123.08
			l-8.42,157.8H414v0.91h121.77l-8.34,156.26l-0.06,1.2l0.9,0.05l0.06-1.24l8.35-156.26h128.34l-8.35,156.26l-0.06,1.2l0.91,0.05
			l0.06-1.24l8.35-156.26h98.65C764.51,269.89,764.45,269.59,764.38,269.29z M665.06,269.29H536.73l8.42-157.8h128.34L665.06,269.29
			z"/>
	</g>
	<g>
		<g>
			<path class="st11" d="M291.35,197.71c0,0,23.86,7.66,38.3,21.2c6.75,6.33,12.82,14.51,19.79,26.14
				c8.84,14.73,4.7,22.02-0.68,26.74c-9.29,8.16-13.74,4.15-22.5,2.95c-8.76-1.21-18.22-3.25-19.43-3.85
				c-1.21-0.6-9.37-49.56-9.37-49.56L291.35,197.71z"/>
		</g>
		<g>
			<path class="st12" d="M332.84,240.45l-7.2-10.36c0,0-3.17,9.14-3.25,9.52c-0.08,0.38-0.38,6.5-0.38,6.5l3,0.81l8.16-0.81
				L332.84,240.45z"/>
		</g>
		<g>
			<path class="st12" d="M325.01,246.92l4.47,7.27c2.03,3.3,6.36,4.28,9.62,2.19h0c4.14-2.67,4.24-8.69,0.18-11.49l-6.44-4.44
				L325.01,246.92z"/>
		</g>
		<g>
			<path class="st13" d="M296.72,521.84c-1.24,0-2.25-0.99-2.27-2.24l-1.87-136.04c-0.02-1.25,0.98-2.28,2.24-2.3
				c1.27,0,2.28,0.98,2.3,2.24l1.87,136.04c0.02,1.25-0.98,2.28-2.23,2.3C296.74,521.84,296.73,521.84,296.72,521.84z"/>
		</g>
		<g>
			<path class="st9" d="M243.26,353.98c0,0-41.21,17.22-45.44,15.11c-4.23-2.12-40.48-141.99-41.69-147.43
				c-1.21-5.44,6.04-10.27,10.58-10.58c4.53-0.3,88.92-20.75,88.92-20.75L243.26,353.98z"/>
		</g>
		<g>
			<path class="st9" d="M237.34,370.6c0,0-31.88,13.22-31.88,15.94s1.66,22.13,3.48,24.25c1.81,2.12,79.73,17.42,79.73,17.42
				l100.06-31.62l1.21-30.22L237.34,370.6z"/>
		</g>
		<g>
			<g>
				<path class="st9" d="M567.47,332.93v167.48c-1.51,0.55-3.02,1.12-4.53,1.67V332.93H567.47z"/>
			</g>
			<g>
				<path class="st9" d="M367.12,487.91v65.4c-1.5,0.17-3.02,0.34-4.53,0.48v-65.88H367.12z"/>
			</g>
			<g>
				<polygon class="st9" points="745.29,350.91 745.29,357.55 364.85,498.89 197.82,450.07 197.82,443.59 				"/>
			</g>
			<g>
				<polygon class="st8" points="197.82,443.59 579.39,320.7 745.29,350.91 365.23,491.01 				"/>
			</g>
			<g>
				<path class="st9" d="M202.36,448.78v84.14c-1.51-0.68-3.03-1.37-4.53-2.09v-82.06H202.36z"/>
			</g>
			<g>
				<path class="st9" d="M745.68,398.74c-1.3,1.93-2.84,4.19-4.49,6.55l-0.32-46.1l-0.05-6.02l4.46-0.03h0.07L745.68,398.74z"/>
			</g>
		</g>
		<g>
			<polygon class="st14" points="527.69,327.74 551.48,330.04 548.48,340.73 519.69,342.06 			"/>
		</g>
		<g>
			<path class="st14" d="M545.21,338.74c0,0,6.81,4.79,10.88,5.42c4.07,0.63,1.67-1.14,8.08-8.03c2.4-2.58,16.4-12.61,17.19-15.81
				c0.79-3.2-3.31-2.88-6.57-0.81c-3.27,2.07-13.96,7.01-17.28,8.52c-3.32,1.51-5.73,1.77-5.73,1.77l-6.06,1.5L545.21,338.74z"/>
		</g>
		<g>
			<path class="st10" d="M311.14,312.45c0,0,83.7-37.71,108.78-37.71c25.08,0,102.78,43.29,102.78,43.29s-3.42,3.74-8.56,9.18
				c-5.14,5.44-10.29,6.84-13.31,6.84c-3.02,0-27.5-1.21-59.23,0s-52.58,5.14-77.66,9.97c-25.08,4.83-42,5.44-59.23,3.63
				c-17.22-1.81-29.29,2.72-33.98-6.95c-4.7-9.67-11.73-9.67-6.1-14.81C270.27,320.74,311.14,312.45,311.14,312.45z"/>
		</g>
		<g>
			<path class="st10" d="M223.13,347.63c0,0,5.04,40.04,34.18,51.67c32.56,12.99,87.03-12.09,108.75-16.92
				c21.72-4.83,40.49-8.46,47.14-11.48c6.65-3.02,23.19-3.63,30.03-3.63c6.84,0,76.54-4.1,76.54-4.1l19.59-34.73
				c0,0-86.87-9.48-120.11-5.27c-33.24,4.21-147.85,9.42-151.28,8.32C264.53,330.41,223.13,347.63,223.13,347.63z"/>
		</g>
		<g>
			<path class="st15" d="M289.21,389.45c-8.45,0-16.5-0.92-23.73-2.78c-16.79-4.31-25.37-23.58-25.46-23.78
				c-0.1-0.23,0-0.5,0.23-0.6c0.23-0.1,0.5,0,0.6,0.23c0.08,0.19,8.5,19.06,24.85,23.26c17.33,4.45,39.38,3.46,60.5-2.7
				c8.98-2.63,22.12-7.92,34.81-13.03c18.35-7.39,35.69-14.37,40.21-13.28c4.83,1.17,7.4,0.11,10.12-1.01
				c1.4-0.58,2.85-1.18,4.65-1.49c1.37-0.24,1.97-0.49,2.41-0.67c1.39-0.58,1.5-0.56,12.26,1.59c14.5,2.9,85.29-2.9,86.01-2.96
				c0.23-0.02,0.47,0.16,0.49,0.41c0.02,0.25-0.16,0.47-0.41,0.49c-2.92,0.24-71.63,5.86-86.26,2.94
				c-10.59-2.11-10.63-2.1-11.73-1.64c-0.48,0.2-1.14,0.48-2.61,0.73c-1.7,0.3-3.1,0.87-4.46,1.43c-2.74,1.13-5.57,2.29-10.68,1.05
				c-4.23-1.03-22.24,6.22-39.65,13.24c-12.72,5.12-25.87,10.42-34.9,13.06C313.99,387.61,301.19,389.45,289.21,389.45z"/>
		</g>
		<g>
			<path class="st15" d="M300.72,364.96c-0.06,0-0.12-0.01-0.18-0.04c-0.23-0.1-0.34-0.37-0.24-0.6
				c0.05-0.13,5.54-12.74,13.95-19.95c8.36-7.17,19.45-13.63,19.56-13.7c0.19-0.11,0.43-0.07,0.57,0.09
				c0.14,0.16,0.15,0.41,0.02,0.58l-10.88,13.97c-0.15,0.2-0.44,0.23-0.64,0.08c-0.2-0.15-0.23-0.44-0.08-0.64l9.38-12.04
				c-3.61,2.22-11.21,7.09-17.34,12.34c-8.25,7.07-13.65,19.49-13.7,19.62C301.06,364.86,300.89,364.96,300.72,364.96z"/>
		</g>
		<g>
			<path class="st11" d="M246.31,185.51c0,0-7.97,2.82-19.25,8.52c-7.73,3.9-8.58,4.73-16.13,8.95c-5.1,2.85-11.18,5.06-14.99,9.7
				c-4.77,5.79-5.67,20.57-5.59,27.47c0.16,14.86,3.44,22.74,5.08,37.52c0.77,6.97,0.89,17.55,5.35,23.43
				c7.55,9.97,9.07,31.43,10.58,38.07c1.51,6.65,11.78,14.81,11.78,14.81s60-16.87,73.59-23.21c10.23-4.77,17.15-13.78,23.88-22.42
				c2.09-2.68,0.34-9.23-0.18-12.23c-2.42-14.2-3.32-4.23-5.44-22.06c-2.12-17.83-1.21-62.4-8.16-69.35
				C299.88,197.76,246.31,185.51,246.31,185.51z"/>
		</g>
		<g>
			<g>
				<path class="st13" d="M301.75,138.83c-0.26-2.6-1.44-5.35-2.96-7.17c-1.05-1.26-2.51-2.47-3.93-3.31
					c-0.53-0.32-1.08-0.34-1.6-0.57c-1.09-0.47-1.26-1.31-1.77-2.26c-1.53-2.9-4.7-4.43-7.86-4.82c-1.6-0.2-5.07-0.36-7.13,0.67
					c-1.99-0.96-4.35-0.53-6.58-0.18c-1.63,0.25-3.27,0.65-4.72,1.48c-1.6,0.91-2.67,2.59-4.38,3.28c-1.52,0.6-3.2,0.27-4.72,0.97
					c-1.12,0.52-2.06,1.36-2.79,2.35c-1.58,2.12-1.99,4.69-2.08,7.26c-0.55,1.93-2.01,3.28-1.8,5.53c0.12,1.27,0.61,2.46,0.92,3.69
					c0.47,1.88,0.27,3.33-0.1,5.2c-0.97,4.81,0.96,9.45,1.11,14.18v0.02c0.05,1.04-0.01,2.09-0.2,3.15
					c-0.11,0.56,0.77,0.81,0.87,0.24c0.22-1.2,0.25-2.38,0.2-3.55c0.48,1.33,1.19,2.46,2.72,2.34c0.32-0.03,0.63-0.05,0.93-0.09
					c2.21-0.24,4.4-0.69,6.64-0.79c1.56-0.07,3.12-0.07,4.67-0.01c0.45,0.02,0.91,0.05,1.36,0.07c4.08,0.26,8.1,1.4,12.19,1.42
					c0.66,0.01,1.32-0.02,1.98-0.09c0.3-0.01,0.61-0.05,0.91-0.09c2.27-0.28,4.49-0.92,6.56-1.88c0.85-0.39,1.87-0.88,2.85-1.48
					c1.7-1.03,3.3-2.38,3.74-4.13c0.56-2.2,0.39-3.95,1.75-6.09c0.98-1.53,1.3-2.87,2.49-4.22
					C304.21,146.38,304.31,142.09,301.75,138.83z"/>
			</g>
			<g>
				<path class="st12" d="M278.56,175.64l-0.73,1.49l-5.67,13.09v0.01l-1.76,4.06l-1.51,3.5c0,0-8.55,1.43-13.91-2.3
					c-5.37-3.73-8.68-9.98-8.68-9.98l7.39-29.95L278.56,175.64z"/>
			</g>
			<g>
				<path class="st12" d="M296.73,146.57c0,0-0.72,4.36-1.88,9.88c-0.01,0.05-0.02,0.08-0.03,0.13c-0.18,0.87-0.38,1.78-0.59,2.7
					c-0.04,0.15-0.07,0.31-0.1,0.46c-1.28,5.61-2.93,11.74-4.72,15.56c-2.64,5.59-5.48,12.25-12.09,14.45
					c-6.69,2.22-13.61-2.14-17.97-9.41c-3.65-6.1-3.75-11.44-3.3-18.35c0.05-0.92-2.68-4.02-2.57-4.92
					c0.94-7.04,2.78-14.59,6.5-20.72c0.64-1.08,1.37-2.14,2.29-2.99c5.45-5.05,17.91-1.99,23.99,0.98
					C292.34,137.3,296.73,146.57,296.73,146.57z"/>
			</g>
			<g>
				<path class="st13" d="M273.04,157.83c0.15-0.65,0.14-1.32-0.36-1.62c-1.34-0.82-2.62,1.58-2.83,2.43
					c-0.12,0.5-0.05,1.17,0.32,1.56c0.4,0.42,0.99,0.34,1.44,0.05c0.4-0.26,0.71-0.65,0.93-1.08
					C272.69,158.86,272.92,158.35,273.04,157.83z"/>
			</g>
			<g>
				<path class="st13" d="M290.24,161.92c0.15-0.65,0.14-1.32-0.36-1.62c-1.34-0.82-2.62,1.58-2.83,2.43
					c-0.12,0.5-0.05,1.17,0.32,1.56c0.4,0.42,0.99,0.34,1.44,0.05c0.4-0.26,0.71-0.65,0.93-1.08
					C289.89,162.95,290.12,162.44,290.24,161.92z"/>
			</g>
			<g>
				<path class="st0" d="M280.4,177.6c0,0-1.71-0.23-4.51-0.91c-2.8-0.68-5.16-1.91-5.16-1.91s0.66,3.04,3.83,4.12
					C277.74,179.98,280.4,177.6,280.4,177.6z"/>
			</g>
			<g>
				<path class="st12" d="M259.36,146.07c-1.37-0.15-2.7,0.21-3.83,0.92h-0.01c-0.21,0.12-0.39,0.25-0.58,0.4
					c-0.16,0.13-0.32,0.26-0.46,0.4c-2.4,2.28-2.77,6.36-1.14,9.26c0.06,0.12,0.14,0.23,0.2,0.34c0.01,0,0.01,0.01,0.01,0.01
					c0.35,0.55,0.78,1.06,1.29,1.49c0.36,0.31,2.08,1.3,2.34,0.55c0.1-0.28,0.19-0.57,0.28-0.86c0.22-0.7,0.39-1.41,0.58-2.12
					c0.3-1.17,0.61-2.33,1.12-3.45c0.61-1.35,1.26-2.64,1.72-4.02c0.14,0.17,0.29,0.35,0.44,0.53c-0.13,0.56,0.78,0.68,0.91,0.12
					C262.66,147.6,261.31,146.29,259.36,146.07z"/>
			</g>
			<g>
				<path class="st16" d="M279.11,173.88c-0.82,0-1.45-0.1-1.52-0.11c-0.25-0.04-0.42-0.27-0.38-0.52c0.04-0.25,0.27-0.42,0.52-0.38
					c0.04,0.01,4.19,0.61,4.7-1.42c0.6-2.39-0.01-8.51-0.01-8.57c-0.02-0.25,0.16-0.47,0.41-0.5c0.26-0.02,0.47,0.16,0.5,0.41
					c0.03,0.26,0.62,6.34-0.01,8.88C282.84,173.54,280.64,173.88,279.11,173.88z"/>
			</g>
			<g>
				<path class="st16" d="M272.17,190.22L272.17,190.22l-1.76,4.07c-2.47-0.63-7.21-2.07-8.15-3.11c-1.36-1.5-1.05-2.64-3.47-5.51
					c-2.42-2.87-0.38-8.68-0.38-8.68s1.44,5.36,5.48,9.01C267.95,189.66,272.17,190.22,272.17,190.22z"/>
			</g>
			<g>
				<path class="st13" d="M277.11,151.46c-1.73-0.69-4.03-0.92-5.1-1.05c-1.33-0.16-3.64-0.3-4.03,1.43
					c-0.3,1.33,4.53,2.08,5.3,2.34c1.31,0.43,3.07,1.41,4.49,1.24c0.82-0.09,1.38-0.58,1.49-1.43
					C279.39,152.77,278.42,151.98,277.11,151.46z"/>
			</g>
			<g>
				<path class="st13" d="M294.73,156.41c-1-0.41-3.12-1.34-4.96-1.6c-1.4-0.19-2.64,0.02-3.11,1.15c-0.33,0.8-0.07,1.5,0.59,1.98
					c1.15,0.83,3.17,0.85,4.51,1.12c0.33,0.06,1.31,0.4,2.37,0.68c0.03-0.15,0.06-0.31,0.1-0.46c0.21-0.92,0.41-1.83,0.59-2.7
					c0.01-0.05,0.02-0.08,0.03-0.13C294.81,156.44,294.77,156.43,294.73,156.41z"/>
			</g>
			<g>
				<path class="st13" d="M296.1,141.84c-1.04-2.46-3.02-3.73-4.8-5.61c-3.83-4.02-9.58-7.39-15.17-8.19
					c-2.86-0.4-5.76,0.33-8.51,1.02c-2.75,0.7-5.74,1.43-8.22,2.86c-4.84,2.79-4.64,9.99-5.41,14.86c-0.22,0.18-0.27,0.55,0.05,0.73
					c0.15,0.08,0.31,0.17,0.45,0.27c0.24,0.15,0.48,0.3,0.7,0.49c1.41,1.05,2.41,2.51,2.84,4.29c0.32,1.28-0.23,2.67,0.02,3.89
					c0.01,0.06,0.03,0.14,0.05,0.2c0.51,1.79,1.96,0.69,2.53-0.35c0.83-1.5,1.07-3.25,1.32-4.91c0.36-2.31,1.75-3.68,2.74-5.67
					c0.71-1.41,1-2.98,1.9-4.31c0.53-0.79,1.19-1.53,1.87-2.24c2.75-1.61,6.28-2.18,9.19-1.18c1.06,0.36,2.03,0.47,3.15,0.56
					c0.77,0.06,1.6,0.03,2.35,0.19c1.41,0.3,2.23,0.91,3.35,1.66c0.99,0.66,1.73,0.9,2.48,1.92c0.61,0.82,0.63,1.21,1.73,1.62
					c1.69,0.63,2.96,0.14,3.64,2.17c0.38,1.12,1.34,2.78,1.85,3.62c0.16,0.25,0.27,0.43,0.33,0.5c-0.15-0.24,0.59,0.02,0.67-0.27
					C297.9,147.19,297.2,144.44,296.1,141.84z"/>
			</g>
		</g>
		<g>
			<path class="st13" d="M199.41,367.88c-0.1,0-0.21-0.04-0.29-0.11c-0.19-0.16-0.22-0.45-0.05-0.64l7.33-8.66L167.47,214.8
				c-0.07-0.24,0.08-0.49,0.32-0.56c0.24-0.07,0.49,0.08,0.56,0.32l39.04,144.14l-7.63,9.02
				C199.67,367.83,199.54,367.88,199.41,367.88z"/>
		</g>
		<g>
			<path class="st13" d="M208.48,357.68c-0.2,0-0.39-0.14-0.44-0.34c-0.06-0.24,0.08-0.49,0.32-0.55l11.54-2.99
				c0.24-0.06,0.49,0.08,0.55,0.32c0.06,0.24-0.08,0.49-0.32,0.55l-11.54,2.99C208.55,357.68,208.52,357.68,208.48,357.68z"/>
		</g>
		<g>
			<path class="st13" d="M287.19,409.58c-0.04,0-0.07,0-0.11-0.01l-78.87-19.11c-0.24-0.06-0.39-0.3-0.33-0.55
				c0.06-0.24,0.31-0.39,0.55-0.33l78.87,19.11c0.24,0.06,0.39,0.3,0.33,0.55C287.58,409.44,287.4,409.58,287.19,409.58z"/>
		</g>
		<g>
			<path class="st13" d="M221.98,416.63c-0.15,0-0.29-0.01-0.44-0.04c-1.23-0.24-2.03-1.43-1.79-2.66l12.11-61.67
				c0.24-1.23,1.44-2.03,2.66-1.79c1.23,0.24,2.03,1.43,1.79,2.66L224.2,414.8C223.99,415.88,223.04,416.63,221.98,416.63z"/>
		</g>
		<g>
			<path class="st13" d="M257.28,424.08c-0.15,0-0.29-0.01-0.44-0.04c-1.23-0.24-2.03-1.43-1.79-2.66l12.11-61.67
				c0.24-1.23,1.44-2.03,2.66-1.79c1.23,0.24,2.03,1.43,1.79,2.66l-12.11,61.67C259.29,423.33,258.34,424.08,257.28,424.08z"/>
		</g>
		<g>
			<g>
				<path class="st9" d="M231.71,338.42c4.72-1.25,15.83,0.42,31.73,2.38c18.67,2.3,39.88,5.02,41.36,6.01
					c1.36,0.91,1.85,10.57,1.39,11.55c-0.59,1.26-11.22,5.9-13.63,6.13c-3,0.28-17.42-1.52-34.37-3.7
					c-18.18-2.34-35.86-4.22-38.16-6.54c-1.97-1.99-2.63-7.77-2.63-9.25S225.99,339.93,231.71,338.42z"/>
			</g>
			<g>
				<path class="st13" d="M290.06,363.17c-0.24,0-0.44-0.18-0.45-0.42l-0.53-7.7l14.62-6.88c0.22-0.11,0.5-0.01,0.6,0.22
					c0.11,0.23,0.01,0.5-0.22,0.6l-14.05,6.62l0.49,7.08c0.02,0.25-0.17,0.47-0.42,0.48C290.08,363.17,290.07,363.17,290.06,363.17z
					"/>
			</g>
			<g>
				<path class="st13" d="M287.19,355.19c-0.02,0-0.03,0-0.05,0l-67.08-6.8c-0.25-0.03-0.43-0.25-0.41-0.5
					c0.03-0.25,0.24-0.42,0.5-0.41l67.08,6.8c0.25,0.03,0.43,0.25,0.41,0.5C287.62,355.02,287.42,355.19,287.19,355.19z"/>
			</g>
		</g>
		<g>
			<path class="st13" d="M295.79,514.43l-44.27,10.25c-0.46,0.11-0.84,0.44-1,0.88l0,0c-0.36,0.99,0.45,2,1.49,1.87l44.71-5.61
				L295.79,514.43z"/>
		</g>
		<g>
			<path class="st13" d="M297.95,514.43l44.27,10.25c0.46,0.11,0.84,0.44,1,0.88l0,0c0.36,0.99-0.45,2-1.49,1.87l-44.71-5.61
				L297.95,514.43z"/>
		</g>
		<g>
			<path class="st13" d="M545.21,342.43c0,0,1.94-1.71,3.74-3.04c1.8-1.33,2.46-4.74,1.7-6.13c-0.77-1.38-2.1-3.35-0.79-3.72
				c1.31-0.37,8.29-2.83,11.24-4.52c2.95-1.69,16.39-11.06,17.07-10.96s5.59,2.74,6.04,3.32c0.45,0.59-14.07,16.78-14.84,17.47
				c-0.77,0.69-4.1,0.95-3.91,1.57c0.19,0.61,0.71,1.84,0.28,2.65s-8.01,8.71-9.63,9.01C554.49,348.39,545.21,342.43,545.21,342.43z
				"/>
		</g>
		<g>
			<path class="st13" d="M294.85,521.53l11.77,29.24c0.42,1.09,1.98,1.01,2.29-0.12l0,0c0.06-0.21,0.06-0.44-0.01-0.66l-11.89-40.7
				L294.85,521.53z"/>
		</g>
		<g>
			<g>
				<polygon class="st14" points="514.14,327.2 526.85,338.07 518.22,345.05 504.57,335.76 				"/>
			</g>
			<g>
				<path class="st14" d="M516.7,341.54c0,0,2.78,7.84,5.74,10.71c2.96,2.87,5.94,0.88,15.16-1.03c3.44-0.71,16.75-1.65,19.25-3.8
					c2.5-2.15-1.03-4.26-4.89-4.46c-3.86-0.2-15.45-2.36-19.03-3.05c-3.58-0.69-5.7-1.87-5.7-1.87l-5.81-2.28L516.7,341.54z"/>
			</g>
		</g>
		<g>
			<path class="st9" d="M517.32,345.33c0,0,2.56-0.39,4.79-0.53c2.23-0.15,4.64-2.66,4.74-4.24c0.1-1.58,0.05-3.96,1.35-3.56
				s8.5,2.1,11.9,2.27c3.4,0.17,19.77-0.45,20.28,0c0.51,0.45,3.23,5.32,3.29,6.06s-20.91,6.52-21.93,6.69
				c-1.02,0.17-3.97-1.41-4.14-0.79c-0.17,0.62-0.4,1.93-1.19,2.38s-11.44,3-12.97,2.38C521.91,355.36,517.32,345.33,517.32,345.33z
				"/>
		</g>
		<g>
			<path class="st15" d="M495.5,342.52l-0.15-0.01c-0.77-0.05-19.02-1.31-26.96-6.36c-4.9-3.12-8.28-3.77-12.18-4.52
				c-2.35-0.45-5.01-0.96-8.34-2.07c-8.81-2.94-29.4-18.23-30.27-18.88c-0.2-0.15-0.24-0.43-0.09-0.63c0.15-0.2,0.43-0.24,0.63-0.09
				c0.21,0.16,21.35,15.85,30.01,18.74c3.27,1.09,5.9,1.59,8.22,2.04c4,0.77,7.45,1.43,12.5,4.64c7.38,4.7,24.63,6.08,26.38,6.21
				l6.45-3.99c0.21-0.13,0.49-0.07,0.62,0.15c0.13,0.21,0.07,0.49-0.15,0.62L495.5,342.52z"/>
		</g>
		<g>
			<path class="st15" d="M323.1,332.56c-0.14,0-0.28-0.08-0.37-0.22c-0.14-0.21-0.04-0.51,0.16-0.65
				c0.89-0.59,62.82-7.91,84.97-10.04c23.44-2.26,27.18-0.03,27.33,0.07c0.21,0.14,0.27,0.42,0.13,0.63
				c-0.14,0.21-0.42,0.27-0.63,0.13c-0.14-0.08-3.96-2.12-26.75,0.07c-23.7,2.28-82.97,9.4-84.63,9.94
				C323.25,332.54,323.18,332.56,323.1,332.56z"/>
		</g>
		<g>
			<path class="st15" d="M431.79,321.24c-4.55,0-19.5-2.58-25.6-4.37c-7.69-2.26-11.11-4.75-11.25-4.85
				c-0.2-0.15-0.24-0.43-0.1-0.63c0.15-0.2,0.43-0.24,0.63-0.1c0.03,0.02,3.44,2.5,10.96,4.71c7.77,2.29,24.79,4.81,26.11,4.32
				c0.2-0.15,0.46-0.1,0.61,0.09c0.15,0.2,0.09,0.5-0.1,0.65C432.91,321.18,432.46,321.24,431.79,321.24z"/>
		</g>
		<g>
			<g>
				<path class="st9" d="M301.35,258.17l-1.47-1.37c-0.27-0.26-0.36-0.65-0.22-1l12.39-30.9c0.13-0.33,0.45-0.56,0.81-0.57
					l18.17-0.57c0.31-0.01,0.61,0.14,0.78,0.4l1.19,1.76L301.35,258.17z"/>
			</g>
			<g>
				<path class="st13" d="M313.43,226.83l-12.18,30.48c-0.25,0.62,0.24,1.29,0.9,1.24l16.47-1.09c0.33-0.02,0.63-0.23,0.77-0.53
					l13.7-30.11c0.28-0.61-0.19-1.31-0.86-1.28l-17.99,0.73C313.88,226.28,313.56,226.5,313.43,226.83z"/>
			</g>
		</g>
		<g>
			<path class="st12" d="M291.35,245.05c0,0,6.12-4.68,9.44-4.83c3.32-0.15,5.12,0,5.12,0l-1.7,4.25c0,0,4.21,1.79,6.03,2.24
				c1.81,0.45,8.39-1.28,9.52-1.21c1.13,0.08,0.76,2.49-0.6,5.36s-3.55,5.31-10.27,6.5c-6.72,1.19-16.85-0.68-16.85-0.68
				L291.35,245.05z"/>
		</g>
		<g>
			<polygon class="st12" points="291.35,245.05 266.27,257.76 275.1,276.55 296.72,253.66 			"/>
		</g>
		<g>
			<g>
				<path class="st9" d="M246.51,205.57c-1.1,1.52-2.2,3.03-3.3,4.55c-0.34,0.47,0.44,0.93,0.78,0.46c1.1-1.52,2.2-3.03,3.3-4.55
					C247.64,205.55,246.85,205.1,246.51,205.57z"/>
			</g>
			<g>
				<path class="st9" d="M248.64,206.78c-1.1,1.52-2.2,3.03-3.3,4.55c-0.34,0.47,0.44,0.93,0.78,0.46c1.1-1.52,2.2-3.03,3.3-4.55
					C249.77,206.76,248.98,206.31,248.64,206.78z"/>
			</g>
		</g>
		<g>
			<g>
				<path class="st9" d="M252.53,242.24c-1.1,1.52-2.2,3.03-3.3,4.55c-0.34,0.47,0.44,0.93,0.78,0.46c1.1-1.52,2.2-3.03,3.3-4.55
					C253.66,242.23,252.87,241.77,252.53,242.24z"/>
			</g>
			<g>
				<path class="st9" d="M254.66,243.45c-1.1,1.52-2.2,3.03-3.3,4.55c-0.34,0.47,0.44,0.93,0.78,0.46c1.1-1.52,2.2-3.03,3.3-4.55
					C255.79,243.44,255,242.98,254.66,243.45z"/>
			</g>
		</g>
		<g>
			<g>
				<path class="st9" d="M334.23,263.03c-1.1,1.52-2.2,3.03-3.3,4.55c-0.34,0.47,0.44,0.93,0.78,0.46c1.1-1.52,2.2-3.03,3.3-4.55
					C335.35,263.01,334.57,262.56,334.23,263.03z"/>
			</g>
			<g>
				<path class="st9" d="M336.35,264.24c-1.1,1.52-2.2,3.03-3.3,4.55c-0.34,0.47,0.44,0.93,0.78,0.46c1.1-1.52,2.2-3.03,3.3-4.55
					C337.48,264.22,336.69,263.77,336.35,264.24z"/>
			</g>
		</g>
		<g>
			<g>
				<path class="st9" d="M296.88,224.89c-1.1,1.52-2.2,3.03-3.3,4.55c-0.34,0.47,0.44,0.93,0.78,0.46c1.1-1.52,2.2-3.03,3.3-4.55
					C298.01,224.87,297.22,224.42,296.88,224.89z"/>
			</g>
			<g>
				<path class="st9" d="M299.01,226.1c-1.1,1.52-2.2,3.03-3.3,4.55c-0.34,0.47,0.44,0.93,0.78,0.46c1.1-1.52,2.2-3.03,3.3-4.55
					C300.13,226.09,299.35,225.63,299.01,226.1z"/>
			</g>
		</g>
		<g>
			<g>
				<path class="st9" d="M215.7,286.44c-1.1,1.52-2.2,3.03-3.3,4.55c-0.34,0.47,0.44,0.93,0.78,0.46c1.1-1.52,2.2-3.03,3.3-4.55
					C216.83,286.42,216.04,285.97,215.7,286.44z"/>
			</g>
			<g>
				<path class="st9" d="M217.83,287.65c-1.1,1.52-2.2,3.03-3.3,4.55c-0.34,0.47,0.44,0.93,0.78,0.46c1.1-1.52,2.2-3.03,3.3-4.55
					C218.95,287.63,218.17,287.18,217.83,287.65z"/>
			</g>
		</g>
		<g>
			<g>
				<path class="st9" d="M255.81,324.63c-1.1,1.52-2.2,3.03-3.3,4.55c-0.34,0.47,0.44,0.93,0.78,0.46c1.1-1.52,2.2-3.03,3.3-4.55
					C256.94,324.62,256.15,324.17,255.81,324.63z"/>
			</g>
			<g>
				<path class="st9" d="M257.94,325.85c-1.1,1.52-2.2,3.03-3.3,4.55c-0.34,0.47,0.44,0.93,0.78,0.46c1.1-1.52,2.2-3.03,3.3-4.55
					C259.07,325.83,258.28,325.38,257.94,325.85z"/>
			</g>
		</g>
		<g>
			<g>
				<path class="st9" d="M199.24,226.98c-1.1,1.52-2.2,3.03-3.3,4.55c-0.34,0.47,0.44,0.93,0.78,0.46c1.1-1.52,2.2-3.03,3.3-4.55
					C200.36,226.97,199.58,226.51,199.24,226.98z"/>
			</g>
			<g>
				<path class="st9" d="M201.36,228.19c-1.1,1.52-2.2,3.03-3.3,4.55c-0.34,0.47,0.44,0.93,0.78,0.46c1.1-1.52,2.2-3.03,3.3-4.55
					C202.49,228.18,201.7,227.73,201.36,228.19z"/>
			</g>
		</g>
		<g>
			<g>
				<path class="st9" d="M280.6,202.75c-1.1,1.52-2.2,3.03-3.3,4.55c-0.34,0.47,0.44,0.93,0.78,0.46c1.1-1.52,2.2-3.03,3.3-4.55
					C281.72,202.74,280.94,202.28,280.6,202.75z"/>
			</g>
			<g>
				<path class="st9" d="M282.73,203.96c-1.1,1.52-2.2,3.03-3.3,4.55c-0.34,0.47,0.44,0.93,0.78,0.46c1.1-1.52,2.2-3.03,3.3-4.55
					C283.85,203.95,283.07,203.5,282.73,203.96z"/>
			</g>
		</g>
		<g>
			<g>
				<path class="st9" d="M220.31,329.71c-1.1,1.52-2.2,3.03-3.3,4.55c-0.34,0.47,0.44,0.93,0.78,0.46c1.1-1.52,2.2-3.03,3.3-4.55
					C221.43,329.7,220.65,329.24,220.31,329.71z"/>
			</g>
			<g>
				<path class="st9" d="M222.44,330.92c-1.1,1.52-2.2,3.03-3.3,4.55c-0.34,0.47,0.44,0.93,0.78,0.46c1.1-1.52,2.2-3.03,3.3-4.55
					C223.56,330.91,222.78,330.46,222.44,330.92z"/>
			</g>
		</g>
		<g>
			<g>
				<path class="st9" d="M269.36,227.97c-1.46-1.17-2.93-2.34-4.39-3.51c-0.46-0.36-0.95,0.4-0.49,0.76
					c1.46,1.17,2.93,2.34,4.39,3.51C269.33,229.09,269.82,228.33,269.36,227.97z"/>
			</g>
			<g>
				<path class="st9" d="M268.05,230.04c-1.46-1.17-2.93-2.34-4.39-3.51c-0.46-0.36-0.95,0.4-0.49,0.76
					c1.46,1.17,2.93,2.34,4.39,3.51C268.02,231.16,268.51,230.4,268.05,230.04z"/>
			</g>
		</g>
		<g>
			<g>
				<path class="st9" d="M237.18,304.74c-1.46-1.17-2.93-2.34-4.39-3.51c-0.46-0.36-0.95,0.4-0.49,0.76
					c1.46,1.17,2.93,2.34,4.39,3.51C237.15,305.87,237.63,305.11,237.18,304.74z"/>
			</g>
			<g>
				<path class="st9" d="M235.87,306.81c-1.46-1.17-2.93-2.34-4.39-3.51c-0.46-0.37-0.95,0.4-0.49,0.76
					c1.46,1.17,2.93,2.34,4.39,3.51C235.84,307.94,236.32,307.17,235.87,306.81z"/>
			</g>
		</g>
		<g>
			<g>
				<path class="st9" d="M236.67,264.41c-1.46-1.17-2.93-2.34-4.39-3.51c-0.46-0.37-0.95,0.4-0.49,0.76
					c1.46,1.17,2.93,2.34,4.39,3.51C236.64,265.53,237.13,264.77,236.67,264.41z"/>
			</g>
			<g>
				<path class="st9" d="M235.36,266.48c-1.46-1.17-2.93-2.34-4.39-3.51c-0.46-0.37-0.95,0.4-0.49,0.76
					c1.46,1.17,2.93,2.34,4.39,3.51C235.33,267.6,235.82,266.84,235.36,266.48z"/>
			</g>
		</g>
		<g>
			<g>
				<path class="st9" d="M306.64,267.67c-1.46-1.17-2.93-2.34-4.39-3.51c-0.46-0.36-0.95,0.4-0.49,0.76
					c1.46,1.17,2.93,2.34,4.39,3.51C306.6,268.8,307.09,268.03,306.64,267.67z"/>
			</g>
			<g>
				<path class="st9" d="M305.33,269.74c-1.46-1.17-2.93-2.34-4.39-3.51c-0.46-0.37-0.95,0.4-0.49,0.76
					c1.46,1.17,2.93,2.34,4.39,3.51C305.29,270.87,305.78,270.1,305.33,269.74z"/>
			</g>
		</g>
		<g>
			<g>
				<path class="st9" d="M274.55,305.78c-1.46-1.17-2.93-2.34-4.39-3.51c-0.46-0.37-0.95,0.4-0.49,0.76
					c1.46,1.17,2.93,2.34,4.39,3.51C274.52,306.9,275.01,306.14,274.55,305.78z"/>
			</g>
			<g>
				<path class="st9" d="M273.24,307.85c-1.46-1.17-2.93-2.34-4.39-3.51c-0.46-0.37-0.95,0.4-0.49,0.76
					c1.46,1.17,2.93,2.34,4.39,3.51C273.21,308.97,273.7,308.21,273.24,307.85z"/>
			</g>
		</g>
		<g>
			<g>
				<path class="st9" d="M211.11,258.27c1.42-1.23,2.83-2.45,4.25-3.68c0.44-0.38-0.22-1-0.66-0.62c-1.42,1.23-2.83,2.45-4.25,3.68
					C210.01,258.03,210.67,258.65,211.11,258.27z"/>
			</g>
			<g>
				<path class="st9" d="M209.31,256.6c1.42-1.23,2.83-2.45,4.25-3.68c0.44-0.38-0.22-1-0.66-0.62c-1.42,1.23-2.83,2.45-4.25,3.68
					C208.21,256.36,208.87,256.98,209.31,256.6z"/>
			</g>
		</g>
		<g>
			<g>
				<path class="st9" d="M254.72,285.88c1.42-1.23,2.83-2.45,4.25-3.68c0.44-0.38-0.22-1-0.66-0.62c-1.42,1.23-2.83,2.45-4.25,3.68
					C253.62,285.64,254.28,286.26,254.72,285.88z"/>
			</g>
			<g>
				<path class="st9" d="M252.92,284.22c1.42-1.23,2.83-2.45,4.25-3.68c0.44-0.38-0.22-1-0.66-0.62c-1.42,1.23-2.83,2.45-4.25,3.68
					C251.82,283.98,252.48,284.6,252.92,284.22z"/>
			</g>
		</g>
		<g>
			<g>
				<path class="st9" d="M313,294.62c1.42-1.23,2.83-2.45,4.25-3.68c0.44-0.38-0.22-1-0.66-0.62c-1.42,1.23-2.83,2.45-4.25,3.68
					C311.9,294.38,312.57,295,313,294.62z"/>
			</g>
			<g>
				<path class="st9" d="M311.21,292.96c1.42-1.23,2.83-2.45,4.25-3.68c0.44-0.38-0.22-1-0.66-0.62c-1.42,1.23-2.83,2.45-4.25,3.68
					C310.11,292.71,310.77,293.33,311.21,292.96z"/>
			</g>
		</g>
		<g>
			<g>
				<path class="st9" d="M294.89,319.22c1.42-1.23,2.83-2.45,4.25-3.68c0.44-0.38-0.22-1-0.66-0.62c-1.42,1.23-2.83,2.45-4.25,3.68
					C293.79,318.98,294.45,319.6,294.89,319.22z"/>
			</g>
			<g>
				<path class="st9" d="M293.09,317.55c1.42-1.23,2.83-2.45,4.25-3.68c0.44-0.38-0.22-1-0.66-0.62c-1.42,1.23-2.83,2.45-4.25,3.68
					C291.99,317.31,292.65,317.93,293.09,317.55z"/>
			</g>
		</g>
		<g>
			<g>
				<path class="st9" d="M289.43,290.43c1.42-1.23,2.83-2.45,4.25-3.68c0.44-0.38-0.22-1-0.66-0.62c-1.42,1.23-2.83,2.45-4.25,3.68
					C288.33,290.19,288.99,290.81,289.43,290.43z"/>
			</g>
			<g>
				<path class="st9" d="M287.63,288.77c1.42-1.23,2.83-2.45,4.25-3.68c0.44-0.38-0.22-1-0.66-0.62c-1.42,1.23-2.83,2.45-4.25,3.68
					C286.53,288.53,287.19,289.15,287.63,288.77z"/>
			</g>
		</g>
		<g>
			<g>
				<path class="st9" d="M232.74,229.82c-1.46-1.17-2.93-2.34-4.39-3.51c-0.46-0.37-0.95,0.4-0.49,0.76
					c1.46,1.17,2.93,2.34,4.39,3.51C232.71,230.95,233.2,230.19,232.74,229.82z"/>
			</g>
			<g>
				<path class="st9" d="M231.43,231.89c-1.46-1.17-2.93-2.34-4.39-3.51c-0.46-0.36-0.95,0.4-0.49,0.76
					c1.46,1.17,2.93,2.34,4.39,3.51C231.4,233.02,231.89,232.26,231.43,231.89z"/>
			</g>
		</g>
		<g>
			<g>
				<path class="st9" d="M320.27,215.02c-1.46-1.17-2.93-2.34-4.39-3.51c-0.46-0.37-0.95,0.4-0.49,0.76
					c1.46,1.17,2.93,2.34,4.39,3.51C320.24,216.15,320.73,215.38,320.27,215.02z"/>
			</g>
			<g>
				<path class="st9" d="M318.96,217.09c-1.46-1.17-2.93-2.34-4.39-3.51c-0.46-0.37-0.95,0.4-0.49,0.76
					c1.46,1.17,2.93,2.34,4.39,3.51C318.93,218.21,319.42,217.45,318.96,217.09z"/>
			</g>
		</g>
		<g>
			<g>
				<path class="st9" d="M228.16,201.32c-1.46-1.17-2.93-2.34-4.39-3.51c-0.46-0.36-0.95,0.4-0.49,0.76
					c1.46,1.17,2.93,2.34,4.39,3.51C228.12,202.45,228.61,201.68,228.16,201.32z"/>
			</g>
			<g>
				<path class="st9" d="M226.85,203.39c-1.46-1.17-2.93-2.34-4.39-3.51c-0.46-0.36-0.95,0.4-0.49,0.76
					c1.46,1.17,2.93,2.34,4.39,3.51C226.81,204.51,227.3,203.75,226.85,203.39z"/>
			</g>
		</g>
		<g>
			<g>
				<path class="st0" d="M323.29,456.4l-14.43-23.19c-0.73-1.18,0.08-2.71,1.46-2.77l62.2-2.61L323.29,456.4z"/>
			</g>
			<g>
				<path class="st0" d="M422.44,449.72l-99.14,6.67l9.88-69.67c0.13-0.86,0.84-1.5,1.71-1.54l100.39-5.34
					c1.18-0.05,2.09,1.01,1.86,2.17l-13.23,66.43C423.77,449.14,423.16,449.67,422.44,449.72z"/>
			</g>
			<g>
				<path class="st4" d="M323.8,453.43c-0.02,0-0.05,0-0.07-0.01c-0.25-0.04-0.42-0.27-0.38-0.52l3.22-21.59
					c0.04-0.25,0.27-0.42,0.52-0.38c0.25,0.04,0.42,0.27,0.38,0.52l-3.22,21.59C324.22,453.27,324.02,453.43,323.8,453.43z"/>
			</g>
			<g>
				<path class="st4" d="M325.64,455.49c-0.24,0-0.43-0.18-0.45-0.42c-0.02-0.25,0.17-0.47,0.42-0.48l95.53-6.77
					c0.22-0.02,0.47,0.17,0.48,0.42c0.02,0.25-0.17,0.47-0.42,0.48l-95.53,6.77C325.66,455.49,325.65,455.49,325.64,455.49z"/>
			</g>
			<g>
				<path class="st4" d="M431.94,384.92c-0.5-0.61-1.21-0.92-2.01-0.91l-12.55,0.48c-1.1,0.05-2.06,0.82-2.32,1.89l-0.05,0.16
					c-0.19,0.77-0.01,1.57,0.5,2.18c0.48,0.58,1.17,0.91,1.92,0.91h0.13l12.59-0.65c1.11-0.05,2.05-0.84,2.3-1.92
					C432.63,386.31,432.45,385.52,431.94,384.92z M431.57,386.86c-0.15,0.69-0.76,1.2-1.46,1.23l-12.59,0.64
					c-0.52,0.02-0.98-0.18-1.31-0.58c-0.32-0.39-0.44-0.9-0.32-1.39l0.05-0.16c0.17-0.68,0.78-1.18,1.48-1.21l12.55-0.48h0.06
					c0.47,0,0.92,0.21,1.21,0.57C431.56,385.88,431.68,386.38,431.57,386.86z"/>
			</g>
		</g>
		<g>
			<g>
				<path class="st17" d="M272.97,415c-0.04,2.17-3.66,26.24-4.53,27.91c-0.88,1.67-6.2,3.03-10.83,2.43
					c-6.62-0.86-7.86-2.93-8.66-4.03c-0.8-1.1-2.76-26.62-2.12-28.41c0.64-1.79,7.11-3.88,16.43-2.73
					C272.25,411.29,273.01,413.21,272.97,415z"/>
			</g>
			<g>
				<g>
					<path class="st17" d="M257.7,426.46c-0.08-0.7-0.23-1.37-0.44-2.01c-0.04-0.13-0.08-0.25-0.13-0.38
						c-0.34-0.91-0.8-1.74-1.36-2.47c-0.2-0.25-0.41-0.51-0.63-0.73c-1.7-1.8-4.06-2.81-6.54-2.53c-0.63,0.07-1.23,0.22-1.8,0.44
						c-0.48,0.19-0.93,0.42-1.36,0.69c-2.41,1.54-3.98,4.43-3.98,7.68c0,0.37,0.02,0.74,0.06,1.12c0.05,0.41,0.11,0.81,0.2,1.2
						c0.44,1.9,1.42,3.6,2.81,4.88c0.48,0.44,0.99,0.81,1.52,1.1c0.66,0.39,1.35,0.66,2.08,0.82c0.49,0.13,1,0.19,1.5,0.2
						c0.33,0,0.65-0.01,0.98-0.05c1.92-0.22,3.6-1.16,4.85-2.57C257.12,431.97,258.02,429.3,257.7,426.46z M244.34,428.61
						c-0.05-0.21-0.08-0.44-0.11-0.65c-0.3-2.66,0.85-5.09,2.73-6.25c0.59-0.36,1.25-0.6,1.96-0.68c2.53-0.28,4.88,1.54,5.76,4.25
						c0.16,0.46,0.27,0.96,0.33,1.48c0.39,3.49-1.71,6.6-4.68,6.93c-0.85,0.09-1.7-0.05-2.49-0.42c-0.52-0.23-1.01-0.55-1.46-0.96
						C245.34,431.36,244.62,430.07,244.34,428.61z"/>
				</g>
			</g>
			<g>
				<path class="st18" d="M271.04,413.83c0.02-0.88-4.41-2.62-10.98-2.75c-6.57-0.13-11.36,1.43-11.38,2.3
					c-0.02,0.88,4.26,2.62,10.83,2.75C266.07,416.26,271.02,414.7,271.04,413.83z"/>
			</g>
			<g>
				<g class="st19">
					<path class="st0" d="M259.72,411.08c-0.02-0.39-0.05-0.78-0.09-1.19c-0.19-1.83-0.62-3.82-1.2-5.71v-0.01
						c-0.18-0.58-0.37-1.13-0.58-1.69c-0.12-0.34-0.25-0.69-0.39-1.02c-0.38-0.93-0.79-1.8-1.21-2.59c-0.1-0.17-0.19-0.34-0.28-0.49
						c-0.97-1.65-2.49-2.86-3.59-4.41c-1.11-1.55-1.6-3.36-2.39-5.08c-2.18-4.76-7.03-10.86-12.68-11.43
						c-1.56-0.15-2.48,0.51-2.79,1.72c-0.09,0.33-0.13,0.7-0.13,1.11c0.03,2.42,1.51,4.5,3.58,5.63c0.75,0.42,1.53,0.77,2.31,1.11
						h0.01c1.97,0.84,3.97,1.57,5.78,2.86c1.72,1.23,3.23,2.7,4.52,4.34c-0.02,0-0.04-0.01-0.05-0.02
						c-0.83-0.28-1.92-0.45-2.77-0.25c-0.83,0.21-1.45,0.77-1.41,1.96c0.05,1.64,1.18,2.65,2.56,3.46c1.05,0.63,2.24,1.12,3.22,1.71
						c0.01,0,0.01,0.01,0.02,0.01h0.01c0.36,0.22,0.69,0.44,0.97,0.7c2.02,1.84,3.26,4.6,4.34,7.29c0.11,0.25,0.21,0.51,0.31,0.76
						c0.16,0.42,0.33,0.82,0.49,1.23c0.21,0.52,0.42,1.02,0.63,1.51c0.18,0.43,0.83,0.21,0.84-0.22
						C259.74,411.96,259.74,411.52,259.72,411.08z"/>
				</g>
				<g class="st19">
					<path class="st0" d="M261.35,393.36c-0.15-0.39-0.34-0.82-0.54-1.31v-0.01c-1.19-2.74-3.3-6.45-6.16-6.56
						c-0.32-0.01-0.64,0.05-0.93,0.18c-0.39,0.18-0.72,0.49-0.85,0.9c-0.27,0.85,0.34,1.71,0.91,2.4c1.68,2,2.81,3.84,3.88,6.25
						c0.62,1.39,1.42,1.97,2.16,1.99C261.12,397.24,262.18,395.49,261.35,393.36z"/>
				</g>
			</g>
		</g>
		<g>
			<g>
				<path class="st20" d="M283.71,436.43c-0.48,0.13-1.01-0.05-1.29-0.48c-0.36-0.54-0.21-1.26,0.33-1.62l29.59-19.51
					c0.54-0.36,4-1.49,4-1.49s-2.18,3.09-2.71,3.44l-29.59,19.51C283.93,436.35,283.82,436.4,283.71,436.43z"/>
			</g>
		</g>
		<g>
			<g>
				<polygon class="st0" points="439.83,408.31 468.38,387.69 526.17,397.44 505.78,422.37 				"/>
			</g>
			<g>
				<polygon class="st17" points="498.38,416.47 492.71,423.27 495.73,424.03 501.31,417.15 				"/>
			</g>
			<g>
				<path class="st4" d="M500.8,414.19c-0.1,0-0.19-0.03-0.28-0.09c-0.2-0.15-0.24-0.44-0.08-0.64l9.34-12.21
					c0.15-0.2,0.44-0.24,0.64-0.09c0.2,0.15,0.24,0.44,0.09,0.64l-9.34,12.21C501.07,414.13,500.94,414.19,500.8,414.19z"/>
			</g>
			<g>
				<path class="st4" d="M493.71,415.79c-0.1,0-0.2-0.03-0.28-0.1c-0.2-0.16-0.23-0.44-0.07-0.64l14.18-17.68
					c0.16-0.19,0.44-0.23,0.64-0.07c0.2,0.16,0.23,0.44,0.07,0.64l-14.18,17.68C493.97,415.73,493.84,415.79,493.71,415.79z"/>
			</g>
			<g>
				<path class="st4" d="M488.33,414.96c-0.1,0-0.2-0.03-0.29-0.1c-0.19-0.16-0.22-0.44-0.06-0.64l14.96-18.15
					c0.16-0.19,0.44-0.22,0.64-0.06c0.19,0.16,0.22,0.44,0.06,0.64l-14.96,18.15C488.59,414.91,488.46,414.96,488.33,414.96z"/>
			</g>
			<g>
				<path class="st4" d="M482.66,414.19c-0.11,0-0.21-0.04-0.3-0.11c-0.19-0.16-0.21-0.45-0.04-0.64l15.98-18.23
					c0.17-0.19,0.45-0.21,0.64-0.04c0.19,0.16,0.21,0.45,0.04,0.64L483,414.04C482.91,414.14,482.79,414.19,482.66,414.19z"/>
			</g>
			<g>
				<path class="st4" d="M477.75,413.4c-0.11,0-0.22-0.04-0.31-0.12c-0.19-0.17-0.2-0.46-0.03-0.64l16.64-18.11
					c0.17-0.18,0.46-0.2,0.64-0.03c0.19,0.17,0.2,0.46,0.03,0.64l-16.64,18.11C477.99,413.35,477.87,413.4,477.75,413.4z"/>
			</g>
			<g>
				<path class="st4" d="M455.69,407.35c-0.13,0-0.26-0.05-0.34-0.16c-0.16-0.19-0.14-0.48,0.05-0.64l18.64-15.93
					c0.19-0.16,0.48-0.14,0.64,0.05c0.16,0.19,0.14,0.48-0.05,0.64l-18.64,15.93C455.9,407.31,455.8,407.35,455.69,407.35z"/>
			</g>
			<g>
				<path class="st4" d="M451.04,406.55c-0.13,0-0.26-0.06-0.35-0.16c-0.16-0.19-0.13-0.48,0.06-0.64l19.04-15.81
					c0.19-0.16,0.48-0.13,0.64,0.06c0.16,0.19,0.13,0.48-0.06,0.64l-19.04,15.81C451.25,406.52,451.14,406.55,451.04,406.55z"/>
			</g>
		</g>
		<g>
			<polygon class="st0" points="482.66,391.75 494.85,374.23 544,375.28 538.34,395.51 			"/>
		</g>
		<g>
			<path class="st4" d="M498.43,376.04c-1.76,0.09-3.14,1.28-3.07,2.66c0.07,1.31,1.45,2.33,3.12,2.33h0.21
				c1.72-0.09,3.07-1.21,3.07-2.56v-0.1C501.69,377,500.19,375.96,498.43,376.04z M498.63,380.12c-1.22,0.06-2.33-0.62-2.38-1.47
				c-0.05-0.86,0.97-1.64,2.22-1.7h0.15c1.18,0,2.18,0.65,2.21,1.47C500.89,379.28,499.88,380.05,498.63,380.12z"/>
		</g>
		<g>
			<path class="st4" d="M533.84,393.26c-0.04,0-0.08-0.01-0.12-0.02c-0.24-0.07-0.38-0.32-0.31-0.56l4.38-15.71
				c0.07-0.24,0.32-0.38,0.56-0.31c0.24,0.07,0.38,0.32,0.31,0.56l-4.38,15.71C534.22,393.13,534.04,393.26,533.84,393.26z"/>
		</g>
		<g>
			<path class="st4" d="M529.95,392.81c-0.04,0-0.09-0.01-0.13-0.02c-0.24-0.07-0.38-0.32-0.3-0.56l4.61-15.26
				c0.07-0.24,0.33-0.37,0.56-0.3c0.24,0.07,0.38,0.32,0.3,0.56l-4.61,15.26C530.32,392.68,530.15,392.81,529.95,392.81z"/>
		</g>
		<g>
			<path class="st4" d="M526.17,392.81c-0.04,0-0.09-0.01-0.13-0.02c-0.24-0.07-0.38-0.32-0.3-0.56l4.61-15.26
				c0.07-0.24,0.33-0.37,0.56-0.3c0.24,0.07,0.38,0.32,0.3,0.56l-4.61,15.26C526.55,392.68,526.37,392.81,526.17,392.81z"/>
		</g>
		<g>
			<path class="st4" d="M501.31,391.42c-0.07,0-0.14-0.02-0.2-0.05c-0.22-0.11-0.32-0.38-0.21-0.61l7.34-14.81
				c0.11-0.23,0.38-0.31,0.61-0.21c0.22,0.11,0.32,0.38,0.21,0.61l-7.34,14.81C501.63,391.33,501.47,391.42,501.31,391.42z"/>
		</g>
		<g>
			<path class="st21" d="M205.8,281.92c-0.05,0-0.1-0.01-0.16-0.03c-0.23-0.09-0.35-0.35-0.27-0.58c0.22-0.6,5.5-14.84,9.88-17.63
				c2.22-1.41,4.7-2.16,7.33-2.95c2.5-0.76,5.09-1.54,7.48-2.95c3.51-2.07,7.49-1.17,11-0.38c1.53,0.35,2.98,0.68,4.19,0.69
				c1.99,0.03,3.35-0.49,4.93-1.08c1.42-0.54,3.03-1.15,5.3-1.35c2.13-0.19,3.59,0.1,4.33,0.88c0.24,0.25,0.37,0.51,0.43,0.73
				l4.03-0.25c0.23-0.01,0.46,0.17,0.48,0.42c0.02,0.25-0.17,0.46-0.42,0.48l-5.01,0.32l0.07-0.55c0,0,0.02-0.27-0.26-0.55
				c-0.31-0.31-1.19-0.8-3.57-0.58c-2.14,0.19-3.62,0.75-5.06,1.3c-1.6,0.6-3.11,1.16-5.27,1.14c-1.3-0.02-2.8-0.36-4.38-0.72
				c-3.34-0.76-7.13-1.61-10.33,0.27c-2.49,1.47-5.13,2.26-7.68,3.03c-2.57,0.77-4.99,1.51-7.1,2.85
				c-4.13,2.63-9.47,17.03-9.52,17.17C206.16,281.8,205.99,281.92,205.8,281.92z"/>
		</g>
		<g>
			<path class="st21" d="M222.4,304c-6.13,0-8.78-1.36-8.91-1.42c-0.22-0.12-0.3-0.39-0.19-0.61c0.12-0.22,0.39-0.31,0.61-0.19
				c0.04,0.02,3.72,1.88,12.41,1.15c7.81-0.66,28.56-2.39,30.89-6.14c2.03-3.27,8.25-8.55,11.6-11.38c0.72-0.61,1.29-1.09,1.62-1.39
				c1.76-1.58,4.79-6.09,4.82-6.13c0.14-0.21,0.42-0.26,0.63-0.12c0.21,0.14,0.26,0.42,0.12,0.63c-0.13,0.19-3.12,4.64-4.97,6.3
				c-0.34,0.3-0.91,0.79-1.64,1.4c-3.07,2.6-9.46,8.02-11.41,11.17c-2.26,3.64-17.23,5.36-31.58,6.56
				C224.94,303.94,223.6,304,222.4,304z"/>
		</g>
		<g>
			<path class="st21" d="M236.05,255.93c-0.2,0-0.39-0.14-0.44-0.35c-0.03-0.12-2.99-12.04-8.91-18.01
				c-6-6.06-24.58-22.38-24.77-22.55c-0.19-0.17-0.21-0.45-0.04-0.64c0.17-0.19,0.45-0.21,0.64-0.04
				c0.19,0.16,18.8,16.51,24.82,22.59c6.1,6.15,9.02,17.94,9.14,18.43c0.06,0.24-0.09,0.49-0.33,0.55
				C236.12,255.92,236.09,255.93,236.05,255.93z"/>
		</g>
		<g>
			<path class="st21" d="M305.51,236.59c-0.02,0-0.04,0-0.06,0c-0.25-0.03-0.42-0.26-0.39-0.51l3.65-26.97
				c0.03-0.25,0.26-0.42,0.51-0.39c0.25,0.03,0.42,0.26,0.39,0.51l-3.65,26.97C305.93,236.42,305.74,236.59,305.51,236.59z"/>
		</g>
		<g>
			<path class="st21" d="M322.96,271.79c-0.19,0-0.37-0.13-0.43-0.32c-0.04-0.14-1.04-3.45-0.97-8.61
				c0.08-5.18,2.92-11.25,3.04-11.51c0.11-0.23,0.38-0.32,0.6-0.22c0.23,0.11,0.32,0.38,0.22,0.6c-0.03,0.06-2.88,6.15-2.95,11.14
				c-0.07,5,0.92,8.3,0.93,8.33c0.07,0.24-0.06,0.49-0.3,0.57C323.05,271.78,323.01,271.79,322.96,271.79z"/>
		</g>
		<g>
			<path class="st21" d="M314.65,271.05c-0.2,0-0.39-0.14-0.44-0.34l-2.45-9.8c-0.06-0.24,0.09-0.49,0.33-0.55
				c0.25-0.06,0.49,0.09,0.55,0.33l2.45,9.8c0.06,0.24-0.09,0.49-0.33,0.55C314.72,271.05,314.68,271.05,314.65,271.05z"/>
		</g>
		<g>
			<path class="st21" d="M346.57,242.5h-7.55c-0.25,0-0.45-0.2-0.45-0.45c0-0.25,0.2-0.45,0.45-0.45h7.55c0.25,0,0.45,0.2,0.45,0.45
				C347.02,242.29,346.82,242.5,346.57,242.5z"/>
		</g>
		<g>
			<g>
				<path class="st9" d="M561.92,382.57l-0.82-1.44l43.64-19.93l18.76-3.89l0.98,1.15c0.17,0.21,0.25,0.48,0.2,0.74l-4.2,24.76
					c-0.08,0.44-0.47,0.76-0.92,0.75l-56.97-1.81C562.33,382.89,562.09,382.77,561.92,382.57z"/>
			</g>
			<g>
				<path class="st0" d="M568.78,354.67l53.99,2.21c0.55,0.02,0.95,0.52,0.86,1.06l-4.37,24.57c-0.08,0.44-0.47,0.76-0.92,0.75
					l-56.52-1.72c-0.59-0.02-1-0.58-0.85-1.15l6.89-25.06C567.98,354.93,568.36,354.66,568.78,354.67z"/>
			</g>
			<g>
				<path class="st4" d="M572.32,356.81l-5.17,22.3c-0.13,0.56,0.28,1.09,0.85,1.11l48.9,1.75c0.45,0.02,0.85-0.3,0.93-0.75
					l3.92-22.07c0.1-0.54-0.31-1.04-0.85-1.06l-47.64-1.98C572.81,356.09,572.42,356.39,572.32,356.81z"/>
			</g>
			<g>
				<path class="st4" d="M566.7,368.95L566.7,368.95c-0.49-0.11-0.79-0.6-0.68-1.09l0.8-3.46c0.11-0.49,0.6-0.79,1.09-0.68l0,0
					c0.49,0.11,0.79,0.6,0.68,1.09l-0.8,3.46C567.67,368.76,567.19,369.06,566.7,368.95z"/>
			</g>
		</g>
		<g>
			<path class="st22" d="M675.41,288.8c-0.15-9.89-0.37-19.79-0.55-29.68c-0.03-1.75-2.75-1.75-2.72,0
				c0.18,9.89,0.4,19.79,0.55,29.68c0.15,9.85-1.49,19.62-1.22,29.45c0.05,1.75,2.77,1.75,2.72,0
				C673.92,308.42,675.56,298.65,675.41,288.8z"/>
		</g>
		<g>
			<g>
				<path class="st18" d="M691.32,314.6c-0.33-2.55-8.7-6.43-19.01-6.43c-10.3,0-18.67,3.88-19.01,6.43h-0.03v38.83h0.12
					c1.04,2.57,9.11,6.33,18.92,6.33c9.81,0,17.88-3.76,18.92-6.33h0.12V314.6H691.32z"/>
			</g>
			<g>
				<path class="st23" d="M656.33,314.02c0-1.96,6.98-4.14,15.11-4.14c8.13,0,16.99,2.44,16.99,4.41c0,1.96-8.48,3.29-16.61,3.29
					C663.69,317.57,656.33,315.98,656.33,314.02z"/>
			</g>
			<g>
				<path class="st24" d="M647.64,294.93c-1.43-1.24-3.49-2.02-5.79-2.08c-5.64-0.15-11.29,2.5-14.79,6.93
					c-1.08,1.37-1.98,2.95-2.27,4.67c-0.29,1.73,0.11,3.63,1.33,4.89c0.78,0.8,1.83,1.3,2.91,1.59c4.48,1.22,9.17-0.8,13.24-3.04
					c1.98-1.09,3.97-2.27,5.46-3.97C649.87,301.47,650.41,297.32,647.64,294.93z"/>
			</g>
			<g>
				<path class="st24" d="M647.65,278.24c-0.74-0.18-1.5-0.24-2.26-0.2c-1.97-0.1-4.12,0.42-5.51,1.05
					c-3.12,1.41-4.84,5.81-1.37,7.96c3.03,1.88,7.67,0.66,10.19-1.57C651.24,283.24,651.42,279.15,647.65,278.24z"/>
			</g>
			<g>
				<path class="st24" d="M687.12,219.77c-0.06,0-0.12,0.01-0.18,0.02c-1.91,0.2-3.7,1.08-5.23,2.23c-3.79,2.85-6.74,7.19-8.1,11.73
					c-1.27,4.22-0.66,9.61,4.62,9.94c2.96,0.19,5.89-1.06,8.18-2.95c2.29-1.89,4.01-4.38,5.46-6.97c1.09-1.94,2.07-3.99,2.32-6.2
					c0.26-2.21-0.31-4.61-1.92-6.14C690.92,220.15,688.97,219.61,687.12,219.77z"/>
			</g>
			<g>
				<path class="st24" d="M667.5,239.35c-0.25-1.02-0.76-1.98-1.35-2.86c-1.2-1.77-2.89-3.33-4.99-3.78
					c-4.93-1.04-7.21,4.7-4.51,8.27c1.22,1.61,3.08,2.61,4.99,3.23c1.33,0.43,2.83,0.67,4.07,0.04c1.31-0.67,2-2.22,1.96-3.69
					C667.66,240.15,667.6,239.75,667.5,239.35z"/>
			</g>
			<g>
				<path class="st24" d="M704.4,241c-0.53-0.08-1.08-0.09-1.59-0.08c-4.61,0.17-9.16,1.63-13.01,4.15
					c-1.83,1.2-3.54,2.67-4.59,4.59c-1.48,2.68-1.56,7.99,2.31,8.65c1.13,0.19,2.29-0.09,3.38-0.43c6.11-1.9,11.53-5.92,15.14-11.21
					c0.84-1.23,1.6-2.83,0.92-4.16C706.47,241.59,705.47,241.17,704.4,241z"/>
			</g>
			<g>
				<path class="st24" d="M655.97,251.46c-3.92-3.01-8.88-5.24-12.37-6.39c-1.6-0.53-3.37-0.86-4.95-0.29
					c-2.35,0.85-3.63,3.45-3.96,5.93c-0.52,3.92,0.8,7.97,3.27,11.06c2.46,3.09,6,5.23,9.8,6.33c3.19,0.92,6.75,1.1,9.74-0.34
					c2.99-1.45,5.19-4.82,4.53-8.08C661.33,256.21,658.67,253.53,655.97,251.46z"/>
			</g>
			<g>
				<path class="st24" d="M704.35,304.12c-1.28-1.31-2.77-2.39-4.41-3.12c-1.93-0.87-4.45-0.8-5.91,0.73
					c-1.08,1.14-1.38,2.81-1.43,4.38c-0.17,5.36,1.99,10.75,5.81,14.5c1.87,1.84,4.55,3.36,7.04,2.51c2.62-0.89,3.79-3.99,3.87-6.75
					C709.45,312,707.52,307.35,704.35,304.12z"/>
			</g>
			<g>
				<path class="st24" d="M719.02,276.1c-1-3.56-5.25-6.5-8.92-7.13c-3.91-0.67-7.87-1.02-11.83-0.91
					c-2.73,0.08-5.65,0.46-7.68,2.28c-2.06,1.84-2.74,5.06-1.6,7.58c1.44,3.21,5.13,4.71,8.55,5.53c5.5,1.31,11.35,1.63,16.76-0.01
					c1.39-0.42,2.82-1.02,3.68-2.19C719.26,279.5,719.48,277.73,719.02,276.1z"/>
			</g>
			<g>
				<path class="st24" d="M672.68,312.56c-1.25-0.93-2.96-1.15-4.5-0.82c-7.51,1.59-10.63,11.3-8.6,17.92
					c0.81,2.62,2.84,5.31,5.58,5.25c1.93-0.04,3.55-1.44,4.78-2.92c3.09-3.72,4.87-8.52,4.94-13.36c0.03-2.16-0.37-4.54-2.03-5.92
					C672.8,312.65,672.74,312.6,672.68,312.56z"/>
			</g>
			<g>
				<path class="st22" d="M693.43,248.98c-4.48,1.36-8.49,2.88-12.08,5.96c-1.96,1.68-4.55,3.55-6.43,5.76
					c-0.06-0.86-0.17-1.69-0.32-2.5c0.64-8.73,3.78-16.77,9.3-23.62c0.73-0.9-0.55-2.19-1.28-1.28c-4.89,6.06-8.04,12.98-9.31,20.5
					c-2.35-5.84-6.8-10.7-10.72-15.79c-0.7-0.91-2.28-0.01-1.57,0.92c4.63,6.01,10.29,11.77,11.76,19.34
					c-0.02,0.28-0.05,0.55-0.06,0.83c-0.02,0.32,0.11,0.54,0.3,0.68c0.05,0.4,0.09,0.79,0.11,1.2c0.03,0.56,0.47,0.85,0.91,0.87
					c-0.62,0.91-1.1,1.88-1.36,2.91c-0.28,1.13,1.47,1.62,1.75,0.48c0.88-3.59,5.49-6.69,8.19-9.01c3.33-2.86,7.14-4.25,11.28-5.5
					C695.03,250.39,694.55,248.64,693.43,248.98z"/>
			</g>
			<g>
				<path class="st22" d="M701.62,274.26c-9.3-0.88-18.41,0.44-27.06,3.9c-0.02-0.03-0.03-0.05-0.05-0.08
					c-7.45-9.21-17.78-19.16-29.49-22.31c-1.13-0.3-1.61,1.45-0.48,1.75c11.28,3.03,21.34,12.79,28.57,21.7
					c-0.13,0.63,0.32,1.35,1.06,1.04c8.76-3.67,18-5.09,27.46-4.19C702.79,276.18,702.78,274.36,701.62,274.26z"/>
			</g>
			<g>
				<path class="st22" d="M673.78,280.48c-4.4-2.23-9.27-2-14.09-1.96c-5.64,0.05-11.11,0.57-16.39,2.66
					c-1.07,0.43-0.6,2.18,0.48,1.75c4.61-1.83,9.39-2.46,14.33-2.58c4.85-0.12,10.32-0.56,14.76,1.69
					C673.9,282.57,674.82,281.01,673.78,280.48z"/>
			</g>
			<g>
				<path class="st22" d="M675.64,290.16c-6.76-1.36-13.41,0.73-19.84,2.75c-6.04,1.9-11.68,4.4-16.48,8.61
					c-0.88,0.77,0.41,2.05,1.28,1.28c4.55-3.99,9.95-6.35,15.68-8.14c6.06-1.9,12.5-4.04,18.88-2.75
					C676.29,292.14,676.78,290.39,675.64,290.16z"/>
			</g>
			<g>
				<path class="st22" d="M672.99,302.85c-3.05,5.36-5.4,10.99-7.04,16.94c-0.31,1.13,1.44,1.61,1.75,0.48
					c1.6-5.8,3.88-11.28,6.85-16.51C675.13,302.75,673.57,301.83,672.99,302.85z"/>
			</g>
			<g>
				<path class="st22" d="M701.33,308.23c-6.01-8.06-16.95-11.92-26.4-14.15c-1.13-0.27-1.62,1.48-0.48,1.75
					c8.9,2.1,19.63,5.69,25.32,13.32C700.45,310.07,702.03,309.17,701.33,308.23z"/>
			</g>
			<g>
				<path class="st24" d="M677.41,285.5c-1-0.43-2.07-0.59-3.06-0.19c-1.07,0.44-1.8,1.46-2.28,2.51
					c-1.84,4.04-0.38,9.63,1.54,13.43c0.95,1.86,2.44,3.54,4.4,4.27c1.96,0.73,4.41,0.33,5.73-1.29c0.74-0.9,1.07-2.06,1.25-3.2
					c0.87-5.42-1.49-11.24-5.89-14.53C678.59,286.11,678.01,285.76,677.41,285.5z"/>
			</g>
			<g>
				<path class="st22" d="M675.08,281.95c-0.06-1.16-1.88-1.17-1.81,0c0.19,3.51,2.77,6.16,3.23,9.58c0.16,1.15,1.9,0.66,1.75-0.48
					C677.81,287.8,675.26,285.24,675.08,281.95z"/>
			</g>
		</g>
	</g>
</g>
</svg>
